<?xml version="1.0" encoding="utf-8"?>
<!-- Generator: Adobe Illustrator 26.0.2, SVG Export Plug-In . SVG Version: 6.00 Build 0)  -->
<svg version="1.1" id="Layer_1" xmlns="http://www.w3.org/2000/svg" xmlns:xlink="http://www.w3.org/1999/xlink" x="0px" y="0px"
	 viewBox="0 0 2945 688" style="enable-background:new 0 0 2945 688;" xml:space="preserve">
<style type="text/css">
	.st0{fill:#ED1C24;}
	.st1{clip-path:url(#SVGID_00000165204016804356150640000009700896685607193476_);fill:#404F62;}
</style>
<symbol  id="KaizenTech" viewBox="-281.8 -80.4 563.5 160.8">
	<g>
		<path d="M-44.2,4.2C-45-1-43.3-4.1-38.8-5.6C-31.4-8-23.9-7-16.5-5.8c1.6,0.3,3.2,0.6,4.9,0.8c2.6,0.3,4-0.8,4.2-3.4
			c0-0.3,0.1-0.6,0.1-0.9c0.7-8.6-0.4-10.1-8.8-11.7c-8.6-1.6-17.2-1.6-25.8,0.3c-10.9,2.3-17.2,8.8-18.3,19.8
			c-0.7,6.9-0.8,14.1,0,21c1.4,13.3,8.6,20.1,22,21.8c7,0.9,14,0.7,20.6-2.3c5.4-2.4,8.9-6.6,10.7-12.1C-5,21.7-4.8,15.8-5.6,10
			c-0.6-4.4-2-5.6-6.6-5.7C-20.5,4.2-28.8,4.2-37,4.2C-39.4,4.2-41.7,4.2-44.2,4.2 M-44.2,17.3c6.5,0,12.9,0,19.2,0
			c4.9,0,6.1,2,3.5,6.2c-1,1.6-2.8,3.4-4.5,3.8c-3.8,0.7-7.7,1-11.5,0.5C-42.8,27-45.1,23.1-44.2,17.3"/>
		<path d="M-176.9,16.5c0,1.7,0,3,0,4.2c-0.1,4.5-1.8,7-6.3,7.3c-5.7,0.4-11.5,0.2-17.2-0.1c-4.9-0.2-6.1,0.2-6.7,3.4
			c-1.1,5.5,0.5,9.3,4.8,10c9.5,1.5,19.1,1.8,28.4-1.4c8.4-2.8,12.6-8.4,12.8-17.3c0.2-8.8,0.2-17.5,0-26.3s-4.9-14.5-13.4-16.7
			c-9.1-2.3-18.2-2.3-27.2,0.2c-8.3,2.4-12.4,8.1-12.6,16.9c-0.2,9.3,3.7,15.7,12.1,17.8c5.7,1.4,11.8,1.4,17.7,1.9
			C-182.1,16.7-179.7,16.5-176.9,16.5 M-188.1-8.8c1.8,0.2,3.6,0.2,5.5,0.5c3.1,0.5,5,2.3,5.4,5.5c0.2,1.9,0.3,3.9,0.2,5.9
			c0,0.5-0.8,1.4-1.2,1.4c-5.2-0.1-10.5,0-15.7-0.7c-3.2-0.4-4.6-3-4.4-6.2c0.2-3.4,1.7-5.3,5.2-6C-191.5-8.6-189.8-8.6-188.1-8.8"
			/>
		<path d="M-107.2-5.9c1.2-0.1,2.4-0.2,3.6-0.2c9,0,17.9,0,26.9,0c6.6,0,10.4-6.6,6.6-12.2c-0.9-1.4-3.7-2.2-5.6-2.2
			c-7.5-0.3-15.1-0.2-22.6-0.1c-4,0-8.1,0-12.1,0.3c-7.5,0.6-11.2,4.7-11.7,12.2c-0.5,8.4,2.9,14.3,10.3,18.1
			c7.8,4,15.6,7.9,23.4,11.9c0.8,0.4,1.7,0.7,2.4,1.3c0.7,0.6,1.1,1.5,1.7,2.2c-0.8,0.3-1.7,0.7-2.5,0.7c-8,0.1-16.1,0-24.1,0.1
			c-6.8,0-10.3,6.3-6.7,12.4c0.5,0.8,1.5,1.4,2.4,1.7c1.3,0.4,2.6,0.5,4,0.5c8.9,0,17.7,0,26.6,0c12.4,0,16.5-4.8,14.9-18.6
			c-0.7-6-4.7-9.4-9.7-11.9c-8-4.2-16.2-8.3-24.4-12.4c-1.4-0.7-2.6-1.7-3.9-2.5C-107.5-5.1-107.3-5.5-107.2-5.9"/>
		<path d="M5.8,2.9c0,5.8-0.2,11.6,0.1,17.3c0.6,11.3,6.6,18.4,17.6,20.9c7.5,1.7,15,1.6,22.4-0.4C55.6,38.2,61,31,61.2,19.9
			c0.2-11.6,0.1-23.3,0-35c0-3.7-1.3-4.9-5-5.4c-0.2,0-0.4-0.1-0.6-0.1c-9-0.8-10.4,0.5-10.4,9.5c0,9.5,0,19,0,28.5
			c0,6.8-2.1,9.1-8.9,9.7c-2.2,0.2-4.5,0.1-6.8-0.2c-5.8-0.8-7.9-3.2-7.9-9c-0.1-10.6,0-21.2-0.1-31.9c0-5.1-1.3-6.4-6.4-6.6
			c-8.7-0.3-9.6,0.6-9.6,9.2c0,4.7,0,9.5,0,14.2h0.3V2.9z"/>
		<path d="M-226.7,59.3c2-0.1,3.9-0.1,5.9-0.4c1.8-0.2,2.2-1.4,1.4-2.8c-0.8-1.4-1.9-2.7-2.9-4c-7-8.9-14.2-17.7-21.1-26.6
			c-3.1-4-3-5,0.1-8.9c8-10.2,16.1-20.3,24.1-30.6c1.2-1.5,1.8-3.5,2.7-5.3c-1.9-0.4-3.9-0.9-5.8-1.2c-1.3-0.2-2.7,0-4,0
			c-5-0.2-8.8,1.8-11.9,5.9C-244-7-250,0.5-256,8c-7.5,9.5-7.3,18.1,0.5,27.4c4.7,5.6,9.4,11.2,13.8,17.1
			C-238,57.5-233.3,60.3-226.7,59.3"/>
		<path d="M-265.4,19.4c0-10.9,0-21.9,0-32.8c0-5.8-1.3-7-7.1-7.2c-0.2,0-0.4,0-0.6,0c-7.3-0.1-8.6,1.1-8.6,8.3
			c0,20.9-0.1,41.9,0,62.8c0,7.9,1.1,8.8,9.1,8.7c5.9-0.1,7.3-1.4,7.3-7.3C-265.4,41-265.4,30.2-265.4,19.4"/>
		<path d="M232.2,32.5c8.5,8.7,23.8,10.8,33.8,5.1c6-3.4,8.7-8.8,8.8-15.3c0.3-13.1,0.1-26.2,0.2-39.3c0-2.2-0.6-3.6-3.1-3.6
			c-2.6,0-3.4,1.3-3.4,3.6c0,10.4,0,20.8,0,31.2c0,2.4,0,4.7-0.2,7.1c-0.5,7.4-4.2,11.8-11.6,12.6c-4.4,0.5-9.1,0.4-13.5-0.2
			c-6.4-1-9.7-4.7-10.7-11.1c-0.3-1.9-0.4-3.9-0.4-5.9c0-11,0-22.1,0-33.1c0-2.4-0.2-4.3-3.3-4.3c-3.2,0-3.2,2.1-3.2,4.4
			c0,25.9,0,51.8,0,77.6c0,2.5,0.7,3.9,3.4,3.9s3.1-1.6,3.1-3.9c-0.1-8,0-16.1,0-24.1v-4.7H232.2z"/>
		<path d="M115.2,6.9c0.5-4.3,0.5-8.3,1.4-12c1.6-6.9,7-9.3,13.3-10.1c7.6-0.9,15.2-0.3,22.7,1.9c1,0.3,3.1,0,3.3-0.5
			c0.6-1.8,1-4.1-1.6-4.9c-11.4-3.8-22.8-4.6-34.1,0c-6,2.4-9.7,7.6-10.1,13.8c-0.7,9.5-0.9,19.2,0,28.6c0.8,8.1,6.1,13.5,14.2,15.7
			c6.4,1.7,12.9,1.8,19.2,0c9.7-2.7,14.7-10.2,14.9-22c0.2-10.5,0.2-10.5-10.3-10.5C148.1,6.9,115.2,6.9,115.2,6.9z M115.7,12.8
			h36.1c1.4,8.9-0.8,16.3-6.3,19.2c-7.9,4.1-16.2,4.4-23.8-0.5C114.9,27.2,115.4,19.9,115.7,12.8"/>
		<path d="M-133.1,9.8c0-8,0-16.1,0-24.1c0-4.7-1.2-5.8-5.8-6.2c-8.9-0.7-10.1,0.5-10.1,9.3c0,14.7,0,29.5,0,44.2
			c0,6.6,1.2,7.8,7.7,7.8c0.8,0,1.6,0,2.5-0.1c4.5-0.3,5.6-1.4,5.7-5.9C-133,26.5-133.1,18.1-133.1,9.8"/>
		<path d="M94,52.8v-4.1c0-20.7,0-41.5,0-62.2c0-1.1-0.1-2.3,0-3.4c0.1-2.5-0.8-3.9-3.5-3.8s-3.1,1.6-3.1,3.9c0,21.7,0,43.3,0,65
			c0,5.1,0.6,4.6-4.7,4.6c-6.1,0-12.2,0-18.3,0c-2.3,0-3.7,0.6-3.7,3.3c0,2.6,1.4,3.1,3.6,3.1c17.5,0,35.1,0,52.6,0
			c2.2,0,3.6-0.6,3.6-3.1c0-2.6-1.3-3.3-3.7-3.3C109.4,52.9,102,52.8,94,52.8"/>
		<path d="M213.3-13.3c0.9-5,0.6-5.7-3.5-6.8c-7.8-2.1-15.7-2.1-23.5,0.1c-7.4,2.1-12.4,6.9-13.7,14.5c-1.8,10.2-2,20.5,0.2,30.7
			c1.3,6.1,5.1,10.6,10.9,12.9c8.5,3.5,17.2,3.6,26,0.6c0.5-0.2,1.2-0.3,1.4-0.6c0.5-1.4,0.8-2.9,1.2-4.4c-1.1-0.2-2.4-1-3.4-0.7
			c-6.2,1.9-12.4,2.2-18.6,0.9c-6.6-1.4-11-5.4-11.5-12c-0.6-8.1-0.6-16.3-0.1-24.3c0.5-6.9,5.1-10.8,11.7-12.1
			c6.5-1.3,12.9-1.1,19.3,0.6C210.7-13.8,211.9-13.6,213.3-13.3"/>
		<path d="M-131.5,59c0-5.3-4.2-9.4-9.5-9.4c-5.4,0-9.6,4.3-9.5,9.7c0.1,5.3,4.2,9.4,9.5,9.4C-135.7,68.8-131.5,64.5-131.5,59"/>
		<polygon points="264.9,80.4 264.9,78.2 260.9,78.2 260.9,66.1 258.1,66.1 258.1,78.2 254.1,78.2 254.1,80.4 		"/>
		<polygon points="281.8,80.3 281.8,66.1 279,66.1 279,76 275.4,66.1 272.9,66.1 269.3,76 269.3,66.1 266.4,66.1 266.4,80.3 
			269.9,80.3 274.2,69.6 278.4,80.3 		"/>
		<rect x="-277.7" y="-70.3" width="2.7" height="26.6"/>
		<path d="M-253.1-51.6c1.5-1.5,2.2-3.8,2.2-6.7v-12h-2.6v11.8c0,2.2-0.6,4-1.7,5.2c-1.1,1.2-2.7,1.8-4.6,1.8c-2.1,0-3.7-0.7-4.9-2
			c-1.2-1.3-1.8-3.3-1.8-5.8v-10.9h-2.7v20.6h2.7v-5.1c0.5,1.8,1.5,3.1,2.9,4s3,1.4,4.8,1.4C-256.6-49.4-254.6-50.1-253.1-51.6"/>
		<path d="M-229.2-51.6c1.5-1.5,2.2-3.8,2.2-6.7v-12h-2.6v11.8c0,2.2-0.6,4-1.7,5.2c-1.1,1.2-2.7,1.8-4.6,1.8c-2.1,0-3.7-0.7-4.9-2
			s-1.8-3.3-1.8-5.8v-10.9h-2.7v20.6h2.7v-5.1c0.5,1.8,1.5,3.1,2.9,4s3,1.4,4.8,1.4C-232.6-49.4-230.7-50.1-229.2-51.6"/>
		<path d="M-206.7-50.7c1.5-0.8,2.8-2.1,3.6-3.7c0.9-1.6,1.3-3.5,1.3-5.6c0-2.2-0.4-4-1.3-5.6c-0.9-1.6-2.1-2.8-3.6-3.7
			s-3.3-1.3-5.3-1.3s-3.7,0.4-5.3,1.3c-1.6,0.9-2.8,2.1-3.7,3.7c-0.9,1.6-1.3,3.5-1.3,5.6c0,2.2,0.4,4,1.3,5.6
			c0.9,1.6,2.1,2.8,3.7,3.7c1.6,0.8,3.3,1.3,5.3,1.3C-210-49.5-208.3-49.9-206.7-50.7 M-215.8-52.7c-1.2-0.6-2.1-1.5-2.8-2.8
			c-0.7-1.2-1.1-2.8-1.1-4.6s0.4-3.3,1.1-4.6c0.7-1.2,1.6-2.2,2.8-2.8s2.4-0.9,3.8-0.9c1.3,0,2.6,0.3,3.7,0.9
			c1.1,0.6,2.1,1.5,2.8,2.8c0.7,1.2,1.1,2.8,1.1,4.6s-0.4,3.3-1.1,4.6c-0.7,1.2-1.6,2.2-2.8,2.8c-1.1,0.6-2.4,0.9-3.7,0.9
			C-213.4-51.8-214.6-52.1-215.8-52.7"/>
		<polygon points="-189.4,-67.4 -182.5,-49.7 -179.6,-49.7 -187.9,-70.3 -190.9,-70.3 -199.2,-49.7 -196.4,-49.7 		"/>
		<path d="M-162.1-51.1c1.5-1.1,2.5-2.5,3-4.3v5.7h2.6v-20.6h-2.6v5.7c-0.6-1.8-1.6-3.2-3-4.3c-1.5-1.1-3.3-1.6-5.3-1.6
			c-1.9,0-3.5,0.4-5,1.3c-1.5,0.9-2.6,2.1-3.4,3.7c-0.8,1.6-1.2,3.5-1.2,5.6c0,2.2,0.4,4,1.2,5.6s2,2.8,3.4,3.7
			c1.5,0.8,3.1,1.3,5,1.3C-165.3-49.5-163.6-50-162.1-51.1 M-172.3-54c-1.4-1.5-2.1-3.5-2.1-6s0.7-4.5,2.1-6
			c1.4-1.5,3.3-2.2,5.6-2.2c1.5,0,2.8,0.3,3.9,1c1.2,0.7,2.1,1.6,2.8,2.9c0.7,1.2,1,2.7,1,4.3s-0.3,3.1-1,4.3s-1.6,2.2-2.8,2.9
			s-2.5,1-3.9,1C-169.1-51.8-170.9-52.6-172.3-54"/>
		<path d="M-141.3-68v-2.3h-2.5c-2,0-3.5,0.5-4.5,1.4c-1,0.9-1.5,2.5-1.5,4.8V-52h-3.1v2.3h3.1v5.2h2.7v-5.2h5.7V-52h-5.7v-12.2
			c0-1.5,0.3-2.5,0.8-3s1.5-0.8,2.8-0.8H-141.3z"/>
		<path d="M-137.1-42.3c0.4,0.3,0.8,0.5,1.4,0.5c0.6,0,1-0.2,1.4-0.5s0.5-0.8,0.5-1.3s-0.2-1-0.5-1.3c-0.4-0.3-0.8-0.5-1.4-0.5
			c-0.6,0-1.1,0.2-1.4,0.5c-0.4,0.3-0.5,0.8-0.5,1.3S-137.4-42.6-137.1-42.3 M-134.3-70.3h-2.7v20.6h2.7V-70.3z"/>
		<path d="M-114-50.7c1.5-0.8,2.8-2.1,3.6-3.7c0.9-1.6,1.3-3.5,1.3-5.6c0-2.2-0.4-4-1.3-5.6c-0.9-1.6-2.1-2.8-3.6-3.7
			s-3.3-1.3-5.3-1.3s-3.7,0.4-5.3,1.3c-1.6,0.9-2.8,2.1-3.7,3.7c-0.9,1.6-1.3,3.5-1.3,5.6c0,2.2,0.4,4,1.3,5.6s2.1,2.8,3.7,3.7
			c1.6,0.8,3.3,1.3,5.3,1.3C-117.3-49.5-115.5-49.9-114-50.7 M-123-52.7c-1.2-0.6-2.1-1.5-2.8-2.8c-0.7-1.2-1.1-2.8-1.1-4.6
			s0.4-3.3,1.1-4.6c0.7-1.2,1.6-2.2,2.8-2.8c1.2-0.6,2.4-0.9,3.8-0.9c1.3,0,2.6,0.3,3.7,0.9c1.1,0.6,2.1,1.5,2.8,2.8
			c0.7,1.2,1.1,2.8,1.1,4.6s-0.4,3.3-1.1,4.6c-0.7,1.2-1.6,2.2-2.8,2.8c-1.1,0.6-2.4,0.9-3.7,0.9C-120.6-51.8-121.9-52.1-123-52.7"
			/>
		<path d="M-88.1-51.6c1.5-1.5,2.2-3.8,2.2-6.7v-12h-2.6v11.8c0,2.2-0.6,4-1.7,5.2s-2.7,1.8-4.6,1.8c-2.1,0-3.7-0.7-4.9-2
			c-1.2-1.3-1.8-3.3-1.8-5.8v-10.9h-2.7v20.6h2.7v-5.1c0.5,1.8,1.5,3.1,2.9,4s3,1.4,4.8,1.4C-91.6-49.4-89.6-50.1-88.1-51.6"/>
		<path d="M-31.2-45.8c2.1-1.5,3.6-3.7,4.4-6.4h-2.8c-0.7,1.9-1.9,3.4-3.5,4.6c-1.6,1.1-3.7,1.7-6.1,1.7c-1.8,0-3.5-0.5-5-1.4
			s-2.7-2.2-3.5-3.9c-0.9-1.7-1.3-3.6-1.3-5.9c0-2.2,0.4-4.2,1.3-5.9c0.9-1.7,2-3,3.5-3.9c1.5-0.9,3.2-1.4,5-1.4
			c2.4,0,4.4,0.6,6.1,1.7c1.6,1.1,2.8,2.7,3.5,4.6h2.8c-0.9-2.7-2.3-4.9-4.4-6.4s-4.7-2.3-7.9-2.3c-2.4,0-4.6,0.6-6.5,1.7
			c-1.9,1.2-3.4,2.8-4.5,4.8c-1.1,2.1-1.6,4.4-1.6,7s0.5,5,1.6,7.1s2.5,3.7,4.5,4.8c1.9,1.1,4.1,1.7,6.5,1.7
			C-36-43.5-33.3-44.2-31.2-45.8"/>
		<path d="M-5.8-51.6c1.5-1.5,2.2-3.8,2.2-6.7v-12h-2.6v11.8c0,2.2-0.6,4-1.7,5.2s-2.7,1.8-4.6,1.8c-2.1,0-3.7-0.7-4.9-2
			c-1.2-1.3-1.8-3.3-1.8-5.8v-10.9H-22v27.9h2.7v-12.4c0.5,1.8,1.5,3.1,2.9,4s3,1.4,4.8,1.4C-9.3-49.4-7.3-50.1-5.8-51.6"/>
		<path d="M16-51.1c1.5-1.1,2.5-2.5,3-4.3v5.7h2.6v-20.6H19v5.7c-0.6-1.8-1.6-3.2-3-4.3c-1.5-1.1-3.3-1.6-5.3-1.6
			c-1.9,0-3.5,0.4-5,1.3c-1.5,0.9-2.6,2.1-3.4,3.7C1.4-64.1,1-62.2,1-60s0.4,4,1.2,5.6s2,2.8,3.4,3.7c1.5,0.8,3.1,1.3,5,1.3
			C12.8-49.5,14.5-50,16-51.1 M5.8-54c-1.4-1.5-2.1-3.5-2.1-6s0.7-4.5,2.1-6s3.3-2.2,5.6-2.2c1.5,0,2.8,0.3,3.9,1
			c1.2,0.7,2.1,1.6,2.8,2.9c0.7,1.2,1,2.7,1,4.3s-0.3,3.1-1,4.3s-1.6,2.2-2.8,2.9s-2.5,1-3.9,1C9-51.8,7.2-52.6,5.8-54"/>
		<path d="M43.5-51.6c1.5-1.5,2.2-3.8,2.2-6.7v-12h-2.6v11.8c0,2.2-0.6,4-1.7,5.2c-1.1,1.2-2.7,1.8-4.6,1.8c-2.1,0-3.7-0.7-4.9-2
			c-1.2-1.3-1.8-3.3-1.8-5.8v-10.9h-2.7v20.6h2.7v-5.1c0.5,1.8,1.5,3.1,2.9,4c1.4,0.9,3,1.4,4.8,1.4C40.1-49.4,42-50.1,43.5-51.6"/>
		<path d="M65.4-51.1c1.5-1.1,2.5-2.5,3-4.3v5.7H71v-21.1c0-1.9-0.4-3.6-1.2-5c-0.8-1.4-1.9-2.6-3.4-3.4c-1.4-0.8-3.1-1.2-4.9-1.2
			c-2.7,0-4.9,0.6-6.6,1.9c-1.7,1.3-2.8,3.1-3.4,5.3h2.6c0.5-1.5,1.3-2.7,2.5-3.6c1.2-0.9,2.8-1.3,4.7-1.3c1.3,0,2.5,0.3,3.6,0.8
			c1.1,0.6,1.9,1.4,2.5,2.5c0.6,1.1,0.9,2.4,0.9,3.9v6.2c-0.6-1.8-1.6-3.2-3-4.3c-1.5-1.1-3.3-1.6-5.3-1.6c-1.9,0-3.5,0.4-5,1.3
			c-1.5,0.9-2.6,2.1-3.4,3.7c-0.8,1.6-1.2,3.5-1.2,5.6c0,2.2,0.4,4,1.2,5.6s2,2.8,3.4,3.7c1.5,0.8,3.1,1.3,5,1.3
			C62.1-49.5,63.9-50,65.4-51.1 M55.2-54c-1.4-1.5-2.1-3.5-2.1-6s0.7-4.5,2.1-6c1.4-1.5,3.3-2.2,5.6-2.2c1.5,0,2.8,0.3,3.9,1
			c1.2,0.7,2.1,1.6,2.8,2.9c0.7,1.2,1,2.7,1,4.3s-0.3,3.1-1,4.3s-1.6,2.2-2.8,2.9c-1.2,0.7-2.5,1-3.9,1C58.4-51.8,56.6-52.6,55.2-54
			"/>
		<path d="M90.4-67c1.3,0.9,2,2.2,2.3,3.8h2.8c-0.4-2.2-1.4-4-3.1-5.3c-1.7-1.4-3.9-2-6.5-2c-2,0-3.7,0.4-5.2,1.3
			c-1.5,0.8-2.7,2.1-3.6,3.7c-0.9,1.6-1.3,3.5-1.3,5.6c0,2.2,0.4,4,1.3,5.6s2,2.8,3.6,3.7c1.5,0.8,3.3,1.3,5.2,1.3
			c2,0,3.8-0.4,5.2-1.3c1.5-0.8,2.6-2,3.4-3.4s1.2-2.9,1.2-4.6c0-0.7-0.1-1.3-0.2-1.9H78.4c0-1.7,0.4-3.2,1.1-4.4
			c0.7-1.2,1.6-2,2.7-2.6c1.1-0.6,2.3-0.8,3.6-0.8C87.6-68.4,89.2-68,90.4-67 M82.2-52.5c-1.1-0.6-2-1.4-2.7-2.5s-1.1-2.6-1.1-4.3
			H93c0.1,1.7-0.2,3.1-0.8,4.3c-0.7,1.2-1.5,2-2.6,2.6s-2.3,0.8-3.6,0.8C84.5-51.6,83.3-51.9,82.2-52.5"/>
		<polygon points="161.6,-43.7 154.8,-70.3 151.6,-70.3 144.9,-47.5 138.3,-70.3 135.1,-70.3 128.2,-43.7 131.2,-43.7 136.7,-67.1 
			143.4,-43.7 146.4,-43.7 153.1,-67.1 158.7,-43.7 		"/>
		<path d="M165.7-42.3c0.4,0.3,0.8,0.5,1.4,0.5c0.6,0,1-0.2,1.4-0.5s0.5-0.8,0.5-1.3s-0.2-1-0.5-1.3c-0.4-0.3-0.8-0.5-1.4-0.5
			c-0.6,0-1.1,0.2-1.4,0.5c-0.4,0.3-0.5,0.8-0.5,1.3S165.4-42.6,165.7-42.3 M168.5-70.3h-2.7v20.6h2.7V-70.3z"/>
		<path d="M185.8-51.2c1.4-1.2,2.2-2.8,2.5-4.8h-2.5c-0.2,1.3-0.7,2.4-1.6,3.3c-0.9,0.9-2.2,1.3-3.8,1.3c-1.4,0-2.4-0.3-3.2-1
			S176-54,176-55.1c0-0.8,0.2-1.5,0.7-2s1.1-0.9,1.8-1.2s1.7-0.5,2.9-0.8c1.5-0.4,2.7-0.7,3.6-1.1c0.9-0.4,1.7-0.9,2.4-1.7
			s1-1.8,1-3.2c0-1.6-0.6-3-1.8-4s-2.8-1.6-4.9-1.6c-2.4,0-4.3,0.6-5.8,1.8c-1.5,1.2-2.4,2.8-2.7,4.8h2.6c0.2-1.4,0.7-2.5,1.8-3.3
			c1-0.9,2.4-1.3,4.2-1.3c1.3,0,2.3,0.3,3.1,1c0.7,0.7,1.1,1.6,1.1,2.6c0,0.9-0.3,1.6-0.8,2.1s-1.1,0.9-1.9,1.2
			c-0.7,0.3-1.8,0.5-3,0.8c-1.5,0.4-2.7,0.7-3.6,1.1c-0.9,0.4-1.7,0.9-2.3,1.6c-0.6,0.7-0.9,1.8-0.9,3c0,1.7,0.6,3,1.8,4.1
			c1.2,1,2.9,1.5,5,1.5C182.7-49.5,184.5-50.1,185.8-51.2"/>
		<path d="M207.4-51.1c1.5-1.1,2.5-2.5,3-4.3v13h2.6v-27.9h-2.6v5.7c-0.5-1.8-1.5-3.2-3-4.3c-1.5-1.1-3.3-1.6-5.3-1.6
			c-1.9,0-3.5,0.4-5,1.3c-1.5,0.9-2.6,2.1-3.4,3.7c-0.8,1.6-1.2,3.5-1.2,5.6c0,2.2,0.4,4,1.2,5.6s2,2.8,3.4,3.7
			c1.5,0.8,3.1,1.3,5,1.3C204.1-49.5,205.9-50,207.4-51.1 M197.1-54c-1.4-1.5-2.1-3.5-2.1-6s0.7-4.5,2.1-6c1.4-1.5,3.3-2.2,5.6-2.2
			c1.5,0,2.8,0.3,3.9,1c1.2,0.7,2.1,1.6,2.8,2.9c0.7,1.2,1,2.7,1,4.3s-0.3,3.1-1,4.3s-1.6,2.2-2.8,2.9s-2.5,1-3.9,1
			C200.4-51.8,198.5-52.6,197.1-54"/>
		<path d="M233.3-50.7c1.5-0.8,2.8-2.1,3.6-3.7c0.9-1.6,1.3-3.5,1.3-5.6c0-2.2-0.4-4-1.3-5.6c-0.9-1.6-2.1-2.8-3.6-3.7
			s-3.3-1.3-5.3-1.3s-3.7,0.4-5.3,1.3c-1.6,0.9-2.8,2.1-3.7,3.7c-0.9,1.6-1.3,3.5-1.3,5.6c0,2.2,0.4,4,1.3,5.6
			c0.9,1.6,2.1,2.8,3.7,3.7c1.6,0.8,3.3,1.3,5.3,1.3C230-49.5,231.8-49.9,233.3-50.7 M224.3-52.7c-1.2-0.6-2.1-1.5-2.8-2.8
			c-0.7-1.2-1.1-2.8-1.1-4.6s0.4-3.3,1.1-4.6c0.7-1.2,1.6-2.2,2.8-2.8s2.4-0.9,3.8-0.9c1.3,0,2.6,0.3,3.7,0.9
			c1.1,0.6,2.1,1.5,2.8,2.8c0.7,1.2,1.1,2.8,1.1,4.6s-0.4,3.3-1.1,4.6c-0.7,1.2-1.6,2.2-2.8,2.8c-1.1,0.6-2.4,0.9-3.7,0.9
			C226.7-51.8,225.4-52.1,224.3-52.7"/>
		<path d="M273.8-51.6c1.5-1.5,2.2-3.8,2.2-6.7v-12h-2.6v11.8c0,2.2-0.5,3.9-1.6,5.1c-1.1,1.2-2.5,1.8-4.4,1.8c-2,0-3.6-0.7-4.8-2
			c-1.2-1.3-1.8-3.2-1.8-5.8v-10.9h-2.6v11.8c0,2.2-0.5,3.9-1.6,5.1c-1.1,1.2-2.5,1.8-4.4,1.8c-2,0-3.6-0.7-4.8-2s-1.8-3.2-1.8-5.8
			v-10.9H243v20.6h2.7v-4.9c0.5,1.7,1.4,3.1,2.7,3.9c1.3,0.9,2.9,1.3,4.6,1.3c1.8,0,3.4-0.5,4.7-1.4c1.3-1,2.2-2.4,2.7-4.2
			c0.6,1.8,1.5,3.2,2.9,4.2s3,1.5,4.7,1.5C270.4-49.4,272.4-50.1,273.8-51.6"/>
		<path d="M-73-59.7c0,2.1,1.7,3.7,3.7,3.7c2.1,0,3.7-1.6,3.7-3.7c0-2.1-1.6-3.7-3.7-3.7S-73-61.8-73-59.7"/>
		<path d="M104.5-59.7c0,2.1,1.7,3.7,3.7,3.7c2.1,0,3.7-1.6,3.7-3.7c0-2.1-1.6-3.7-3.7-3.7S104.5-61.8,104.5-59.7"/>
	</g>
</symbol>
<g id="Layer_1_00000100362116630209540120000003080479385103962298_">
	<g>
		<g>
			<path class="st0" d="M455,123.2v422.6c0,24.2-19.6,43.8-43.8,43.8h-38.5c-24.2,0-43.8-19.6-43.8-43.8V123.2
				c0-24.2,19.6-43.8,43.8-43.8h38.5C435.4,79.7,455,99.3,455,123.2z"/>
			<g>
				<g>
					<defs>
						<path id="SVGID_1_" d="M572.5,132.5L281.1,318.7c-4.6,3-8,8-8.6,13.3l-17.3,112.5c-2.7,16.6,15.6,28.2,29.5,19.3l147.7-93.3
							c8.6-5.6,20.3-3.3,26.2,5.3l143.1,201.5c3.7,5,9.6,8.3,15.9,8.3h106.9c15.9,0,24.9-17.9,15.9-30.5l-174-244.7
							c-6.3-9-4-21.6,5.3-27.6l129.8-82c13.9-8.6,11.3-29.9-4.3-34.9l-108.6-35.9c-2-0.7-4-1-6-1
							C579.2,129.2,575.5,130.5,572.5,132.5"/>
					</defs>
					<clipPath id="SVGID_00000031169902914413804300000001826587390510081186_">
						<use xlink:href="#SVGID_1_"  style="overflow:visible;"/>
					</clipPath>
					
						<rect x="222.3" y="85.7" style="clip-path:url(#SVGID_00000031169902914413804300000001826587390510081186_);fill:#404F62;" width="576.3" height="534.5"/>
				</g>
			</g>
		</g>
	</g>
</g>
<g id="Layer_2_00000142871730126625022350000009708834371824083333_">
	<g>
		<defs>
			<rect id="SVGID_00000132082658627092494790000008307652029710836897_" x="818.7" y="76.9" width="1871.4" height="534.2"/>
		</defs>
		<clipPath id="SVGID_00000059269260702421460790000002651953422788874379_">
			<use xlink:href="#SVGID_00000132082658627092494790000008307652029710836897_"  style="overflow:visible;"/>
		</clipPath>
		
			<g transform="matrix(1 0 0 1 -1.220703e-04 0)" style="clip-path:url(#SVGID_00000059269260702421460790000002651953422788874379_);">
			
				<use xlink:href="#KaizenTech"  width="563.5" height="160.8" x="-281.8" y="-80.4" transform="matrix(3.3198 0 0 -3.3198 1754.1437 344.166)" style="overflow:visible;"/>
		</g>
	</g>
</g>
</svg>
