<?xml version="1.0" encoding="iso-8859-1"?>
<!-- Generator: Adobe Illustrator 19.0.0, SVG Export Plug-In . SVG Version: 6.00 Build 0)  -->
<svg xmlns="http://www.w3.org/2000/svg" xmlns:xlink="http://www.w3.org/1999/xlink" version="1.1" id="Layer_1" x="0px" y="0px" viewBox="0 0 512 512" style="enable-background:new 0 0 512 512;" xml:space="preserve">
<g>
	<g>
		<path d="M412.344,369.802c33.219-39.178,53.289-89.839,53.289-145.109C465.633,100.797,364.836,0,240.939,0    S16.246,100.797,16.246,224.693s100.796,224.693,224.692,224.693c38.758,0,75.254-9.865,107.112-27.214L438.512,512l11.445-11.527    l-29.055-28.852l34.999-34.999l28.337,28.489l11.516-11.454L412.344,369.802z M240.938,433.144    c-114.94,0-208.451-93.51-208.451-208.451s93.51-208.451,208.451-208.451s208.451,93.51,208.451,208.451    S355.878,433.144,240.938,433.144z M409.377,460.177l-46.905-46.575c14.14-9.128,27.187-19.807,38.917-31.781l43.058,43.287    L409.377,460.177z" />
	</g>
</g>
<g>
	<g>
		<polygon points="261.682,279.788 241.182,298.58 220.681,279.788 209.705,291.761 233.06,313.17 233.06,366.119 249.303,366.119     249.303,313.17 272.658,291.761   " />
	</g>
</g>
<g>
	<g>
		<polygon points="323.553,279.788 312.577,291.761 335.932,313.17 335.932,329.302 352.175,329.302 352.175,306.025   " />
	</g>
</g>
<g>
	<g>
		<path d="M316.858,206.185c0,4.691-0.985,8.01-2.93,9.865c-4.106,3.919-26.997,2.841-29.33,2.841v16.243    c1.952,0,19.791,0.398,22.097,0.169v17.637c0,8.011-6.518,14.529-14.529,14.529h-0.181c-8.011,0-14.529-6.518-14.529-14.529    v-16.762h-16.243v16.762c0,16.967,13.804,30.772,30.772,30.772h0.181c16.967-0.001,30.772-13.805,30.772-30.773v-23.293    c0.758-0.566,1.498-1.171,2.204-1.843c5.282-5.039,7.96-12.312,7.96-21.617H316.858z" />
	</g>
</g>
<g>
	<g>
		<polygon points="158.811,279.788 130.189,306.025 130.189,329.302 146.431,329.302 146.431,313.17 169.787,291.761   " />
	</g>
</g>
<g>
	<g>
		<path d="M213.987,206.185c0,4.691-0.985,8.01-2.93,9.865c-4.106,3.919-26.997,2.841-29.33,2.841v16.243    c1.952,0,19.791,0.398,22.097,0.169v17.637c0,8.011-6.518,14.529-14.529,14.529h-0.181c-8.011,0-14.529-6.518-14.529-14.529    v-16.762h-16.243v16.762c0,16.967,13.804,30.772,30.772,30.772h0.181c16.967-0.001,30.772-13.805,30.772-30.773v-23.293    c0.758-0.566,1.498-1.171,2.204-1.843c5.282-5.039,7.96-12.312,7.96-21.617H213.987z" />
	</g>
</g>
<g>
	<g>
		<path d="M283.132,123.682c0,2.985-2.429,5.414-5.414,5.414c-2.985,0-5.414-2.429-5.414-5.414h-0.181v-16.479    c0-13.979-20.154-18.387-39.869-20.856c-16.612-2.081-32.924-2.411-33.611-2.424l-0.31,16.241    c4.105,0.079,8.215,0.245,12.247,0.483v23.035c0,2.987-2.429,5.415-5.414,5.415c-2.985,0-5.414-2.429-5.414-5.414h-16.243    c0,11.942,9.715,21.657,21.657,21.657c3.598,0,6.987-0.896,9.975-2.455c5.422,8.795,15.142,14.672,26.211,14.672    c11.096,0,20.839-5.906,26.252-14.738c3.021,1.604,6.461,2.521,10.114,2.521c11.942,0,21.657-9.715,21.657-21.657H283.132z     M255.879,126.783c0,8.011-6.518,14.529-14.529,14.529s-14.529-6.518-14.529-14.529v-24.741h0.001    c14.249,1.631,25.557,4.1,29.056,6.649V126.783z" />
	</g>
</g>
<g>
	<g>
		<polygon points="272.377,153.736 261.401,165.708 284.756,187.117 284.756,207.368 300.999,207.368 300.999,179.972   " />
	</g>
</g>
<g>
	<g>
		<polygon points="211.454,153.736 182.832,179.972 182.832,207.368 199.075,207.368 199.075,187.117 222.43,165.708   " />
	</g>
</g>
<g>
	<g>
		<path d="M357.074,84.473c-32.307-26.541-73.168-41.158-115.053-41.158c-41.885,0-82.745,14.618-115.053,41.158    C95.104,110.651,72.923,147.17,64.51,187.306l15.897,3.333c15.921-75.954,83.889-131.081,161.614-131.081    s145.693,55.127,161.615,131.081l15.896-3.333C411.119,147.169,388.938,110.651,357.074,84.473z" />
	</g>
</g>
<g>
	<g>
		<path d="M406.227,242.262c-8.892,84.127-79.486,147.568-164.206,147.568S86.708,326.389,77.816,242.262l-16.153,1.707    c4.681,44.285,25.515,85.204,58.666,115.22c33.392,30.234,76.61,46.885,121.692,46.885c45.083,0,88.3-16.65,121.692-46.885    c33.152-30.015,53.986-70.935,58.667-115.22L406.227,242.262z" />
	</g>
</g>
<g>
	<g>
		<rect x="404.372" y="205.743" width="16.243" height="16.243" />
	</g>
</g>
<g>
	<g>
		<rect x="359.975" y="205.743" width="16.243" height="16.243" />
	</g>
</g>
<g>
	<g>
		<rect x="60.022" y="205.743" width="16.243" height="16.243" />
	</g>
</g>
<g>
	<g>
		<rect x="104.42" y="205.743" width="16.243" height="16.243" />
	</g>
</g>
<g>
</g>
<g>
</g>
<g>
</g>
<g>
</g>
<g>
</g>
<g>
</g>
<g>
</g>
<g>
</g>
<g>
</g>
<g>
</g>
<g>
</g>
<g>
</g>
<g>
</g>
<g>
</g>
<g>
</g>
</svg>
