<?xml version="1.0" encoding="utf-8"?>
<!-- Generator: Adobe Illustrator 26.0.2, SVG Export Plug-In . SVG Version: 6.00 Build 0)  -->
<svg version="1.1" id="Layer_1" xmlns="http://www.w3.org/2000/svg" xmlns:xlink="http://www.w3.org/1999/xlink" x="0px" y="0px"
	 viewBox="0 0 101.9 100" style="enable-background:new 0 0 101.9 100;" xml:space="preserve">
<style type="text/css">
	.st0{display:none;opacity:0.3;}
	.st1{display:inline;fill:none;stroke:#000333;stroke-width:2.9997;stroke-miterlimit:3.9996;}
	.st2{display:inline;}
	.st3{fill:none;stroke:#000333;stroke-width:2.9997;stroke-miterlimit:3.9996;}
	.st4{display:inline;fill:#FFFFFF;stroke:#000333;stroke-width:2.9997;stroke-miterlimit:3.9996;}
	.st5{fill:#FFFFFF;stroke:#000333;stroke-width:2.9997;stroke-miterlimit:3.9996;}
</style>
<g class="st0">
	<path class="st1" d="M38.6,34c0.2,4.2,0.2,3.8-0.3,8.6c-0.7,6.7-2,12.8-3.7,17.9c4.4,1.5,8.7,5.9,10.9,11.8c1,2.7,1.5,5.3,1.5,7.8
		h3.2V80"/>
	<path class="st1" d="M51.7,80v0.2h3.2c0-2.5,0.5-5.2,1.5-7.8c2.3-6,6.5-10.3,10.9-11.8c-1.7-5.1-3-11.2-3.7-17.9
		c-0.5-4.8-0.6-4.4-0.3-8.6"/>
	<polyline class="st1" points="38.2,0 38.2,26.7 63.7,26.7 63.7,0 	"/>
	<rect x="37.2" y="26.2" class="st1" width="27.6" height="8"/>
	<path class="st1" d="M95.6,53.9c0,24.6-20,40.6-44.6,40.6S6.4,78.5,6.4,53.9"/>
	<line class="st1" x1="9.8" y1="94.2" x2="92.1" y2="94.2"/>
	<g class="st2">
		<rect x="1.5" y="45.5" class="st3" width="8.6" height="8.6"/>
		<rect x="91.8" y="45.5" class="st3" width="8.6" height="8.6"/>
	</g>
	<rect x="46.6" y="89.9" class="st4" width="8.6" height="8.6"/>
	<g class="st2">
		<rect x="1.9" y="89.9" class="st5" width="8.6" height="8.6"/>
		<rect x="91.4" y="89.9" class="st5" width="8.6" height="8.6"/>
	</g>
	<line class="st1" x1="50.9" y1="80.3" x2="50.9" y2="54.8"/>
	<circle class="st1" cx="50.9" cy="51.8" r="2.8"/>
</g>
<path d="M98.2,79.7l-4-2.3c0.7-2.1,1.1-4.3,1.1-6.6c0-2.3-0.4-4.5-1.1-6.6l4-2.3c2-1.1,2.7-3.7,1.5-5.7c-1.2-2-3.7-2.7-5.7-1.5
	l-4,2.3c-2.9-3.3-6.9-5.7-11.4-6.6v-4.6c0-2.3-1.9-4.2-4.2-4.2c-2.3,0-4.2,1.9-4.2,4.2v4.6c-4.5,0.9-8.5,3.3-11.4,6.6l-4-2.3
	c-2-1.1-4.5-0.5-5.7,1.5c-1.1,2-0.5,4.5,1.5,5.7l4,2.3c-0.7,2.1-1.1,4.3-1.1,6.6c0,2.3,0.4,4.5,1.1,6.6l-4,2.3
	c-2,1.1-2.7,3.7-1.5,5.7c0.8,1.3,2.2,2.1,3.6,2.1c0.7,0,1.4-0.2,2.1-0.6l4-2.3c2.9,3.3,6.9,5.7,11.4,6.6v4.6c0,2.3,1.9,4.2,4.2,4.2
	c2.3,0,4.2-1.9,4.2-4.2v-4.6c4.5-0.9,8.5-3.3,11.4-6.6l4,2.3c0.7,0.4,1.4,0.6,2.1,0.6c1.4,0,2.8-0.7,3.6-2.1
	C100.9,83.4,100.2,80.9,98.2,79.7z M74.5,77.1c-3.4,0-6.2-2.8-6.2-6.2c0-3.4,2.8-6.2,6.2-6.2c3.4,0,6.2,2.8,6.2,6.2
	C80.7,74.3,77.9,77.1,74.5,77.1z M34.9,75H20.6c-1.5-3.7-3.9-7.1-7.1-10.1c-9-8.3-13.2-20.1-11.6-32.3C4,15.8,17.9,2.1,34.7,0.2
	C45.4-1,56.1,2.4,64.1,9.5c7.5,6.7,11.9,16,12.5,25.9c-0.7,0-1.3-0.1-2-0.1C61,35.4,49.2,43,43.3,54.1v-9.1
	c4.8-1.7,8.3-6.3,8.3-11.7c0-2.3-1.9-4.2-4.2-4.2c-2.3,0-4.2,1.9-4.2,4.2s-1.9,4.2-4.2,4.2c-2.3,0-4.2-1.9-4.2-4.2s-1.9-4.2-4.2-4.2
	s-4.2,1.9-4.2,4.2c0,5.4,3.5,10,8.3,11.7C34.9,45.1,34.9,75,34.9,75z M50.1,96.5c-2.7,2.2-6,3.5-9.7,3.5h-2.6
	c-8.5,0-15.4-6.9-15.4-15.4v-1.3h18.9C43.3,88.4,46.3,92.9,50.1,96.5z"/>
</svg>
