<?xml version="1.0" encoding="utf-8"?>
<!-- Generator: Adobe Illustrator 26.0.2, SVG Export Plug-In . SVG Version: 6.00 Build 0)  -->
<svg version="1.1" id="Layer_1" xmlns="http://www.w3.org/2000/svg" xmlns:xlink="http://www.w3.org/1999/xlink" x="0px" y="0px"
	 viewBox="0 0 101.9 100" style="enable-background:new 0 0 101.9 100;" xml:space="preserve">
<style type="text/css">
	.st0{display:none;opacity:0.3;}
	.st1{display:inline;fill:none;stroke:#000333;stroke-width:2.9997;stroke-miterlimit:3.9996;}
	.st2{display:inline;}
	.st3{fill:none;stroke:#000333;stroke-width:2.9997;stroke-miterlimit:3.9996;}
	.st4{display:inline;fill:#FFFFFF;stroke:#000333;stroke-width:2.9997;stroke-miterlimit:3.9996;}
	.st5{fill:#FFFFFF;stroke:#000333;stroke-width:2.9997;stroke-miterlimit:3.9996;}
</style>
<g class="st0">
	<path class="st1" d="M38.6,34c0.2,4.2,0.2,3.8-0.3,8.6c-0.7,6.7-2,12.8-3.7,17.9c4.4,1.5,8.7,5.9,10.9,11.8c1,2.7,1.5,5.3,1.5,7.8
		h3.2V80"/>
	<path class="st1" d="M51.7,80v0.2h3.2c0-2.5,0.5-5.2,1.5-7.8c2.3-6,6.5-10.3,10.9-11.8c-1.7-5.1-3-11.2-3.7-17.9
		c-0.5-4.8-0.6-4.4-0.3-8.6"/>
	<polyline class="st1" points="38.2,0 38.2,26.7 63.7,26.7 63.7,0 	"/>
	<rect x="37.2" y="26.2" class="st1" width="27.6" height="8"/>
	<path class="st1" d="M95.6,53.9c0,24.6-20,40.6-44.6,40.6S6.4,78.5,6.4,53.9"/>
	<line class="st1" x1="9.8" y1="94.2" x2="92.1" y2="94.2"/>
	<g class="st2">
		<rect x="1.5" y="45.5" class="st3" width="8.6" height="8.6"/>
		<rect x="91.8" y="45.5" class="st3" width="8.6" height="8.6"/>
	</g>
	<rect x="46.6" y="89.9" class="st4" width="8.6" height="8.6"/>
	<g class="st2">
		<rect x="1.9" y="89.9" class="st5" width="8.6" height="8.6"/>
		<rect x="91.4" y="89.9" class="st5" width="8.6" height="8.6"/>
	</g>
	<line class="st1" x1="50.9" y1="80.3" x2="50.9" y2="54.8"/>
	<circle class="st1" cx="50.9" cy="51.8" r="2.8"/>
</g>
<path d="M61.4,24.1l15.5,15.5L21.3,95.1c-3.1,3.1-7.4,4.9-11.8,4.9H1v-8.6c0-4.4,1.8-8.7,4.9-11.8L61.4,24.1z M97.4,3.6
	c-4.3-4.3-11.2-4.3-15.5,0L67.3,18.2l15.5,15.5L97.4,19C101.6,14.8,101.6,7.8,97.4,3.6L97.4,3.6z M52.1,21.6l-6.2-6.2l-9.4,9.4
	c-0.8,0.8-1.9,1.2-2.9,1.2c-1.1,0-2.1-0.4-2.9-1.2c-1.6-1.6-1.6-4.3,0-5.9l9.4-9.4l-5.2-5.2c-5.7-5.7-14.9-5.7-20.6,0l-8.8,8.8
	c-5.7,5.7-5.7,14.9,0,20.6l17.4,17.4L52.1,21.6L52.1,21.6z M49.8,78.3l17.4,17.4c5.7,5.7,14.9,5.7,20.6,0l8.8-8.8
	c5.7-5.7,5.7-14.9,0-20.6L91.4,61l-9.4,9.4c-1.6,1.6-4.3,1.6-5.9,0c-0.8-0.8-1.2-1.9-1.2-2.9s0.4-2.1,1.2-2.9l9.4-9.4l-6.2-6.2
	L49.8,78.3L49.8,78.3z"/>
</svg>
