<?xml version="1.0" encoding="utf-8"?>
<!-- Generator: Adobe Illustrator 26.0.2, SVG Export Plug-In . SVG Version: 6.00 Build 0)  -->
<svg version="1.1" id="Layer_1" xmlns="http://www.w3.org/2000/svg" xmlns:xlink="http://www.w3.org/1999/xlink" x="0px" y="0px"
	 viewBox="0 0 101.9 100" style="enable-background:new 0 0 101.9 100;" xml:space="preserve">
<style type="text/css">
	.st0{display:none;opacity:0.3;}
	.st1{display:inline;fill:none;stroke:#000333;stroke-width:2.9997;stroke-miterlimit:3.9996;}
	.st2{display:inline;}
	.st3{fill:none;stroke:#000333;stroke-width:2.9997;stroke-miterlimit:3.9996;}
	.st4{display:inline;fill:#FFFFFF;stroke:#000333;stroke-width:2.9997;stroke-miterlimit:3.9996;}
	.st5{fill:#FFFFFF;stroke:#000333;stroke-width:2.9997;stroke-miterlimit:3.9996;}
</style>
<g class="st0">
	<path class="st1" d="M38.6,34c0.2,4.2,0.2,3.8-0.3,8.6c-0.7,6.7-2,12.8-3.7,17.9c4.4,1.5,8.7,5.9,10.9,11.8c1,2.7,1.5,5.3,1.5,7.8
		h3.2V80"/>
	<path class="st1" d="M51.7,80v0.2h3.2c0-2.5,0.5-5.2,1.5-7.8c2.3-6,6.5-10.3,10.9-11.8c-1.7-5.1-3-11.2-3.7-17.9
		c-0.5-4.8-0.6-4.4-0.3-8.6"/>
	<polyline class="st1" points="38.2,0 38.2,26.7 63.7,26.7 63.7,0 	"/>
	<rect x="37.2" y="26.2" class="st1" width="27.6" height="8"/>
	<path class="st1" d="M95.6,53.9c0,24.6-20,40.6-44.6,40.6S6.4,78.5,6.4,53.9"/>
	<line class="st1" x1="9.8" y1="94.2" x2="92.1" y2="94.2"/>
	<g class="st2">
		<rect x="1.5" y="45.5" class="st3" width="8.6" height="8.6"/>
		<rect x="91.8" y="45.5" class="st3" width="8.6" height="8.6"/>
	</g>
	<rect x="46.6" y="89.9" class="st4" width="8.6" height="8.6"/>
	<g class="st2">
		<rect x="1.9" y="89.9" class="st5" width="8.6" height="8.6"/>
		<rect x="91.4" y="89.9" class="st5" width="8.6" height="8.6"/>
	</g>
	<line class="st1" x1="50.9" y1="80.3" x2="50.9" y2="54.8"/>
	<circle class="st1" cx="50.9" cy="51.8" r="2.8"/>
</g>
<path d="M100.9,45.8c0-6.5-3.1-12.7-8.3-16.6v-0.1c0-7.9-5.5-14.5-12.9-16.2C78,5.5,71.3,0,63.4,0c-5,0-9.4,2.2-12.5,5.7
	C47.9,2.2,43.4,0,38.4,0c-7.9,0-14.5,5.5-16.2,12.9c-7.4,1.7-12.9,8.3-12.9,16.2v0.1C4.1,33.2,1,39.3,1,45.8c0,3.7,1,7.2,2.9,10.4
	C1.9,59.4,1,63,1,66.7c0,7,3.6,13.5,9.4,17.4c3,9.5,11.7,16,21.8,16c7.7,0,14.6-3.9,18.7-9.8c4.1,5.9,11,9.8,18.7,9.8
	c10.1,0,18.8-6.5,21.8-16c5.9-3.8,9.4-10.3,9.4-17.4c0-3.7-1-7.2-2.9-10.4C100,53.1,100.9,49.5,100.9,45.8z M32.2,91.7
	c-6.8,0-12.6-4.6-14.2-11.3c-0.3-1.2-1-2.2-2.1-2.7c-4.1-2.2-6.7-6.4-6.7-11c0-2.8,1-5.5,2.8-7.8c1.2-1.5,1.2-3.7,0-5.2
	c-1.8-2.3-2.8-5-2.8-7.8c0-4.5,2.5-8.6,6.4-10.8c1.5-0.9,2.4-2.6,2.1-4.4c-0.1-0.5-0.2-1-0.2-1.5c0-4.6,3.7-8.3,8.3-8.3
	c2.3,0,4.2-1.9,4.2-4.2c0-4.6,3.7-8.3,8.3-8.3s8.3,3.7,8.3,8.3v16.7h-9.4c-1.4-2.5-4.1-4.2-7.2-4.2c-4.6,0-8.3,3.7-8.3,8.3
	s3.7,8.3,8.3,8.3c3.1,0,5.8-1.7,7.2-4.2h9.4v20.8h-9.4c-1.4-2.5-4.1-4.2-7.2-4.2c-4.6,0-8.3,3.7-8.3,8.3s3.7,8.3,8.3,8.3
	c3.1,0,5.8-1.7,7.2-4.2h9.4v6.2C46.8,85.1,40.2,91.7,32.2,91.7z M89.8,58.9c1.8,2.3,2.8,5,2.8,7.8c0,4.6-2.5,8.8-6.7,11
	c-1.1,0.6-1.8,1.6-2.1,2.7c-1.5,6.7-7.4,11.3-14.2,11.3c-8,0-14.6-6.5-14.6-14.6V58.3h8.3c6.9,0,12.5-5.6,12.5-12.5v-1.1
	c2.5-1.4,4.2-4.1,4.2-7.2c0-4.6-3.7-8.3-8.3-8.3c-4.6,0-8.3,3.7-8.3,8.3c0,3.1,1.7,5.8,4.2,7.2v1.1c0,2.3-1.9,4.2-4.2,4.2h-8.3V16.7
	c0-4.6,3.7-8.3,8.3-8.3s8.3,3.7,8.3,8.3c0,2.3,1.9,4.2,4.2,4.2c4.6,0,8.3,3.7,8.3,8.3c0,0.5-0.1,1-0.2,1.5c-0.3,1.7,0.5,3.5,2.1,4.4
	c4,2.2,6.4,6.4,6.4,10.8c0,2.8-1,5.5-2.8,7.8C88.5,55.2,88.5,57.3,89.8,58.9L89.8,58.9z"/>
</svg>
