<?xml version="1.0" encoding="utf-8"?>
<!-- Generator: Adobe Illustrator 26.0.2, SVG Export Plug-In . SVG Version: 6.00 Build 0)  -->
<svg version="1.1" id="Layer_1" xmlns="http://www.w3.org/2000/svg" xmlns:xlink="http://www.w3.org/1999/xlink" x="0px" y="0px"
	 viewBox="0 0 101.9 100" style="enable-background:new 0 0 101.9 100;" xml:space="preserve">
<style type="text/css">
	.st0{display:none;opacity:0.3;}
	.st1{display:inline;fill:none;stroke:#000333;stroke-width:2.9997;stroke-miterlimit:3.9996;}
	.st2{display:inline;}
	.st3{fill:none;stroke:#000333;stroke-width:2.9997;stroke-miterlimit:3.9996;}
	.st4{display:inline;fill:#FFFFFF;stroke:#000333;stroke-width:2.9997;stroke-miterlimit:3.9996;}
	.st5{fill:#FFFFFF;stroke:#000333;stroke-width:2.9997;stroke-miterlimit:3.9996;}
</style>
<g class="st0">
	<path class="st1" d="M38.6,34c0.2,4.2,0.2,3.8-0.3,8.6c-0.7,6.7-2,12.8-3.7,17.9c4.4,1.5,8.7,5.9,10.9,11.8c1,2.7,1.5,5.3,1.5,7.8
		h3.2V80"/>
	<path class="st1" d="M51.7,80v0.2h3.2c0-2.5,0.5-5.2,1.5-7.8c2.3-6,6.5-10.3,10.9-11.8c-1.7-5.1-3-11.2-3.7-17.9
		c-0.5-4.8-0.6-4.4-0.3-8.6"/>
	<polyline class="st1" points="38.2,0 38.2,26.7 63.7,26.7 63.7,0 	"/>
	<rect x="37.2" y="26.2" class="st1" width="27.6" height="8"/>
	<path class="st1" d="M95.6,53.9c0,24.6-20,40.6-44.6,40.6S6.4,78.5,6.4,53.9"/>
	<line class="st1" x1="9.8" y1="94.2" x2="92.1" y2="94.2"/>
	<g class="st2">
		<rect x="1.5" y="45.5" class="st3" width="8.6" height="8.6"/>
		<rect x="91.8" y="45.5" class="st3" width="8.6" height="8.6"/>
	</g>
	<rect x="46.6" y="89.9" class="st4" width="8.6" height="8.6"/>
	<g class="st2">
		<rect x="1.9" y="89.9" class="st5" width="8.6" height="8.6"/>
		<rect x="91.4" y="89.9" class="st5" width="8.6" height="8.6"/>
	</g>
	<line class="st1" x1="50.9" y1="80.3" x2="50.9" y2="54.8"/>
	<circle class="st1" cx="50.9" cy="51.8" r="2.8"/>
</g>
<path d="M50.9,3.3C22.8,3.3,0,26.1,0,54.2c0,16.6,8.1,32.2,21.7,41.7l1.1,0.8h56.3l1.1-0.8c23-16.1,28.6-47.9,12.5-70.9
	C83.1,11.4,67.6,3.3,50.9,3.3z M25.7,82.9C9.9,69,8.3,44.9,22.1,29.1c11.3-12.9,29.8-16.7,45.3-9.3l-6.5,6.5
	c-3.2-1.2-6.6-1.7-10-1.8c-16.4,0-29.7,13.3-29.7,29.7c0,8.6,3.7,16.7,10.1,22.4L25.7,82.9z M50.9,62.7c-4.7,0.1-8.5-3.7-8.6-8.4
	c-0.1-4.7,3.7-8.5,8.4-8.6c0.8,0,1.6,0.1,2.4,0.3l20.3-20.3l6,6L59.1,52.1c1.3,4.5-1.3,9.1-5.8,10.4C52.6,62.6,51.7,62.7,50.9,62.7
	L50.9,62.7z M76.2,82.9l-5.6-6.4c9.2-8,12.5-20.8,8.4-32.2l6.5-6.5C92.8,53.2,89,71.7,76.2,82.9L76.2,82.9z"/>
</svg>
