<?xml version="1.0" encoding="utf-8"?>
<!-- Generator: Adobe Illustrator 26.0.2, SVG Export Plug-In . SVG Version: 6.00 Build 0)  -->
<svg version="1.1" id="Layer_1" xmlns="http://www.w3.org/2000/svg" xmlns:xlink="http://www.w3.org/1999/xlink" x="0px" y="0px"
	 viewBox="0 0 101.9 100" style="enable-background:new 0 0 101.9 100;" xml:space="preserve">
<style type="text/css">
	.st0{display:none;opacity:0.3;}
	.st1{display:inline;fill:none;stroke:#000333;stroke-width:2.9997;stroke-miterlimit:3.9996;}
	.st2{display:inline;}
	.st3{fill:none;stroke:#000333;stroke-width:2.9997;stroke-miterlimit:3.9996;}
	.st4{display:inline;fill:#FFFFFF;stroke:#000333;stroke-width:2.9997;stroke-miterlimit:3.9996;}
	.st5{fill:#FFFFFF;stroke:#000333;stroke-width:2.9997;stroke-miterlimit:3.9996;}
</style>
<g class="st0">
	<path class="st1" d="M38.6,34c0.2,4.2,0.2,3.8-0.3,8.6c-0.7,6.7-2,12.8-3.7,17.9c4.4,1.5,8.7,5.9,10.9,11.8c1,2.7,1.5,5.3,1.5,7.8
		h3.2V80"/>
	<path class="st1" d="M51.7,80v0.2h3.2c0-2.5,0.5-5.2,1.5-7.8c2.3-6,6.5-10.3,10.9-11.8c-1.7-5.1-3-11.2-3.7-17.9
		c-0.5-4.8-0.6-4.4-0.3-8.6"/>
	<polyline class="st1" points="38.2,0 38.2,26.7 63.7,26.7 63.7,0 	"/>
	<rect x="37.2" y="26.2" class="st1" width="27.6" height="8"/>
	<path class="st1" d="M95.6,53.9c0,24.6-20,40.6-44.6,40.6S6.4,78.5,6.4,53.9"/>
	<line class="st1" x1="9.8" y1="94.2" x2="92.1" y2="94.2"/>
	<g class="st2">
		<rect x="1.5" y="45.5" class="st3" width="8.6" height="8.6"/>
		<rect x="91.8" y="45.5" class="st3" width="8.6" height="8.6"/>
	</g>
	<rect x="46.6" y="89.9" class="st4" width="8.6" height="8.6"/>
	<g class="st2">
		<rect x="1.9" y="89.9" class="st5" width="8.6" height="8.6"/>
		<rect x="91.4" y="89.9" class="st5" width="8.6" height="8.6"/>
	</g>
	<line class="st1" x1="50.9" y1="80.3" x2="50.9" y2="54.8"/>
	<circle class="st1" cx="50.9" cy="51.8" r="2.8"/>
</g>
<path d="M99.7,92.9L89.1,82.3c2.2-3.3,3.5-7.2,3.5-11.5c0-11.5-9.3-20.8-20.8-20.8s-20.8,9.3-20.8,20.8s9.3,20.8,20.8,20.8
	c4.2,0,8.2-1.3,11.5-3.5l10.6,10.6c0.8,0.8,1.9,1.2,3,1.2s2.1-0.4,3-1.2C101.4,97.2,101.4,94.5,99.7,92.9L99.7,92.9z M63.4,42.9
	v-1.2c0-2.3-1.9-4.2-4.2-4.2c-2.3,0-4.2,1.9-4.2,4.2v5.2c-2.8,2-5.3,4.4-7.2,7.2h-9.4V38.9c0-1.1,0.4-2.2,1.2-3L53.5,22
	c0.8-0.8,1.8-1.2,3-1.2h15.3v20.8C68.9,41.7,66.1,42.1,63.4,42.9z M43.8,79.2c1.4,4.8,4,9.1,7.5,12.5H21.8
	c-11.5,0-20.8-9.3-20.8-20.8v-50C0.9,9.3,10.3,0,21.8,0h50c11.5,0,20.8,9.3,20.8,20.8v29.6c-3.4-3.5-7.7-6.1-12.5-7.5V20.8
	c0-4.6-3.7-8.3-8.3-8.3H56.5c-3.3,0-6.5,1.3-8.8,3.7L33.8,30c-2.4,2.4-3.7,5.5-3.7,8.8v15.3c0,4.6,3.7,8.3,8.3,8.3h5.4
	c-0.8,2.6-1.2,5.4-1.2,8.3H21.8V32.5l11.3-12.9c1.2-1.2,1.5-3,0.9-4.5c-0.6-1.5-2.2-2.6-3.8-2.6h-8.3c-4.6,0-8.3,3.7-8.3,8.3v50
	c0,4.6,3.7,8.3,8.3,8.3H43.8L43.8,79.2z"/>
</svg>
