<?xml version="1.0" encoding="utf-8"?>
<!-- Generator: Adobe Illustrator 26.0.2, SVG Export Plug-In . SVG Version: 6.00 Build 0)  -->
<svg version="1.1" id="Layer_1" xmlns="http://www.w3.org/2000/svg" xmlns:xlink="http://www.w3.org/1999/xlink" x="0px" y="0px"
	 viewBox="0 0 101.9 100" style="enable-background:new 0 0 101.9 100;" xml:space="preserve">
<style type="text/css">
	.st0{display:none;opacity:0.3;}
	.st1{display:inline;fill:none;stroke:#000333;stroke-width:2.9997;stroke-miterlimit:3.9996;}
	.st2{display:inline;}
	.st3{fill:none;stroke:#000333;stroke-width:2.9997;stroke-miterlimit:3.9996;}
	.st4{display:inline;fill:#FFFFFF;stroke:#000333;stroke-width:2.9997;stroke-miterlimit:3.9996;}
	.st5{fill:#FFFFFF;stroke:#000333;stroke-width:2.9997;stroke-miterlimit:3.9996;}
</style>
<g class="st0">
	<path class="st1" d="M38.6,34c0.2,4.2,0.2,3.8-0.3,8.6c-0.7,6.7-2,12.8-3.7,17.9c4.4,1.5,8.7,5.9,10.9,11.8c1,2.7,1.5,5.3,1.5,7.8
		h3.2V80"/>
	<path class="st1" d="M51.7,80v0.2h3.2c0-2.5,0.5-5.2,1.5-7.8c2.3-6,6.5-10.3,10.9-11.8c-1.7-5.1-3-11.2-3.7-17.9
		c-0.5-4.8-0.6-4.4-0.3-8.6"/>
	<polyline class="st1" points="38.2,0 38.2,26.7 63.7,26.7 63.7,0 	"/>
	<rect x="37.2" y="26.2" class="st1" width="27.6" height="8"/>
	<path class="st1" d="M95.6,53.9c0,24.6-20,40.6-44.6,40.6S6.4,78.5,6.4,53.9"/>
	<line class="st1" x1="9.8" y1="94.2" x2="92.1" y2="94.2"/>
	<g class="st2">
		<rect x="1.5" y="45.5" class="st3" width="8.6" height="8.6"/>
		<rect x="91.8" y="45.5" class="st3" width="8.6" height="8.6"/>
	</g>
	<rect x="46.6" y="89.9" class="st4" width="8.6" height="8.6"/>
	<g class="st2">
		<rect x="1.9" y="89.9" class="st5" width="8.6" height="8.6"/>
		<rect x="91.4" y="89.9" class="st5" width="8.6" height="8.6"/>
	</g>
	<line class="st1" x1="50.9" y1="80.3" x2="50.9" y2="54.8"/>
	<circle class="st1" cx="50.9" cy="51.8" r="2.8"/>
</g>
<path d="M63.2,37.5h0.3c6.9,0,12.5-5.6,12.5-12.5V12.5C75.9,5.6,70.3,0,63.5,0h-25C31.6,0,26,5.6,26,12.5V25
	c0,6.9,5.6,12.5,12.5,12.5h0.8l7.6,6.7c1.2,1.1,2.7,1.6,4.2,1.6c1.5,0,3-0.5,4.2-1.6L63.2,37.5L63.2,37.5z M23.9,75
	c8,0,14.6-6.5,14.6-14.6s-6.5-14.6-14.6-14.6S9.3,52.4,9.3,60.4S15.8,75,23.9,75z M63.5,60.4C63.5,68.5,70,75,78,75
	s14.6-6.5,14.6-14.6S86.1,45.8,78,45.8S63.5,52.4,63.5,60.4z M23.9,79.2c-10.1,0-19.2,6.1-22.7,15.2c-0.5,1.3-0.3,2.7,0.5,3.8
	c0.8,1.1,2.1,1.8,3.4,1.8h37.5c1.4,0,2.6-0.7,3.4-1.8c0.8-1.1,1-2.6,0.5-3.8C43.1,85.3,34,79.2,23.9,79.2L23.9,79.2z M100.7,94.4
	C97.3,85.3,88.2,79.2,78,79.2s-19.2,6.1-22.7,15.2c-0.5,1.3-0.3,2.7,0.5,3.8c0.8,1.1,2.1,1.8,3.4,1.8h37.5c1.4,0,2.6-0.7,3.4-1.8
	C101,97.1,101.2,95.6,100.7,94.4L100.7,94.4z"/>
</svg>
