<?xml version="1.0" encoding="utf-8"?>
<!-- Generator: Adobe Illustrator 26.0.2, SVG Export Plug-In . SVG Version: 6.00 Build 0)  -->
<svg version="1.1" id="Layer_1" xmlns="http://www.w3.org/2000/svg" xmlns:xlink="http://www.w3.org/1999/xlink" x="0px" y="0px"
	 width="101.896px" height="99.99px" viewBox="0 0 101.9 100" style="enable-background:new 0 0 101.9 100;" xml:space="preserve">
<style type="text/css">
	.st0{display:none;opacity:0.3;}
	.st1{display:inline;fill:none;stroke:#000333;stroke-width:3;}
	.st2{display:inline;}
	.st3{fill:none;stroke:#000333;stroke-width:3;}
	.st4{display:inline;fill:#FFFFFF;stroke:#000333;stroke-width:3;}
	.st5{fill:#FFFFFF;stroke:#000333;stroke-width:3;}
</style>
<g class="st0">
	<path class="st1" d="M38.6,34c0.2,4.2,0.2,3.8-0.3,8.6c-0.7,6.7-2,12.8-3.7,17.9c4.4,1.5,8.7,5.9,10.9,11.8c1,2.7,1.5,5.3,1.5,7.8
		h3.2V80"/>
	<path class="st1" d="M51.7,80v0.2h3.2c0-2.5,0.5-5.2,1.5-7.8c2.3-6,6.5-10.3,10.9-11.8c-1.7-5.1-3-11.2-3.7-17.9
		c-0.5-4.8-0.6-4.4-0.3-8.6"/>
	<polyline class="st1" points="38.2,0 38.2,26.7 63.7,26.7 63.7,0 	"/>
	<rect x="37.2" y="26.2" class="st1" width="27.6" height="8"/>
	<path class="st1" d="M95.6,53.9c0,24.6-20,40.6-44.6,40.6c-24.6,0-44.6-16-44.6-40.6"/>
	<line class="st1" x1="9.8" y1="94.2" x2="92.1" y2="94.2"/>
	<g class="st2">
		<rect x="1.5" y="45.5" class="st3" width="8.6" height="8.6"/>
		<rect x="91.8" y="45.5" class="st3" width="8.6" height="8.6"/>
	</g>
	<rect x="46.6" y="89.9" class="st4" width="8.6" height="8.6"/>
	<g class="st2">
		<rect x="1.9" y="89.9" class="st5" width="8.6" height="8.6"/>
		<rect x="91.4" y="89.9" class="st5" width="8.6" height="8.6"/>
	</g>
	<line class="st1" x1="50.9" y1="80.3" x2="50.9" y2="54.8"/>
	<circle class="st1" cx="50.9" cy="51.8" r="2.8"/>
</g>
<g>
	<path d="M98.6,61.9c1.3,0,2.4-1.1,2.4-2.4c0-1.3-1.1-2.4-2.4-2.4H34.3V2.4c0-1.3-1.1-2.4-2.4-2.4s-2.4,1.1-2.4,2.4v21.4H8.1
		c-1.3,0-2.4,1.1-2.4,2.4v54.8H3.3C2,80.9,1,82,1,83.3v14.3C1,98.9,2,100,3.3,100h95.2c1.3,0,2.4-1.1,2.4-2.4V83.3
		c0-1.3-1.1-2.4-2.4-2.4h-2.4v-19H98.6z M31.9,66.7c1.3,0,2.4-1.1,2.4-2.4v-2.4h50v11.9H17.6V35.7h11.9v21.4h-2.4
		c-1.3,0-2.4,1.1-2.4,2.4c0,1.3,1.1,2.4,2.4,2.4h2.4v2.4C29.5,65.6,30.6,66.7,31.9,66.7z M10.5,28.6h19v2.4H15.2
		c-1.3,0-2.4,1.1-2.4,2.4v42.9c0,1.3,1.1,2.4,2.4,2.4h71.4c1.3,0,2.4-1.1,2.4-2.4V61.9h2.4v19H10.5V28.6z M62.9,85.7v2.4H39v-2.4
		H62.9z M96.2,95.2H5.7v-9.5h28.6v4.8c0,1.3,1.1,2.4,2.4,2.4h28.6c1.3,0,2.4-1.1,2.4-2.4v-4.8h28.6V95.2z"/>
	<path d="M46.2,52.4c3.9,0,7.1-3.2,7.1-7.1c0-1.1-0.3-2.1-0.7-3.1l4.8-4.8c0.9,0.4,2,0.7,3.1,0.7c1.9,0,3.7-0.8,4.9-2l7,3.5
		c0,0.3-0.1,0.6-0.1,0.9c0,3.9,3.2,7.1,7.1,7.1c3.9,0,7.1-3.2,7.1-7.1c0-1.1-0.3-2.1-0.7-3.1l4.8-4.8c0.9,0.4,2,0.7,3.1,0.7
		c3.9,0,7.1-3.2,7.1-7.1c0-3.9-3.2-7.1-7.1-7.1c-3.9,0-7.1,3.2-7.1,7.1c0,1.1,0.3,2.1,0.7,3.1L82.6,34c-0.9-0.4-2-0.7-3.1-0.7
		c-1.9,0-3.7,0.8-4.9,2l-7-3.5c0-0.3,0.1-0.6,0.1-0.9c0-3.9-3.2-7.1-7.1-7.1c-3.9,0-7.1,3.2-7.1,7.1c0,1.1,0.3,2.1,0.7,3.1l-4.8,4.8
		c-0.9-0.4-2-0.7-3.1-0.7c-3.9,0-7.1,3.2-7.1,7.1C39,49.2,42.2,52.4,46.2,52.4z M93.8,23.8c1.3,0,2.4,1.1,2.4,2.4
		c0,1.3-1.1,2.4-2.4,2.4c-1.3,0-2.4-1.1-2.4-2.4C91.4,24.9,92.5,23.8,93.8,23.8z M79.5,38.1c1.3,0,2.4,1.1,2.4,2.4
		c0,1.3-1.1,2.4-2.4,2.4c-1.3,0-2.4-1.1-2.4-2.4C77.1,39.2,78.2,38.1,79.5,38.1z M60.5,28.6c1.3,0,2.4,1.1,2.4,2.4
		c0,1.3-1.1,2.4-2.4,2.4c-0.6,0-1.2-0.3-1.6-0.7c0,0,0,0,0-0.1c0,0,0,0-0.1,0c-0.4-0.4-0.7-1-0.7-1.6C58.1,29.6,59.2,28.6,60.5,28.6
		z M46.2,42.9c1.3,0,2.4,1.1,2.4,2.4c0,1.3-1.1,2.4-2.4,2.4c-1.3,0-2.4-1.1-2.4-2.4C43.8,43.9,44.9,42.9,46.2,42.9z"/>
</g>
</svg>
