<?xml version="1.0" encoding="utf-8"?>
<!-- Generator: Adobe Illustrator 26.0.2, SVG Export Plug-In . SVG Version: 6.00 Build 0)  -->
<svg version="1.1" id="Layer_1" xmlns="http://www.w3.org/2000/svg" xmlns:xlink="http://www.w3.org/1999/xlink" x="0px" y="0px"
	 width="101.896px" height="99.99px" viewBox="0 0 101.9 100" style="enable-background:new 0 0 101.9 100;" xml:space="preserve">
<style type="text/css">
	.st0{display:none;opacity:0.3;}
	.st1{display:inline;fill:none;stroke:#000333;stroke-width:2.9997;stroke-miterlimit:3.9996;}
	.st2{display:inline;}
	.st3{fill:none;stroke:#000333;stroke-width:2.9997;stroke-miterlimit:3.9996;}
	.st4{display:inline;fill:#FFFFFF;stroke:#000333;stroke-width:2.9997;stroke-miterlimit:3.9996;}
	.st5{fill:#FFFFFF;stroke:#000333;stroke-width:2.9997;stroke-miterlimit:3.9996;}
</style>
<g class="st0">
	<path class="st1" d="M38.6,34c0.2,4.2,0.2,3.8-0.3,8.6c-0.7,6.7-2,12.8-3.7,17.9c4.4,1.5,8.7,5.9,10.9,11.8c1,2.7,1.5,5.3,1.5,7.8
		h3.2V80"/>
	<path class="st1" d="M51.7,80v0.2h3.2c0-2.5,0.5-5.2,1.5-7.8c2.3-6,6.5-10.3,10.9-11.8c-1.7-5.1-3-11.2-3.7-17.9
		c-0.5-4.8-0.6-4.4-0.3-8.6"/>
	<polyline class="st1" points="38.2,0 38.2,26.7 63.7,26.7 63.7,0 	"/>
	<rect x="37.2" y="26.2" class="st1" width="27.6" height="8"/>
	<path class="st1" d="M95.6,53.9c0,24.6-20,40.6-44.6,40.6S6.4,78.5,6.4,53.9"/>
	<line class="st1" x1="9.8" y1="94.2" x2="92.1" y2="94.2"/>
	<g class="st2">
		<rect x="1.5" y="45.5" class="st3" width="8.6" height="8.6"/>
		<rect x="91.8" y="45.5" class="st3" width="8.6" height="8.6"/>
	</g>
	<rect x="46.6" y="89.9" class="st4" width="8.6" height="8.6"/>
	<g class="st2">
		<rect x="1.9" y="89.9" class="st5" width="8.6" height="8.6"/>
		<rect x="91.4" y="89.9" class="st5" width="8.6" height="8.6"/>
	</g>
	<line class="st1" x1="50.9" y1="80.3" x2="50.9" y2="54.8"/>
	<circle class="st1" cx="50.9" cy="51.8" r="2.8"/>
</g>
<g>
	<rect x="50.8" y="26.8" transform="matrix(0.5736 -0.8192 0.8192 0.5736 4.708 73.3431)" width="43.9" height="10.7"/>
	<path d="M48.4,64.9c0,0.5,0.2,1,0.6,1.2c0.2,0.2,0.5,0.3,0.8,0.3c0.2,0,0.4,0,0.5-0.1l4.9-1.9c1.4-0.5,2.5-1.4,3.3-2.6l4.3-6.1
		l-8.8-6.2l-4.3,6.1c-0.8,1.2-1.3,2.6-1.3,4L48.4,64.9z"/>
	<path d="M96.2,8c0.7-1,0.9-2.1,0.7-3.3c-0.2-1.2-0.8-2.2-1.8-2.8l-1.6-1.1c-2-1.4-4.7-0.9-6.1,1.1l-4.8,6.8l8.8,6.2L96.2,8z"/>
	<path d="M51,2.9h3.9c0.8,0,1.5-0.7,1.5-1.5S55.7,0,54.9,0H51c-0.8,0-1.5,0.7-1.5,1.5S50.2,2.9,51,2.9z"/>
	<path d="M93.6,30.7H84l-5.5,7.8h10.2c2.4,0,4.4,2,4.4,4.4v44.9c0,2.4-2,4.4-4.4,4.4h-56c-2.4,0-4.4-2-4.4-4.4V42.9
		c0-2.4,2-4.4,4.4-4.4h25.6l5.5-7.8H8.3c-4,0-7.3,3.3-7.3,7.3v54.7c0,4,3.3,7.3,7.3,7.3h85.3c4,0,7.3-3.3,7.3-7.3V38
		C100.9,33.9,97.7,30.7,93.6,30.7z M12.2,38.5H20c0.8,0,1.5,0.7,1.5,1.5c0,0.8-0.7,1.5-1.5,1.5h-7.8c-0.8,0-1.5-0.7-1.5-1.5
		C10.7,39.1,11.4,38.5,12.2,38.5z M20,92.2h-7.8c-0.8,0-1.5-0.7-1.5-1.5c0-0.8,0.7-1.5,1.5-1.5H20c0.8,0,1.5,0.7,1.5,1.5
		C21.5,91.5,20.8,92.2,20,92.2z M23.4,82.9c0,1.9-1.5,3.4-3.4,3.4h-7.8c-1.9,0-3.4-1.5-3.4-3.4v-2c0-1.9,1.5-3.4,3.4-3.4H20
		c1.9,0,3.4,1.5,3.4,3.4V82.9z M23.4,68.3c0,2.4-2,4.4-4.4,4.4h-5.9c-2.4,0-4.4-2-4.4-4.4v-5.9c0-2.4,2-4.4,4.4-4.4H19
		c2.4,0,4.4,2,4.4,4.4V68.3z M23.4,49.7c0,1.9-1.5,3.4-3.4,3.4h-7.8c-1.9,0-3.4-1.5-3.4-3.4v-2c0-1.9,1.5-3.4,3.4-3.4H20
		c1.9,0,3.4,1.5,3.4,3.4V49.7z"/>
	<path d="M19,60.9h-5.9c-0.8,0-1.5,0.7-1.5,1.5v5.9c0,0.8,0.7,1.5,1.5,1.5H19c0.8,0,1.5-0.7,1.5-1.5v-5.9
		C20.5,61.6,19.8,60.9,19,60.9z M17.1,66.8h-2c-0.8,0-1.5-0.7-1.5-1.5c0-0.8,0.7-1.5,1.5-1.5h2c0.8,0,1.5,0.7,1.5,1.5
		C18.5,66.1,17.9,66.8,17.1,66.8z"/>
	<path d="M20,80.5h-7.8c-0.3,0-0.5,0.2-0.5,0.5v2c0,0.3,0.2,0.5,0.5,0.5H20c0.3,0,0.5-0.2,0.5-0.5v-2C20.5,80.7,20.3,80.5,20,80.5z"
		/>
	<path d="M20,47.3h-7.8c-0.3,0-0.5,0.2-0.5,0.5v2c0,0.3,0.2,0.5,0.5,0.5H20c0.3,0,0.5-0.2,0.5-0.5v-2C20.5,47.5,20.3,47.3,20,47.3z"
		/>
	<path d="M32.7,41.4c-0.8,0-1.5,0.7-1.5,1.5v44.9c0,0.8,0.7,1.5,1.5,1.5h56c0.8,0,1.5-0.7,1.5-1.5V42.9c0-0.8-0.7-1.5-1.5-1.5H76.5
		L61,63.5c-1.2,1.7-2.8,2.9-4.7,3.7L51.4,69c-0.5,0.2-1,0.3-1.6,0.3c-0.9,0-1.8-0.3-2.5-0.8c-1.2-0.8-1.9-2.2-1.9-3.7l0.1-5.3
		c0-2,0.7-4,1.9-5.6l8.8-12.5H32.7z M78,46.3h3.9c1.9,0,3.4,1.5,3.4,3.4v3.9c0,0.8-0.7,1.5-1.5,1.5c-0.8,0-1.5-0.7-1.5-1.5v-3.9
		c0-0.3-0.2-0.5-0.5-0.5H78c-0.8,0-1.5-0.7-1.5-1.5S77.2,46.3,78,46.3z M78,81.4h3.9c0.3,0,0.5-0.2,0.5-0.5V77
		c0-0.8,0.7-1.5,1.5-1.5c0.8,0,1.5,0.7,1.5,1.5v3.9c0,1.9-1.5,3.4-3.4,3.4H78c-0.8,0-1.5-0.7-1.5-1.5C76.5,82.1,77.2,81.4,78,81.4z
		 M43.4,84.4h-3.9c-1.9,0-3.4-1.5-3.4-3.4V77c0-0.8,0.7-1.5,1.5-1.5c0.8,0,1.5,0.7,1.5,1.5v3.9c0,0.3,0.2,0.5,0.5,0.5h3.9
		c0.8,0,1.5,0.7,1.5,1.5C44.9,83.7,44.2,84.4,43.4,84.4z M43.4,49.2h-3.9c-0.3,0-0.5,0.2-0.5,0.5v3.9c0,0.8-0.7,1.5-1.5,1.5
		c-0.8,0-1.5-0.7-1.5-1.5v-3.9c0-1.9,1.5-3.4,3.4-3.4h3.9c0.8,0,1.5,0.7,1.5,1.5S44.2,49.2,43.4,49.2z"/>
	<path d="M35.6,22.8H20c-0.7,0-1.3,0.5-1.4,1.1l-0.9,3.8H38L37,24C36.9,23.3,36.3,22.8,35.6,22.8z"/>
	<path d="M9.6,14.6h14.3c1.3,0,2.4,1.1,2.4,2.4v2.8h2.9v-2.8c0-3-2.4-5.4-5.4-5.4H9.6c-2.4,0-4.4-2-4.4-4.4c0-2.4,2-4.4,4.4-4.4
		h33.6c0.8,0,1.5-0.7,1.5-1.5S44,0,43.2,0H9.6c-4,0-7.3,3.3-7.3,7.3C2.2,11.4,5.5,14.6,9.6,14.6z"/>
</g>
</svg>
