<?xml version="1.0" encoding="utf-8"?>
<!-- Generator: Adobe Illustrator 26.0.2, SVG Export Plug-In . SVG Version: 6.00 Build 0)  -->
<svg version="1.1" id="Layer_1" xmlns="http://www.w3.org/2000/svg" xmlns:xlink="http://www.w3.org/1999/xlink" x="0px" y="0px"
	 width="101.896px" height="99.99px" viewBox="0 0 101.9 100" style="enable-background:new 0 0 101.9 100;" xml:space="preserve">
<style type="text/css">
	.st0{display:none;opacity:0.3;}
	.st1{display:inline;fill:none;stroke:#000333;stroke-width:2.9997;stroke-miterlimit:3.9996;}
	.st2{display:inline;}
	.st3{fill:none;stroke:#000333;stroke-width:2.9997;stroke-miterlimit:3.9996;}
	.st4{display:inline;fill:#FFFFFF;stroke:#000333;stroke-width:2.9997;stroke-miterlimit:3.9996;}
	.st5{fill:#FFFFFF;stroke:#000333;stroke-width:2.9997;stroke-miterlimit:3.9996;}
</style>
<g class="st0">
	<path class="st1" d="M38.6,34c0.2,4.2,0.2,3.8-0.3,8.6c-0.7,6.7-2,12.8-3.7,17.9c4.4,1.5,8.7,5.9,10.9,11.8c1,2.7,1.5,5.3,1.5,7.8
		h3.2V80"/>
	<path class="st1" d="M51.7,80v0.2h3.2c0-2.5,0.5-5.2,1.5-7.8c2.3-6,6.5-10.3,10.9-11.8c-1.7-5.1-3-11.2-3.7-17.9
		c-0.5-4.8-0.6-4.4-0.3-8.6"/>
	<polyline class="st1" points="38.2,0 38.2,26.7 63.7,26.7 63.7,0 	"/>
	<rect x="37.2" y="26.2" class="st1" width="27.6" height="8"/>
	<path class="st1" d="M95.6,53.9c0,24.6-20,40.6-44.6,40.6S6.4,78.5,6.4,53.9"/>
	<line class="st1" x1="9.8" y1="94.2" x2="92.1" y2="94.2"/>
	<g class="st2">
		<rect x="1.5" y="45.5" class="st3" width="8.6" height="8.6"/>
		<rect x="91.8" y="45.5" class="st3" width="8.6" height="8.6"/>
	</g>
	<rect x="46.6" y="89.9" class="st4" width="8.6" height="8.6"/>
	<g class="st2">
		<rect x="1.9" y="89.9" class="st5" width="8.6" height="8.6"/>
		<rect x="91.4" y="89.9" class="st5" width="8.6" height="8.6"/>
	</g>
	<line class="st1" x1="50.9" y1="80.3" x2="50.9" y2="54.8"/>
	<circle class="st1" cx="50.9" cy="51.8" r="2.8"/>
</g>
<path d="M92.2,15H8.6c-3.1,0-5.5,2.4-5.5,5.5v57.8c0,3.1,2.4,5.5,5.5,5.5h83.6c3.1,0,5.5-2.4,5.5-5.5V20.5
	C97.8,17.4,95.3,15,92.2,15z M91.2,64.4H9.5v-43h81.8V64.4z"/>
<path d="M85.9,1c2.4,0,4.3,1.9,4.3,4.3c0,2.4-1.9,4.3-4.3,4.3c-2.4,0-4.3-1.9-4.3-4.3C81.6,2.9,83.5,1,85.9,1z"/>
<path d="M22.4,3.3c1.7,0,3.3,1.4,3.3,3.3c0,1.9-1.4,3.3-3.3,3.3c-1.9,0-3.3-1.4-3.3-3.3C19.1,4.6,20.5,3.3,22.4,3.3z"/>
<path d="M13.8,88.1c2.4,0,4.3,1.9,4.3,4.3c0,2.4-1.9,4.3-4.3,4.3c-2.4,0-4.3-1.9-4.3-4.3C9.5,90,11.5,88.1,13.8,88.1z"/>
<rect x="53.7" y="45.9" width="6.5" height="13.1"/>
<rect x="40.8" y="41.6" width="6.5" height="17.4"/>
<polygon points="66.6,37.3 66.6,59 60.1,59 60.1,45.9 60.1,31 60.1,26.7 66.6,26.7 66.6,31 "/>
<polygon points="53.7,45.9 53.7,59 47.2,59 47.2,41.6 47.2,37.5 53.7,37.5 "/>
<polygon points="40.8,41.6 40.8,59 34.3,59 34.3,37.3 34.3,34.2 40.8,34.2 "/>
<polygon points="91.2,64.4 91.2,70.9 86.7,70.9 57,70.9 9.5,70.9 9.5,64.4 "/>
<path d="M68.5,91.6c0.9,0.9,1.2,1.9,1.2,3.1c0,2.4-1.9,4.3-4.3,4.3H35.3c-1.2,0-2.2-0.5-3.1-1.2c-0.9-0.7-1.2-1.9-1.2-3.1
	c0-1.2,0.5-2.2,1.2-3.1c0.9-0.9,1.9-1.2,3.1-1.2c1.7,0,3.4-0.7,4.6-1.9c1.2-1.2,1.9-2.8,1.9-4.6H59c0,1.7,0.7,3.4,1.9,4.6
	c1.2,1.2,2.8,1.9,4.6,1.9C66.6,90.2,67.8,90.7,68.5,91.6z"/>
<path d="M98.3,7.6c0.9,0,1.5,0.7,1.5,1.5c0,0.9-0.7,1.5-1.5,1.5c-0.9,0-1.5-0.7-1.5-1.5C96.7,8.3,97.4,7.6,98.3,7.6z"/>
<path d="M95,88.1c0.9,0,1.5,0.7,1.5,1.5c0,0.9-0.7,1.5-1.5,1.5c-0.9,0-1.5-0.7-1.5-1.5C93.5,88.8,94.1,88.1,95,88.1z"/>
<path d="M77.8,88.1c0.9,0,1.5,0.7,1.5,1.5c0,0.9-0.7,1.5-1.5,1.5c-0.9,0-1.5-0.7-1.5-1.5C76.2,88.8,76.9,88.1,77.8,88.1z"/>
<path d="M73,2.1c0.9,0,1.5,0.7,1.5,1.5c0,0.9-0.7,1.5-1.5,1.5c-0.9,0-1.5-0.7-1.5-1.5C71.4,2.8,72.1,2.1,73,2.1z"/>
<path d="M52,75.9c0.3,0.3,0.7,0.9,0.7,1.5c0,0.5-0.2,1.2-0.7,1.5c-0.3,0.3-0.9,0.7-1.5,0.7c-1.2,0-2.2-1-2.2-2.2
	c0-0.5,0.2-1.2,0.7-1.5c0.5-0.3,0.9-0.7,1.5-0.7C51.1,75.2,51.5,75.4,52,75.9z"/>
<path d="M32.7,0c0.9,0,1.5,0.7,1.5,1.5c0,0.9-0.7,1.5-1.5,1.5c-0.9,0-1.5-0.7-1.5-1.5C31.2,0.7,31.9,0,32.7,0z"/>
<path d="M25.1,87.1c0.9,0,1.5,0.7,1.5,1.5c0,0.9-0.7,1.5-1.5,1.5c-0.9,0-1.5-0.7-1.5-1.5C23.6,87.8,24.3,87.1,25.1,87.1z"/>
<path d="M7.9,7.6c0.9,0,1.5,0.7,1.5,1.5c0,0.9-0.7,1.5-1.5,1.5c-0.9,0-1.5-0.7-1.5-1.5C6.4,8.3,7.1,7.6,7.9,7.6z"/>
<path d="M92.3,84.8H59c-0.5,0-1-0.5-1-1c0-0.5,0.5-1,1-1h33.2c2.4,0,4.5-2.1,4.5-4.5V20.5c0-2.4-2.1-4.5-4.5-4.5H66.6
	c-0.5,0-1-0.5-1-1c0-0.5,0.5-1,1-1h25.6c3.6,0,6.5,2.9,6.5,6.5v57.8C98.8,81.9,95.9,84.8,92.3,84.8z"/>
<path d="M41.8,84.8H8.6c-3.6,0-6.5-2.9-6.5-6.5V20.5c0-3.6,2.9-6.5,6.5-6.5h51.5c0.5,0,1,0.5,1,1c0,0.5-0.5,1-1,1H8.6
	c-2.4,0-4.5,2.1-4.5,4.5v57.8c0,2.4,2.1,4.5,4.5,4.5h33.2c0.5,0,1,0.5,1,1C42.9,84.3,42.3,84.8,41.8,84.8z"/>
<path d="M65.4,100H35.3c-1.4,0-2.8-0.5-3.8-1.5c-1-1-1.5-2.4-1.5-3.8c0-1.4,0.5-2.8,1.5-3.8c1-1,2.4-1.5,3.8-1.5
	c1.4,0,2.8-0.5,3.8-1.5c1-1,1.5-2.4,1.5-3.8c0-0.5,0.5-1,1-1h17.2c0.5,0,1,0.5,1,1c0,1.4,0.5,2.8,1.5,3.8c1,1,2.4,1.5,3.8,1.5
	c1.4,0,2.8,0.5,3.8,1.5c1,1,1.5,2.4,1.5,3.8C70.9,97.6,68.5,100,65.4,100z M42.9,84.8c-0.2,1.5-1,3.1-2.1,4.3
	c-1.4,1.4-3.3,2.2-5.3,2.2c-0.9,0-1.7,0.3-2.2,0.9c-0.7,0.7-0.9,1.4-0.9,2.2c0,0.9,0.3,1.7,0.9,2.2c0.7,0.7,1.4,0.9,2.2,0.9h30.1
	c1.7,0,3.3-1.4,3.3-3.3c0-0.9-0.3-1.7-0.9-2.2c-0.7-0.7-1.4-0.9-2.2-0.9c-2.1,0-4-0.9-5.3-2.2c-1.2-1.2-1.9-2.6-2.1-4.3H42.9V84.8z"
	/>
<path d="M91.2,71.9H9.5c-0.5,0-1-0.5-1-1V21.3c0-0.5,0.5-1,1-1h24.8c0.5,0,1,0.5,1,1c0,0.5-0.5,1-1,1H10.7v47.3h79.7V22.5H66.6
	c-0.5,0-1-0.5-1-1c0-0.5,0.5-1,1-1h24.8c0.5,0,1,0.5,1,1v49.6C92.4,71.4,91.9,71.9,91.2,71.9z"/>
<path d="M39.9,22.5h20c0.5,0,1-0.5,1-1c0-0.5-0.5-1-1-1h-20V22.5z"/>
<path d="M13.8,97.8c-2.9,0-5.3-2.4-5.3-5.3c0-2.9,2.4-5.3,5.3-5.3c2.9,0,5.3,2.4,5.3,5.3C19.3,95.3,16.9,97.8,13.8,97.8z M13.8,89.1
	c-1.7,0-3.3,1.4-3.3,3.3c0,1.9,1.4,3.3,3.3,3.3s3.3-1.4,3.3-3.3C17,90.5,15.7,89.1,13.8,89.1z"/>
<path d="M40.8,60.1h-6.5c-0.5,0-1-0.5-1-1V34.2c0-0.5,0.5-1,1-1h6.5c0.5,0,1,0.5,1,1v7.6c0,0.5-0.5,1-1,1c-0.5,0-1-0.5-1-1v-6.5
	h-4.3V58h5.3c0.5,0,1,0.5,1,1S41.3,60.1,40.8,60.1z"/>
<path d="M47.2,60.1h-6.5c-0.5,0-1-0.5-1-1V41.6c0-0.5,0.5-1,1-1h6.5c0.5,0,1,0.5,1,1c0,0.5-0.5,1-1,1h-5.3v15.1h5.3c0.5,0,1,0.5,1,1
	C48.2,59.5,47.9,60.1,47.2,60.1z"/>
<path d="M53.7,60.1h-6.5c-0.5,0-1-0.5-1-1V37.5c0-0.5,0.5-1,1-1h6.5c0.5,0,1,0.5,1,1v8.6c0,0.5-0.5,1-1,1s-1-0.5-1-1v-7.6h-4.3V58
	h5.3c0.5,0,1,0.5,1,1S54.2,60.1,53.7,60.1z"/>
<path d="M60.1,60.1h-6.5c-0.5,0-1-0.5-1-1V45.9c0-0.5,0.5-1,1-1h6.5c0.5,0,1,0.5,1,1s-0.5,1-1,1h-5.3v10.8h5.3c0.5,0,1,0.5,1,1
	C61.1,59.5,60.8,60.1,60.1,60.1z"/>
<path d="M66.6,60.1h-6.5c-0.5,0-1-0.5-1-1V26.7c0-0.5,0.5-1,1-1h6.5c0.5,0,1,0.5,1,1V59C67.6,59.5,67.1,60.1,66.6,60.1z M61.1,58
	h4.3V27.7h-4.3V58z"/>
<path d="M18.8,27.4c-0.3,0-0.5-0.2-0.7-0.3c-0.3-0.3-0.3-1,0-1.5L35.8,7.7c0.3-0.3,1-0.3,1.5,0l5.7,5.7L52,4.5c0.3-0.3,1-0.3,1.5,0
	c0.3,0.3,0.3,1,0,1.5l-9.6,9.6c-0.3,0.3-1,0.3-1.5,0L36.7,10l-17,17C19.3,27.2,18.9,27.4,18.8,27.4z"/>
<path d="M52.5,10.7c-0.5,0-1-0.5-1-1V6.4h-3.3c-0.5,0-1-0.5-1-1c0-0.5,0.5-1,1-1h4.3c0.5,0,1,0.5,1,1v4.3
	C53.7,10.2,53.2,10.7,52.5,10.7z"/>
<path d="M91.2,65.6H9.5c-0.5,0-1-0.5-1-1s0.5-1,1-1h81.7c0.5,0,1,0.5,1,1S91.9,65.6,91.2,65.6z"/>
<path d="M85.9,10.7c-2.9,0-5.3-2.4-5.3-5.3C80.5,2.4,83,0,85.9,0c2.9,0,5.3,2.4,5.3,5.3C91.2,8.3,88.8,10.7,85.9,10.7z M85.9,2.1
	c-1.7,0-3.3,1.4-3.3,3.3c0,1.9,1.4,3.3,3.3,3.3c1.9,0,3.3-1.4,3.3-3.3C89.2,3.4,87.6,2.1,85.9,2.1z"/>
<path d="M22.4,10.7c-2.4,0-4.3-1.9-4.3-4.3c0-2.4,1.9-4.3,4.3-4.3c2.4,0,4.3,1.9,4.3,4.3C26.7,8.8,24.8,10.7,22.4,10.7z M22.4,4.1
	c-1.2,0-2.2,1-2.2,2.2c0,1.2,1,2.2,2.2,2.2c1.2,0,2.2-1,2.2-2.2C24.6,5.2,23.6,4.1,22.4,4.1z"/>
<path d="M84.9,60.1H70.9c-0.5,0-1-0.5-1-1c0-0.5,0.5-1,1-1h13.9c0.5,0,1,0.5,1,1C85.9,59.5,85.4,60.1,84.9,60.1z"/>
<path d="M84.9,55.8H70.9c-0.5,0-1-0.5-1-1c0-0.5,0.5-1,1-1h13.9c0.5,0,1,0.5,1,1C85.9,55.2,85.4,55.8,84.9,55.8z"/>
<path d="M84.9,51.5H70.9c-0.5,0-1-0.5-1-1c0-0.5,0.5-1,1-1h13.9c0.5,0,1,0.5,1,1C85.9,50.9,85.4,51.5,84.9,51.5z"/>
<path d="M28.9,60.1H15c-0.5,0-1-0.5-1-1c0-0.5,0.5-1,1-1h13.9c0.5,0,1,0.5,1,1C30,59.5,29.4,60.1,28.9,60.1z"/>
<path d="M28.9,55.8H15c-0.5,0-1-0.5-1-1c0-0.5,0.5-1,1-1h13.9c0.5,0,1,0.5,1,1C30,55.2,29.4,55.8,28.9,55.8z"/>
<path d="M28.9,51.5H15c-0.5,0-1-0.5-1-1c0-0.5,0.5-1,1-1h13.9c0.5,0,1,0.5,1,1C30,50.9,29.4,51.5,28.9,51.5z"/>
<path d="M85.9,1c2.4,0,4.3,1.9,4.3,4.3c0,2.4-1.9,4.3-4.3,4.3c-2.4,0-4.3-1.9-4.3-4.3C81.6,2.9,83.5,1,85.9,1z"/>
<path d="M22.4,3.3c1.7,0,3.3,1.4,3.3,3.3c0,1.9-1.4,3.3-3.3,3.3c-1.9,0-3.3-1.4-3.3-3.3C19.1,4.6,20.5,3.3,22.4,3.3z"/>
<path d="M13.8,88.1c2.4,0,4.3,1.9,4.3,4.3c0,2.4-1.9,4.3-4.3,4.3c-2.4,0-4.3-1.9-4.3-4.3C9.5,90,11.5,88.1,13.8,88.1z"/>
<rect x="53.7" y="45.9" width="6.5" height="13.1"/>
<rect x="40.8" y="41.6" width="6.5" height="17.4"/>
<polygon points="66.6,37.3 66.6,59 60.1,59 60.1,45.9 60.1,31 60.1,26.7 66.6,26.7 66.6,31 "/>
<polygon points="53.7,45.9 53.7,59 47.2,59 47.2,41.6 47.2,37.5 53.7,37.5 "/>
<polygon points="40.8,41.6 40.8,59 34.3,59 34.3,37.3 34.3,34.2 40.8,34.2 "/>
<polygon points="91.2,64.4 91.2,70.9 86.7,70.9 57,70.9 9.5,70.9 9.5,64.4 "/>
<path d="M68.5,91.6c0.9,0.9,1.2,1.9,1.2,3.1c0,2.4-1.9,4.3-4.3,4.3H35.3c-1.2,0-2.2-0.5-3.1-1.2c-0.9-0.7-1.2-1.9-1.2-3.1
	c0-1.2,0.5-2.2,1.2-3.1c0.9-0.9,1.9-1.2,3.1-1.2c1.7,0,3.4-0.7,4.6-1.9c1.2-1.2,1.9-2.8,1.9-4.6H59c0,1.7,0.7,3.4,1.9,4.6
	c1.2,1.2,2.8,1.9,4.6,1.9C66.6,90.2,67.8,90.7,68.5,91.6z"/>
<path d="M98.3,7.6c0.9,0,1.5,0.7,1.5,1.5c0,0.9-0.7,1.5-1.5,1.5c-0.9,0-1.5-0.7-1.5-1.5C96.7,8.3,97.4,7.6,98.3,7.6z"/>
<path d="M95,88.1c0.9,0,1.5,0.7,1.5,1.5c0,0.9-0.7,1.5-1.5,1.5c-0.9,0-1.5-0.7-1.5-1.5C93.5,88.8,94.1,88.1,95,88.1z"/>
<path d="M77.8,88.1c0.9,0,1.5,0.7,1.5,1.5c0,0.9-0.7,1.5-1.5,1.5c-0.9,0-1.5-0.7-1.5-1.5C76.2,88.8,76.9,88.1,77.8,88.1z"/>
<path d="M73,2.1c0.9,0,1.5,0.7,1.5,1.5c0,0.9-0.7,1.5-1.5,1.5c-0.9,0-1.5-0.7-1.5-1.5C71.4,2.8,72.1,2.1,73,2.1z"/>
<path d="M52,75.9c0.3,0.3,0.7,0.9,0.7,1.5c0,0.5-0.2,1.2-0.7,1.5c-0.3,0.3-0.9,0.7-1.5,0.7c-1.2,0-2.2-1-2.2-2.2
	c0-0.5,0.2-1.2,0.7-1.5c0.5-0.3,0.9-0.7,1.5-0.7C51.1,75.2,51.5,75.4,52,75.9z"/>
<path d="M32.7,0c0.9,0,1.5,0.7,1.5,1.5c0,0.9-0.7,1.5-1.5,1.5c-0.9,0-1.5-0.7-1.5-1.5C31.2,0.7,31.9,0,32.7,0z"/>
<path d="M25.1,87.1c0.9,0,1.5,0.7,1.5,1.5c0,0.9-0.7,1.5-1.5,1.5c-0.9,0-1.5-0.7-1.5-1.5C23.6,87.8,24.3,87.1,25.1,87.1z"/>
<path d="M7.9,7.6c0.9,0,1.5,0.7,1.5,1.5c0,0.9-0.7,1.5-1.5,1.5c-0.9,0-1.5-0.7-1.5-1.5C6.4,8.3,7.1,7.6,7.9,7.6z"/>
<path d="M92.3,84.8H59c-0.5,0-1-0.5-1-1c0-0.5,0.5-1,1-1h33.2c2.4,0,4.5-2.1,4.5-4.5V20.5c0-2.4-2.1-4.5-4.5-4.5H66.6
	c-0.5,0-1-0.5-1-1c0-0.5,0.5-1,1-1h25.6c3.6,0,6.5,2.9,6.5,6.5v57.8C98.8,81.9,95.9,84.8,92.3,84.8z"/>
<path d="M41.8,84.8H8.6c-3.6,0-6.5-2.9-6.5-6.5V20.5c0-3.6,2.9-6.5,6.5-6.5h51.5c0.5,0,1,0.5,1,1c0,0.5-0.5,1-1,1H8.6
	c-2.4,0-4.5,2.1-4.5,4.5v57.8c0,2.4,2.1,4.5,4.5,4.5h33.2c0.5,0,1,0.5,1,1C42.9,84.3,42.3,84.8,41.8,84.8z"/>
<path d="M65.4,100H35.3c-1.4,0-2.8-0.5-3.8-1.5c-1-1-1.5-2.4-1.5-3.8c0-1.4,0.5-2.8,1.5-3.8c1-1,2.4-1.5,3.8-1.5
	c1.4,0,2.8-0.5,3.8-1.5c1-1,1.5-2.4,1.5-3.8c0-0.5,0.5-1,1-1h17.2c0.5,0,1,0.5,1,1c0,1.4,0.5,2.8,1.5,3.8c1,1,2.4,1.5,3.8,1.5
	c1.4,0,2.8,0.5,3.8,1.5c1,1,1.5,2.4,1.5,3.8C70.9,97.6,68.5,100,65.4,100z M42.9,84.8c-0.2,1.5-1,3.1-2.1,4.3
	c-1.4,1.4-3.3,2.2-5.3,2.2c-0.9,0-1.7,0.3-2.2,0.9c-0.7,0.7-0.9,1.4-0.9,2.2c0,0.9,0.3,1.7,0.9,2.2c0.7,0.7,1.4,0.9,2.2,0.9h30.1
	c1.7,0,3.3-1.4,3.3-3.3c0-0.9-0.3-1.7-0.9-2.2c-0.7-0.7-1.4-0.9-2.2-0.9c-2.1,0-4-0.9-5.3-2.2c-1.2-1.2-1.9-2.6-2.1-4.3H42.9V84.8z"
	/>
<path d="M91.2,71.9H9.5c-0.5,0-1-0.5-1-1V21.3c0-0.5,0.5-1,1-1h24.8c0.5,0,1,0.5,1,1c0,0.5-0.5,1-1,1H10.7v47.3h79.7V22.5H66.6
	c-0.5,0-1-0.5-1-1c0-0.5,0.5-1,1-1h24.8c0.5,0,1,0.5,1,1v49.6C92.4,71.4,91.9,71.9,91.2,71.9z"/>
<path d="M39.9,22.5h20c0.5,0,1-0.5,1-1c0-0.5-0.5-1-1-1h-20V22.5z"/>
<path d="M13.8,97.8c-2.9,0-5.3-2.4-5.3-5.3c0-2.9,2.4-5.3,5.3-5.3c2.9,0,5.3,2.4,5.3,5.3C19.3,95.3,16.9,97.8,13.8,97.8z M13.8,89.1
	c-1.7,0-3.3,1.4-3.3,3.3c0,1.9,1.4,3.3,3.3,3.3s3.3-1.4,3.3-3.3C17,90.5,15.7,89.1,13.8,89.1z"/>
<path d="M40.8,60.1h-6.5c-0.5,0-1-0.5-1-1V34.2c0-0.5,0.5-1,1-1h6.5c0.5,0,1,0.5,1,1v7.6c0,0.5-0.5,1-1,1c-0.5,0-1-0.5-1-1v-6.5
	h-4.3V58h5.3c0.5,0,1,0.5,1,1S41.3,60.1,40.8,60.1z"/>
<path d="M47.2,60.1h-6.5c-0.5,0-1-0.5-1-1V41.6c0-0.5,0.5-1,1-1h6.5c0.5,0,1,0.5,1,1c0,0.5-0.5,1-1,1h-5.3v15.1h5.3c0.5,0,1,0.5,1,1
	C48.2,59.5,47.9,60.1,47.2,60.1z"/>
<path d="M53.7,60.1h-6.5c-0.5,0-1-0.5-1-1V37.5c0-0.5,0.5-1,1-1h6.5c0.5,0,1,0.5,1,1v8.6c0,0.5-0.5,1-1,1s-1-0.5-1-1v-7.6h-4.3V58
	h5.3c0.5,0,1,0.5,1,1S54.2,60.1,53.7,60.1z"/>
<path d="M60.1,60.1h-6.5c-0.5,0-1-0.5-1-1V45.9c0-0.5,0.5-1,1-1h6.5c0.5,0,1,0.5,1,1s-0.5,1-1,1h-5.3v10.8h5.3c0.5,0,1,0.5,1,1
	C61.1,59.5,60.8,60.1,60.1,60.1z"/>
<path d="M66.6,60.1h-6.5c-0.5,0-1-0.5-1-1V26.7c0-0.5,0.5-1,1-1h6.5c0.5,0,1,0.5,1,1V59C67.6,59.5,67.1,60.1,66.6,60.1z M61.1,58
	h4.3V27.7h-4.3V58z"/>
<path d="M18.8,27.4c-0.3,0-0.5-0.2-0.7-0.3c-0.3-0.3-0.3-1,0-1.5L35.8,7.7c0.3-0.3,1-0.3,1.5,0l5.7,5.7L52,4.5c0.3-0.3,1-0.3,1.5,0
	c0.3,0.3,0.3,1,0,1.5l-9.6,9.6c-0.3,0.3-1,0.3-1.5,0L36.7,10l-17,17C19.3,27.2,18.9,27.4,18.8,27.4z"/>
<path d="M52.5,10.7c-0.5,0-1-0.5-1-1V6.4h-3.3c-0.5,0-1-0.5-1-1c0-0.5,0.5-1,1-1h4.3c0.5,0,1,0.5,1,1v4.3
	C53.7,10.2,53.2,10.7,52.5,10.7z"/>
<path d="M91.2,65.6H9.5c-0.5,0-1-0.5-1-1s0.5-1,1-1h81.7c0.5,0,1,0.5,1,1S91.9,65.6,91.2,65.6z"/>
<path d="M85.9,10.7c-2.9,0-5.3-2.4-5.3-5.3C80.5,2.4,83,0,85.9,0c2.9,0,5.3,2.4,5.3,5.3C91.2,8.3,88.8,10.7,85.9,10.7z M85.9,2.1
	c-1.7,0-3.3,1.4-3.3,3.3c0,1.9,1.4,3.3,3.3,3.3c1.9,0,3.3-1.4,3.3-3.3C89.2,3.4,87.6,2.1,85.9,2.1z"/>
<path d="M22.4,10.7c-2.4,0-4.3-1.9-4.3-4.3c0-2.4,1.9-4.3,4.3-4.3c2.4,0,4.3,1.9,4.3,4.3C26.7,8.8,24.8,10.7,22.4,10.7z M22.4,4.1
	c-1.2,0-2.2,1-2.2,2.2c0,1.2,1,2.2,2.2,2.2c1.2,0,2.2-1,2.2-2.2C24.6,5.2,23.6,4.1,22.4,4.1z"/>
<path d="M84.9,60.1H70.9c-0.5,0-1-0.5-1-1c0-0.5,0.5-1,1-1h13.9c0.5,0,1,0.5,1,1C85.9,59.5,85.4,60.1,84.9,60.1z"/>
<path d="M84.9,55.8H70.9c-0.5,0-1-0.5-1-1c0-0.5,0.5-1,1-1h13.9c0.5,0,1,0.5,1,1C85.9,55.2,85.4,55.8,84.9,55.8z"/>
<path d="M84.9,51.5H70.9c-0.5,0-1-0.5-1-1c0-0.5,0.5-1,1-1h13.9c0.5,0,1,0.5,1,1C85.9,50.9,85.4,51.5,84.9,51.5z"/>
<path d="M28.9,60.1H15c-0.5,0-1-0.5-1-1c0-0.5,0.5-1,1-1h13.9c0.5,0,1,0.5,1,1C30,59.5,29.4,60.1,28.9,60.1z"/>
<path d="M28.9,55.8H15c-0.5,0-1-0.5-1-1c0-0.5,0.5-1,1-1h13.9c0.5,0,1,0.5,1,1C30,55.2,29.4,55.8,28.9,55.8z"/>
<path d="M28.9,51.5H15c-0.5,0-1-0.5-1-1c0-0.5,0.5-1,1-1h13.9c0.5,0,1,0.5,1,1C30,50.9,29.4,51.5,28.9,51.5z"/>
</svg>
