<?xml version="1.0" encoding="utf-8"?>
<!-- Generator: Adobe Illustrator 26.0.2, SVG Export Plug-In . SVG Version: 6.00 Build 0)  -->
<svg version="1.1" id="Layer_1" xmlns="http://www.w3.org/2000/svg" xmlns:xlink="http://www.w3.org/1999/xlink" x="0px" y="0px"
	 width="101.896px" height="99.99px" viewBox="0 0 101.9 100" style="enable-background:new 0 0 101.9 100;" xml:space="preserve">
<style type="text/css">
	.st0{display:none;opacity:0.3;}
	.st1{display:inline;fill:none;stroke:#000333;stroke-width:3;}
	.st2{display:inline;}
	.st3{fill:none;stroke:#000333;stroke-width:3;}
	.st4{display:inline;fill:#FFFFFF;stroke:#000333;stroke-width:3;}
	.st5{fill:#FFFFFF;stroke:#000333;stroke-width:3;}
</style>
<g class="st0">
	<path class="st1" d="M38.6,34c0.2,4.2,0.2,3.8-0.3,8.6c-0.7,6.7-2,12.8-3.7,17.9c4.4,1.5,8.7,5.9,10.9,11.8c1,2.7,1.5,5.3,1.5,7.8
		h3.2V80"/>
	<path class="st1" d="M51.7,80v0.2h3.2c0-2.5,0.5-5.2,1.5-7.8c2.3-6,6.5-10.3,10.9-11.8c-1.7-5.1-3-11.2-3.7-17.9
		c-0.5-4.8-0.6-4.4-0.3-8.6"/>
	<polyline class="st1" points="38.2,0 38.2,26.7 63.7,26.7 63.7,0 	"/>
	<rect x="37.2" y="26.2" class="st1" width="27.6" height="8"/>
	<path class="st1" d="M95.6,53.9c0,24.6-20,40.6-44.6,40.6c-24.6,0-44.6-16-44.6-40.6"/>
	<line class="st1" x1="9.8" y1="94.2" x2="92.1" y2="94.2"/>
	<g class="st2">
		<rect x="1.5" y="45.5" class="st3" width="8.6" height="8.6"/>
		<rect x="91.8" y="45.5" class="st3" width="8.6" height="8.6"/>
	</g>
	<rect x="46.6" y="89.9" class="st4" width="8.6" height="8.6"/>
	<g class="st2">
		<rect x="1.9" y="89.9" class="st5" width="8.6" height="8.6"/>
		<rect x="91.4" y="89.9" class="st5" width="8.6" height="8.6"/>
	</g>
	<line class="st1" x1="50.9" y1="80.3" x2="50.9" y2="54.8"/>
	<circle class="st1" cx="50.9" cy="51.8" r="2.8"/>
</g>
<g>
	<g>
		<path d="M58.2,78.2c-2.5,0-4.5,2-4.5,4.5c0,0.8,0.2,1.6,0.6,2.3c0.8,1.4,2.3,2.2,3.9,2.2c2.5,0,4.5-2,4.5-4.5c0-1-0.3-1.9-0.9-2.7
			C61.1,78.9,59.7,78.2,58.2,78.2z"/>
		<path d="M21.9,21.4c-2.5,0-4.5,2-4.5,4.5c0,0.9,0.2,1.7,0.7,2.4c0.8,1.3,2.3,2.1,3.8,2.1c2.5,0,4.5-2,4.5-4.5
			c0-0.9-0.2-1.7-0.7-2.4C24.9,22.2,23.4,21.4,21.9,21.4z"/>
		<path d="M31,60.2c0,6.9,5.6,12.5,12.5,12.5s12.5-5.6,12.5-12.5c0-6.9-5.6-12.5-12.5-12.5S31,53.3,31,60.2z M46.9,60.2
			c0,1.9-1.5,3.4-3.4,3.4c-1.9,0-3.4-1.5-3.4-3.4c0-1.9,1.5-3.4,3.4-3.4C45.3,56.8,46.9,58.4,46.9,60.2z"/>
		<rect x="92.3" y="72.7" width="9.1" height="3.2"/>
		<rect x="92.3" y="66.8" width="9.1" height="3.6"/>
		<circle cx="43.5" cy="60.2" r="1.1"/>
		<polygon points="101.4,39.5 101.4,32.1 93.9,39.5 		"/>
		<rect x="92.3" y="12.3" width="9.1" height="9.1"/>
		<path d="M92.3,50.9H82.1c-3.2-13.2-12.9-23.8-25.6-28.2l-4.6,10.4c8.6,2.7,15.5,9.4,18.5,17.9c0.1,0,0.3-0.1,0.4-0.1h1.1
			c-0.6,0-1.1,0.5-1.1,1.1c0,0.6,0.5,1.1,1.1,1.1H71c0.6,2.3,0.9,4.6,0.9,7.1c0,7.2-2.7,14.1-7.6,19.3c0.5,1,0.8,2.1,0.8,3.2
			c0,3.8-3.1,6.8-6.8,6.8c-2.1,0-4-0.9-5.3-2.5c-3,1.1-6.2,1.6-9.5,1.6c-15.7,0-28.4-12.7-28.4-28.4c0-15.7,12.7-28.4,28.4-28.4
			c2.1,0,4.2,0.2,6.2,0.7L54.3,22c-3.5-1-7.1-1.5-10.9-1.5c-5.3,0-10.4,1-15.2,3c0,0,0,0,0,0.1c0,0,0,0.1,0,0.1
			c0,0.1,0.1,0.2,0.1,0.4c0,0,0,0,0,0.1c0,0.1,0.1,0.3,0.1,0.4c0,0,0,0.1,0,0.1c0,0.1,0,0.3,0.1,0.4c0,0,0,0,0,0c0,0.1,0,0.3,0,0.4
			c0,0,0,0.1,0,0.1c0,0.1,0,0.3,0,0.4c0,3.8-3.1,6.8-6.8,6.8c-0.1,0-0.3,0-0.4,0c0,0-0.1,0-0.1,0c-0.1,0-0.2,0-0.3,0
			c0,0-0.1,0-0.1,0c-0.1,0-0.2,0-0.3,0c0,0-0.1,0-0.1,0c-0.1,0-0.2,0-0.3-0.1c0,0,0,0-0.1,0c-0.1,0-0.3-0.1-0.4-0.1c0,0-0.1,0-0.1,0
			c-0.1,0-0.2-0.1-0.3-0.1c0,0-0.1,0-0.1-0.1c-0.1,0-0.2-0.1-0.2-0.1c0,0-0.1,0-0.1-0.1c-0.1,0-0.2-0.1-0.3-0.1c0,0-0.1,0-0.1,0
			c-0.1-0.1-0.2-0.1-0.3-0.2c0,0,0,0-0.1,0c-0.1-0.1-0.2-0.1-0.3-0.2c0,0-0.1-0.1-0.1-0.1c-0.1-0.1-0.1-0.1-0.2-0.2
			c0,0-0.1-0.1-0.1-0.1c-0.1-0.1-0.1-0.1-0.2-0.2c0,0-0.1-0.1-0.1-0.1c-0.1-0.1-0.2-0.2-0.3-0.3C8.5,38.2,3.7,48.9,3.7,60.2
			c0,21.9,17.8,39.8,39.8,39.8c21.9,0,39.8-17.9,39.8-39.8c0-2.4-0.2-4.8-0.6-7.1h9.7v4.5h9.1v-9.1h-9.1V50.9z"/>
		<polygon points="92.3,30.4 92.3,38 99.8,30.4 		"/>
		<path d="M49.7,34.9c-2-0.5-4.1-0.8-6.3-0.8c-14.4,0-26.1,11.7-26.1,26.1c0,14.4,11.7,26.1,26.1,26.1c2.9,0,5.7-0.5,8.3-1.4
			c0,0,0,0,0,0c-0.1-0.2-0.1-0.3-0.2-0.5c0,0,0-0.1,0-0.1c0-0.1-0.1-0.2-0.1-0.4c0-0.1,0-0.1,0-0.2c0-0.1,0-0.2,0-0.4
			c0-0.1,0-0.1,0-0.2c0-0.2,0-0.4,0-0.5c0-3.8,3.1-6.8,6.8-6.8c0.1,0,0.2,0,0.4,0c0,0,0.1,0,0.1,0c0.1,0,0.2,0,0.3,0
			c0,0,0.1,0,0.1,0c0.1,0,0.2,0,0.3,0c0,0,0.1,0,0.1,0c0.1,0,0.2,0,0.4,0.1c0,0,0,0,0.1,0c0.1,0,0.2,0.1,0.3,0.1c0,0,0.1,0,0.1,0
			c0.1,0,0.2,0.1,0.2,0.1c0,0,0.1,0,0.1,0c0.1,0,0.2,0.1,0.3,0.1c0,0,0.1,0,0.1,0c0.1,0,0.2,0.1,0.3,0.2c0,0,0,0,0.1,0
			c0.1,0,0.2,0.1,0.2,0.1c0,0,0.1,0,0.1,0.1c0.1,0,0.1,0.1,0.2,0.1c0,0,0.1,0,0.1,0.1c0.1,0.1,0.2,0.1,0.2,0.2c0,0,0,0,0.1,0
			c0.1,0.1,0.2,0.1,0.3,0.2c0,0,0.1,0,0.1,0.1c0,0,0.1,0.1,0.1,0.1c4.3-4.8,6.7-11,6.7-17.5c0-12-8.2-22.2-19.3-25.2c0,0,0,0,0,0
			c-0.1,0-0.2,0-0.3,0c0.1,0,0.2,0,0.3,0c0.4,0,0.9-0.3,1-0.7l8.8-19.8h24.3c0.6,0,1.1-0.5,1.1-1.1c0-0.6-0.5-1.1-1.1-1.1h-25
			c-0.4,0-0.9,0.3-1,0.7l-9.1,20.5C49,34,49.2,34.6,49.7,34.9z M58.2,60.2c0,8.1-6.6,14.8-14.8,14.8c-8.1,0-14.8-6.6-14.8-14.8
			c0-8.1,6.6-14.8,14.8-14.8C51.6,45.5,58.2,52.1,58.2,60.2z"/>
		<path d="M1.7,2.3h22.7c0.6,0,1.1-0.5,1.1-1.1C25.5,0.5,25,0,24.4,0H1.7C1,0,0.5,0.5,0.5,1.1C0.5,1.8,1,2.3,1.7,2.3z"/>
		<path d="M48.2,8c0-0.6-0.5-1.1-1.1-1.1H1.7C1,6.8,0.5,7.3,0.5,8c0,0.6,0.5,1.1,1.1,1.1h45.4C47.7,9.1,48.2,8.6,48.2,8z"/>
	</g>
</g>
</svg>
