<?xml version="1.0" encoding="utf-8"?>
<!-- Generator: Adobe Illustrator 26.0.2, SVG Export Plug-In . SVG Version: 6.00 Build 0)  -->
<svg version="1.1" id="Layer_1" xmlns="http://www.w3.org/2000/svg" xmlns:xlink="http://www.w3.org/1999/xlink" x="0px" y="0px"
	 viewBox="0 0 101.9 100" style="enable-background:new 0 0 101.9 100;" xml:space="preserve">
<style type="text/css">
	.st0{display:none;opacity:0.3;}
	.st1{display:inline;fill:none;stroke:#000333;stroke-width:2.9997;stroke-miterlimit:3.9996;}
	.st2{display:inline;}
	.st3{fill:none;stroke:#000333;stroke-width:2.9997;stroke-miterlimit:3.9996;}
	.st4{display:inline;fill:#FFFFFF;stroke:#000333;stroke-width:2.9997;stroke-miterlimit:3.9996;}
	.st5{fill:#FFFFFF;stroke:#000333;stroke-width:2.9997;stroke-miterlimit:3.9996;}
</style>
<g class="st0">
	<path class="st1" d="M38.6,34c0.2,4.2,0.2,3.8-0.3,8.6c-0.7,6.7-2,12.8-3.7,17.9c4.4,1.5,8.7,5.9,10.9,11.8c1,2.7,1.5,5.3,1.5,7.8
		h3.2V80"/>
	<path class="st1" d="M51.7,80v0.2h3.2c0-2.5,0.5-5.2,1.5-7.8c2.3-6,6.5-10.3,10.9-11.8c-1.7-5.1-3-11.2-3.7-17.9
		c-0.5-4.8-0.6-4.4-0.3-8.6"/>
	<polyline class="st1" points="38.2,0 38.2,26.7 63.7,26.7 63.7,0 	"/>
	<rect x="37.2" y="26.2" class="st1" width="27.6" height="8"/>
	<path class="st1" d="M95.6,53.9c0,24.6-20,40.6-44.6,40.6S6.4,78.5,6.4,53.9"/>
	<line class="st1" x1="9.8" y1="94.2" x2="92.1" y2="94.2"/>
	<g class="st2">
		<rect x="1.5" y="45.5" class="st3" width="8.6" height="8.6"/>
		<rect x="91.8" y="45.5" class="st3" width="8.6" height="8.6"/>
	</g>
	<rect x="46.6" y="89.9" class="st4" width="8.6" height="8.6"/>
	<g class="st2">
		<rect x="1.9" y="89.9" class="st5" width="8.6" height="8.6"/>
		<rect x="91.4" y="89.9" class="st5" width="8.6" height="8.6"/>
	</g>
	<line class="st1" x1="50.9" y1="80.3" x2="50.9" y2="54.8"/>
	<circle class="st1" cx="50.9" cy="51.8" r="2.8"/>
</g>
<g>
	<path d="M35.5,47.9c0-0.8,0.7-1.5,2.5-1.5c1.2,0,2.4,0.3,3.6,1l0.9-2.3C41.4,44.4,39.7,44,38,44c-3.7,0-5.5,1.9-5.5,4.1
		c0,4.9,7.7,3.2,7.7,5.7c0,0.8-0.7,1.4-2.5,1.4c-1.6,0-3.2-0.6-4.3-1.4l-1,2.3c1.2,0.9,3.3,1.5,5.4,1.5c3.8,0,5.6-1.9,5.6-4.1
		C43.2,48.7,35.5,50.3,35.5,47.9z"/>
	<polygon points="55.4,54.9 48.3,54.9 48.3,51.9 54.4,51.9 54.4,49.5 48.3,49.5 48.3,46.6 55.2,46.6 55.2,44.2 45.3,44.2 45.3,57.4 
		55.4,57.4 	"/>
	<path d="M64.2,57.6c4.1,0,7.2-2.9,7.2-6.8S68.3,44,64.2,44C60,44,57,46.9,57,50.8S60.1,57.6,64.2,57.6z M64.2,46.6
		c2.3,0,4.1,1.7,4.1,4.2c0,2.5-1.8,4.2-4.1,4.2c-2.3,0-4.1-1.7-4.1-4.2C60.1,48.3,61.9,46.6,64.2,46.6z"/>
	<path d="M101.9,48.5h-6.3C94.8,25,75.8,6,52.3,5.3V-1h-3.1v6.3C25.9,6.3,7.1,25.1,6.3,48.5H0v3.1h6.3c0.4,10.2,4.1,19.5,10.1,26.8
		L4.1,88.9c-1.3,1.1-1.6,2.9-0.6,3.8l5.8,5.8c1,1,2.7,0.7,3.8-0.6l10.6-12.4c7.1,5.5,15.9,8.8,25.4,9.2v6.3h3.1v-6.3
		C75.8,94,94.8,75.1,95.6,51.6h6.3V48.5z M52.3,91.6v-6.2h-3.1v6.2c-8.8-0.4-16.8-3.5-23.4-8.4l7.5-8.8c5,3.7,11.2,5.9,17.9,5.9
		c16.7,0,30.2-13.6,30.2-30.2c0-16.7-13.6-30.2-30.2-30.2C34.5,19.8,21,33.3,21,50c0,7.1,2.5,13.7,6.6,18.9l-8.8,7.5
		c-5.6-6.8-9-15.4-9.4-24.8h6.2v-3.1H9.4c0.8-21.6,18.2-39.1,39.8-40v6.1h3.1V8.5c21.8,0.7,39.4,18.2,40.2,40h-6.2v3.1h6.2
		C91.7,73.4,74.1,90.9,52.3,91.6z M26.4,50c0-13.7,11.1-24.8,24.8-24.8S76,36.3,76,50S64.9,74.8,51.2,74.8S26.4,63.7,26.4,50z"/>
</g>
</svg>
