<?xml version="1.0" encoding="utf-8"?>
<!-- Generator: Adobe Illustrator 26.0.2, SVG Export Plug-In . SVG Version: 6.00 Build 0)  -->
<svg version="1.1" id="Layer_1" xmlns="http://www.w3.org/2000/svg" xmlns:xlink="http://www.w3.org/1999/xlink" x="0px" y="0px"
	 width="101.896px" height="99.99px" viewBox="0 0 101.9 100" style="enable-background:new 0 0 101.9 100;" xml:space="preserve">
<style type="text/css">
	.st0{display:none;opacity:0.3;}
	.st1{display:inline;fill:none;stroke:#000333;stroke-width:3;}
	.st2{display:inline;}
	.st3{fill:none;stroke:#000333;stroke-width:3;}
	.st4{display:inline;fill:#FFFFFF;stroke:#000333;stroke-width:3;}
	.st5{fill:#FFFFFF;stroke:#000333;stroke-width:3;}
	.st6{fill-rule:evenodd;clip-rule:evenodd;}
</style>
<g class="st0">
	<path class="st1" d="M38.6,34c0.2,4.2,0.2,3.8-0.3,8.6c-0.7,6.7-2,12.8-3.7,17.9c4.4,1.5,8.7,5.9,10.9,11.8c1,2.7,1.5,5.3,1.5,7.8
		h3.2V80"/>
	<path class="st1" d="M51.7,80v0.2h3.2c0-2.5,0.5-5.2,1.5-7.8c2.3-6,6.5-10.3,10.9-11.8c-1.7-5.1-3-11.2-3.7-17.9
		c-0.5-4.8-0.6-4.4-0.3-8.6"/>
	<polyline class="st1" points="38.2,0 38.2,26.7 63.7,26.7 63.7,0 	"/>
	<rect x="37.2" y="26.2" class="st1" width="27.6" height="8"/>
	<path class="st1" d="M95.6,53.9c0,24.6-20,40.6-44.6,40.6c-24.6,0-44.6-16-44.6-40.6"/>
	<line class="st1" x1="9.8" y1="94.2" x2="92.1" y2="94.2"/>
	<g class="st2">
		<rect x="1.5" y="45.5" class="st3" width="8.6" height="8.6"/>
		<rect x="91.8" y="45.5" class="st3" width="8.6" height="8.6"/>
	</g>
	<rect x="46.6" y="89.9" class="st4" width="8.6" height="8.6"/>
	<g class="st2">
		<rect x="1.9" y="89.9" class="st5" width="8.6" height="8.6"/>
		<rect x="91.4" y="89.9" class="st5" width="8.6" height="8.6"/>
	</g>
	<line class="st1" x1="50.9" y1="80.3" x2="50.9" y2="54.8"/>
	<circle class="st1" cx="50.9" cy="51.8" r="2.8"/>
</g>
<g id="Layer_x5F_1">
	<g id="_239182616">
		<g>
			<g>
				<path id="_239183504" class="st6" d="M93.1,93.9H8.8C3.9,93.9,0,90,0,85.2V26.7c0-0.8,0.7-1.5,1.5-1.5h98.9
					c0.8,0,1.5,0.7,1.5,1.5v58.5C101.9,90,98,93.9,93.1,93.9L93.1,93.9z M3,28.1v57C3,88.4,5.6,91,8.8,91h84.4
					c3.2,0,5.8-2.6,5.8-5.8v-57H3L3,28.1z"/>
			</g>
			<g>
				<path id="_239183360" class="st6" d="M100.4,28.1H46.6c-0.5,0-1-0.3-1.2-0.7c-0.3-0.4-0.3-1-0.1-1.4l7.3-16.7c0,0,0-0.1,0.1-0.1
					c0.2-0.5,0.8-0.9,1.4-0.9h39.3c4.8,0,8.8,3.9,8.8,8.8v9.5C101.9,27.5,101.2,28.1,100.4,28.1L100.4,28.1z M48.8,25.2h50.1v-8
					c0-3.2-2.6-5.8-5.8-5.8H54.9L48.8,25.2L48.8,25.2z"/>
			</g>
			<g>
				<path id="_239183024" class="st6" d="M46.6,28.1H1.5c-0.8,0-1.5-0.7-1.5-1.5V16.4C0,10.7,4.7,6.1,10.4,6.1h42
					c1.1,0,2.1,0.6,2.7,1.5c0.5,0.9,0.6,1.9,0.1,3l-7.3,16.7C47.7,27.8,47.2,28.1,46.6,28.1L46.6,28.1z M3,25.2h42.6l6.9-15.8
					c0-0.1,0.1-0.2,0.1-0.3c0-0.1-0.1-0.1-0.1-0.1h-42C6.3,9,3,12.4,3,16.4L3,25.2L3,25.2z"/>
			</g>
			<g>
				<path id="_239182904" class="st6" d="M18.3,22.9c-3.2,0-5.8-2.6-5.8-5.8c0-3.2,2.6-5.8,5.8-5.8c3.2,0,5.8,2.6,5.8,5.8
					C24,20.3,21.4,22.9,18.3,22.9z M18.3,14.3c-1.5,0-2.8,1.3-2.8,2.8s1.3,2.8,2.8,2.8s2.8-1.3,2.8-2.8
					C21.1,15.6,19.8,14.3,18.3,14.3z"/>
			</g>
			<g>
				<path id="_239182856" class="st6" d="M37.3,22.9c-3.2,0-5.8-2.6-5.8-5.8c0-3.2,2.6-5.8,5.8-5.8s5.8,2.6,5.8,5.8
					C43,20.3,40.4,22.9,37.3,22.9z M37.3,14.3c-1.5,0-2.8,1.3-2.8,2.8s1.3,2.8,2.8,2.8s2.8-1.3,2.8-2.8C40,15.6,38.8,14.3,37.3,14.3
					z"/>
			</g>
			<g>
				<path id="_239183432" class="st6" d="M87,22.9H59.9c-2.6,0-4.7-2.1-4.7-4.7c0-2.6,2.1-4.7,4.7-4.7H87c2.6,0,4.7,2.1,4.7,4.7
					C91.7,20.8,89.6,22.9,87,22.9L87,22.9z M59.9,16.6c-0.9,0-1.7,0.8-1.7,1.7S59,20,59.9,20H87c0.9,0,1.7-0.8,1.7-1.7
					S88,16.6,87,16.6H59.9z"/>
			</g>
			<g>
				<g>
					<path id="_239182928" class="st6" d="M34.8,81.3c-10.5,0-19-8.5-19-19V39.3c0-0.8,0.7-1.5,1.5-1.5c0.8,0,1.5,0.7,1.5,1.5v22.9
						c0,8.8,7.2,16,16,16s16-7.2,16-16V39.3c0-0.8,0.7-1.5,1.5-1.5c0.8,0,1.5,0.7,1.5,1.5v22.9C53.8,72.7,45.3,81.3,34.8,81.3
						L34.8,81.3z"/>
				</g>
				<g>
					<g>
						<path id="_239183096" class="st6" d="M72.3,81.3c-0.8,0-1.5-0.7-1.5-1.5V39.3c0-0.8,0.7-1.5,1.5-1.5s1.5,0.7,1.5,1.5v40.4
							C73.8,80.6,73.1,81.3,72.3,81.3z"/>
					</g>
					<g>
						<path id="_239182952" class="st6" d="M84.6,40.8H59.9c-0.8,0-1.5-0.7-1.5-1.5s0.7-1.5,1.5-1.5h24.7c0.8,0,1.5,0.7,1.5,1.5
							C86.1,40.2,85.4,40.8,84.6,40.8z"/>
					</g>
					<g>
						<path id="_239182880" class="st6" d="M84.6,81.3H59.9c-0.8,0-1.5-0.7-1.5-1.5s0.7-1.5,1.5-1.5h24.7c0.8,0,1.5,0.7,1.5,1.5
							C86.1,80.6,85.4,81.3,84.6,81.3z"/>
					</g>
				</g>
			</g>
		</g>
	</g>
</g>
</svg>
