<?xml version="1.0" encoding="utf-8"?>
<!-- Generator: Adobe Illustrator 26.0.2, SVG Export Plug-In . SVG Version: 6.00 Build 0)  -->
<svg version="1.1" id="Layer_1" xmlns="http://www.w3.org/2000/svg" xmlns:xlink="http://www.w3.org/1999/xlink" x="0px" y="0px"
	 width="101.896px" height="99.99px" viewBox="0 0 101.9 100" style="enable-background:new 0 0 101.9 100;" xml:space="preserve">
<style type="text/css">
	.st0{display:none;opacity:0.3;}
	.st1{display:inline;fill:none;stroke:#000333;stroke-width:3;}
	.st2{display:inline;}
	.st3{fill:none;stroke:#000333;stroke-width:3;}
	.st4{display:inline;fill:#FFFFFF;stroke:#000333;stroke-width:3;}
	.st5{fill:#FFFFFF;stroke:#000333;stroke-width:3;}
</style>
<g class="st0">
	<path class="st1" d="M38.6,34c0.2,4.2,0.2,3.8-0.3,8.6c-0.7,6.7-2,12.8-3.7,17.9c4.4,1.5,8.7,5.9,10.9,11.8c1,2.7,1.5,5.3,1.5,7.8
		h3.2V80"/>
	<path class="st1" d="M51.7,80v0.2h3.2c0-2.5,0.5-5.2,1.5-7.8c2.3-6,6.5-10.3,10.9-11.8c-1.7-5.1-3-11.2-3.7-17.9
		c-0.5-4.8-0.6-4.4-0.3-8.6"/>
	<polyline class="st1" points="38.2,0 38.2,26.7 63.7,26.7 63.7,0 	"/>
	<rect x="37.2" y="26.2" class="st1" width="27.6" height="8"/>
	<path class="st1" d="M95.6,53.9c0,24.6-20,40.6-44.6,40.6c-24.6,0-44.6-16-44.6-40.6"/>
	<line class="st1" x1="9.8" y1="94.2" x2="92.1" y2="94.2"/>
	<g class="st2">
		<rect x="1.5" y="45.5" class="st3" width="8.6" height="8.6"/>
		<rect x="91.8" y="45.5" class="st3" width="8.6" height="8.6"/>
	</g>
	<rect x="46.6" y="89.9" class="st4" width="8.6" height="8.6"/>
	<g class="st2">
		<rect x="1.9" y="89.9" class="st5" width="8.6" height="8.6"/>
		<rect x="91.4" y="89.9" class="st5" width="8.6" height="8.6"/>
	</g>
	<line class="st1" x1="50.9" y1="80.3" x2="50.9" y2="54.8"/>
	<circle class="st1" cx="50.9" cy="51.8" r="2.8"/>
</g>
<g id="B584__x2C_Film__x2C_Film__x2C_Media">
	<g>
		<path d="M51.9,91.6c9.8,0,17.7-8,17.7-17.7c0-9.7-8-17.7-17.7-17.7c-9.7,0-17.7,7.8-17.7,17.7C34.2,83.8,42.2,91.6,51.9,91.6z
			 M51.9,60.5c7.5,0,13.5,6,13.5,13.5c0,7.5-6,13.5-13.5,13.5c-7.5,0-13.5-6-13.5-13.5C38.4,66.5,44.4,60.5,51.9,60.5z"/>
		<path d="M47.7,83.1L62.2,76c1.5-0.8,1.5-3,0-3.7L47.7,65c-1.3-0.7-3,0.3-3,1.8v14.3C44.7,82.8,46.2,83.8,47.7,83.1z M48.9,70.1
			l7.7,3.8l-7.7,3.8V70.1z"/>
		<path d="M99.2,22.8c1-0.2,1.7-1,1.7-2V2.1c0-1.3-1.2-2.3-2.5-2L2.5,16.6c-1,0.2-1.7,1-1.7,2c0,1.8,0,77.1,0,79.2
			c0,1.2,1,2.2,2.2,2.2h95.9c1.2,0,2.2-1,2.2-2.2c0-1.8,0-59.2,0-60.6c0-1.2-1-2.2-2.2-2.2H32.2v-0.8L99.2,22.8z M5,20.4l91.8-16
			v14.5L32,30.1v-3.2c0-1.2-1-2.2-2.2-2.2H15.2c-1.2,0-2.2,1-2.2,2.2v6.5l-8.3,1.5V20.4H5z M17.5,29.1H28c0,4.5,0,8,0,12.5H17.5
			C17.5,36.9,17.5,33.3,17.5,29.1z M96.7,95.8H5V52.1h91.8V95.8z M96.7,39.6v8.3H5v-8.3h8.3v4.2c0,1.2,1,2.2,2.2,2.2h14.7
			c1.2,0,2.2-1,2.2-2.2v-4.2H96.7z"/>
	</g>
</g>
</svg>
