<?xml version="1.0" encoding="utf-8"?>
<!-- Generator: Adobe Illustrator 26.0.2, SVG Export Plug-In . SVG Version: 6.00 Build 0)  -->
<svg version="1.1" id="Layer_1" xmlns="http://www.w3.org/2000/svg" xmlns:xlink="http://www.w3.org/1999/xlink" x="0px" y="0px"
	 viewBox="0 0 190 190" style="enable-background:new 0 0 190 190;" xml:space="preserve">
<style type="text/css">
	.st0{fill:#FFFFFF;}
</style>
<g>
	<path d="M74.6,163.6c-3.3,5.3-10.2,4.5-14.2-1.6c-2.4,5.5-7.1,6.4-11.1,3.5c-0.5,1.3-2.2,1.7-4.7,0.9c0-7.5,0-14.9,0-22.5
		c1.5,0,2.8,0,4.4,0c0,3.4,0,6.7,0,10.3c2.3-1.5,4.4-2.1,6.8-1.3c2.4,0.8,3.7,2.7,4.4,4.8c1.1-1.3,2.1-2.7,3.4-3.8
		c3.2-2.6,10.6-1.7,11.4,4.8c0.1,1.2-0.1,1.7-1.4,1.7c-2.7-0.1-5.5,0-8.2,0c-0.3,2.1,1.8,3.6,4,2.9c0.2-0.1,0.4-0.1,0.5-0.2
		C71.6,161.3,73.1,162.7,74.6,163.6z M52.2,156.6c-1.9,0-3.2,1.5-3.2,3.4c0,1.8,1.4,3.1,3.3,3.1c2,0,3.3-1.3,3.3-3.3
		C55.5,158,54.1,156.6,52.2,156.6z M65.3,157.8c1.7,0,3.4,0,5.1,0c-0.3-1.5-1.1-2.1-2.4-2.2C66.5,155.6,65.7,156.3,65.3,157.8z"/>
	<path d="M3,166.8c0-7.4,0-14.6,0-22c3.9,0.2,7.9-0.7,11.6,1.4c4.5,2.5,6.5,7.4,5.3,12.5c-1.1,4.6-5.3,7.9-10.4,8.2
		C7.3,166.8,5.2,166.8,3,166.8z M7.7,155.7C7.7,155.7,7.7,155.7,7.7,155.7c0,1.8,0,3.7,0,5.5c0,0.9,0.4,1.1,1.2,1.1
		c3.3,0,6.1-2.9,6.1-6.5c0-3.8-2.7-6.7-6.1-6.7c-0.8,0-1.1,0.2-1.1,1C7.8,152,7.7,153.8,7.7,155.7z"/>
	<path d="M119.1,153.1c-3.1,5.9-5.9,11.4-8.8,16.9c-0.2,0.3-0.6,0.6-1,0.6c-1.5,0.1-2.9,0-4.6,0c0.9-1.8,1.8-3.3,2.5-5
		c0.2-0.6,0.2-1.5-0.1-2c-1.3-2.5-2.7-4.9-4-7.2c-1.1,0.1-2.1,0.2-3.4,0.3c0,1.7-0.1,3.4,0.1,5.1c0.1,0.5,1.2,0.9,1.8,1.4
		c0.1-0.1,0.2-0.2,0.4-0.4c0.3,1.1,0.7,2.1,1,3.2c-3.3,2.4-7.3,0.8-7.8-3.1c-0.2-2,0-4,0-6.1c-0.8-0.1-1.3-0.2-2-0.3
		c0-1.1,0-2.1,0-3.3c0.6-0.1,1.2-0.2,1.9-0.3c0-1.6,0-3.2,0-4.9c1.5,0,2.9,0,4.5,0c0,1.1,0.1,2.3,0,3.5c-0.1,1.4,0.4,1.7,1.7,1.6
		c1.2-0.1,2.5,0.1,3.7,0c1.2-0.1,1.8,0.4,2.3,1.4c0.9,1.8,2,3.6,3.1,5.8c0.8-1.6,1.5-2.9,2-4.2c0.7-2.4,2.1-3.5,4.7-3
		C117.6,153.2,118.2,153.1,119.1,153.1z"/>
	<path d="M140.8,161.2c0.7,1.3,1.3,2.6,2,3.9c-3,2-6.2,2.5-9.6,1.8c-8.6-1.8-12.2-11.2-6.9-18c3.4-4.3,10.5-5.8,15.4-3.2
		c0.9,0.5,1.1,0.9,0.6,1.8c-0.5,0.9-1,1.9-1.4,2.9c-5.6-1.6-8.8-1-10.7,1.9c-1.6,2.4-1.5,5.4,0.4,7.7
		C132.7,162.5,136.1,163,140.8,161.2z"/>
	<path d="M18.8,135.6c0-7.6,0-15,0-22.6c1.5,0,2.9,0,4.5,0c0,3.4,0,6.8,0,10c1.5-0.5,2.8-1.2,4.2-1.2c3.7-0.2,5.8,2,5.8,5.7
		c0,2.6,0,5.3,0,8.1c-1.5,0-3,0-4.6,0c0-1.7,0-3.5,0-5.2c0-0.8,0-1.6,0-2.4c-0.1-1.7-1.1-2.7-2.5-2.7c-1.5,0-2.7,1.2-2.8,2.8
		c-0.1,2,0,4,0,6c0,0.5,0,0.9-0.1,1.5C21.8,135.6,20.4,135.6,18.8,135.6z"/>
	<path d="M37.7,154.1c0.7-1.1,2.3-1.4,4.7-0.8c0,4.4,0,8.8,0,13.3c-1.4,0-2.7,0-4.2,0c-0.1-0.3-0.3-0.7-0.4-1.1
		c-4,2.3-7,2.1-9.4-0.6c-2.3-2.6-2.4-6.8-0.2-9.6C30.5,152.4,33.5,152,37.7,154.1z M34.8,156.6c-1.9,0-3.2,1.4-3.2,3.4
		c0,1.9,1.3,3.1,3.2,3.2c1.9,0,3.4-1.4,3.3-3.3C38.1,158,36.7,156.6,34.8,156.6z"/>
	<path d="M11.5,135.7c-1.4,0-2.7,0-4,0c-1,0-0.9-0.7-0.9-1.3c0-4.9-0.1-9.8,0-14.8c0-1.3-0.4-1.7-1.7-1.6c-1.1,0.1-2.2,0-3.4,0
		c0-1.5,0-2.8,0-4.2c0.4,0,0.8-0.1,1.2-0.1c4.3,0,8.5,0,12.8,0c1.1,0,1.4,0.3,1.4,1.4c-0.1,0.9,0,1.8,0,3c-1.2,0-2.4,0.1-3.6,0
		c-1.3-0.1-1.7,0.3-1.7,1.6c0.1,4.9,0,9.7,0,14.6C11.5,134.6,11.5,135,11.5,135.7z"/>
	<path d="M153.4,153.2c1.4,0,2.8,0,4.6,0c-0.2,3.5-0.3,6.9-0.7,10.3c-0.1,1.4-1.3,2.4-2.6,2.9c-2.8,1-5.7,1-8.5,0
		c-1.6-0.6-2.7-1.8-2.8-3.4c-0.2-3.2,0-6.5,0-9.8c1.3,0,2.7,0,4.3,0c0,2,0,3.9,0,5.8c0,0.8,0,1.5,0.1,2.3c0.3,1.5,1.2,2.2,2.7,2.2
		c1.5,0,2.5-0.8,2.6-2.4c0.2-2.3,0.1-4.6,0.2-6.9C153.4,153.8,153.4,153.6,153.4,153.2z"/>
	<path d="M49.6,132.5c-1.6,3-5.8,4.3-9.3,3.1c-3.3-1.2-5.5-4.5-4.9-7.7c0.6-3.6,3.7-6.2,7.2-6.3c4.3,0,7,2.2,7.5,6.2
		c0.1,1.1-0.1,1.7-1.4,1.6c-2.3-0.1-4.5,0-6.8,0c-0.5,0-1,0-1.5,0c-0.1,1.9,1.1,3.1,3,3c0.6,0,1.3,0,1.6-0.4
		C46.8,130.3,48.1,131.7,49.6,132.5z M40.4,126.7c1.8,0,3.4,0,5.2,0c-0.4-1.6-1.4-2.1-2.8-2.1C41.6,124.7,40.6,125.2,40.4,126.7z"/>
	<path d="M184.6,163.6c-1.7,3.2-6.2,4.5-9.7,3c-3.5-1.5-5.3-5.2-4.2-8.7c1.1-3.6,5.1-5.8,8.8-5c3.8,0.8,5.9,3.7,5.4,7.6
		c-3.2,0-6.3,0-9.5,0c-0.2,2.2,1.8,3.6,4.1,2.9c0.2-0.1,0.4-0.1,0.5-0.2c0.6-0.3,1.1-0.7,1.7-1.1c0.1-0.1,0.3,0,0.4,0.1
		C182.9,162.6,183.8,163.1,184.6,163.6z M180.4,157.8c-0.4-1.6-1.2-2.3-2.6-2.2c-1.3,0.1-2.3,0.6-2.5,2.2
		C177.1,157.8,178.7,157.8,180.4,157.8z"/>
	<path d="M75.1,165.3c0.7-1.1,1.2-2,1.8-2.9c1,0.4,1.9,1,2.8,1.2c0.6,0.1,1.4-0.4,2.1-0.7c-0.4-0.5-0.8-1.1-1.3-1.4
		c-0.8-0.5-1.8-0.8-2.6-1.3c-2.4-1.6-2.4-5,0.1-6.5c2.7-1.6,5.5-1.2,8.4,0c-0.5,1-0.9,2-1.3,2.8c-1.1-0.2-2-0.6-3-0.6
		c-0.5,0-1,0.5-1.5,0.7c0.4,0.4,0.6,0.9,1.1,1.1c1,0.5,2.1,0.8,3.1,1.3c1.6,0.9,2.2,2.3,2,4.1c-0.2,1.7-1.1,2.9-2.8,3.4
		C80.8,167.5,77.9,167.4,75.1,165.3z"/>
	<path d="M163.9,155.2c2.3-2.3,4.4-3.2,7.2-1.7c-0.6,1.2-1.1,2.5-1.7,3.6c-0.2,0-0.3,0.1-0.4,0c-3.5-1.2-5-0.1-5.1,3.6
		c0,1.9,0,3.9,0,6c-1.4,0-2.5,0.1-3.7,0c-0.3,0-0.8-0.6-0.8-1c0-3.9,0-7.8,0-11.6c0-0.8,0.3-1.1,1.1-1c0.4,0,0.8,0,1.1,0
		C162.9,153.1,164.4,152.5,163.9,155.2z"/>
	<path d="M25.6,166.7c-1.5,0-2.9,0-4.4,0c0-4.5,0-8.9,0-13.6c1.2,0,2.5,0,3.7,0c0.2,0,0.6,0.5,0.6,0.8
		C25.6,158.1,25.6,162.3,25.6,166.7z"/>
	<path d="M87.7,153.1c1.3,0,2.5,0,3.7,0c0.3,0,0.7,0.5,0.7,0.8c0,4.2,0,8.3,0,12.7c-1.5,0-2.9,0-4.4,0
		C87.7,162.1,87.7,157.7,87.7,153.1z"/>
	<path d="M89.9,150.1c-1.5-0.1-2.6-1.2-2.6-2.8c0-1.5,1.3-2.7,2.8-2.7c1.4,0.1,2.7,1.4,2.6,2.9C92.6,149,91.4,150.1,89.9,150.1z"/>
	<path d="M26.1,147.4c0,1.6-1.1,2.7-2.7,2.7c-1.5,0-2.7-1.2-2.7-2.7c0-1.5,1.3-2.7,2.7-2.7C24.9,144.6,26.1,145.8,26.1,147.4z"/>
	<path class="st0" d="M52.2,156.6c1.9,0,3.3,1.3,3.3,3.3c0,2-1.3,3.3-3.3,3.3c-1.9,0-3.3-1.3-3.3-3.1
		C49,158.1,50.3,156.7,52.2,156.6z"/>
	<path class="st0" d="M65.3,157.8c0.4-1.5,1.2-2.2,2.6-2.2c1.4,0,2.1,0.7,2.4,2.2C68.7,157.8,67,157.8,65.3,157.8z"/>
	<path class="st0" d="M7.7,155.7c0-1.8,0-3.7,0-5.5c0-0.8,0.4-1,1.1-1c3.4,0,6.1,2.9,6.1,6.7c0,3.7-2.7,6.5-6.1,6.5
		c-0.8,0-1.2-0.2-1.2-1.1C7.7,159.4,7.7,157.5,7.7,155.7C7.7,155.7,7.7,155.7,7.7,155.7z"/>
	<path class="st0" d="M34.8,156.6c1.9,0,3.3,1.4,3.3,3.3c0,1.9-1.4,3.3-3.3,3.3c-1.9,0-3.2-1.3-3.2-3.2
		C31.5,158.1,32.9,156.7,34.8,156.6z"/>
	<path class="st0" d="M40.4,126.7c0.2-1.6,1.2-2,2.4-2.1c1.3-0.1,2.4,0.4,2.8,2.1C43.8,126.7,42.2,126.7,40.4,126.7z"/>
	<path class="st0" d="M180.4,157.8c-1.7,0-3.4,0-5.1,0c0.2-1.6,1.2-2.1,2.5-2.2C179.2,155.6,180.1,156.3,180.4,157.8z"/>
	<g>
		<g>
			<path d="M6.4,177.5H5.9l-2.4-3.8h0c0,0.1,0,0.2,0,0.3c0,0.1,0,0.2,0,0.4c0,0.1,0,0.2,0,0.4v2.7H3v-4.4h0.5l2.4,3.7h0
				c0-0.1,0-0.2,0-0.3c0-0.1,0-0.2,0-0.4c0-0.1,0-0.2,0-0.4v-2.7h0.4V177.5z"/>
			<path d="M11.6,174.2v3.3h-0.4l-0.1-0.6h0c-0.1,0.1-0.1,0.2-0.2,0.3c-0.1,0.1-0.2,0.2-0.4,0.2c-0.1,0.1-0.3,0.1-0.5,0.1
				c-0.2,0-0.5,0-0.6-0.1c-0.2-0.1-0.3-0.2-0.4-0.4c-0.1-0.2-0.1-0.4-0.1-0.7v-2.2h0.5v2.1c0,0.3,0.1,0.5,0.2,0.7
				c0.1,0.1,0.3,0.2,0.6,0.2c0.2,0,0.4,0,0.6-0.1c0.1-0.1,0.3-0.2,0.3-0.4c0.1-0.2,0.1-0.4,0.1-0.7v-1.8H11.6z"/>
			<path d="M15.1,177.2c0.1,0,0.2,0,0.3,0c0.1,0,0.2,0,0.2-0.1v0.4c-0.1,0-0.2,0-0.3,0.1s-0.2,0-0.3,0c-0.2,0-0.3,0-0.5-0.1
				c-0.1-0.1-0.2-0.2-0.3-0.3c-0.1-0.1-0.1-0.3-0.1-0.6v-2h-0.5v-0.2l0.5-0.2l0.1-0.8h0.3v0.8h1v0.4h-1v2c0,0.2,0,0.4,0.1,0.5
				C14.8,177.1,15,177.2,15.1,177.2z"/>
			<path d="M19.2,174.2c0.1,0,0.1,0,0.2,0c0.1,0,0.1,0,0.2,0l-0.1,0.4c-0.1,0-0.1,0-0.2,0s-0.1,0-0.2,0c-0.1,0-0.3,0-0.4,0.1
				c-0.1,0.1-0.2,0.1-0.3,0.2c-0.1,0.1-0.1,0.2-0.2,0.4s-0.1,0.3-0.1,0.5v1.8h-0.5v-3.3h0.4l0.1,0.6h0c0.1-0.1,0.1-0.2,0.2-0.3
				c0.1-0.1,0.2-0.2,0.3-0.2C18.9,174.2,19.1,174.2,19.2,174.2z"/>
			<path d="M21.9,173c0.1,0,0.2,0,0.2,0.1c0.1,0,0.1,0.1,0.1,0.2c0,0.1,0,0.2-0.1,0.2c-0.1,0-0.1,0.1-0.2,0.1c-0.1,0-0.2,0-0.2-0.1
				c0,0-0.1-0.1-0.1-0.2c0-0.1,0-0.2,0.1-0.2S21.8,173,21.9,173z M22.1,174.2v3.3h-0.5v-3.3H22.1z"/>
			<path d="M25.6,177.2c0.1,0,0.2,0,0.3,0c0.1,0,0.2,0,0.2-0.1v0.4c-0.1,0-0.2,0-0.3,0.1s-0.2,0-0.3,0c-0.2,0-0.3,0-0.5-0.1
				c-0.1-0.1-0.2-0.2-0.3-0.3c-0.1-0.1-0.1-0.3-0.1-0.6v-2h-0.5v-0.2l0.5-0.2l0.1-0.8h0.3v0.8h1v0.4h-1v2c0,0.2,0,0.4,0.1,0.5
				C25.3,177.1,25.5,177.2,25.6,177.2z"/>
			<path d="M28.5,173c0.1,0,0.2,0,0.2,0.1c0.1,0,0.1,0.1,0.1,0.2c0,0.1,0,0.2-0.1,0.2c-0.1,0-0.1,0.1-0.2,0.1c-0.1,0-0.2,0-0.2-0.1
				c0,0-0.1-0.1-0.1-0.2c0-0.1,0-0.2,0.1-0.2S28.4,173,28.5,173z M28.7,174.2v3.3h-0.5v-3.3H28.7z"/>
			<path d="M34,175.9c0,0.3,0,0.5-0.1,0.7c-0.1,0.2-0.2,0.4-0.3,0.5s-0.3,0.3-0.5,0.3c-0.2,0.1-0.4,0.1-0.7,0.1
				c-0.2,0-0.4,0-0.6-0.1c-0.2-0.1-0.3-0.2-0.5-0.3s-0.2-0.3-0.3-0.5c-0.1-0.2-0.1-0.4-0.1-0.7c0-0.4,0.1-0.7,0.2-0.9
				c0.1-0.3,0.3-0.4,0.5-0.6c0.2-0.1,0.5-0.2,0.8-0.2c0.3,0,0.6,0.1,0.8,0.2c0.2,0.1,0.4,0.3,0.5,0.6C33.9,175.2,34,175.5,34,175.9z
				 M31.5,175.9c0,0.3,0,0.5,0.1,0.7c0.1,0.2,0.2,0.4,0.3,0.5c0.2,0.1,0.3,0.2,0.6,0.2c0.2,0,0.4-0.1,0.6-0.2
				c0.2-0.1,0.3-0.3,0.3-0.5c0.1-0.2,0.1-0.4,0.1-0.7c0-0.3,0-0.5-0.1-0.7c-0.1-0.2-0.2-0.4-0.3-0.5s-0.3-0.2-0.6-0.2
				c-0.3,0-0.6,0.1-0.8,0.3C31.6,175.1,31.5,175.4,31.5,175.9z"/>
			<path d="M37.8,174.1c0.4,0,0.7,0.1,0.9,0.3c0.2,0.2,0.3,0.5,0.3,0.9v2.2h-0.4v-2.1c0-0.3-0.1-0.5-0.2-0.7s-0.3-0.2-0.6-0.2
				c-0.3,0-0.6,0.1-0.8,0.3c-0.2,0.2-0.2,0.5-0.2,0.9v1.7h-0.5v-3.3h0.4l0.1,0.6h0c0.1-0.1,0.2-0.2,0.3-0.3c0.1-0.1,0.2-0.2,0.4-0.2
				C37.5,174.2,37.7,174.1,37.8,174.1z"/>
			<path d="M42.7,174.1c0.4,0,0.7,0.1,0.9,0.3s0.3,0.5,0.3,0.9v2.2h-0.3l-0.1-0.5h0c-0.1,0.1-0.2,0.2-0.3,0.3s-0.2,0.2-0.4,0.2
				s-0.3,0.1-0.5,0.1c-0.2,0-0.4,0-0.5-0.1c-0.2-0.1-0.3-0.2-0.4-0.3c-0.1-0.1-0.1-0.3-0.1-0.5c0-0.3,0.1-0.6,0.4-0.7
				c0.3-0.2,0.6-0.3,1.2-0.3l0.6,0v-0.2c0-0.3-0.1-0.5-0.2-0.6c-0.1-0.1-0.3-0.2-0.5-0.2c-0.2,0-0.3,0-0.5,0.1
				c-0.2,0-0.3,0.1-0.5,0.2l-0.1-0.3c0.2-0.1,0.3-0.1,0.5-0.2C42.3,174.2,42.5,174.1,42.7,174.1z M43.4,175.9l-0.5,0
				c-0.4,0-0.7,0.1-0.9,0.2c-0.2,0.1-0.3,0.3-0.3,0.5c0,0.2,0.1,0.3,0.2,0.4s0.3,0.1,0.5,0.1c0.3,0,0.6-0.1,0.8-0.3s0.3-0.4,0.3-0.8
				V175.9z"/>
			<path d="M46.7,177.5h-0.5v-4.7h0.5V177.5z"/>
			<path d="M54.6,176.4c0,0.3-0.1,0.5-0.2,0.7c-0.1,0.2-0.3,0.3-0.5,0.4c-0.2,0.1-0.5,0.1-0.8,0.1c-0.2,0-0.3,0-0.5,0
				s-0.3,0-0.4-0.1c-0.1,0-0.2-0.1-0.3-0.1v-0.4c0.2,0.1,0.4,0.1,0.6,0.2c0.2,0.1,0.4,0.1,0.7,0.1c0.2,0,0.4,0,0.5-0.1
				c0.2-0.1,0.3-0.2,0.4-0.3c0.1-0.1,0.1-0.3,0.1-0.4c0-0.2,0-0.3-0.1-0.4c-0.1-0.1-0.2-0.2-0.4-0.3c-0.2-0.1-0.4-0.2-0.6-0.2
				c-0.2-0.1-0.3-0.1-0.5-0.2c-0.1-0.1-0.3-0.1-0.4-0.2c-0.1-0.1-0.2-0.2-0.2-0.3c-0.1-0.1-0.1-0.3-0.1-0.5c0-0.3,0.1-0.5,0.2-0.6
				c0.1-0.2,0.3-0.3,0.5-0.4c0.2-0.1,0.5-0.1,0.7-0.1c0.2,0,0.4,0,0.6,0.1c0.2,0,0.4,0.1,0.6,0.2l-0.2,0.4c-0.2-0.1-0.4-0.1-0.5-0.2
				c-0.2,0-0.3-0.1-0.5-0.1c-0.2,0-0.4,0-0.5,0.1c-0.1,0.1-0.3,0.1-0.3,0.2s-0.1,0.2-0.1,0.4c0,0.2,0,0.3,0.1,0.4s0.2,0.2,0.3,0.3
				c0.2,0.1,0.3,0.2,0.6,0.2c0.3,0.1,0.5,0.2,0.6,0.3c0.2,0.1,0.3,0.2,0.4,0.4S54.6,176.1,54.6,176.4z"/>
			<path d="M59.6,175.9c0,0.3,0,0.5-0.1,0.7c-0.1,0.2-0.2,0.4-0.3,0.5s-0.3,0.3-0.5,0.3c-0.2,0.1-0.4,0.1-0.7,0.1
				c-0.2,0-0.4,0-0.6-0.1c-0.2-0.1-0.3-0.2-0.5-0.3s-0.2-0.3-0.3-0.5c-0.1-0.2-0.1-0.4-0.1-0.7c0-0.4,0.1-0.7,0.2-0.9
				c0.1-0.3,0.3-0.4,0.5-0.6c0.2-0.1,0.5-0.2,0.8-0.2c0.3,0,0.6,0.1,0.8,0.2c0.2,0.1,0.4,0.3,0.5,0.6
				C59.6,175.2,59.6,175.5,59.6,175.9z M57.1,175.9c0,0.3,0,0.5,0.1,0.7c0.1,0.2,0.2,0.4,0.3,0.5c0.2,0.1,0.3,0.2,0.6,0.2
				c0.2,0,0.4-0.1,0.6-0.2c0.2-0.1,0.3-0.3,0.3-0.5c0.1-0.2,0.1-0.4,0.1-0.7c0-0.3,0-0.5-0.1-0.7c-0.1-0.2-0.2-0.4-0.3-0.5
				s-0.3-0.2-0.6-0.2c-0.3,0-0.6,0.1-0.8,0.3C57.2,175.1,57.1,175.4,57.1,175.9z"/>
			<path d="M62.4,177.5h-0.5v-4.7h0.5V177.5z"/>
			<path d="M67.5,174.2v3.3h-0.4l-0.1-0.6h0c-0.1,0.1-0.1,0.2-0.2,0.3c-0.1,0.1-0.2,0.2-0.4,0.2c-0.1,0.1-0.3,0.1-0.5,0.1
				c-0.2,0-0.5,0-0.6-0.1c-0.2-0.1-0.3-0.2-0.4-0.4c-0.1-0.2-0.1-0.4-0.1-0.7v-2.2h0.5v2.1c0,0.3,0.1,0.5,0.2,0.7
				c0.1,0.1,0.3,0.2,0.6,0.2c0.2,0,0.4,0,0.6-0.1c0.1-0.1,0.3-0.2,0.3-0.4c0.1-0.2,0.1-0.4,0.1-0.7v-1.8H67.5z"/>
			<path d="M71,177.2c0.1,0,0.2,0,0.3,0c0.1,0,0.2,0,0.2-0.1v0.4c-0.1,0-0.2,0-0.3,0.1s-0.2,0-0.3,0c-0.2,0-0.3,0-0.5-0.1
				c-0.1-0.1-0.2-0.2-0.3-0.3c-0.1-0.1-0.1-0.3-0.1-0.6v-2h-0.5v-0.2l0.5-0.2l0.1-0.8h0.3v0.8h1v0.4h-1v2c0,0.2,0,0.4,0.1,0.5
				C70.7,177.1,70.9,177.2,71,177.2z"/>
			<path d="M73.9,173c0.1,0,0.2,0,0.2,0.1c0.1,0,0.1,0.1,0.1,0.2c0,0.1,0,0.2-0.1,0.2c-0.1,0-0.1,0.1-0.2,0.1c-0.1,0-0.2,0-0.2-0.1
				c0,0-0.1-0.1-0.1-0.2c0-0.1,0-0.2,0.1-0.2S73.8,173,73.9,173z M74.1,174.2v3.3h-0.5v-3.3H74.1z"/>
			<path d="M79.4,175.9c0,0.3,0,0.5-0.1,0.7c-0.1,0.2-0.2,0.4-0.3,0.5s-0.3,0.3-0.5,0.3c-0.2,0.1-0.4,0.1-0.7,0.1
				c-0.2,0-0.4,0-0.6-0.1c-0.2-0.1-0.3-0.2-0.5-0.3s-0.2-0.3-0.3-0.5c-0.1-0.2-0.1-0.4-0.1-0.7c0-0.4,0.1-0.7,0.2-0.9
				c0.1-0.3,0.3-0.4,0.5-0.6c0.2-0.1,0.5-0.2,0.8-0.2c0.3,0,0.6,0.1,0.8,0.2c0.2,0.1,0.4,0.3,0.5,0.6
				C79.3,175.2,79.4,175.5,79.4,175.9z M76.9,175.9c0,0.3,0,0.5,0.1,0.7c0.1,0.2,0.2,0.4,0.3,0.5c0.2,0.1,0.3,0.2,0.6,0.2
				c0.2,0,0.4-0.1,0.6-0.2c0.2-0.1,0.3-0.3,0.3-0.5c0.1-0.2,0.1-0.4,0.1-0.7c0-0.3,0-0.5-0.1-0.7c-0.1-0.2-0.2-0.4-0.3-0.5
				s-0.3-0.2-0.6-0.2c-0.3,0-0.6,0.1-0.8,0.3C77,175.1,76.9,175.4,76.9,175.9z"/>
			<path d="M83.2,174.1c0.4,0,0.7,0.1,0.9,0.3c0.2,0.2,0.3,0.5,0.3,0.9v2.2H84v-2.1c0-0.3-0.1-0.5-0.2-0.7s-0.3-0.2-0.6-0.2
				c-0.3,0-0.6,0.1-0.8,0.3c-0.2,0.2-0.2,0.5-0.2,0.9v1.7h-0.5v-3.3h0.4l0.1,0.6h0c0.1-0.1,0.2-0.2,0.3-0.3c0.1-0.1,0.2-0.2,0.4-0.2
				C82.9,174.2,83.1,174.1,83.2,174.1z"/>
			<path d="M89,176.6c0,0.2,0,0.4-0.1,0.5s-0.2,0.2-0.4,0.3c-0.2,0.1-0.4,0.1-0.7,0.1c-0.2,0-0.4,0-0.6-0.1c-0.2,0-0.3-0.1-0.5-0.2
				v-0.4c0.2,0.1,0.3,0.1,0.5,0.2s0.4,0.1,0.6,0.1c0.3,0,0.5-0.1,0.7-0.2c0.1-0.1,0.2-0.2,0.2-0.4c0-0.1,0-0.2-0.1-0.3
				s-0.2-0.1-0.3-0.2s-0.3-0.1-0.5-0.2c-0.2-0.1-0.4-0.2-0.5-0.2s-0.3-0.2-0.4-0.3c-0.1-0.1-0.1-0.3-0.1-0.5c0-0.3,0.1-0.5,0.3-0.6
				c0.2-0.1,0.5-0.2,0.9-0.2c0.2,0,0.4,0,0.6,0.1s0.3,0.1,0.5,0.2l-0.1,0.4c-0.1-0.1-0.3-0.1-0.4-0.2s-0.3-0.1-0.5-0.1
				c-0.2,0-0.4,0-0.6,0.1c-0.1,0.1-0.2,0.2-0.2,0.4c0,0.1,0,0.2,0.1,0.3c0.1,0.1,0.2,0.1,0.3,0.2c0.1,0.1,0.3,0.1,0.5,0.2
				c0.2,0.1,0.4,0.1,0.5,0.2c0.2,0.1,0.3,0.2,0.4,0.3C88.9,176.3,89,176.4,89,176.6z"/>
			<path d="M95.4,174.6h-0.8v2.9h-0.5v-2.9h-0.6v-0.2l0.6-0.1v-0.3c0-0.2,0-0.5,0.1-0.6c0.1-0.2,0.2-0.3,0.3-0.4
				c0.1-0.1,0.3-0.1,0.6-0.1c0.1,0,0.2,0,0.3,0c0.1,0,0.2,0,0.3,0.1l-0.1,0.4c-0.1,0-0.1,0-0.2-0.1c-0.1,0-0.2,0-0.3,0
				c-0.2,0-0.4,0.1-0.4,0.2c-0.1,0.1-0.1,0.3-0.1,0.5v0.3h0.8V174.6z"/>
			<path d="M100.3,175.9c0,0.3,0,0.5-0.1,0.7c-0.1,0.2-0.2,0.4-0.3,0.5s-0.3,0.3-0.5,0.3c-0.2,0.1-0.4,0.1-0.7,0.1
				c-0.2,0-0.4,0-0.6-0.1c-0.2-0.1-0.3-0.2-0.5-0.3s-0.2-0.3-0.3-0.5c-0.1-0.2-0.1-0.4-0.1-0.7c0-0.4,0.1-0.7,0.2-0.9
				c0.1-0.3,0.3-0.4,0.5-0.6s0.5-0.2,0.8-0.2c0.3,0,0.6,0.1,0.8,0.2c0.2,0.1,0.4,0.3,0.5,0.6C100.2,175.2,100.3,175.5,100.3,175.9z
				 M97.7,175.9c0,0.3,0,0.5,0.1,0.7s0.2,0.4,0.3,0.5c0.2,0.1,0.3,0.2,0.6,0.2c0.2,0,0.4-0.1,0.6-0.2c0.2-0.1,0.3-0.3,0.3-0.5
				s0.1-0.4,0.1-0.7c0-0.3,0-0.5-0.1-0.7c-0.1-0.2-0.2-0.4-0.3-0.5c-0.1-0.1-0.3-0.2-0.6-0.2c-0.3,0-0.6,0.1-0.8,0.3
				C97.8,175.1,97.7,175.4,97.7,175.9z"/>
			<path d="M104,174.2c0.1,0,0.1,0,0.2,0s0.1,0,0.2,0l-0.1,0.4c-0.1,0-0.1,0-0.2,0s-0.1,0-0.2,0c-0.1,0-0.3,0-0.4,0.1
				c-0.1,0.1-0.2,0.1-0.3,0.2s-0.1,0.2-0.2,0.4c0,0.1-0.1,0.3-0.1,0.5v1.8h-0.5v-3.3h0.4l0.1,0.6h0c0.1-0.1,0.1-0.2,0.2-0.3
				s0.2-0.2,0.3-0.2C103.7,174.2,103.8,174.2,104,174.2z"/>
			<path d="M112.8,175.3c0,0.5-0.1,0.9-0.3,1.2c-0.2,0.3-0.4,0.6-0.8,0.8c-0.3,0.2-0.8,0.3-1.3,0.3h-1.1v-4.4h1.2
				c0.5,0,0.9,0.1,1.2,0.2c0.3,0.2,0.6,0.4,0.7,0.7S112.8,174.8,112.8,175.3z M112.3,175.3c0-0.4-0.1-0.7-0.2-1
				c-0.1-0.3-0.3-0.5-0.6-0.6c-0.3-0.1-0.6-0.2-1-0.2h-0.7v3.6h0.6c0.6,0,1.1-0.2,1.4-0.5C112.2,176.3,112.3,175.9,112.3,175.3z"/>
			<path d="M115.4,173c0.1,0,0.2,0,0.2,0.1c0.1,0,0.1,0.1,0.1,0.2c0,0.1,0,0.2-0.1,0.2c-0.1,0-0.1,0.1-0.2,0.1c-0.1,0-0.2,0-0.2-0.1
				c0,0-0.1-0.1-0.1-0.2c0-0.1,0-0.2,0.1-0.2C115.2,173,115.3,173,115.4,173z M115.6,174.2v3.3h-0.5v-3.3H115.6z"/>
			<path d="M119.3,174.1c0.4,0,0.7,0.1,0.9,0.3c0.2,0.2,0.3,0.5,0.3,0.9v2.2h-0.3L120,177h0c-0.1,0.1-0.2,0.2-0.3,0.3
				c-0.1,0.1-0.2,0.2-0.4,0.2c-0.1,0-0.3,0.1-0.5,0.1c-0.2,0-0.4,0-0.5-0.1c-0.2-0.1-0.3-0.2-0.4-0.3s-0.1-0.3-0.1-0.5
				c0-0.3,0.1-0.6,0.4-0.7c0.3-0.2,0.6-0.3,1.2-0.3l0.6,0v-0.2c0-0.3-0.1-0.5-0.2-0.6c-0.1-0.1-0.3-0.2-0.5-0.2
				c-0.2,0-0.3,0-0.5,0.1c-0.2,0-0.3,0.1-0.5,0.2l-0.1-0.3c0.2-0.1,0.3-0.1,0.5-0.2S119.1,174.1,119.3,174.1z M120,175.9l-0.5,0
				c-0.4,0-0.7,0.1-0.9,0.2c-0.2,0.1-0.3,0.3-0.3,0.5c0,0.2,0.1,0.3,0.2,0.4s0.3,0.1,0.5,0.1c0.3,0,0.6-0.1,0.8-0.3s0.3-0.4,0.3-0.8
				V175.9z"/>
			<path d="M123.3,172.8v1.3c0,0.1,0,0.2,0,0.4s0,0.2,0,0.3h0c0.1-0.2,0.2-0.3,0.4-0.5c0.2-0.1,0.4-0.2,0.7-0.2c0.4,0,0.7,0.1,1,0.4
				c0.2,0.3,0.3,0.7,0.3,1.3c0,0.4-0.1,0.7-0.2,0.9c-0.1,0.3-0.3,0.5-0.5,0.6c-0.2,0.1-0.5,0.2-0.8,0.2c-0.3,0-0.5-0.1-0.7-0.2
				c-0.2-0.1-0.3-0.2-0.4-0.4h0l-0.1,0.5h-0.3v-4.7H123.3z M124.3,174.5c-0.2,0-0.4,0-0.6,0.1s-0.2,0.2-0.3,0.4
				c-0.1,0.2-0.1,0.4-0.1,0.7v0.1c0,0.4,0.1,0.7,0.2,1c0.1,0.2,0.4,0.3,0.7,0.3c0.3,0,0.6-0.1,0.7-0.3c0.2-0.2,0.3-0.6,0.3-1
				c0-0.4-0.1-0.8-0.2-1C124.9,174.6,124.7,174.5,124.3,174.5z"/>
			<path d="M129.3,174.1c0.3,0,0.5,0.1,0.7,0.2c0.2,0.1,0.3,0.3,0.4,0.5c0.1,0.2,0.1,0.5,0.1,0.8v0.3h-2.3c0,0.4,0.1,0.7,0.3,0.9
				c0.2,0.2,0.5,0.3,0.8,0.3c0.2,0,0.4,0,0.6-0.1s0.3-0.1,0.5-0.2v0.4c-0.2,0.1-0.3,0.1-0.5,0.2s-0.4,0-0.6,0
				c-0.3,0-0.6-0.1-0.8-0.2c-0.2-0.1-0.4-0.3-0.5-0.6c-0.1-0.3-0.2-0.6-0.2-0.9c0-0.3,0.1-0.6,0.2-0.9c0.1-0.3,0.3-0.5,0.5-0.6
				S129,174.1,129.3,174.1z M129.3,174.5c-0.3,0-0.5,0.1-0.7,0.3c-0.2,0.2-0.3,0.5-0.3,0.8h1.9c0-0.2,0-0.4-0.1-0.6
				c-0.1-0.2-0.2-0.3-0.3-0.4S129.5,174.5,129.3,174.5z"/>
			<path d="M133.9,177.2c0.1,0,0.2,0,0.3,0c0.1,0,0.2,0,0.2-0.1v0.4c-0.1,0-0.2,0-0.3,0.1s-0.2,0-0.3,0c-0.2,0-0.3,0-0.5-0.1
				c-0.1-0.1-0.2-0.2-0.3-0.3c-0.1-0.1-0.1-0.3-0.1-0.6v-2h-0.5v-0.2l0.5-0.2l0.1-0.8h0.3v0.8h1v0.4h-1v2c0,0.2,0,0.4,0.1,0.5
				C133.6,177.1,133.8,177.2,133.9,177.2z"/>
			<path d="M137.8,174.1c0.3,0,0.5,0.1,0.7,0.2c0.2,0.1,0.3,0.3,0.4,0.5c0.1,0.2,0.1,0.5,0.1,0.8v0.3h-2.3c0,0.4,0.1,0.7,0.3,0.9
				c0.2,0.2,0.5,0.3,0.8,0.3c0.2,0,0.4,0,0.6-0.1s0.3-0.1,0.5-0.2v0.4c-0.2,0.1-0.3,0.1-0.5,0.2s-0.4,0-0.6,0
				c-0.3,0-0.6-0.1-0.8-0.2c-0.2-0.1-0.4-0.3-0.5-0.6c-0.1-0.3-0.2-0.6-0.2-0.9c0-0.3,0.1-0.6,0.2-0.9c0.1-0.3,0.3-0.5,0.5-0.6
				S137.5,174.1,137.8,174.1z M137.8,174.5c-0.3,0-0.5,0.1-0.7,0.3c-0.2,0.2-0.3,0.5-0.3,0.8h1.9c0-0.2,0-0.4-0.1-0.6
				c-0.1-0.2-0.2-0.3-0.3-0.4S138,174.5,137.8,174.5z"/>
			<path d="M143.6,176.6c0,0.2,0,0.4-0.1,0.5s-0.2,0.2-0.4,0.3c-0.2,0.1-0.4,0.1-0.7,0.1c-0.2,0-0.4,0-0.6-0.1
				c-0.2,0-0.3-0.1-0.5-0.2v-0.4c0.2,0.1,0.3,0.1,0.5,0.2s0.4,0.1,0.6,0.1c0.3,0,0.5-0.1,0.7-0.2c0.1-0.1,0.2-0.2,0.2-0.4
				c0-0.1,0-0.2-0.1-0.3c-0.1-0.1-0.2-0.1-0.3-0.2c-0.1-0.1-0.3-0.1-0.5-0.2c-0.2-0.1-0.4-0.2-0.5-0.2s-0.3-0.2-0.4-0.3
				c-0.1-0.1-0.1-0.3-0.1-0.5c0-0.3,0.1-0.5,0.3-0.6c0.2-0.1,0.5-0.2,0.9-0.2c0.2,0,0.4,0,0.6,0.1c0.2,0,0.3,0.1,0.5,0.2l-0.1,0.4
				c-0.1-0.1-0.3-0.1-0.4-0.2s-0.3-0.1-0.5-0.1c-0.2,0-0.4,0-0.6,0.1c-0.1,0.1-0.2,0.2-0.2,0.4c0,0.1,0,0.2,0.1,0.3
				c0.1,0.1,0.2,0.1,0.3,0.2c0.1,0.1,0.3,0.1,0.5,0.2c0.2,0.1,0.4,0.1,0.5,0.2c0.2,0.1,0.3,0.2,0.4,0.3
				C143.5,176.3,143.6,176.4,143.6,176.6z"/>
			<path d="M150,173c0.2,0,0.4,0,0.6,0.1c0.2,0.1,0.3,0.2,0.4,0.3s0.1,0.3,0.1,0.5c0,0.3-0.1,0.5-0.3,0.7s-0.4,0.3-0.7,0.5l1.3,1.3
				c0.1-0.1,0.2-0.3,0.3-0.5c0.1-0.2,0.1-0.4,0.2-0.6h0.5c-0.1,0.2-0.1,0.5-0.3,0.7c-0.1,0.2-0.2,0.4-0.4,0.6l0.8,0.8h-0.6l-0.5-0.5
				c-0.1,0.1-0.3,0.2-0.4,0.3c-0.1,0.1-0.3,0.2-0.5,0.2s-0.4,0.1-0.6,0.1c-0.3,0-0.5,0-0.8-0.1c-0.2-0.1-0.4-0.2-0.5-0.4
				c-0.1-0.2-0.2-0.4-0.2-0.6c0-0.2,0-0.4,0.1-0.6c0.1-0.2,0.2-0.3,0.3-0.4c0.2-0.1,0.3-0.2,0.5-0.3c-0.1-0.1-0.2-0.2-0.3-0.4
				s-0.2-0.2-0.2-0.3c0-0.1-0.1-0.2-0.1-0.4c0-0.2,0-0.4,0.1-0.5c0.1-0.1,0.2-0.3,0.4-0.3C149.6,173.1,149.8,173,150,173z
				 M149.7,175.3c-0.2,0.1-0.3,0.2-0.4,0.3c-0.1,0.1-0.2,0.2-0.3,0.3s-0.1,0.2-0.1,0.4c0,0.3,0.1,0.5,0.3,0.6
				c0.2,0.1,0.4,0.2,0.7,0.2c0.3,0,0.5,0,0.7-0.1c0.2-0.1,0.3-0.2,0.5-0.3L149.7,175.3z M150,173.4c-0.2,0-0.4,0.1-0.5,0.2
				c-0.1,0.1-0.2,0.3-0.2,0.4c0,0.2,0,0.3,0.1,0.4c0.1,0.1,0.2,0.3,0.4,0.4c0.3-0.1,0.5-0.3,0.6-0.4c0.1-0.1,0.2-0.3,0.2-0.5
				c0-0.2-0.1-0.3-0.2-0.4C150.3,173.5,150.2,173.4,150,173.4z"/>
			<path d="M161.2,175.3c0,0.3,0,0.6-0.1,0.9c-0.1,0.3-0.2,0.5-0.4,0.7c-0.2,0.2-0.4,0.4-0.6,0.5c-0.3,0.1-0.5,0.2-0.9,0.2
				c-0.3,0-0.6-0.1-0.9-0.2c-0.3-0.1-0.5-0.3-0.6-0.5c-0.2-0.2-0.3-0.4-0.4-0.7c-0.1-0.3-0.1-0.6-0.1-0.9c0-0.4,0.1-0.8,0.2-1.2
				s0.4-0.6,0.7-0.8s0.7-0.3,1.1-0.3c0.4,0,0.8,0.1,1.1,0.3c0.3,0.2,0.5,0.4,0.7,0.8C161.1,174.4,161.2,174.8,161.2,175.3z
				 M157.7,175.3c0,0.4,0.1,0.7,0.2,1c0.1,0.3,0.3,0.5,0.5,0.7s0.5,0.2,0.9,0.2c0.4,0,0.6-0.1,0.9-0.2c0.2-0.2,0.4-0.4,0.5-0.7
				c0.1-0.3,0.2-0.6,0.2-1c0-0.6-0.1-1-0.4-1.4c-0.2-0.3-0.6-0.5-1.1-0.5c-0.4,0-0.6,0.1-0.9,0.2c-0.2,0.2-0.4,0.4-0.5,0.7
				C157.8,174.6,157.7,174.9,157.7,175.3z"/>
			<path d="M164,172.8v1.3c0,0.1,0,0.2,0,0.4s0,0.2,0,0.3h0c0.1-0.2,0.2-0.3,0.4-0.5c0.2-0.1,0.4-0.2,0.7-0.2c0.4,0,0.7,0.1,1,0.4
				c0.2,0.3,0.3,0.7,0.3,1.3c0,0.4-0.1,0.7-0.2,0.9c-0.1,0.3-0.3,0.5-0.5,0.6c-0.2,0.1-0.5,0.2-0.8,0.2c-0.3,0-0.5-0.1-0.7-0.2
				c-0.2-0.1-0.3-0.2-0.4-0.4h0l-0.1,0.5h-0.3v-4.7H164z M165,174.5c-0.2,0-0.4,0-0.6,0.1s-0.2,0.2-0.3,0.4
				c-0.1,0.2-0.1,0.4-0.1,0.7v0.1c0,0.4,0.1,0.7,0.2,1c0.1,0.2,0.4,0.3,0.7,0.3c0.3,0,0.6-0.1,0.7-0.3c0.2-0.2,0.3-0.6,0.3-1
				c0-0.4-0.1-0.8-0.2-1C165.5,174.6,165.3,174.5,165,174.5z"/>
			<path d="M170,174.1c0.3,0,0.5,0.1,0.7,0.2c0.2,0.1,0.3,0.3,0.4,0.5c0.1,0.2,0.1,0.5,0.1,0.8v0.3H169c0,0.4,0.1,0.7,0.3,0.9
				c0.2,0.2,0.5,0.3,0.8,0.3c0.2,0,0.4,0,0.6-0.1s0.3-0.1,0.5-0.2v0.4c-0.2,0.1-0.3,0.1-0.5,0.2s-0.4,0-0.6,0
				c-0.3,0-0.6-0.1-0.8-0.2c-0.2-0.1-0.4-0.3-0.5-0.6c-0.1-0.3-0.2-0.6-0.2-0.9c0-0.3,0.1-0.6,0.2-0.9c0.1-0.3,0.3-0.5,0.5-0.6
				S169.7,174.1,170,174.1z M170,174.5c-0.3,0-0.5,0.1-0.7,0.3c-0.2,0.2-0.3,0.5-0.3,0.8h1.9c0-0.2,0-0.4-0.1-0.6
				c-0.1-0.2-0.2-0.3-0.3-0.4S170.2,174.5,170,174.5z"/>
			<path d="M175.7,176.6c0,0.2,0,0.4-0.1,0.5s-0.2,0.2-0.4,0.3c-0.2,0.1-0.4,0.1-0.7,0.1c-0.2,0-0.4,0-0.6-0.1
				c-0.2,0-0.3-0.1-0.5-0.2v-0.4c0.2,0.1,0.3,0.1,0.5,0.2s0.4,0.1,0.6,0.1c0.3,0,0.5-0.1,0.7-0.2c0.1-0.1,0.2-0.2,0.2-0.4
				c0-0.1,0-0.2-0.1-0.3c-0.1-0.1-0.2-0.1-0.3-0.2c-0.1-0.1-0.3-0.1-0.5-0.2c-0.2-0.1-0.4-0.2-0.5-0.2s-0.3-0.2-0.4-0.3
				c-0.1-0.1-0.1-0.3-0.1-0.5c0-0.3,0.1-0.5,0.3-0.6c0.2-0.1,0.5-0.2,0.9-0.2c0.2,0,0.4,0,0.6,0.1c0.2,0,0.3,0.1,0.5,0.2l-0.1,0.4
				c-0.1-0.1-0.3-0.1-0.4-0.2s-0.3-0.1-0.5-0.1c-0.2,0-0.4,0-0.6,0.1c-0.1,0.1-0.2,0.2-0.2,0.4c0,0.1,0,0.2,0.1,0.3
				c0.1,0.1,0.2,0.1,0.3,0.2c0.1,0.1,0.3,0.1,0.5,0.2c0.2,0.1,0.4,0.1,0.5,0.2c0.2,0.1,0.3,0.2,0.4,0.3
				C175.7,176.3,175.7,176.4,175.7,176.6z"/>
			<path d="M178.1,173c0.1,0,0.2,0,0.2,0.1c0.1,0,0.1,0.1,0.1,0.2c0,0.1,0,0.2-0.1,0.2c-0.1,0-0.1,0.1-0.2,0.1c-0.1,0-0.2,0-0.2-0.1
				c0,0-0.1-0.1-0.1-0.2c0-0.1,0-0.2,0.1-0.2C178,173,178.1,173,178.1,173z M178.4,174.2v3.3h-0.5v-3.3H178.4z"/>
			<path d="M181.9,177.2c0.1,0,0.2,0,0.3,0c0.1,0,0.2,0,0.2-0.1v0.4c-0.1,0-0.2,0-0.3,0.1s-0.2,0-0.3,0c-0.2,0-0.3,0-0.5-0.1
				c-0.1-0.1-0.2-0.2-0.3-0.3c-0.1-0.1-0.1-0.3-0.1-0.6v-2h-0.5v-0.2l0.5-0.2l0.1-0.8h0.3v0.8h1v0.4h-1v2c0,0.2,0,0.4,0.1,0.5
				C181.6,177.1,181.7,177.2,181.9,177.2z"/>
			<path d="M184,174.2h0.5l0.7,2c0,0.1,0.1,0.2,0.1,0.3c0,0.1,0.1,0.2,0.1,0.3c0,0.1,0,0.2,0.1,0.2h0c0-0.1,0.1-0.2,0.1-0.3
				c0-0.1,0.1-0.3,0.1-0.4l0.7-2h0.5l-1.5,3.9c-0.1,0.2-0.2,0.4-0.3,0.5c-0.1,0.1-0.2,0.2-0.3,0.3c-0.1,0.1-0.3,0.1-0.5,0.1
				c-0.1,0-0.2,0-0.2,0c-0.1,0-0.1,0-0.2-0.1v-0.4c0.1,0,0.1,0,0.2,0c0.1,0,0.1,0,0.2,0c0.1,0,0.2,0,0.3-0.1c0.1,0,0.2-0.1,0.2-0.2
				c0.1-0.1,0.1-0.2,0.2-0.4l0.2-0.5L184,174.2z"/>
		</g>
	</g>
</g>
</svg>
