<?xml version="1.0" encoding="UTF-8"?>
<!DOCTYPE svg PUBLIC "-//W3C//DTD SVG 1.1//EN" "http://www.w3.org/Graphics/SVG/1.1/DTD/svg11.dtd">
<svg xmlns="http://www.w3.org/2000/svg" version="1.1" width="190px" height="191px" style="shape-rendering:geometricPrecision; text-rendering:geometricPrecision; image-rendering:optimizeQuality; fill-rule:evenodd; clip-rule:evenodd" xmlns:xlink="http://www.w3.org/1999/xlink">
<g><path style="opacity:1" fill="#fefefe" d="M -0.5,0.5 C 62.8333,0.5 126.167,0.5 189.5,0.5C 189.5,63.8333 189.5,127.167 189.5,190.5C 126.167,190.5 62.8333,190.5 -0.5,190.5C -0.5,127.167 -0.5,63.8333 -0.5,0.5 Z"/></g>
<g><path style="opacity:1" fill="#4d166b" d="M 102.5,55.5 C 101.146,57.6959 99.1459,59.1959 96.5,60C 98.013,62.4541 97.3463,64.1207 94.5,65C 95.448,65.4828 96.448,65.6495 97.5,65.5C 96.6537,68.5271 95.3204,71.3605 93.5,74C 94.8333,75 94.8333,76 93.5,77C 95.7007,78.6845 96.3673,80.6845 95.5,83C 97.7579,84.1031 100.091,84.9364 102.5,85.5C 106.155,84.9181 109.822,84.4181 113.5,84C 112.304,83.3457 112.304,82.8457 113.5,82.5C 114.478,82.9767 115.311,83.6433 116,84.5C 116.232,83.2625 116.732,82.2625 117.5,81.5C 119.296,82.7927 120.963,84.2927 122.5,86C 121.034,86.6355 119.7,87.4688 118.5,88.5C 113.143,84.2202 108.143,84.5535 103.5,89.5C 99.0115,85.8082 94.0115,84.8082 88.5,86.5C 87.7354,86.0766 86.9021,85.7432 86,85.5C 84.8319,86.5089 83.6652,87.5089 82.5,88.5C 80.5592,86.1659 78.8925,83.6659 77.5,81C 78.6341,79.984 78.3008,79.3173 76.5,79C 77.6341,77.984 77.3008,77.3173 75.5,77C 76.6602,74.0761 76.6602,71.0761 75.5,68C 76.3567,67.3109 77.0233,66.4776 77.5,65.5C 77.1543,64.3044 76.6543,64.3044 76,65.5C 75.9657,63.8204 75.799,62.3204 75.5,61C 76.9733,60.2904 77.6399,59.1238 77.5,57.5C 76.1667,57.5 74.8333,57.5 73.5,57.5C 75.8577,55.8714 78.5243,54.7048 81.5,54C 88.7495,53.0558 95.7495,53.5558 102.5,55.5 Z"/></g>
<g><path style="opacity:1" fill="#3d1160" d="M 102.5,55.5 C 114.451,58.941 123.285,66.2743 129,77.5C 129.995,76.9341 130.828,76.2674 131.5,75.5C 132.167,75.5 132.833,75.5 133.5,75.5C 132.061,77.588 131.394,79.9214 131.5,82.5C 134.059,82.1984 136.393,82.5318 138.5,83.5C 134.414,83.2816 130.747,84.115 127.5,86C 124.113,83.8146 121.446,80.9813 119.5,77.5C 120.325,76.6143 121.325,76.281 122.5,76.5C 122.5,75.5 122.5,74.5 122.5,73.5C 116.612,73.2578 114.945,75.9245 117.5,81.5C 116.732,82.2625 116.232,83.2625 116,84.5C 115.311,83.6433 114.478,82.9767 113.5,82.5C 112.304,82.8457 112.304,83.3457 113.5,84C 109.822,84.4181 106.155,84.9181 102.5,85.5C 100.091,84.9364 97.7579,84.1031 95.5,83C 96.3673,80.6845 95.7007,78.6845 93.5,77C 94.8333,76 94.8333,75 93.5,74C 95.3204,71.3605 96.6537,68.5271 97.5,65.5C 96.448,65.6495 95.448,65.4828 94.5,65C 97.3463,64.1207 98.013,62.4541 96.5,60C 99.1459,59.1959 101.146,57.6959 102.5,55.5 Z"/></g>
<g><path style="opacity:1" fill="#611b75" d="M 73.5,57.5 C 74.8333,57.5 76.1667,57.5 77.5,57.5C 77.6399,59.1238 76.9733,60.2904 75.5,61C 75.799,62.3204 75.9657,63.8204 76,65.5C 76.6543,64.3044 77.1543,64.3044 77.5,65.5C 77.0233,66.4776 76.3567,67.3109 75.5,68C 76.6602,71.0761 76.6602,74.0761 75.5,77C 77.3008,77.3173 77.6341,77.984 76.5,79C 78.3008,79.3173 78.6341,79.984 77.5,81C 78.8925,83.6659 80.5592,86.1659 82.5,88.5C 83.6652,87.5089 84.8319,86.5089 86,85.5C 86.9021,85.7432 87.7354,86.0766 88.5,86.5C 85.0741,88.5992 82.7407,91.5992 81.5,95.5C 80.846,88.181 76.846,84.8477 69.5,85.5C 65.9442,82.3607 62.2776,79.1941 58.5,76C 61.076,71.6003 63.4093,67.1003 65.5,62.5C 67.4844,59.8361 70.1511,58.1695 73.5,57.5 Z"/></g>
<g><path style="opacity:1" fill="#f1ecf2" d="M 138.5,83.5 C 140.233,84.0076 140.566,84.841 139.5,86C 136.957,86.1397 134.623,86.8063 132.5,88C 136.673,92.5163 139.673,97.6829 141.5,103.5C 141.01,107.984 138.677,110.984 134.5,112.5C 129.354,112.257 125.354,109.923 122.5,105.5C 126.819,102.683 129.819,98.8496 131.5,94C 128.859,89.3397 125.359,88.5063 121,91.5C 120.83,98.2299 120.163,104.897 119,111.5C 117.413,112.727 116.079,112.394 115,110.5C 114.833,108.667 114.667,106.833 114.5,105C 115.101,100.458 115.601,95.9579 116,91.5C 111.822,87.0106 108.655,87.5106 106.5,93C 109.902,99.0835 110.236,105.25 107.5,111.5C 104.7,112.903 103.2,111.903 103,108.5C 102.337,103.463 102.504,98.4626 103.5,93.5C 102.448,93.3505 101.448,93.5172 100.5,94C 97.2988,97.5364 93.7988,100.703 90,103.5C 89.586,103.043 89.086,102.709 88.5,102.5C 86.8273,104.086 84.8273,104.753 82.5,104.5C 82.4119,108.589 80.4119,111.256 76.5,112.5C 72.8691,112.84 69.5358,112.006 66.5,110C 62.4767,107.418 59.81,103.918 58.5,99.5C 62.7143,102.629 67.0477,105.796 71.5,109C 77.9784,110.523 80.3118,108.189 78.5,102C 76.0231,101.76 73.8565,102.594 72,104.5C 71.3076,103.975 70.8076,103.308 70.5,102.5C 71.8587,100.308 73.6921,98.6411 76,97.5C 77.5576,95.2311 77.7243,92.8978 76.5,90.5C 75.6667,92.5 74.8333,94.5 74,96.5C 71.7328,97.9348 69.7328,97.6015 68,95.5C 67.7457,92.805 67.579,90.305 67.5,88C 61.4534,86.0459 57.9534,88.2126 57,94.5C 56.1206,106.4 61.6206,113.067 73.5,114.5C 79.645,116.737 85.3117,119.737 90.5,123.5C 89.7354,123.923 88.9021,124.257 88,124.5C 81.0683,121.135 73.9016,118.468 66.5,116.5C 65.2275,115.566 63.7275,114.899 62,114.5C 58.0274,120.404 52.5274,122.904 45.5,122C 41.1328,117.498 41.7995,113.832 47.5,111C 57.9641,111.67 58.7974,108.503 50,101.5C 47.7742,105.861 44.2742,107.361 39.5,106C 37.2738,104.38 35.9404,102.214 35.5,99.5C 35.5904,97.5749 36.5904,96.4083 38.5,96C 41.4318,95.6888 44.0984,95.5221 46.5,95.5C 44.755,91.5919 42.4217,88.0919 39.5,85C 43.0952,82.5995 47.0952,81.4329 51.5,81.5C 57.7773,81.7663 63.7773,83.0997 69.5,85.5C 76.846,84.8477 80.846,88.181 81.5,95.5C 82.7407,91.5992 85.0741,88.5992 88.5,86.5C 94.0115,84.8082 99.0115,85.8082 103.5,89.5C 108.143,84.5535 113.143,84.2202 118.5,88.5C 119.7,87.4688 121.034,86.6355 122.5,86C 120.963,84.2927 119.296,82.7927 117.5,81.5C 114.945,75.9245 116.612,73.2578 122.5,73.5C 122.5,74.5 122.5,75.5 122.5,76.5C 121.325,76.281 120.325,76.6143 119.5,77.5C 121.446,80.9813 124.113,83.8146 127.5,86C 130.747,84.115 134.414,83.2816 138.5,83.5 Z"/></g>
<g><path style="opacity:1" fill="#802586" d="M 65.5,62.5 C 63.4093,67.1003 61.076,71.6003 58.5,76C 62.2776,79.1941 65.9442,82.3607 69.5,85.5C 63.7773,83.0997 57.7773,81.7663 51.5,81.5C 47.0952,81.4329 43.0952,82.5995 39.5,85C 42.4217,88.0919 44.755,91.5919 46.5,95.5C 44.0984,95.5221 41.4318,95.6888 38.5,96C 36.5904,96.4083 35.5904,97.5749 35.5,99.5C 35.9404,102.214 37.2738,104.38 39.5,106C 44.2742,107.361 47.7742,105.861 50,101.5C 58.7974,108.503 57.9641,111.67 47.5,111C 41.7995,113.832 41.1328,117.498 45.5,122C 52.5274,122.904 58.0274,120.404 62,114.5C 63.7275,114.899 65.2275,115.566 66.5,116.5C 62.0119,119.667 62.0119,123.167 66.5,127C 65.5842,127.278 64.9175,127.778 64.5,128.5C 63.1434,127.315 61.6434,126.315 60,125.5C 37.5519,130.012 24.7186,120.845 21.5,98C 24.5314,77.9505 36.0314,68.7839 56,70.5C 58.7461,67.2472 61.9128,64.5805 65.5,62.5 Z"/></g>
<g><path style="opacity:1" fill="#240c5a" d="M 145.5,73.5 C 148.48,74.3234 151.147,75.6567 153.5,77.5C 153.03,78.6935 152.03,79.3601 150.5,79.5C 147.959,78.3356 145.625,78.5022 143.5,80C 144.614,84.1036 144.614,88.2702 143.5,92.5C 144.247,96.5711 145.247,100.571 146.5,104.5C 145.872,106.258 144.872,107.758 143.5,109C 144.451,109.718 144.617,110.551 144,111.5C 140.742,112.554 139.908,114.554 141.5,117.5C 144.609,117.591 147.775,117.258 151,116.5C 151.5,116.833 152,117.167 152.5,117.5C 151.37,118.622 150.703,119.956 150.5,121.5C 149.508,121.328 148.842,121.662 148.5,122.5C 142.273,123.972 136.273,123.305 130.5,120.5C 129.71,119.599 128.71,118.932 127.5,118.5C 129.009,115.423 131.342,113.423 134.5,112.5C 138.677,110.984 141.01,107.984 141.5,103.5C 139.673,97.6829 136.673,92.5163 132.5,88C 134.623,86.8063 136.957,86.1397 139.5,86C 140.566,84.841 140.233,84.0076 138.5,83.5C 136.393,82.5318 134.059,82.1984 131.5,82.5C 131.394,79.9214 132.061,77.588 133.5,75.5C 137.36,74.1958 141.36,73.5291 145.5,73.5 Z"/></g>
<g><path style="opacity:1" fill="#14074d" d="M 153.5,77.5 C 161.522,81.3855 165.855,87.8855 166.5,97C 166.259,108.683 160.926,116.85 150.5,121.5C 150.703,119.956 151.37,118.622 152.5,117.5C 152,117.167 151.5,116.833 151,116.5C 147.775,117.258 144.609,117.591 141.5,117.5C 139.908,114.554 140.742,112.554 144,111.5C 144.617,110.551 144.451,109.718 143.5,109C 144.872,107.758 145.872,106.258 146.5,104.5C 145.247,100.571 144.247,96.5711 143.5,92.5C 144.614,88.2702 144.614,84.1036 143.5,80C 145.625,78.5022 147.959,78.3356 150.5,79.5C 152.03,79.3601 153.03,78.6935 153.5,77.5 Z"/></g>
<g><path style="opacity:1" fill="#c9ccd3" d="M 145.5,73.5 C 161.375,73.5203 170.375,81.687 172.5,98C 171.009,115.895 161.342,124.895 143.5,125C 145.577,124.808 147.577,124.308 149.5,123.5C 149.376,122.893 149.043,122.56 148.5,122.5C 148.842,121.662 149.508,121.328 150.5,121.5C 160.926,116.85 166.259,108.683 166.5,97C 165.855,87.8855 161.522,81.3855 153.5,77.5C 151.147,75.6567 148.48,74.3234 145.5,73.5 Z"/></g>
<g><path style="opacity:1" fill="#7d298a" d="M 44.5,86.5 C 48.6829,85.1889 53.0162,85.1889 57.5,86.5C 54.9331,90.4193 53.4331,94.7526 53,99.5C 50.1597,95.1478 47.3264,90.8144 44.5,86.5 Z"/></g>
<g><path style="opacity:1" fill="#732887" d="M 76.5,112.5 C 75.5,113.167 74.5,113.833 73.5,114.5C 61.6206,113.067 56.1206,106.4 57,94.5C 57.9534,88.2126 61.4534,86.0459 67.5,88C 67.579,90.305 67.7457,92.805 68,95.5C 69.7328,97.6015 71.7328,97.9348 74,96.5C 74.8333,94.5 75.6667,92.5 76.5,90.5C 77.7243,92.8978 77.5576,95.2311 76,97.5C 73.6921,98.6411 71.8587,100.308 70.5,102.5C 70.8076,103.308 71.3076,103.975 72,104.5C 73.8565,102.594 76.0231,101.76 78.5,102C 80.3118,108.189 77.9784,110.523 71.5,109C 67.0477,105.796 62.7143,102.629 58.5,99.5C 59.81,103.918 62.4767,107.418 66.5,110C 69.5358,112.006 72.8691,112.84 76.5,112.5 Z"/></g>
<g><path style="opacity:1" fill="#602283" d="M 90.5,89.5 C 98.9513,88.3895 100.118,90.3895 94,95.5C 92.4423,93.2324 90.2756,92.0657 87.5,92C 88.5707,91.1482 89.5707,90.3149 90.5,89.5 Z"/></g>
<g><path style="opacity:1" fill="#87429b" d="M 70.5,90.5 C 72.332,91.1405 72.6653,92.1405 71.5,93.5C 70.6143,92.675 70.281,91.675 70.5,90.5 Z"/></g>
<g><path style="opacity:1" fill="#6c1d87" d="M 86.5,97.5 C 87.3864,96.2241 88.3864,96.2241 89.5,97.5C 88.4508,100.045 87.4508,100.045 86.5,97.5 Z"/></g>
<g><path style="opacity:1" fill="#803598" d="M 81.5,98.5 C 83.9828,98.73 84.4828,99.3966 83,100.5C 81.9701,100.164 81.4701,99.4972 81.5,98.5 Z"/></g>
<g><path style="opacity:1" fill="#97399d" d="M 39.5,98.5 C 42.0588,98.3896 44.3921,99.0562 46.5,100.5C 43.5673,104.6 40.9006,104.434 38.5,100C 39.056,99.6174 39.3893,99.1174 39.5,98.5 Z"/></g>
<g><path style="opacity:1" fill="#39186b" d="M 133.5,96.5 C 136.441,97.8025 137.774,100.136 137.5,103.5C 138.099,107.068 136.599,109.068 133,109.5C 130.525,109.016 128.692,107.683 127.5,105.5C 129.758,102.643 131.758,99.6434 133.5,96.5 Z"/></g>
<g><path style="opacity:1" fill="#4f176c" d="M 107.5,111.5 C 104.907,113.908 102.073,116.242 99,118.5C 97.5684,121.002 97.4018,123.502 98.5,126C 97.4366,127.188 96.1033,127.688 94.5,127.5C 94.2965,129.39 94.9632,130.89 96.5,132C 99.6747,132.493 102.341,133.66 104.5,135.5C 98.3019,137.183 91.9685,137.849 85.5,137.5C 85.33,136.178 85.6634,135.011 86.5,134C 85.6433,133.311 84.9767,132.478 84.5,131.5C 86.0758,129.423 88.0758,127.923 90.5,127C 89.8288,126.014 89.8288,124.847 90.5,123.5C 85.3117,119.737 79.645,116.737 73.5,114.5C 74.5,113.833 75.5,113.167 76.5,112.5C 80.4119,111.256 82.4119,108.589 82.5,104.5C 84.8273,104.753 86.8273,104.086 88.5,102.5C 89.086,102.709 89.586,103.043 90,103.5C 93.7988,100.703 97.2988,97.5364 100.5,94C 101.448,93.5172 102.448,93.3505 103.5,93.5C 102.504,98.4626 102.337,103.463 103,108.5C 103.2,111.903 104.7,112.903 107.5,111.5 Z"/></g>
<g><path style="opacity:1" fill="#3c1262" d="M 134.5,112.5 C 131.342,113.423 129.009,115.423 127.5,118.5C 123.776,121.719 120.109,125.219 116.5,129C 112.633,131.433 108.633,133.6 104.5,135.5C 102.341,133.66 99.6747,132.493 96.5,132C 94.9632,130.89 94.2965,129.39 94.5,127.5C 96.1033,127.688 97.4366,127.188 98.5,126C 97.4018,123.502 97.5684,121.002 99,118.5C 102.073,116.242 104.907,113.908 107.5,111.5C 110.236,105.25 109.902,99.0835 106.5,93C 108.655,87.5106 111.822,87.0106 116,91.5C 115.601,95.9579 115.101,100.458 114.5,105C 114.667,106.833 114.833,108.667 115,110.5C 116.079,112.394 117.413,112.727 119,111.5C 120.163,104.897 120.83,98.2299 121,91.5C 125.359,88.5063 128.859,89.3397 131.5,94C 129.819,98.8496 126.819,102.683 122.5,105.5C 125.354,109.923 129.354,112.257 134.5,112.5 Z"/></g>
<g><path style="opacity:1" fill="#8d3c97" d="M 48.5,113.5 C 59.997,113.575 60.1637,115.575 49,119.5C 44.5352,118.005 44.3685,116.005 48.5,113.5 Z"/></g>
<g><path style="opacity:1" fill="#601c75" d="M 66.5,116.5 C 73.9016,118.468 81.0683,121.135 88,124.5C 88.9021,124.257 89.7354,123.923 90.5,123.5C 89.8288,124.847 89.8288,126.014 90.5,127C 88.0758,127.923 86.0758,129.423 84.5,131.5C 84.9767,132.478 85.6433,133.311 86.5,134C 85.6634,135.011 85.33,136.178 85.5,137.5C 77.6485,136.406 70.6485,133.406 64.5,128.5C 64.9175,127.778 65.5842,127.278 66.5,127C 62.0119,123.167 62.0119,119.667 66.5,116.5 Z"/></g>
<g><path style="opacity:1" fill="#cbcdd3" d="M 131.5,75.5 C 130.828,76.2674 129.995,76.9341 129,77.5C 123.285,66.2743 114.451,58.941 102.5,55.5C 95.7495,53.5558 88.7495,53.0558 81.5,54C 78.5243,54.7048 75.8577,55.8714 73.5,57.5C 70.1511,58.1695 67.4844,59.8361 65.5,62.5C 61.9128,64.5805 58.7461,67.2472 56,70.5C 36.0314,68.7839 24.5314,77.9505 21.5,98C 24.7186,120.845 37.5519,130.012 60,125.5C 61.6434,126.315 63.1434,127.315 64.5,128.5C 70.6485,133.406 77.6485,136.406 85.5,137.5C 91.9685,137.849 98.3019,137.183 104.5,135.5C 108.633,133.6 112.633,131.433 116.5,129C 120.109,125.219 123.776,121.719 127.5,118.5C 128.71,118.932 129.71,119.599 130.5,120.5C 129.761,120.369 129.094,120.536 128.5,121C 111.049,142.163 90.0487,146.497 65.5,134C 63.208,132.71 61.208,131.043 59.5,129C 42.9979,132.837 29.8312,128.003 20,114.5C 12.5973,99.1795 15.0973,85.6795 27.5,74C 35.2525,68.4351 43.7525,66.6018 53,68.5C 76.719,43.8927 101.052,43.2261 126,66.5C 127.844,69.5279 129.678,72.5279 131.5,75.5 Z"/></g>
</svg>
