<?xml version="1.0" encoding="utf-8"?>
<!-- Generator: Adobe Illustrator 26.0.2, SVG Export Plug-In . SVG Version: 6.00 Build 0)  -->
<svg version="1.1" id="Layer_1" xmlns="http://www.w3.org/2000/svg" xmlns:xlink="http://www.w3.org/1999/xlink" x="0px" y="0px"
	 viewBox="0 0 190 190" style="enable-background:new 0 0 190 190;" xml:space="preserve">
<style type="text/css">
	.st0{fill:#2E3192;}
</style>
<g>
	<path class="st0" d="M50.5,179.4l11.2-0.1l-0.5-12.2l-10.7,0L50.5,179.4L50.5,179.4z M50.4,121.6l11.1-0.6l-0.6-9.8l-10.5,0.2
		L50.4,121.6L50.4,121.6z M50.4,100.9c47.7-5.3,70.5-14.1,70.6-63.8v-1.4c0-0.6,0-1.1,0-1.6c-14.4,8.4-30.5,18.3-48.3,23.1
		c-1.2-7.1-3.3-13.7-6.2-16.2c-5.6,2.4-11,5-16.3,7.7v3c3.5-1.6,7.1-3.2,10.9-4.7c7.6-3.1,10.8,9.7,5.1,12c-5.2,1.3-10.6,2.6-16,4
		L50.4,100.9z M5.7,112.8l2.3,60.6c0.5,3.1,2.8,7,8.7,6.4l33.7-0.4l0-12.3h-3.2l-0.5-45.3l3.6-0.2l0-10.2l-3.5,0.1
		c0-3.5-0.6-6.7-0.6-10.2c1.4-0.1,2.7-0.3,4.1-0.4l-0.1-37.7c-5.6,1.4-11.1,2.8-16.4,4c-2.5-1.6-3.8-3.5-0.8-5.6
		c5.4-3.7,11.1-6.9,17.2-9.8v-3C38.8,54.7,27.9,61.7,17.1,70C17,82.7,17.6,96.3,17.5,109c-0.3,1.8-2.4,3-4.9,3.3L5.7,112.8z"/>
	<path class="st0" d="M90.1,121.1l-25,0.1l0.8,32.5l17.9-0.4l0.2,20.4L71.8,174l0.1-11.5l-6.5,0l0,17.7l25.1-0.6l-0.3-33.9
		l-17.6,0.7l-0.4-18.7c4.7-0.3,13.2-0.1,17.8-0.3C89.9,125.2,90.2,123.2,90.1,121.1z"/>
	<g>
		<g>
			<path class="st0" d="M165.4,124.9c-3.4-1.1-7.2-1.8-11.3-2.1c-1.2-0.1-2.3,0-3.3,0.1c-4.6,0.3-8.4,1.5-11.7,3.3
				c-5.5,3-9.5,8-12.2,14.4c-1.6,0-3.4,0.2-5,0.2c-5.6-15.4-15.9-19.4-27.5-20.3l0.2,17.5l2.1,0l0.8,15.7l-2.1,0.4
				c0,9.2,0,18.4,0.1,27.6c13.6-1.7,21.9-7.8,28.1-20.9c3.4,8.4,9,14,15.5,17.1c3.7,1.8,7.7,2.8,11.7,2.9c4.9,0.3,10-0.7,14.6-2.7
				c9.5-4.1,17.2-12.9,18.7-25.7C184,137,176.8,128.5,165.4,124.9z M139.1,150.6l-8.3,0l0-8l8.3,0l8.3,0l0,8L139.1,150.6z
				 M150.9,168.4l-4.4,0l0-7.2l4.4,0l4.4,0l0,7.2L150.9,168.4z M165.5,150.5l-7,0l0-7.2l7,0l7,0l0,7.2L165.5,150.5z"/>
		</g>
	</g>
</g>
</svg>
