<?xml version="1.0" encoding="utf-8"?>
<!-- Generator: Adobe Illustrator 26.0.2, SVG Export Plug-In . SVG Version: 6.00 Build 0)  -->
<svg version="1.1" id="Layer_1" xmlns="http://www.w3.org/2000/svg" xmlns:xlink="http://www.w3.org/1999/xlink" x="0px" y="0px"
	 viewBox="0 0 190 190" style="enable-background:new 0 0 190 190;" xml:space="preserve">
<style type="text/css">
	.st0{fill:#008D6A;}
</style>
<g>
	<g>
		<g>
			<path class="st0" d="M68.5,150.3c-0.3-0.9-0.7-1.7-1.3-2.4c-0.6-0.7-1.2-1.4-2-1.9c-0.7-0.5-1.6-0.9-2.5-1.2
				c-0.9-0.3-1.8-0.4-2.8-0.4c-0.9,0-1.9,0.1-2.8,0.4c-0.9,0.3-1.7,0.7-2.5,1.2c-0.7,0.5-1.4,1.1-1.9,1.9c-0.6,0.7-1,1.5-1.2,2.4
				H68.5z M67.3,158.7c0.7,0,1.4,0.2,1.9,0.7c0.5,0.5,0.7,1.1,0.7,1.8c0,0.7-0.2,1.3-0.7,1.8c-2.6,2.2-5.6,3.3-9.2,3.3
				c-3.9,0-7.2-1.3-9.9-3.9c-2.7-2.6-4.1-5.8-4.1-9.5c0-3.7,1.4-6.9,4.1-9.5c2.7-2.6,6-3.9,9.9-3.9c3.8,0,7.1,1.3,9.9,3.9
				c1.4,1.3,2.4,2.7,3.1,4.3c0.7,1.6,1,3.3,1,5.2c0,0.7-0.3,1.3-0.8,1.8c-0.5,0.5-1.1,0.7-1.9,0.7H51.6c0.3,0.9,0.7,1.7,1.2,2.4
				c0.6,0.7,1.2,1.4,1.9,1.9c0.7,0.5,1.6,0.9,2.5,1.2c0.9,0.3,1.8,0.4,2.8,0.4c1.1,0,2.1-0.2,3-0.5c0.9-0.3,1.8-0.8,2.6-1.4
				C66.1,158.9,66.7,158.7,67.3,158.7"/>
			<path class="st0" d="M130.3,166.3c-0.7,0-1.4-0.2-1.9-0.7c-0.5-0.5-0.7-1.1-0.7-1.7c-1.2,0.9-2.4,1.5-3.6,1.9
				c-1.3,0.4-2.7,0.6-4.2,0.6c-1.8,0-3.5-0.3-5-1c-1.6-0.7-3-1.6-4.2-2.7c-1.2-1.1-2.1-2.5-2.8-4c-0.7-1.5-1-3.1-1-4.8V142
				c0-0.7,0.3-1.3,0.8-1.8c0.5-0.5,1.1-0.7,1.9-0.7c0.7,0,1.3,0.2,1.8,0.7c0.5,0.5,0.8,1.1,0.8,1.8v11.8c0,1,0.2,2,0.6,2.9
				c0.4,0.9,1,1.7,1.7,2.4c0.7,0.7,1.5,1.2,2.5,1.6c1,0.4,2,0.6,3,0.6c1.1,0,2.1-0.2,3-0.6c0.9-0.4,1.8-0.9,2.5-1.6
				c0.7-0.7,1.3-1.5,1.7-2.4c0.4-0.9,0.6-1.9,0.6-2.9V142c0-0.7,0.3-1.3,0.8-1.8c0.5-0.5,1.1-0.7,1.9-0.7c0.7,0,1.3,0.2,1.8,0.7
				c0.5,0.5,0.8,1.1,0.8,1.8v21.9c0,0.7-0.3,1.3-0.8,1.8C131.7,166.1,131,166.3,130.3,166.3"/>
			<path class="st0" d="M156.8,158.7c0.7,0,1.4,0.2,1.9,0.7c0.5,0.5,0.7,1.1,0.7,1.8c0,0.7-0.3,1.3-0.8,1.8
				c-2.6,2.2-5.6,3.3-9.1,3.3c-3.9,0-7.2-1.3-9.9-3.9c-2.7-2.6-4.1-5.8-4.1-9.5c0-3.7,1.4-6.9,4.1-9.5c2.7-2.6,6-3.9,9.9-3.9
				c3.5,0,6.6,1.1,9.1,3.3c0.6,0.5,0.9,1.1,0.9,1.9c0,0.7-0.3,1.3-0.7,1.8c-0.5,0.5-1.1,0.7-1.9,0.7c-0.6,0-1.2-0.2-1.7-0.6
				c-0.9-0.7-1.7-1.2-2.7-1.6c-0.9-0.4-2-0.5-3-0.5c-1.2,0-2.4,0.2-3.4,0.7c-1.1,0.4-2,1-2.8,1.8c-0.8,0.8-1.4,1.6-1.9,2.7
				c-0.5,1-0.7,2.1-0.7,3.3c0,1.2,0.2,2.3,0.7,3.3c0.5,1,1.1,1.9,1.9,2.7c0.8,0.8,1.7,1.4,2.8,1.8c1.1,0.4,2.2,0.7,3.4,0.7
				c1.1,0,2.1-0.2,3-0.5c0.9-0.3,1.8-0.9,2.6-1.5C155.7,158.9,156.2,158.7,156.8,158.7"/>
			<path class="st0" d="M174.3,144.5c-1.2,0-2.4,0.2-3.5,0.7c-1.1,0.4-2,1.1-2.8,1.8c-0.8,0.8-1.4,1.6-1.9,2.7
				c-0.5,1-0.7,2.1-0.7,3.3c0,1.2,0.2,2.2,0.7,3.3c0.5,1,1.1,1.9,1.9,2.7c0.8,0.8,1.7,1.4,2.8,1.8c1.1,0.4,2.2,0.7,3.5,0.7
				c1.2,0,2.4-0.2,3.4-0.7c1.1-0.4,2-1.1,2.8-1.8c0.8-0.8,1.4-1.7,1.9-2.7c0.5-1,0.7-2.1,0.7-3.2c0-1.2-0.2-2.2-0.7-3.3
				c-0.5-1-1.1-1.9-1.9-2.7c-0.8-0.8-1.7-1.4-2.8-1.8C176.6,144.7,175.5,144.5,174.3,144.5 M188.3,152.9c0,3.7-1.4,6.9-4.1,9.5
				c-2.8,2.6-6.1,3.9-9.9,3.9c-3.9,0-7.2-1.3-9.9-3.9c-2.7-2.6-4.1-5.8-4.1-9.5c0-3.7,1.4-6.9,4.1-9.5c2.7-2.6,6-3.9,9.9-3.9
				c3.8,0,7.1,1.3,9.9,3.9c1.4,1.3,2.4,2.8,3.1,4.3C187.9,149.3,188.3,151,188.3,152.9"/>
			<path class="st0" d="M99.1,152.9c0-1.2-0.2-2.2-0.7-3.3c-0.5-1-1.1-1.9-1.9-2.7c-0.8-0.8-1.7-1.4-2.8-1.8
				c-1.1-0.4-2.2-0.7-3.4-0.7c-1.2,0-2.4,0.2-3.5,0.7c-1.1,0.4-2,1.1-2.8,1.8c-0.8,0.8-1.4,1.6-1.9,2.7c-0.5,1-0.7,2.1-0.7,3.3
				c0,1.2,0.2,2.2,0.7,3.3c0.5,1,1.1,1.9,1.9,2.7c0.8,0.8,1.7,1.4,2.8,1.8c1.1,0.4,2.2,0.7,3.5,0.7c1.2,0,2.4-0.2,3.4-0.7
				c1.1-0.4,2-1.1,2.8-1.8c0.8-0.8,1.4-1.7,1.9-2.7C98.8,155.2,99.1,154.1,99.1,152.9 M90.3,139.5c3.3,0,6.2,1,8.8,3v-6.2
				c0-0.7,0.2-1.3,0.7-1.8c0.5-0.5,1.1-0.7,1.9-0.7c0.7,0,1.4,0.2,1.9,0.7c0.5,0.5,0.8,1.1,0.8,1.8v16.7c0,3.7-1.4,6.9-4.1,9.5
				c-2.8,2.6-6.1,3.9-9.9,3.9c-3.9,0-7.2-1.3-9.9-3.9c-2.7-2.6-4.1-5.8-4.1-9.5c0-3.7,1.4-6.9,4.1-9.5
				C83.1,140.8,86.4,139.5,90.3,139.5"/>
		</g>
	</g>
	<g>
		<path class="st0" d="M43.4,132.2c-11.2,10.6-26.5,11.1-40.1,10.1c-0.7,0-1.4,0.4-1.6,1c0,0.1-0.1,0.3-0.1,0.4c0,0.5,0.3,1,0.8,1.2
			c3.5,1.8,8,3.2,12.5,3.9c-0.8,5.2-7.5,20.1-11.6,26.2c-0.2,0.2-0.2,0.5-0.2,0.7c0,0.4,0.2,0.8,0.5,1.1c0.6,0.4,1.4,0.4,2,0
			c4.3-3.5,12.6-12.3,17.9-18.1c0.3,0.6,0.6,1.2,1,1.9c2.3,4.6,6.2,12.3,9,16.6c0.4,0.6,1.1,0.8,1.8,0.6c0.6-0.2,1-0.7,1-1.3
			c0-0.1,0-0.1,0-0.2c-1.8-11.6-2.1-21-2.1-25.9c0-1.5,0-2.5,0-3.1c6.2-5.2,10-9.6,11.6-13.8c0.1-0.2,0.1-0.3,0.1-0.5
			c0-0.5-0.3-0.9-0.7-1.2C44.7,131.7,43.9,131.7,43.4,132.2"/>
		<path class="st0" d="M20.3,122.9c-2.1,1-3.7,2.7-4.5,4.8c-1.6,4.3,1,9,5.6,10.4c2.3,0.7,4.7,0.5,6.8-0.4c2.1-1,3.7-2.7,4.5-4.8v0
			c1.5-4.3-1-9-5.7-10.4C24.8,121.8,22.4,121.9,20.3,122.9"/>
	</g>
	<g>
		<path d="M61.5,173.6c-0.5-0.3-1-0.4-1.7-0.4c-0.7,0-1.2,0.1-1.7,0.4c-0.5,0.3-0.9,0.7-1.2,1.2c-0.3,0.5-0.4,1.1-0.4,1.8
			c0,0.7,0.2,1.3,0.5,1.8c0.3,0.5,0.7,0.9,1.2,1.2c0.5,0.3,1.1,0.4,1.8,0.4c0.4,0,0.8-0.1,1.2-0.2c0.4-0.1,0.8-0.3,1-0.5
			c0.1-0.1,0.2-0.2,0.2-0.4c0-0.1-0.1-0.3-0.2-0.4c-0.1-0.1-0.2-0.1-0.4-0.1c-0.1,0-0.3,0.1-0.4,0.1c-0.2,0.1-0.4,0.2-0.6,0.3
			c-0.3,0.1-0.5,0.1-0.8,0.1c-0.5,0-0.9-0.1-1.2-0.3c-0.4-0.2-0.6-0.5-0.9-0.8c-0.1-0.2-0.2-0.5-0.3-0.8h4.7c0.2,0,0.3-0.1,0.4-0.2
			c0.1-0.1,0.2-0.2,0.2-0.4c0-0.7-0.1-1.2-0.4-1.7C62.3,174.2,62,173.8,61.5,173.6z M58.6,174.5c0.3-0.2,0.7-0.3,1.2-0.3
			c0.4,0,0.8,0.1,1,0.3c0.3,0.2,0.5,0.4,0.7,0.8c0.1,0.2,0.2,0.5,0.2,0.8h-4.1c0-0.2,0.1-0.5,0.2-0.7
			C58.1,175,58.3,174.7,58.6,174.5z"/>
		<path d="M71.4,170.3c-0.2,0-0.3,0.1-0.5,0.2c-0.1,0.1-0.2,0.3-0.2,0.5v3.3c-0.3-0.3-0.6-0.6-1-0.8c-0.4-0.2-0.9-0.3-1.3-0.3
			c-0.6,0-1.1,0.2-1.6,0.5c-0.5,0.3-0.9,0.7-1.1,1.2c-0.3,0.5-0.4,1.1-0.4,1.7c0,0.7,0.2,1.2,0.5,1.8c0.3,0.5,0.7,0.9,1.2,1.2
			c0.5,0.3,1.1,0.5,1.7,0.5c0.6,0,1.2-0.2,1.7-0.5c0.5-0.3,0.9-0.7,1.2-1.2c0.3-0.5,0.5-1.1,0.5-1.8v-5.6c0-0.2-0.1-0.3-0.2-0.5
			C71.7,170.3,71.5,170.3,71.4,170.3z M70.5,177.7c-0.2,0.4-0.4,0.6-0.8,0.8c-0.3,0.2-0.7,0.3-1.1,0.3c-0.4,0-0.8-0.1-1.1-0.3
			c-0.3-0.2-0.6-0.5-0.8-0.8c-0.2-0.4-0.3-0.7-0.3-1.2c0-0.4,0.1-0.8,0.3-1.2c0.2-0.3,0.5-0.6,0.8-0.8c0.3-0.2,0.7-0.3,1.1-0.3
			c0.4,0,0.8,0.1,1.1,0.3c0.3,0.2,0.6,0.5,0.8,0.8c0.2,0.3,0.3,0.7,0.3,1.2C70.8,177,70.7,177.4,70.5,177.7z"/>
		<path d="M81,173.2c-0.2,0-0.3,0.1-0.5,0.2c-0.1,0.1-0.2,0.3-0.2,0.5v3.5c0,0.3-0.1,0.6-0.2,0.8c-0.2,0.2-0.4,0.4-0.7,0.6
			c-0.3,0.1-0.6,0.2-0.9,0.2c-0.4,0-0.7-0.1-1-0.2c-0.3-0.1-0.5-0.4-0.7-0.7c-0.2-0.3-0.3-0.7-0.3-1.1v-3c0-0.2-0.1-0.3-0.2-0.5
			c-0.1-0.1-0.3-0.2-0.5-0.2c-0.2,0-0.3,0.1-0.5,0.2c-0.1,0.1-0.2,0.3-0.2,0.5v3c0,0.7,0.1,1.3,0.4,1.7c0.3,0.5,0.6,0.8,1.1,1.1
			c0.4,0.2,1,0.4,1.5,0.4c0.6,0,1-0.1,1.5-0.4c0.2-0.1,0.4-0.3,0.6-0.5v0.1c0,0.2,0.1,0.3,0.2,0.5c0.1,0.1,0.3,0.2,0.5,0.2
			c0.2,0,0.3-0.1,0.5-0.2c0.1-0.1,0.2-0.3,0.2-0.5v-5.5c0-0.2-0.1-0.3-0.2-0.5C81.4,173.2,81.2,173.2,81,173.2z"/>
		<path d="M89.4,173.4c-0.4-0.2-0.8-0.3-1.3-0.3c-0.7,0-1.2,0.1-1.7,0.4c-0.5,0.3-0.9,0.7-1.2,1.2c-0.3,0.5-0.4,1.1-0.4,1.8
			c0,0.7,0.1,1.2,0.4,1.7c0.3,0.5,0.7,0.9,1.2,1.2c0.5,0.3,1.1,0.5,1.8,0.5c0.9,0,1.6-0.3,2.2-0.8c0.1-0.1,0.2-0.2,0.1-0.4
			c0-0.1-0.1-0.3-0.2-0.4c-0.1-0.1-0.2-0.1-0.4-0.1c-0.1,0-0.3,0.1-0.4,0.2c-0.2,0.1-0.4,0.3-0.6,0.3c-0.2,0.1-0.5,0.1-0.8,0.1
			c-0.4,0-0.8-0.1-1.1-0.3c-0.3-0.2-0.6-0.5-0.8-0.8c-0.2-0.3-0.3-0.7-0.3-1.2c0-0.5,0.1-0.9,0.3-1.2c0.2-0.3,0.4-0.6,0.8-0.8
			c0.3-0.2,0.7-0.3,1.1-0.3c0.6,0,1.1,0.2,1.5,0.6c0.1,0.1,0.2,0.2,0.4,0.2c0.1,0,0.3,0,0.4-0.1c0.1-0.1,0.2-0.2,0.3-0.4
			c0-0.1,0-0.3-0.1-0.4C90.2,173.9,89.8,173.6,89.4,173.4z"/>
		<path d="M98.6,173.6c-0.5-0.3-1.1-0.5-1.7-0.5c-0.6,0-1.2,0.2-1.7,0.5c-0.5,0.3-0.9,0.7-1.2,1.2c-0.3,0.5-0.5,1.1-0.5,1.8
			c0,0.7,0.1,1.2,0.4,1.7c0.3,0.5,0.7,0.9,1.1,1.2c0.5,0.3,1,0.5,1.6,0.5s1.1-0.2,1.6-0.5c0.3-0.2,0.5-0.4,0.8-0.7v0.5
			c0,0.2,0.1,0.3,0.2,0.5c0.1,0.1,0.3,0.2,0.5,0.2c0.2,0,0.3-0.1,0.5-0.2c0.1-0.1,0.2-0.3,0.2-0.5v-2.8c0-0.7-0.2-1.2-0.5-1.8
			C99.5,174.3,99.1,173.9,98.6,173.6z M98.7,177.7c-0.2,0.3-0.4,0.6-0.8,0.8c-0.3,0.2-0.7,0.3-1.1,0.3c-0.4,0-0.8-0.1-1.1-0.3
			c-0.3-0.2-0.6-0.5-0.8-0.8c-0.2-0.3-0.3-0.7-0.3-1.2c0-0.4,0.1-0.8,0.3-1.2c0.2-0.3,0.5-0.6,0.8-0.8c0.3-0.2,0.7-0.3,1.1-0.3
			c0.4,0,0.8,0.1,1.1,0.3c0.3,0.2,0.6,0.5,0.8,0.8c0.2,0.4,0.3,0.7,0.3,1.2C99,177,98.9,177.4,98.7,177.7z"/>
		<path d="M106.2,178.7h-0.4c-0.3,0-0.5-0.1-0.7-0.3c-0.2-0.2-0.3-0.5-0.3-0.8v-3.1h1.1c0.2,0,0.3,0,0.4-0.1
			c0.1-0.1,0.2-0.2,0.2-0.4c0-0.2-0.1-0.3-0.2-0.4c-0.1-0.1-0.2-0.1-0.4-0.1h-1.1v-1.8c0-0.2-0.1-0.3-0.2-0.4
			c-0.1-0.1-0.3-0.2-0.4-0.2s-0.3,0.1-0.4,0.2c-0.1,0.1-0.2,0.3-0.2,0.4v1.8h-0.6c-0.2,0-0.3,0-0.4,0.1c-0.1,0.1-0.2,0.2-0.2,0.4
			c0,0.1,0.1,0.3,0.2,0.4c0.1,0.1,0.2,0.1,0.4,0.1h0.6v3.1c0,0.5,0.1,0.9,0.3,1.2c0.2,0.4,0.4,0.6,0.8,0.9c0.3,0.2,0.7,0.3,1.1,0.3
			h0.2c0.2,0,0.4-0.1,0.5-0.2c0.1-0.1,0.2-0.3,0.2-0.4c0-0.2-0.1-0.3-0.2-0.4C106.5,178.8,106.4,178.7,106.2,178.7z"/>
		<path d="M110.3,173.2c-0.2,0-0.3,0.1-0.5,0.2c-0.1,0.1-0.2,0.3-0.2,0.5v5.5c0,0.2,0.1,0.3,0.2,0.5c0.1,0.1,0.3,0.2,0.5,0.2
			c0.2,0,0.3-0.1,0.5-0.2c0.1-0.1,0.2-0.3,0.2-0.5v-5.5c0-0.2-0.1-0.3-0.2-0.5C110.6,173.2,110.5,173.2,110.3,173.2z"/>
		<path d="M110.3,170.4c-0.2,0-0.4,0.1-0.6,0.2s-0.2,0.4-0.2,0.6c0,0.2,0.1,0.4,0.2,0.6s0.4,0.2,0.6,0.2c0.2,0,0.4-0.1,0.6-0.2
			s0.2-0.4,0.2-0.6c0-0.2-0.1-0.4-0.2-0.6S110.5,170.4,110.3,170.4z"/>
		<path d="M119.3,173.6c-0.5-0.3-1.1-0.4-1.8-0.4c-0.7,0-1.3,0.1-1.8,0.4c-0.5,0.3-0.9,0.7-1.2,1.2c-0.3,0.5-0.4,1.1-0.4,1.8
			c0,0.7,0.1,1.3,0.4,1.8c0.3,0.5,0.7,0.9,1.2,1.2c0.5,0.3,1.1,0.4,1.8,0.4c0.7,0,1.3-0.1,1.8-0.4c0.5-0.3,0.9-0.7,1.2-1.2
			c0.3-0.5,0.4-1.1,0.4-1.8c0-0.7-0.1-1.3-0.4-1.8C120.2,174.3,119.8,173.9,119.3,173.6z M119.5,177.8c-0.2,0.3-0.4,0.6-0.8,0.8
			c-0.3,0.2-0.7,0.3-1.1,0.3c-0.4,0-0.8-0.1-1.1-0.3c-0.3-0.2-0.6-0.5-0.8-0.8c-0.2-0.3-0.3-0.7-0.3-1.2c0-0.5,0.1-0.9,0.3-1.2
			c0.2-0.3,0.4-0.6,0.8-0.8c0.3-0.2,0.7-0.3,1.1-0.3c0.4,0,0.8,0.1,1.1,0.3c0.3,0.2,0.6,0.5,0.8,0.8s0.3,0.8,0.3,1.2
			C119.8,177,119.7,177.4,119.5,177.8z"/>
		<path d="M129,173.5c-0.4-0.2-1-0.4-1.5-0.4c-0.5,0-1,0.1-1.5,0.4c-0.2,0.1-0.4,0.3-0.6,0.5v-0.1c0-0.2-0.1-0.3-0.2-0.5
			c-0.1-0.1-0.3-0.2-0.5-0.2c-0.2,0-0.3,0.1-0.5,0.2c-0.1,0.1-0.2,0.3-0.2,0.5v5.5c0,0.2,0.1,0.3,0.2,0.5c0.1,0.1,0.3,0.2,0.5,0.2
			c0.2,0,0.3-0.1,0.5-0.2c0.1-0.1,0.2-0.3,0.2-0.5v-3.5c0-0.3,0.1-0.6,0.2-0.8c0.2-0.2,0.4-0.4,0.7-0.6c0.3-0.1,0.6-0.2,0.9-0.2
			c0.4,0,0.7,0.1,1,0.2c0.3,0.1,0.5,0.4,0.7,0.7c0.2,0.3,0.3,0.7,0.3,1.1v3c0,0.2,0.1,0.3,0.2,0.5c0.1,0.1,0.3,0.2,0.5,0.2
			c0.2,0,0.3-0.1,0.5-0.2c0.1-0.1,0.2-0.3,0.2-0.5v-3c0-0.7-0.1-1.3-0.4-1.7C129.8,174.1,129.4,173.7,129,173.5z"/>
		<path d="M143.5,173.5c-0.4-0.2-1-0.4-1.5-0.4c-0.5,0-1,0.1-1.5,0.4c-0.2,0.1-0.4,0.3-0.6,0.5v-0.1v-2.9c0-0.2-0.1-0.3-0.2-0.5
			c-0.1-0.1-0.3-0.2-0.5-0.2c-0.2,0-0.3,0.1-0.5,0.2c-0.1,0.1-0.2,0.3-0.2,0.5v2.9v3v2.5c0,0.2,0.1,0.3,0.2,0.5
			c0.1,0.1,0.3,0.2,0.5,0.2c0.2,0,0.3-0.1,0.5-0.2c0.1-0.1,0.2-0.3,0.2-0.5v-2.5v-1c0-0.3,0.1-0.6,0.2-0.8c0.2-0.2,0.4-0.4,0.7-0.6
			c0.3-0.1,0.6-0.2,0.9-0.2c0.4,0,0.7,0.1,1,0.2c0.3,0.1,0.5,0.4,0.7,0.7c0.2,0.3,0.3,0.7,0.3,1.1v3c0,0.2,0.1,0.3,0.2,0.5
			c0.1,0.1,0.3,0.2,0.5,0.2c0.2,0,0.3-0.1,0.5-0.2c0.1-0.1,0.2-0.3,0.2-0.5v-3c0-0.7-0.1-1.3-0.4-1.7
			C144.3,174.1,143.9,173.7,143.5,173.5z"/>
		<path d="M152.9,173.6c-0.5-0.3-1-0.4-1.7-0.4c-0.7,0-1.2,0.1-1.7,0.4c-0.5,0.3-0.9,0.7-1.2,1.2c-0.3,0.5-0.4,1.1-0.4,1.8
			c0,0.7,0.2,1.3,0.5,1.8c0.3,0.5,0.7,0.9,1.2,1.2c0.5,0.3,1.1,0.4,1.8,0.4c0.4,0,0.8-0.1,1.2-0.2c0.4-0.1,0.8-0.3,1-0.5
			c0.1-0.1,0.2-0.2,0.2-0.4c0-0.1-0.1-0.3-0.2-0.4c-0.1-0.1-0.2-0.1-0.4-0.1c-0.1,0-0.3,0.1-0.4,0.1c-0.2,0.1-0.4,0.2-0.6,0.3
			c-0.3,0.1-0.5,0.1-0.8,0.1c-0.5,0-0.9-0.1-1.2-0.3c-0.4-0.2-0.6-0.5-0.9-0.8c-0.1-0.2-0.2-0.5-0.3-0.8h4.7c0.2,0,0.3-0.1,0.4-0.2
			c0.1-0.1,0.2-0.2,0.2-0.4c0-0.7-0.1-1.2-0.4-1.7C153.7,174.2,153.4,173.8,152.9,173.6z M150.1,174.5c0.3-0.2,0.7-0.3,1.2-0.3
			c0.4,0,0.8,0.1,1,0.3c0.3,0.2,0.5,0.4,0.7,0.8c0.1,0.2,0.2,0.5,0.2,0.8h-4.1c0-0.2,0.1-0.5,0.2-0.7
			C149.5,175,149.7,174.7,150.1,174.5z"/>
		<path d="M161.7,173.6c-0.5-0.3-1.1-0.5-1.7-0.5c-0.6,0-1.2,0.2-1.7,0.5s-0.9,0.7-1.2,1.2c-0.3,0.5-0.5,1.1-0.5,1.8
			c0,0.7,0.1,1.2,0.4,1.7c0.3,0.5,0.7,0.9,1.1,1.2c0.5,0.3,1,0.5,1.6,0.5c0.6,0,1.1-0.2,1.6-0.5c0.3-0.2,0.5-0.4,0.8-0.7v0.5
			c0,0.2,0.1,0.3,0.2,0.5c0.1,0.1,0.3,0.2,0.5,0.2c0.2,0,0.3-0.1,0.5-0.2c0.1-0.1,0.2-0.3,0.2-0.5v-2.8c0-0.7-0.2-1.2-0.5-1.8
			C162.7,174.3,162.2,173.9,161.7,173.6z M161.9,177.7c-0.2,0.3-0.4,0.6-0.8,0.8c-0.3,0.2-0.7,0.3-1.1,0.3c-0.4,0-0.8-0.1-1.1-0.3
			c-0.3-0.2-0.6-0.5-0.8-0.8c-0.2-0.3-0.3-0.7-0.3-1.2c0-0.4,0.1-0.8,0.3-1.2c0.2-0.3,0.5-0.6,0.8-0.8c0.3-0.2,0.7-0.3,1.1-0.3
			c0.4,0,0.8,0.1,1.1,0.3c0.3,0.2,0.6,0.5,0.8,0.8c0.2,0.4,0.3,0.7,0.3,1.2C162.2,177,162.1,177.4,161.9,177.7z"/>
		<path d="M168.4,178.7h-0.3c-0.2,0-0.3-0.1-0.4-0.3c-0.1-0.2-0.2-0.4-0.2-0.8v-6.7c0-0.2-0.1-0.3-0.2-0.4c-0.1-0.1-0.3-0.2-0.4-0.2
			c-0.2,0-0.3,0.1-0.4,0.2c-0.1,0.1-0.2,0.3-0.2,0.4v6.7c0,0.4,0.1,0.8,0.2,1.2c0.2,0.3,0.4,0.6,0.7,0.8c0.3,0.2,0.6,0.3,1,0.3h0
			c0.2,0,0.4-0.1,0.6-0.2c0.2-0.1,0.2-0.3,0.2-0.4c0-0.2-0.1-0.3-0.2-0.4C168.7,178.8,168.6,178.7,168.4,178.7z"/>
		<path d="M176.3,177.1c-0.2-0.3-0.4-0.5-0.8-0.7c-0.4-0.2-0.8-0.3-1.5-0.5c-0.4-0.1-0.8-0.2-1-0.3c-0.2-0.1-0.4-0.2-0.5-0.3
			s-0.1-0.3-0.1-0.4c0-0.2,0.1-0.4,0.4-0.5c0.3-0.1,0.6-0.2,0.9-0.2c0.3,0,0.6,0,0.8,0.1c0.2,0.1,0.5,0.2,0.7,0.4
			c0.1,0.1,0.3,0.2,0.5,0.2c0.2,0,0.3,0,0.5-0.1c0.1-0.1,0.2-0.2,0.2-0.4c0-0.1,0-0.3-0.2-0.4c-0.2-0.3-0.6-0.5-1-0.7
			c-0.4-0.2-0.9-0.3-1.4-0.3c-0.4,0-0.8,0.1-1.2,0.2c-0.4,0.1-0.7,0.3-1,0.6c-0.2,0.3-0.4,0.6-0.4,1c0,0.5,0.2,0.9,0.6,1.2
			c0.4,0.3,1,0.6,1.8,0.7c0.6,0.1,1.1,0.3,1.3,0.4c0.2,0.2,0.4,0.4,0.4,0.6c0,0.2-0.1,0.4-0.4,0.6c-0.3,0.2-0.6,0.2-1.1,0.2
			c-0.4,0-0.7-0.1-1-0.2c-0.3-0.1-0.5-0.3-0.7-0.4c-0.1-0.1-0.3-0.2-0.4-0.2c-0.2,0-0.3,0-0.5,0.2c-0.1,0.1-0.2,0.2-0.2,0.4
			c0,0.2,0,0.3,0.2,0.5c0.3,0.3,0.7,0.5,1.1,0.7c0.5,0.2,1,0.3,1.6,0.3c0.6,0,1.1-0.1,1.5-0.3c0.4-0.2,0.7-0.4,0.9-0.7
			c0.2-0.3,0.3-0.6,0.3-1C176.6,177.6,176.5,177.3,176.3,177.1z"/>
	</g>
</g>
</svg>
