<?xml version="1.0" encoding="utf-8"?>
<!-- Generator: Adobe Illustrator 26.0.2, SVG Export Plug-In . SVG Version: 6.00 Build 0)  -->
<svg version="1.1" id="Layer_1" xmlns="http://www.w3.org/2000/svg" xmlns:xlink="http://www.w3.org/1999/xlink" x="0px" y="0px"
	 viewBox="0 0 154.9 159.8" style="enable-background:new 0 0 154.9 159.8;" xml:space="preserve">
<style type="text/css">
	.st0{clip-path:url(#SVGID_00000098935835169273560310000006518359547996943493_);}
	.st1{fill:#078543;}
	.st2{fill:#AC2327;}
	.st3{fill:#04AF4B;}
	.st4{fill:#E32E2C;}
	.st5{fill:#51646B;}
	.st6{fill:#F1EFEF;}
	.st7{fill:#CCCCCB;}
	.st8{fill:#FFFFFF;}
	.st9{fill:#F3F1F1;}
</style>
<g>
	<defs>
		<rect id="SVGID_1_" x="5.9" y="6.1" width="143" height="147.5"/>
	</defs>
	<clipPath id="SVGID_00000095316050966909135340000003370023226201868727_">
		<use xlink:href="#SVGID_1_"  style="overflow:visible;"/>
	</clipPath>
	<g style="clip-path:url(#SVGID_00000095316050966909135340000003370023226201868727_);">
		<g id="Group_218">
			<path id="Path_352" class="st1" d="M137.3,68.9c0.5-2.9,3.3-4.8,6.2-4.2c2.1,0.4,3.8,2.1,4.2,4.2v59.2c-0.5,2.9-3.3,4.8-6.2,4.2
				c-2.1-0.4-3.8-2.1-4.2-4.2V68.9z"/>
			<path id="Path_353" class="st1" d="M73.9,117.5c-3.7,4.1-8,7.5-12.8,10.2c-4.9,2.8-10.5,4.3-16.2,4.3c-10.2,0.1-20.1-3.8-27.4-11
				c-3.6-3.5-6.4-7.7-8.4-12.3C7,103.8,5.9,98.5,6,93.2c0-5.2,1-10.4,3-15.3C12.8,68.5,20.2,61,29.6,57c4.9-2.1,10.2-3.1,15.6-3.1
				c5.1,0,10.1,1.1,14.8,3.1c9.3,4.1,16.7,11.6,20.8,20.9c2.1,4.8,3.2,9.9,3.2,15.2v34c0.1,2.8-2,5.1-4.8,5.2
				c-2.8,0.1-5.1-2-5.2-4.8c0-0.1,0-0.3,0-0.4V117.5z M73.9,93.2C74,77.2,61,64.2,45,64.1c-0.1,0-0.2,0-0.2,0
				c-3.9,0-7.7,0.7-11.2,2.3c-7,2.9-12.5,8.5-15.4,15.5c-1.5,3.6-2.3,7.4-2.3,11.3c0,3.9,0.7,7.7,2.3,11.2c3,6.9,8.5,12.5,15.4,15.4
				c14.6,6.2,31.4-0.5,37.6-15.1C72.8,101.1,73.7,97.2,73.9,93.2"/>
			<path id="Path_354" class="st2" d="M68.5,92.9c0-13-10.6-23.5-23.6-23.5c-13,0-23.5,10.6-23.5,23.6c0,13,10.6,23.5,23.6,23.5l0,0
				C57.9,116.5,68.5,106,68.5,92.9C68.5,93,68.5,93,68.5,92.9L68.5,92.9"/>
			<path id="Path_355" class="st3" d="M72.3,65.6c-3.6-3.6-7.7-6.4-12.3-8.5C55.3,55,50.2,54,45.1,54c-5.3,0-10.6,1-15.6,3.1
				c-4.6,2-8.9,4.8-12.4,8.4c-1.2,1.3-2.4,2.6-3.4,4c1.8,3.1,3.9,6.1,6.2,8.9c3.1-5.4,7.9-9.6,13.6-12c3.5-1.5,7.4-2.3,11.2-2.3
				c16-0.1,29,12.9,29.1,28.9c0,0.1,0,0.1,0,0.2c-0.1,2.7-0.6,5.4-1.4,8c3.6,0.1,7.4,0,11.4-0.3v-7.7c0-5.2-1-10.4-3.1-15.2
				C78.7,73.4,75.8,69.2,72.3,65.6"/>
			<path id="Path_356" class="st3" d="M142.4,59.6c3.5-0.1,6.4-3,6.3-6.5c-0.1-3.5-3-6.4-6.5-6.3c-3.5,0.1-6.4,3-6.3,6.5
				c0,1.7,0.7,3.3,1.9,4.5C139,59,140.7,59.6,142.4,59.6"/>
			<path id="Path_357" class="st4" d="M44.9,69.4c-9,0-17.2,5.1-21.1,13.1c9.4,9.4,23.3,16.9,43.3,18.4c4.4-12.3-2-25.8-14.3-30.2
				C50.3,69.8,47.6,69.4,44.9,69.4L44.9,69.4"/>
			<path id="Path_358" class="st3" d="M147.7,87.5V68.9c-0.5-2.9-3.3-4.8-6.2-4.2c-2.1,0.4-3.8,2.1-4.2,4.2v23.5
				C140.9,91,144.4,89.4,147.7,87.5"/>
			<path id="Path_359" class="st5" d="M26.4,144.4h-2.1v-2h2.1V144.4z M26.4,153.4h-2.1v-8h2.1V153.4z"/>
			<path id="Path_360" class="st5" d="M35.7,153.4h-2.1v-4.9c0-0.6,0-1.6-1.4-1.6c-0.9,0-1.7,0.7-1.7,1.6c0,0.1,0,0.2,0,0.2v4.6
				h-2.1v-8h2v1.2l0,0c0.5-0.9,1.4-1.4,2.4-1.4c1.4-0.1,2.6,0.9,2.8,2.3c0,0.1,0,0.2,0,0.4L35.7,153.4z"/>
			<path id="Path_361" class="st5" d="M44.9,153.4h-2.1v-4.9c0-0.6,0-1.6-1.4-1.6c-0.9,0-1.7,0.7-1.7,1.6c0,0.1,0,0.2,0,0.2v4.6
				h-2.1v-8h2v1.2l0,0c0.7-1.4,2.4-1.9,3.7-1.1c0.8,0.4,1.3,1.2,1.4,2.1c0,0.1,0,0.2,0,0.4L44.9,153.4z"/>
			<path id="Path_362" class="st5" d="M50.5,153.6c-2.3,0.1-4.3-1.8-4.4-4.1c-0.1-2.3,1.8-4.3,4.1-4.4c2.3-0.1,4.3,1.8,4.4,4.1
				c0,0.1,0,0.2,0,0.3C54.5,151.8,52.7,153.6,50.5,153.6 M50.5,147c-1.6,0-1.9,1.4-1.9,2.4s0.3,2.4,1.9,2.4c1.6,0,1.9-1.4,1.9-2.4
				S52.1,147,50.5,147"/>
			<path id="Path_363" class="st5" d="M60.1,153.4h-2.2l-2.9-8h2.3l1.7,5.9l0,0l1.7-5.9h2.2L60.1,153.4z"/>
			<path id="Path_364" class="st5" d="M70.3,151.8c0,0.9,0.2,1.2,0.5,1.2v0.3h-2.3c-0.1-0.3-0.2-0.6-0.2-0.9
				c-0.7,0.8-1.6,1.2-2.6,1.1c-1.2,0.1-2.3-0.8-2.4-2.1c0,0,0,0,0,0c0-0.1,0-0.2,0-0.2c-0.1-1.4,1-2.5,2.3-2.6l0,0l1.9-0.3
				c0.3,0,0.7-0.2,0.7-0.6c0-0.9-0.8-0.9-1.4-0.9c-0.6-0.1-1.2,0.3-1.3,0.9c0,0.1,0,0.1,0,0.2h-2c0.2-2.5,2-2.8,3.6-2.8
				c1.1,0,3.2,0.4,3.2,2.3L70.3,151.8z M68.3,149.5c-0.4,0.3-0.9,0.4-1.4,0.4c-0.8,0.1-1.4,0.3-1.4,1.2c0,0.5,0.4,0.9,0.9,0.9h0.1
				c1,0.1,1.8-0.6,1.9-1.6L68.3,149.5L68.3,149.5z"/>
			<path id="Path_365" class="st5" d="M74.6,145.4h1.3v1.5h-1.3v4.3c0,0.5,0,0.6,0.9,0.6c0.1,0,0.3,0,0.4,0v1.6h-1h-0.3
				c-1.8,0-2.1-0.7-2.1-1.7v-4.8h-1.1v-1.5h1.1v-2.2h2.1L74.6,145.4z"/>
			<path id="Path_366" class="st5" d="M84.1,151.1c-0.4,1.6-1.9,2.6-3.5,2.6c-2.3,0-4-1.1-4-4.4c-0.2-2,1.3-3.8,3.3-4.1
				c0,0,0.1,0,0.1,0c0.2,0,0.3,0,0.5,0c1.6,0,3.8,0.7,3.8,4.4v0.4h-5.5c0.1,0.6,0.2,1.9,1.8,1.9c0.6,0,1.1-0.3,1.3-0.9L84.1,151.1
				L84.1,151.1z M82,148.6c0-0.9-0.7-1.7-1.6-1.7c0,0,0,0,0,0h-0.1c-1,0-1.5,0.6-1.6,1.7H82z"/>
			<path id="Path_367" class="st5" d="M92.2,153.4h-2.1v-6.5H89v-1.5h1.2v-0.6c0-1.7,0.9-2.3,2.4-2.3c0.6,0,0.9,0,1.1,0v1.7H93
				c-0.7,0-0.7,0.2-0.7,0.9v0.3h1.4v1.5h-1.4L92.2,153.4L92.2,153.4z"/>
			<path id="Path_368" class="st5" d="M98.1,153.6c-2.3,0.1-4.3-1.8-4.3-4.1c-0.1-2.3,1.8-4.3,4.1-4.3c2.3-0.1,4.3,1.8,4.3,4.1v0.1
				c0.2,2.1-1.4,4-3.5,4.2C98.5,153.6,98.3,153.6,98.1,153.6 M98.1,146.9c-1.6,0-1.9,1.4-1.9,2.4c0,1,0.3,2.4,1.9,2.4
				s1.9-1.4,1.9-2.4C100.1,148.4,99.8,146.9,98.1,146.9"/>
			<path id="Path_369" class="st5" d="M103.7,145.4h2v1.4l0,0c0.3-0.9,1.2-1.6,2.2-1.6h0.4v2.1c-0.2,0-0.4,0-0.6,0
				c-0.9-0.1-1.8,0.5-1.9,1.4c0,0.2,0,0.3,0,0.5v4.2h-2.1L103.7,145.4z"/>
			<path id="Path_370" class="st5" d="M120.3,151.8c0,0.9,0.2,1.2,0.5,1.2v0.3h-2.3c-0.1-0.3-0.2-0.6-0.2-0.9
				c-0.6,0.8-1.6,1.2-2.6,1.2c-1.2,0.1-2.3-0.8-2.4-2.1c0-0.1,0-0.2,0-0.3c-0.1-1.3,1-2.5,2.3-2.6l0,0l1.8-0.3
				c0.3,0,0.7-0.2,0.7-0.6c0-0.9-0.8-0.9-1.4-0.9c-0.6-0.1-1.2,0.3-1.3,1c0,0,0,0.1,0,0.1h-2c0.2-2.5,1.9-2.8,3.6-2.8
				c1.1,0,3.2,0.4,3.2,2.3L120.3,151.8z M118.2,149.5c-0.4,0.3-0.9,0.4-1.4,0.4c-0.8,0.1-1.4,0.3-1.4,1.2c0,0.5,0.4,0.9,0.9,0.9h0.1
				c0.9,0.1,1.8-0.6,1.8-1.6V149.5z"/>
			<rect id="Rectangle_159" x="122.2" y="142.6" class="st5" width="2.1" height="10.8"/>
			<rect id="Rectangle_160" x="126.4" y="142.6" class="st5" width="2.1" height="10.8"/>
			<path id="Path_371" class="st1" d="M128,97.5c0.4-0.8,0.8-1.6,1.1-2.4c-2.8,0.8-7.8,2.3-12.9,3.6c-1.2,1.3-2.7,2.8-4.5,4.4
				L90,123.7l0,0c-1.1,0.9-1.8,2.3-2.1,3.7v0.2c0,0.9,0.2,1.8,0.8,2.5c0.4,0.5,0.9,1,1.5,1.3c0.5,0.3,1.1,0.5,1.7,0.6h0.1
				c0.4,0.1,0.7,0.1,1.1,0.1H126c1.1,0,2.3-0.4,3.1-1.2c0.9-0.8,1.3-1.9,1.3-3.1c0-2.4-2-4.4-4.4-4.4c0,0,0,0,0,0h-23.5l17.9-16.6
				C123.4,104.2,126,101,128,97.5"/>
			<path id="Path_372" class="st3" d="M128.9,79.6c-2-4.9-5.8-8.9-10.6-11.1c-2.5-1.1-5.1-1.7-7.9-1.7c-2.9,0-5.8,0.5-8.4,1.6
				c-2.3,1-4.4,2.3-6.3,4c-1.7,1.5-3,3.3-4.1,5.3c-0.9,1.7-1.4,3.5-1.5,5.4c-0.1,2.3,1.8,4.2,4.1,4.3h0.2c1.2,0.1,2.3-0.4,3-1.4
				c0.6-0.8,1-1.6,1.2-2.5v-0.1c0.6-2.5,2-4.6,4-6.1c2.1-1.5,4.6-2.3,7.1-2.2c1.7,0,3.3,0.3,4.8,0.9c1.4,0.6,2.7,1.5,3.7,2.6
				c1.1,1.1,1.9,2.4,2.5,3.8c0.6,1.5,0.9,3.1,0.9,4.8c0,0.3,0,0.5,0,0.8v0.2c0,0.2,0,0.4-0.1,0.6v0.2c0,0.2-0.1,0.4-0.1,0.6v0.2
				c0,0.2-0.1,0.5-0.1,0.7c-0.2,0.6-0.4,1.3-0.7,1.8c-0.1,0.3-0.3,0.6-0.5,0.9c-0.1,0.1-0.2,0.3-0.3,0.5c-0.9,1.4-1.9,2.8-3.1,4
				c-0.2,0.3-0.5,0.6-0.8,0.9c5.1-1.3,10.2-2.8,12.9-3.6c0.5-1.4,0.8-2.9,1-4.5c0.1-0.6,0.1-1.2,0.2-1.8c0-0.3,0-0.6,0-0.9v-0.3
				C130.4,84.9,129.9,82.2,128.9,79.6"/>
			<path id="Path_373" class="st6" d="M43,42.5c0,0,0-1.3,2.1-0.3c0.6,0.3,1.3,0.7,2.2,1.1c2,1,4.2,1.6,6.4,1.8
				c1.3,0.1,2.5,0,3.8-0.3c5.5-1.4,6.7-3.5,12.6-3.6c2.6,0.1,5.2,0.9,7.5,2.2c0,0-0.7-2.4-6.7-3.4c-2.7-0.4-5.4-0.6-8.1-0.4h-0.4
				c-1.1,0.1-2.2,0-3.3-0.1c-3.4-0.5-8-2.1-9.1-3.9c-1-1.7-0.9-3.9,0.5-4.6c0.1-0.1,0.3-0.1,0.5-0.2c1.3-0.2,2.7,0.4,3.5,1.4
				c2.5,2.6,6,3.9,9.6,3.8c1.6-0.1,3.1-0.4,4.5-0.9c-4.4,0.1-8.6-2.1-11.1-5.7l0,0c-0.2-0.3-0.5-0.7-0.6-1c-0.5-0.8-0.9-1.6-1.3-2.5
				c0,0-1.2-2.8-2.5-5.8l0,0c-0.5-1.1-0.9-2.2-1.3-3.3c0,0-0.1-0.2-0.3-0.7l-13.2-4.4c0,0.1,0,0.2-0.1,0.2l0,0
				c-0.1,0.1-0.2,0.3-0.3,0.4c-0.1,0.1-0.3,0.2-0.4,0.2l0,0c-0.1,0-0.3,0-0.4,0c-0.6-0.1-0.9-0.6-0.8-1.2c0,0,0,0,0,0
				c0-0.1,0-0.2,0.1-0.3l0,0c0.1-0.2,0.2-0.3,0.4-0.4l-0.2-0.1l0.2,0.1l0,0l0,0c0.2-0.1,0.5-0.2,0.7-0.1c0.6,0.1,0.9,0.6,0.8,1.2
				c0,0,0,0,0,0l0,0L51.7,16c-1.3-3-7.5-14.3-23.8-7.9l0.2,0.1l0,0h0.1c0.5,0.1,0.9,0.3,1.3,0.5c1.9,0.8,3.2,2.6,3.3,4.7
				c0.2,2.1,0.2,4.2,0.1,6.3c-0.1,2.2-0.4,4.3-0.9,6.5c-0.6,2.7-0.6,5.5-0.1,8.2c1.1,5.1,4.3,9.5,8.9,12l0,0l1.5,0.8
				c2.6,1.3,5.3,2.2,8.1,2.8c0.8,0.2,1.6,0.3,2.4,0.5c0,0-1.2-0.4-2.7-1C47,48,42.5,45.6,43,42.5 M40.9,22.4l-0.6,0.8L39.7,24
				L40.9,22.4z"/>
			<path id="Path_374" class="st7" d="M69.1,45C68,45.1,67,45.3,66,45.8c-2.2,0.9-4.6,1.5-7,1.8c-1.9,0.2-3.8,0.1-5.7-0.4
				c1.1,0.7,2.3,1.3,3.6,1.8c3.2,1.4,6.8,1.8,10.2,1.1c0,0,9.8-2.8,14.5,0.7C78.6,46.9,74,44.7,69.1,45"/>
			<path id="Path_375" class="st8" d="M53.3,109.5l-2.9-5.7l2.9-1.5l-6.7-4.4l-0.4,8l2.9-1.5l2.8,5.7L53.3,109.5z"/>
			<path id="Path_376" class="st9" d="M35.9,95.7v1.8h-6v-4.7c0-0.2,0-0.4,0.1-0.6c0-0.2,0.1-0.3,0.3-0.5c0.2-0.2,0.4-0.4,0.6-0.6
				l2.3-2c0.1-0.1,0.3-0.3,0.4-0.4c0.1-0.1,0.1-0.2,0.2-0.3c0-0.1,0.1-0.2,0.1-0.3c0-0.1,0-0.2,0-0.3V85c0-0.6-0.3-0.9-0.9-0.9h-0.1
				c-0.6,0-0.9,0.3-0.9,0.9v1.6h-2.3v-1.7c-0.2-1.3,0.7-2.5,2-2.6c0,0,0,0,0,0c0.2,0,0.4,0,0.7,0h1.2c1.3-0.2,2.5,0.7,2.7,2
				c0,0.2,0,0.4,0,0.7v3.6c0,0.3,0,0.5-0.1,0.7c-0.2,0.3-0.4,0.6-0.7,0.8l-2.5,2.2c-0.2,0.2-0.4,0.3-0.5,0.5c0,0.1-0.1,0.2-0.1,0.3
				c0,0.1,0,0.2,0,0.4v2.2L35.9,95.7z"/>
			<path id="Path_377" class="st9" d="M40.9,97.5c-1.3,0.2-2.5-0.7-2.7-1.9c0-0.2,0-0.4,0-0.7v-10c-0.2-1.3,0.7-2.5,2-2.6
				c0,0,0,0,0,0c0.2,0,0.4,0,0.7,0h1.6c1.3-0.2,2.5,0.7,2.6,2c0,0,0,0,0,0c0,0.2,0,0.4,0,0.7v10c0.2,1.3-0.7,2.4-2,2.6c0,0,0,0,0,0
				c-0.2,0-0.4,0-0.7,0L40.9,97.5L40.9,97.5z M41.4,84.1c-0.4-0.1-0.8,0.2-0.9,0.6c0,0,0,0,0,0c0,0.1,0,0.1,0,0.2v9.8
				c0,0.6,0.3,0.9,1,0.9H42c0.4,0.1,0.8-0.2,0.9-0.6c0,0,0,0,0,0c0-0.1,0-0.1,0-0.2V85c0-0.6-0.3-0.9-1-0.9L41.4,84.1z"/>
			<path id="Path_378" class="st9" d="M54.4,93.9h-1.3v3.6h-2.2v-3.6H47l-0.5-1.7l4.4-10h2.2v10h1.3L54.4,93.9L54.4,93.9z
				 M51.2,86.3h-0.1L49,92.2H51L51.2,86.3z"/>
			<path id="Path_379" class="st9" d="M55.6,85.6l-0.5-1.4c1-0.3,1.9-1,2.4-2h0.2l1.5,0.7v14.5H57V85.2L55.6,85.6z"/>
			<path id="Path_380" class="st7" d="M43,42.5c0,0,0.1-1.3,2.1-0.3c2,1,7,4,12.3,2.6s6.9-3.5,12.6-3.6c2.7,0.1,5.3,0.9,7.6,2.2
				c0,0-0.6-2.4-6.7-3.4c-2.6-0.4-5.3-0.6-8-0.4c0.8,0,1.6-0.1,2.5-0.1l-1.9,0.7c-5.9,2.1-12.9,2.6-17.7-2.2
				c-5.7-5.5-4.4-14.8-5.4-22c-0.2-1.6-0.9-3.1-2-4.3c-0.2,0.4-0.7,0.7-1.1,0.6c-0.6-0.1-0.9-0.7-0.8-1.2c0.1-0.3,0.2-0.5,0.4-0.6
				c-2.6-1.6-5.7-2.4-8.8-2.4L27.8,8c2.6,0.4,4.7,2.5,4.9,5.2c0.3,4.3,0.1,8.6-0.8,12.8c-1.5,6-0.7,20.6,20.9,24.2
				C52.7,50.2,42.3,47.1,43,42.5"/>
		</g>
	</g>
</g>
</svg>
