<?xml version="1.0" encoding="utf-8"?>
<!-- Generator: Adobe Illustrator 26.0.2, SVG Export Plug-In . SVG Version: 6.00 Build 0)  -->
<svg version="1.1" id="Layer_1" xmlns="http://www.w3.org/2000/svg" xmlns:xlink="http://www.w3.org/1999/xlink" x="0px" y="0px"
	 viewBox="0 0 553 503" style="enable-background:new 0 0 553 503;" xml:space="preserve">
<style type="text/css">
	.st0{opacity:0.3095;}
	.st1{fill:url(#SVGID_1_);}
	.st2{fill:#FF9100;}
	.st3{fill:#FFB200;}
	.st4{opacity:0.2827;fill:#FFB200;}
	.st5{fill:#0090C6;}
	.st6{opacity:0.2827;}
	.st7{fill:#494949;}
	.st8{fill:#FEFEFE;}
	.st9{fill:#F24B57;}
	.st10{fill:#F4BE90;}
	.st11{fill:#43496D;}
	.st12{opacity:0.3565;}
	.st13{fill:#15233A;}
	.st14{opacity:0.2774;}
	.st15{fill:#252935;}
	.st16{fill:#563624;}
	.st17{fill:#F54B56;}
	.st18{fill:#505982;}
	.st19{fill:url(#SVGID_00000107556719255650808060000009044372782815687332_);}
	.st20{fill:#FF7900;}
	.st21{opacity:0.3015;}
	.st22{opacity:0.1339;}
	.st23{fill:#2C2C2D;}
	.st24{opacity:0.1741;fill:url(#SVGID_00000058589960231333655470000006065776024643356079_);}
	.st25{opacity:0.1741;fill:url(#SVGID_00000078765983481692646400000011833911872821627784_);}
	.st26{opacity:0.1741;fill:url(#SVGID_00000040538280716087537970000011256897347239997372_);}
	.st27{fill:none;stroke:#43496D;stroke-linecap:round;stroke-linejoin:round;}
	.st28{fill:none;stroke:#43496D;stroke-linecap:round;stroke-linejoin:round;stroke-dasharray:0.9449,4.7244;}
	.st29{fill:none;stroke:#43496D;stroke-linecap:round;stroke-linejoin:round;stroke-dasharray:0.981,4.9048;}
	.st30{fill:none;stroke:#43496D;stroke-linecap:round;stroke-linejoin:round;stroke-dasharray:1.0327,5.1636;}
	.st31{fill:none;stroke:#43496D;stroke-linecap:round;stroke-linejoin:round;stroke-dasharray:0.9414,4.707;}
	.st32{fill:url(#SVGID_00000157304240074919400180000003557134581836213934_);}
	
		.st33{clip-path:url(#SVGID_00000177450280423215589480000013039655214630334646_);fill:url(#SVGID_00000134970579454390887810000000181769703545984384_);}
	
		.st34{clip-path:url(#SVGID_00000119079544392567891720000013679329500024476045_);fill:url(#SVGID_00000005945038124928259130000006616556891350244000_);}
</style>
<symbol  id="New_Symbol" viewBox="-265 -224.4 529.9 448.9">
	<g class="st0">
		<linearGradient id="SVGID_1_" gradientUnits="userSpaceOnUse" x1="111.0219" y1="164.6834" x2="148.6458" y2="-19.5047">
			<stop  offset="0" style="stop-color:#D5005B;stop-opacity:0.97"/>
			<stop  offset="3.261257e-02" style="stop-color:#C4005F;stop-opacity:0.97"/>
			<stop  offset="0.123" style="stop-color:#9A0069;stop-opacity:0.97"/>
			<stop  offset="0.2154" style="stop-color:#780071;stop-opacity:0.97"/>
			<stop  offset="0.3089" style="stop-color:#5D0077;stop-opacity:0.97"/>
			<stop  offset="0.4038" style="stop-color:#4A007B;stop-opacity:0.97"/>
			<stop  offset="0.5011" style="stop-color:#3F007E;stop-opacity:0.97"/>
			<stop  offset="0.6045" style="stop-color:#3B007F;stop-opacity:0.97"/>
		</linearGradient>
		<path class="st1" d="M223.4,147.2c-4.7,21.3-29.3,34.9-50.5,30.1c-21.3-4.8-37.1-25.3-39.2-47c-3.2,13.6-18.5,20.7-32.3,22.1
			C84,154.2,65.7,150,52.1,139c-15.6-12.7-23.5-32.7-26.9-52.6c-3.1-18.2-3-37.1,2.5-54.8c5.5-17.6,16.6-33.8,32.3-43.5
			c12.8-7.9,27.9-11.2,42.9-12.1c24.2-1.5,49,3.1,70.2,14.8s38.6,30.8,46.7,53.6c5.1,14.5,6.4,30.1,7,45.5
			c0.7,17.7,0.6,35.5-0.4,53.1c-0.2,3.2-1.3,7.3-4.5,7.3"/>
	</g>
	<g>
		<g>
			<path class="st2" d="M-239.3-90.7c6.4-0.1,12.9-1.5,19.2-2.2c2-0.2,4-0.2,5.9-0.6c2.2-0.3,4.2-1,6.4-1.6c2.6-0.6,5.2-1,7.8-1.1
				c2.2-0.1,4.3,0.7,6.4,1.4c4.7,1.5,9.4,3.1,14,5c9.1,3.6,18,8,26.6,12.8c17.2,9.7,33.2,21.5,48.2,34.3c5.7,4.9,11.3,9.9,16.8,15
				C-44.4,12.9,5.4,121.1,7.4,125.4c0,0-0.9,4.7-0.9,4.7c-1.9-1.2-44.9-24.6-54.9-30.1c-1.1-0.6-2.6-0.2-3.2,1
				c-1.4,2.7-4.2,8-4.6,10c-0.1,0.4,0.5-0.1,0.6,0.3c0.1,0.3,0.4,0.6,0.7,0.9c4.3,4.1,9.4,7.4,14.6,10.4c4.1,2.4,8.3,4.7,12.6,6.9
				c2.1,1.1,3.5,1.9,5.3,3.5c1.8,1.6,3.6,3.3,5.4,4.9c7.1,6.5,14.3,13,21.4,19.5c13.2,12,26.2,24,38.8,36.6c2.3,2.3,4.9,4.8,9.1,2.7
				c2.2-1.1,3.8-3.1,4.8-5.4c0-1.1,1.1-2.9,1.6-3.9c0.6-1.5,1.1-2.9,1.7-4.4c4.9-12.4,9.8-24.8,14.7-37.2c2.5-6.4,5-12.8,7.6-19.2
				c1.2-3,2.4-6,3.6-9c1.2-3,2.1-5.9,3.8-8.6c0.2-0.3,0.4-0.6,0.5-1c0.1-0.4,0.1-0.7,0.1-1.1c0.1-2.3,0-4.7-0.1-7
				c-0.1-0.9-0.1-1.8-0.5-2.6c-0.4-0.8-1.1-1.5-2-1.7c-2.1-0.3-4.3,1.4-5.8,2.6c-1.5,1.2-3,2.5-4.5,3.7c-3.3,2.7-6.7,5.5-10,8.2
				c-5.4,4.5-10.9,8.9-16.3,13.4c0,0-0.1,0-0.1,0c-0.1-3.4-1.9-99.9-26.6-158.9c-4.9-11.6-10.4-23-16.5-34.1
				c-20.3-36.5-47.6-69.3-80.4-95.1c-12.5-9.8-25.9-18.7-40-26c-5.8-3-11.7-5.3-17.6-8c-2.6-1.2-6.1-3.3-7.7,0.3
				c-1.8,4.1-3.3,9.1-4.1,13.5c-0.1,0.4,0.3,0.5,0.4,0.9c0.1,0.4,0.4,0.7,0.6,1c1.2,1.4,2.5,2.8,3.5,4.3c1.3,1.8,2.3,3.7,2.9,5.9
				c0.6,2.4,0.5,5.2,0.6,7.7c0.3,5.5,0.4,11,0.4,16.5c0,6.4-0.2,12.9-0.6,19.3c-0.3,5.3,0,6.8-5.1,5.9c-18.1-3.1-36.2-3.2-54.3,0.3
				c-10,2-20.2,5.9-29.5,10.1c-3.2,1.4-6.4,3-9.2,5.1C-233.6-106.6-238.9-94-239.3-90.7z"/>
		</g>
		<g>
			<path class="st3" d="M85.5,105.6l-38.8,31.9c0,0-0.1,0-0.1,0C46.5,134,44.7,37.5,20-21.5c-4.9-11.6-10.4-23-16.5-34
				C-16.8-92-44-124.8-76.9-150.6c-12.5-9.8-25.9-18.7-40.1-26c-5.8-3-11.7-5.3-17.6-8c-2.4-1.1-5.7-3.5-7-0.4
				c-1,2.3,1.2,9.4,1.5,12c0.8,6.7,1.3,13.4,1.6,20.1c0.3,6.1,0.5,12.3,0.4,18.4c0,6.4-0.2,12.9-0.6,19.3c0,0.7-0.1,1.4-0.1,2
				c-0.2,3.7-0.6,4.7-5,4c0,0-0.1,0-0.1,0c-50.1-8.4-97,12.7-95.7,19.8c0,0.3,0.1,0.5,0.3,0.8c1.2,2,10.8,1.5,13.3,1.8
				c4.9,0.7,9.8,1.6,14.6,2.7c45.9,10.6,84.6,39,118.5,70.6C-49.1,26.9,0.8,135.2,2.7,139.5c0,0,0,0.1-0.1,0
				c-2.2-1.4-31.2-19.6-54.8-30.3c-3.1-1.4-5.8,2.6-3.4,5c31.3,31.3,62.7,62.5,94,93.8c2,2,4.2,4.2,7.6,3.2c0.5-0.1,1-0.3,1.5-0.6
				c2.2-1.1,3.9-3.1,4.8-5.4c10.7-27.1,29.5-74.8,38-96.3C91.5,106.1,87.9,103.6,85.5,105.6z"/>
		</g>
		<path class="st4" d="M85.5,105.6l-38.8,31.9c0,0-0.1,0-0.1,0C46.5,134,44.7,37.5,20-21.5c-4.9-11.6-10.4-23-16.5-34
			C-16.8-92-44-124.8-76.9-150.6c-12.5-9.8-25.9-18.7-40.1-26c-5.8-3-11.7-5.3-17.6-8c-2.4-1.1-5.7-3.5-7-0.4c-1,2.3,1.2,9.4,1.5,12
			c0.8,6.7,1.3,13.4,1.6,20.1c0.3,6.1,0.5,12.3,0.4,18.4c0,6.4-0.2,12.9-0.6,19.3c0,0.7-0.1,1.4-0.1,2
			C-78.2-82.6-35.4-20.5-6.3,41.8c34,72.8,49.3,145.9,52.3,169.5c0.5-0.1,1-0.3,1.5-0.6c2.2-1.1,3.9-3.1,4.8-5.4
			c10.7-27.1,29.5-74.8,38-96.3C91.5,106.1,87.9,103.6,85.5,105.6z"/>
	</g>
	<g>
		<path class="st5" d="M-60.2,148.3h-41.5c-3.5,0-6.3,2.8-6.3,6.3v31.5c0,3.5,2.8,6.3,6.3,6.3h41.5c3.5,0,6.3-2.8,6.3-6.3v-31.5
			C-53.9,151.1-56.7,148.3-60.2,148.3z"/>
		<path class="st5" d="M-76.8,150.1l5.9-9c0.5-0.7,1.6-0.7,1.9,0.1c1.5,3,2.7,6.2,3.7,9.4"/>
	</g>
	<g class="st6">
		<path class="st7" d="M-16.1,18.2c-3.3-8.6,1.9-18.1,2-27.3c0-8.9-4.9-19.4-10.1-26.5c-19-26-48.3-46.5-78.7-57
			c-3.4-1.2-6.9-2.2-10.1-4c-8.6-5.1-12.6-15.3-16-24.8c-2.4-6.7-4.8-13.5-7.2-20.2c-0.4-1-0.7-1.7-1.7-1.6c-0.3,2.8,0,5.7,0,8.5
			c0,6.4-0.2,12.9-0.6,19.3c0,0.7-0.1,1.4-0.1,2c-0.2,3.7-0.6,4.7-5,4c0,0-0.1,0-0.1,0c12.6,28.4,30.4,54.6,52.3,76.7l2.8,2.5
			c8.9,16.5,17.9,33,26.8,49.5c4.5,8.4,9.1,16.8,14.8,24.3c6,7.9,12.7,14.7,23.1,15.2c5.1,0.2,10.8-0.8,14-4.8
			c1.1-1.3,1.8-2.9,2.4-4.6c0.8-2.5,1.3-5.1,1.3-7.7c0.1-4.6-1.1-9.2-3.4-13.2C-11.8,25.1-14.7,22-16.1,18.2z"/>
	</g>
	<g>
		<path class="st8" d="M-87.9,169.1c0-2.2-1.8-4-4-4c-2.2,0-4,1.8-4,4s1.8,4,4,4C-89.7,173.1-87.9,171.3-87.9,169.1z"/>
		<circle class="st8" cx="-80.9" cy="169.1" r="4"/>
		<path class="st8" d="M-66,169.1c0-2.2-1.8-4-4-4c-2.2,0-4,1.8-4,4s1.8,4,4,4C-67.8,173.1-66,171.3-66,169.1z"/>
	</g>
	<g>
		<ellipse class="st9" cx="57.6" cy="12.6" rx="45.2" ry="43.2"/>
		<ellipse class="st8" cx="57.6" cy="12.6" rx="35" ry="33.4"/>
		<ellipse class="st9" cx="57.6" cy="12.6" rx="24.6" ry="23.5"/>
		<ellipse class="st8" cx="57.6" cy="12.6" rx="14.2" ry="13.6"/>
		<ellipse class="st9" cx="57.6" cy="12.6" rx="7.1" ry="6.8"/>
	</g>
	<path class="st9" d="M145.5,36.6c-1.9,1.8-5.1,1.7-7.7-0.2c-1,3-3.5,5-6.1,4.7c-3.1-0.4-5.3-3.9-4.8-7.8c0,0,0.5-6.3,6-11.5
		c1,0.1,7.1,1.3,11,4.8c0.3,0.2,0.6,0.5,0.9,0.8C147.4,30.3,147.8,34.4,145.5,36.6z"/>
	<path class="st9" d="M70-70c-0.5,2.1-2.6,3.4-5.1,3.3c0.7,2.4,0,4.9-1.9,5.8c-2.2,1.2-5.2-0.2-6.7-3c0,0-2.5-4.4-1.2-10.2
		c0.7-0.4,5.2-2.3,9.4-1.8c0.3,0,0.6,0.1,0.9,0.1C68.5-74.9,70.5-72.4,70-70z"/>
	<path class="st9" d="M-143.5,159.7c-2.7,0.1-5-2.1-5.8-5.2c-2.7,1.6-5.9,1.6-7.7-0.4c-2.1-2.3-1.5-6.4,1.4-9.1c0,0,4.5-4.5,12-4.8
		c0.7,0.7,4.6,5.6,5.3,10.8c0.1,0.4,0.1,0.8,0.1,1.2C-138,156.2-140.4,159.5-143.5,159.7z"/>
	<path class="st9" d="M-186.3,61.5c-2.5-1-3.7-3.9-3.1-7.1c-3.2,0.4-6-1-6.9-3.5c-1-3,1.3-6.4,5-7.7c0,0,6-2.2,13,0.5
		c0.4,0.9,1.9,7,0.4,12c-0.1,0.4-0.2,0.8-0.4,1.1C-179.8,60.6-183.4,62.7-186.3,61.5z"/>
	<path class="st9" d="M-165.7,30.6c-1.9-0.1-3.4-1.9-3.7-4.1c-2.1,1-4.3,0.7-5.5-0.9c-1.4-1.8-0.6-4.7,1.7-6.4c0,0,3.6-2.9,8.9-2.6
		c0.4,0.5,2.8,4.3,3,8.1c0,0.3,0,0.6,0,0.9C-161.5,28.5-163.4,30.7-165.7,30.6z"/>
	<g>
		<g>
			<path class="st10" d="M-84.8,48.2c0.5,0.4,0.9,0.8,1.2,1.2c1,1.1,2.3,1.8,3.3,3c1.2,1.4,2.6,2.4,3.3,4.2c0.7,1.7,0.5,3.5,0.1,5.2
				c-0.4,1.3-1,2.6-2,3.5c-1,0.9-2.4,1.5-3.8,1.2c-0.6-0.1-1.2-0.4-1.7-0.8c-1.6-1.2-2.5-3.1-2.9-5c-0.4-1.8,0.1-3.8-0.3-5.5
				c-0.3-1.4-1.6-2.9-2.3-4.1"/>
		</g>
		<g>
			<path class="st11" d="M-82.1-44.8l2.1-2.2c-8.3-7.8-25-7.5-35.3-4.4c-0.4,0.1-1.3,0.5-2.6,1c-8.6,3.3-33.9,13.5-33.9,14.8
				c0.1-18.7-5.2-37-10.4-55c-1.2-4.1-2.8-15.3-8.5-12.3c-0.5,0.2-1,0.6-1.5,1.1c-2.4,2.1-2.7,5.5-2.9,8.7c-1.2,23-1.4,46-0.6,69
				c0.1,3.4,0.4,7.1,2.4,9.8c4.1,5.4,12.5,3.9,19,2.1c17.3-4.6,34.9-5.9,52.4-9.1c5.4-1,11-0.9,16.3-2.4c5.3-1.4,10.6-4.9,12-10.2
				C-72.2-39.2-76.7-45.8-82.1-44.8z"/>
		</g>
		<g class="st12">
			<path class="st13" d="M-110.2-45.1c-2.1-1.6-4.2-3.1-6.4-4.5c-0.8-0.5-1.9-0.6-2.8-0.3c-7,2.7-20.9,8.4-28,11.7
				c-2,1-4.4-0.5-4.5-2.7c-0.8-16.9-5.6-33.4-10.3-49.7c-0.2-0.9-0.5-2-0.8-3.3c-1-4-7-2.6-6.2,1.4c0.1,0.8,0.3,1.5,0.4,2.3
				c4.2,21,7.5,42.1,9.9,63.3c0.2,1.8,1.8,3.1,3.6,2.8c3.4-0.6,6.6-2.1,9.7-3.4c11.1-4.7,22.7-8.5,34.3-12
				C-108.7-40.3-108.1-43.5-110.2-45.1z"/>
		</g>
		<g>
			<g>
				<path class="st11" d="M-60.3-53.8c-4-4.7-9.2-8.7-14.5-11.8c-10.7-6.3-22.5-11.6-34.3-15.4c-10.3-3.3-14.2-10.6-18-20.1
					c-5.4-13.5-11.6-26.7-17.4-40.1c-3.6-8.3-9.2-18-18.2-17.8c3.1,17.7,7,35.2,11.1,52.7c3.5,14.8,4.8,35.2,15,47.2
					c6.6,7.8,15.9,13,24.9,17.8c9,4.8,17.5,10.3,26.2,15.3c6.3,3.6,13,7.4,20.3,7.5c12.9,0.2,14.9-12.4,12-22.5
					C-54.6-45.8-57.1-50.1-60.3-53.8z"/>
			</g>
		</g>
		<g>
			<path class="st5" d="M-35.1,10c-0.2-1-0.4-2-0.7-3.1c-3.5-14.4-10.3-31.5-12.7-36.6c-1-2.3-2.1-4.5-3.6-6.6
				c-0.3-0.4-0.6-0.8-1.1-1c-0.6-0.2-1.3,0.1-1.9,0.1c-3.8,0.4-7.3,0.8-10.6,1.2c-3.7,0.5-7,1-10.1,1.6c-1.2,0.2-2.4,0.5-3.6,0.7
				c-16.7,3.5-23.6,7.7-26.5,10.3c-0.1,0.1-0.2,0.2-0.3,0.3c-1.3,1.3-1.6,2.1-1.6,2.1s3.4,5.8,5.1,8.5c4.5,7.3,8.3,14.9,12.2,22.6
				c2.4,4.8,4.7,9.7,7.1,14.5c2.3,4.6,7,8.7,10.6,12.3c1.1,1.1,2.3,2.1,3.6,2.9c2.1,1.1,4.5,1.3,6.9,1.5c2.5,0.2,5,0.4,7.5-0.1
				c0.8-0.2,1.7-0.4,2.5-0.7c3.1-1,6.1-2.1,8.9-3.8c4-2.4,7.1-6.2,8.9-10.5C-33,23-33.6,17-35.1,10z"/>
		</g>
		<g class="st14">
			<path class="st5" d="M-35.1,10c-0.2-1-0.4-2-0.7-3.1c-3.5-14.4-10.3-31.5-12.7-36.6c-1-2.3-2.1-4.5-3.6-6.6
				c-0.3-0.4-0.6-0.8-1.1-1c-0.6-0.2-1.3,0.1-1.9,0.1c-3.8,0.4-7.3,0.8-10.6,1.2C-43.1-14.1-47.8-3.8-35.1,10z"/>
		</g>
		<g>
			<path class="st5" d="M-65.3,25.7c0.4,0.3,0.7,0.6,0.9,1c0.2,0.5,0,1.1-0.2,1.6c-1.1,3.1,5.7,13.5,2.4,13.3
				c-12.1-0.9-23.2-8.2-32-15.9c4,4.6,6.6,10.2,8.6,15.9c0.9,2.6,1.6,5.3,3,7.7c1.4,2.3-0.6,3.3-2.5,4.5c-0.4,0.2-0.7,0.5-1.1,0.6
				c-2.3,0.6-6.1-3.1-7.7-4.5c-2.4-1.9-4.6-4.1-6.6-6.5c-3.9-4.7-7-10-8.9-15.8c-1.7-5-4.1-13.2,1.9-16c1.9-0.9,3.9-1.1,6-1.1
				c2.5,0,5,0.3,7.4,0.8c1.8,0.4,3.6,0.9,5.4,1.5c1.4,0.4,2.9,0.9,4.3,1.3c1.9,0.6,3.8,1.2,5.6,2c2.6,1.2,4.9,2.9,7.1,4.7
				C-69.7,22.6-67.4,24.1-65.3,25.7z"/>
		</g>
		<g>
			<path class="st5" d="M-39.4,33.9c0,0-0.8-5.1-1.4-6.5c-1-2.6-2.3-5-3.5-7.5c-1.2-2.5-1.9-5.8-1.8-8.6c0.1-1.8,1.2-3.9,1.7-5.7
				c0.6-2,1.2-4.1,1.8-6.1c0.6-2.2,1.7-10-1.3-17.9c-3.3-8.6-7.3-16.8-12-24.7c-0.7-1.3-1.5-2.5-1.8-4c-0.9-4.4,2.9-4.2,5.6-2.4
				c5,3.2,9.2,7.4,13.3,11.7c5.2,5.6,10,12.2,13,19.2c1.4,3.2,2.7,6.5,3,9.9C-19.6,20.9-36.8,31.4-39.4,33.9z"/>
		</g>
		<g>
			<path class="st10" d="M-39.4,50.2c-1.8-4.7-3.4-9.4-4.8-14.3c-2-7.3-13.4-4.2-11.3,3.1c0.3,1.1,0.6,2.1,0.9,3.2
				c0,0.1,0.1,0.3,0.1,0.4c0.6,2,1.2,3.9,1.9,5.8c0,0.1,0.1,0.3,0.2,0.4c0.5,1.5,1.1,3,1.7,4.5c1.2,3,3.9,5,7.2,4.1
				C-40.6,56.7-38.2,53.2-39.4,50.2z"/>
		</g>
		<g>
			<path class="st10" d="M-43,48.8c-1.4-2.8-4.1-4.8-7-5.7c-1.4-0.5-3-0.7-4.5-0.8c0,0.1,0.1,0.3,0.1,0.4c0.6,2,1.2,3.9,1.9,5.8
				c2-0.4,4.1-0.4,6.1,0C-45.3,48.6-44.1,48.9-43,48.8z"/>
		</g>
		<g>
			<path class="st15" d="M-164.8-107.1c0.2,0.1,0.3,0.3,0.5,0.4c0.9,1.1,0.9,2.7,0.9,4.1c0,2.3,0.1,4.5,0.3,6.7
				c0.1,1.1,1.3,4.2-0.7,4.2c-3.5,0-6.9,0-10.4,0c-0.1,0-0.2,0-0.3-0.1c-0.2-0.1-0.2-0.4-0.3-0.6c-0.1-0.9-0.3-2.4-0.8-3.1
				c-0.7-1-2.4-1.4-3.4-1.6c-1.4-0.3-2.9-0.3-4.4-0.3c-3.7-0.1-7.3-0.3-11-0.6c-1.5-0.1-3.2-0.2-4.4-1.1c-2-1.4-2.1-3.5-0.3-4.9
				c2.7-2,6.8-2.4,10-2.7c3.7-0.4,7.4-0.5,11-0.8c2.4-0.2,4.9-0.3,7.3-0.4C-169-107.9-166.4-108.3-164.8-107.1z"/>
		</g>
		<g>
			<path class="st15" d="M-150.1-159.9c0.2,0.1,0.3,0.3,0.5,0.4c1.4,1.7,1.3,4.6,1.5,6.6c0.4,2.6,0.8,5.2,1.4,7.8
				c-4.3-0.6-8.8,1.2-13.1,0.6c-0.2-1.4-0.7-2.8-1.5-3.9c-0.8-1.1-1.7-1.2-3-1.5c-1.4-0.3-2.9-0.3-4.4-0.3c-3.7-0.1-7.3-0.3-11-0.6
				c-1.5-0.1-3.2-0.2-4.4-1.1c-2-1.4-2.1-3.5-0.3-4.9c2.7-2,6.8-2.4,10-2.7c3.7-0.4,7.4-0.5,11-0.8c2.4-0.2,4.9-0.3,7.3-0.4
				C-154.2-160.7-151.6-161-150.1-159.9z"/>
		</g>
		<g>
			<path class="st10" d="M-52.8-45.9c-0.6,0.7-1.3,1.1-2.2,1.2c-2.2,0.2-4.7-2-6.1-3.4c-1.8-1.7-3.2-3.8-4-6.1
				c-0.7-2.1-1.4-6.3,0.6-7.8c2.5-2,6.8,0.8,8.6,2.5c3.1,3,5.6,7.9,4,12.3C-52.1-46.8-52.4-46.3-52.8-45.9z"/>
		</g>
		<g>
			<path class="st16" d="M-51.3,74.2c0.9-1.2,0.5-2.6,0.4-4c-0.1-1.3-0.1-2.7-0.4-4c-0.6-2.7-2.1-5.3-4.1-7.2
				c-1.1-1-2.6-1.8-3.9-1.2c-1.1,0.6-1.4,2.1-1.5,3.4c-0.1,3.9,1,7.8,3,11.2c0.9,1.5,2.2,3,4,3C-52.9,75.5-51.9,75-51.3,74.2z"/>
		</g>
		<g>
			<path class="st10" d="M-47.8,73.1c-4.8,0.3-8.9-3.5-11-7.9c-1.4-3-2.2-6.3-1.9-9.6c0.4-3.3,2-6.6,4.7-8.4c3-2.1,6.8-2.3,10.2-1.5
				c2,0.5,4,1.3,5.7,2.6c0.6,0.5,1.3,0.9,2,1.4c0.4,0.3,0.8,0.9,1.3,1c0.3,0.1,0.6,0.1,1,0.2c0.8,0.1,1.6,0.4,2.3,0.9
				c0.5,0.4,1,0.8,1.2,1.4c0.2,0.4,0.2,0.8,0.3,1.2c0.1,1.4,0.1,2.8,0.4,4.2c0.4,1.7,0.6,3.7-0.4,5.1c-0.8,1.1-2.2,1.5-3.2,2.3
				c-1.1,0.9-1.3,2.4-2.2,3.6c-2,2.7-5.6,4.2-8.5,2.8"/>
		</g>
		<g>
			<path class="st16" d="M-40.5,79.1c-0.2,2.5-1.6,4.9-3.7,6.3c-2.5,1.6-5.9,1.7-8.3,0.1c-5.3-3.4-3.3-11.1,1.2-14.3
				c4.2-2.8,12.8-0.8,14.9-6.6c1.1-3-1.4-6.3-1.3-9.5c0.9,0.1,1.5,1,2.1,1.7c0.6,0.7,1.4,1.5,2.3,1.1c0.7-0.3,1-1.1,1.1-1.8
				c0.1-0.9,0.1-1.9-0.3-2.8c-0.4-0.9-1.2-1.6-2.1-1.7c-0.5-0.1-1,0-1.5,0c-1.5-0.1-2.7-1.1-3.5-2.4c-0.8-1.3-2-3.8,0.3-2.7
				c1.2,0.6,2.4,1.5,3.4,2.4c3.1,2.5,5.7,5.7,7.1,9.5c1,2.8,1.2,5.8,0.3,8.7c-0.3,0.9-0.6,1.7-1.2,2.3c-0.6,0.6-1.6,1-2.4,0.7
				c0,1.5-0.1,3-0.5,4.4c-0.4,1.4-1.2,2.8-2.4,3.6c-1.6,1.1-4,0.9-5.5-0.3C-40.5,78.3-40.5,78.7-40.5,79.1z"/>
		</g>
	</g>
	<g>
		<g>
			<path class="st9" d="M-80.4,68.9c-0.3-0.2-0.4-0.6-0.5-0.9c-1.7-4.1-3-8.3-4-12.6c-0.3-1.1-0.5-2.5,0.3-3.3
				c0.7-0.7,1.8-0.7,2.7-0.4c0.9,0.4,1.5,1.1,2.1,1.9c3.3,4.2,5.2,9.3,6.5,14.5"/>
		</g>
		<g>
			<path class="st17" d="M-61.3,69.3c-0.8-3-2.6-5.7-5.6-6.2c-1.2-0.2-2.5,0-3.8,0.4c-2.6,0.7-5.3,2.2-7.5,2.9
				c-1.8,0.5-3.6,1-5.4,1.3c-1.8,0.3-3.7,0.5-5.6,0.6c-7.4,0.5-14.8-0.4-22.2-0.4l17,40c3.6-6.4,7.6-12.8,12.6-18.3
				c1.4-1.5,2.8-2.9,4.4-4.2c1-0.8,2-1.6,3-2.4c2.6-2,5-4,8-5.4c0.5-0.2,1-0.5,1.5-0.7c1-0.5,1.9-1,2.6-1.8
				C-61.1,73.4-60.8,71.2-61.3,69.3z"/>
		</g>
		<path class="st18" d="M-92.4,92.9c-0.3-2.3-0.8-4.6-1.6-7c-1.3-4-3.2-7.5-5.3-10.3c-4.4-5.9-9.9-8.9-14.6-7.4
			c-7,2.3-9.3,14-5.3,26.1c4,12.1,12.9,20,19.9,17.7C-93.7,110.1-91.1,102.2-92.4,92.9z"/>
		<path class="st15" d="M-94.4,92.5c0-0.3-0.1-0.7-0.2-1c0-0.2,0-0.3-0.1-0.4c-0.2-1.5-0.6-3-1.2-4.6c-0.7-2-1.5-3.9-2.5-5.6
			c-0.2-0.3-0.4-0.6-0.6-1c-0.5-0.8-1-1.6-1.5-2.3c-3.7-5-8.5-7.6-12.5-6.3c-6,2-8,12-4.5,22.4c3.4,10.3,11.1,17.1,17,15.1
			C-95.6,107.2-93.3,100.4-94.4,92.5z"/>
		<g>
			
				<linearGradient id="SVGID_00000178916252513910555830000003692175212376770955_" gradientUnits="userSpaceOnUse" x1="-101.9358" y1="87.5339" x2="-93.6836" y2="84.1979">
				<stop  offset="0" style="stop-color:#FF9100;stop-opacity:0.97"/>
				<stop  offset="0.2321" style="stop-color:#BD7210;stop-opacity:0.97"/>
				<stop  offset="0.5392" style="stop-color:#6C4B24;stop-opacity:0.97"/>
				<stop  offset="0.7573" style="stop-color:#393230;stop-opacity:0.97"/>
				<stop  offset="0.864" style="stop-color:#252935;stop-opacity:0.97"/>
			</linearGradient>
			<path style="fill:url(#SVGID_00000178916252513910555830000003692175212376770955_);" d="M-94.9,89.8c0-0.1,0-0.2-0.1-0.4
				c-0.2-1.2-0.5-2.4-0.9-3.7c-0.5-1.6-1.2-3.1-2-4.5c-0.1-0.3-0.3-0.5-0.4-0.8c-1,0-2.8,0.2-3.8,0.2c-0.2,0-0.4,0-0.6,0
				c-0.8,0-3.2,0.2-3.4,0.3c0,0,0.2,0,0.3,0.5c0.1,0.3,0.2,0.6,0.3,0.9c0.4,1.4,0.9,2.7,1.3,4c0.9,2.7,2,5.3,2.7,8.1
				c0.2,0.3,0.4,0.6,0.6,0.9C-100.5,95.1-96.1,90.9-94.9,89.8z"/>
		</g>
		<path class="st3" d="M-99.7,89.6c-0.1-0.8-0.3-1.6-0.6-2.4c-0.4-1.4-1.1-2.6-1.8-3.5c-1.5-2-3.4-3-5-2.5c-2.4,0.8-3.2,4.8-1.8,8.9
			c1.4,4.1,4.4,6.8,6.8,6C-100.2,95.5-99.3,92.8-99.7,89.6z"/>
		<g>
			<path class="st15" d="M-61.3,69.3c-0.8-3-2.6-5.7-5.6-6.2c-1.2-0.2-2.5,0-3.8,0.4c3,2.5,5.6,7.5,5.8,13.3c1-0.5,1.9-1,2.6-1.8
				C-61.1,73.4-60.8,71.2-61.3,69.3z"/>
		</g>
	</g>
	<g>
		<g class="st6">
			<g>
				<path class="st20" d="M13,120.8c-2-8-4.4-15.8-7-23.5c-2.6-7.8-5.6-15.4-8.9-22.9c-1.9-4.2-3.8-8.5-5.8-12.6
					c-0.3-0.7,0.6-1.2,1-0.6c3.9,7.3,7.4,14.8,10.4,22.4c3,7.7,5.6,15.5,7.8,23.4c1.2,4.5,2.3,9.1,3.3,13.6
					C13.9,121.1,13.2,121.3,13,120.8L13,120.8z"/>
			</g>
		</g>
		<g class="st6">
			<g>
				<path class="st20" d="M8.7,81.6c-2.4-7.9-5.2-15.6-8.2-23.2c-3-7.6-6.4-15.1-10-22.4c-2.1-4.2-4.2-8.3-6.4-12.3
					c-0.4-0.7,0.6-1.2,1-0.6c4.3,7,8.1,14.4,11.5,21.9c3.4,7.5,6.4,15.2,8.9,23c1.5,4.4,2.8,8.9,3.9,13.5
					C9.5,81.9,8.8,82.1,8.7,81.6L8.7,81.6z"/>
			</g>
		</g>
		<g class="st6">
			<g>
				<path class="st20" d="M-1.2,102.8c-0.3-1.1-0.7-2.1-1.1-3.1c-0.3-1-0.7-2.1-1-3.1c-0.6-2-1.3-4-2.1-6c-1.5-4-3.1-8-4.6-12.1
					c-0.2-0.5,0.6-0.9,0.9-0.4c2.1,3.8,3.7,7.9,4.9,12c0.6,2.1,1.3,4.1,1.8,6.2c0.3,1.1,0.5,2.1,0.8,3.2c0.2,1.1,0.3,2.2,0.6,3.3
					C-0.9,102.9-1.2,103-1.2,102.8L-1.2,102.8z"/>
			</g>
		</g>
	</g>
	<g>
		<g class="st6">
			<g>
				<path class="st20" d="M-121.4-137c5,2.8,10,5.8,14.7,9c4.7,3.2,9.3,6.5,13.8,9.9c9.1,7,17.6,14.5,25.7,22.7
					c4.5,4.6,8.8,9.3,12.8,14.3c0.4,0.5-0.3,1.3-0.8,0.8c-7.8-8.3-15.7-16.4-24.2-24c-8.5-7.5-17.3-14.7-26.6-21.2
					c-5.2-3.7-10.5-7.3-16-10.7C-122.2-136.5-121.8-137.2-121.4-137L-121.4-137z"/>
			</g>
		</g>
		<g class="st6">
			<g>
				<path class="st20" d="M-62.1-107.8c-4.2-6.3-9.6-11.8-15.7-16.3c-0.8-0.6-0.1-1.9,0.8-1.3c6.6,4.4,11.9,10.3,15.6,17.2
					C-61.1-107.7-61.8-107.3-62.1-107.8L-62.1-107.8z"/>
			</g>
		</g>
		<g>
			<g>
				<path class="st20" d="M-69.5-80.2c-7.8-8.8-16.5-17-26-24c-2.7-2-5.5-3.8-8.1-5.8c-0.4-0.3,0.1-1,0.6-0.7
					c2.7,1.3,5.1,3.1,7.5,4.8c2.4,1.8,4.8,3.6,7,5.5c4.6,3.8,8.9,7.9,13,12.3c2.3,2.4,4.3,5,6.4,7.6C-68.9-80.3-69.3-80-69.5-80.2
					L-69.5-80.2z"/>
			</g>
		</g>
	</g>
	<g class="st21">
		<path class="st3" d="M-16.1,136.4c-2.7-0.9-5.8-2.5-8.5-3c-2.5-0.5-2.6,1.5-1.1,3c2.2,2.1,4.6,4.1,6.8,6.2
			c20.5,19.6,40,40.1,58.6,61.5c0.6-3.2-5.9-34.3-9.6-46.3C29.8,156.5-10.8,138.1-16.1,136.4z"/>
	</g>
	<g class="st22">
		<path class="st3" d="M-53.8,7.9C-56.9-8.2-68-21.5-79.3-33.5c-16.7,3.5-23.6,7.7-26.5,10.3l0,0c7.9,10,15.8,20,22.7,30.7
			c3.2,5.1,6.4,10.5,11.4,13.7s12.7,3.4,16.3-1.4C-52.8,16.6-53,12-53.8,7.9z"/>
	</g>
	<g>
		<g>
			<g>
				<path class="st23" d="M5.9-36.2c6.7,6.2,13.5,12.4,20.2,18.6c6.7,6.3,13.3,12.5,20,18.8c3.8,3.5,7.5,7,11.2,10.7
					c0.4,0.4-0.2,0.9-0.6,0.6c-3.4-3-6.7-6.2-10-9.4C43.3,0,40-3.1,36.7-6.3C30-12.5,23.4-18.8,16.8-25.1C13-28.7,9.4-32.3,5.6-35.9
					C5.4-36.1,5.7-36.4,5.9-36.2L5.9-36.2z"/>
			</g>
		</g>
		<g>
			<g>
				<path class="st23" d="M1.5-37.2C3-37,4.5-36.8,6-36.5c-0.2,0.2-0.4,0.3-0.6,0.5c-0.1-0.7-0.1-1.4-0.2-2.2c0-0.4-0.1-0.7-0.1-1.1
					c0-0.4-0.1-0.7,0-1.1c0.1-0.2,0.4-0.3,0.6-0.1c0.2,0.3,0.2,0.7,0.3,1.1C5.9-39,6-38.6,6-38.2c0.1,0.7,0.2,1.5,0.3,2.2
					c0,0.3-0.3,0.5-0.6,0.5c-1.4-0.3-2.9-0.7-4.2-1.2C1.3-36.8,1.3-37.2,1.5-37.2L1.5-37.2z"/>
			</g>
		</g>
	</g>
	
		<linearGradient id="SVGID_00000088106016703097708810000017105891939954494850_" gradientUnits="userSpaceOnUse" x1="-851.6764" y1="-997.4301" x2="-839.5368" y2="-1055.9431" gradientTransform="matrix(0.9903 -0.1393 0.1393 0.9903 1221.8964 1062.5493)">
		<stop  offset="0" style="stop-color:#D5005B;stop-opacity:0.97"/>
		<stop  offset="3.261257e-02" style="stop-color:#C4005F;stop-opacity:0.97"/>
		<stop  offset="0.123" style="stop-color:#9A0069;stop-opacity:0.97"/>
		<stop  offset="0.2154" style="stop-color:#780071;stop-opacity:0.97"/>
		<stop  offset="0.3089" style="stop-color:#5D0077;stop-opacity:0.97"/>
		<stop  offset="0.4038" style="stop-color:#4A007B;stop-opacity:0.97"/>
		<stop  offset="0.5011" style="stop-color:#3F007E;stop-opacity:0.97"/>
		<stop  offset="0.6045" style="stop-color:#3B007F;stop-opacity:0.97"/>
	</linearGradient>
	<path style="opacity:0.1741;fill:url(#SVGID_00000088106016703097708810000017105891939954494850_);" d="M263.7,172.8l-5.2,0.7
		c-0.2,1.4-0.6,2.7-1.1,3.9l4.3,3.2c0.6,0.5,0.8,1.4,0.3,2l-4.1,5.4c-0.5,0.6-1.4,0.8-2,0.3l-4.3-3.3c-1,0.8-2.2,1.4-3.4,2l0.8,5.5
		c0.1,0.8-0.4,1.5-1.2,1.6l-6.7,0.9c-0.8,0.1-1.5-0.4-1.6-1.2l-0.8-5.5c-1.3-0.2-2.5-0.5-3.7-0.9l-3.3,4.4c-0.5,0.6-1.4,0.8-2,0.3
		l-5.4-4.1c-0.6-0.5-0.8-1.4-0.3-2l3.3-4.4c-0.8-1-1.5-2.1-2.1-3.3l-5.4,0.8c-0.8,0.1-1.5-0.4-1.6-1.2l-0.9-6.7
		c-0.1-0.8,0.4-1.5,1.2-1.6l5.2-0.7c0.2-1.4,0.5-2.7,0.9-4l-4.2-3.1c-0.6-0.5-0.8-1.4-0.3-2l4.1-5.4c0.5-0.6,1.4-0.8,2-0.3l4,3
		c1.1-0.9,2.3-1.6,3.6-2.2l-0.7-5c-0.1-0.8,0.4-1.5,1.2-1.6l6.7-0.9c0.8-0.1,1.5,0.4,1.6,1.2l0.7,4.9c1.4,0.2,2.8,0.5,4.2,1l3-4
		c0.5-0.6,1.4-0.8,2-0.3l5.4,4.1c0.6,0.5,0.8,1.4,0.3,2l-3,4c0.8,1.1,1.5,2.3,2.1,3.7l5.1-0.7c0.8-0.1,1.5,0.4,1.6,1.2l0.9,6.7
		C265.1,171.9,264.5,172.7,263.7,172.8z M239.7,161.3c-5.3,0.7-9,5.7-8.3,11c0.7,5.3,5.7,9,11,8.3c5.3-0.7,9-5.7,8.3-11
		C249.9,164.2,245,160.5,239.7,161.3z"/>
	
		<linearGradient id="SVGID_00000037681335184325402000000013486507338868253617_" gradientUnits="userSpaceOnUse" x1="-971.031" y1="-984.6224" x2="-958.8914" y2="-1043.1354" gradientTransform="matrix(0.9903 -0.1393 0.1393 0.9903 1221.8964 1062.5493)">
		<stop  offset="0" style="stop-color:#D5005B;stop-opacity:0.97"/>
		<stop  offset="3.261257e-02" style="stop-color:#C4005F;stop-opacity:0.97"/>
		<stop  offset="0.123" style="stop-color:#9A0069;stop-opacity:0.97"/>
		<stop  offset="0.2154" style="stop-color:#780071;stop-opacity:0.97"/>
		<stop  offset="0.3089" style="stop-color:#5D0077;stop-opacity:0.97"/>
		<stop  offset="0.4038" style="stop-color:#4A007B;stop-opacity:0.97"/>
		<stop  offset="0.5011" style="stop-color:#3F007E;stop-opacity:0.97"/>
		<stop  offset="0.6045" style="stop-color:#3B007F;stop-opacity:0.97"/>
	</linearGradient>
	<path style="opacity:0.1741;fill:url(#SVGID_00000037681335184325402000000013486507338868253617_);" d="M147.3,202.1l-5.2,0.7
		c-0.2,1.4-0.6,2.7-1.1,3.9l4.3,3.2c0.6,0.5,0.8,1.4,0.3,2l-4.1,5.4c-0.5,0.6-1.4,0.8-2,0.3l-4.3-3.3c-1,0.8-2.2,1.4-3.4,2l0.8,5.5
		c0.1,0.8-0.4,1.5-1.2,1.6l-6.7,0.9c-0.8,0.1-1.5-0.4-1.6-1.2l-0.8-5.5c-1.3-0.2-2.5-0.5-3.7-0.9l-3.3,4.4c-0.5,0.6-1.4,0.8-2,0.3
		l-5.4-4.1c-0.6-0.5-0.8-1.4-0.3-2l3.3-4.4c-0.8-1-1.5-2.1-2.1-3.3l-5.4,0.8c-0.8,0.1-1.5-0.4-1.6-1.2l-0.9-6.7
		c-0.1-0.8,0.4-1.5,1.2-1.6l5.2-0.7c0.2-1.4,0.5-2.7,0.9-4l-4.2-3.1c-0.6-0.5-0.8-1.4-0.3-2l4.1-5.4c0.5-0.6,1.4-0.8,2-0.3l4,3
		c1.1-0.9,2.3-1.6,3.6-2.2l-0.7-5c-0.1-0.8,0.4-1.5,1.2-1.6l6.7-0.9c0.8-0.1,1.5,0.4,1.6,1.2l0.7,4.9c1.4,0.2,2.8,0.5,4.2,1l3-4
		c0.5-0.6,1.4-0.8,2-0.3l5.4,4.1c0.6,0.5,0.8,1.4,0.3,2l-3,4c0.8,1.1,1.5,2.3,2.1,3.7l5.1-0.7c0.8-0.1,1.5,0.4,1.6,1.2l0.9,6.7
		C148.6,201.2,148.1,202,147.3,202.1z M123.3,190.6c-5.3,0.7-9,5.7-8.3,11c0.7,5.3,5.7,9,11,8.3c5.3-0.7,9-5.7,8.3-11
		C133.5,193.5,128.6,189.8,123.3,190.6z"/>
	
		<linearGradient id="SVGID_00000096045789010661489220000003750467474851350705_" gradientUnits="userSpaceOnUse" x1="183.1143" y1="94.4564" x2="206.891" y2="-20.1473">
		<stop  offset="0" style="stop-color:#D5005B;stop-opacity:0.97"/>
		<stop  offset="3.261257e-02" style="stop-color:#C4005F;stop-opacity:0.97"/>
		<stop  offset="0.123" style="stop-color:#9A0069;stop-opacity:0.97"/>
		<stop  offset="0.2154" style="stop-color:#780071;stop-opacity:0.97"/>
		<stop  offset="0.3089" style="stop-color:#5D0077;stop-opacity:0.97"/>
		<stop  offset="0.4038" style="stop-color:#4A007B;stop-opacity:0.97"/>
		<stop  offset="0.5011" style="stop-color:#3F007E;stop-opacity:0.97"/>
		<stop  offset="0.6045" style="stop-color:#3B007F;stop-opacity:0.97"/>
	</linearGradient>
	<path style="opacity:0.1741;fill:url(#SVGID_00000096045789010661489220000003750467474851350705_);" d="M235.6,61h-10.2
		c-0.8,2.6-1.8,5-3.1,7.3l7.4,7.4c1.1,1.1,1.1,2.9,0,4l-9.4,9.4c-1.1,1.1-2.9,1.1-4,0l-7.5-7.5c-2.2,1.2-4.6,2.2-7.1,2.9v10.8
		c0,1.6-1.3,2.8-2.8,2.8h-13.3c-1.6,0-2.8-1.3-2.8-2.8V84.4c-2.5-0.7-4.8-1.6-7-2.8l-7.7,7.7c-1.1,1.1-2.9,1.1-4,0l-9.4-9.4
		c-1.1-1.1-1.1-2.9,0-4l7.5-7.5c-1.3-2.2-2.3-4.6-3.1-7.1h-10.6c-1.6,0-2.8-1.3-2.8-2.8V45.2c0-1.6,1.3-2.8,2.8-2.8h10.3
		c0.7-2.6,1.6-5.1,2.9-7.5l-7.2-7.2c-1.1-1.1-1.1-2.9,0-4l9.4-9.4c1.1-1.1,2.9-1.1,4,0l7,7c2.4-1.4,4.9-2.5,7.6-3.3V8
		c0-1.6,1.3-2.8,2.8-2.8h13.3c1.6,0,2.8,1.3,2.8,2.8v9.7c2.7,0.7,5.4,1.8,7.8,3.2L216,14c1.1-1.1,2.9-1.1,4,0l9.4,9.4
		c1.1,1.1,1.1,2.9,0,4l-6.9,6.9c1.3,2.4,2.4,5,3.1,7.7h10c1.6,0,2.8,1.3,2.8,2.8v13.3C238.5,59.7,237.2,61,235.6,61z M192.2,32.1
		c-10.5,0-19,8.5-19,19c0,10.5,8.5,19,19,19c10.5,0,19-8.5,19-19C211.2,40.6,202.7,32.1,192.2,32.1z"/>
	<g>
		<g>
			<path class="st20" d="M20.5-82.9c-4.6-8.8-9.7-17.4-15.2-25.8C-0.1-117.1-6-125.2-12.3-133c-6.2-7.8-12.7-15.3-19.6-22.4
				c-6.9-7.2-14.1-14-21.6-20.5c-7.6-6.6-15.5-12.7-23.6-18.6c-1-0.7-2-1.4-3-2.2c-0.2-0.2,0-0.5,0.2-0.4
				c8.3,5.6,16.2,11.7,23.9,18.1c7.6,6.4,15,13.2,22,20.3c7,7.2,13.7,14.7,20.1,22.5c6.3,7.7,12.2,15.8,17.7,24.1
				c5.5,8.3,10.7,16.9,15.4,25.8c0.6,1.1,1.2,2.2,1.7,3.3C20.8-82.8,20.6-82.7,20.5-82.9L20.5-82.9z"/>
		</g>
	</g>
	<g>
		<g>
			<path class="st20" d="M10.5-120.1c-5.9-9.5-12.6-18.5-20-26.8c-2.1-2.4-4.3-4.7-6.5-7c-0.1-0.1,0.1-0.3,0.2-0.2
				c7.9,8,15,16.7,21.3,26c1.8,2.6,3.5,5.3,5.1,8C10.8-120.1,10.6-120,10.5-120.1L10.5-120.1z"/>
		</g>
	</g>
	<g>
		<g>
			<g>
				<path class="st20" d="M-164-175c-8.2-5.5-16.3-11.1-24.3-16.9c-7.9-5.7-15.6-11.6-23.3-17.6c-4.4-3.4-8.7-6.9-13-10.5
					c-0.1-0.1,0.1-0.3,0.2-0.2c7.7,6.2,15.4,12.3,23.2,18.3c7.8,5.9,15.7,11.7,23.7,17.3c4.5,3.2,9,6.3,13.6,9.4
					C-163.7-175.1-163.9-174.9-164-175L-164-175z"/>
			</g>
		</g>
		<g>
			<g>
				<path class="st20" d="M-189.9-181.8c-7.9-5.2-15.5-10.9-22.7-17c-2.1-1.8-4.1-3.5-6.1-5.4c-0.1-0.1,0.1-0.3,0.2-0.2
					c7.1,6.3,14.4,12.3,22.2,17.8c2.2,1.6,4.4,3.1,6.6,4.6C-189.6-181.9-189.7-181.7-189.9-181.8L-189.9-181.8z"/>
			</g>
		</g>
		<g>
			<g>
				<path class="st20" d="M-192.1-171.5c-9.8-6.4-19.6-12.9-29.1-19.7c-9.6-6.8-19-13.7-28.3-20.9c-5.2-4-10.3-8-15.4-12.1
					c-0.2-0.1,0.1-0.3,0.2-0.2c9.2,7.3,18.5,14.5,27.9,21.5c9.4,6.9,18.8,13.7,28.5,20.3c5.4,3.7,10.9,7.4,16.3,11
					C-191.8-171.6-191.9-171.4-192.1-171.5L-192.1-171.5z"/>
			</g>
		</g>
	</g>
	<g>
		<path class="st10" d="M-82.4,56.3c1.8,0.6,3,2.2,3.7,4c0.7,1.9,0.6,3.9-1.2,5c-0.6,0.4-1.3,0.7-2,0.7c-1.3,0-2.3-1-3.1-2
			c-0.7-0.9-1.2-1.8-1.6-2.8c-0.3-0.8-0.8-2.1-0.5-3C-86.4,56.5-84,55.8-82.4,56.3z"/>
	</g>
	<g>
		<g>
			<path class="st27" d="M-126.8,143.5c0.1-0.2,0.1-0.3,0.2-0.5"/>
			<path class="st28" d="M-124.9,138.6c3.9-9.8,8.3-19.4,13.2-28.8"/>
			<path class="st27" d="M-110.6,107.8c0.1-0.1,0.2-0.3,0.2-0.4"/>
		</g>
	</g>
	<g>
		<g>
			<path class="st27" d="M-180.6,131c0.1-0.1,0.2-0.2,0.4-0.3"/>
			<path class="st29" d="M-176.6,127.4c15.7-13.6,33.3-25,52.1-33.9"/>
			<path class="st27" d="M-122.3,92.5c0.2-0.1,0.3-0.1,0.5-0.2"/>
		</g>
	</g>
	<g>
		<g>
			<path class="st27" d="M-204.6,107.5c0.1-0.1,0.3-0.1,0.4-0.2"/>
			<path class="st30" d="M-199.4,105.2c20.9-8.7,53.8-15.7,75.5-19"/>
			<path class="st27" d="M-121.4,85.8c0.2,0,0.3,0,0.5-0.1"/>
		</g>
	</g>
	<g>
		<g>
			<path class="st27" d="M-169.8,77.9c0.2,0,0.3,0,0.5,0"/>
			<path class="st31" d="M-164.6,77.6c12.4-0.6,24.9-1,37.1,0.6"/>
			<path class="st27" d="M-125.1,78.5c0.2,0,0.3,0.1,0.5,0.1"/>
		</g>
	</g>
	<g>
		<g>
			<path class="st3" d="M-137.6,26.9c-7.9,5.4-9.9,14.6-5.4,22.9c1.9,3.4-3.8,5.7-5.6,2.3c-5.7-10.6-2.5-23.3,7.4-30.1
				C-138,19.9-134.3,24.7-137.6,26.9L-137.6,26.9z"/>
		</g>
		<g>
			<path class="st3" d="M-130.8,34.9c-2.7,1.8-5.1,6.8-3.3,9.9c2,3.3-2.9,7-4.9,3.6c-3.5-5.9-1.3-14.6,4.5-18.4
				C-131.2,27.9-127.5,32.7-130.8,34.9L-130.8,34.9z"/>
		</g>
		<g>
			<path class="st3" d="M-126.3,39c3.6,1.5,1.2,7.1-2.4,5.6C-132.3,43-129.9,37.5-126.3,39L-126.3,39z"/>
		</g>
	</g>
</symbol>
<g>
	<g>
		
			<linearGradient id="SVGID_00000101783392448151284640000011100908506251538603_" gradientUnits="userSpaceOnUse" x1="276.5" y1="53.4672" x2="276.5" y2="187.495" gradientTransform="matrix(1 0 0 -1 0 503)">
			<stop  offset="0" style="stop-color:#432B7D"/>
			<stop  offset="1" style="stop-color:#D21F39"/>
		</linearGradient>
		<path style="fill:url(#SVGID_00000101783392448151284640000011100908506251538603_);" d="M478.5,452.9
			c-22.1,53.6-67,45.1-87.3,21.4c-28.8-33.7-17.4-55.2-83.8-34.4c-48.9,15.3-99.8-13.6-91.1-69.5c12.1-78.1-58-42.3-94.8-52.3
			c-75.9-20.5-55.3-72.8-27.5-162c28.5-91.6,84.5-131.2,167.4-142.8c61.2-8.5,114.7,0.5,129.9,48.6c21.8,69.3-51.2,92.5,10.4,111.2
			c36.9,11.2,88.9,52.3,41.8,118.3C396.5,357.2,510.3,375.5,478.5,452.9z"/>
		<g>
			<g>
				<defs>
					<path id="SVGID_00000021081728762200915800000011587549563965619888_" d="M478.5,452.9c-22.1,53.6-67,45.1-87.3,21.4
						c-28.8-33.7-17.4-55.2-83.8-34.4c-48.9,15.3-99.8-13.6-91.1-69.5c12.1-78.1-58-42.3-94.8-52.3c-75.9-20.5-55.3-72.8-27.5-162
						c28.5-91.6,84.5-131.2,167.4-142.8c61.2-8.5,114.7,0.5,129.9,48.6c21.8,69.3-51.2,92.5,10.4,111.2
						c36.9,11.2,88.9,52.3,41.8,118.3C396.5,357.2,510.3,375.5,478.5,452.9z"/>
				</defs>
				<clipPath id="SVGID_00000060749077183759223420000014063519630433518218_">
					<use xlink:href="#SVGID_00000021081728762200915800000011587549563965619888_"  style="overflow:visible;"/>
				</clipPath>
				
					<linearGradient id="SVGID_00000088102859119389913700000000801233449019900325_" gradientUnits="userSpaceOnUse" x1="285.5387" y1="66.3388" x2="285.5387" y2="279.976" gradientTransform="matrix(1 0 0 -1 0 503)">
					<stop  offset="0" style="stop-color:#432B7D"/>
					<stop  offset="1" style="stop-color:#D21F39"/>
				</linearGradient>
				
					<path style="clip-path:url(#SVGID_00000060749077183759223420000014063519630433518218_);fill:url(#SVGID_00000088102859119389913700000000801233449019900325_);" d="
					M536.7,384.5c-17.7,7.5-39.9,5.9-57.9-4.4c-11.5-6.6-19.8-13.2-27.3-19c-22.7-17.9-32-25.3-83.5,13.6
					c-27.9,21-62.8,27.3-91.1,16.4c-24.9-9.6-41.8-31.2-47.5-60.9c-4.6-24.4-12.7-39.4-24.4-45.6c-16.8-8.9-40,1.2-62.4,10.9
					C127.6,302.2,112,309,98.2,310c-30.8,2.4-53.1-3-68.2-16.4C1.7,268.5-0.2,217.4-2.9,146.6c-0.2-5.5-0.5-11-0.7-16.6
					C-6,71.2,4.4,23.3,28.4-16.4c22.4-37.1,56.9-67.5,105.5-92.9c37.4-19.6,70.5-30,98.5-31c32.6-1.2,58.4,10.3,76.5,34.3
					c26,34.3,22.8,65.5,20.5,88.3c-1.4,13.6-2.5,24.4,3.4,30.5c5.1,5.5,15.8,7.5,33.5,6.6c27.5-1.3,67.5,7,89.6,34.9
					c17.4,22.1,21,51.8,10.6,88.6c-13.8,48,14.1,64.7,46.4,83.9c30.2,18,64.7,38.4,62.2,90.6c-1.9,39.6-19.1,57.2-33.2,64.9
					C539.9,383.1,538.4,383.8,536.7,384.5z"/>
			</g>
			<g>
				<defs>
					<path id="SVGID_00000170264292345989758370000000148490329644150425_" d="M478.5,452.9c-22.1,53.6-67,45.1-87.3,21.4
						c-28.8-33.7-17.4-55.2-83.8-34.4c-48.9,15.3-99.8-13.6-91.1-69.5c12.1-78.1-58-42.3-94.8-52.3c-75.9-20.5-55.3-72.8-27.5-162
						c28.5-91.6,84.5-131.2,167.4-142.8c61.2-8.5,114.7,0.5,129.9,48.6c21.8,69.3-51.2,92.5,10.4,111.2
						c36.9,11.2,88.9,52.3,41.8,118.3C396.5,357.2,510.3,375.5,478.5,452.9z"/>
				</defs>
				<clipPath id="SVGID_00000029007240935628976650000002217796986968564111_">
					<use xlink:href="#SVGID_00000170264292345989758370000000148490329644150425_"  style="overflow:visible;"/>
				</clipPath>
				
					<linearGradient id="SVGID_00000139252549017125790790000009811137065908681875_" gradientUnits="userSpaceOnUse" x1="294.9534" y1="137.5743" x2="294.9534" y2="318.345" gradientTransform="matrix(1 0 0 -1 0 503)">
					<stop  offset="0" style="stop-color:#432B7D"/>
					<stop  offset="1" style="stop-color:#D21F39"/>
				</linearGradient>
				
					<path style="clip-path:url(#SVGID_00000029007240935628976650000002217796986968564111_);fill:url(#SVGID_00000139252549017125790790000009811137065908681875_);" d="
					M525.1,355.5c-18.5,5.1-40.3,0.7-56.8-12c-10.6-8.1-17.9-15.7-24.4-22.4c-20-20.8-28.4-29.3-84.6,2.5
					c-30.4,17.2-65.8,18.9-92.4,4.3c-23.5-12.8-37.2-36.4-39-66.5c-1.4-24.8-7.4-40.7-18.3-48.4c-15.5-11-39.9-4.2-63.2,2.6
					c-15.8,4.5-32.1,9.1-45.9,8.4c-30.8-1.7-52.3-10-65.5-25.1C10.2,170.2,15,119.2,21.6,48.6c0.5-5.5,1.1-10.9,1.5-16.6
					c5.3-58.6,22.1-104.6,51-140.8c27-33.8,65.2-59.3,116.7-78.1c39.6-14.5,73.8-20.4,101.7-17.8c32.5,3.1,56.5,17.9,71.3,44
					c21.2,37.4,14,67.9,8.8,90.2c-3.2,13.3-5.7,23.8-0.6,30.7c4.4,6,14.6,9.5,32.3,11c27.4,2.3,66,15.8,84.2,46.4
					c14.5,24.1,14,54.1-1.2,89.2c-19.9,45.8,5.5,66,34.9,89.2c27.6,21.8,59,46.6,49.7,98c-7.1,39-26.5,54.2-41.5,60
					C528.6,354.4,526.9,355,525.1,355.5z"/>
			</g>
		</g>
	</g>
</g>
<use xlink:href="#New_Symbol"  width="529.9" height="448.9" x="-265" y="-224.4" transform="matrix(0.9681 0 0 -0.9681 276.5 251.5)" style="overflow:visible;"/>
</svg>
