<svg xmlns="http://www.w3.org/2000/svg" xmlns:xlink="http://www.w3.org/1999/xlink" viewBox="0 0 628.5 410" xmlns:v="https://vecta.io/nano"><style><![CDATA[.d{fill:#fff}.e{fill:#6588f0}.f{opacity:.15}.g{fill:#ffb3a5}.h{fill:#211915}.i{fill:#282828}.j{fill:#5a7ad7}.k{fill:#ad0015}.l{fill:#f2f8ff}.m{fill:#27278b}]]></style><linearGradient id="A" gradientUnits="userSpaceOnUse" x1="320.774" y1="357.459" x2="320.774" y2="256.639"><stop offset="0" stop-color="#432b7d"/><stop offset="1" stop-color="#d21f39"/></linearGradient><path d="M472.7 360c-16.6 40.3-50.4 33.9-65.7 16.1-21.7-25.4-13.1-41.5-63-25.9-36.8 11.5-75.1-10.2-68.5-52.3 9.1-58.7-43.6-31.8-71.3-39.3-57.1-15.4-41.6-54.8-20.7-121.9C204.9 67.8 247 38 309.4 29.3c46-6.4 86.3.4 97.7 36.6 16.4 52.1-38.5 69.6 7.8 83.6 27.8 8.4 66.9 39.3 31.4 89C411 288 496.6 301.8 472.7 360z" fill="url(#A)"/><defs><path id="B" d="M473 359.5c-16.6 40.3-50.4 33.9-65.7 16.1-21.7-25.4-13.1-41.5-63-25.9-36.8 11.5-75.1-10.2-68.5-52.3 9.1-58.7-43.6-31.8-71.3-39.3-57.1-15.4-41.6-54.8-20.7-121.9 21.4-68.9 63.6-98.7 125.9-107.4 46-6.4 86.3.4 97.7 36.6 16.4 52.1-38.5 69.6 7.8 83.6 27.8 8.4 66.9 39.3 31.4 89-35.3 49.5 50.3 63.2 26.4 121.5z"/><path id="C" d="M172.9 273.9c-.1-.1-.2-.1-.3-.1s-.2 0-.3.1-.1.2-.1.3 0 .2.1.3.2.1.3.1.2 0 .3-.1.1-.2.1-.3 0-.2-.1-.3h0zm0 0"/><path id="D" d="M176.8 281.3h-7.5c-.2 0-.4.2-.4.4s.2.4.4.4h7.5c.2 0 .4-.2.4-.4s-.2-.4-.4-.4h0zm0 0"/><path id="E" d="M180.2 83c-.2-.2-.4-.3-.7-.3s-.5.1-.7.3-.3.4-.3.7a1.08 1.08 0 0 0 .3.7c.2.2.4.3.7.3a1.08 1.08 0 0 0 .7-.3c.2-.2.3-.4.3-.7a1.08 1.08 0 0 0-.3-.7h0zm0 0"/></defs><clipPath id="F"><use xlink:href="#B"/></clipPath><linearGradient id="G" gradientUnits="userSpaceOnUse" x1="327.894" y1="347.236" x2="327.894" y2="186.532"><stop offset="0" stop-color="#432b7d"/><stop offset="1" stop-color="#d21f39"/></linearGradient><path d="M516.7 308c-13.3 5.6-30 4.4-43.6-3.3-8.7-5-14.9-9.9-20.5-14.3-17.1-13.5-24.1-19-62.8 10.2-21 15.8-47.2 20.5-68.5 12.3-18.7-7.2-31.4-23.5-35.7-45.8-3.5-18.4-9.6-29.6-18.4-34.3-12.6-6.7-30.1.9-46.9 8.2-11.3 5-23 10.2-33.4 10.9-23.2 1.8-39.9-2.3-51.3-12.3-21.3-18.9-22.7-57.3-24.7-110.6l-.5-12.5c-1.8-44.2 6-80.3 24.1-110.1 16.8-27.9 42.8-50.8 79.4-69.9 28.1-14.7 53-22.6 74.1-23.3 24.5-.9 43.9 7.7 57.5 25.8 19.6 25.8 17.2 49.3 15.4 66.4-1.1 10.2-1.9 18.4 2.6 22.9 3.8 4.1 11.9 5.6 25.2 5 20.7-1 50.8 5.3 67.4 26.3 13.1 16.6 15.8 39 8 66.6-10.4 36.1 10.6 48.7 34.9 63.1 22.7 13.5 48.7 28.9 46.8 68.2-1.4 29.8-14.4 43-25 48.8-1.6.6-2.8 1.2-4.1 1.7z" clip-path="url(#F)" fill="url(#G)"/><defs><path id="H" d="M473 359.5c-16.6 40.3-50.4 33.9-65.7 16.1-21.7-25.4-13.1-41.5-63-25.9-36.8 11.5-75.1-10.2-68.5-52.3 9.1-58.7-43.6-31.8-71.3-39.3-57.1-15.4-41.6-54.8-20.7-121.9 21.4-68.9 63.6-98.7 125.9-107.4 46-6.4 86.3.4 97.7 36.6 16.4 52.1-38.5 69.6 7.8 83.6 27.8 8.4 66.9 39.3 31.4 89-35.3 49.5 50.3 63.2 26.4 121.5z"/></defs><clipPath id="I"><use xlink:href="#H"/></clipPath><linearGradient id="J" gradientUnits="userSpaceOnUse" x1="334.879" y1="293.651" x2="334.879" y2="157.669"><stop offset="0" stop-color="#432b7d"/><stop offset="1" stop-color="#d21f39"/></linearGradient><path d="M508 286.2c-13.9 3.8-30.3.5-42.7-9-8-6.1-13.5-11.8-18.4-16.8-15-15.6-21.4-22-63.6 1.9-22.9 12.9-49.5 14.2-69.5 3.2-17.7-9.6-28-27.4-29.3-50-1.1-18.7-5.6-30.6-13.8-36.4-11.7-8.3-30-3.2-47.5 2-11.9 3.4-24.1 6.8-34.5 6.3-23.2-1.3-39.3-7.5-49.3-18.9-18.7-21.6-15-60-10.1-113.1l1.1-12.5c4-44.1 16.6-78.7 38.4-105.9 20.3-25.4 49-44.6 87.8-58.7 29.8-10.9 55.5-15.3 76.5-13.4 24.4 2.3 42.5 13.5 53.6 33.1 15.9 28.1 10.5 51.1 6.6 67.9-2.4 10-4.3 17.9-.5 23.1 3.3 4.5 11 7.1 24.3 8.3C437.8-1.2 466.8 9 480.5 32c10.9 18.1 10.5 40.7-.9 67.1-15 34.5 4.1 49.6 26.3 67.1 20.8 16.4 44.4 35.1 37.4 73.7-5.3 29.3-19.9 40.8-31.2 45.1l-4.1 1.2z" clip-path="url(#I)" fill="url(#J)"/><circle cx="443.1" cy="323.7" r="12" class="e"/><path d="M444.4 319.6c-.9 0-1.7.7-1.7 1.7 0 .9.7 1.6 1.7 1.6a1.58 1.58 0 0 0 1.6-1.6c0-1-.7-1.7-1.6-1.7h0zm0 2.5c-.5 0-.9-.4-.9-.9s.4-.9.9-.9.9.4.9.9c-.1.5-.4.9-.9.9h0zm5-5.1h-10.1c-.2 0-.4.2-.4.4v10.1c0 .2.2.4.4.4h10.1c.2 0 .4-.2.4-.4v-10.1c0-.2-.2-.4-.4-.4h0zm-7.1 10.1c.2-1 1.1-1.7 2.1-1.7s1.9.7 2.1 1.7h-4.2zm6.7 0h-1.8c-.2-1.4-1.4-2.5-2.9-2.5s-2.7 1.1-2.9 2.5h-1.8v-9.3h9.3v9.3zm-2.1 2.5h-9.7v-9.7c0-.2-.2-.4-.4-.4s-.4.2-.4.4V330c0 .2.2.4.4.4h10.1c.2 0 .4-.2.4-.4s-.2-.4-.4-.4h0zm0 0" class="d"/><circle transform="matrix(.2281 -.9736 .9736 .2281 -65.705 322.7948)" cx="170.7" cy="202.8" r="15.3" class="e"/><path d="M172.7 201.9h-7.1c-.3 0-.6.2-.6.6 0 .3.2.6.6.6h7.1c.3 0 .6-.2.6-.6-.1-.3-.3-.6-.6-.6h0zm0 3.6h-7.1c-.3 0-.6.2-.6.6 0 .3.2.6.6.6h7.1c.3 0 .6-.2.6-.6-.1-.4-.3-.6-.6-.6h0zm7.1-10.7h-14.2c-.3 0-.6.2-.6.6v3h-3c-.3 0-.6.2-.6.6v10.7c0 .3.2.6.6.6h3v3a.55.55 0 0 0 .3.5h.2a.76.76 0 0 0 .4-.2l3.4-3.4h6.9c.3 0 .6-.2.6-.6v-3h3c.3 0 .6-.2.6-.6v-10.7c-.1-.2-.3-.5-.6-.5h0zm-4.1 14.2h-6.6a.76.76 0 0 0-.4.2l-2.6 2.6v-2.2c0-.3-.2-.6-.6-.6h-3v-9.6h3 0 0 10.1v9.6zm3.5-3.5h-2.5v-6.6c0-.3-.2-.6-.6-.6H166v-2.5h13.1v9.7zm0 0" class="d"/><path d="M198.9 241.9a11.29 11.29 0 1 1 22.6 0 11.29 11.29 0 1 1-22.6 0z" class="e"/><path d="M211.3 238a1.5 1.5 0 1 0 0 3 1.47 1.47 0 0 0 1.5-1.5c.1-.8-.6-1.5-1.5-1.5h0zm0 2.4c-.4 0-.8-.4-.8-.8s.4-.8.8-.8.8.4.8.8-.3.8-.8.8h0zm4.7-4.8h-9.4c-.2 0-.4.2-.4.4v9.4c0 .2.2.4.4.4h9.4c.2 0 .4-.2.4-.4V236c0-.2-.1-.4-.4-.4h0zm-6.6 9.5c.2-.9 1-1.6 2-1.6s1.8.7 2 1.6h-4zm6.3 0H214c-.2-1.3-1.3-2.4-2.7-2.4s-2.5 1-2.7 2.4H207v-8.7h8.7v8.7zm-2 2.3h-9.1v-9.1c0-.2-.2-.4-.4-.4s-.4.2-.4.4v9.4c0 .2.2.4.4.4h9.4c.2 0 .4-.2.4-.4.1-.1-.1-.3-.3-.3h0zm0 0" class="d"/><path d="M309.9 51.4a9.39 9.39 0 1 1 18.8 0 9.39 9.39 0 1 1-18.8 0z" class="k"/><path d="M319.3 50.1c-.7 0-1.3.6-1.3 1.3s.6 1.3 1.3 1.3 1.3-.6 1.3-1.3-.6-1.3-1.3-1.3h0zm0 1.9a.7.7 0 1 1 0-1.4.7.7 0 1 1 0 1.4h0zm4.9-3.9h-2.8l-1.9-1.9c-.1-.1-.1-.1-.2-.1s-.2 0-.2.1l-1.9 1.9h-2.8c-.2 0-.3.1-.3.3v7.9c0 .2.1.3.3.3h9.9c.2 0 .3-.1.3-.3v-7.9c0-.2-.2-.3-.4-.3h0zm-6.8 7.9c.3-.8 1-1.4 1.9-1.4s1.6.6 1.9 1.4h-3.8zm6.5 0h-2.1c-.1-.5-.4-1-.8-1.3-.5-.4-1.1-.6-1.7-.6s-1.2.2-1.7.6c-.4.4-.7.8-.8 1.3h-2.1v-7.3h2.7c.1 0 .2 0 .2-.1l1.8-1.8 1.8 1.8c.1.1.1.1.2.1h2.7V56zm0 0" class="d"/><path d="M420 98.8c0-8.4 6.8-15.2 15.2-15.2s15.2 6.8 15.2 15.2-6.8 15.2-15.2 15.2-15.2-6.8-15.2-15.2z" class="k"/><path d="M443.6 91.1h-16.7a.47.47 0 0 0-.5.5V105a.47.47 0 0 0 .5.5h2.8v2.8a.55.55 0 0 0 .3.5h.2a.76.76 0 0 0 .4-.2l3.2-3.2h9.8a.47.47 0 0 0 .5-.5V91.6c0-.3-.3-.5-.5-.5h0zm-.6 13.4h-9.5a.76.76 0 0 0-.4.2l-2.5 2.5V105a.47.47 0 0 0-.5-.5h-2.8V92.1H443v12.4zm-3.4-6.6l-3.2-3.3c-.1-.2-.4-.2-.6-.1a.55.55 0 0 0-.3.5v1.4c-.5.1-1.3.2-2.1.6-1.2.6-2.7 1.9-2.7 4.6 0 .2.1.4.4.5h.2c.2 0 .3-.1.4-.2 0 0 1.2-1.5 3.9-1.7v1.4a.55.55 0 0 0 .3.5c.2.1.4 0 .6-.1l3.2-3.3c.1-.2.1-.6-.1-.8h0zm-3 2.4v-.6a.47.47 0 0 0-.5-.5c-2 0-3.4.6-4.2 1.2.3-1.1.9-1.9 2-2.4s2.2-.6 2.2-.6a.47.47 0 0 0 .5-.5v-.6l1.9 2-1.9 2zm0 0" class="d"/><path d="M358.8 81.5c0-8.6 7-15.5 15.5-15.5 8.6 0 15.5 7 15.5 15.5 0 8.6-7 15.5-15.5 15.5-8.6.1-15.5-6.9-15.5-15.5z" class="e"/><path d="M385 76.3a.47.47 0 0 0-.6.1l-5 4v-4.8c0-.3-.2-.6-.6-.6H367c-.3 0-.6.2-.6.6v11.8c0 .3.2.6.6.6h11.8c.3 0 .6-.2.6-.6v-4.8l5 4c.1.1.2.1.3.1s.2 0 .2-.1a.55.55 0 0 0 .3-.5v-9.5c.1 0 0-.2-.2-.3h0zm-6.7 10.6h-10.7V76.2h10.7v10.7zm5.9-1.8l-4.5-3.6 4.5-3.6v7.2zm-11.3-6.5c-1.6 0-2.9 1.3-2.9 2.9s1.3 2.9 2.9 2.9 2.9-1.3 2.9-2.9-1.3-2.9-2.9-2.9h0zm0 4.8a1.8 1.8 0 1 1 0-3.6 1.79 1.79 0 0 1 1.8 1.8c0 .9-.8 1.8-1.8 1.8h0zm0 0" class="l"/><path d="M161.2 277.9c0-6.6 5.3-11.9 11.9-11.9s11.9 5.3 11.9 11.9-5.3 11.9-11.9 11.9-11.9-5.3-11.9-11.9z" class="k"/><g class="d"><path d="M179.3 271.3h-12.5c-.2 0-.4.2-.4.4v12.5c0 .2.2.4.4.4h12.5c.2 0 .4-.2.4-.4v-12.5c0-.2-.2-.4-.4-.4h0zm-.4 12.5h-11.7v-11.7h11.7v11.7zm0 0"/><use xlink:href="#C"/><use xlink:href="#C" x="2.1"/><use xlink:href="#C" x="4.2"/><use xlink:href="#D"/><use xlink:href="#D" y="-2.5"/><path d="M175.6 276.3h-5c-.2 0-.4.2-.4.4s.2.4.4.4h5c.2 0 .4-.2.4-.4s-.2-.4-.4-.4h0zm0 0"/></g><linearGradient id="K" gradientUnits="userSpaceOnUse" x1="297.024" y1="290.994" x2="483" y2="290.994"><stop offset="0" stop-color="#432b7d"/><stop offset="1" stop-color="#d21f39"/></linearGradient><path d="M297 291c0-4.8 20.9-8.6 72.3-8.6S483 286.2 483 291s-62.3 8.6-113.7 8.6-72.3-3.8-72.3-8.6z" fill="url(#K)"/><path d="M439.7 181.5c-5.3-.5-7.4-3.2-8.3-8.1-.5-2.4-1.1-5.3 1.9-6.3-3.1 1.3-3.1-2.5-2.6-4.4.6-3.9 3.3-6.5 6.7-8.1-5.2-.9-7.1-8.9-1.3-10.5-2.2 1.6-4.3-.9-4.2-3.1.2-3.3 3.6-5.5 6.3-6.5-2.7-1.7-2-4.4.2-6.4.7-.6 5.1-4.9 6.5-1.5 1.6-6.7 14.4-2.5 9.7 1.5 1.6-2.2 5.7-2.2 7.4-.2 1.8 2.1.6 4.3-.5 6.5 2.2-.1 5.1-1.1 6.1 1.5.9 2.1-.7 4.5-1.9 6.2 2.5-.6 4.8-.6 5.1 2.5.1 1.9-3.6 6.6-2.3 7.7.6.6 3.8-.4 4.7-.3 1.6.1 3.5.4 4.1 2.1 1.2 3.4-3.6 6-5.1 8.2 2.7.1 7.6-1.2 7 3.3-.5 4.1-5.4 5.6-7.1 8.9 2.3 1.5 7.4.6 6.4 5-.8 4-7.3 7-10.9 7.9 1.8-.9 4.6-.6 3.1 1.8-2.3 3.3-11.3 3.4-14.5 2.5-1.6-.3-3.6-1.1-3.5-3.1 0-.7.5-2.3 1.6-2.1 1.2.2-.4 1.7-.5 2-2.3 3.7-6.4 1.9-9.6-.1l-4.5-6.9z" class="m"/><g class="f h"><path d="M454.8 143.3c2.6.7 1.2 2 1.6 3.6.5 2.8.5 2.3 3.1 4 2.8 1.8 1.5 1 2.3 3.6.8 3 1.5 3.5 4.3 5.4 4.6 3.1 3 4.9 1 9.4-.7 1.3-1.8 2.8-2.1 4.1-.8 2.3.3 2.8.7 4.9.5 2.6-.7 5.6-3 6.9-2.5 1.5-6.8 1-9.2-.2-2.8-1.3-3.3-4-5.4-5.4-4.3-2.8-6.8.8-9.4-5.3-1.5-4-2.8-6.6-1.6-11 .8-3.1 3.1-4.8 4.3-7.9 1.2-3 .5-7.6 4.8-8.4l8.6-3.7z"/></g><path d="M444.9 276.5c1.5 3.2 4.3 6.7.4 8.7-1.9 1-3.3.4-6.7 2.8-1.7 1.2-4.6 2.8-6.7 1.4-1-.7-1.5-1.6-.5-1.9 5.3-1.7 7-3.6 10.3-5.2l3.2-5.8z" class="i"/><path d="M453.9 185.5c-3.8-3-5.7-10.9-12.2-3.1-.9 1-3.7 3-6.2 8.1-3.6 7.2-2.8 9.9-.7 20.9 1.3 6.9 4.4 16.2 5.4 23.2 1.2 7.5.3 18.9 1.2 26.4.5 5 2 10 1.5 14.2-.4 3.4-2.4 5.9-4.8 9.6 3.4-.3 6.3-1.7 7.2-5 .3-.9 0-2.1 0-3.3 0-5.2.6-11.2.9-14.6.9-6.8 3-15.9 1.2-22.5-1.4-4.7-1.6-7.9-.7-13.3 1.4-9.3 3.3-18.3 2.6-27.8l4.6-12.8z" class="e"/><path d="M456.5 263c-.7-6.3-2.4-12.7-4.4-18.7-.9-3.1-3.1-6.5-3.7-9.6-.4-3.1 1.4-5.9 2.4-8.7 2.4-5.9 5.1-12.4 6.1-18.7 1.4-7.7.8-17.1-2.6-22l-.9-.2c-2.3.4-10.4-4.6-11.7-2.8-.8 1.1 1.4 7.5 4.2 10-2.1 5.5-2.3 13-2.8 18.9-1.2 13.1-1.4 24.3 2.8 37 2.1 6.3 3.5 11.9 6.6 17.8 1.1 2.2 1.8 4.4 2.3 6.5 0-.2-.1-.3-.1-.5 1.5.1 1.9-.3 2.6-.7.1.4.2.8.3 1.1-.8-3.1-.6-6.4-1.1-9.4z" class="j"/><path d="M442.8 275.1c.1-.5.1-1.1.1-1.7.1 0 .3.1.4.1.8.3 1.4.2 1.9 0l-.1 2.8c0 1.2.3 2.4 0 3.3-.9 3.3-3.8 4.7-7.2 5 2.5-3.6 4.5-6.1 4.9-9.5z" class="g"/><path d="M459.2 276.2c3.6 4.9 4.7 8.7 4.3 14.9-3.8-1.7-7.5-8.1-7.3-14.3l3-.6z" class="i"/><g class="k"><path d="M467.2 159.2c-4.3 7.4-7 23.1-15.2 24.3-2.9.4-6.3-4.2-9-6-10.9-7-9.1-10.3-3.2-14.7 1.6-1.2 6.1-3.2 8.7-4.5 5-2.6 7.5-5.6 8.6-7.3 0 0 1.2.1 4.1 2.2 2.9 2 6 6 6 6z"/><path d="M435.7 168.4c3.4-3.7 4.8-6.4 7.5-10.7 2.6-3.9 3.5-5.1 0-4.6-7 1.2-7.8 6.9-11 11.3-3 4.1-2.4 5.6-4.1 5-3.9-1.5-11.3-3-14.1-6.7-.7-.9-2.5-2.5-4-4-1.5-1.4-2.6-2.7-3.5-1.6-.4.5 2 1 3.1 4.2-2.4 0-2 1.7-1.5 2.4 2.4 3.8 3.4 1.7 5.4 2.6 5.6 2.5 10.8 7.1 15.6 7.2 2.5 0 2.8-.9 6.6-5.1z"/></g><path d="M453.1 186h.4-.4 0z" fill="#d000c2"/><path d="M453.3 143.9c.3 4.4 1.5 7.7 2.1 11.4.2 1.3.1 2.4-.4 3.5-1 1.9-5.1 4.6-7 3.2-1.7-1.4.1-6.9.4-8.7.5-2.8 0-4.5.6-7.3l4.3-2.1z" fill="#e6a195"/><path d="M462.2 176.4c0-9.1-1.2-8.6-.7-11.4l1-8c8.4 2.1 7.7 10.3 5.2 24.4-1.5 8.8 1 11.5-1.7 28.6-.4 2.4-.7 3.6-.4 4.3-.6.3-1.5.4-2.7.2h-.1c-.8-3.3-.7-7.5-.8-10.6-.2-4.9-.2-7.9 1-11.7 1.7-4.4-.8-11.1-.8-15.8z" class="k"/><path d="M463.5 216.6l-.6-1.9h.1c1.3.2 2.1 0 2.7-.2.3.7 1.3.8 3.6 1.1 3.1.5 5.8 1.7 6.8 5.2-3.1.2-5.8-2.8-9.3-2.8 5.2 1.9-1.2 4-3.3-1.4zm-53.5-58l4 4c.5.6 1.1 1.2 1.8 1.8-.5.4-.9.9-1.2 1.7-.1.2-.2.4-.2.6-.3-.1-.6-.3-.9-.4-2-.9-3 1.2-5.4-2.6-.4-.7-.9-2.4 1.5-2.4-1.1-3.2-3.5-3.7-3.1-4.2.9-1.2 2 .1 3.5 1.5zm51.7 127.1c-4.9-4.1-5.6-8.7-6.9-13.7 1.5.1 1.9-.3 2.6-.7.1.4.2.8.3 1.1 1.2 4.2 4.8 7.9 4 13.3z" class="g"/><g class="f h"><path d="M462.6 170.4l-2.1 1.5c-3.2 1.2-5.8 1.1-9.1.7-1.6-.1-4.2-1.3-5.3-.1 4.2 1.5 7.8 1.3 7.8 6.9 0 2.1-.4 4.5 0 6.1h.5c1.8-4.3 5.7-9.6 8.3-14.8 0-.2-.1-.3-.1-.3z"/></g><g class="f h"><path d="M448.9 146.8c-.2 1.5-.2 2.7-.2 4 1.5-.1 3.8-.3 5.7-.8-.4-1.6-.7-3.3-.9-5.1-1.5.1-3.2.9-4.6 1.9z"/></g><path d="M454.6 141.5c1.3-.2 2.5.2 2.3 1.8-.3 2.2-1.8 2.4-2.9 2.7-.6.7-.6 2-1.3 2.6-3.4 3-9.4 4.5-10 1.2-.3-1.6-.2-3.8.1-5.4.2-1.6 1.4-4 1.1-4.5-.8-2.7.1-6.3 1.7-5.8 1.8.5 2.8 3.4 3.8 4.8 1.1 1.7 3.9 2.1 5.9 1l-.7 1.6z" class="g"/><g class="f h"><path d="M450.9 226c2.4-5.9 5.1-12.4 6.1-18.7 1.4-7.7.8-17.1-2.6-22 0 0 0 .1-.6 0 7.2 20.3-5.9 44.3-6.3 49.1-.4 4.2 1.3 6.9 4 8.6-1-2.7-2.7-5.5-3.2-8.2-.2-3.2 1.5-6 2.6-8.8z"/></g><path d="M402.4 134.2a6.49 6.49 0 0 1 6.5 6.5V284a6.49 6.49 0 0 1-6.5 6.5h-74.5a6.49 6.49 0 0 1-6.5-6.5V140.6a6.49 6.49 0 0 1 6.5-6.5h74.5m0-1.5h-74.5c-4.4 0-8.1 3.6-8.1 8.1V284c0 4.4 3.6 8.1 8.1 8.1h74.5c4.4 0 8.1-3.6 8.1-8.1V140.6c-.1-4.4-3.7-8-8.1-8h0z" class="d"/><path d="M408.9,283.9c0,3.6-2.9,6.5-6.5,6.5h-74.5c-3.6,0-6.5-2.9-6.5-6.5V140.6c0-3.6,2.9-6.5,6.5-6.5h74.5      c3.6,0,6.5,2.9,6.5,6.5V283.9z" class="m"/><path d="M327.6 144.1h75.1V276h-75.1z" class="l"/><path d="M377.9 137.7h-25.6a1.11 1.11 0 0 0-1.1 1.1 1.11 1.11 0 0 0 1.1 1.1h25.6a1.11 1.11 0 0 0 1.1-1.1 1.11 1.11 0 0 0-1.1-1.1zm-17.3 145.5a4.5 4.5 0 1 1 9 0 4.5 4.5 0 1 1-9 0z" fill="#b9d6ff"/><path d="M379.9 186.6c-.2 0-.4 0-.7-.1h-.2c-.2 0-.4 0-.6-.1h-.1c-.2 0-.4-.1-.7-.1h-.2c-.2 0-.4-.1-.6-.1h-.1c-.2 0-.5-.1-.7-.1h-.2c-.2 0-.4-.1-.6-.1h-.2c-.2-.1-.5-.1-.7-.2h-.2c-.2 0-.4-.1-.6-.1-.1 0-.2 0-.2-.1-.2-.1-.5-.1-.7-.2h-.2c-.2-.1-.4-.1-.6-.2-.1 0-.2-.1-.3-.1-.2-.1-.4-.1-.6-.2-.1 0-.2-.1-.3-.1-.2-.1-.4-.1-.6-.2-.1 0-.2-.1-.4-.1-.1 0-.3-.1-.4-.1-.2-.1-.5-.1-.7-.2-.1 0-.2-.1-.3-.1-.2-.1-.4-.1-.5-.2h-.2c-4.2-1.3-8.3-3.1-12.7-4.2-1.1.8-2.5 2.1-3.2 3.2-2.5 4.2-1.4 9.2-3.4 13.4-3.3 7.9-14.5 19.5-13.7 23 2 8.7 12.6 13.3 17.4 5.5 5.4-9.2 4.5-19.6 15.2-25.4 7.4-3.7 14.6-5.1 17.7-13-1.2.2-3 .4-4.9.2z" class="j"/><g class="f h"><path d="M365.2 195.2c-4.7-.2-6.7-2.1-8.6-5-2.9-4.4-5.8-5.3-6.1-4.2-.8 3.4-.6 7-2 10.1-2.4 5.6-8.7 13.2-11.9 18.3 3.7 1.8 8.2 3.3 11.4 2 2.3-.9 4.8-3.5 7.1-4.9.9-.5 2-1 3.1-1.5 1.2-2.7 2.6-5.3 4.9-7.5-.1-1.4-.5-2.9-.9-4 1.2-.1 2.4.9 3.5 1.9.6-.4 1.2-.7 1.8-1.1l2.6-1.2c-2-1.5-3.6-2.8-4.9-2.9z"/></g><g class="g"><path d="M353 189.9c1.9 1.4 3.9 2.7 3.2 5-.7 2.1-2.8 2.3-4.7 1.6-1.2-.5-2.6-1.8-4.1-3-3.6-2.9-4.9-4.4-3.7-6.8 2.5-4.9 6.2 1 9.3 3.2zm2.9 13.4c-3.9-3.4-10.5-8.2-11.8-9-2.5-1.4-5.2 2.7-3.7 4.2 2.1 2 3.6 2.9 6 4.7 1 .8.5.2 2.9 1.8s2.9 2.2 4.3 2.8c3.1 1.5 4.3-2.8 2.3-4.5z"/><path d="M343 201.2c-.6-.5-2.1-1.5-3-1.3-.9.1-1.5 1.4-1.8 2.2-.8 2.3 2.1 3.4 3.7 4.5 2 1.4 3.8 3.3 5.9 4.4 1.2.6 3.1 1.5 4.5 1.5 1.2 0 2.1-1.8 2.2-2.6.2-1.8-1.4-1.8-5-4.2l-6.5-4.5zm-4.6 10.5c2.3 1 4.1 2.1 6.1 2.6 1.7.4 3.9-1.1 2.6-2.9-.7-1-5.3-4-6.4-4.9-2-1.6-3.3-1.6-4.6.7-1.4 2.5-.2 3.8 1 6.2l1.3-1.7z"/></g><path d="M350.5 194.6c-.2-1.3.7-3.5 2.3-3.4s3.5 2.7 2.6 4.1c-.9 1.3-2.6.6-3.8 0l-1.1-.7zm.4 12.8c-.9.7-2.7 2.8-.3 3.8 1.2.6 2.7.6 3.2-.8.5-1.7-2.9-3-2.9-3zm-6.5 2.7c-1.1 1.8-2.1 2.8-.3 3.5.9.5 2.5.2 3-.9.4-1.2-2-2.1-2.7-2.6zm7.2-4.9c.3-1.4 1.9-3 2.8-2.2 1.8 1.6 2.3 2.3 1.3 3.6-1.3 1.8-4.1-1.4-4.1-1.4z" class="l"/><path d="M284.1 133.3c11.3-26.6 29.6-44.2 40.8-39.4 5.2 2.2 7.8 29.5 25.1 45.9 10.5 9.9 31.4 14.3 41.9 21 9.4 6 9.1 14.3 6.2 21-3.1 7.2-9.2 14.4-20.9 11.4-11.5-2.9-28.4-16-42-16.6-23.8-1.1-46 15.6-51.2 13.4-11.3-4.7-11.2-30.1.1-56.7z" class="e"/><linearGradient id="L" gradientUnits="userSpaceOnUse" x1="358.819" y1="164.637" x2="397.385" y2="184.487"><stop offset="0" stop-color="#4d76f0"/><stop offset="1" stop-color="#27278b"/></linearGradient><path d="M391.9 160.8c-7.4-4.7-19.9-8.3-30.3-13.4 1.7 2.3.6 9.8-2.8 17.8-3.8 9-9.2 15.4-11.9 14.2 10.7 4.2 21.9 11.6 30.3 13.8 11.7 3 17.9-4.2 20.9-11.4 2.8-6.7 3.1-15-6.2-21z" fill="url(#L)"/><linearGradient id="M" gradientUnits="userSpaceOnUse" x1="284.322" y1="132.924" x2="325.426" y2="151.421"><stop offset="0" stop-color="#6588f0"/><stop offset="1" stop-color="#27278b"/></linearGradient><path d="M284.1 133.3c11.3-26.6 29.6-44.2 40.8-39.4s11.1 30.2-.2 56.8-29.6 44.2-40.8 39.4-11.1-30.2.2-56.8z" fill="url(#M)"/><path d="M299.5 139.9c2.6-6.1 6.9-10.1 9.7-9 1.7.7 16.8.1 21.9 3.8-1.3 5.8-.1 4.8-5.4 16.3-5.4 11.4-5.4 11.5-8.8 17-6.2-.9-15.5-14.2-17.2-14.9-2.7-1.2-2.8-7.1-.2-13.2z" class="j"/><path d="M299.5 139.9c2.6-6.1 6.9-10.1 9.7-9 2.7 1.2 2.8 7.1.2 13.2s-6.9 10.1-9.7 9c-2.7-1.2-2.8-7.1-.2-13.2z" class="d"/><path d="M325.7 92.1c-12.3-5.2-31.7 12.9-43.4 40.4s-11.3 54.1.9 59.3c12.3 5.2 31.7-12.9 43.4-40.4s11.3-54.1-.9-59.3zm-1 58.5c-11.3 26.6-29.6 44.2-40.8 39.4s-11.1-30.2.2-56.8 29.6-44.2 40.8-39.4 11.2 30.3-.2 56.8z" class="e"/><path d="M360.5 197c-2 .7-6.2 1.2-6.2 3.9 0 3.5 7 2.4 8.9 1.4 0 0-1.1.7-3.4 4.3-2.5 4-4 12-7.6 18.1-1.9 3.2-4.8 4.3-7.7 4 .9 4.3 2.3 6.3 3.9 6.3 2.5.1 10.6-.3 12.8-1.5 3-1.4 1.6-3.8 1.7-6.5 0-2.7 1.1-5 1.8-7.4 1.6-4.5 3.4-9.3 4.3-13.8 1.2-6.7-2.1-10.8-8.5-8.8z" class="g"/><path d="M359.4 197.7c-1.1.3-2.3.6-3.3 1.1-.5.2-1 .6-1 1.3 0 .5.4 1 .9 1 1.5.1 3.9-.7 4.2-1.4l-.8-2z" class="l"/><path d="M346.1 233.5c2.7-1.5 7.1-1.1 10.6-2.1 2.4-.7 6.6-1.5 7.1-1 1.4 3.2 2.1 6-.2 7.2-2.2 1.3-6.2.4-8.7.8-2.9.4-5.2.9-8.1-.3l-.7-4.6z" class="d"/><path d="M354.4 276H381l-13.8-40.2c-1.9-1.5-8.1.1-12.6.7-3.3.5-9.4.5-10.4 1.9.2 4.7 2 10.8 3.1 14.4 3.1 9.6 5 16.6 7.1 23.2z" class="j"/><g class="f h"><path d="M364.7 270.7c-10.5-5.6-15.9-20.6-17.5-33.4-1.4.2-2.5.5-2.8 1 .2 4.7 2 10.8 3.1 14.4l7 23.2h20.2c-3.4-1.5-6.7-3.3-10-5.2z"/></g><linearGradient id="N" gradientUnits="userSpaceOnUse" x1="231.606" y1="161.662" x2="263.839" y2="161.662"><stop offset="0" stop-color="#4d76f0"/><stop offset="1" stop-color="#27278b"/></linearGradient><path d="M231.6 153.6l9.1 16.2 23.1-10.4-1-3.7z" fill="url(#N)"/><linearGradient id="O" gradientUnits="userSpaceOnUse" x1="229.774" y1="121.826" x2="271.399" y2="121.826"><stop offset="0" stop-color="#4d76f0"/><stop offset="1" stop-color="#27278b"/></linearGradient><path d="M229.8 130.6l10.2-21.7 31.4 22.2-1.6 3.7z" fill="url(#O)"/><linearGradient id="P" gradientUnits="userSpaceOnUse" x1="256.598" y1="91.598" x2="286.209" y2="91.598"><stop offset="0" stop-color="#4d76f0"/><stop offset="1" stop-color="#27278b"/></linearGradient><path d="M256.6 84.1l18.8-7.5 10.8 24.7-4.7 5.3z" fill="url(#P)"/><linearGradient id="Q" gradientUnits="userSpaceOnUse" x1="260.818" y1="312.871" x2="337.908" y2="312.871"><stop offset="0" stop-color="#432b7d"/><stop offset="1" stop-color="#d21f39"/></linearGradient><path d="M260.8 312.9c0-4.8 17.3-8.6 38.5-8.6 21.3 0 38.5 3.9 38.5 8.6 0 4.8-17.3 8.6-38.5 8.6s-38.5-3.9-38.5-8.6z" fill="url(#Q)"/><path d="M305.6 312.8c2.7 1.3 11 4.7 15.2 3.8 2.3-.5 6.2-2.6 4.9-5.4-1.1-2.2-5.6-1.8-7.6-1.8-3.9 0-7.4-.1-11.3.1-.2.1-3.7 2.1-1.2 3.3z" fill="#271427"/><path d="M332.9 282.6c-2.8 5.2-3.8 8.4-7.5 12.9-2.9 3.4-8.1 8.4-12 10.9-2.1 1.5-4.6 3-7.2 3.3-2.4.3-6.1.1-5.6-3.2.4-2.6 3.5-5.3 5.4-7 3.6-3.4 7.6-6.5 11.6-9.5l15.3-7.4z" class="j"/><path d="M303.4 311.7c1.1.5 4.5 2 5.8 1.3.5-.3.7-2.5-.2-2.9-2.2-.7-3.8-1.1-5.4-1.1l-.2 2.7z" class="g"/><path d="M274.8 291.5c-14 5.7 5.4 12.7 12.4 13.7 9.6 1.3 24.5-7.6 9.9-14-5.4-2.2-12.1-1.6-17.5-1.3l-4.8 1.6z" class="j"/><path d="M294.5 228.9c-3.5.3-10.1-4.4-9.3-8.9 1.2-5.8 12.7-8.1 16.5-5.8 3.9 2.4 2.5 7.3 7.6 8.2 1.5.3 5.9.1 6.6 2.4.3 1.2-1 3.7-1 5.2-.2 2.6.8 2.8 1.7 5 .9 2.1.8 2.4-1.1 3.2-3.9 1.5-10-.4-14-.9l-7-8.4z" class="m"/><g fill="#ddd"><path d="M295.9 246.1c-5.9 2.4-7.2 7.9-7.9 13.6-.4 2.4-2 12.8.2 14.3.5.4 1.7-.1 2.3 0 1.2.1 2.5 1 3.7 1 5.7 0 5.7-14.3 6.2-18l-4.5-10.9z"/><path d="M326.2 253.7c.2-10-7-10.1-20.2-10.1s-15.6 4.5-15.5 18.2c.1 7.4-.5 15 1.1 22.2 1.1 4.3 2.1 10.9 5.9 13.6 4.6 3.2 12.5.3 16.9-1.6 3.9-1.6 6.6-7.5 8.4-14.6 2.7-10.3 3.3-23 3.4-27.7z"/></g><path d="M295 304.7c-1.4.7-2.7 1.4-4 2.4-.9.7-2.7 2.2-1.8 3.5.4.6 1.3 1.1 2 1.1 1 0 1.9-.1 2.8-.4 1-.3 1.9-.8 2.7-1.4.6-.5 1.4-1.1 1.6-1.9.2-.7-.4-1.1-.8-1.6l-1.5-1.7c0-.1-.4 0-.5 0h-.5l1.2 1.4c.3.3.5.6.8.9.1.2.3.3.3.5.2.7-.3 1.4-.8 1.8-.7.7-1.5 1.2-2.4 1.6-.8.4-1.7.7-2.6.8-.3 0-.6-.1.7 0h-.2-.2c-.2 0-.4-.1-.6-.2-.4-.2-.7-.4-1-.7-1-1.2.5-2.6 1.4-3.3 1.3-1.1 2.8-1.9 4.3-2.6-.1.1-.4 0-.5 0 0-.2-.3-.3-.4-.2z" fill="#edd156"/><path d="M292.3 308.3c-2.9.2-5.6 1.1-8.5 1.4-2.7.2-6.6-2.1-8.8.3-2.6 2.9.3 6.7 3.5 7 2.7.2 6.2-1.3 8.6-2.2 2.4-.8 10.7-1.6 7.8-5.6l-2.6-.9z" fill="#271427"/><path d="M269 289.6c-3.1 2.4-11 7-8.4 11.9 1.7 3 6.5 4.3 9.6 5.3 4.5 1.4 9.2 2.1 13.9 3.2 3.9.9 13.1 3 19.5 3.1 1.6 0 2.9-4.8 2.3-5.2-2.4-2-7.3-2.7-9.1-3.4-9.6-3.9-19.5-6.1-28.9-10.5l1.1-4.4z" class="e"/><path d="M304.9 242.1c1.3 3 1.4 5.9 5.7 4.5 1.3-.4 1.9-1.5 2.1-2.9-1.2-4.4-.8-7.9-2.5-9.7l-5.3 8.1z" fill="#e6a195"/><path d="M305.4 290.8c-2.2.1-6.4-.1-6.6 3-.1 2.1 1.8 2.5 3.4 2.2 1.6-.4 2.9-1.5 4.1-2.5l-.9-2.7z" class="g"/><path d="M264.8 269.7c1.8-2.2 13.6-.8 18.2-.8 11.7 0 15.7-.2 15.9 1.7l1.7 13.7c.8 6.4 1.8 12.4 1 12.5-11.2.6-24.6-.3-33.9-2.2-.1-.1-4.1-23.4-2.9-24.9z" fill="#565656"/><g class="f i"><path d="M295.3 224.4l3.8.2c2.9 0 6.5.4 8.9 3.9.1.2.3.3.4.4-.4-1-.9-2.2-1.2-2.6-1.2-1.8-5.2-2.4-7.1-3-2.5-.8-6.5-1.9-8.3 1-1.1 1.8.7 2.9 2.5 3.4 0-1.2.3-2.5 1-3.3z"/></g><g class="f i"><path d="M305.4 241.7c1.2-.1 4.8-1.5 6.3-2.5-.2-1.4-.4-2.6-.8-3.6-.5-.2-1.1-.3-1.8-.3l-4 6.2.3.2z"/></g><path d="M295.3 224.4c-1.7 2-1 6.7 1 8.1-.1 3.5 3 9.6 6.8 10.9 4 1.3 7.1-4.8 8.5-9.7 3-.1 2.5-4.6.1-5.5-1.8-.6-2.5 1.9-3.6.3-2.4-3.5-6.1-3.9-8.9-3.9l-3.9-.2z" class="g"/><g class="f i"><path d="M308.3 228.8c-.1-.1-.1-.2-.2-.2-2.4-3.5-6.1-3.9-8.9-3.9l-3.8-.2c-.3.3-.5.7-.6 1.1 1.3.1 3-.1 3.4 0 1.7.1 3.4.4 5.1.7 2.9.2 4.7 2.6 5 2.5z"/></g><g opacity=".1" class="i"><path d="M310.3 276.6c-.3 3.5-2.2 6.3-3.1 9.6 3.7-3.2 9.6-7.4 10.6-9.4.8-1.7.9-4.2-.3-10-.4-1.8-.6-4.2-.7-6.6-.8 1.7-2.1 3.2-3.6 4.4-1.2 1-2.9 1.9-3.3 3.6-.5 2.5.7 5.8.4 8.4z"/></g><path d="M317.6 251.2c-1.2 4.2-1 11.6-.1 15.7 1.2 5.8 1 8.3.3 10-1.4 3-13.9 10.8-13.6 13.1.6 2.3 1.9 5.2 3.2 4.4 2.7-1.6 11.7-8 15.3-14.7 3.9-7.1 3.6-6.7 3.6-18 0-4.9.9-8.6-.6-12.5-1.9-4.7-6.6-2.7-8.1 2z" fill="#ddd"/><path d="M293.4 304.7c6.6-5.1 13.4-10.1 18.8-16 4.3-4.8 9-11.9 15.4-13.2 8.8-1.8 6.6 6.1 2.8 11.1-7.5 10-29 21.6-32.3 23.3-3.2 1.6-4.7-5.2-4.7-5.2z" class="e"/><path d="M387 242.2c0-8.5 6.8-15.3 15.3-15.3 8.4 0 15.3 6.8 15.3 15.3 0 8.4-6.8 15.3-15.3 15.3s-15.3-6.9-15.3-15.3z" class="m"/><g class="d"><path d="M409.7 234.8c-2-2-4.6-3.1-7.4-3.1s-5.4 1.1-7.4 3.1-3.1 4.6-3.1 7.4 1.1 5.4 3.1 7.4 4.6 3.1 7.4 3.1 5.4-1.1 7.4-3.1 3.1-4.6 3.1-7.4-1.1-5.5-3.1-7.4h0zm-7.4 16.7c-5.1 0-9.3-4.2-9.3-9.3s4.2-9.3 9.3-9.3 9.3 4.2 9.3 9.3c-.1 5.1-4.2 9.3-9.3 9.3h0zm5.9-9.9h-11.9a.65.65 0 0 0-.6.6 6.5 6.5 0 1 0 13 0c.1-.4-.2-.6-.5-.6h0zm-5.9 5.9c-2.7 0-5-2.1-5.3-4.7h10.6c-.4 2.6-2.6 4.7-5.3 4.7h0zm-3.6-9.7a.76.76 0 0 0-.4-.2c-.2 0-.3.1-.4.2a.76.76 0 0 0-.2.4c0 .2.1.3.2.4a.76.76 0 0 0 .4.2c.2 0 .3-.1.4-.2a.76.76 0 0 0 .2-.4c0-.1 0-.3-.2-.4h0zm0 0"/><path d="M406.7 237.8a.76.76 0 0 0-.4-.2c-.2 0-.3.1-.4.2a.76.76 0 0 0-.2.4c0 .2.1.3.2.4a.76.76 0 0 0 .4.2c.2 0 .3-.1.4-.2a.76.76 0 0 0 .2-.4c-.1-.1-.1-.3-.2-.4h0zm0 0"/></g><path d="M162.1 89.8c0-13 10.6-23.6 23.6-23.6s23.6 10.6 23.6 23.6-10.6 23.6-23.6 23.6-23.6-10.6-23.6-23.6z" class="e"/><g class="d"><path d="M197.1 78.4c-3.1-3.1-7.1-4.7-11.4-4.7s-8.4 1.7-11.4 4.7c-3.1 3.1-4.7 7.1-4.7 11.4s1.7 8.4 4.7 11.4c3.1 3.1 7.1 4.7 11.4 4.7s8.4-1.7 11.4-4.7c3.1-3.1 4.7-7.1 4.7-11.4.1-4.3-1.6-8.4-4.7-11.4h0zm-11.4 25.7a14.3 14.3 0 0 1 0-28.6 14.3 14.3 0 1 1 0 28.6h0zm9.1-15.2h-18.3c-.5 0-.9.4-.9.9a10.1 10.1 0 1 0 20.2 0c0-.5-.5-.9-1-.9h0zm-9.1 9.1c-4.2 0-7.7-3.2-8.1-7.2h16.3c-.6 4-4 7.2-8.2 7.2h0zm0 0"/><use xlink:href="#E"/><use xlink:href="#E" x="12.2"/></g><path d="M203.3 303.3c0-8.7 7.1-15.8 15.8-15.8s15.8 7.1 15.8 15.8-7.1 15.8-15.8 15.8c-8.8 0-15.8-7.1-15.8-15.8z" class="e"/><path d="M219 300.9c-1.3 0-2.4 1.1-2.4 2.4s1.1 2.4 2.4 2.4 2.4-1.1 2.4-2.4-1-2.4-2.4-2.4h0zm0 3.7c-.7 0-1.3-.6-1.3-1.3s.6-1.3 1.3-1.3 1.3.6 1.3 1.3-.6 1.3-1.3 1.3h0zm6.9-8.2c-1.8-1.8-4.3-2.9-6.9-2.9s-5 1-6.9 2.9c-1.8 1.8-2.9 4.3-2.9 6.9 0 1.9.5 3.7 1.5 5.2a10.04 10.04 0 0 0 3.5 3.3c0 .2-.1.4-.1.6a.9.9 0 0 0 .1.5.76.76 0 0 0 .4.2h8.5c.2 0 .3-.1.4-.2s.2-.3.1-.5c0-.2-.1-.4-.1-.6a10.04 10.04 0 0 0 3.5-3.3c1-1.6 1.5-3.4 1.5-5.2.3-2.6-.7-5-2.6-6.9h0zm-10.4 15.5c.5-1.5 1.9-2.5 3.5-2.5s3 1 3.5 2.5h-7zm-1.4-8.6a4.91 4.91 0 0 1 4.9-4.9 4.91 4.91 0 0 1 4.9 4.9 4.91 4.91 0 0 1-4.9 4.9c-2.7.1-4.9-2.1-4.9-4.9h0zm9.2 7.5c-.3-.5-.6-1-1.1-1.3-.2-.2-.5-.4-.8-.6 2.2-.9 3.7-3.1 3.7-5.6 0-3.3-2.7-6.1-6.1-6.1-3.3 0-6.1 2.7-6.1 6.1 0 2.5 1.5 4.6 3.7 5.6-.3.2-.5.3-.8.6-.4.4-.8.8-1.1 1.3-2.7-1.5-4.3-4.3-4.3-7.5 0-4.7 3.9-8.6 8.6-8.6s8.6 3.9 8.6 8.6c0 3.2-1.6 6-4.3 7.5h0zm0 0" class="d"/></svg>