<?xml version="1.0" encoding="utf-8"?>
<!-- Generator: Adobe Illustrator 26.0.2, SVG Export Plug-In . SVG Version: 6.00 Build 0)  -->
<svg version="1.1" id="Layer_1" xmlns="http://www.w3.org/2000/svg" xmlns:xlink="http://www.w3.org/1999/xlink" x="0px" y="0px"
	 viewBox="0 0 628.5 410" style="enable-background:new 0 0 628.5 410;" xml:space="preserve">
<style type="text/css">
	.st0{fill:url(#SVGID_1_);}
	
		.st1{clip-path:url(#SVGID_00000031199830000339110130000014744756879534772619_);fill:url(#SVGID_00000108280125080849166970000005436137536500163242_);}
	
		.st2{clip-path:url(#SVGID_00000054968652042662112290000000711979051638545046_);fill:url(#SVGID_00000081635200003929102610000001076800882649469608_);}
	.st3{fill:url(#SVGID_00000173145002563603573590000014648117040100870019_);}
	.st4{fill:url(#SVGID_00000155119683032256089370000014722944784879787422_);}
	.st5{fill:url(#SVGID_00000047749817309802245810000007767348145161295503_);}
	.st6{fill:url(#SVGID_00000054234700515887929660000012996366873898620845_);}
	.st7{fill:#E6E6E6;}
	.st8{fill:#BFD4FC;}
	.st9{fill:#747474;}
	.st10{fill:#FFFFFF;}
	.st11{fill:url(#SVGID_00000072994111886450093420000010048537066268388259_);}
	.st12{fill:url(#SVGID_00000008134316911196986860000003488842932961747894_);}
	.st13{fill:url(#SVGID_00000008110576566936947450000001210280305853780913_);}
	.st14{opacity:0.73;fill:#FFFFFF;enable-background:new    ;}
	.st15{fill:#D4D9DF;}
	.st16{fill:#C5CACF;}
	.st17{fill:#F4F4F4;}
	.st18{fill:#72ACFB;}
	.st19{fill:#4E85DE;}
	.st20{fill:#385988;}
	.st21{fill:#4772B0;}
	.st22{fill:#5886C7;}
	.st23{fill:url(#SVGID_00000010307991773974834830000017299613038784895650_);}
	.st24{fill:url(#SVGID_00000071542617005776300200000017864022223286390408_);}
	.st25{fill:url(#SVGID_00000175302484738417703490000009471415084461745031_);}
	.st26{fill:url(#SVGID_00000061455499246827594100000015845401554644851857_);}
	.st27{fill:url(#SVGID_00000150098440252112666150000007719198209337983142_);}
	.st28{fill:url(#SVGID_00000085239395471537263210000013684497430214654125_);}
	.st29{fill:url(#SVGID_00000178913388681377783690000016299023497954394296_);}
	.st30{fill:#DCD0C8;}
	.st31{fill:#6D6865;}
	.st32{fill:#C6BBB5;}
	.st33{fill:#948C87;}
	.st34{fill:#A98E75;}
	.st35{fill:#C10532;}
	.st36{fill:#454971;}
	.st37{fill:#2E3048;}
	.st38{fill:#DBA585;}
	.st39{fill:#3E4148;}
	.st40{fill:#363957;}
	.st41{fill:#8C8581;}
	.st42{fill:#5D5955;}
	.st43{fill:#B9AFAA;}
	.st44{fill:#B2A8A3;}
	.st45{fill:#F4F6FF;}
	.st46{fill:#8C8480;}
	.st47{fill:#DEDFE6;}
	.st48{fill:#DEDEDE;}
	.st49{fill:#B6B6B6;}
	.st50{fill:#D7D7D7;}
	.st51{fill:url(#SVGID_00000129200844761370538040000018264789154119664263_);}
	.st52{fill:url(#SVGID_00000008113888720261527170000001917000218139901327_);}
	.st53{fill:#92C2FC;}
	.st54{fill:#5A554E;}
	.st55{fill:#404347;}
	.st56{fill:#373A3D;}
	.st57{fill:#EECAA2;}
	.st58{fill:#4C5155;}
	.st59{fill:#D4D4D4;}
	.st60{fill:#B68264;}
	.st61{fill:#CC9B7E;}
	.st62{fill:#B94D4B;}
	.st63{fill:#404369;}
	.st64{fill:#C8BCB4;}
	.st65{fill:#292A3F;}
	.st66{fill:#DE5A59;}
	.st67{fill:#7B6F66;}
	.st68{fill:#20212E;}
	.st69{fill:#997761;}
	.st70{fill:#98403F;}
	.st71{fill:#2D2F46;}
	.st72{fill:#E6D8D1;}
</style>
<g>
	<g>
		<g>
			
				<linearGradient id="SVGID_1_" gradientUnits="userSpaceOnUse" x1="298.008" y1="-324.8107" x2="298.008" y2="-206.2867" gradientTransform="matrix(0.962 -0.2732 -0.2732 -0.962 -34.1957 173.7083)">
				<stop  offset="0" style="stop-color:#432B7D"/>
				<stop  offset="1" style="stop-color:#D21F39"/>
			</linearGradient>
			<path class="st0" d="M513.9,358.8c-5.9,50.9-46.1,54.6-69.1,39.3c-32.7-21.7-28.1-42.8-79.6-9c-37.9,24.8-88.1,12.5-94.3-37.2
				c-8.6-69.4-59.6-22-93.3-21.6c-69.5,0.9-64.7-48.5-62.6-131.2c2.2-84.7,40.2-132,108-161.8c50-22,97.7-27.3,122.2,10
				c35.3,53.7-21.2,91,35.8,92.1c34.1,0.6,88.2,23,64.1,90.5C421,297.2,522.2,285.3,513.9,358.8z"/>
			<g>
				<g>
					<g>
						<g>
							<defs>
								<path id="SVGID_00000171680891104930228530000017406538018051297706_" d="M514,358.1c-5.9,50.9-46.1,54.6-69.1,39.3
									c-32.7-21.7-28.1-42.8-79.6-9c-37.9,24.8-88.1,12.5-94.3-37.2c-8.6-69.4-59.6-22-93.3-21.6c-69.5,0.9-64.7-48.5-62.6-131.2
									c2.1-84.8,40.2-132,107.9-161.9c50-22,97.7-27.3,122.2,10c35.3,53.7-21.2,91,35.8,92.1c34.1,0.6,88.2,23,64.1,90.5
									C421.1,296.5,522.3,284.6,514,358.1z"/>
							</defs>
							<clipPath id="SVGID_00000080165903156651270630000001808453675851391137_">
								<use xlink:href="#SVGID_00000171680891104930228530000017406538018051297706_"  style="overflow:visible;"/>
							</clipPath>
							
								<linearGradient id="SVGID_00000148626484218129020040000004814134394085993150_" gradientUnits="userSpaceOnUse" x1="306.2775" y1="-312.7934" x2="306.2775" y2="-123.8687" gradientTransform="matrix(0.962 -0.2732 -0.2732 -0.962 -34.1957 173.7083)">
								<stop  offset="0" style="stop-color:#432B7D"/>
								<stop  offset="1" style="stop-color:#D21F39"/>
							</linearGradient>
							
								<path style="clip-path:url(#SVGID_00000080165903156651270630000001808453675851391137_);fill:url(#SVGID_00000148626484218129020040000004814134394085993150_);" d="
								M546.9,285.9c-13.2,10.7-32.5,14.6-50.3,10.3c-11.4-2.8-20.1-6.5-27.8-9.6c-23.7-9.7-33.3-13.8-67.7,31.7
								c-18.7,24.6-46.8,38.4-73.5,35.9c-23.5-2.2-43.1-16.5-55.1-40.3c-9.8-19.6-20.3-30.4-31.8-32.9
								c-16.5-3.5-33.7,10.7-50.5,24.4c-11.1,9.3-22.8,18.8-34.3,23c-25.6,9.5-45.9,10.3-61.9,2.5c-30.1-14.5-44.1-57.6-63.5-117.1
								c-1.5-4.6-3.1-9.2-4.6-13.9c-16.2-49.4-19-92.7-8.1-132.3C27.7,30.7,49.7-3.4,85-36.8C112-62.5,137.7-79.4,161.3-87
								c27.4-8.9,52.1-5.3,73.3,10.7c30.4,22.9,35.2,50.2,38.7,70.2c2.1,11.9,3.8,21.4,10.3,25.1c5.7,3.4,15.2,2.5,30.1-2.5
								c23-7.7,59.1-10.3,84.6,8.1c20.2,14.6,30.4,39,30.4,72.8c-0.2,44.2,27.6,51.6,59.8,60.2c30.1,8,64.3,17,74.8,62
								c8,34.2-2.5,53.3-12.5,63.3C549.4,283.9,548.2,284.8,546.9,285.9z"/>
						</g>
					</g>
				</g>
				<g>
					<g>
						<g>
							<defs>
								<path id="SVGID_00000028300804467788603730000005530684399125383585_" d="M514,358.1c-5.9,50.9-46.1,54.6-69.1,39.3
									c-32.7-21.7-28.1-42.8-79.6-9c-37.9,24.8-88.1,12.5-94.3-37.2c-8.6-69.4-59.6-22-93.3-21.6c-69.5,0.9-64.7-48.5-62.6-131.2
									c2.1-84.8,40.2-132,107.9-161.9c50-22,97.7-27.3,122.2,10c35.3,53.7-21.2,91,35.8,92.1c34.1,0.6,88.2,23,64.1,90.5
									C421.1,296.5,522.3,284.6,514,358.1z"/>
							</defs>
							<clipPath id="SVGID_00000003099503154631316510000017036932145474056108_">
								<use xlink:href="#SVGID_00000028300804467788603730000005530684399125383585_"  style="overflow:visible;"/>
							</clipPath>
							
								<linearGradient id="SVGID_00000034796696474627451130000007004617434328989080_" gradientUnits="userSpaceOnUse" x1="314.7204" y1="-249.7981" x2="314.7204" y2="-89.9381" gradientTransform="matrix(0.962 -0.2732 -0.2732 -0.962 -34.1957 173.7083)">
								<stop  offset="0" style="stop-color:#432B7D"/>
								<stop  offset="1" style="stop-color:#D21F39"/>
							</linearGradient>
							
								<path style="clip-path:url(#SVGID_00000003099503154631316510000017036932145474056108_);fill:url(#SVGID_00000034796696474627451130000007004617434328989080_);" d="
								M530.1,264c-14.5,8.8-34.1,10.3-51.3,3.5c-11-4.3-19-9-26.2-13.1c-22.1-12.9-31.3-18.1-71.3,22.6c-21.7,22-51.4,32-77.5,25.9
								c-23-5.2-40.5-22-49.2-47.1c-7.2-20.8-16.1-32.9-27.3-36.7c-15.9-5.6-35,6-53.1,17.4c-12.4,7.6-25.1,15.5-37,18.2
								c-26.6,6-46.9,4.1-61.8-5.5c-28-18.4-36.3-63-47.7-124.6c-0.9-4.8-1.7-9.6-2.7-14.5C15.4,58.9,18.5,15.8,34.4-22
								c14.8-35.3,41.1-66.2,80.4-94.6c30.1-21.9,57.8-35.2,82.2-39.7c28.4-5.3,52.4,1.6,71.3,20.2c27.1,26.7,28.3,54.4,29.3,74.6
								c0.5,12.1,0.9,21.6,6.9,26.3c5.2,4,14.7,4.6,30.1,1.6c23.8-4.6,59.9-2.5,82.8,19.1c18.1,17,25,42.7,20.5,76.1
								c-5.9,43.8,20.6,54.9,51.3,67.5c28.7,11.9,61.4,25.4,66,71.3c3.4,34.9-9.5,52.5-20.8,61.1C532.8,262.2,531.5,263.1,530.1,264
								z"/>
						</g>
					</g>
				</g>
			</g>
		</g>
	</g>
	<g>
		<g>
			
				<linearGradient id="SVGID_00000113350273552267193060000001198999329241705357_" gradientUnits="userSpaceOnUse" x1="388.2969" y1="352.5246" x2="465.9493" y2="352.5246" gradientTransform="matrix(1 0 0 -1 0 411.72)">
				<stop  offset="5.181349e-03" style="stop-color:#4A612F"/>
				<stop  offset="1" style="stop-color:#769A42"/>
			</linearGradient>
			<path style="fill:url(#SVGID_00000113350273552267193060000001198999329241705357_);" d="M395.2,61.6c-5.6,10.7-9,20.9-5.5,25.8
				c0.2,0.3,0.4,0.5,0.7,0.8c2.7,2.6,8.3,3,18-0.2c25.7-8.6,27.9-25.7,33.8-42.1c5.9-16.3,23.3-12.5,23.7-12.4
				C425.8,16.9,404.7,43.5,395.2,61.6z"/>
			<g>
				
					<linearGradient id="SVGID_00000114034378490830916090000006199724488022514309_" gradientUnits="userSpaceOnUse" x1="-13265.7988" y1="6051.0571" x2="-13265.7988" y2="6105.6221" gradientTransform="matrix(-0.7128 -0.7014 0.7014 -0.7128 -13316.0283 -4897.7471)">
					<stop  offset="5.181349e-03" style="stop-color:#4A612F"/>
					<stop  offset="1" style="stop-color:#769A42"/>
				</linearGradient>
				<path style="fill:url(#SVGID_00000114034378490830916090000006199724488022514309_);" d="M389.6,87.3c0.2,0.3,0.4,0.5,0.7,0.8
					c4.9-2.6,14.3-8.1,18.9-14.7c2.2-3.1,4-6.6,6-10.3c3.8-7,7.7-14.3,14.1-19.6l-0.6-0.8c-6.6,5.5-10.5,12.9-14.4,20
					c-2,3.7-3.9,7.2-6,10.2C403.9,79.3,394.4,84.8,389.6,87.3z"/>
			</g>
		</g>
		<g>
			
				<linearGradient id="SVGID_00000070092571242597011050000002673047546179214983_" gradientUnits="userSpaceOnUse" x1="395.7115" y1="375.9565" x2="432.4461" y2="375.9565" gradientTransform="matrix(1 0 0 -1 0 411.72)">
				<stop  offset="5.181349e-03" style="stop-color:#4A612F"/>
				<stop  offset="1" style="stop-color:#769A42"/>
			</linearGradient>
			<path style="fill:url(#SVGID_00000070092571242597011050000002673047546179214983_);" d="M399.4,66.3c0.3,0.8,0.4,1.1,0.4,1.2
				c0.1-0.4,0.2-0.8,0.3-1.1c4.3-17,8.8-18.6,23.1-32.9C437.8,18.8,430.6,4,430.6,4C383.8,14.9,396.6,58.5,399.4,66.3z"/>
			<g>
				
					<linearGradient id="SVGID_00000039843248224913280510000002155634114160671372_" gradientUnits="userSpaceOnUse" x1="-13263.5244" y1="4410.0464" x2="-13263.5244" y2="4463.627" gradientTransform="matrix(-0.843 -0.5378 0.5378 -0.843 -13157.1211 -3350.926)">
					<stop  offset="5.181349e-03" style="stop-color:#4A612F"/>
					<stop  offset="1" style="stop-color:#769A42"/>
				</linearGradient>
				<path style="fill:url(#SVGID_00000039843248224913280510000002155634114160671372_);" d="M399.4,66.3c0.3,0.8,0.4,1.1,0.4,1.2
					c0.1-0.4,0.2-0.8,0.3-1.1c-0.7-15,9.2-31.9,12.2-34.9c3.1-3.1,5.2-7.4,5.9-9.1c0.1-0.3,0.3-0.5,0.3-0.6l-0.6-0.4
					c-0.1,0.1-0.2,0.3-0.4,0.7c-0.8,1.6-2.7,5.9-5.8,8.8C407.9,34.7,398.7,51.8,399.4,66.3z"/>
			</g>
		</g>
		<path class="st7" d="M391.8,241.7H236.3c-18.8,0-34.1-15.2-34.1-34.1V74c0-18.8,15.2-34.1,34.1-34.1h155.5
			c18.8,0,34.1,15.2,34.1,34.1v133.5C425.9,226.4,410.7,241.7,391.8,241.7z"/>
		<path class="st8" d="M344.2,137.5h-41.1c-2,0-3.7,1.7-3.7,3.7v1.9c0,2,1.7,3.7,3.7,3.7h41.1c2,0,3.7-1.7,3.7-3.7v-1.9
			C347.8,139.2,346.2,137.5,344.2,137.5z"/>
		<path class="st9" d="M339.9,151h-32.6c-4.4,0-8,3.6-8,8v22.4c0,4.4,3.6,8,8,8h32.6c4.4,0,8-3.6,8-8V159
			C347.8,154.5,344.3,151,339.9,151z"/>
		<rect x="379.5" y="70.6" class="st8" width="27.3" height="2.7"/>
		<rect x="379.5" y="79.1" class="st8" width="31.5" height="2.7"/>
		<rect x="379.5" y="87.5" class="st8" width="16.3" height="2.7"/>
		<rect x="379.5" y="95.9" class="st8" width="25.1" height="2.7"/>
		<rect x="213.9" y="213.9" class="st10" width="119.7" height="2.8"/>
		<rect x="213.9" y="220.3" class="st10" width="129.3" height="2.8"/>
		<rect x="213.9" y="226.9" class="st10" width="83.9" height="2.8"/>
		
			<linearGradient id="SVGID_00000025411702437264405590000005751303720636778648_" gradientUnits="userSpaceOnUse" x1="306.8089" y1="196.4597" x2="187.0252" y2="196.4597" gradientTransform="matrix(1 0 0 -1 0 411.72)">
			<stop  offset="0" style="stop-color:#EEBE63"/>
			<stop  offset="1" style="stop-color:#DC3B57"/>
		</linearGradient>
		
			<rect x="213.9" y="213.9" style="fill:url(#SVGID_00000025411702437264405590000005751303720636778648_);" width="62.3" height="2.8"/>
		
			<linearGradient id="SVGID_00000108303127718449505270000012447439380931458716_" gradientUnits="userSpaceOnUse" x1="306.8096" y1="189.9756" x2="187.0252" y2="189.9756" gradientTransform="matrix(1 0 0 -1 0 411.72)">
			<stop  offset="0" style="stop-color:#EEBE63"/>
			<stop  offset="1" style="stop-color:#DC3B57"/>
		</linearGradient>
		
			<rect x="213.9" y="220.3" style="fill:url(#SVGID_00000108303127718449505270000012447439380931458716_);" width="67.3" height="2.8"/>
		
			<linearGradient id="SVGID_00000060717915143795992330000006687667083926118036_" gradientUnits="userSpaceOnUse" x1="306.8099" y1="183.4038" x2="187.0251" y2="183.4038" gradientTransform="matrix(1 0 0 -1 0 411.72)">
			<stop  offset="0" style="stop-color:#EEBE63"/>
			<stop  offset="1" style="stop-color:#DC3B57"/>
		</linearGradient>
		
			<rect x="213.9" y="226.9" style="fill:url(#SVGID_00000060717915143795992330000006687667083926118036_);" width="43.7" height="2.8"/>
		<path class="st14" d="M416.9,235.1h-21.6c-17,0-30.8-13.8-30.8-30.8v-58c0-17,13.8-30.7,30.7-30.7h21.6c17,0,30.7,13.8,30.7,30.7
			v58C447.5,221.3,433.8,235.1,416.9,235.1z"/>
		<path class="st15" d="M432.7,192.7h-56.3c-1,0-1.7-0.8-1.7-1.7v-0.9c0-1,0.8-1.7,1.7-1.7h56.3c1,0,1.7,0.8,1.7,1.7v0.9
			C434.3,192,433.5,192.7,432.7,192.7z"/>
		<path class="st15" d="M415.4,202.1h-39.2c-1,0-1.7-0.8-1.7-1.7v-0.9c0-1,0.8-1.7,1.7-1.7h39.2c1,0,1.7,0.8,1.7,1.7v0.9
			C417.1,201.3,416.4,202.1,415.4,202.1z"/>
		<path class="st15" d="M423.4,211.4h-47.1c-1,0-1.7-0.8-1.7-1.7v-0.9c0-1,0.8-1.7,1.7-1.7h47.1c1,0,1.7,0.8,1.7,1.7v0.9
			C425,210.7,424.3,211.4,423.4,211.4z"/>
		<path class="st10" d="M408.4,240.8h-4.6c-4.8,0-8.7-3.9-8.7-8.7v-4.6c0-4.8,3.9-8.7,8.7-8.7h4.6c4.8,0,8.7,3.9,8.7,8.7v4.6
			C417.1,236.8,413.2,240.8,408.4,240.8z"/>
		<rect x="405.1" y="225.3" class="st16" width="2.1" height="8.8"/>
		<rect x="401.7" y="228.7" class="st16" width="8.8" height="2.1"/>
		<g>
			<path class="st17" d="M270.7,263.1H195c-18,0-32.4-14.5-32.4-32.4v-63.9c0-18,14.5-32.4,32.4-32.4h75.7c18,0,32.4,14.5,32.4,32.4
				v63.9C303.1,248.6,288.6,263.1,270.7,263.1z"/>
			<g>
				<polygon class="st18" points="286.4,179.3 286.3,178.5 268.2,181.5 262.3,194.1 242.8,195.4 236.5,204.7 221.5,204.3 
					221.5,205.1 236.8,205.4 243.2,196.1 262.8,194.8 268.7,182.2 				"/>
			</g>
			<path class="st19" d="M264.2,154h19.5c1.2,0,2.2-1,2.2-2.2l0,0c0-1.2-1-2.2-2.2-2.2h-19.5c-1.2,0-2.2,1-2.2,2.2l0,0
				C262,153,263,154,264.2,154z"/>
			<path class="st18" d="M264.2,161.8h19.5c1.2,0,2.2-1,2.2-2.2l0,0c0-1.2-1-2.2-2.2-2.2h-19.5c-1.2,0-2.2,1-2.2,2.2l0,0
				C262,160.8,263,161.8,264.2,161.8z"/>
			<path class="st18" d="M264.2,169.6h19.5c1.2,0,2.2-1,2.2-2.2l0,0c0-1.2-1-2.2-2.2-2.2h-19.5c-1.2,0-2.2,1-2.2,2.2l0,0
				C262,168.6,263,169.6,264.2,169.6z"/>
			<path class="st18" d="M244.9,159.6h-66.2c-2.4,0-4.2-1.9-4.2-4.2v-2.3c0-2.4,1.9-4.2,4.2-4.2h66.2c2.4,0,4.2,1.9,4.2,4.2v2.3
				C249.1,157.7,247.2,159.6,244.9,159.6z"/>
			<path class="st19" d="M244.9,175h-66.2c-2.4,0-4.2-1.9-4.2-4.2v-2.3c0-2.4,1.9-4.2,4.2-4.2h66.2c2.4,0,4.2,1.9,4.2,4.2v2.3
				C249.1,173,247.2,175,244.9,175z"/>
			<g>
				<g>
					<g>
						<path class="st18" d="M284,209.9c-4.9-6.7-13.5-9.2-21-6.7c-1.8,0.6-3.6,1.5-5.3,2.7c-4.9,3.6-7.6,9.2-7.7,14.9
							c-0.1,3.9,1.1,8,3.6,11.4c0.3,0.4,0.5,0.7,0.8,1c1.2,1.5,2.6,2.6,4.1,3.7c6.4,4.1,14.9,4.2,21.4-0.6
							C288.2,230,290.1,218.2,284,209.9z M277.1,232.3c-4.9,3.6-11.2,3.5-16,0.4c-1.1-0.7-2.2-1.7-3.1-2.7c-0.2-0.3-0.4-0.5-0.6-0.7
							c-1.8-2.5-2.8-5.6-2.7-8.5c0.1-4.3,2-8.5,5.8-11.2c1.2-0.9,2.5-1.6,3.9-2c5.6-1.8,12.1,0,15.8,5.1
							C284.7,218.9,283.4,227.8,277.1,232.3z"/>
					</g>
				</g>
				<g>
					<g>
						<path class="st20" d="M254.7,220.8l-4.7-0.1c0.1-5.7,2.7-11.3,7.7-14.9c1.7-1.2,3.4-2.1,5.3-2.7l1.5,4.5
							c-1.4,0.4-2.7,1.1-3.9,2C256.8,212.4,254.8,216.5,254.7,220.8z"/>
					</g>
				</g>
				<g>
					<g>
						<path class="st21" d="M258,230.1l-3.6,3.1c-0.3-0.4-0.5-0.6-0.8-1c-2.5-3.4-3.7-7.4-3.6-11.4l4.7,0.1c-0.1,3,0.9,6,2.7,8.5
							C257.6,229.5,257.8,229.8,258,230.1z"/>
					</g>
				</g>
				<g>
					<g>
						<path class="st22" d="M258.5,236.7c-1.5-1-2.9-2.2-4.1-3.7l3.6-3.1c0.9,1.1,1.9,2,3.1,2.7L258.5,236.7z"/>
					</g>
				</g>
			</g>
		</g>
		<g>
			
				<linearGradient id="SVGID_00000046334899991423652230000003710409840636832438_" gradientUnits="userSpaceOnUse" x1="127.2376" y1="172.4164" x2="170.765" y2="172.4164" gradientTransform="matrix(1 0 0 -1 0 411.72)">
				<stop  offset="0" style="stop-color:#81D3E4"/>
				<stop  offset="1" style="stop-color:#6076FA"/>
			</linearGradient>
			<path style="fill:url(#SVGID_00000046334899991423652230000003710409840636832438_);" d="M131.1,181.8c3.8-1.8,7.4,10.2,7.4,10.2
				c6.4,8.4,15.3-2.8,14.5,9.8c-1.5,22.1,25.4,6.9,13,30c-12.4,23,11,13.1,3.2,31.5c-7.7,18.6,2.3,40.7-9.3,31.6
				c0,0-10.3-22.4-20.8-29.4c-10.5-6.9,6.3-15.2,3-24.5c-4.8-13.7-16.3-13.1-8-27.9C142.4,198.4,118.3,187.9,131.1,181.8z"/>
			<g>
				<path class="st10" d="M163.6,286.5c-5-3.5-11-28.2-11.3-42.8c-0.2-7.5-2.4-10.7-4.4-13.4c-1.8-2.6-3.5-4.9-2.5-10.2
					c1.8-10-3-14.4-3-14.4l0.5-0.6c0.2,0.2,5.2,4.6,3.2,15.2c-0.9,4.9,0.6,6.9,2.5,9.6c1.9,2.7,4.3,6.1,4.6,13.8
					c0.4,15.8,6.4,39,11,42.2L163.6,286.5z"/>
			</g>
			<g>
				
					<linearGradient id="SVGID_00000085953714999392336520000015839569928526608551_" gradientUnits="userSpaceOnUse" x1="159.1757" y1="148.179" x2="198.5019" y2="148.179" gradientTransform="matrix(1 0 0 -1 0 411.72)">
					<stop  offset="0" style="stop-color:#81D3E4"/>
					<stop  offset="1" style="stop-color:#6076FA"/>
				</linearGradient>
				<path style="fill:url(#SVGID_00000085953714999392336520000015839569928526608551_);" d="M165.4,288.3c-0.6,0-1.3-0.1-2.1-0.3
					c-1.9-0.4-3.2-1.4-3.8-3.1c-1.3-3.9,1.8-10.2,4.3-13.2c0-0.1,4.3-5.3,3.9-12.5c-0.1-1.2-0.2-2.4-0.4-3.3
					c-0.4-2.9-0.5-4.9,0.7-6.3c1.1-1.2,3.2-1.8,7-1.8c6.7,0,9.4-2.8,11.5-5c0.9-1,1.8-1.8,2.8-2.4l0,0c3.3-1.8,6.8-2.1,8.4-0.6
					c0.7,0.7,1.3,2,0.2,4.6c-1.1,2.3-2.5,3.8-3.7,4.9c-1.6,1.6-2.5,2.6-2,4.7c0.1,0.5,0.3,1,0.4,1.5c1.1,3.5,2.2,7.5-3.9,10.3
					c-1.3,0.6-2.5,1.1-3.5,1.4c-4.2,1.7-6.7,2.6-9.6,8.7c-0.5,1.1-1.1,2.3-1.5,3.3C171.8,284.4,170.1,288.3,165.4,288.3z
					 M189.7,241.2c-1,0.5-1.7,1.3-2.6,2.3c-2.3,2.4-5,5.3-12.1,5.3c-3.5,0-5.4,0.4-6.4,1.5c-1,1.1-0.8,3-0.4,5.7
					c0.1,1,0.3,2.1,0.4,3.3c0.4,7.5-3.9,12.9-4,13.1c-2.5,3-5.3,9-4.2,12.4c0.4,1.3,1.5,2.2,3.2,2.5c5.7,1.1,7.3-2.5,9.9-8.3
					c0.4-1.1,1-2.2,1.5-3.4c3-6.4,5.8-7.4,10.1-9.1c1.1-0.4,2.2-0.9,3.4-1.4c5.3-2.5,4.4-5.7,3.4-9.3c-0.2-0.5-0.3-1-0.4-1.5
					c-0.6-2.5,0.6-3.9,2.3-5.5c1.1-1.2,2.5-2.5,3.5-4.7c0.5-1.1,1-2.7,0-3.6C195.9,239.3,192.7,239.6,189.7,241.2L189.7,241.2z"/>
			</g>
			<g>
				
					<linearGradient id="SVGID_00000111151846243020396840000004156775697879816332_" gradientUnits="userSpaceOnUse" x1="162.5393" y1="142.3522" x2="192.0769" y2="142.3522" gradientTransform="matrix(1 0 0 -1 0 411.72)">
					<stop  offset="0" style="stop-color:#81D3E4"/>
					<stop  offset="1" style="stop-color:#6076FA"/>
				</linearGradient>
				<path style="fill:url(#SVGID_00000111151846243020396840000004156775697879816332_);" d="M163.4,293.1h-0.8
					c0-0.8,1.1-19.2,8.5-24.5c8.1-5.9,10.7-12.3,11.9-16.5c1.4-5,8.8-6.4,9-6.4l0.2,0.8c-0.1,0-7.1,1.3-8.4,5.9
					c-1.2,4.4-3.9,10.9-12.2,17C164.4,274.3,163.4,292.9,163.4,293.1z"/>
			</g>
			
				<linearGradient id="SVGID_00000176737066023237430890000000689424750698101681_" gradientUnits="userSpaceOnUse" x1="151.8726" y1="166.2155" x2="186.2509" y2="166.2155" gradientTransform="matrix(1 0 0 -1 0 411.72)">
				<stop  offset="0" style="stop-color:#81D3E4"/>
				<stop  offset="1" style="stop-color:#6076FA"/>
			</linearGradient>
			<path style="fill:url(#SVGID_00000176737066023237430890000000689424750698101681_);" d="M180.3,200.4c-5.3-1.8-4.1,8.3-6.4,15.8
				c-2.2,7.4-24.7,3.2-15.2,22c9.5,18.8-11.9,6.3-5.5,22.6c6.4,16.4,0.5,33.8,7.4,29.4c6.9-4.5,3.9-25.1,11.1-27.5
				c7.2-2.5,8.4-5.3,1.2-11.9c-7.1-6.7,18.7-13.2,12.4-26.7C178.9,210.6,186.3,202.5,180.3,200.4z"/>
			<g>
				<path class="st10" d="M163.8,289.5c-0.7-2.8-6.3-27.4-1.1-30.4c4.6-2.6,4.6-12.9,3.8-22.5c-0.6-8.5,10.3-12.5,10.8-12.7l0.3,0.8
					c-0.1,0-10.9,3.9-10.3,11.8c0.7,9.9,0.8,20.4-4.2,23.3c-4,2.3-0.4,22.1,1.4,29.5L163.8,289.5z"/>
			</g>
			
				<linearGradient id="SVGID_00000092441499393021407770000002964685706164056961_" gradientUnits="userSpaceOnUse" x1="143.9794" y1="116.8099" x2="175.6991" y2="116.8099" gradientTransform="matrix(1 0 0 -1 0 411.72)">
				<stop  offset="0" style="stop-color:#E59148"/>
				<stop  offset="1" style="stop-color:#F1CC52"/>
			</linearGradient>
			<polygon style="fill:url(#SVGID_00000092441499393021407770000002964685706164056961_);" points="175.7,280.7 168.2,309.1 
				151.5,309.1 144,280.7 			"/>
			
				<linearGradient id="SVGID_00000161612586109071756860000011371163790004912554_" gradientUnits="userSpaceOnUse" x1="143.9794" y1="116.7661" x2="175.6991" y2="116.7661" gradientTransform="matrix(1 0 0 -1 0 411.72)">
				<stop  offset="0" style="stop-color:#B37239"/>
				<stop  offset="1" style="stop-color:#F1CC52"/>
			</linearGradient>
			<path style="fill:url(#SVGID_00000161612586109071756860000011371163790004912554_);" d="M175.7,280.7c0,0-16.5,3.1-16.5,28.5
				h-7.7l-7.5-28.5H175.7z"/>
		</g>
		<g>
			
				<linearGradient id="SVGID_00000161601604168605937830000012719152307699608984_" gradientUnits="userSpaceOnUse" x1="435.8167" y1="161.4967" x2="409.8801" y2="161.4967" gradientTransform="matrix(1 0 0 -1 -217.4038 201.4224)">
				<stop  offset="0" style="stop-color:#81D3E4"/>
				<stop  offset="1" style="stop-color:#6076FA"/>
			</linearGradient>
			<polygon style="fill:url(#SVGID_00000161601604168605937830000012719152307699608984_);" points="218.4,27 218.4,29.4 
				194.9,29.4 194.9,52.9 192.5,52.9 192.5,27 			"/>
		</g>
		<g>
			<g>
				<rect x="199" y="243.7" class="st30" width="23.7" height="1.4"/>
			</g>
			<g>
				<rect x="202.2" y="248.7" class="st31" width="2.1" height="63.8"/>
			</g>
			<g>
				<rect x="218.9" y="243.3" class="st32" width="16.4" height="2"/>
			</g>
			<g>
				<rect x="224" y="226.3" class="st33" width="6.2" height="18.8"/>
			</g>
			<g>
				<rect x="190.5" y="245.1" class="st34" width="91" height="3.6"/>
			</g>
			<g>
				<path class="st35" d="M173,223.2c0,0-1,13.9,1.8,15.6c1.7,1.1,8.5,4.6,8.3,5.3c-0.2,0.7-3.9,5.9-3.9,5.9s-13.1-8.6-13.5-11.3
					c-0.4-2.6,0.6-20.4,2.5-21.2c1.3-0.6,2-0.1,3.8,1.1C174.3,220.3,173,223.2,173,223.2z"/>
			</g>
			<g>
				<g>
					<g>
						<path class="st36" d="M189.1,303.8c0,0-0.4,2.8-0.4,3.2c-0.1,0.4-4.6-0.3-4.6-0.3l-0.4-3.3
							C183.8,303.5,188.6,303.4,189.1,303.8z"/>
					</g>
				</g>
			</g>
			<g>
				<g>
					<g>
						<path class="st37" d="M188.7,306.7c0,0,1.4,1.7,2.8,2.5c1.4,0.7,3.5,1.1,4.3,1.8c0.6,0.5,2.1,3-3.6,2.9
							c-5.7-0.1-8.4,0.4-9-0.6c-0.6-0.9,0.9-6.7,0.9-6.7S185.5,307,188.7,306.7z"/>
					</g>
				</g>
			</g>
			<g>
				<g>
					<g>
						<path class="st36" d="M217.8,303.8c0,0-0.4,2.8-0.4,3.2c-0.1,0.4-4.6-0.3-4.6-0.3l-0.4-3.3
							C212.5,303.5,217.3,303.5,217.8,303.8z"/>
					</g>
				</g>
			</g>
			<g>
				<g>
					<g>
						<path class="st37" d="M217.4,306.7c0,0,1.4,1.7,2.8,2.5c1.4,0.7,6.4,1.3,7.2,2.1c0.6,0.5,1.6,2.8-6.5,2.5
							c-5.7-0.2-8.4,0.4-9-0.6c-0.6-0.9,0.9-6.7,0.9-6.7S214,307.1,217.4,306.7z"/>
					</g>
				</g>
			</g>
			<g>
				<g>
					<g>
						<path class="st37" d="M174.7,255c0,0,16.3,2.7,19.9,3.3c3.7,0.6,23.6,5.5,26.1,7c2,1.2-1.1,30.1-1.8,41.1h-7.9l-0.5-33
							c-9.4,0.3-16.1-2.2-23-1.1c-6.8,1.1-12.5,2.5-16.9-3.3C170.7,269,170.5,256.4,174.7,255z"/>
					</g>
				</g>
			</g>
			<g>
				<g>
					<g>
						<path class="st37" d="M190.7,306.6l-7.6-0.4l-0.7-32.6c-4,0.1-5.4-0.2-8.8-0.5l-6.1-14.4c5.4,1.1,22.8,5.4,25.1,6.8
							C194.5,266.6,191.4,295.5,190.7,306.6z"/>
					</g>
				</g>
			</g>
			<g>
				<g>
					<g>
						<path class="st38" d="M182.2,194.1c0,0,6-1.7,8.2,3c2.3,4.6,1.2,13.4-1.8,14.2c-3,0.8-7.4-0.1-8.6-3s-2.3-7-1.9-9.6
							C178.5,196.1,180.6,194.8,182.2,194.1z"/>
					</g>
				</g>
			</g>
			<g>
				<g>
					<g>
						<path class="st38" d="M187.1,210.4c0,0-0.1,3.5,0.4,4.3c0.4,0.8-8.3,0.5-8.3,0.5s1.4-4.2,0.6-7.8
							C179,203.9,187.1,210.4,187.1,210.4z"/>
					</g>
				</g>
			</g>
			<g>
				<g>
					<g>
						<path class="st39" d="M179.2,206.1c0,0,0.4,1,2.7,0.8c2.3-0.2,5.3-2.9,6.1-3.1c1-0.3,1.1-0.8,1.1-0.8l0.5,0.9l1,0.2
							c0,0-0.7-2.7,0.8-3.7c1.5-1-0.6-8.7-8-6.8c0,0-5.6,1.1-5.7,4.1C177.7,200.8,178.2,204.4,179.2,206.1z"/>
					</g>
				</g>
			</g>
			<g>
				<g>
					<g>
						<path class="st30" d="M187.9,214.6c0,0,0-1.4-0.7-1.6c-0.6-0.2-6.8-1-7.6-0.7l-0.4,1.9C179.2,214.2,180.8,215.2,187.9,214.6z"
							/>
					</g>
				</g>
			</g>
			<g>
				<g>
					<g>
						<path class="st38" d="M189.7,202.3c-0.2-1.1-1.5-2.5-2.3-0.7c-0.8,1.8,0.5,4.5,1.4,4.4C189.7,205.9,189.9,204,189.7,202.3z"/>
					</g>
				</g>
			</g>
			<g>
				<g>
					<g>
						<path class="st40" d="M213.8,231.6L213.8,231.6C213.9,231.6,213.9,231.6,213.8,231.6z"/>
					</g>
				</g>
			</g>
			<g>
				<g>
					<g>
						<path class="st39" d="M180.5,194.9c0,0-7.3-0.4-1.2,11L180.5,194.9z"/>
					</g>
				</g>
			</g>
			<g>
				<g>
					<polygon class="st41" points="164.3,310.4 164.8,311.9 187.7,304.9 186.6,301.7 					"/>
				</g>
			</g>
			<g>
				<g>
					<rect x="185.8" y="279" class="st41" width="2.6" height="24.8"/>
				</g>
			</g>
			<g>
				<g>
					<rect x="179.5" y="277.6" class="st42" width="15.3" height="1.5"/>
				</g>
			</g>
			<g>
				<g>
					<polygon class="st41" points="210.2,310.4 209.7,311.9 186.9,304.9 187.8,301.6 					"/>
				</g>
			</g>
			<g>
				<g>
					<polygon class="st41" points="194.1,311.8 194.1,313.6 186.9,304.9 187.8,301.6 					"/>
				</g>
			</g>
			<g>
				<g>
					<path class="st43" d="M212.4,312.5c0,1.1-1,2.1-2.1,2.1c-1.1,0-2.1-1-2.1-2.1c0-1.1,1-2.1,2.1-2.1
						C211.4,310.4,212.4,311.4,212.4,312.5z"/>
				</g>
			</g>
			<g>
				<g>
					<path class="st43" d="M194.3,312.5c0,1.1-1,2.1-2.1,2.1s-2.1-1-2.1-2.1c0-1.1,1-2.1,2.1-2.1
						C193.4,310.4,194.3,311.4,194.3,312.5z"/>
				</g>
			</g>
			<g>
				<g>
					<path class="st43" d="M166.5,312.5c0,1.1-1,2.1-2.1,2.1c-1.1,0-2.1-1-2.1-2.1c0-1.1,1-2.1,2.1-2.1
						C165.5,310.4,166.5,311.4,166.5,312.5z"/>
				</g>
			</g>
			<g>
				<path class="st30" d="M202.6,277.6h-30.8c-1.5,0-2.8-1.2-2.8-2.8l0,0c0-1.5,1.2-2.8,2.8-2.8h30.8c1.5,0,2.8,1.2,2.8,2.8l0,0
					C205.4,276.4,204.1,277.6,202.6,277.6z"/>
			</g>
			<g>
				<rect x="267.7" y="248.8" class="st31" width="2.1" height="63.8"/>
			</g>
			<g>
				<path class="st44" d="M243.6,235.3h-33c-5.7,0-10.3-4.6-10.3-10.3v-17.2c0-5.7,4.6-10.3,10.3-10.3h33c5.7,0,10.3,4.6,10.3,10.3
					V225C254,230.7,249.3,235.3,243.6,235.3z"/>
			</g>
			<g>
				<rect x="202.4" y="199.6" class="st45" width="49.5" height="29.9"/>
			</g>
			<g>
				<path class="st46" d="M249.6,232.3c0,0.9-0.9,1.6-2,1.6s-2-0.7-2-1.6c0-0.9,0.9-1.6,2-1.6C248.7,230.7,249.6,231.4,249.6,232.3z
					"/>
			</g>
			<g>
				<path class="st33" d="M238.2,245.2v-0.7c0,0-1-4.2-7.6-4.2c-6.7,0-6.6,4.9-6.6,4.9L238.2,245.2L238.2,245.2z"/>
			</g>
			<g>
				<g>
					<path class="st38" d="M223.9,240.9c0,0,1.5-0.1,2-0.4c0.5-0.4,3.7-2.5,4.5-2.1c0.8,0.4,5.7,1.8,5.5,2.6c-0.2,0.7-0.6,0.7-1,0.5
						c-0.4-0.1-3.9-0.9-4.3-0.8c0,0,3.6,1.3,3.6,2.3c0,1-0.7,1.1-1.1,1.6c-0.4,0.4-0.7,1.2-1.7,1.3c-0.9,0.1-5.4-1.5-6.3-1.6
						c-1-0.1-2.6,0.1-2.7-0.1C222.4,244.1,223.9,240.9,223.9,240.9z"/>
				</g>
			</g>
			<g>
				<g>
					<g>
						<path class="st35" d="M197.5,216.6c-4.6-0.8-9.6-2-9.6-2l-8.7-0.4c0,0-8,1.8-11,3.2c-0.3,0.2-0.3,7.1-1.1,8.9l2.6,5.4
							c0,0,1.5,10.9,1.8,15.6c0.2,2.2-0.4,21.4-0.4,21.4s0.8,0.4,6.7,1.1c5.9,0.6,20.7-0.3,20.8-1c0.1-0.7-2.9-25.9-3-27.3
							c-0.2-2,0.6-11.3,0.6-11.3c1.1,1.5,3.9,8.2,6.9,11.5c1.8,1.9,10.3,3.1,12,3.1c3.5,0.1,10,0.8,10.2,0.4
							c0.2-0.2,0.5-5.7,0.2-5.9c-0.4-0.1-12.4-0.8-15.3-2.5c-1.1-0.6-4.5-7.9-4.5-7.9S200,217.7,197.5,216.6z"/>
					</g>
				</g>
			</g>
			<g>
				<path class="st30" d="M175.7,268.2h-5.3c-5.4,0-9.9-4.5-9.9-9.9v-14.9c0-5.4,4.5-9.9,9.9-9.9h5.3c5.4,0,9.9,4.5,9.9,9.9v14.9
					C185.6,263.8,181.3,268.2,175.7,268.2z"/>
			</g>
			<g>
				<path class="st30" d="M181.2,276.2c-3.7,0-6.7-1.2-8.8-3.7c-5-5.5-4.1-15.2-4-15.6c0.1-0.8,0.8-1.3,1.5-1.2
					c0.8,0.1,1.3,0.8,1.2,1.5c0,0.1-0.8,8.9,3.3,13.5c1.7,1.8,3.9,2.7,6.8,2.7c0.8,0,1.4,0.6,1.4,1.4
					C182.6,275.6,182,276.2,181.2,276.2z"/>
			</g>
			<g>
				<g>
					<g>
						<path class="st47" d="M219.7,203.5h-13.2c-0.4,0-0.6-0.3-0.6-0.6v-0.4c0-0.4,0.3-0.6,0.6-0.6h13.2c0.4,0,0.6,0.3,0.6,0.6v0.4
							C220.3,203.3,220.1,203.5,219.7,203.5z"/>
					</g>
				</g>
			</g>
			<g>
				<g>
					<g>
						<path class="st47" d="M219.7,206.8h-13.2c-0.4,0-0.6-0.3-0.6-0.6v-0.4c0-0.4,0.3-0.6,0.6-0.6h13.2c0.4,0,0.6,0.3,0.6,0.6v0.4
							C220.3,206.6,220.1,206.8,219.7,206.8z"/>
					</g>
				</g>
			</g>
			<g>
				<g>
					<g>
						<path class="st47" d="M215.4,227h-4.6c-2.7,0-5-2.2-5-5v-7.9c0-2.7,2.2-5,5-5h4.6c2.7,0,5,2.2,5,5v7.9
							C220.3,224.8,218.1,227,215.4,227z"/>
					</g>
				</g>
			</g>
			<g>
				<g>
					<g>
						<path class="st47" d="M241.2,227h-10c-4.4,0-7.9-3.5-7.9-7.9v-9.3c0-4.4,3.5-7.9,7.9-7.9h10c4.4,0,7.9,3.5,7.9,7.9v9.4
							C249.1,223.5,245.6,227,241.2,227z"/>
					</g>
				</g>
			</g>
		</g>
		<g>
			<g>
				<rect x="217.7" y="67.4" class="st48" width="0.4" height="48.5"/>
			</g>
			<g>
				<rect x="250.7" y="67.4" class="st48" width="0.4" height="48.5"/>
			</g>
			<g>
				<rect x="283.5" y="67.4" class="st48" width="0.4" height="48.5"/>
			</g>
			<g>
				<rect x="316.5" y="67.4" class="st48" width="0.4" height="48.5"/>
			</g>
			<g>
				<rect x="349.4" y="67.4" class="st48" width="0.4" height="48.5"/>
			</g>
			<rect x="218" y="118.8" class="st49" width="5.3" height="1.7"/>
			<rect x="218" y="61.3" class="st50" width="7.9" height="1.2"/>
			<rect x="218" y="63.7" class="st50" width="11.2" height="1.2"/>
			<rect x="250.5" y="61.3" class="st50" width="9.3" height="1.2"/>
			<rect x="250.5" y="63.7" class="st50" width="6" height="1.2"/>
			<rect x="284" y="61.3" class="st50" width="5.7" height="1.2"/>
			<rect x="284" y="63.7" class="st50" width="6.7" height="1.2"/>
			<rect x="317" y="61.3" class="st50" width="8.3" height="1.2"/>
			<rect x="317" y="63.7" class="st50" width="6.7" height="1.2"/>
			<rect x="349.7" y="61.3" class="st50" width="5" height="1.2"/>
			<rect x="349.7" y="63.7" class="st50" width="4" height="1.2"/>
			<rect x="250.8" y="118.8" class="st49" width="5.3" height="1.7"/>
			<rect x="284" y="118.8" class="st49" width="5.3" height="1.7"/>
			<rect x="317" y="118.8" class="st49" width="5.3" height="1.7"/>
			<rect x="349.8" y="118.8" class="st49" width="5.3" height="1.7"/>
			<g>
				
					<linearGradient id="SVGID_00000013175022548008414410000004288069309179319740_" gradientUnits="userSpaceOnUse" x1="217.8871" y1="321.0691" x2="349.5853" y2="321.0691" gradientTransform="matrix(1 0 0 -1 0 411.72)">
					<stop  offset="0" style="stop-color:#EEBE63"/>
					<stop  offset="1" style="stop-color:#DC3B57"/>
				</linearGradient>
				<path style="fill:url(#SVGID_00000013175022548008414410000004288069309179319740_);" d="M338.2,101.4c-10.3,0-19.2-4.5-28.5-9
					c-11.5-5.7-23.4-11.7-39.2-10c-10.1,1.1-16.5,5.2-22.1,8.8c-5.1,3.3-9.9,6.2-16.4,6.4c-10.5,0.4-14.1-4.1-14.2-4.4v-2.9l0,0l0,0
					c0,0.1,2.3,5.1,14.2,5c5.9,0,10.2-2.8,15.2-6c5.8-3.8,12.4-8.1,23-9.1c16.5-1.7,28.7,4.4,40.4,10.3c12.4,6.1,24.1,11.8,38.9,6.9
					v2.4C345.4,101.1,342,101.4,338.2,101.4z"/>
			</g>
			<g>
				
					<linearGradient id="SVGID_00000036931896537336732580000003764017396222841223_" gradientUnits="userSpaceOnUse" x1="217.9747" y1="324.5715" x2="349.7605" y2="324.5715" gradientTransform="matrix(1 0 0 -1 0 411.72)">
					<stop  offset="0" style="stop-color:#81D3E4"/>
					<stop  offset="1" style="stop-color:#6076FA"/>
				</linearGradient>
				<path style="fill:url(#SVGID_00000036931896537336732580000003764017396222841223_);" d="M276.6,100.9
					c-7.6,0-13.6-5.1-19.5-10.1c-4.5-3.8-9.1-7.6-14.5-9.6c-16.3-5.8-24.6,4.8-24.7,4.9v-3.2c0.1-0.1,1.6-2,5.9-3.9
					c3.9-1.7,10.5-3,19.5,0.2c5.8,2,10.5,6,15.2,10c9.4,8,17.4,14.8,31.5,4c10.6-8.1,20.7-15.9,30.6-18.8c9.6-2.8,19.7-0.7,29.1,8.7
					l-0.1,3c-20-20.1-37.1-7.4-58.3,8.8C285.8,99.2,280.9,100.9,276.6,100.9z"/>
			</g>
		</g>
		<g>
			<path class="st53" d="M430.2,179.6H381c-3.8,0-6.7-3.1-6.7-6.7v-43.6c0-3.8,3.1-6.7,6.7-6.7h49.2c3.8,0,6.7,3.1,6.7,6.7v43.5
				C436.9,176.5,433.9,179.6,430.2,179.6z M381,123.3c-3.2,0-6,2.6-6,6v43.5c0,3.2,2.6,6,6,6h49.2c3.2,0,6-2.6,6-6v-43.5
				c0-3.2-2.6-6-6-6H381z"/>
		</g>
		<g>
			<g>
				<path class="st54" d="M459.3,302.1c0,0,0.4,3.2,0.5,3.6c0.1,0.4,5-0.3,5-0.3l0.4-3.7C465.2,301.7,459.9,301.7,459.3,302.1z"/>
			</g>
			<g>
				<path class="st55" d="M459.8,305.3c0,0-1.6,1.8-3.1,2.7c-1.5,0.8-3.9,1.1-4.7,2c-0.6,0.6-2.4,3.2,3.9,3.2
					c6.2-0.1,9.3,0.4,9.9-0.6c0.7-1.1-1-7.4-1-7.4S463.3,305.6,459.8,305.3z"/>
			</g>
			<g>
				<path class="st54" d="M424.2,302.1c0,0,0.4,3.2,0.5,3.6c0.1,0.4,5-0.3,5-0.3l0.4-3.7C430,301.7,424.8,301.7,424.2,302.1z"/>
			</g>
			<g>
				<path class="st55" d="M424.7,305.3c0,0-1.6,1.8-3.1,2.7c-1.5,0.8-7,1.5-7.9,2.4c-0.6,0.6-1.7,3.1,7.1,2.9
					c6.2-0.2,9.3,0.4,9.9-0.6c0.7-1.1-1-7.4-1-7.4S428.3,305.7,424.7,305.3z"/>
			</g>
			<g>
				<path class="st56" d="M457.6,221.5c0,0,2.6,7.7,2.3,14.5c-0.4,6.7,1.3,14,2,20.9c0.8,7.8,3.9,26.2,4,30.4
					c0.1,4.2-0.5,17.4-0.5,17.4l-6.3,0.2c0,0-5.3-32.2-6.7-35.5c-1.4-3.3-8.2-26.7-8.4-29.4C443.8,237.3,457.6,221.5,457.6,221.5z"
					/>
			</g>
			<g>
				<path class="st55" d="M431,222.8c0,0-3.5,18.3-3.9,22.4c-0.4,4.1-0.8,19.8-1,22.3c-0.3,2.5-1.5,33.5-2.7,37.2h8.1
					c0,0,6.2-22.4,6.2-33.1c0-10.6,4.8-23.1,7.9-30.1c3.1-7,10.2-7.2,12.1-20.2C457.6,221.5,433.6,218.7,431,222.8z"/>
			</g>
			<g>
				<path class="st38" d="M447.5,160.2c0,0-6.4-2.4-9.3,2.5c-3,4.8-2.6,14.5,0.5,15.8c3.2,1.2,8.1,0.5,9.6-2.5
					c1.7-3.1,3.2-7.4,3.1-10.3C451.3,162.7,449.1,161.1,447.5,160.2z"/>
			</g>
			<g>
				<path class="st38" d="M439.7,178.2c0,0,0.3,1.7-0.2,2.5c-0.4,0.8,8,0.9,8,0.9s0.7-4.5,2-8.2
					C450.9,169.4,439.7,178.2,439.7,178.2z"/>
			</g>
			<g>
				<path class="st57" d="M449.6,173.2c0,0-0.6,1-3,0.6c-2.4-0.4-5.3-3.5-6.3-3.9c-1-0.4-1-1-1-1l-0.6,0.9l-1.1,0.1
					c0,0,1-2.8-0.5-3.9c-1.5-1.1,1.5-9.2,9.1-6.5c0,0,5.9,1.6,5.6,4.9C451.8,167.8,450.9,171.6,449.6,173.2z"/>
			</g>
			<g>
				<path class="st30" d="M439,180.6c0,0,0-1.6,0.7-1.8c0.7-0.2,7.9-0.9,8.8-0.5v1.8C448.6,180.2,446.8,181.2,439,180.6z"/>
			</g>
			<g>
				<path class="st38" d="M439.5,167.8c0.2-0.5,1.6-2.2,2.1-0.4c0.5,1.8-0.8,4-1.6,3.8C439.2,171,439.1,169.3,439.5,167.8z"/>
			</g>
			<g>
				<path class="st58" d="M439,180.6c0,0-3.9,1.4-8.5,3.3c0,0-5.3,1.9-5.8,7.7c-0.3,3.1-3.6,19.3-4.2,20.7
					c-0.6,1.4-7.8,23.5-8.1,23.9c-0.3,0.4,5.9,3,6.3,2.8c0.4-0.2,7-20.2,7.6-21.6c0,0,3.8-11.9,3.9-13.8c0,0,0.1,5.1,0.4,6.5
					c0.2,1.4-3.4,29.1-3.2,29.9c0.1,0.8,16.3,1.8,22.7,1.1c6.5-0.7,11.7-2.2,11.7-2.2s-5.1-21.8-4.9-24.3c0.4-5.3,2.1-15.2,2.1-15.2
					l5.3,9.9l-6.7,17.3l1.6,5.3c0,0,12.5-18.9,13-20.7s-0.6-3.9-1.3-5.3c-0.7-1.4-5-12.3-6-13.8c-1.1-1.5-2.7-7.6-6.9-9.4
					c-3.5-1.4-9.3-2.6-9.3-2.6L439,180.6z"/>
			</g>
			<g>
				
					<rect x="407.7" y="216.9" transform="matrix(0.2484 -0.9687 0.9687 0.2484 89.5498 579.6624)" class="st59" width="21.3" height="30.5"/>
			</g>
			<g>
				<path class="st60" d="M410,240.8c0,0-0.9,1.4-1.1,1.8c-0.4,0.4,0.8,0.6,1.2,0.3C410.5,242.3,410,240.8,410,240.8z"/>
			</g>
			<g>
				<path class="st61" d="M416.2,245.4c0,0,0.5-0.5,0.6-0.9c0,0,0.2-0.6,0.3-1.1c0-0.2,0.1-0.3,0.1-0.4c0.2-0.4,0.5-1,0.7-1.8
					c0.1-0.9,0.5-4.6,0.5-4.6l-2.3-0.6l-1.8-0.4c0,0-3.9,3.9-4.2,4.7c0,0.1,0,0.2-0.1,0.3c-0.1,0.7,0.1,1.2,0.1,1.6
					c0,0.1,0,1.5,0.4,1.7c0.4,0.4,0.9,0.4,1.2,0.3c0,0,0.9,0.6,1.6,0.6c0,0,0.8,0.6,1.7,0.4C414.8,245.2,415.7,245.8,416.2,245.4z"
					/>
			</g>
			<g>
				<path class="st58" d="M425.1,221.5c0,0-5.3,15.9-6.2,17.5c0,0-3.9-0.8-6.3-2.8l5.8-17.2L425.1,221.5z"/>
			</g>
		</g>
		<g>
			<path class="st38" d="M348.7,221.1c0,0-1.6-0.2-2.3-0.2s-4,1.8-5.1,1.8c-1.1-0.1-8.4-2.5-8.8-2.6s0.1-0.7,0.1-0.7l16.2-1.6
				L348.7,221.1z"/>
			<g>
				<path class="st62" d="M361.7,194.9l1.7,17.1c0,0,0.7,2.1-4,2.9c-4.9,0.8-12.5,2.5-12.5,2.5s0.1,5.7,0.8,5.7
					c1.8,0.1,15.8-2.3,21.2-3.4c4.4-1,1.7-24.2,1.7-24.2L361.7,194.9z"/>
			</g>
			<path class="st38" d="M348.4,215.3c0,0-1.5,0.4-2.3,0.4c-0.7,0.1-4.2-1.2-5.3-1.1c-1.1,0.2-8,3.7-8.3,3.9
				c-0.4,0.3,0.2,0.7,0.2,0.7l16.3-0.9L348.4,215.3z"/>
			<g>
				<g>
					<g>
						<path class="st37" d="M366.4,305.7c0,0-3.4,2-4.9,2.8c-1.5,0.8-7.5,1.1-8.1,1.6c-0.6,0.5-0.4,2.4,0.6,2.5
							c1,0.2,8.2,0.7,10.7,0.2c2.5-0.6,7,0.3,8-0.1c1-0.4,0.3-5.8-0.1-7C372.2,304.5,366.4,305.7,366.4,305.7z"/>
					</g>
				</g>
			</g>
			<g>
				<g>
					<g>
						<path class="st63" d="M366.1,303.5l0.4,2.2c0,0,4.6,0.8,6,0.1l-0.4-2.3H366.1z"/>
					</g>
				</g>
			</g>
			<path class="st37" d="M357.1,226c-0.1,1.5-0.3,4.9-0.3,8.4c0,0.8,0,1.6-0.1,2.4c-0.1,4.7-0.1,9.1-0.1,9.1
				c0.3,6,1.1,18.8,2.9,21.7c2.4,3.9,5.2,36.4,5.2,36.4l8.8,1c0,0,0.5-21.6-0.8-27.3c-1.5-6.3-4.3-15-2.6-20.7
				c1-3.6,3.1-15.2,3.1-15.2s2.3-13.1-0.1-23.1C372.5,215.9,357.1,226,357.1,226z"/>
			<g>
				<g>
					<g>
						<path class="st37" d="M351.3,305.7c0,0-3.4,2-4.9,2.8c-1.5,0.8-7.5,1.1-8.1,1.6c-0.6,0.5-0.4,2.4,0.6,2.5
							c1,0.2,8.2,0.7,10.7,0.2c2.5-0.6,7,0.3,8-0.1c1-0.4,0.3-5.8-0.1-7C357.1,304.5,351.3,305.7,351.3,305.7z"/>
					</g>
				</g>
			</g>
			<g>
				<g>
					<g>
						<path class="st63" d="M351.1,303.5l0.4,2.2c0,0,4.6,0.8,6,0.1l-0.4-2.3H351.1z"/>
					</g>
				</g>
			</g>
			<path class="st37" d="M349.1,304.5h9c0,0,3-17.3,3.2-25.1l0,0c0-0.8,0-1.6,0-2.1c-0.1-1.7-0.4-3.4-0.5-5.3l0,0
				c-0.5-5.5-0.9-11.5,0.9-15.6c1.5-3.4,5.3-14.6,5.3-14.6s4.1-12.6,3.3-22.9c-0.2-2.5-16.2,3.9-16.2,3.9c-0.4,1.5-1.4,6.2-1.8,9.7
				c-2.2,19.9-1.3,32.9-1.3,32.9C352.3,269.8,349.1,304.5,349.1,304.5z"/>
			<g>
				<path class="st64" d="M355.6,180.4c0,0-3.2,7.4-3.8,11.4s2,14.8,2.1,17.1c0.4,7,0.5,14.7,0.5,14.7l15.2,6.7
					c0,0,1.6-6.2,2.7-13.8c1.1-7.5,0.3-14.1-0.4-18.5c-2.1-13.7-10.7-20.3-10.7-20.3L355.6,180.4z"/>
			</g>
			<g>
				<path class="st38" d="M344.1,167.1c0,0-1.1,4.1,0.1,4.4c0.9,0.3,0.1,4.2,0,4.8c-0.1,0.6,1.7,0.6,2.1,1c0.4,0.3,2.6,4.6,4,4.4
					c1.4-0.2,7.1-3.9,8.3-6c1.2-2.2,0.7-10.4-1.2-13.5C355.4,159,345.9,159.9,344.1,167.1z"/>
			</g>
			<g>
				<path class="st38" d="M352.7,177.1c0,0,0.1,0.4,0.3,1.1c0.1,0.3,0.2,0.5,0.3,0.9c0.1,0.3,0.1,0.5,0.2,0.8c0,0.1,0.1,0.2,0.1,0.3
					c0.1,0.4,0.2,1,0.3,1.4c0.3,1.2,0.4,2.4,0.4,3.1c-0.1,1.8,6.4-6.8,6.4-6.8s-1.5-5.7-2.2-12.3
					C357.6,158.9,352.7,177.1,352.7,177.1z"/>
			</g>
			<g>
				<path class="st37" d="M343.9,167.9c0,0-3-3.4-0.1-7.2c2.9-3.8,10.8-0.4,11.6-0.4c0.8,0,5-0.8,4.8,7.3c-0.2,7.1-0.5,6.8-0.5,6.8
					s-2.2-3-3.2-3.3c-1.4-0.6-4,0.3-4,0.3s0.4-3.7-1.7-3.7C348.7,167.7,345.7,166.7,343.9,167.9z"/>
			</g>
			<g>
				<path class="st38" d="M354.1,168.9c0.1-0.5,0.2-2.6,2.1-1.9c2,0.8,0.2,5.2-0.2,5.3C355.8,172.5,353.6,173.2,354.1,168.9z"/>
			</g>
			<path class="st65" d="M353.5,226c0,0,0.7-3.2,0.9-3.8l20.5,3.4l-0.2,2.6C374.6,228.3,359.8,227.4,353.5,226z"/>
			<path class="st66" d="M374.9,209.6c0,0-1.1,14.3,6.1,29.6c0.9,1.8-13.6,1.8-13.6,1.8L374.9,209.6z"/>
			<g>
				<path class="st66" d="M353.8,196.9c0.3,1.6,0.5,3.2,0.7,4.7l0,0c0.4,3.2,0.7,6.4,0.9,9.5c0,0.4,0,0.6,0.1,1
					c0,0.5,0.1,1.1,0.1,1.6c0,0.7,0.1,1.4,0.1,2c0.4,14.1,5.6,25.2,5.6,25.2s10.3,0.7,13.1-0.7c0,0,1.8-15.9,1.1-31.6
					c-0.1-1.2-0.2-2.5-0.3-3.6l0,0c-1.1-12.7-6-25.1-13.7-27.2C361.2,177.9,352.4,188.6,353.8,196.9z"/>
			</g>
			
				<rect x="320.2" y="219" transform="matrix(0.9992 -4.038406e-02 4.038406e-02 0.9992 -8.623 13.6578)" class="st67" width="27.2" height="2.5"/>
			
				<rect x="315.6" y="195.3" transform="matrix(0.9412 -0.338 0.338 0.9412 -51.947 119.3708)" class="st67" width="2.5" height="27.2"/>
			<path class="st68" d="M357.3,264c0.8,4.9,4,15.2,4.1,15.5c0-0.8,0-1.6,0-2.1c-0.1-1.7-0.4-3.4-0.5-5.3l0,0
				c-0.2-1.6-1.3-4.6-2.1-6.6c-0.8-2-1.5-10.1-1.5-10.1S356.5,259,357.3,264z"/>
			<path class="st69" d="M353.4,180c0.1,0.4,0.2,1,0.3,1.4c1.9-1.3,4.1-4.8,4.2-5C357.1,177.6,353.4,180,353.4,180z"/>
			<path class="st70" d="M355.4,210.4c0,0.4,0,0.6,0.1,1c0,0.5,0.1,1.1,0.1,1.5c2.4-0.4,6.7-1.7,8.1-4c1.8-3.2-2.7-10.7-2.8-10.9
				c0,0.2,1.9,9.5,0,10.3C359.6,208.9,356.9,209.7,355.4,210.4z"/>
			<path class="st71" d="M353.8,186.7c0,0-1.6,7.9-0.2,17.3c1.1,7.9,1.6,13.6,1.6,13.6l-0.6,2.2l-1.1-1.8c0,0-1.8-10.2-2.2-14.4
				c-0.4-4.2-0.7-10,1.8-17.2L353.8,186.7z"/>
			<path class="st71" d="M354,186.7c0,0-0.2,0.3-0.5,0.4c-0.4,0.1-0.9-0.4,0.4-2.8L354,186.7z"/>
			<g>
				<path class="st72" d="M360.3,176.8c0,0-4,5.1-6.7,6.5l0.1,4.3l7.6-9.8L360.3,176.8z"/>
			</g>
			<path class="st66" d="M369,190.8c-0.4-1.9-2.6-10.3-7.3-9c-4.6,1.2-3.3,6.8-2.4,11.1c1.1,4.5,4.9,15.2,4.2,15.9s-6.1,3.2-7.3,3.5
				c-1.1,0.4-8.7,2.8-9.3,3.1c-0.5,0.3,2.9,6.4,2.9,6.4s18.8-6.4,21.9-8.5C375.1,211.2,369,190.8,369,190.8z"/>
		</g>
	</g>
</g>
</svg>
