<?xml version="1.0" encoding="utf-8"?>
<!-- Generator: Adobe Illustrator 26.0.2, SVG Export Plug-In . SVG Version: 6.00 Build 0)  -->
<svg version="1.1" id="Layer_1" xmlns="http://www.w3.org/2000/svg" xmlns:xlink="http://www.w3.org/1999/xlink" x="0px" y="0px"
	 viewBox="0 0 628.5 410" style="enable-background:new 0 0 628.5 410;" xml:space="preserve">
<style type="text/css">
	.st0{fill:url(#SVGID_1_);}
	
		.st1{clip-path:url(#SVGID_00000090261135068317971950000007152488912861001662_);fill:url(#SVGID_00000052821050343351793230000011934847121258487184_);}
	
		.st2{clip-path:url(#SVGID_00000062873743141247386930000014208478242979165318_);fill:url(#SVGID_00000046306432764552864570000001235872491595356331_);}
	.st3{fill:none;}
	.st4{fill:none;stroke:#33348E;stroke-width:2;stroke-miterlimit:10;}
	.st5{fill:none;stroke:#33348E;stroke-width:2;stroke-miterlimit:10;stroke-dasharray:3.98,11.9399;}
	.st6{fill:none;stroke:#272525;stroke-miterlimit:10;}
	.st7{fill:#40404D;}
	.st8{fill:#4C4CA9;}
	.st9{fill:#5181AA;}
	.st10{fill:#8ED9E7;}
	.st11{fill:#322E7F;}
	.st12{fill:#E1FFFF;}
	.st13{fill:#FFFFFF;}
	.st14{fill:#B9FAFF;}
	.st15{fill:#E5A428;}
	.st16{fill:url(#SVGID_00000081642472501385589340000011815651876265711031_);}
	
		.st17{fill:#FFFFFF;stroke:url(#SVGID_00000147213817315586624580000016319201724614469770_);stroke-width:0.5;stroke-miterlimit:10;}
	.st18{fill:#79C0CC;}
	.st19{fill:#F4FFFF;}
	.st20{fill:#D44834;}
	.st21{fill:#562F27;}
	.st22{fill:#432922;}
	.st23{opacity:0.67;fill:#824A31;}
	.st24{fill:url(#SVGID_00000070110643956580482710000014944196468337958839_);}
	.st25{opacity:0.42;fill:#AF2848;}
	.st26{fill:#41688A;}
	.st27{fill:#575767;}
	.st28{fill:url(#SVGID_00000155146506142512959170000016791092515311217793_);}
	
		.st29{fill:#FFFFFF;stroke:url(#SVGID_00000036243331896548631490000007710451343470739110_);stroke-width:0.5;stroke-miterlimit:10;}
	.st30{fill:url(#SVGID_00000156564955796981514170000014842521177092373894_);}
	.st31{fill:url(#SVGID_00000142167571532369067630000014699177584935257527_);}
	.st32{fill:#7777E6;}
	.st33{fill:#EBF9FF;}
	.st34{fill:url(#SVGID_00000106117948329870528150000004315460832559978381_);}
	.st35{fill:url(#SVGID_00000068670508619055807690000014099018490142653057_);}
	.st36{fill:url(#SVGID_00000173129533643597086650000011264498889499744681_);}
	.st37{fill:url(#SVGID_00000008145152199136386020000007127870813326064794_);}
	.st38{fill:url(#SVGID_00000143580896063652346980000007572878869639528584_);}
</style>
<g>
	<g>
		
			<linearGradient id="SVGID_1_" gradientUnits="userSpaceOnUse" x1="320.7743" y1="696.3483" x2="320.7743" y2="595.5285" gradientTransform="matrix(1 0 0 1 0 -338.8898)">
			<stop  offset="0" style="stop-color:#432B7D"/>
			<stop  offset="1" style="stop-color:#D21F39"/>
		</linearGradient>
		<path class="st0" d="M472.7,360c-16.6,40.3-50.4,33.9-65.7,16.1c-21.7-25.4-13.1-41.5-63-25.9c-36.8,11.5-75.1-10.2-68.5-52.3
			c9.1-58.7-43.6-31.8-71.3-39.3c-57.1-15.4-41.6-54.8-20.7-121.9C204.9,67.8,247,38,309.4,29.3c46-6.4,86.3,0.4,97.7,36.6
			c16.4,52.1-38.5,69.6,7.8,83.6c27.8,8.4,66.9,39.3,31.4,89C411,288,496.6,301.8,472.7,360z"/>
		<g>
			<g>
				<g>
					<defs>
						<path id="SVGID_00000168077560600623544070000013335489021245218445_" d="M473,359.5c-16.6,40.3-50.4,33.9-65.7,16.1
							c-21.7-25.4-13.1-41.5-63-25.9c-36.8,11.5-75.1-10.2-68.5-52.3c9.1-58.7-43.6-31.8-71.3-39.3c-57.1-15.4-41.6-54.8-20.7-121.9
							c21.4-68.9,63.6-98.7,125.9-107.4c46-6.4,86.3,0.4,97.7,36.6c16.4,52.1-38.5,69.6,7.8,83.6c27.8,8.4,66.9,39.3,31.4,89
							C411.3,287.5,496.9,301.2,473,359.5z"/>
					</defs>
					<clipPath id="SVGID_00000069398844005454413780000010042341649437493422_">
						<use xlink:href="#SVGID_00000168077560600623544070000013335489021245218445_"  style="overflow:visible;"/>
					</clipPath>
					
						<linearGradient id="SVGID_00000066475937184094127230000002013372322072382873_" gradientUnits="userSpaceOnUse" x1="327.8944" y1="686.126" x2="327.8944" y2="525.4216" gradientTransform="matrix(1 0 0 1 0 -338.8898)">
						<stop  offset="0" style="stop-color:#432B7D"/>
						<stop  offset="1" style="stop-color:#D21F39"/>
					</linearGradient>
					
						<path style="clip-path:url(#SVGID_00000069398844005454413780000010042341649437493422_);fill:url(#SVGID_00000066475937184094127230000002013372322072382873_);" d="
						M516.7,308c-13.3,5.6-30,4.4-43.6-3.3c-8.7-5-14.9-9.9-20.5-14.3c-17.1-13.5-24.1-19-62.8,10.2c-21,15.8-47.2,20.5-68.5,12.3
						c-18.7-7.2-31.4-23.5-35.7-45.8c-3.5-18.4-9.6-29.6-18.4-34.3c-12.6-6.7-30.1,0.9-46.9,8.2c-11.3,5-23,10.2-33.4,10.9
						c-23.2,1.8-39.9-2.3-51.3-12.3c-21.3-18.9-22.7-57.3-24.7-110.6c-0.2-4.1-0.4-8.3-0.5-12.5c-1.8-44.2,6-80.3,24.1-110.1
						c16.8-27.9,42.8-50.8,79.4-69.9c28.1-14.7,53-22.6,74.1-23.3c24.5-0.9,43.9,7.7,57.5,25.8c19.6,25.8,17.2,49.3,15.4,66.4
						c-1.1,10.2-1.9,18.4,2.6,22.9c3.8,4.1,11.9,5.6,25.2,5c20.7-1,50.8,5.3,67.4,26.3c13.1,16.6,15.8,39,8,66.6
						c-10.4,36.1,10.6,48.7,34.9,63.1c22.7,13.5,48.7,28.9,46.8,68.2c-1.4,29.8-14.4,43-25,48.8C519.2,306.9,518,307.5,516.7,308z"
						/>
				</g>
			</g>
			<g>
				<g>
					<defs>
						<path id="SVGID_00000020379895034247523220000011105856234024979103_" d="M473,359.5c-16.6,40.3-50.4,33.9-65.7,16.1
							c-21.7-25.4-13.1-41.5-63-25.9c-36.8,11.5-75.1-10.2-68.5-52.3c9.1-58.7-43.6-31.8-71.3-39.3c-57.1-15.4-41.6-54.8-20.7-121.9
							c21.4-68.9,63.6-98.7,125.9-107.4c46-6.4,86.3,0.4,97.7,36.6c16.4,52.1-38.5,69.6,7.8,83.6c27.8,8.4,66.9,39.3,31.4,89
							C411.3,287.5,496.9,301.2,473,359.5z"/>
					</defs>
					<clipPath id="SVGID_00000062878040717577968190000005020879161889669031_">
						<use xlink:href="#SVGID_00000020379895034247523220000011105856234024979103_"  style="overflow:visible;"/>
					</clipPath>
					
						<linearGradient id="SVGID_00000125597744020086499570000004666813606383395769_" gradientUnits="userSpaceOnUse" x1="334.8789" y1="632.5405" x2="334.8789" y2="496.5592" gradientTransform="matrix(1 0 0 1 0 -338.8898)">
						<stop  offset="0" style="stop-color:#432B7D"/>
						<stop  offset="1" style="stop-color:#D21F39"/>
					</linearGradient>
					
						<path style="clip-path:url(#SVGID_00000062878040717577968190000005020879161889669031_);fill:url(#SVGID_00000125597744020086499570000004666813606383395769_);" d="
						M508,286.2c-13.9,3.8-30.3,0.5-42.7-9c-8-6.1-13.5-11.8-18.4-16.8c-15-15.6-21.4-22-63.6,1.9c-22.9,12.9-49.5,14.2-69.5,3.2
						c-17.7-9.6-28-27.4-29.3-50c-1.1-18.7-5.6-30.6-13.8-36.4c-11.7-8.3-30-3.2-47.5,2c-11.9,3.4-24.1,6.8-34.5,6.3
						c-23.2-1.3-39.3-7.5-49.3-18.9c-18.7-21.6-15-60-10.1-113.1c0.4-4.1,0.8-8.2,1.1-12.5c4-44.1,16.6-78.7,38.4-105.9
						c20.3-25.4,49-44.6,87.8-58.7c29.8-10.9,55.5-15.3,76.5-13.4c24.4,2.3,42.5,13.5,53.6,33.1c15.9,28.1,10.5,51.1,6.6,67.9
						c-2.4,10-4.3,17.9-0.5,23.1c3.3,4.5,11,7.1,24.3,8.3C437.8-1.2,466.8,9,480.5,32c10.9,18.1,10.5,40.7-0.9,67.1
						c-15,34.5,4.1,49.6,26.3,67.1c20.8,16.4,44.4,35.1,37.4,73.7c-5.3,29.3-19.9,40.8-31.2,45.1C510.7,285.4,509.4,285.8,508,286.2
						z"/>
				</g>
			</g>
		</g>
	</g>
</g>
<polyline class="st3" points="538,317 470.7,317 275.7,317 272,317 "/>
<g>
	<g>
		<g>
			<g>
				<g>
					<g>
						<path class="st4" d="M208.4,211.2c0,0-0.6-0.3-1.8-0.9"/>
						<path class="st5" d="M196.6,203.9c-11-8.1-26.3-23.1-29.7-45.5C161.5,122.3,177,88.9,216,92s74.8,22.1,93.3-6.7
							s84.2-33.1,88.9,5.1s30.2,51.6,52.7,42.8c21.4-8.4,58.4,28.5,23.9,65.3"/>
						<path class="st4" d="M470.6,202.7c-0.5,0.4-1,0.9-1.5,1.3"/>
					</g>
				</g>
				<path class="st6" d="M209.7,192.3c0,0-30.6-17.2-17.6-67.5c13-50.3,53.7-50,70-42.4c16.4,7.6,34.4,50.2,81.2,30.3
					c46.9-19.8,77.4-28,106.2,5c28.9,33-13.8,78-13.8,78"/>
				<rect x="164.1" y="259.4" class="st7" width="330.9" height="6.7"/>
				<rect x="176.2" y="266.1" class="st8" width="306.6" height="13.4"/>
				<g>
					<polygon class="st9" points="275.3,259.3 254.1,259.3 262.6,215.8 283.8,215.8 					"/>
					<polygon class="st10" points="278.3,259.3 257,259.3 265.5,215.8 286.7,215.8 					"/>
					<polygon class="st9" points="399.6,259.3 420.8,259.3 412.4,215.8 391.1,215.8 					"/>
					<polygon class="st10" points="396.6,259.3 417.9,259.3 409.4,215.8 388.2,215.8 					"/>
					<g>
						<path class="st11" d="M468.2,230.9l-129-3.5c-0.5,0-0.9-0.4-0.9-0.9v-85c0-0.5,0.4-0.9,0.9-0.9l129,3.5c0.5,0,0.9,0.4,0.9,0.9
							v85C469.1,230.5,468.7,230.9,468.2,230.9z"/>
						<path class="st11" d="M203.4,230.9l129-3.5c0.5,0,0.9-0.4,0.9-0.9v-85c0-0.5-0.4-0.9-0.9-0.9l-129,3.5c-0.5,0-0.9,0.4-0.9,0.9
							v85C202.5,230.5,202.9,230.9,203.4,230.9z"/>
						<path class="st8" d="M465.7,228.3l-129-3.5c-0.5,0-0.9-0.4-0.9-0.9v-82.5c0-0.5,0.4-0.9,0.9-0.9l129,3.5
							c0.5,0,0.9,0.4,0.9,0.9v82.5C466.6,227.9,466.2,228.3,465.7,228.3z"/>
					</g>
					<g>
						<path class="st8" d="M334.9,224.8l-129,3.5c-0.5,0-0.9-0.4-0.9-0.9v-82.5c0-0.5,0.4-0.9,0.9-0.9l129-3.5
							c0.5,0,0.9,0.4,0.9,0.9v82.5C335.8,224.4,335.4,224.8,334.9,224.8z"/>
					</g>
					<g>
						<polygon class="st10" points="461.9,146.6 461.9,217.2 340.5,213.6 340.5,143.1 						"/>
						<g>
							<polygon class="st12" points="461.9,146.6 461.9,152 340.5,148.5 340.5,143.1 							"/>
							<polygon class="st13" points="449.7,205.1 352.7,202.3 352.7,153.5 449.7,156.3 							"/>
							<path class="st14" d="M401.2,162.4c-9.8-0.3-17.7,7.4-17.7,17.2c0,9.8,7.9,18,17.7,18.3c9.8,0.3,17.7-7.4,17.7-17.2
								C419,170.8,411,162.7,401.2,162.4z M401.2,194.7c-8-0.2-14.6-7-14.6-15s6.5-14.4,14.6-14.2c8.1,0.2,14.6,7,14.6,15
								C415.8,188.6,409.3,194.9,401.2,194.7z"/>
							<path class="st15" d="M387.4,179.7c0,5.5,3.2,10.3,7.8,12.7c-1,1.9-1.9,3.6-2.7,5c-6.4-3.4-10.9-10.2-10.9-17.9
								c0-10.8,8.8-19.3,19.6-19v5.8C393.6,166,387.4,172.1,387.4,179.7z"/>
							
								<linearGradient id="SVGID_00000047769650725204180240000005249914943157839497_" gradientUnits="userSpaceOnUse" x1="395.934" y1="169.57" x2="422.9757" y2="169.57">
								<stop  offset="0" style="stop-color:#D01B7E"/>
								<stop  offset="1" style="stop-color:#D13451"/>
							</linearGradient>
							<path style="fill:url(#SVGID_00000047769650725204180240000005249914943157839497_);" d="M423,180.8l-10.2-0.3
								c0-6.4-5.2-11.7-11.6-11.9c-1,0-1.9,0.1-2.8,0.3l-2.5-10c1.7-0.4,3.5-0.5,5.3-0.5C413.2,158.7,423,168.8,423,180.8z"/>
							<path class="st10" d="M405.8,180.3c0,2.5-2.1,4.6-4.6,4.5c-2.5-0.1-4.6-2.2-4.6-4.8s2.1-4.6,4.6-4.5
								C403.8,175.6,405.8,177.7,405.8,180.3z"/>
							<g>
								<polygon class="st10" points="433.1,187.4 432.1,186.1 438.2,181 439.3,182.2 								"/>
								<polygon class="st10" points="426.9,197.9 425.9,196.7 435.2,188.9 436.3,190.1 								"/>
								<polygon class="st10" points="428.3,191.4 427.2,190.2 430,187.9 431,189.1 								"/>
								<polygon class="st10" points="435.8,195.8 434.8,194.6 441.4,189.1 442.4,190.3 								"/>
							</g>
							<g>
								<polygon class="st10" points="366.7,166.1 365.6,164.9 371.7,159.7 372.8,161 								"/>
								<polygon class="st10" points="360.4,176.7 359.4,175.5 368.8,167.6 369.8,168.9 								"/>
								<polygon class="st10" points="361.8,170.2 360.7,168.9 363.5,166.6 364.6,167.9 								"/>
							</g>
							<path class="st15" d="M373.5,188.3c0,2.2-1.8,3.9-3.9,3.8c-2.2-0.1-3.9-1.9-3.9-4c0-2.2,1.8-3.9,3.9-3.8
								C371.7,184.4,373.5,186.2,373.5,188.3z"/>
							
								<linearGradient id="SVGID_00000001656546050170809780000014069436303207423378_" gradientUnits="userSpaceOnUse" x1="368.4256" y1="194.3347" x2="370.717" y2="196.9901" gradientTransform="matrix(1 2.940000e-02 0 1 0 -9.7792)">
								<stop  offset="0" style="stop-color:#D01B7E"/>
								<stop  offset="1" style="stop-color:#D13451"/>
							</linearGradient>
							
								<path style="fill:#FFFFFF;stroke:url(#SVGID_00000001656546050170809780000014069436303207423378_);stroke-width:0.5;stroke-miterlimit:10;" d="
								M371.1,196.8c0,0.8-0.7,1.5-1.5,1.5c-0.8,0-1.5-0.7-1.5-1.5c0-0.8,0.7-1.5,1.5-1.5C370.4,195.3,371.1,196,371.1,196.8z"/>
							<path class="st15" d="M434.7,167.1c0,2-1.6,3.5-3.6,3.5c-2-0.1-3.6-1.7-3.6-3.7s1.6-3.5,3.6-3.5
								C433.1,163.5,434.7,165.1,434.7,167.1z"/>
						</g>
						<g>
							<polygon class="st12" points="449.7,208.7 449.7,211.6 352.7,208.7 352.7,205.8 							"/>
						</g>
						<polygon class="st15" points="409.6,207.5 409.6,210.4 352.7,208.7 352.7,205.8 						"/>
						<path class="st13" d="M412.6,209c0,1.6-1.3,2.9-3,2.9s-3-1.4-3-3.1c0-1.6,1.3-2.9,3-2.9C411.3,206,412.6,207.4,412.6,209z"/>
						<path class="st10" d="M410.9,209c0,0.7-0.6,1.2-1.2,1.2c-0.7,0-1.2-0.6-1.2-1.3s0.6-1.2,1.2-1.2S410.9,208.3,410.9,209z"/>
					</g>
					<g>
						<polygon class="st10" points="331.1,143.1 331.1,213.7 209.7,218.3 209.7,146.7 						"/>
						<polygon class="st18" points="231.1,212.1 213.7,212.8 213.7,155.1 231.1,154.6 						"/>
						<polygon class="st18" points="326,208.5 235.1,212 235.1,193.2 326,189.9 						"/>
						<polygon class="st19" points="302.2,186.4 237.2,188.7 237.2,154.4 302.2,152.4 						"/>
						<polygon class="st18" points="326,157.8 305.6,158.5 305.6,152.3 326,151.7 						"/>
						<polygon class="st18" points="326,185.6 305.6,186.3 305.6,161.7 326,161 						"/>
						<polygon class="st12" points="296,206.8 238.7,208.9 238.7,195.7 296,193.6 						"/>
						<polygon class="st12" points="321.6,205.8 299.8,206.6 299.8,193.5 321.6,192.7 						"/>
						<path class="st15" d="M278.6,169.6c0,5.1-4.2,9.4-9.4,9.6c-5.2,0.2-9.4-3.8-9.4-9c0-5.1,4.2-9.4,9.4-9.6
							C274.4,160.4,278.6,164.5,278.6,169.6z"/>
						<polygon class="st19" points="266.4,174.5 266.4,166.1 273.2,170.1 						"/>
						<polygon class="st12" points="331.1,143.1 331.1,148.4 209.7,152.2 209.7,146.7 						"/>
					</g>
				</g>
				<path class="st8" d="M415.5,254c0.4,0,8.4,0.4,9.1,5.4h-20.1C404.5,259.4,406.7,253.7,415.5,254z"/>
				<path class="st15" d="M424.1,257c0,0.2,0,0.2-0.1,0.2c-1,0-7-1.4-7-1.4s-4.3,1.8-8.1,2.9c0,0,0,0,0,0c-1.5,0.4-2.9,0.7-3.9,0.7
					h-20.5c-3.5,0-6.7-2.3-7.8-5.7l-6.8-21.3l5.4-12.8l4.8-11.6c1,0.8,11.1,34,11.1,34l13.5,9.4c0,0,7.9-3.5,11.2-2.8
					C419,249.2,423.9,255.7,424.1,257z"/>
				<path class="st20" d="M388.6,259.4h-4.1c-3.5,0-6.7-2.3-7.8-5.7l-6.8-21.3l5.4-12.8l7-0.4l0.2,1c0,0,0.6,20.9,4.2,24.8
					C389.5,248.1,393.4,257.3,388.6,259.4z"/>
				<path class="st20" d="M424.1,257c0,0.2,0,0.2-0.1,0.2c-1,0-7-1.4-7-1.4s-4.3,1.8-8.1,2.9c3.7-1.5,6.9-4.7,7.5-4.7
					C417.3,254.1,424.1,257,424.1,257z"/>
				<path class="st15" d="M272.9,214.3c0,0-8.4,17.8-11.2,33.7c-1.5,8.3,10.7,11.3,23.1,11.3l2.4-41.9L272.9,214.3z"/>
				<path class="st20" d="M274.5,221.8c0,0-7.1,21.9-5.6,26.1c1.5,4.2,6.3,10.3,21.6,10c15.3-0.3-5.8-40.9-5.8-40.9L274.5,221.8z"/>
				<path class="st15" d="M348.1,152.9c0,3-1.8,4.9-3.9,4.7c0,0-2.1,6-3.1,7.8l-0.3,1.7l-0.6,3.5c-9.9,1.8-16.2,2.2-24.5,0l-0.9-4
					l-0.3-1.2c-1-1.8-3.9-7.8-3.9-7.8c-2.1,0.2-3.8-1.7-3.9-4.7c-0.1-3.3-2.5-7.1-1.2-7.9c1.2-0.8,3.5,0.5,3.5,0.5l18.1-4.9v-0.1
					l0.3,0.1l0.3-0.1v0.1l18.1,4.9c0,0,2.2-1.2,3.5-0.5C350.6,145.8,348.1,149.6,348.1,152.9z"/>
				<path class="st20" d="M340.8,167.1l-0.6,3.5c-9.9,1.8-16.2,2.2-24.5,0l-0.9-4c2.6-1.5,8-4,14.1-4
					C334.2,162.6,338.4,165.1,340.8,167.1z"/>
				<path class="st21" d="M348.1,140.7c-0.1,1.4-0.3,2.8-0.7,4.2c0,0-0.6,0-1.5,0.4c0,0.2-0.1,0.2-0.1,0.2s-1.4,1.4-1.9,5.5
					c-0.5,4.1-2.2,6.6-4.1,8.2c-1.9,1.6-2.5,4.3-2.5,4.3c-0.9-1.2-0.9-4.6-0.9-4.6c-0.6,2.9-4.4,4.8-4.4,4.8l-1.6-3.1
					c0.3,3-2.1,4.2-2.1,4.2s-0.8-1-4.9-1.9c-4-0.8-5.3-3.6-5.3-3.6c-0.1,2,0.3,3.5,0.4,3.6c-2.4-1.1-3.9-2.7-4.9-4.6
					c-1-1.9-1.6-2.9-2-6.8c-0.4-3.9-2.5-6-2.5-6c-1.2-0.5-1.8-0.6-1.8-0.6c-1-4.2-1.3-8.3-0.9-11.9c0.6-5.5,2.5-10,5.1-12.3
					c0.7-0.6,1.3-1.1,1.8-1.5c3-2.1,4.6-1.5,4.6-1.5c0.2-1.9-1.8-3.6-1.8-3.6c5.7,0.2,6.6,2.6,6.6,2.8c-0.9-4.3,1.2-6.8,1.2-6.8
					c1.3,2.7,7.2,3.3,13.2,5.3c6,1.9,6,8.5,6,8.5c0.8-1.8,0-4.5,0-4.5s1.2,1.9,2.3,4.5c0.8,1.9,1.6,4.2,1.8,6.4
					C347.3,130.4,348.7,135,348.1,140.7z"/>
				<path class="st22" d="M348.1,140.7c-0.1,1.4-0.3,2.8-0.7,4.2c0,0-0.6,0-1.5,0.4c0,0.2-0.1,0.2-0.1,0.2s-1.4,1.4-1.9,5.5
					c-0.5,4.1-2.2,6.6-4.1,8.2c-1.9,1.6-2.5,4.3-2.5,4.3c-0.9-1.2-0.9-4.6-0.9-4.6c-0.6,2.9-4.4,4.8-4.4,4.8l-1.6-3.1
					c0.3,3-2.1,4.2-2.1,4.2s-0.8-1-4.9-1.9c-4-0.8-5.3-3.6-5.3-3.6c-0.1,2,0.3,3.5,0.4,3.6c-2.4-1.1-3.9-2.7-4.9-4.6
					c-1-1.9-1.6-2.9-2-6.8c-0.4-3.9-2.5-6-2.5-6c-1.2-0.5-1.8-0.6-1.8-0.6c-1-4.2-1.3-8.3-0.9-11.9c0,0,1.8,8.7,9,14.2
					c0,0-0.6-2-0.6-4.9c0,0,3.1,3.9,6.4,4.9c3.3,1,6.1,4.8,6.1,4.8l0.8-4.3c0,0,0.7,4.6,2.2,5.7c0,0,0.6-3.4,3.1-5.2
					c2.5-1.9,3.7-4.9,3.7-4.9v5.7c0,0,2.2-2.9,6.6-5.1C345.5,142.8,347,141.9,348.1,140.7z"/>
				<path class="st23" d="M345.5,124c-1.2,1.9-3,3.7-5.5,4.4c-6.9,2.1-12.5-1.3-12.5-1.3c0.7,3.1,3.5,3.5,4.8,3.5
					c-16.4,0.7-18.9-11.4-18.9-11.4c3-2.1,4.6-1.5,4.6-1.5c0.2-1.9-1.8-3.6-1.8-3.6c5.7,0.2,6.6,2.6,6.6,2.8
					c-0.9-4.3,1.2-6.8,1.2-6.8c1.3,2.7,7.2,3.3,13.2,5.3c6,1.9,6,8.5,6,8.5c0.8-1.8,0-4.5,0-4.5S344.3,121.4,345.5,124z"/>
				
					<linearGradient id="SVGID_00000096774957543395666700000000023361809851117984_" gradientUnits="userSpaceOnUse" x1="326.1123" y1="235.1611" x2="331.7722" y2="166.6131">
					<stop  offset="0" style="stop-color:#D01B7E"/>
					<stop  offset="1" style="stop-color:#D13451"/>
				</linearGradient>
				<path style="fill:url(#SVGID_00000096774957543395666700000000023361809851117984_);" d="M386.1,218.7c0,0-1.3,0-3.6,1.5
					c-1.2,0.7-2.6,1.9-4.2,3.5c-4.9,5-8.9,7-14.4,6.3l-1.3,6.8l-6.5,34.1h-57.3l-5.1-26.9l-2.7-14c-5.4,0.7-9.5-1.3-14.4-6.3
					c-0.7-0.8-1.4-1.4-2.1-2c-3.6-3.1-5.7-3.1-5.7-3.1s4.2-10.5,7.4-19.4c3.2-8.9,9.5-18.7,17.7-23.9c3.6-2.3,9.6-4.1,15.7-5.5
					c6.1-1.4,12.3-2.2,16.3-2.5c1.9-0.1,3.7,0,5.6,0.3c6.7,1.1,23.6,4.1,29.3,7.7c8.2,5.2,14.5,15,17.7,23.9
					C381.9,208.3,386.1,218.7,386.1,218.7z"/>
				<path class="st25" d="M382.5,220.2c-1.2,0.7-2.6,1.9-4.2,3.5c-4.9,5-8.9,7-14.4,6.3l-1.3,6.8c-18.5,6.9-43.5,11.7-45.4,12.2
					c-1.8,0.4-13.3-2.4-23.5-5l-2.7-14c-5.4,0.7-9.5-1.3-14.4-6.3c-0.7-0.8-1.4-1.4-2.1-2c1-5.2,7.9-37,21.7-41.7
					c15-5.1,21.8-0.4,30.3-2.2c8.5-1.8,23.1-3.5,34.1,2.2C371.2,185.6,380.2,206,382.5,220.2z"/>
				<path class="st10" d="M371.2,328.2h-81.8c-4.1,0-7.4-3.3-7.4-7.4v-4.5c0-0.8,0.6-1.4,1.4-1.4h93.8c0.8,0,1.4,0.6,1.4,1.4v4.5
					C378.6,324.8,375.3,328.2,371.2,328.2z"/>
				<path class="st10" d="M363.9,192.3h-68.8c-8.7,0-15.6,7.7-15.2,17l4.1,105.4h91.1l4-105.4C379.5,200.1,372.6,192.3,363.9,192.3z
					"/>
				<path class="st9" d="M365.1,200.9H294c-5.4,0-9.7,5-9.5,10.9l3.9,102.9h82.4l3.8-102.9C374.8,205.9,370.5,200.9,365.1,200.9z"/>
				<path class="st26" d="M304,271.3c0,0,30.5,11.9,57.3,0C361.3,271.3,335.3,300.6,304,271.3z"/>
				<g>
					<g>
						<polygon class="st27" points="250.4,255 179.6,255 169.9,206.1 240.6,206.1 						"/>
						<polygon class="st14" points="247,250.7 181.5,250.7 173.2,208.3 238.7,208.3 						"/>
						<path class="st7" d="M169.9,206.1l-0.6,0.9c-0.5,0.8-0.7,1.8-0.6,2.8l9.2,49.6l1.8-4.4L169.9,206.1z"/>
						<path class="st8" d="M265.3,259.3h-56.8V255H261C263.4,255,265.3,256.9,265.3,259.3L265.3,259.3z"/>
						<path class="st11" d="M213,259.3H177V255h31.7C211.1,255,213,256.9,213,259.3L213,259.3z"/>
					</g>
					<polygon class="st13" points="240.5,243.3 184.2,243 178.7,214.7 235,215 					"/>
					<path class="st14" d="M207.7,219.2c-5.7,0-9.4,4.6-8.3,10.2c1.1,5.7,6.6,10.3,12.3,10.3c5.7,0,9.4-4.6,8.3-10.2
						C218.9,223.8,213.4,219.2,207.7,219.2z M211.4,237.9c-4.7,0-9.2-3.8-10.1-8.5c-0.9-4.7,2.1-8.4,6.8-8.4c4.7,0,9.2,3.8,10.1,8.5
						C219.1,234.2,216,237.9,211.4,237.9z"/>
					<path class="st15" d="M201.7,229.4c0.6,3.2,3,5.9,6,7.3c-0.3,1.1-0.7,2.1-1,2.9c-4.1-1.9-7.4-5.7-8.3-10.2
						c-1.2-6.3,2.9-11.3,9.1-11.3l0.7,3.3C203.7,221.4,200.8,225,201.7,229.4z"/>
					
						<linearGradient id="SVGID_00000155144355147100602110000010193418671233036416_" gradientUnits="userSpaceOnUse" x1="302.3329" y1="227.1922" x2="318.0049" y2="227.1922" gradientTransform="matrix(0.9952 -2.460000e-02 0.1966 1 -140.0957 3.6811)">
						<stop  offset="0" style="stop-color:#D01B7E"/>
						<stop  offset="1" style="stop-color:#D13451"/>
					</linearGradient>
					<path style="fill:url(#SVGID_00000155144355147100602110000010193418671233036416_);" d="M222.3,229.5l-5.9,0
						c-0.7-3.7-4.3-6.7-8-6.7c-0.6,0-1.1,0.1-1.6,0.2l-2.6-5.7c0.9-0.2,1.9-0.4,3-0.4C214.2,216.9,221,222.6,222.3,229.5z"/>
					<path class="st10" d="M212.4,229.5c0.3,1.5-0.7,2.7-2.2,2.7c-1.5,0-2.9-1.2-3.2-2.7c-0.3-1.5,0.7-2.7,2.2-2.7
						C210.7,226.8,212.1,228,212.4,229.5z"/>
					<g>
						<polygon class="st10" points="228.9,233.2 228.2,232.5 231.2,229.4 231.9,230.2 						"/>
						<polygon class="st10" points="226.6,239.4 225.8,238.7 230.3,234.1 231.1,234.8 						"/>
						<polygon class="st10" points="226.6,235.6 225.8,234.9 227.2,233.5 227.9,234.3 						"/>
						<polygon class="st10" points="231.5,238.1 230.7,237.4 233.9,234.1 234.6,234.8 						"/>
					</g>
					<g>
						<polygon class="st10" points="188.2,221.9 187.4,221.1 190.4,218.1 191.1,218.8 						"/>
						<polygon class="st10" points="185.8,228.1 185,227.4 189.6,222.7 190.3,223.4 						"/>
						<polygon class="st10" points="185.8,224.3 185.1,223.6 186.4,222.2 187.2,222.9 						"/>
					</g>
					<path class="st15" d="M194.6,234.6c0.2,1.3-0.6,2.3-1.8,2.3c-1.3,0-2.5-1-2.7-2.3c-0.2-1.3,0.6-2.3,1.8-2.3
						C193.2,232.4,194.4,233.4,194.6,234.6z"/>
					
						<linearGradient id="SVGID_00000080193693353417718390000016243499908410608315_" gradientUnits="userSpaceOnUse" x1="286.9812" y1="243.4311" x2="288.4466" y2="245.1293" gradientTransform="matrix(1.0009 4.800000e-03 0.1966 1 -142.6539 -6.0981)">
						<stop  offset="0" style="stop-color:#D01B7E"/>
						<stop  offset="1" style="stop-color:#D13451"/>
					</linearGradient>
					
						<path style="fill:#FFFFFF;stroke:url(#SVGID_00000080193693353417718390000016243499908410608315_);stroke-width:0.5;stroke-miterlimit:10;" d="
						M194.2,239.6c0.1,0.5-0.2,0.9-0.7,0.9c-0.5,0-0.9-0.4-1-0.9c-0.1-0.5,0.2-0.9,0.7-0.9C193.7,238.7,194.1,239.1,194.2,239.6z"/>
					<path class="st15" d="M227.5,221.5c0.2,1.1-0.5,2.1-1.7,2.1c-1.1,0-2.3-0.9-2.5-2.1c-0.2-1.1,0.5-2.1,1.7-2.1
						C226.2,219.4,227.3,220.3,227.5,221.5z"/>
				</g>
			</g>
		</g>
	</g>
	<g>
		
			<linearGradient id="SVGID_00000175317475978494124540000000896461242947329945_" gradientUnits="userSpaceOnUse" x1="355.801" y1="130.4661" x2="355.801" y2="66.7345" gradientTransform="matrix(0.9757 -0.219 0.219 0.9757 -140.5659 88.159)">
			<stop  offset="0" style="stop-color:#D01B7E"/>
			<stop  offset="1" style="stop-color:#D13451"/>
		</linearGradient>
		<path style="fill:url(#SVGID_00000175317475978494124540000000896461242947329945_);" d="M262,115.5l-60.6,13.6
			c-2.2,0.5-4.4-0.9-4.9-3.1l-9.2-40.9c-0.5-2.2,0.9-4.4,3.1-4.9l60.6-13.6c2.2-0.5,4.4,0.9,4.9,3.1l9.2,40.9
			C265.6,112.8,264.3,115,262,115.5z"/>
		<g>
			<path class="st15" d="M240.8,94.6c1.8,8-3.2,16-11.3,17.8c-8,1.8-16-3.2-17.8-11.3c-1.8-8,3.2-16,11.3-17.8
				C231,81.6,239,86.6,240.8,94.6z"/>
			<polygon class="st13" points="224.1,105.4 221.1,92 233,96.4 			"/>
		</g>
	</g>
	<g>
		<path class="st8" d="M398.2,90.4l-4.6,24.1c-0.4,2,0.9,3.9,2.9,4.3l44.1,8.4c2,0.4,3.9-0.9,4.3-2.9l4.6-24.1
			c0.4-2-0.9-3.9-2.9-4.3l-44.1-8.4C400.5,87.1,398.6,88.4,398.2,90.4z"/>
		
			<rect x="392.4" y="94.9" transform="matrix(-0.9824 -0.187 0.187 -0.9824 762.5227 275.0056)" class="st9" width="3.7" height="13.3"/>
		<polygon class="st10" points="383.6,108.4 391.2,107.7 393.7,94.7 386.9,91.2 		"/>
		<g>
			<path class="st9" d="M429.1,81.9c-1.1,5.6,2.6,11,8.2,12.1c5.6,1.1,11-2.6,12.1-8.2c1.1-5.6-2.6-11-8.2-12.1
				C435.6,72.6,430.1,76.3,429.1,81.9z"/>
			<path class="st10" d="M430.4,82.2c-1.1,5.6,2.6,11,8.2,12.1c5.6,1.1,11-2.6,12.1-8.2c1.1-5.6-2.6-11-8.2-12.1
				C436.9,72.9,431.5,76.6,430.4,82.2z"/>
			<g>
				<g>
					<g>
						<g>
							<path class="st13" d="M439.5,78.2c-0.2,1.2,0.6,2.4,1.8,2.6c1.2,0.2,2.4-0.6,2.6-1.8c0.2-1.2-0.6-2.4-1.8-2.6
								C440.9,76.2,439.7,77,439.5,78.2z"/>
						</g>
						<g>
							<path class="st13" d="M437.4,89.2c-0.2,1.2,0.6,2.4,1.8,2.6c1.2,0.2,2.4-0.6,2.6-1.8c0.2-1.2-0.6-2.4-1.8-2.6
								C438.8,87.2,437.6,88,437.4,89.2z"/>
						</g>
					</g>
					<g>
						<g>
							<path class="st13" d="M434.7,85.2c1.2,0.2,2.4-0.6,2.6-1.8c0.2-1.2-0.6-2.4-1.8-2.6s-2.4,0.6-2.6,1.8
								C432.7,83.9,433.5,85,434.7,85.2z"/>
						</g>
						<g>
							<path class="st13" d="M445.7,87.3c1.2,0.2,2.4-0.6,2.6-1.8c0.2-1.2-0.6-2.4-1.8-2.6s-2.4,0.6-2.6,1.8
								C443.7,86,444.5,87.1,445.7,87.3z"/>
						</g>
					</g>
					<path class="st13" d="M439.6,83.9c-0.1,0.6,0.3,1.1,0.8,1.2c0.6,0.1,1.1-0.3,1.2-0.8c0.1-0.6-0.3-1.1-0.8-1.2
						C440.2,83,439.7,83.3,439.6,83.9z"/>
				</g>
			</g>
		</g>
		<g>
			<path class="st9" d="M403,77c-1.1,5.6,2.6,11,8.2,12.1c5.6,1.1,11-2.6,12.1-8.2c1.1-5.6-2.6-11-8.2-12.1
				C409.5,67.7,404.1,71.3,403,77z"/>
			<path class="st10" d="M404.4,77.2c-1.1,5.6,2.6,11,8.2,12.1c5.6,1.1,11-2.6,12.1-8.2c1.1-5.6-2.6-11-8.2-12.1
				C410.9,67.9,405.4,71.6,404.4,77.2z"/>
			<g>
				<g>
					<path class="st13" d="M413.4,73.2c-0.2,1.2,0.6,2.4,1.8,2.6c1.2,0.2,2.4-0.6,2.6-1.8c0.2-1.2-0.6-2.4-1.8-2.6
						C414.8,71.2,413.6,72,413.4,73.2z"/>
					<path class="st13" d="M411.3,84.2c-0.2,1.2,0.6,2.4,1.8,2.6c1.2,0.2,2.4-0.6,2.6-1.8c0.2-1.2-0.6-2.4-1.8-2.6
						C412.7,82.2,411.5,83,411.3,84.2z"/>
				</g>
				<g>
					<path class="st13" d="M408.6,80.3c1.2,0.2,2.4-0.6,2.6-1.8c0.2-1.2-0.6-2.4-1.8-2.6c-1.2-0.2-2.4,0.6-2.6,1.8
						C406.6,78.9,407.4,80.1,408.6,80.3z"/>
					<path class="st13" d="M419.6,82.4c1.2,0.2,2.4-0.6,2.6-1.8c0.2-1.2-0.6-2.4-1.8-2.6c-1.2-0.2-2.4,0.6-2.6,1.8
						S418.4,82.1,419.6,82.4z"/>
				</g>
				<path class="st13" d="M413.5,79c-0.1,0.6,0.3,1.1,0.8,1.2c0.6,0.1,1.1-0.3,1.2-0.8c0.1-0.6-0.3-1.1-0.8-1.2
					C414.2,78,413.6,78.4,413.5,79z"/>
			</g>
		</g>
		
			<rect x="427" y="97.9" transform="matrix(-0.9823 -0.1871 0.1871 -0.9823 843.9094 281.5263)" class="st12" width="16.4" height="6.1"/>
		
			<linearGradient id="SVGID_00000062876533165703023640000018366304223354703015_" gradientUnits="userSpaceOnUse" x1="611.5726" y1="139.5449" x2="663.7647" y2="139.5449" gradientTransform="matrix(-0.9823 -0.1871 -0.1871 0.9823 1072.0188 100.3522)">
			<stop  offset="0" style="stop-color:#D01B7E"/>
			<stop  offset="1" style="stop-color:#D13451"/>
		</linearGradient>
		<path style="fill:url(#SVGID_00000062876533165703023640000018366304223354703015_);" d="M394.8,108.4l-1.2,6.1
			c-0.4,2,0.9,3.9,2.9,4.3l44.1,8.4c2,0.4,3.9-0.9,4.3-2.9l1.2-6.1L394.8,108.4z"/>
		
			<rect x="408.2" y="93.1" transform="matrix(-0.9823 -0.1871 0.1871 -0.9823 792.8771 276.04)" class="st32" width="2.5" height="15.1"/>
	</g>
	<g>
		<path class="st10" d="M359.2,50.5l-1.4,7.5l-58.9-11.2l1.4-7.5c0.1-0.6,0.5-1.1,1-1.4c0.4-0.2,0.8-0.3,1.2-0.2l55.1,10.5
			C358.7,48.4,359.4,49.4,359.2,50.5z"/>
		<path class="st10" d="M348.7,91.1l-53.5-10.2c-1.5-0.3-2.4-1.7-2.2-3.2l5.9-31l58.9,11.2l-5.9,31
			C351.6,90.4,350.2,91.4,348.7,91.1z"/>
		<path class="st33" d="M363.5,51.3l-1.4,7.5l-63.1-12l1.4-7.5c0.1-0.6,0.5-1.1,1.1-1.3c0.4-0.2,0.9-0.3,1.3-0.2L361.8,49
			C362.9,49.2,363.7,50.2,363.5,51.3z"/>
		<path class="st14" d="M353,91.9l-53.5-10.2c-1.5-0.3-2.4-1.7-2.2-3.2l5.9-31l58.9,11.2l-5.9,31C355.9,91.3,354.4,92.2,353,91.9z"
			/>
		<g>
			
				<linearGradient id="SVGID_00000155857487127642452040000015122389142213091456_" gradientUnits="userSpaceOnUse" x1="192.7238" y1="71.6345" x2="203.2765" y2="71.6345" gradientTransform="matrix(0.9823 0.1871 -0.1871 0.9823 124.6784 -64.2267)">
				<stop  offset="0" style="stop-color:#D01B7E"/>
				<stop  offset="1" style="stop-color:#D13451"/>
			</linearGradient>
			<path style="fill:url(#SVGID_00000155857487127642452040000015122389142213091456_);" d="M310.1,48.9l-7-1.3l-1.6-9.6
				c0.4-0.2,0.9-0.3,1.3-0.2l5.6,1.1L310.1,48.9z"/>
			
				<linearGradient id="SVGID_00000070117959178528317580000014727357687048863642_" gradientUnits="userSpaceOnUse" x1="207.1872" y1="71.6351" x2="217.8894" y2="71.6351" gradientTransform="matrix(0.9823 0.1871 -0.1871 0.9823 124.6784 -64.2267)">
				<stop  offset="0" style="stop-color:#D01B7E"/>
				<stop  offset="1" style="stop-color:#D13451"/>
			</linearGradient>
			<polygon style="fill:url(#SVGID_00000070117959178528317580000014727357687048863642_);" points="324.4,51.6 317.4,50.3 
				315.7,40.2 322.7,41.6 			"/>
			
				<linearGradient id="SVGID_00000132803417512466334090000000270579424912231321_" gradientUnits="userSpaceOnUse" x1="220.9534" y1="71.6344" x2="231.6558" y2="71.6344" gradientTransform="matrix(0.9823 0.1871 -0.1871 0.9823 124.6784 -64.2267)">
				<stop  offset="0" style="stop-color:#D01B7E"/>
				<stop  offset="1" style="stop-color:#D13451"/>
			</linearGradient>
			<polygon style="fill:url(#SVGID_00000132803417512466334090000000270579424912231321_);" points="337.9,54.2 330.9,52.8 
				329.2,42.8 336.2,44.1 			"/>
			
				<linearGradient id="SVGID_00000033362902179204992770000005903322076834665606_" gradientUnits="userSpaceOnUse" x1="235.5657" y1="71.6338" x2="246.2679" y2="71.6338" gradientTransform="matrix(0.9823 0.1871 -0.1871 0.9823 124.6784 -64.2267)">
				<stop  offset="0" style="stop-color:#D01B7E"/>
				<stop  offset="1" style="stop-color:#D13451"/>
			</linearGradient>
			<polygon style="fill:url(#SVGID_00000033362902179204992770000005903322076834665606_);" points="352.3,56.9 345.3,55.6 
				343.6,45.5 350.6,46.9 			"/>
			
				<linearGradient id="SVGID_00000052804723448325028810000009247968416024539555_" gradientUnits="userSpaceOnUse" x1="249.1424" y1="71.6321" x2="256.2041" y2="71.6321" gradientTransform="matrix(0.9823 0.1871 -0.1871 0.9823 124.6784 -64.2267)">
				<stop  offset="0" style="stop-color:#D01B7E"/>
				<stop  offset="1" style="stop-color:#D13451"/>
			</linearGradient>
			<path style="fill:url(#SVGID_00000052804723448325028810000009247968416024539555_);" d="M363.5,51.3l-1.4,7.5l-3.4-0.7l-1.7-10
				l4.9,0.9C362.9,49.2,363.7,50.2,363.5,51.3z"/>
		</g>
		<g>
			<g>
				<g>
					<path class="st13" d="M354.7,23.1l2.1,7.3l-57.6,16.4l-2.1-7.3c-0.2-0.6,0-1.2,0.3-1.7c0.2-0.3,0.6-0.6,1-0.7l53.9-15.3
						C353.4,21.5,354.4,22.1,354.7,23.1z"/>
				</g>
				<g>
					<g>
						<path class="st15" d="M309.3,43.9l-6.4,1.8l-5.6-7.9c0.2-0.3,0.6-0.6,1-0.7l5.1-1.5L309.3,43.9z"/>
						<polygon class="st15" points="322.4,40.2 316,42 310.2,33.7 316.6,31.9 						"/>
						<polygon class="st15" points="334.8,36.7 328.4,38.5 322.6,30.2 329,28.4 						"/>
						<polygon class="st15" points="347.9,33 341.5,34.8 335.7,26.5 342.1,24.7 						"/>
						<path class="st15" d="M354.7,23.1l2.1,7.3l-3.1,0.9l-5.8-8.3l4.5-1.3C353.4,21.5,354.4,22.1,354.7,23.1z"/>
					</g>
				</g>
			</g>
		</g>
		<path class="st10" d="M339.9,72c-1.1,5.8-6.7,9.6-12.5,8.5c-5.8-1.1-9.6-6.7-8.5-12.5c1.1-5.8,6.7-9.6,12.5-8.5
			C337.2,60.6,341.1,66.2,339.9,72z"/>
		<path class="st13" d="M325.4,73.7l1.6-8.5c0.1-0.6,0.8-0.8,1.2-0.4l6.5,5.7c0.4,0.4,0.3,1.1-0.2,1.2l-8.1,2.9
			C325.8,74.7,325.3,74.2,325.4,73.7z"/>
	</g>
</g>
</svg>
