<?xml version="1.0" encoding="utf-8"?>
<!-- Generator: Adobe Illustrator 26.0.2, SVG Export Plug-In . SVG Version: 6.00 Build 0)  -->
<svg version="1.1" id="Layer_1" xmlns="http://www.w3.org/2000/svg" xmlns:xlink="http://www.w3.org/1999/xlink" x="0px" y="0px"
	 viewBox="0 0 628.5 410" style="enable-background:new 0 0 628.5 410;" xml:space="preserve">
<style type="text/css">
	.st0{fill:url(#SVGID_1_);}
	
		.st1{clip-path:url(#SVGID_00000000191209456097701040000016802918133579757967_);fill:url(#SVGID_00000147901673175525826800000000562316590265987200_);}
	
		.st2{clip-path:url(#SVGID_00000106116046075295576300000017021641042435772559_);fill:url(#SVGID_00000049932117937643790020000014604792212295877301_);}
	.st3{clip-path:url(#SVGID_00000047742118681921422050000017284667676394106552_);}
	.st4{fill:#F0F0F3;}
	.st5{fill:url(#SVGID_00000081640248566233356970000001851192332416205704_);}
	.st6{fill:url(#SVGID_00000117664313480963884010000003461596971543261375_);}
	.st7{fill:#E2E0FD;}
	.st8{fill:url(#SVGID_00000023963504162321090610000003725791756988735657_);}
	.st9{opacity:0.62;fill:url(#SVGID_00000033331753883076993480000007793898386564166053_);}
	.st10{opacity:0.62;fill:url(#SVGID_00000025406234793608901330000005978718913693586609_);}
	.st11{opacity:0.5;fill:url(#SVGID_00000173874605700142004490000012305758258823201458_);}
	.st12{fill:#FFFFFF;}
	.st13{fill:url(#SVGID_00000102502226708021816450000011961626869227956146_);}
	.st14{opacity:0.5;fill:url(#SVGID_00000023270110431736670100000009395670784972210592_);}
	.st15{opacity:0.5;fill:url(#SVGID_00000031916116856472660070000003716784212820686208_);}
	.st16{fill:#57339C;}
	.st17{opacity:0.76;fill:url(#SVGID_00000021837169601237831410000002598816200918830221_);}
	.st18{opacity:0.76;fill:url(#SVGID_00000168833792293926622000000004833087227748606623_);}
	.st19{opacity:0.76;fill:url(#SVGID_00000098930833057140682170000015430414876990311324_);}
	.st20{fill:#E48E81;}
	.st21{fill:#B04E78;}
	.st22{fill:#D48081;}
	.st23{fill:url(#SVGID_00000075159635499475651750000006758171454099244478_);}
	.st24{opacity:0.6;fill:url(#SVGID_00000080176604328849749210000017447703715278695851_);}
	.st25{fill:url(#SVGID_00000072997137218747559820000004498943739024700321_);}
	.st26{fill:#CA8081;}
	.st27{opacity:0.91;fill:url(#SVGID_00000067238565678602507940000006433193385111651772_);}
	.st28{fill:url(#SVGID_00000056414855378447528980000001943308262983884420_);}
	.st29{opacity:0.6;fill:url(#SVGID_00000032646143737581154710000001852107856724308902_);}
	.st30{fill:url(#SVGID_00000109734870967705597000000012599722152651083425_);}
	.st31{fill:url(#SVGID_00000021121397672321657980000014819968361235702948_);}
	.st32{opacity:0.91;fill:url(#SVGID_00000114795103904658539270000015497214414598900627_);}
	.st33{fill:#EDBAAD;}
	.st34{fill:url(#SVGID_00000032626498016539644140000010349862686487083934_);}
	.st35{opacity:0.5;fill:url(#SVGID_00000076582761866678477450000002488739255517177747_);}
	.st36{fill:url(#SVGID_00000036216110166819994560000006400597618595391876_);}
	.st37{opacity:0.5;fill:url(#SVGID_00000166644884763485841480000005133836067198466180_);}
	.st38{fill:url(#SVGID_00000119090568641966183850000005781278275010967940_);}
	.st39{fill:url(#SVGID_00000021826133489272165780000010691069070678113966_);}
	.st40{opacity:0.5;fill:url(#SVGID_00000100383007309271232180000006816613030857926550_);}
	.st41{opacity:0.5;fill:url(#SVGID_00000081636455079745475370000007959200534419273363_);}
	.st42{opacity:0.5;fill:url(#SVGID_00000126286336965643935460000006420175130196095873_);}
	.st43{opacity:0.5;fill:url(#SVGID_00000042704975871666415680000015771500938803651515_);}
	.st44{opacity:0.5;fill:url(#SVGID_00000165945623948591224080000004377193745003403942_);}
	.st45{opacity:0.5;fill:url(#SVGID_00000057834288470644575920000016489396653406761129_);}
	.st46{opacity:0.5;fill:url(#SVGID_00000096763121148630406040000010899851379933662909_);}
	.st47{opacity:0.5;fill:url(#SVGID_00000119829775005850989070000004912364203042459830_);}
	.st48{opacity:0.5;fill:url(#SVGID_00000123440007663856071330000000702598099490957968_);}
	.st49{opacity:0.76;fill:url(#SVGID_00000176013507672327860710000016166836418450022308_);}
	.st50{opacity:0.5;fill:url(#SVGID_00000122691277104479607470000005851838546224285119_);}
	.st51{opacity:0.3;fill:url(#SVGID_00000140714620602153709470000001343078238325009056_);}
	.st52{opacity:0.5;fill:url(#SVGID_00000067235344854648442860000011133299085465456053_);}
	.st53{opacity:0.5;fill:url(#SVGID_00000134247307744359771870000010077353449228225921_);}
	.st54{opacity:0.5;fill:url(#SVGID_00000111177432107806503230000000380712075208428477_);}
	.st55{opacity:0.5;fill:url(#SVGID_00000133530185197912801740000015341756737654056623_);}
	.st56{opacity:0.5;fill:url(#SVGID_00000049918951786385683780000009990238482585571997_);}
	.st57{opacity:0.3;fill:url(#SVGID_00000180327456120071015490000013336648987771880636_);}
	.st58{opacity:0.5;fill:url(#SVGID_00000024693489320380624740000017227402641123628205_);}
	.st59{opacity:0.5;fill:url(#SVGID_00000043425956222420422300000005806226850341853883_);}
	.st60{opacity:0.5;fill:url(#SVGID_00000121238771295060469150000001043112222589996213_);}
	.st61{opacity:0.5;fill:#6E4BBA;}
	.st62{fill:url(#SVGID_00000016033491078839404420000015563421849606001303_);}
	.st63{fill:url(#SVGID_00000106107834633142843150000000304830464165813175_);}
	.st64{fill:url(#SVGID_00000038395498402949129840000011416240688625514152_);}
	.st65{opacity:0.6;fill:url(#SVGID_00000044887307133705762690000009433306641841194407_);}
	.st66{fill:url(#SVGID_00000094576357510294581690000006482920827342342537_);}
	.st67{fill:url(#SVGID_00000068675336085270243890000015390774816279354040_);}
	.st68{fill:url(#SVGID_00000037670497592604796330000001561472426461070750_);}
	.st69{fill:url(#SVGID_00000075853914696997541370000002028701186475223204_);}
	.st70{fill:#F8E9EB;}
	.st71{fill:#804545;}
	.st72{fill:#3E1B1B;}
	.st73{fill:#4D2217;}
	.st74{fill:#AF6598;}
	.st75{fill:#B25F7B;}
	.st76{fill:#8B4B87;}
	.st77{opacity:0.6;fill:url(#SVGID_00000132809174582914195870000013767142779564933006_);}
	.st78{fill:url(#SVGID_00000142858297287244270590000004830390920302625432_);}
	.st79{fill:#BB716C;}
	.st80{opacity:0.6;fill:url(#SVGID_00000148636566000822312900000016291184354968879019_);}
	.st81{opacity:0.6;fill:url(#SVGID_00000000184555233491297420000007972323725024351656_);}
	.st82{opacity:0.5;fill:url(#SVGID_00000011004489730727136410000007487115782366437302_);}
	.st83{fill:#9F5B6C;}
	.st84{opacity:0.8;fill:url(#SVGID_00000127761978852213557910000005972394044800729275_);}
	.st85{opacity:0.8;fill:url(#SVGID_00000041980190858442103090000008586651845189221025_);}
	.st86{fill:url(#SVGID_00000105399428172550139470000005616029801009445007_);}
	.st87{fill:url(#SVGID_00000062901984651430643430000014605044886632096923_);}
	.st88{opacity:0.6;fill:#BA6DF2;}
	.st89{fill:#884D9D;}
	.st90{opacity:0.6;fill:url(#SVGID_00000109710196816040485260000012378083748295363748_);}
	.st91{opacity:0.3;fill:url(#SVGID_00000080904685680171648500000012356779723943657124_);}
	.st92{opacity:0.3;fill:url(#SVGID_00000145044791375434138510000004127277452088734088_);}
	.st93{opacity:0.3;fill:url(#SVGID_00000141420585511943984790000000612736423323756161_);}
	.st94{opacity:0.3;fill:url(#SVGID_00000019641402935916999200000012850407356981371267_);}
	.st95{fill:#D0D2F8;}
	.st96{fill:#E8FFFF;}
	.st97{fill:url(#SVGID_00000167390478848620829830000007559688841868840628_);}
	.st98{fill:url(#SVGID_00000178895797597462368170000001744674909345981851_);}
	.st99{opacity:0.81;fill:url(#SVGID_00000155112947664466684590000007828522745869526433_);}
	.st100{fill:#653F9D;}
	
		.st101{clip-path:url(#SVGID_00000047742118681921422050000017284667676394106552_);fill:url(#SVGID_00000116222791384864092520000008652039802032542086_);}
	
		.st102{clip-path:url(#SVGID_00000047742118681921422050000017284667676394106552_);fill:url(#SVGID_00000163033927107025458350000001537555024723608755_);}
	
		.st103{clip-path:url(#SVGID_00000047742118681921422050000017284667676394106552_);fill:url(#SVGID_00000152979272009640800980000006079633165492558772_);}
	
		.st104{clip-path:url(#SVGID_00000047742118681921422050000017284667676394106552_);fill:url(#SVGID_00000099656312872076406100000014736897771616057271_);}
	
		.st105{clip-path:url(#SVGID_00000047742118681921422050000017284667676394106552_);fill:url(#SVGID_00000159450490676932212750000017674336242474698895_);}
	
		.st106{clip-path:url(#SVGID_00000047742118681921422050000017284667676394106552_);fill:url(#SVGID_00000054950422311452345630000011736795936926784149_);}
	.st107{opacity:0.73;fill:url(#SVGID_00000127753050377485320600000011563898823486939823_);}
	.st108{fill:#413F9D;}
	.st109{opacity:0.73;fill:url(#SVGID_00000122678633167714262440000011037056170438280066_);}
	.st110{fill-rule:evenodd;clip-rule:evenodd;fill:url(#SVGID_00000176004584208420055110000002748814882582360732_);}
	.st111{fill-rule:evenodd;clip-rule:evenodd;fill:url(#SVGID_00000052069040885721745600000004883981316918502549_);}
	.st112{fill-rule:evenodd;clip-rule:evenodd;fill:url(#SVGID_00000072259557723512418570000016171234347545704122_);}
	.st113{opacity:0.5;fill-rule:evenodd;clip-rule:evenodd;fill:#541D36;}
	.st114{fill-rule:evenodd;clip-rule:evenodd;fill:#BCD7FD;}
	.st115{clip-path:url(#SVGID_00000047742118681921422050000017284667676394106552_);fill:#DA2297;}
	.st116{clip-path:url(#SVGID_00000047742118681921422050000017284667676394106552_);fill:#6C76FA;}
	.st117{clip-path:url(#SVGID_00000047742118681921422050000017284667676394106552_);fill:#4934DA;}
	.st118{fill-rule:evenodd;clip-rule:evenodd;fill:url(#SVGID_00000100372953355955389850000002242746152877666487_);}
	.st119{fill-rule:evenodd;clip-rule:evenodd;fill:url(#SVGID_00000013897611573030191770000017818563274103339405_);}
	.st120{fill-rule:evenodd;clip-rule:evenodd;fill:url(#SVGID_00000072280223774992569710000004597708212093985939_);}
	.st121{fill-rule:evenodd;clip-rule:evenodd;fill:url(#SVGID_00000101104758115458576740000017191902501073130121_);}
	.st122{fill:#6A4D9D;}
	
		.st123{clip-path:url(#SVGID_00000047742118681921422050000017284667676394106552_);fill-rule:evenodd;clip-rule:evenodd;fill:#CACFFC;}
	.st124{fill:none;}
	.st125{fill-rule:evenodd;clip-rule:evenodd;fill:url(#SVGID_00000061464416636203686240000017516910658408176516_);}
	.st126{fill-rule:evenodd;clip-rule:evenodd;fill:url(#SVGID_00000044859500437694834740000009709248798454797758_);}
</style>
<g>
	<g>
		
			<linearGradient id="SVGID_1_" gradientUnits="userSpaceOnUse" x1="320.7743" y1="696.3483" x2="320.7743" y2="595.5285" gradientTransform="matrix(1 0 0 1 0 -338.8898)">
			<stop  offset="0" style="stop-color:#432B7D"/>
			<stop  offset="1" style="stop-color:#D21F39"/>
		</linearGradient>
		<path class="st0" d="M472.7,360c-16.6,40.3-50.4,33.9-65.7,16.1c-21.7-25.4-13.1-41.5-63-25.9c-36.8,11.5-75.1-10.2-68.5-52.3
			c9.1-58.7-43.6-31.8-71.3-39.3c-57.1-15.4-41.6-54.8-20.7-121.9C204.9,67.8,247,38,309.4,29.3c46-6.4,86.3,0.4,97.7,36.6
			c16.4,52.1-38.5,69.6,7.8,83.6c27.8,8.4,66.9,39.3,31.4,89C411,288,496.6,301.8,472.7,360z"/>
		<g>
			<g>
				<g>
					<defs>
						<path id="SVGID_00000157274679284990028730000000500617037122211491_" d="M473,359.5c-16.6,40.3-50.4,33.9-65.7,16.1
							c-21.7-25.4-13.1-41.5-63-25.9c-36.8,11.5-75.1-10.2-68.5-52.3c9.1-58.7-43.6-31.8-71.3-39.3c-57.1-15.4-41.6-54.8-20.7-121.9
							c21.4-68.9,63.6-98.7,125.9-107.4c46-6.4,86.3,0.4,97.7,36.6c16.4,52.1-38.5,69.6,7.8,83.6c27.8,8.4,66.9,39.3,31.4,89
							C411.3,287.5,496.9,301.2,473,359.5z"/>
					</defs>
					<clipPath id="SVGID_00000025424910233332896910000018085155607771579524_">
						<use xlink:href="#SVGID_00000157274679284990028730000000500617037122211491_"  style="overflow:visible;"/>
					</clipPath>
					
						<linearGradient id="SVGID_00000032625714088568714970000008388237291181064109_" gradientUnits="userSpaceOnUse" x1="327.8944" y1="686.126" x2="327.8944" y2="525.4216" gradientTransform="matrix(1 0 0 1 0 -338.8898)">
						<stop  offset="0" style="stop-color:#432B7D"/>
						<stop  offset="1" style="stop-color:#D21F39"/>
					</linearGradient>
					
						<path style="clip-path:url(#SVGID_00000025424910233332896910000018085155607771579524_);fill:url(#SVGID_00000032625714088568714970000008388237291181064109_);" d="
						M516.7,308c-13.3,5.6-30,4.4-43.6-3.3c-8.7-5-14.9-9.9-20.5-14.3c-17.1-13.5-24.1-19-62.8,10.2c-21,15.8-47.2,20.5-68.5,12.3
						c-18.7-7.2-31.4-23.5-35.7-45.8c-3.5-18.4-9.6-29.6-18.4-34.3c-12.6-6.7-30.1,0.9-46.9,8.2c-11.3,5-23,10.2-33.4,10.9
						c-23.2,1.8-39.9-2.3-51.3-12.3c-21.3-18.9-22.7-57.3-24.7-110.6c-0.2-4.1-0.4-8.3-0.5-12.5c-1.8-44.2,6-80.3,24.1-110.1
						c16.8-27.9,42.8-50.8,79.4-69.9c28.1-14.7,53-22.6,74.1-23.3c24.5-0.9,43.9,7.7,57.5,25.8c19.6,25.8,17.2,49.3,15.4,66.4
						c-1.1,10.2-1.9,18.4,2.6,22.9c3.8,4.1,11.9,5.6,25.2,5c20.7-1,50.8,5.3,67.4,26.3c13.1,16.6,15.8,39,8,66.6
						c-10.4,36.1,10.6,48.7,34.9,63.1c22.7,13.5,48.7,28.9,46.8,68.2c-1.4,29.8-14.4,43-25,48.8C519.2,306.9,518,307.5,516.7,308z"
						/>
				</g>
			</g>
			<g>
				<g>
					<defs>
						<path id="SVGID_00000003088693571769361920000003427087645711369146_" d="M473,359.5c-16.6,40.3-50.4,33.9-65.7,16.1
							c-21.7-25.4-13.1-41.5-63-25.9c-36.8,11.5-75.1-10.2-68.5-52.3c9.1-58.7-43.6-31.8-71.3-39.3c-57.1-15.4-41.6-54.8-20.7-121.9
							c21.4-68.9,63.6-98.7,125.9-107.4c46-6.4,86.3,0.4,97.7,36.6c16.4,52.1-38.5,69.6,7.8,83.6c27.8,8.4,66.9,39.3,31.4,89
							C411.3,287.5,496.9,301.2,473,359.5z"/>
					</defs>
					<clipPath id="SVGID_00000065054372464009930470000011313472453307529143_">
						<use xlink:href="#SVGID_00000003088693571769361920000003427087645711369146_"  style="overflow:visible;"/>
					</clipPath>
					
						<linearGradient id="SVGID_00000121241029378114899300000015088415939777525888_" gradientUnits="userSpaceOnUse" x1="334.8789" y1="632.5405" x2="334.8789" y2="496.5592" gradientTransform="matrix(1 0 0 1 0 -338.8898)">
						<stop  offset="0" style="stop-color:#432B7D"/>
						<stop  offset="1" style="stop-color:#D21F39"/>
					</linearGradient>
					
						<path style="clip-path:url(#SVGID_00000065054372464009930470000011313472453307529143_);fill:url(#SVGID_00000121241029378114899300000015088415939777525888_);" d="
						M508,286.2c-13.9,3.8-30.3,0.5-42.7-9c-8-6.1-13.5-11.8-18.4-16.8c-15-15.6-21.4-22-63.6,1.9c-22.9,12.9-49.5,14.2-69.5,3.2
						c-17.7-9.6-28-27.4-29.3-50c-1.1-18.7-5.6-30.6-13.8-36.4c-11.7-8.3-30-3.2-47.5,2c-11.9,3.4-24.1,6.8-34.5,6.3
						c-23.2-1.3-39.3-7.5-49.3-18.9c-18.7-21.6-15-60-10.1-113.1c0.4-4.1,0.8-8.2,1.1-12.5c4-44.1,16.6-78.7,38.4-105.9
						c20.3-25.4,49-44.6,87.8-58.7c29.8-10.9,55.5-15.3,76.5-13.4c24.4,2.3,42.5,13.5,53.6,33.1c15.9,28.1,10.5,51.1,6.6,67.9
						c-2.4,10-4.3,17.9-0.5,23.1c3.3,4.5,11,7.1,24.3,8.3C437.8-1.2,466.8,9,480.5,32c10.9,18.1,10.5,40.7-0.9,67.1
						c-15,34.5,4.1,49.6,26.3,67.1c20.8,16.4,44.4,35.1,37.4,73.7c-5.3,29.3-19.9,40.8-31.2,45.1C510.7,285.4,509.4,285.8,508,286.2
						z"/>
				</g>
			</g>
		</g>
	</g>
</g>
<g>
	<defs>
		
			<rect id="SVGID_00000076585232183990665570000013666569460075558532_" x="72.4" y="29.9" transform="matrix(-1 -1.224647e-16 1.224647e-16 -1 626.3712 380.857)" width="481.6" height="321.1"/>
	</defs>
	<clipPath id="SVGID_00000130637747986749887250000007720000898031824290_">
		<use xlink:href="#SVGID_00000076585232183990665570000013666569460075558532_"  style="overflow:visible;"/>
	</clipPath>
	<g style="clip-path:url(#SVGID_00000130637747986749887250000007720000898031824290_);">
		<path class="st4" d="M435.2,194.2l-2,0.1l-0.1-1.7l-0.1,0l-0.6,1.7l-2.9,0.1c-0.5,0-1,0-1.4-0.2c-0.4-0.1-0.7-0.3-0.9-0.5
			c-0.2-0.2-0.4-0.5-0.5-0.9c-0.1-0.3-0.2-0.7-0.2-1.2l0-1.5c0-0.4,0-0.8,0.1-1.2c0.1-0.4,0.3-0.7,0.5-0.9c0.2-0.3,0.5-0.5,0.9-0.6
			c0.4-0.1,0.8-0.2,1.4-0.2l5.4-0.2c0.2,0,0.3,0.1,0.3,0.3L435.2,194.2z M433,189c0,0,0-0.1,0-0.1c0,0-0.1,0-0.1,0l-3.3,0.1
			c-0.4,0-0.7,0.1-0.8,0.3c-0.2,0.2-0.2,0.5-0.2,0.9l0,1.2c0,0.4,0.1,0.7,0.3,0.9c0.2,0.2,0.4,0.2,0.8,0.2l3.4-0.1L433,189z"/>
		<path class="st4" d="M423.2,191.7l-2.8,0.1l0-1.5l3.4-0.1l0-0.9c0,0,0-0.1,0-0.1c0,0-0.1,0-0.1,0l-4.1,0.1c-0.1,0-0.1,0-0.1,0.1
			l0,1l-0.1,0l-1.9-0.6l-0.1-1.9c0-0.2,0.1-0.3,0.3-0.3l7.7-0.2c0.2,0,0.3,0.1,0.3,0.3l0.2,6.6c0,0.2-0.1,0.3-0.3,0.3l-7.9,0.2
			l-0.1-1.9l6.1-0.2c0.1,0,0.1-0.1,0.1-0.1l-0.1-2.1l-0.1,0L423.2,191.7z"/>
		<path class="st4" d="M408.2,189.6l0-1.5c0-0.2,0.1-0.3,0.3-0.3l6.4-0.2c0.6,0,1.1,0.1,1.4,0.4c0.3,0.3,0.4,0.7,0.5,1.2l0,0.5
			c0,0.3,0,0.5-0.1,0.7c-0.1,0.2-0.1,0.4-0.3,0.5c-0.1,0.1-0.3,0.2-0.5,0.3c-0.2,0.1-0.5,0.2-0.7,0.2l-4.3,0.7
			c-0.1,0-0.2,0.1-0.2,0.1c0,0.1-0.1,0.1-0.1,0.3l0,0.2c0,0.2,0,0.3,0.1,0.3c0.1,0.1,0.2,0.1,0.3,0.1l5.7-0.2l0.1,1.9l-6.4,0.2
			c-0.4,0-0.7,0-1-0.1c-0.3-0.1-0.5-0.2-0.7-0.3c-0.2-0.1-0.3-0.3-0.4-0.6c-0.1-0.2-0.1-0.5-0.1-0.8l0-0.6c0-0.3,0-0.5,0.1-0.7
			c0-0.2,0.1-0.4,0.3-0.5c0.1-0.1,0.3-0.3,0.5-0.3c0.2-0.1,0.4-0.2,0.7-0.2l4.4-0.8c0.1,0,0.2-0.1,0.3-0.1c0,0,0.1-0.1,0.1-0.3
			l0-0.2c0-0.1,0-0.2-0.1-0.3c-0.1-0.1-0.2-0.1-0.3-0.1l-3.8,0.1c-0.1,0-0.1,0-0.1,0.1l0,0.8l-0.1,0L408.2,189.6z"/>
		<path class="st4" d="M405.4,195.1l-0.2-7.2l2-0.1l0.2,7.2L405.4,195.1z"/>
		<path class="st4" d="M397.9,193.3c0,0.1,0,0.1,0.1,0.1l3.4-0.1c0.4,0,0.7-0.1,0.8-0.3c0.2-0.2,0.2-0.5,0.2-0.9l0-1.3
			c0-0.2,0-0.4-0.1-0.5c0-0.1-0.1-0.3-0.2-0.3c-0.1-0.1-0.2-0.1-0.3-0.2c-0.1,0-0.3,0-0.5,0l-3.4,0.1c-0.1,0-0.1,0-0.1,0.1l0,0.7
			l-0.1,0l-1.9-0.6l0-1.5c0-0.2,0.1-0.3,0.3-0.3l5.4-0.2c0.5,0,1,0,1.4,0.2c0.4,0.1,0.7,0.3,0.9,0.5c0.2,0.2,0.4,0.5,0.5,0.9
			c0.1,0.3,0.2,0.7,0.2,1.2l0,1.5c0,0.4,0,0.8-0.1,1.2c-0.1,0.4-0.3,0.7-0.5,0.9c-0.2,0.3-0.5,0.5-0.9,0.6c-0.4,0.1-0.8,0.2-1.4,0.2
			l-5.4,0.2c-0.2,0-0.2-0.1-0.3-0.3l-0.1-3.5l2-0.1l0,0.1c0,0.1,0,0.2,0,0.3c0,0.1,0,0.2,0,0.3L397.9,193.3z"/>
		<path class="st4" d="M394.6,188.2c0.2,0,0.3,0.1,0.3,0.3l0.2,6.9l-1.8,0.1l-0.2-5.4c0-0.1-0.1-0.2-0.2-0.2l-0.1,0
			c-0.1,0-0.1,0-0.2,0.1l-2.7,5.2c-0.1,0.1-0.1,0.2-0.2,0.2c-0.1,0-0.2,0.1-0.3,0.1l-2.9,0.1c-0.2,0-0.3-0.1-0.3-0.3l-0.2-6.9
			l1.8-0.1l0.2,5.4c0,0.1,0.1,0.2,0.2,0.2l0.1,0c0.1,0,0.1,0,0.2-0.1l2.6-5.2c0-0.1,0.1-0.2,0.2-0.2c0.1,0,0.2-0.1,0.3-0.1
			L394.6,188.2z"/>
	</g>
	<g style="clip-path:url(#SVGID_00000130637747986749887250000007720000898031824290_);">
		
			<linearGradient id="SVGID_00000168087263396022247640000013378124439851922590_" gradientUnits="userSpaceOnUse" x1="187.9768" y1="270.513" x2="187.9768" y2="213.3685" gradientTransform="matrix(-0.906 -0.4233 -0.4233 0.906 703.852 60.1383)">
			<stop  offset="0" style="stop-color:#D5CAFC"/>
			<stop  offset="1" style="stop-color:#C9B9FC"/>
		</linearGradient>
		<path style="fill:url(#SVGID_00000168087263396022247640000013378124439851922590_);" d="M428.6,180.9c-0.2,1.2,0.3,3.3,2.9,6
			l-10.7,25.9c-2.1,0.4-4,1.7-5,3.8c-1.6,3.4-0.1,7.5,3.3,9c3.4,1.6,7.5,0.1,9-3.3c1-2.1,0.8-4.4-0.3-6.3l13-24.8
			c3.8,0.2,5.7-0.8,6.5-1.6c0.1-0.2,0.9-2,0.9-2c2.1-5.7,0.3-11.3,0.3-11.3l-1.9-0.9l-3.2,8.2c-2.6,1.5-5.2,1-5.2,1l0,0
			c0,0-2-1.6-2.6-4.6l4.2-7.7l-1.9-0.9c0,0-5.4,2.2-8.5,7.4C429.5,178.9,428.6,180.6,428.6,180.9z M418.5,217.9l3.1-2.2l3.4,1.6
			l0.3,3.8l-3.1,2.2l-3.4-1.6L418.5,217.9z"/>
		
			<linearGradient id="SVGID_00000036211951594759524150000013757364615515175588_" gradientUnits="userSpaceOnUse" x1="187.9734" y1="272.7423" x2="187.9734" y2="215.5979" gradientTransform="matrix(-0.906 -0.4233 -0.4233 0.906 703.852 60.1383)">
			<stop  offset="0" style="stop-color:#AEA3E3"/>
			<stop  offset="1" style="stop-color:#7060BA"/>
		</linearGradient>
		<path style="fill:url(#SVGID_00000036211951594759524150000013757364615515175588_);" d="M430.5,188.9l-10.7,25.9
			c-2.1,0.4-4,1.7-5,3.8c-1.6,3.4-0.1,7.5,3.3,9c3.4,1.6,7.5,0.1,9-3.3c1-2.1,0.8-4.4-0.3-6.3l13-24.8c4.5,0.3,7.4-3.7,7.4-3.7
			c2.1-5.7,0.3-11.3,0.3-11.3l-1.9-0.9l-3.2,8.2c-2.6,1.5-5.2,1-5.2,1l0,0c0,0-2-1.6-2.6-4.6l4.2-7.7l-1.9-0.9c0,0-5.4,2.2-8.5,7.4
			C428.6,180.9,427.4,185.7,430.5,188.9z M417.5,219.9l3.1-2.2l3.4,1.6l0.3,3.8l-3.1,2.2l-3.4-1.6L417.5,219.9z"/>
		
			<rect x="445.9" y="175.9" transform="matrix(0.4233 -0.906 0.906 0.4233 97.5526 507.0589)" class="st7" width="2.2" height="2.1"/>
		
			<rect x="437.3" y="171.8" transform="matrix(0.4233 -0.906 0.906 0.4233 96.2101 496.929)" class="st7" width="2.2" height="2.1"/>
		
			<rect x="418.9" y="221.6" transform="matrix(0.4233 -0.906 0.906 0.4233 39.7725 509.4503)" class="st7" width="2.2" height="3.8"/>
		<g>
			
				<linearGradient id="SVGID_00000083069405790120062120000008402773761092309929_" gradientUnits="userSpaceOnUse" x1="187.9733" y1="258.5355" x2="187.9733" y2="234.4482" gradientTransform="matrix(-0.906 -0.4233 -0.4233 0.906 703.852 60.1383)">
				<stop  offset="0" style="stop-color:#AEA3E3"/>
				<stop  offset="1" style="stop-color:#7060BA"/>
			</linearGradient>
			<path style="fill:url(#SVGID_00000083069405790120062120000008402773761092309929_);" d="M430.9,192.2l-8.6,21.1
				c0,0,1.5,2.1,4.2,2l10.5-20.2C437.1,195.1,434.7,192.1,430.9,192.2z M431.3,192.6c0.9,0.1,1.8,0.4,2.6,0.8c1.1,0.5,2,1.2,2.5,1.7
				l-10.5,19.8c-0.5-0.1-1-0.2-1.5-0.4c-0.6-0.3-1.1-0.6-1.4-0.9L431.3,192.6z"/>
			<path class="st7" d="M423.1,213.5l-0.8-0.2c0,0,1.2,2.1,4.2,2l-0.6-0.5C425.9,214.8,424.5,214.7,423.1,213.5z"/>
			
				<linearGradient id="SVGID_00000068643855812487135670000002384409861082858369_" gradientUnits="userSpaceOnUse" x1="184.555" y1="234.9302" x2="191.3916" y2="234.9302" gradientTransform="matrix(-0.906 -0.4233 -0.4233 0.906 703.852 60.1383)">
				<stop  offset="0" style="stop-color:#8989DB"/>
				<stop  offset="1" style="stop-color:#9476B2"/>
			</linearGradient>
			<path style="opacity:0.62;fill:url(#SVGID_00000068643855812487135670000002384409861082858369_);" d="M437.1,195.1l-0.6-0.1
				c0,0-1.8-1.9-5.1-2.4l-0.5-0.4c0,0,1.3-0.2,3.4,0.7C436.4,194,437.1,195.1,437.1,195.1z"/>
		</g>
		
			<linearGradient id="SVGID_00000123422655912288498620000014415109911027823259_" gradientUnits="userSpaceOnUse" x1="187.9733" y1="236.5173" x2="187.9733" y2="232.3788" gradientTransform="matrix(-0.906 -0.4233 -0.4233 0.906 703.852 60.1383)">
			<stop  offset="0" style="stop-color:#FFFFFF"/>
			<stop  offset="1" style="stop-color:#9476B2"/>
		</linearGradient>
		<path style="opacity:0.62;fill:url(#SVGID_00000123422655912288498620000014415109911027823259_);" d="M439.9,193.3
			c0,0-5.1-0.9-9.4-4.4l-1.4,3.3c0,0,1.5-1.5,4.9-0.1c4,1.6,3.8,4.8,3.8,4.8L439.9,193.3z"/>
		
			<linearGradient id="SVGID_00000090982270654461186910000017963174959987350916_" gradientUnits="userSpaceOnUse" x1="191.589" y1="260.9944" x2="191.589" y2="234.4402" gradientTransform="matrix(-0.906 -0.4233 -0.4233 0.906 703.852 60.1383)">
			<stop  offset="0" style="stop-color:#000000"/>
			<stop  offset="1" style="stop-color:#FFFFFF"/>
		</linearGradient>
		<path style="opacity:0.5;fill:url(#SVGID_00000090982270654461186910000017963174959987350916_);" d="M429.1,192.2
			c1-0.7,2.1-0.7,2.1-0.7L421,216.1l-1.2-1.3L429.1,192.2z"/>
		<path class="st12" d="M429.1,192.2c0,0,1.1,3.3-2,4.8L429.1,192.2z"/>
	</g>
	<g style="clip-path:url(#SVGID_00000130637747986749887250000007720000898031824290_);">
		<g>
			
				<linearGradient id="SVGID_00000103968553666310172550000007209947517511799178_" gradientUnits="userSpaceOnUse" x1="299.0007" y1="350.9715" x2="299.0007" y2="279.3613" gradientTransform="matrix(-1 0 0 1 628 0)">
				<stop  offset="1.117320e-02" style="stop-color:#431C65"/>
				<stop  offset="1" style="stop-color:#4B3B81"/>
			</linearGradient>
			<path style="fill:url(#SVGID_00000103968553666310172550000007209947517511799178_);" d="M276.1,351h37.7
				c3.9-21.9,13.1-50.5,13.1-50.5c2.2-1.3,6.6,0.3,6.6,0.3l13.8,50.2h34.5c1.8-31-15.1-66.1-15.1-66.1l0,0c0.1-0.1,0.6-1.2,0.4-1.9
				c-0.1-0.3-0.6-0.9-1.3-1.5c-0.9-0.9-2-1.7-2-1.7l-64.3-0.4c0,0-0.7,0.3-1.5,0.8h0c-1.4,0.9-3.3,2.2-3.3,3.1
				c0,1.3,0.5,2.2,0.7,2.4l0,0C281.6,311.8,276.1,351,276.1,351z"/>
			
				<radialGradient id="SVGID_00000124152843595521312050000012904107519751281837_" cx="249.8287" cy="344.7837" r="21.6955" gradientTransform="matrix(-0.6462 0.1491 0.3852 1.6696 392.498 -287.6829)" gradientUnits="userSpaceOnUse">
				<stop  offset="0" style="stop-color:#4B494C"/>
				<stop  offset="1" style="stop-color:#000000"/>
			</radialGradient>
			<path style="opacity:0.5;fill:url(#SVGID_00000124152843595521312050000012904107519751281837_);" d="M349.8,328.5
				c4.6,20,14.6,34.8,22.4,33c7.7-1.8,10.3-19.5,5.7-39.5c-4.6-20-14.6-34.8-22.4-33C347.8,290.8,345.2,308.4,349.8,328.5z"/>
			
				<radialGradient id="SVGID_00000117638441173576972690000002589922055910809505_" cx="380.1346" cy="330.5592" r="21.6951" gradientTransform="matrix(-0.6386 -0.179 -0.4623 1.6499 692.6546 -152.4889)" gradientUnits="userSpaceOnUse">
				<stop  offset="0" style="stop-color:#4B494C"/>
				<stop  offset="1" style="stop-color:#000000"/>
			</radialGradient>
			<path style="opacity:0.5;fill:url(#SVGID_00000117638441173576972690000002589922055910809505_);" d="M283.2,321
				c-5.5,19.8-3.8,37.5,3.8,39.7c7.7,2.1,18.3-12.1,23.9-31.9c5.5-19.8,3.8-37.5-3.8-39.7C299.5,286.9,288.8,301.2,283.2,321z"/>
			<g>
				<path class="st16" d="M351.8,351l0.4-0.1c-4.4-25.8-15.5-47.5-15.6-47.7l0-0.1l-2.8-2.5l-0.3,0.3l2.8,2.5
					C336.7,304.4,347.5,325.7,351.8,351z"/>
			</g>
			<g>
				<path class="st16" d="M308.7,351c4.3-25.3,15.4-46.8,15.9-47.8l2.5-2.3l-0.3-0.3l-2.6,2.3c-0.1,0.2-11.5,22.1-15.9,47.9
					L308.7,351z"/>
			</g>
			
				<linearGradient id="SVGID_00000073678947492902114230000004964818505319913908_" gradientUnits="userSpaceOnUse" x1="296.4804" y1="350.9715" x2="296.4804" y2="279.3613" gradientTransform="matrix(-1 0 0 1 628 0)">
				<stop  offset="0" style="stop-color:#CACAFC"/>
				<stop  offset="1" style="stop-color:#6E5CB6"/>
			</linearGradient>
			<path style="opacity:0.76;fill:url(#SVGID_00000073678947492902114230000004964818505319913908_);" d="M294.7,283.3
				c0,1.3,0.5,2.2,0.7,2.4l0,0c13.4,3,23.6,15.5,23.6,15.5c-7.3,14-19.5,49.7-19.5,49.7h14.3c3.9-21.9,13.1-50.5,13.1-50.5
				c2.2-1.3,6.6,0.3,6.6,0.3l13.8,50.2h8.9c-3.2-21-12.6-46.7-12.6-46.7c9.3-10.8,23.1-19.4,23.1-19.4l0,0l1.6-1l-1.2-0.9
				c-6,5.7-25.2,13.2-25.8,13.4l24.5-14.9c-0.9-0.9-2-1.7-2-1.7l-64.3-0.4c0,0-0.7,0.3-1.5,0.8l17.6,9.7L294.7,283.3z"/>
			
				<linearGradient id="SVGID_00000045582322723170359520000008736892199669423238_" gradientUnits="userSpaceOnUse" x1="304.8171" y1="315.1664" x2="304.8171" y2="295.6349" gradientTransform="matrix(-1 0 0 1 628 0)">
				<stop  offset="0" style="stop-color:#CACAFC"/>
				<stop  offset="1" style="stop-color:#6E5CB6"/>
			</linearGradient>
			<polygon style="opacity:0.76;fill:url(#SVGID_00000045582322723170359520000008736892199669423238_);" points="326.9,300.5 
				319.4,295.6 321.2,300.5 322.5,315.2 			"/>
			
				<linearGradient id="SVGID_00000088849580418927355400000009972124122795367319_" gradientUnits="userSpaceOnUse" x1="282.1947" y1="307.9842" x2="282.1947" y2="288.8486" gradientTransform="matrix(-1 0 0 1 628 0)">
				<stop  offset="0" style="stop-color:#CACAFC"/>
				<stop  offset="1" style="stop-color:#6E5CB6"/>
			</linearGradient>
			<polygon style="opacity:0.76;fill:url(#SVGID_00000088849580418927355400000009972124122795367319_);" points="333.5,300.8 
				341.3,296.4 358.1,288.8 336.8,302.9 335.5,308 			"/>
		</g>
		<g>
			<path class="st20" d="M312,150c0,0.3-0.1,0.5-0.1,0.5c0.4,1.6,0.8,3.2,1.3,4.5c1.6,4.5,3.5,7.7,5,9.7c1.3,1.7,2.2,2.6,2.2,2.6
				c11.7-3.7,17.5-15.1,19.7-20.8c0,0,0-0.1,0-0.1c0.4-1.1,0.7-1.9,0.9-2.5c0,0,0,0,0,0c0.1-0.4,0.2-0.7,0.2-0.7
				c0-0.1-0.1-0.2-0.1-0.3l0,0c-0.2-0.4-0.4-0.8-0.6-1.2c-1.5-3.4-2.6-6.5-3.2-9c-0.6-2.1-0.9-3.7-1-4.6c-0.1-0.4-0.1-0.7-0.1-0.7
				l-5.5,2.9l-18.8,10c0.3,1.7,0.4,3.3,0.4,4.8c0,1,0,1.9-0.1,2.7c-0.1,0.9-0.2,1.7-0.2,2.2v0C312,149.9,312,150,312,150z"/>
			<path class="st21" d="M312,149.7c0,0.1,0,0.2,0,0.3c0,0.2,0.1,0.4,0.2,0.6c0,0,0,0,0,0c1,3.5,4.8,7.2,9.7,5.4
				c5.3-1.9,15.5-23.4,15.5-23.4l-1-4.6l-24,19.6l-0.3,1.9L312,149.7z"/>
		</g>
		<g>
			<g>
				<path class="st22" d="M392,145.8c0,0,1.5-8.1,0.8-14.1c-0.7-6,0.2-12.8,0.2-12.8s1.5-0.6,2.5,0c1.1,0.6,3.5,6.8,2.4,11.8
					c-1.1,5-0.3,16.9-0.3,16.9h1.7l3.7-5l1.8-0.5c0,0,10.2,9.6,10.1,15.4l-1.3,5.1L401,162l-8.2-9.4L392,145.8z"/>
				
					<linearGradient id="SVGID_00000150787675351994558920000014279123861280328092_" gradientUnits="userSpaceOnUse" x1="217.6242" y1="159.7797" x2="217.6242" y2="142.02" gradientTransform="matrix(-1 0 0 1 628 0)">
					<stop  offset="1.598750e-02" style="stop-color:#EEC0A8"/>
					<stop  offset="1" style="stop-color:#E59393"/>
				</linearGradient>
				<path style="fill:url(#SVGID_00000150787675351994558920000014279123861280328092_);" d="M404.8,142c0,0-0.3,6.4-1.7,11.9
					c0,0,0.2,2.2,2.9,2.4l0.6-0.7c0,0,0.5,2.5,2.8,2.7l2.2-2.2l-0.6,1.8c0,0,0.8,1.9,2.9,1.9c0,0,3.5-2.7,3.7-6.3l-3.5-2.9v-2.2
					l-4.1-2.9l-0.1-1.6C410,143.8,407.6,142,404.8,142z"/>
				
					<linearGradient id="SVGID_00000093171815508433098120000001236660905313732994_" gradientUnits="userSpaceOnUse" x1="228.8076" y1="159.3592" x2="228.8076" y2="129.9612" gradientTransform="matrix(-1 0 0 1 628 0)">
					<stop  offset="0" style="stop-color:#F8E8DA"/>
					<stop  offset="0.9944" style="stop-color:#AF7BB2"/>
				</linearGradient>
				<path style="opacity:0.6;fill:url(#SVGID_00000093171815508433098120000001236660905313732994_);" d="M392.7,130
					c0,0,0.6,1.6,1.5,2.2c0.9,0.6,3.4,1.1,3.4,1.1l0.1,14.3h1.7l3.7-5c0,0-1.9,2.9-2,5l1.4,0.7l1.3-4.3l0.6,3.1l-0.6,3.8
					c0,0-2.2-1.9-6.1-1.9l-0.6,1.1c0,0,7.1,5.9,8.7,9.3c0,0-3.5-4.4-11.5-9.4l-0.8-2.4l-1-5.6C392.6,142,393.5,133.9,392.7,130z"/>
				
					<linearGradient id="SVGID_00000160152066793495297490000014885080129544667571_" gradientUnits="userSpaceOnUse" x1="227.8538" y1="179.3591" x2="227.8538" y2="134.0378" gradientTransform="matrix(-1 0 0 1 628 0)">
					<stop  offset="1.598750e-02" style="stop-color:#EEC0A8"/>
					<stop  offset="1" style="stop-color:#E59393"/>
				</linearGradient>
				<path style="fill:url(#SVGID_00000160152066793495297490000014885080129544667571_);" d="M386.8,154.9c0.7,2,7.6,10.2,8.3,12
					c0.8,1.8,1.2,4.1,1.2,4.1c3.4,7.3,11.6,8.3,11.6,8.3l0.4-6.6c0,0,4.4-2.5,5.2-3.9l0,0l0.1-0.2c0.2-1.3,0-6.1,0-6.1l-7.7-3.1
					c-3.3-4.3-11.5-9.4-11.5-9.4l-0.4-2.3c5.8-2.9,4.9-11.6,3.9-12.6c-1-1.1-2.8-1.1-2.8-1.1s-2.1,7-3.5,10.3
					C390.1,147.6,386.1,153,386.8,154.9z"/>
				<path class="st26" d="M410,143.8c0,0-0.9,8-3.4,11.8c0,0,3.2-4,3.5-10.2L410,143.8z"/>
				<path class="st26" d="M414.2,148.3c0,0-0.8,6.4-4.8,10c0,0,3.5-1.7,4.8-7.8V148.3z"/>
				
					<linearGradient id="SVGID_00000173866476293163515120000001909611429570547621_" gradientUnits="userSpaceOnUse" x1="219.7489" y1="172.2866" x2="233.9987" y2="172.2866" gradientTransform="matrix(-1 0 0 1 628 0)">
					<stop  offset="1.598750e-02" style="stop-color:#C39FD2"/>
					<stop  offset="0.9944" style="stop-color:#AE87C0"/>
				</linearGradient>
				<path style="opacity:0.91;fill:url(#SVGID_00000173866476293163515120000001909611429570547621_);" d="M394,165.2
					c0,0,8.7,8.4,14.2,7.5l-0.4,6.6c0,0-9.1-0.8-12.1-10.4C395.8,169,394.7,166.2,394,165.2z"/>
			</g>
			<g>
				
					<linearGradient id="SVGID_00000130634795117079971120000015190176346605037503_" gradientUnits="userSpaceOnUse" x1="394.2801" y1="206.9644" x2="394.2801" y2="146.3585" gradientTransform="matrix(-1 0 0 1 628 0)">
					<stop  offset="1.598750e-02" style="stop-color:#EEC0A8"/>
					<stop  offset="1" style="stop-color:#E59393"/>
				</linearGradient>
				<path style="fill:url(#SVGID_00000130634795117079971120000015190176346605037503_);" d="M210.1,176.7c0,0,8,14.6,17.3,19.1h3.2
					l7.4,11.2c0,0,4.8-3,5.1-12.8c0,0-1.7-1.7-2.1-3.7c0,0,2.6-2.1,3.3-3.6c0.7-1.5,1-6.1,1.5-8c0.5-1.9,4.8-5.8,5.8-6.3
					c1-0.5,5.3-0.8,5.3-0.8s0.6-1.6,0-2.3c-0.6-0.8-7.4-3.4-11.1-0.9c0,0-0.3,1.9-0.7,2.9c-0.4,1-3.7,4.6-4.2,4.6s-2.7-1.8-3.7-3.2
					c-0.9-1.4-5.8-11.9-7-15.5c0,0,0-0.1,0-0.1c0-0.1,0-0.1,0-0.2c0,0,0-0.1,0-0.1c0,0,0,0,0,0c-0.9-3.1-6.2-9-9.1-10.6
					c0,0-1.2-0.3-1.9,1.2c0,0,2.3,6.5,4.7,10.3c0.4,0.7,0.8,1.4,1.3,2.2c0,0,0,0,0,0c2,3.7,4.3,8.6,4.6,9.3l0,0.1l-1.3,0.7l-3.4-3.3
					l-3.5-3.3l-8.1,8.5l0.8,1l2.5,3.2l-1.3,0.2l-3-3.3L210.1,176.7z"/>
				
					<linearGradient id="SVGID_00000021114772118737389030000011157261378853982130_" gradientUnits="userSpaceOnUse" x1="401.4401" y1="187.5468" x2="401.4401" y2="157.4369" gradientTransform="matrix(-1 0 0 1 628 0)">
					<stop  offset="0" style="stop-color:#F8E8DA"/>
					<stop  offset="0.9944" style="stop-color:#AF7BB2"/>
				</linearGradient>
				<path style="opacity:0.6;fill:url(#SVGID_00000021114772118737389030000011157261378853982130_);" d="M212,179.8l2.6,3.8
					c0,0,14-10.8,17.1-11.7c3-0.9,4.2-0.3,4.2-0.3l3.1,4c0,0-5.8,5.1-6.3,12c0,0,1.9-8.7,8.5-11.4c-0.5,0-2.7-1.8-3.7-3.2
					c-0.9-1.4-5.8-11.9-7-15.5c0.2,0.6,0.4,1.8-0.1,2.7c-0.7,1.3-4.8,0.1-5,0c0,0,0,0,0,0l4.7,9.3l0,0.1l-1.3,0.7l-3.4-3.3l1.7,4
					l-12.5,2.2l2.5,3.2l-1.3,0.2L212,179.8z"/>
				
					<linearGradient id="SVGID_00000049218545709813227930000015659468687251878313_" gradientUnits="userSpaceOnUse" x1="407.3801" y1="177.1542" x2="407.3801" y2="163.6565" gradientTransform="matrix(-1 0 0 1 628 0)">
					<stop  offset="0" style="stop-color:#EAADAD"/>
					<stop  offset="0.984" style="stop-color:#EEC0A8"/>
				</linearGradient>
				<path style="fill:url(#SVGID_00000049218545709813227930000015659468687251878313_);" d="M221.8,163.7c0,0-2.4-0.4-4,2.8l0.4,1
					c0,0-2.4,0.5-4.7,4.3c0,0,2,3.7,7,5.4c0,0,2.3-0.7,2.7-2.6l-0.5-1.3l1.8,1.4c0,0,2.2,0.7,3.1-2.6L221.8,163.7z"/>
				
					<linearGradient id="SVGID_00000054248621558991686680000006508434388336579989_" gradientUnits="userSpaceOnUse" x1="415.2089" y1="179.2327" x2="415.2089" y2="171.8309" gradientTransform="matrix(-1 0 0 1 628 0)">
					<stop  offset="0" style="stop-color:#EAADAD"/>
					<stop  offset="0.984" style="stop-color:#EEC0A8"/>
				</linearGradient>
				<path style="fill:url(#SVGID_00000054248621558991686680000006508434388336579989_);" d="M209.4,175.7c0,0-0.5-2.3,2-3.9
					l4.8,5.3c0,0-0.1,1.7-2.2,2.1C214,179.2,210.7,178.1,209.4,175.7z"/>
				
					<linearGradient id="SVGID_00000068667846634056907570000014496916442616167846_" gradientUnits="userSpaceOnUse" x1="383.5509" y1="193.9855" x2="397.3174" y2="193.9855" gradientTransform="matrix(-1 0 0 1 628 0)">
					<stop  offset="1.598750e-02" style="stop-color:#C39FD2"/>
					<stop  offset="0.9944" style="stop-color:#AE87C0"/>
				</linearGradient>
				<path style="opacity:0.91;fill:url(#SVGID_00000068667846634056907570000014496916442616167846_);" d="M244.4,186.8
					c0,0-5.6,6.2-13.8,8.9l3.5,5.3l7.4-9.3l-0.5-1.4C241.1,190.4,244,188.2,244.4,186.8z"/>
				<path class="st26" d="M218.1,167.5c0,0,2.3,3.9,4.7,5.8l0.5,1.3c0,0-4.5-3.1-6.2-6.6C217.1,167.9,217.6,167.5,218.1,167.5z"/>
			</g>
			<path class="st33" d="M386.8,154.9c0,0,3.7-0.8,5.3-4c1.5-3.3,0.5-8,0.5-8s-2.9,5.6-4.4,7.5C386.7,152.4,386.3,154.5,386.8,154.9
				z"/>
		</g>
		<g>
			
				<linearGradient id="SVGID_00000101090009958040059040000001594496777901099654_" gradientUnits="userSpaceOnUse" x1="301.6035" y1="171.5246" x2="301.6035" y2="142.9399" gradientTransform="matrix(-1 0 0 1 628 0)">
				<stop  offset="0" style="stop-color:#B9CBF5"/>
				<stop  offset="1" style="stop-color:#D2D4F8"/>
			</linearGradient>
			<path style="fill:url(#SVGID_00000101090009958040059040000001594496777901099654_);" d="M317.2,168.6c1.1,1.1,2.4,2,3.9,2.8
				c0,0,0.1,0,0.1,0.1c0,0,0,0,0.1-0.1l0,0c0.4-0.2,1.8-1.1,3.7-2.5c4.9-3.7,13.1-11.2,15.5-21.3c0,0,0,0,0,0
				c0.3-1.2,0.5-2.4,0.6-3.7c0,0,0,0,0,0c0-0.3,0-0.7,0.1-1c0,0-1.6,3.8-4.5,8c-3.3,4.9-8.3,10.2-14.3,10.2c-5.2,0-7.8-3.5-9.1-6.7
				c-0.6-1.4-0.9-2.7-1.1-3.7c0,0,0,0,0,0c-0.1-0.3-0.1-0.5-0.1-0.8v0c0-0.1,0-0.2,0-0.3c0-0.4-0.1-0.6-0.1-0.6
				S310,161.3,317.2,168.6z"/>
			
				<linearGradient id="SVGID_00000127020426983755272460000012556986295336123546_" gradientUnits="userSpaceOnUse" x1="286.888" y1="157.2041" x2="316.3189" y2="157.2041" gradientTransform="matrix(-1 0 0 1 628 0)">
				<stop  offset="0" style="stop-color:#C1E6FD"/>
				<stop  offset="1" style="stop-color:#5364B6"/>
			</linearGradient>
			<path style="opacity:0.5;fill:url(#SVGID_00000127020426983755272460000012556986295336123546_);" d="M317.2,168.6
				c1.1,1.1,2.4,2,3.9,2.8h0.1l0.1,0l0,0c0.4-0.2,1.8-1.1,3.7-2.5c4.9-3.7,13.1-11.2,15.5-21.3c0,0,0,0,0,0c0.3-1.2,0.5-2.4,0.6-3.7
				c0,0,0,0,0,0c0-0.3,0-0.7,0.1-1c0,0-1.6,3.8-4.5,8c0,0-3.2,8.9-10.3,13.3c-3.5,2.2-6.2,1.9-8.1,0.6c-2-1.3-3.2-3.5-4-5.2
				c-0.7-1.7-1-3.3-1-4.5c0-0.3,0-0.5,0-0.7c-0.6-1.4-0.9-2.7-1.1-3.7c0,0,0,0,0,0c-0.1-0.3-0.1-0.5-0.1-0.8v0c0-0.1,0-0.2,0-0.3
				c0-0.4-0.1-0.6-0.1-0.6S310,161.3,317.2,168.6z"/>
			
				<linearGradient id="SVGID_00000178190337214012467990000005782045718353922455_" gradientUnits="userSpaceOnUse" x1="293.1879" y1="285.7342" x2="293.1879" y2="141.6957" gradientTransform="matrix(-1 0 0 1 628 0)">
				<stop  offset="0" style="stop-color:#819FEB"/>
				<stop  offset="1" style="stop-color:#969BEA"/>
			</linearGradient>
			<path style="fill:url(#SVGID_00000178190337214012467990000005782045718353922455_);" d="M272.2,241.4c0.1,0,0.1,0.1,0.1,0.1
				c0.7,0.1,2.7-0.4,5.4-2.7l0,0c0,0,0,0,0,0c0,0,0,0,0,0c2.2-2,4.9-5.2,7.6-10.6c5.4-10.7,6.9-17.9,7.2-19.2l0-0.2l3.1,5
				c2.1,6.4,6.2,32.9,6.1,34c-0.1,1.1-3.6,6.7-3.5,7.4c0,0,0,0,0,0c0.1,0.7,1.7,2.2,2.1,3.9c0.3,1.1-1.8,4.6-3.3,7.2v0
				c-0.8,1.3-1.4,2.5-1.4,2.9c0,1.2,3.8,7.1,3.8,7.1v3.2l0.1,0.1l0.2,0.2l0.1,0.1c1.4,1.1,7.6,4.9,26.7,5.9
				c22.7,1.2,37.8-6.1,37.8-6.1l-1.1-3.1c0,0,1.1-0.9,1.1-1.4c0.1-0.5-0.8-1.5-0.8-1.5s2.3-1.2,2.3-2.7c0-1.5-4.6-6.2-4.4-10.3
				c0.2-4,3.7-7.6,4.1-9.9c0.5-2.3-5.9-7.9-5.9-7.9c5.5-17.3,6.5-40.6,6.5-40.6l1.1-1.2c0,0,6.5,14.9,12.5,22.2
				c0.7,0.9,1.5,1.7,2.2,2.6c1.7,1.8,3.4,3.5,5.1,4.9c4.1,3.6,7.8,5.9,8.8,5.7c1.5-0.3,7.6-12.3,7.3-24.6
				c-0.1-5.9-3.7-12.4-7.3-17.7c-0.4-0.6-0.8-1.1-1.2-1.7c-2.6-3.5-5.1-6.3-6.3-7.6c-0.5-0.5-0.7-0.8-0.7-0.8s0.8-2.7,1.4-5
				c0-0.1,0-0.1,0-0.2c0,0,0-0.1,0-0.1c0,0,0-0.1,0-0.1c0.3-1.4,0.5-2.7,0.4-3c-0.5-0.8-3.5-1.7-4-2.3c-0.5-0.6-2.6-10.9-4.3-12
				c-1.6-1.1-4.3-1.8-13.4-5.4c-0.4-0.2-0.9-0.4-1.4-0.5c-10.2-4.1-20.3-9-20.3-9l-3.9-4.7h-1.7l0.6,1.2l0,0
				c-0.3,1.2-0.6,2.4-0.9,3.5c0,0,0,0.1,0,0.1c-5.3,16.7-18.9,22.1-18.9,22.1c-9.5-7-9.3-18.1-9.3-18.1V149l-1.8,0.5l-1.2,2.9
				c0,0-2.1,3.2-10.2,6.8c-1.4,0.6-2.9,1.4-4.5,2.3c-7.4,4.2-15.7,10.8-16.4,12.2c-0.1,0.1-0.1,0.4-0.2,0.7v0
				c-0.9,3.4-2.7,16.3-4.3,20.9c-1,2.9-2.7,4.4-3.9,5.3c0,0,0,0,0,0c-0.9,0.6-1.6,0.8-1.6,0.8c-0.1,0.7-0.2,1.4-0.4,2.1
				C264,225.4,270.7,240.4,272.2,241.4z"/>
			
				<linearGradient id="SVGID_00000039121204315076367170000006908098828344850572_" gradientUnits="userSpaceOnUse" x1="233.4111" y1="195.9793" x2="268.4898" y2="195.9793" gradientTransform="matrix(-1 0 0 1 628 0)">
				<stop  offset="0" style="stop-color:#C1E6FD"/>
				<stop  offset="1" style="stop-color:#5364B6"/>
			</linearGradient>
			<path style="opacity:0.5;fill:url(#SVGID_00000039121204315076367170000006908098828344850572_);" d="M359.5,199.9l6.6,2.2
				l1.1-1.2c0,0,6.5,14.9,12.5,22.2c0.7,0.9,1.5,1.7,2.2,2.6c1.7,1.8,3.4,3.5,5.1,4.9l5-21.7l2.6-16.5c-2.6-3.5-5.1-6.3-6.3-7.6
				c-0.5-0.5-0.7-0.8-0.7-0.8s0.8-2.7,1.4-5c0-0.1,0-0.1,0-0.2c0,0,0-0.1,0-0.1c0,0,0-0.1,0-0.1c0.3-1.4,0.5-2.7,0.4-3
				c-0.5-0.8-3.5-1.7-4-2.3c-0.5-0.6-2.6-10.9-4.3-12c0,0,1.1,9.8-4.6,22.3l-2.7,3.9l-8,6.4C365.9,194,362.8,198,359.5,199.9z"/>
			
				<linearGradient id="SVGID_00000054252893375872567430000010848424032518079887_" gradientUnits="userSpaceOnUse" x1="232.3261" y1="236.3197" x2="232.3261" y2="168.9639" gradientTransform="matrix(-1 0 0 1 628 0)">
				<stop  offset="0" style="stop-color:#819FEB"/>
				<stop  offset="1" style="stop-color:#ADB0EF"/>
			</linearGradient>
			<path style="fill:url(#SVGID_00000054252893375872567430000010848424032518079887_);" d="M378.6,217.7
				c1.4,10.5,17.1,18.7,17.1,18.7c3.5,0,7.4-6.1,11-13.6s3.8-29.1,3.9-30.4c0.2-1.3,2.2-4,2.3-5.1c0.1-1.1-3.2-3.5-3.2-3.5l0-0.1
				l0-0.1c0.3-0.7,2.3-4.9,2.2-5.7c-0.2-0.8-3.9-2.7-3.9-2.7l-0.2,4.1c0,0-8.7-1.6-11.6-8.3l-0.5-2.1l-1.4,1v8.8
				c0,0-0.3,1.4-0.8,1.4s-3.8-1.7-4.5-1.5c-0.7,0.2-1.4,5-2.4,5.6c-0.9,0.6-3.5,2.4-3.8,3.2c-0.2,0.4-0.2,1.7-0.2,3.3
				c0,2,0,4.3-0.3,5.6C381.8,198.7,377.2,207.1,378.6,217.7z"/>
			
				<linearGradient id="SVGID_00000170255899064207110420000000536311037324987288_" gradientUnits="userSpaceOnUse" x1="348.1513" y1="216.9069" x2="393.3485" y2="216.9069" gradientTransform="matrix(-1 0 0 1 628 0)">
				<stop  offset="0" style="stop-color:#8CA7ED"/>
				<stop  offset="1" style="stop-color:#ADB0EF"/>
			</linearGradient>
			<path style="fill:url(#SVGID_00000170255899064207110420000000536311037324987288_);" d="M235,208.6c0.7,1.1,4.3,3.5,5.2,4.4
				c0.9,0.9,0,3.9,0,3.9c14.9,15.8,30.4,23.7,32,24.5c0.1,0,0.1,0.1,0.1,0.1c9.4-6.3,8.6-16.7,5.5-25.4c-3-8.4-8.1-15.3-8.3-15.6
				l0,0c0,0,0,0,0,0c-0.2-0.1-2.8-1.2-4.8-1.3c-0.6,0-1.2,0.2-1.8,0.5c-1.1,0.7-2.1,1.8-3,1.4c-1.4-0.7-4.4-7.9-6.5-8.1
				c-1.5-0.1-3.5,1.3-4.8,2.2c-0.6,0.4-1,0.6-1.3,0.6c-0.8-0.2-3.3-3.3-3.6-3.4c-0.2-0.1-1.4,0.8-1.4,0.8l0.8,1
				c-1.3,7.3-5.4,12.2-5.4,12.2l-2.8-4.1C235,202.3,234.3,207.5,235,208.6z"/>
			
				<linearGradient id="SVGID_00000179627377357018681170000017431362568765001093_" gradientUnits="userSpaceOnUse" x1="364.3923" y1="241.4982" x2="364.3923" y2="173.6598" gradientTransform="matrix(-1 0 0 1 628 0)">
				<stop  offset="0" style="stop-color:#C1E6FD"/>
				<stop  offset="1" style="stop-color:#5364B6"/>
			</linearGradient>
			<path style="opacity:0.5;fill:url(#SVGID_00000179627377357018681170000017431362568765001093_);" d="M235,208.6
				c0.7,1.1,4.3,3.5,5.2,4.4c0.9,0.9,0,3.9,0,3.9c14.9,15.8,30.4,23.7,32,24.5c0.1,0,0.1,0.1,0.1,0.1c1.2,0.2,7.2-1.5,13.1-13.4
				c5.4-10.7,6.9-17.9,7.2-19.2l0-0.2l-1.3-1.8l-1.9-21.9l-1.4,4.4c-5.2-6.2-10-15.8-10-15.8l-0.2,0.7v0c-0.9,3.4-2.7,16.3-4.3,20.9
				c-1,2.9-2.7,4.4-3.9,5.3l0,0l0,0c4.8,4.3,7.1,10.6,8.3,15.6c1.1,4.6,1.1,8.1,1.1,8.1s-1.3-6.2-5.5-13.6c-1.5-2.7-3.7-5.1-5.9-7.1
				c-1.6-1.5-3.3-2.7-4.6-3.7c-1.1,0.7-2.1,1.8-3,1.4c6.3,9.4,6.1,28,0.2,24.5c-5.9-3.5-7.2-11.1-7.2-11.1c1.4-9.2,1-19.5-0.1-21.5
				c-1.4,0-5.2,2.8-5.5,2.7c0.4,10.8-4.7,18-4.7,18l-3.3-5.2c4.9-8.2,4.5-16.2,4.5-16.2c-0.2-0.1-1.4,0.8-1.4,0.8l0.8,1
				c-1.3,7.3-5.4,12.2-5.4,12.2l-2.8-4.1C235,202.3,234.3,207.5,235,208.6z"/>
			
				<linearGradient id="SVGID_00000011748382633175314060000010106762499190159033_" gradientUnits="userSpaceOnUse" x1="215.029" y1="227.8307" x2="328.4927" y2="227.8307" gradientTransform="matrix(-1 0 0 1 628 0)">
				<stop  offset="0" style="stop-color:#C1E6FD"/>
				<stop  offset="1" style="stop-color:#5364B6"/>
			</linearGradient>
			<path style="opacity:0.5;fill:url(#SVGID_00000011748382633175314060000010106762499190159033_);" d="M299.5,276.2v3.2l0.1,0.1
				l0.2,0.2l0.1,0.1c1.4,1.1,7.6,4.9,26.7,5.9c22.7,1.2,37.8-6.1,37.8-6.1l-1.1-3.1c0,0,1.1-0.9,1.1-1.4c0.1-0.5-0.8-1.5-0.8-1.5
				s2.3-1.2,2.3-2.7c0-1.4-3.7-5.3-4.3-9.1c-0.1-0.4-0.1-0.8-0.1-1.2c0.2-4,3.6-7.6,4.1-9.8c0,0,0,0,0,0c0.5-2.3-5.9-7.9-5.9-7.9
				c5.5-17.3,6.5-40.6,6.5-40.6l1.1-1.2c0,0,6.5,14.9,12.5,22.2c5.9,7.3,14.6,13.5,16.1,13.2c3.5,0,7.4-6.1,11-13.6
				s3.8-29.1,3.9-30.4c0.2-1.3,2.2-4,2.3-5.1c-3.8,6.5-9.9,4.6-9.9,4.6c4.4,0.1,6.7-8.1,6.7-8.1l0-0.1l0-0.1l2.1-5.7
				c-0.2,0.3-5.3,5.9-10.1,2.4c-5-3.5-7.5-10.4-7.5-10.4v8.8c0,0-0.3,1.4-0.8,1.4c0.3,4.1,1.2,9,2.2,13.9
				c2.3,10.5,5.3,20.7,5.3,20.7s-8.4-4.6-11.3-16.1c-1.4-5.5-1.6-10.3-1.5-13.8c0.1-3,0.5-5,0.7-5.8c0-0.1,0-0.1,0-0.2
				c0,0,0-0.1,0-0.1c0,0,0,0,0,0l-0.8,1.7l-1.5,3.8c-1.8,14.8,1.9,37.2,1.9,37.2c-5.4-6.7-6.5-21.5-6.3-25.1
				c0.1-1.7,0.2-3.8,0.3-5.6c0.1-1.9,0.2-3.3,0.2-3.3l-11,6.6l2-6.4l-8,6.4c0,0-7.2,8.7-14.6,9.7c-7.4,1-34.6,0.4-34.6,0.4
				s23.6,1.5,30.5,3.5s8.2,4.4,8.2,4.4c-5,25.4-32.6,33.9-33.4,34.2c25-3.8,36.7-25,36.7-25s0.4,12-1.5,16.5
				c-1.9,4.6-13.3,15.7-27.9,18c-1.2,0.2-2.4,0.3-3.6,0.4c-12.3,0.6-22.5-5.7-23.6-6.4c-0.1,0-0.1-0.1-0.1-0.1s0,0,0,0
				c0.4,0.6,5.4,7.7,25.8,8.5c1.2,0,2.4,0,3.6,0c0,0,0,0,0,0c18.9-0.8,28.5-13.4,28.5-13.4s7,3.8,2.5,9.3c0,0.1-0.1,0.1-0.1,0.2
				c-1.3,1.5-4.2,3.4-7.6,5.3c-0.1,0.1-0.2,0.1-0.3,0.2c-4.1,2.3-9,4.6-12.8,6.6c0,0,0,0-0.1,0c-2.3,1.2-4.2,2.2-5.2,3c0,0,0,0,0,0
				c-1.1,0.8-1.3,1.3-0.2,1.4c5.3,0.6,25.2-3.7,26.1-2.5c0.8,1.2-1,4.4-1,4.4c-18.3,9.1-57.6,4.6-58.8,4.5
				c32.8,8.4,59.7-2.2,59.7-2.2l-0.9,3.1c0,0-14.6,5.1-31.9,5.5c-17.2,0.4-28-4-28-4L299.5,276.2z"/>
			
				<linearGradient id="SVGID_00000150811354815924468570000011039747255621821568_" gradientUnits="userSpaceOnUse" x1="315.0595" y1="208.844" x2="336.7473" y2="208.844" gradientTransform="matrix(-1 0 0 1 628 0)">
				<stop  offset="0" style="stop-color:#CAFFD5"/>
				<stop  offset="1" style="stop-color:#5364B6"/>
			</linearGradient>
			<path style="opacity:0.5;fill:url(#SVGID_00000150811354815924468570000011039747255621821568_);" d="M312.9,204
				c0,0-13.1,0.7-21.7,3l4.5,6.8C295.7,213.7,302.4,207.8,312.9,204z"/>
			
				<linearGradient id="SVGID_00000140711023722207003830000000741431416213799087_" gradientUnits="userSpaceOnUse" x1="295.3887" y1="246.9059" x2="327.2614" y2="246.9059" gradientTransform="matrix(-1 0 0 1 628 0)">
				<stop  offset="0" style="stop-color:#CAFFD5"/>
				<stop  offset="1" style="stop-color:#5364B6"/>
			</linearGradient>
			<path style="opacity:0.5;fill:url(#SVGID_00000140711023722207003830000000741431416213799087_);" d="M300.7,240
				c0,0,8.1,6.8,16.2,9.9c8,3.1,15.7,3.4,15.7,3.4s-4.6,1.4-15.9-0.5c-11.3-1.8-15.2-8-15.2-8L300.7,240z"/>
			
				<linearGradient id="SVGID_00000160178298269642922510000016547034127198770606_" gradientUnits="userSpaceOnUse" x1="296.8647" y1="261.3177" x2="330.9169" y2="261.3177" gradientTransform="matrix(-1 0 0 1 628 0)">
				<stop  offset="0" style="stop-color:#CAFFD5"/>
				<stop  offset="1" style="stop-color:#5364B6"/>
			</linearGradient>
			<path style="opacity:0.5;fill:url(#SVGID_00000160178298269642922510000016547034127198770606_);" d="M297.1,266.1L297.1,266.1
				c15.1,3.9,34.2-1.7,34.1-2.4c-0.2-0.7-5.2,0.3-17-2.1c-11.4-2.3-15.6-6.3-15.8-6.6c0.1,0.7,1.7,2.2,2.1,3.9
				C300.7,260.1,298.6,263.5,297.1,266.1z"/>
			
				<linearGradient id="SVGID_00000075135969815552533920000010831826792177612968_" gradientUnits="userSpaceOnUse" x1="267.5586" y1="225.6356" x2="267.5586" y2="187.4183" gradientTransform="matrix(-1 0 0 1 628 0)">
				<stop  offset="0" style="stop-color:#CAFFD5"/>
				<stop  offset="1" style="stop-color:#5364B6"/>
			</linearGradient>
			<path style="opacity:0.5;fill:url(#SVGID_00000075135969815552533920000010831826792177612968_);" d="M338,206
				c12.9,1.3,16.3,4.9,16.3,4.9c3.6,0.5,11.8-8.8,11.8-8.8l1.1-1.2c0,0,6.5,14.9,12.5,22.2c0.7,0.9,1.5,1.7,2.2,2.6l-0.8-1.9
				c0,0-1.4-0.7-1.8-7.9c-0.4-7.2,3-18,3.1-19.5s0.5-8.9,0.5-8.9l-11,6.6l2-6.4l-8,6.4c0,0-3.1,4.7-11.1,8.7
				C347.3,206.4,339,206.1,338,206z"/>
			
				<linearGradient id="SVGID_00000016059604902688028990000014149261918081707946_" gradientUnits="userSpaceOnUse" x1="270.6353" y1="228.8482" x2="270.6353" y2="199.8782" gradientTransform="matrix(-1 0 0 1 628 0)">
				<stop  offset="0" style="stop-color:#CAFFD5"/>
				<stop  offset="1" style="stop-color:#5364B6"/>
			</linearGradient>
			<path style="opacity:0.5;fill:url(#SVGID_00000016059604902688028990000014149261918081707946_);" d="M367.2,200.9l-7.7-1
				c0,0-3.1,2-9.2,4.5l5.1,7.6c0,0-2,10.8-7.9,16.9c0,0,15.5-8.6,17.7-15.9L367.2,200.9z"/>
			
				<linearGradient id="SVGID_00000177465636611063505960000002700416682787700624_" gradientUnits="userSpaceOnUse" x1="224.8502" y1="191.815" x2="224.8502" y2="169.9272" gradientTransform="matrix(-1 0 0 1 628 0)">
				<stop  offset="0" style="stop-color:#CAFFD5"/>
				<stop  offset="1" style="stop-color:#5364B6"/>
			</linearGradient>
			<path style="opacity:0.5;fill:url(#SVGID_00000177465636611063505960000002700416682787700624_);" d="M412,177.9l-2.2,5.8
				c0,0-2.2,7.8-6.7,8.1c-4.4,0.3-8.8-13.1-8.8-13.1v-8.8c0,0,4.7,10.1,9.8,11.3C409.2,182.3,412,177.9,412,177.9z"/>
			
				<linearGradient id="SVGID_00000033365490091233434280000002059117399487568778_" gradientUnits="userSpaceOnUse" x1="242.5621" y1="172.5402" x2="251.383" y2="172.5402" gradientTransform="matrix(-1 0 0 1 628 0)">
				<stop  offset="0" style="stop-color:#CAFFD5"/>
				<stop  offset="1" style="stop-color:#5364B6"/>
			</linearGradient>
			<path style="opacity:0.5;fill:url(#SVGID_00000033365490091233434280000002059117399487568778_);" d="M385.4,173.4
				c0,0-4,7.9-8.8,10.3c0,0,5.8-14,4.6-22.3C381.2,161.4,383.3,162.7,385.4,173.4z"/>
			
				<linearGradient id="SVGID_00000023245102575278215820000003345432235679642300_" gradientUnits="userSpaceOnUse" x1="338.4522" y1="225.6356" x2="338.4522" y2="185.0664" gradientTransform="matrix(-1 0 0 1 628 0)">
				<stop  offset="0" style="stop-color:#C1E6FD"/>
				<stop  offset="1" style="stop-color:#5364B6"/>
			</linearGradient>
			<path style="opacity:0.76;fill:url(#SVGID_00000023245102575278215820000003345432235679642300_);" d="M289.3,185.1l-1.4,4.4
				l-1.4,36.2c0,0,3.5-6.9,6-16.7l-1.3-2C291.3,207,289.1,193.3,289.3,185.1z"/>
			
				<linearGradient id="SVGID_00000106110001044679869620000016300751088777000121_" gradientUnits="userSpaceOnUse" x1="384.063" y1="216.9101" x2="384.063" y2="195.7104" gradientTransform="matrix(-1 0 0 1 628 0)">
				<stop  offset="0" style="stop-color:#C1E6FD"/>
				<stop  offset="1" style="stop-color:#5364B6"/>
			</linearGradient>
			<path style="opacity:0.5;fill:url(#SVGID_00000106110001044679869620000016300751088777000121_);" d="M247.3,195.7
				c0,0,0.8,17.8-6.8,19.3l-0.4,1.9C240.1,216.9,249.9,216.5,247.3,195.7z"/>
			
				<linearGradient id="SVGID_00000020368958770761210320000010381123439444353190_" gradientUnits="userSpaceOnUse" x1="360.02" y1="215.9629" x2="360.02" y2="199.7561" gradientTransform="matrix(-1 0 0 1 628 0)">
				<stop  offset="0" style="stop-color:#C1E6FD"/>
				<stop  offset="1" style="stop-color:#5364B6"/>
			</linearGradient>
			<path style="opacity:0.3;fill:url(#SVGID_00000020368958770761210320000010381123439444353190_);" d="M259.9,201.1
				c0,0,0.3,0.6,3-1.4c0,0,9.5,6.7,13.2,16.2c0,0-5.9-8.7-9-9.7c-3.1-0.9-3.9,2.5-3.9,2.5S262,203.9,259.9,201.1z"/>
			
				<linearGradient id="SVGID_00000145772949438604874990000000481265409158187652_" gradientUnits="userSpaceOnUse" x1="220.2686" y1="193.2122" x2="220.2686" y2="187.1936" gradientTransform="matrix(-1 0 0 1 628 0)">
				<stop  offset="0" style="stop-color:#CAFFD5"/>
				<stop  offset="1" style="stop-color:#5364B6"/>
			</linearGradient>
			<path style="opacity:0.5;fill:url(#SVGID_00000145772949438604874990000000481265409158187652_);" d="M413,187.2
				c0,0-3.7,6.7-10.5,4.6c0,0,4.1,2.8,8.2,0.5C410.7,192.3,413.2,188,413,187.2z"/>
			
				<linearGradient id="SVGID_00000091730907774113341270000016855617603904498563_" gradientUnits="userSpaceOnUse" x1="236.346" y1="211.5615" x2="236.346" y2="178.6687" gradientTransform="matrix(-1 0 0 1 628 0)">
				<stop  offset="0" style="stop-color:#C1E6FD"/>
				<stop  offset="1" style="stop-color:#5364B6"/>
			</linearGradient>
			<path style="opacity:0.5;fill:url(#SVGID_00000091730907774113341270000016855617603904498563_);" d="M389,178.7
				c0,0-5,18.8,8.1,32.9c0,0-8.5-4.4-10.4-14.5C384.8,187,389,178.7,389,178.7z"/>
			
				<linearGradient id="SVGID_00000072981908719913430760000003463582859691397006_" gradientUnits="userSpaceOnUse" x1="320.9709" y1="188.409" x2="320.9709" y2="163.6565" gradientTransform="matrix(-1 0 0 1 628 0)">
				<stop  offset="0" style="stop-color:#CAFFD5"/>
				<stop  offset="1" style="stop-color:#5364B6"/>
			</linearGradient>
			<path style="opacity:0.5;fill:url(#SVGID_00000072981908719913430760000003463582859691397006_);" d="M299,163.7
				c0,0,0.6,8.5,4.6,14.6c4.1,6.1,12.1,10.2,12.1,10.2s-10.1-3.7-14.8-9C296.4,174.2,299,163.7,299,163.7z"/>
			
				<linearGradient id="SVGID_00000117668921414406755260000009135496107442589362_" gradientUnits="userSpaceOnUse" x1="288.5429" y1="185.063" x2="288.5429" y2="150.8998" gradientTransform="matrix(-1 0 0 1 628 0)">
				<stop  offset="0" style="stop-color:#CAFFD5"/>
				<stop  offset="1" style="stop-color:#5364B6"/>
			</linearGradient>
			<path style="opacity:0.5;fill:url(#SVGID_00000117668921414406755260000009135496107442589362_);" d="M350.8,150.9
				c0,0,0,7.1-2.3,14.3c-2.3,7.2-22.1,19.8-22.1,19.8s20.4-8.5,24.4-16.1C354.7,161.3,350.8,150.9,350.8,150.9z"/>
			
				<linearGradient id="SVGID_00000124851832873442855040000003741795913020242870_" gradientUnits="userSpaceOnUse" x1="281.9272" y1="158.3841" x2="319.0608" y2="158.3841" gradientTransform="matrix(-1 0 0 1 628 0)">
				<stop  offset="0" style="stop-color:#C1E6FD"/>
				<stop  offset="1" style="stop-color:#5364B6"/>
			</linearGradient>
			<path style="opacity:0.5;fill:url(#SVGID_00000124851832873442855040000003741795913020242870_);" d="M308.9,152.4
				c0.6,7.5,2.9,12.7,5.3,16.2c3.3,4.8,7,6.5,7,6.5c3.6-1.6,6.7-3.5,9.4-5.7c11.4-9.2,15.1-21.8,15.4-22.9
				c-4.8,11.7-11.9,18.7-17.3,22.7c-4.3,3.2-7.6,4.4-7.6,4.4v-3.7c0.9-0.3,1.7-0.7,2.5-1.1c9.5-4.8,14.4-14.7,16.8-21.2c0,0,0,0,0,0
				c1.3-3.5,1.7-5.9,1.7-5.9h-1.7l0.6,1.2l0,0c-0.3,1.2-0.6,2.4-0.9,3.5c0,0,0,0.1,0,0.1c-5.3,16.7-18.9,22.1-18.9,22.1
				c-9.5-7-9.3-18.1-9.3-18.1V149l-1.8,0.5L308.9,152.4z"/>
			
				<linearGradient id="SVGID_00000169527790776600531000000014606363443056139175_" gradientUnits="userSpaceOnUse" x1="377.3871" y1="214.493" x2="377.3871" y2="193.0031" gradientTransform="matrix(-1 0 0 1 628 0)">
				<stop  offset="0" style="stop-color:#C1E6FD"/>
				<stop  offset="1" style="stop-color:#5364B6"/>
			</linearGradient>
			<path style="opacity:0.3;fill:url(#SVGID_00000169527790776600531000000014606363443056139175_);" d="M252.7,193
				c0,0,2.6,8.4,0.1,21.5c0,0-1.2-16.6-2.1-18c-0.9-1.4-3.5-0.8-3.5-0.8S251.3,193.5,252.7,193z"/>
			
				<linearGradient id="SVGID_00000181767610458046419250000005259537157719346857_" gradientUnits="userSpaceOnUse" x1="347.0113" y1="238.7359" x2="347.0113" y2="173.6598" gradientTransform="matrix(-1 0 0 1 628 0)">
				<stop  offset="0" style="stop-color:#C1E6FD"/>
				<stop  offset="1" style="stop-color:#5364B6"/>
			</linearGradient>
			<path style="opacity:0.5;fill:url(#SVGID_00000181767610458046419250000005259537157719346857_);" d="M277.7,238.7
				c2.2-2,4.9-5.2,7.6-10.6c5.4-10.7,6.9-17.9,7.2-19.2l-1.3-2l-1.7-16.5l-1.6-1c0,0-5.7-6.3-10-15.8c-0.1,0.1-0.1,0.4-0.2,0.7v0
				c-0.9,3.4-2.7,16.3-4.3,20.9c-1,2.9-2.7,4.4-3.9,5.3c0,0,9.9,14.7,10.4,25.1C280.2,235.2,278.1,238.3,277.7,238.7z"/>
			
				<linearGradient id="SVGID_00000055686370544782945790000002744088763198234247_" gradientUnits="userSpaceOnUse" x1="277.0467" y1="269.3033" x2="277.0467" y2="250.6482" gradientTransform="matrix(-1 0 0 1 628 0)">
				<stop  offset="0" style="stop-color:#C1E6FD"/>
				<stop  offset="1" style="stop-color:#5364B6"/>
			</linearGradient>
			<path style="opacity:0.5;fill:url(#SVGID_00000055686370544782945790000002744088763198234247_);" d="M336.4,269.3
				c0,0,17.8-2.9,25.1-7.6c0,0,0,0,0,0c-0.1-0.4-0.1-0.8-0.1-1.2c0.2-4,3.6-7.6,4.1-9.8c-0.1,0.2-0.6,1.4-3.1,3.6
				c-1.6,1.4-4,3.1-7.6,5.3c-0.1,0.1-0.2,0.1-0.3,0.2c-5.1,3-9.6,5.1-12.8,6.6c0,0,0,0-0.1,0C338.8,267.6,336.9,268.5,336.4,269.3
				C336.4,269.3,336.4,269.3,336.4,269.3z"/>
			
				<linearGradient id="SVGID_00000019656306435651955690000005639523830584524417_" gradientUnits="userSpaceOnUse" x1="313.2852" y1="264.1788" x2="313.2852" y2="255.1193" gradientTransform="matrix(-1 0 0 1 628 0)">
				<stop  offset="0" style="stop-color:#C1E6FD"/>
				<stop  offset="1" style="stop-color:#5364B6"/>
			</linearGradient>
			<path style="opacity:0.5;fill:url(#SVGID_00000019656306435651955690000005639523830584524417_);" d="M298.3,255.1
				c0.1,0.7,1.7,2.2,2.1,3.9c0,0,6.5,6.9,30.7,4.8c-0.2-0.7-5.2,0.3-17-2.1C302.7,259.4,298.5,255.4,298.3,255.1z"/>
		</g>
		<path class="st61" d="M294.3,161.5l15.5,5l4.5,2.1l0,0l2.9,0l4,0l2.5,0.2l1.3,0.1l3.7,0.3l1.9,0.2l18.5-6.7l3.3-1.2l15.3-5.5
			c-0.4-0.2-0.9-0.4-1.4-0.5c-10.2-4.1-20.3-9-20.3-9l-3.9-4.7h-1.7c-1.5-3.4-2.6-6.5-3.2-9l-1-4.6c-0.1-0.4-0.1-0.7-0.1-0.7
			l-5.5,2.9l-18.4,14.7c0,1,0,1.9-0.1,2.7l-0.3,1.9c0-0.4-0.1-0.6-0.1-0.6l-1.8,0.5l-1.2,2.9c0,0-2.1,3.2-10.2,6.8
			C297.3,159.8,295.8,160.6,294.3,161.5z"/>
		<g>
			
				<linearGradient id="SVGID_00000008863947187128313980000011025437484190852740_" gradientUnits="userSpaceOnUse" x1="312.8859" y1="147.7336" x2="312.8859" y2="85.7584" gradientTransform="matrix(-1 0 0 1 628 0)">
				<stop  offset="1.598750e-02" style="stop-color:#EEC0A8"/>
				<stop  offset="1" style="stop-color:#E59393"/>
			</linearGradient>
			<path style="fill:url(#SVGID_00000008863947187128313980000011025437484190852740_);" d="M306,147.4c0,0,7.2,1.6,15.2-2.2
				c8-3.9,14.6-15.2,15.1-18c0.4-2.8-3-10.2-3-16c0-5.8,2.8-15.7-1.9-21.1c-4.8-5.4-26.7-6.2-33.8,0.7c0,0-2.2,5.5-2.2,8.6
				c0,0.8,0.1,1.9,0.3,3.1c0.1,0.5,0.2,1,0.2,1.5c0.6,3.8,1.5,8.4,1.1,10.4c-0.1,0.7-0.4,1.4-0.6,2v0c-0.9,2-2.2,3.6-2.4,5.4
				C293.6,124.1,296.7,140.3,306,147.4z"/>
			
				<linearGradient id="SVGID_00000164514771622906242250000001969466791482087861_" gradientUnits="userSpaceOnUse" x1="289.7822" y1="122.7253" x2="289.7822" y2="104.4535" gradientTransform="matrix(-1 0 0 1 628 0)">
				<stop  offset="1.598750e-02" style="stop-color:#EEC0A8"/>
				<stop  offset="1" style="stop-color:#E59393"/>
			</linearGradient>
			<path style="fill:url(#SVGID_00000164514771622906242250000001969466791482087861_);" d="M333.3,109.5c0,0,2-4.9,6.9-5
				c0,0,2.9,1.1,3.3,3.3c0,0-1.1,8-2.3,11.7c-1.2,3.7-5.7,3.2-5.7,3.2S331.7,116.8,333.3,109.5z"/>
			
				<linearGradient id="SVGID_00000119816478441488548810000015047391708985962678_" gradientUnits="userSpaceOnUse" x1="321.5" y1="129.6351" x2="322.2661" y2="125.6462" gradientTransform="matrix(-1 0 0 1 628 0)">
				<stop  offset="0" style="stop-color:#C56169"/>
				<stop  offset="1" style="stop-color:#E38681"/>
			</linearGradient>
			<path style="fill:url(#SVGID_00000119816478441488548810000015047391708985962678_);" d="M314.3,125.7c0,0-1.6-0.1-2.4,0.4
				c-0.7,0.5-3.3,3-6.6,3.7c-3.3,0.7-5.5-2.1-6.2-2.2c-0.7-0.1-1.5,0.8-1.5,0.8s0.3-1.1,2-1.7c0,0,0.7,2.6,5.4,1.7
				c4.7-0.9,6.8-3,6.8-3l0.2-0.4C312.2,125.1,313.5,125.4,314.3,125.7z"/>
			
				<linearGradient id="SVGID_00000026849396134400243650000000076157576604362120_" gradientUnits="userSpaceOnUse" x1="314.5845" y1="126.5831" x2="314.5845" y2="86.6586" gradientTransform="matrix(-1 0 0 1 628 0)">
				<stop  offset="0" style="stop-color:#F8E8DA"/>
				<stop  offset="0.9944" style="stop-color:#AF7BB2"/>
			</linearGradient>
			<path style="opacity:0.6;fill:url(#SVGID_00000026849396134400243650000000076157576604362120_);" d="M321.3,101.2l-0.1-0.5
				c0,0-4.7-8.3-14.1-8.5c-9.4-0.2-11.5,5.6-11.5,5.6l-1.7-2.6l3.9-8l27.5-0.5l6.7,5.4l0.8,13.2l-3,17.4l-7.2,3.9l-2-1.8
				c0.8-5.8,5.1-11.2,5.1-11.2l-3.2-2.2c0,0-8.1,3.9-12.8,2.8c0,0-3.5-10.3-3.3-18C306.4,96.2,318.5,98,321.3,101.2z"/>
			
				<linearGradient id="SVGID_00000098911430857636235780000013164086625152760449_" gradientUnits="userSpaceOnUse" x1="306.3046" y1="98.4585" x2="321.9892" y2="98.4585" gradientTransform="matrix(-1 0 0 1 628 0)">
				<stop  offset="5.586590e-03" style="stop-color:#58224F"/>
				<stop  offset="1" style="stop-color:#80394F"/>
			</linearGradient>
			<path style="fill:url(#SVGID_00000098911430857636235780000013164086625152760449_);" d="M321.7,101.8c0,0-0.5-3-5.5-4.2
				c-5.6-1.3-10.2-2.5-10.2-2.5s1,3.3,2.9,4.5c0,0,5.9-0.2,9,0.5C320.8,100.8,321.7,101.8,321.7,101.8z"/>
			
				<linearGradient id="SVGID_00000023240965820714512030000007616286284559389873_" gradientUnits="userSpaceOnUse" x1="327.5438" y1="101.4908" x2="332.6977" y2="101.4908" gradientTransform="matrix(-1 0 0 1 628 0)">
				<stop  offset="5.586590e-03" style="stop-color:#58224F"/>
				<stop  offset="1" style="stop-color:#80394F"/>
			</linearGradient>
			<path style="fill:url(#SVGID_00000023240965820714512030000007616286284559389873_);" d="M295.7,97.8c0,0,2.9,2.2,4.8,7.4
				c0,0-1.9-2.4-3.6-2.4c-1.2,0-1,1.2-1,1.2S294.7,100.9,295.7,97.8z"/>
			
				<linearGradient id="SVGID_00000070081658922047135170000005629315655328673180_" gradientUnits="userSpaceOnUse" x1="312.6387" y1="110.233" x2="312.6387" y2="102.3242" gradientTransform="matrix(-1 0 0 1 628 0)">
				<stop  offset="0" style="stop-color:#B66073"/>
				<stop  offset="1" style="stop-color:#D67170"/>
			</linearGradient>
			<path style="fill:url(#SVGID_00000070081658922047135170000005629315655328673180_);" d="M319.8,110.2c0,0-0.3-6.3-6.5-7.9
				c0,0-2.2,2.9-2.4,6.1C310.9,108.4,314.2,107.8,319.8,110.2z"/>
			
				<linearGradient id="SVGID_00000070098374484512248090000009130491133153996441_" gradientUnits="userSpaceOnUse" x1="328.4137" y1="112.7427" x2="328.4137" y2="105.8604" gradientTransform="matrix(-1 0 0 1 628 0)">
				<stop  offset="0" style="stop-color:#B66073"/>
				<stop  offset="1" style="stop-color:#E2807E"/>
			</linearGradient>
			<path style="fill:url(#SVGID_00000070098374484512248090000009130491133153996441_);" d="M302.2,112.7c0,0-0.5-5-3.4-6.9
				c0,0-2,1.5-1.8,5.7C297,111.5,298.7,110.9,302.2,112.7z"/>
			<path class="st70" d="M319.8,110.2c0,0-2,2.5-7.6,2.9c0,0-1.1-1.6-1-4.8C311.2,108.4,316.4,107.9,319.8,110.2z"/>
			<path class="st70" d="M302.2,112.7v0.7c0,0-0.9,1.8-4,2.1c0,0-1-1.6-1.1-4.1C297.1,111.5,299.1,111,302.2,112.7z"/>
			<path class="st71" d="M313.8,108.2c0,0,1.4,1.7,1.3,4.5c0,0-1.9,0.4-2.9,0.5c0,0-1.2-1.7-1-4.8
				C311.2,108.4,312.9,108,313.8,108.2z"/>
			<path class="st71" d="M299.2,111.6c0,0,0.8,0.9,1,3.5c0,0-1.1,0.5-2,0.5c0,0-1.1-1.6-1.1-4.1
				C297.1,111.5,297.9,111.2,299.2,111.6z"/>
			<path class="st72" d="M314.3,112.9c0,0,0.5-3.4-1.4-4.7l-1.6,0.2c0,0-0.5,2.7,1,4.8C312.2,113.2,313.8,113,314.3,112.9z"/>
			<path class="st72" d="M298.5,111.4c0,0,0.7,1.5,1.1,3.9c0,0-0.6,0.2-1.4,0.3c0,0-1.1-1.3-1.1-4.1
				C297.1,111.5,298,111.3,298.5,111.4z"/>
			<path class="st73" d="M319.8,110.2c0,0-3.7-2.2-10.1-0.9l1.2-0.9C310.9,108.4,315.4,107,319.8,110.2z"/>
			<path class="st73" d="M302.2,112.7c0,0-3-1.6-6.5-0.7l1.4-1.1C297.1,110.9,299.5,110.6,302.2,112.7z"/>
			<path class="st12" d="M315.8,110.2c0,0-1-0.2-1.9,0.7C313.9,110.9,315.1,111.3,315.8,110.2z"/>
			<path class="st12" d="M300.8,113.2c0,0-1.6-0.3-2.1,0.4C298.7,113.6,299.5,114.2,300.8,113.2z"/>
			<path class="st74" d="M319.4,110.6c0,0-2.9,2.9-7.5,3.5l-0.1-1.7l0.4,0.7C312.2,113.2,316.7,112.9,319.4,110.6z"/>
			<path class="st74" d="M302.2,113.5c0,0-0.5,1.9-4.3,2.7l0.1-0.9l0.2,0.3C298.2,115.6,300.9,115.2,302.2,113.5z"/>
			<path class="st75" d="M309.7,120.9c0,0-1.4-0.3-4,0c-2.6,0.3-5.5,1-7.1,0c0,0,2.1,2.1,3.9,2.4c1.8,0.3,4.6-1.3,4.6-1.3l1.2,0
				C308.4,122,309.4,121.6,309.7,120.9z"/>
			<path class="st76" d="M308.3,122c0,0-0.6-0.4-1.2-0.3c-0.5,0.1-1.1,0.9-1.1,0.9S307.1,122,308.3,122z"/>
			<path class="st33" d="M298.7,120.9c-0.7-0.7,2.8-6.9,4.5-7.1c1.7-0.2,3.2,7,3.2,7s-2.3,0.3-4.6,0.6
				C299.6,121.7,298.7,120.9,298.7,120.9z"/>
			
				<linearGradient id="SVGID_00000153705421224587895440000014140517957465745804_" gradientUnits="userSpaceOnUse" x1="329.0614" y1="116.7473" x2="329.0614" y2="101.2603" gradientTransform="matrix(-1 0 0 1 628 0)">
				<stop  offset="0" style="stop-color:#F8E8DA"/>
				<stop  offset="0.9944" style="stop-color:#AF7BB2"/>
			</linearGradient>
			<path style="opacity:0.6;fill:url(#SVGID_00000153705421224587895440000014140517957465745804_);" d="M296.2,101.3
				c0.9-0.1,4.3,3.9,4.3,3.9s2.1,6.6,1.7,8.5c-0.4,2-5.6,3-5.6,3l-0.2-0.3v0c0.3-0.6,0.5-1.3,0.6-2c0.4-2-0.5-6.6-1.1-10.4
				c0,0-0.2-0.8-0.2-1.5C295.6,101.9,295.7,101.3,296.2,101.3z"/>
			
				<linearGradient id="SVGID_00000128478439495426122500000005037987894618154117_" gradientUnits="userSpaceOnUse" x1="313.7177" y1="148.513" x2="313.7177" y2="73.3526" gradientTransform="matrix(-1 0 0 1 628 0)">
				<stop  offset="5.586590e-03" style="stop-color:#58224F"/>
				<stop  offset="1" style="stop-color:#80394F"/>
			</linearGradient>
			<path style="fill:url(#SVGID_00000128478439495426122500000005037987894618154117_);" d="M294.5,126.3c0.1,0.8,2.7,17,10.2,21.9
				c0,0,0,0,0,0s6.8,1.7,17.1-2.2c0,0,11.6-6.7,14.4-17.8c0,0,0.7-2.6-0.7-5.5c0,0-2-0.8-2.8-5.9c-1-5.7,2-9.6,2-9.6
				s-0.4-3.1,0.5-6.6c0.9-3.5,2.6-6.9,1.9-9.4c-0.8-2.5-7.1-4.1-10-6.4c-0.5-0.4-0.9-0.8-1.3-1.2c0,0,0,0,0,0c0,0,0,0,0,0
				c-0.4-0.4-0.7-0.8-1-1.2l-0.3-0.4l-0.3-0.4c-0.9-1-1.9-2-4.1-3c-4.4-2-7.5-2.4-10.7-5.2c0,0,0,0,0,0s-0.2,2.9,0.9,5.4
				c0,0-9.7-2.2-12-2.2c-2.3,0-3,7.3-3,7.3l0,0c-0.2,0.2-2.9,3.9-3.9,6.4c-0.5,1.4,4.2,10.9,4.2,10.9s-0.5-4.6,2.4-8.7l1.1,1
				c0,0,0-0.1,0.1-0.3c0.4-0.8,2-3.4,4.7-4.1c0,0,0,0.5,8.6-0.4c8.6-0.9,12.1-1.4,14.1,0.6c2.1,2,1.3,6.6-0.6,8.2
				c0,0,5.2,5.6,5.1,13.4c-0.1,7.5-5.8,13.1-8.3,14.1c-0.1,0-0.2,0.1-0.3,0.1c-2.2,0.6-3.4-3.4-16.5-1.7c-9.3,1.2-8.6,2.4-9.7,4.6
				C296,128.6,294.6,126.5,294.5,126.3z M297.1,131.2c-0.1-3.5,2.4-4.6,2.8-4.4c0.4,0.2,1.8,0.9,5.6,0.7c3.8-0.2,6.3-2.4,6.3-2.4
				s4.9,0.5,6.3,4.5c1.4,3.9-5.1,6.6-6.3,6.5c-1.2-0.1-4.3-3.5-4.3-3.5s-3.3-0.2-3.9,0.4c-0.6,0.6-1,5.2-2.8,5.5
				C299.1,138.7,297.2,133.6,297.1,131.2z"/>
			<path class="st79" d="M301.4,115.1c0,0-3.3,4.1-3,5.6c0.3,1.7,4.1,2.6,4.1,2.6s-3-1-3.7-2.6C298.9,120.7,299.7,117.7,301.4,115.1
				z"/>
			
				<linearGradient id="SVGID_00000046305049669905002340000010128428708441665152_" gradientUnits="userSpaceOnUse" x1="333.4588" y1="101.1827" x2="333.4588" y2="83.844" gradientTransform="matrix(-1 0 0 1 628 0)">
				<stop  offset="0" style="stop-color:#F8E8DA"/>
				<stop  offset="0.9944" style="stop-color:#7D60C2"/>
			</linearGradient>
			<path style="opacity:0.6;fill:url(#SVGID_00000046305049669905002340000010128428708441665152_);" d="M295.5,101.2
				c0,0-0.5-4.6,2.4-8.7c-2.3-4.1-2.7-8.6-2.7-8.6l0,0c-0.8,1.9-1.2,5.7-1.2,5.7l-2.6,0.7C290.8,91.6,295.5,101.2,295.5,101.2z"/>
			
				<linearGradient id="SVGID_00000102539135372863367390000001913557490315741862_" gradientUnits="userSpaceOnUse" x1="309.8312" y1="148.513" x2="309.8312" y2="73.3526" gradientTransform="matrix(-1 0 0 1 628 0)">
				<stop  offset="0" style="stop-color:#C7C0D8"/>
				<stop  offset="0.9944" style="stop-color:#7D60C2"/>
			</linearGradient>
			<path style="opacity:0.6;fill:url(#SVGID_00000102539135372863367390000001913557490315741862_);" d="M299,93.2
				c0.4-0.8,2-3.4,4.7-4.1c0,0,0,0.5,8.6-0.4c8.6-0.9,12.1-1.4,14.1,0.6c2.1,2,1.3,6.6-0.6,8.2c0,0,5.2,5.6,5.1,13.4
				c-0.1,7.5-5.8,13.1-8.3,14.1l0.1,0.8c0,0-0.4,17.3-4.6,18.6c-4.2,1.4-12.9,0.7-13.7,1.5c-0.8,0.8,0.1,2.1,0.2,2.2c0,0,0,0,0,0
				s6.8,1.7,17.1-2.2c0,0,11.6-6.7,14.4-17.8c0,0,0.7-2.6-0.7-5.5c0,0-2-0.8-2.8-5.9c-1-5.7,2-9.6,2-9.6s-0.4-3.1,0.5-6.6
				c0.9-3.5,2.6-6.9,1.9-9.4c-4.9,0.8-8.1-1.8-8.1-1.8s-0.9-1.2-4.6-1.8c-3.8-0.6-18.9,0.9-18.9,0.9s1.5-1.3,4.7-2.1
				c3-0.8,13.3,0.1,14.4,0.2c-1.2-0.2-12.9-2.2-14.2-1.8c-1.4,0.4-6.5,2.7-6.5,2.7c0.5-2.3,5-7.9,5-7.9s6.4,0.1,10.6,1
				c3.7,0.8,5.8,2.5,6.2,2.8l-1-1.2l-0.3-0.4l-0.3-0.4l-1.5-0.2l-7.3-3c-2.5-1.3-5.6-4.6-6-5c0,0,0,0,0,0s-0.2,2.9,0.9,5.4
				c-6.2-0.8-8.3-0.4-8.3-0.4C299.1,82.4,299,93.2,299,93.2z"/>
			
				<linearGradient id="SVGID_00000110444115429075969140000014984510861233840540_" gradientUnits="userSpaceOnUse" x1="314.8709" y1="148.4952" x2="314.8709" y2="145.266" gradientTransform="matrix(-1 0 0 1 628 0)">
				<stop  offset="0" style="stop-color:#746D7C"/>
				<stop  offset="1" style="stop-color:#8E68BD"/>
			</linearGradient>
			<path style="opacity:0.5;fill:url(#SVGID_00000110444115429075969140000014984510861233840540_);" d="M321.9,146
				c0,0-3.8-0.9-9.5-0.7c-5.7,0.2-9,0.3-7.6,2.8C304.7,148.1,311.9,149.8,321.9,146z"/>
			<path class="st83" d="M301.9,78.4c0,0-3.5-1.4-4.9-1.1c0,0,0.5-0.7,1.1-0.9c0.6-0.2,12,2.4,12,2.4S303.1,77.9,301.9,78.4z"/>
			<path class="st83" d="M309,79.7c0,0,0.3,3.8,1.5,5.2l14.2,1.8l4.2-0.7c0,0-1.6-0.7-3.4-2.8C323.7,81.1,314.4,79.1,309,79.7z"/>
			<path class="st83" d="M295.2,83.8c0,0-1.2,3.7-1.2,5.7l-2.6,0.7C291.3,90.2,292.1,87.4,295.2,83.8z"/>
			
				<linearGradient id="SVGID_00000103963986749229623590000007557546933443787455_" gradientUnits="userSpaceOnUse" x1="292.4431" y1="118.3947" x2="284.2589" y2="108.3679" gradientTransform="matrix(-1 0 0 1 628 0)">
				<stop  offset="0" style="stop-color:#F8E8DA"/>
				<stop  offset="0.9944" style="stop-color:#9C60EF"/>
			</linearGradient>
			<path style="opacity:0.8;fill:url(#SVGID_00000103963986749229623590000007557546933443787455_);" d="M333.9,116.2
				c0,0,1-4.8,3.4-7.2c2.4-2.4,5.2-1.6,5.2-1.6s-0.8,8.9-1.6,11.1c-0.8,2.2-2,2.7-2,2.7s1.7-1.5,1.9-4.4c0.2-2.9,0.3-7.1-0.3-7.6
				c-0.6-0.5-3.3,1.4-3.3,1.4s0.8,1,1.3,3.6c0.5,2.6-1.3,4.5-2,4.5c-0.7,0,0-3-0.1-3.9C336.4,114,334.9,114.1,333.9,116.2z"/>
			
				<linearGradient id="SVGID_00000008868364298721750220000016263034702709818262_" gradientUnits="userSpaceOnUse" x1="293.2999" y1="117.1032" x2="289.273" y2="112.1697" gradientTransform="matrix(-1 0 0 1 628 0)">
				<stop  offset="0" style="stop-color:#F8E8DA"/>
				<stop  offset="0.9944" style="stop-color:#9C60EF"/>
			</linearGradient>
			<path style="opacity:0.8;fill:url(#SVGID_00000008868364298721750220000016263034702709818262_);" d="M336.3,110.2
				c0,0,2.7,1.8,2.4,5.4c-0.3,3.6-2.3,3.4-2.4,2.7c0-0.8,0.4-2.7,0.2-3.8c-0.2-1.1-2-0.6-2-0.6S335.7,111,336.3,110.2z"/>
			<path class="st83" d="M319.4,86.3c0,0-4.1,1.4-8.5,1.8c-4.4,0.4-5.4,0.5-5.4,0.5s1.8-1.7,5.6-2.3C315,85.7,319.4,86.3,319.4,86.3
				z"/>
			
				<linearGradient id="SVGID_00000050633323499566833620000006647409641406789819_" gradientUnits="userSpaceOnUse" x1="328.1374" y1="128.7308" x2="332.3413" y2="128.7308" gradientTransform="matrix(-1 0 0 1 628 0)">
				<stop  offset="5.586590e-03" style="stop-color:#58224F"/>
				<stop  offset="1" style="stop-color:#AD6375"/>
			</linearGradient>
			<path style="fill:url(#SVGID_00000050633323499566833620000006647409641406789819_);" d="M299.8,126.6c0,0-1.9,0-2.7,2.4
				c-0.6,1.9-0.8,3.6-0.8,3.6l-0.7-2.7c0,0,0.9-3.4,1.8-4.1c0.7-0.5,1.8-1.1,2.4-1L299.8,126.6z"/>
			
				<linearGradient id="SVGID_00000101079042115318335770000007658431177146256773_" gradientUnits="userSpaceOnUse" x1="322.9472" y1="125.6049" x2="327.4814" y2="125.6049" gradientTransform="matrix(-1 0 0 1 628 0)">
				<stop  offset="5.586590e-03" style="stop-color:#58224F"/>
				<stop  offset="1" style="stop-color:#AD6375"/>
			</linearGradient>
			<path style="fill:url(#SVGID_00000101079042115318335770000007658431177146256773_);" d="M305.1,124.1l-0.3,2.9
				c0,0-2.4,0.2-3.9-0.5l-0.3-1.7C300.5,124.8,303.5,124.1,305.1,124.1z"/>
		</g>
	</g>
	<g style="clip-path:url(#SVGID_00000130637747986749887250000007720000898031824290_);">
		<path class="st88" d="M271.7,137.9l-2.6,73.7c-0.1,2.9-2.5,5.2-5.4,5.2H136.8c-2.9,0-5.4-2.4-5.4-5.3l-1.8-74.5
			c-0.1-3.1,2.4-5.6,5.5-5.6l131.3,0.9C269.4,132.3,271.8,134.9,271.7,137.9z"/>
		<g>
			<path class="st89" d="M131.1,211.6l-1.8-74.5c0-1.5,0.5-3,1.6-4.1c1.1-1.1,2.5-1.7,4.1-1.7l131.3,0.9c1.5,0,3,0.6,4,1.7
				c1.1,1.1,1.6,2.6,1.6,4.1l-2.6,73.7c-0.1,3-2.6,5.4-5.6,5.4H136.8C133.7,217.1,131.2,214.7,131.1,211.6z M131.3,133.2
				c-1,1-1.5,2.4-1.5,3.8l1.8,74.5c0.1,2.8,2.4,5.1,5.2,5.1h126.9c2.8,0,5.1-2.2,5.2-5l2.6-73.7c0.1-1.4-0.5-2.8-1.5-3.8
				c-1-1-2.3-1.6-3.7-1.6L135,131.7c0,0,0,0,0,0C133.6,131.7,132.3,132.2,131.3,133.2z"/>
		</g>
		
			<linearGradient id="SVGID_00000112595926153825072010000014889372961913126539_" gradientUnits="userSpaceOnUse" x1="356.3918" y1="136.6035" x2="498.5192" y2="136.6035" gradientTransform="matrix(-1 0 0 1 628 0)">
			<stop  offset="0" style="stop-color:#8E68BD"/>
			<stop  offset="1" style="stop-color:#B1C0FC"/>
		</linearGradient>
		<path style="opacity:0.6;fill:url(#SVGID_00000112595926153825072010000014889372961913126539_);" d="M271.5,141.7H129.7l-0.2-3.9
			c-0.2-3.4,2.5-6.3,6-6.3l131.2,1c2.7,0,4.9,2.3,4.9,5L271.5,141.7z"/>
		
			<linearGradient id="SVGID_00000155863016013969181810000006921831513244520878_" gradientUnits="userSpaceOnUse" x1="385.304" y1="190.2837" x2="385.304" y2="147.417" gradientTransform="matrix(-1 0 0 1 628 0)">
			<stop  offset="0" style="stop-color:#D4EBFD"/>
			<stop  offset="1" style="stop-color:#8E68BD"/>
		</linearGradient>
		<polygon style="opacity:0.3;fill:url(#SVGID_00000155863016013969181810000006921831513244520878_);" points="264.4,147.6 
			264.4,190.3 221,190.3 221,147.4 		"/>
		
			<linearGradient id="SVGID_00000155105584731576822120000006032231219622302143_" gradientUnits="userSpaceOnUse" x1="458.3983" y1="169.3841" x2="458.3983" y2="150.5022" gradientTransform="matrix(-1 0 0 1 628 0)">
			<stop  offset="0" style="stop-color:#D4EBFD"/>
			<stop  offset="1" style="stop-color:#8E68BD"/>
		</linearGradient>
		<polygon style="opacity:0.3;fill:url(#SVGID_00000155105584731576822120000006032231219622302143_);" points="160.2,169.4 
			179,169.4 179,150.5 160.2,150.5 		"/>
		
			<linearGradient id="SVGID_00000173136799849213090640000016482228760577421746_" gradientUnits="userSpaceOnUse" x1="480.6764" y1="169.3841" x2="480.6764" y2="150.5022" gradientTransform="matrix(-1 0 0 1 628 0)">
			<stop  offset="0" style="stop-color:#D4EBFD"/>
			<stop  offset="1" style="stop-color:#8E68BD"/>
		</linearGradient>
		<polygon style="opacity:0.3;fill:url(#SVGID_00000173136799849213090640000016482228760577421746_);" points="137.9,169.4 
			156.8,169.4 156.8,150.5 137.9,150.5 		"/>
		
			<linearGradient id="SVGID_00000004510073978384811500000006022160570794591157_" gradientUnits="userSpaceOnUse" x1="435.7479" y1="169.3841" x2="435.7479" y2="150.5022" gradientTransform="matrix(-1 0 0 1 628 0)">
			<stop  offset="0" style="stop-color:#D4EBFD"/>
			<stop  offset="1" style="stop-color:#8E68BD"/>
		</linearGradient>
		<polygon style="opacity:0.3;fill:url(#SVGID_00000004510073978384811500000006022160570794591157_);" points="182.8,169.4 
			201.7,169.4 201.7,150.5 182.8,150.5 		"/>
		
			<rect x="137.9" y="180.4" transform="matrix(-1 -1.224647e-16 1.224647e-16 -1 324.0513 365.3097)" class="st95" width="48.3" height="4.5"/>
		
			<rect x="137.9" y="187.3" transform="matrix(-1 -1.224647e-16 1.224647e-16 -1 336.1278 375.9528)" class="st95" width="60.4" height="1.4"/>
		
			<rect x="186.1" y="171.8" transform="matrix(-1 -1.224647e-16 1.224647e-16 -1 383.8049 344.9836)" class="st95" width="11.5" height="1.4"/>
		
			<rect x="163.8" y="171.8" transform="matrix(-1 -1.224647e-16 1.224647e-16 -1 339.2034 344.9836)" class="st95" width="11.5" height="1.4"/>
		
			<rect x="141.5" y="171.8" transform="matrix(-1 -1.224647e-16 1.224647e-16 -1 294.6472 344.9836)" class="st95" width="11.5" height="1.4"/>
		
			<rect x="182.3" y="189.6" transform="matrix(-1 -1.224647e-16 1.224647e-16 -1 383.9685 380.5023)" class="st95" width="19.4" height="1.4"/>
		
			<rect x="137.9" y="191.8" transform="matrix(-1 -1.224647e-16 1.224647e-16 -1 336.1278 384.9989)" class="st95" width="60.4" height="1.4"/>
		
			<rect x="137.9" y="194" transform="matrix(-1 -1.224647e-16 1.224647e-16 -1 339.5757 389.4956)" class="st95" width="63.8" height="1.4"/>
		
			<rect x="137.9" y="196.3" transform="matrix(-1 -1.224647e-16 1.224647e-16 -1 339.5757 393.9922)" class="st95" width="63.8" height="1.4"/>
		
			<rect x="137.9" y="205.4" transform="matrix(-1 -1.224647e-16 1.224647e-16 -1 336.1278 412.1711)" class="st95" width="60.4" height="1.4"/>
		
			<rect x="137.9" y="207.6" transform="matrix(-1 -1.224647e-16 1.224647e-16 -1 339.5757 416.6678)" class="st95" width="63.8" height="1.4"/>
		
			<rect x="137.9" y="209.9" transform="matrix(-1 -1.224647e-16 1.224647e-16 -1 339.5757 421.1644)" class="st95" width="63.8" height="1.4"/>
		
			<rect x="140.4" y="198.5" transform="matrix(-1 -1.224647e-16 1.224647e-16 -1 342.1428 398.4889)" class="st95" width="61.2" height="1.4"/>
		
			<rect x="137.9" y="200.8" transform="matrix(-1 -1.224647e-16 1.224647e-16 -1 336.1278 402.9855)" class="st95" width="60.4" height="1.4"/>
		
			<rect x="150" y="203" transform="matrix(-1 -1.224647e-16 1.224647e-16 -1 351.6867 407.4822)" class="st95" width="51.7" height="1.4"/>
		<g>
			<path class="st96" d="M239.9,169.4c0-6.8,5.5-12.3,12.3-12.3c6.8,0,12.3,5.5,12.3,12.3s-5.5,12.3-12.3,12.3
				C245.4,181.7,239.9,176.2,239.9,169.4z M240.7,169.4c0,6.4,5.2,11.5,11.5,11.5c6.4,0,11.5-5.2,11.5-11.5
				c0-6.4-5.2-11.5-11.5-11.5C245.9,157.8,240.7,163,240.7,169.4z"/>
		</g>
		<circle class="st12" cx="252.2" cy="169.4" r="6.7"/>
		<g>
			<path class="st96" d="M208.6,147.4c0-6.8,5.5-12.3,12.3-12.3c6.8,0,12.3,5.5,12.3,12.3s-5.5,12.3-12.3,12.3
				C214.2,159.8,208.6,154.2,208.6,147.4z M209.4,147.4c0,6.4,5.2,11.5,11.5,11.5c6.4,0,11.5-5.2,11.5-11.5
				c0-6.4-5.2-11.5-11.5-11.5C214.6,135.9,209.4,141.1,209.4,147.4z"/>
		</g>
		
			<ellipse transform="matrix(0.9867 -0.1628 0.1628 0.9867 -21.0542 37.9507)" class="st12" cx="221" cy="147.4" rx="6.3" ry="6.3"/>
		<g>
			<polygon class="st12" points="266.6,135.9 265.7,134.5 260.8,138.8 261.5,139.9 			"/>
			<polygon class="st12" points="260.7,135.9 261.6,134.5 266.4,138.8 265.7,139.9 			"/>
		</g>
		
			<rect x="133.1" y="135.5" transform="matrix(-1 -1.224647e-16 1.224647e-16 -1 310.0001 273.1303)" class="st12" width="43.7" height="2.2"/>
	</g>
	<g style="clip-path:url(#SVGID_00000130637747986749887250000007720000898031824290_);">
		
			<linearGradient id="SVGID_00000034784757584005427920000017382090662878217878_" gradientUnits="userSpaceOnUse" x1="232.6711" y1="122.9903" x2="232.6711" y2="103.2259" gradientTransform="matrix(-1 0 0 1 628 0)">
			<stop  offset="0" style="stop-color:#BB3FDD"/>
			<stop  offset="1" style="stop-color:#E06DB5"/>
		</linearGradient>
		<polygon style="fill:url(#SVGID_00000034784757584005427920000017382090662878217878_);" points="406.8,103.8 406.8,122.8 
			384.1,123 383.8,103.2 		"/>
		
			<linearGradient id="SVGID_00000111191153667942613150000007596691915718795947_" gradientUnits="userSpaceOnUse" x1="244.7518" y1="122.9903" x2="244.7518" y2="103.2259" gradientTransform="matrix(-1 0 0 1 628 0)">
			<stop  offset="0" style="stop-color:#8D44E4"/>
			<stop  offset="1" style="stop-color:#D9187B"/>
		</linearGradient>
		<polygon style="fill:url(#SVGID_00000111191153667942613150000007596691915718795947_);" points="383.8,103.2 382.4,105.7 
			383.1,123 384.1,123 		"/>
		<polygon class="st12" points="402.8,110.2 400.7,107.2 389.4,116.7 391.1,119 		"/>
		<polygon class="st12" points="389.1,110.2 391.2,107.2 402.5,116.7 400.7,119 		"/>
	</g>
	<g style="clip-path:url(#SVGID_00000130637747986749887250000007720000898031824290_);">
		
			<linearGradient id="SVGID_00000109006440499654914380000003213649961115878316_" gradientUnits="userSpaceOnUse" x1="229.2415" y1="331.2006" x2="239.9296" y2="246.1015" gradientTransform="matrix(-1 0 0 1 628 0)">
			<stop  offset="0" style="stop-color:#DA0ED4"/>
			<stop  offset="1" style="stop-color:#6A3A9B"/>
		</linearGradient>
		<path style="opacity:0.81;fill:url(#SVGID_00000109006440499654914380000003213649961115878316_);" d="M353.9,327h77.6
			c3.5,0,6.3-2.8,6.4-6.2l1.4-63.7c0.1-3.6-2.8-6.5-6.4-6.5h-80.8c-3.6,0-6.5,3-6.4,6.5l1.7,63.7C347.6,324.3,350.5,327,353.9,327z"
			/>
		<g>
			<path class="st100" d="M347.4,320.9l-1.7-63.7c0-1.8,0.6-3.5,1.9-4.8c1.2-1.3,2.9-2,4.7-2H433c1.8,0,3.4,0.7,4.7,2
				c1.2,1.3,1.9,3,1.9,4.7l-1.4,63.7c-0.1,3.5-3,6.4-6.6,6.4h-77.6C350.3,327.2,347.5,324.4,347.4,320.9z M352.2,250.9
				c-1.7,0-3.2,0.7-4.4,1.9c-1.2,1.2-1.8,2.8-1.7,4.5l1.7,63.7c0.1,3.4,2.8,6,6.2,6h77.6c3.3,0,6.1-2.7,6.2-6l1.4-63.7
				c0-1.7-0.6-3.2-1.8-4.4c-1.2-1.2-2.7-1.9-4.4-1.9H352.2z"/>
		</g>
		<g>
			
				<rect x="377.6" y="263.7" transform="matrix(-1 -1.224647e-16 1.224647e-16 -1 795.989 529.1132)" class="st12" width="40.8" height="1.7"/>
			
				<rect x="398" y="267.9" transform="matrix(-1 -1.224647e-16 1.224647e-16 -1 816.3979 537.6149)" class="st12" width="20.4" height="1.7"/>
			
				<rect x="398" y="271.5" transform="matrix(-1 -1.224647e-16 1.224647e-16 -1 816.3979 544.7126)" class="st12" width="20.4" height="1.7"/>
			
				<rect x="379.5" y="271.5" transform="matrix(-1 -1.224647e-16 1.224647e-16 -1 775.1726 544.7126)" class="st12" width="16.2" height="1.7"/>
			
				<rect x="385.5" y="275" transform="matrix(-1 -1.224647e-16 1.224647e-16 -1 803.9041 551.8103)" class="st12" width="32.9" height="1.7"/>
			
				<rect x="406.7" y="278.6" transform="matrix(-1 -1.224647e-16 1.224647e-16 -1 825.0958 558.908)" class="st12" width="11.7" height="1.7"/>
			
				<rect x="384" y="289.2" transform="matrix(-1 -1.224647e-16 1.224647e-16 -1 788.3145 580.201)" class="st12" width="20.3" height="1.7"/>
			
				<rect x="381.7" y="282.1" transform="matrix(-1 -1.224647e-16 1.224647e-16 -1 800.1017 566.0057)" class="st12" width="36.7" height="1.7"/>
			
				<rect x="390.2" y="285.7" transform="matrix(-1 -1.224647e-16 1.224647e-16 -1 808.5682 573.1033)" class="st12" width="28.2" height="1.7"/>
			
				<rect x="405.1" y="289.2" transform="matrix(-1 -1.224647e-16 1.224647e-16 -1 823.5241 580.201)" class="st12" width="13.3" height="1.7"/>
			
				<rect x="398" y="292.8" transform="matrix(-1 -1.224647e-16 1.224647e-16 -1 816.3979 587.2987)" class="st12" width="20.4" height="1.7"/>
			
				<rect x="412.5" y="296.3" transform="matrix(-1 -1.224647e-16 1.224647e-16 -1 830.9514 594.3965)" class="st12" width="5.9" height="1.7"/>
			
				<rect x="388.9" y="296.3" transform="matrix(-1 -1.224647e-16 1.224647e-16 -1 799.037 594.3965)" class="st12" width="21.2" height="1.7"/>
			
				<rect x="384" y="299.8" transform="matrix(-1 -1.224647e-16 1.224647e-16 -1 788.3145 601.2844)" class="st12" width="20.3" height="1.7"/>
			
				<rect x="405.1" y="299.8" transform="matrix(-1 -1.224647e-16 1.224647e-16 -1 823.5241 601.2844)" class="st12" width="13.3" height="1.7"/>
			
				<rect x="398" y="303.3" transform="matrix(-1 -1.224647e-16 1.224647e-16 -1 816.3979 608.3821)" class="st12" width="20.4" height="1.7"/>
			
				<rect x="412.5" y="306.9" transform="matrix(-1 -1.224647e-16 1.224647e-16 -1 830.9514 615.4798)" class="st12" width="5.9" height="1.7"/>
			
				<rect x="388.9" y="306.9" transform="matrix(-1 -1.224647e-16 1.224647e-16 -1 799.037 615.4798)" class="st12" width="21.2" height="1.7"/>
		</g>
	</g>
	
		<linearGradient id="SVGID_00000065053424062321073520000006076858162089974162_" gradientUnits="userSpaceOnUse" x1="478.7682" y1="120.8398" x2="478.7682" y2="113.6658" gradientTransform="matrix(-1 0 0 1 628 0)">
		<stop  offset="0" style="stop-color:#699DFB"/>
		<stop  offset="1" style="stop-color:#986DFA"/>
	</linearGradient>
	
		<path style="clip-path:url(#SVGID_00000130637747986749887250000007720000898031824290_);fill:url(#SVGID_00000065053424062321073520000006076858162089974162_);" d="
		M145.6,117.3c0,2,1.6,3.6,3.6,3.6c2,0,3.6-1.6,3.6-3.6s-1.6-3.6-3.6-3.6C147.3,113.7,145.6,115.3,145.6,117.3z"/>
	
		<linearGradient id="SVGID_00000163050223524861263050000004704679920599095192_" gradientUnits="userSpaceOnUse" x1="141.6333" y1="204.9081" x2="141.6333" y2="195.9793" gradientTransform="matrix(-1 0 0 1 628 0)">
		<stop  offset="0" style="stop-color:#699DFB"/>
		<stop  offset="1" style="stop-color:#986DFA"/>
	</linearGradient>
	
		<path style="clip-path:url(#SVGID_00000130637747986749887250000007720000898031824290_);fill:url(#SVGID_00000163050223524861263050000004704679920599095192_);" d="
		M481.9,200.4c0,2.5,2,4.5,4.5,4.5c2.5,0,4.5-2,4.5-4.5s-2-4.5-4.5-4.5C483.9,196,481.9,198,481.9,200.4z"/>
	
		<linearGradient id="SVGID_00000107581098156461649810000006393046137366517664_" gradientUnits="userSpaceOnUse" x1="489.3039" y1="120.8398" x2="489.3039" y2="113.6658" gradientTransform="matrix(-1 0 0 1 628 0)">
		<stop  offset="0" style="stop-color:#98208A"/>
		<stop  offset="1" style="stop-color:#D9187B"/>
	</linearGradient>
	
		<circle style="clip-path:url(#SVGID_00000130637747986749887250000007720000898031824290_);fill:url(#SVGID_00000107581098156461649810000006393046137366517664_);" cx="138.7" cy="117.3" r="3.6"/>
	
		<linearGradient id="SVGID_00000144325363163276585950000016018751501955499451_" gradientUnits="userSpaceOnUse" x1="257.9849" y1="144.4535" x2="257.9849" y2="139.3807" gradientTransform="matrix(-1 0 0 1 628 0)">
		<stop  offset="0" style="stop-color:#98208A"/>
		<stop  offset="1" style="stop-color:#D9187B"/>
	</linearGradient>
	
		<circle style="clip-path:url(#SVGID_00000130637747986749887250000007720000898031824290_);fill:url(#SVGID_00000144325363163276585950000016018751501955499451_);" cx="370" cy="141.9" r="2.5"/>
	
		<linearGradient id="SVGID_00000047052294607896751520000001445293059718289290_" gradientUnits="userSpaceOnUse" x1="427.8848" y1="256.3821" x2="427.8848" y2="251.3093" gradientTransform="matrix(-1 0 0 1 628 0)">
		<stop  offset="0" style="stop-color:#77449B"/>
		<stop  offset="1" style="stop-color:#6057BB"/>
	</linearGradient>
	
		<circle style="clip-path:url(#SVGID_00000130637747986749887250000007720000898031824290_);fill:url(#SVGID_00000047052294607896751520000001445293059718289290_);" cx="200.1" cy="253.8" r="2.5"/>
	
		<linearGradient id="SVGID_00000098927773614725979890000010800104043809704621_" gradientUnits="userSpaceOnUse" x1="164.1756" y1="281.4023" x2="164.1756" y2="276.8673" gradientTransform="matrix(-1 0 0 1 628 0)">
		<stop  offset="0" style="stop-color:#77449B"/>
		<stop  offset="1" style="stop-color:#6057BB"/>
	</linearGradient>
	
		<circle style="clip-path:url(#SVGID_00000130637747986749887250000007720000898031824290_);fill:url(#SVGID_00000098927773614725979890000010800104043809704621_);" cx="463.8" cy="279.1" r="2.3"/>
	<g style="clip-path:url(#SVGID_00000130637747986749887250000007720000898031824290_);">
		
			<linearGradient id="SVGID_00000137814226936354841840000015999992498158207910_" gradientUnits="userSpaceOnUse" x1="183.2038" y1="256.8703" x2="183.2038" y2="219.4136" gradientTransform="matrix(-1 0 0 1 628 0)">
			<stop  offset="0" style="stop-color:#4A81DE"/>
			<stop  offset="1" style="stop-color:#98E0FD"/>
		</linearGradient>
		<path style="opacity:0.73;fill:url(#SVGID_00000137814226936354841840000015999992498158207910_);" d="M425.2,256.9h39.2
			c3.2,0,5.7-2.5,5.8-5.6l0.9-25.8c0.1-3.3-2.5-6-5.8-6h-40.8c-3.3,0-5.9,2.7-5.8,6l0.8,25.8C419.4,254.4,422,256.9,425.2,256.9z"/>
		<g>
			<path class="st108" d="M419.1,251.2l-0.8-25.8c-0.1-1.6,0.6-3.2,1.7-4.4c1.1-1.2,2.7-1.8,4.3-1.8h40.8c1.7,0,3.2,0.7,4.3,1.8
				c1.1,1.2,1.8,2.8,1.7,4.4l-0.9,25.8c-0.1,3.3-2.8,5.8-6,5.8h-39.2C421.9,257.1,419.2,254.5,419.1,251.2z M424.4,219.6
				c-1.5,0-3,0.6-4.1,1.7c-1.1,1.1-1.6,2.6-1.6,4.1l0.8,25.8c0.1,3.1,2.6,5.5,5.6,5.5h39.2c3.1,0,5.5-2.4,5.6-5.5l0.9-25.8
				c0.1-1.5-0.5-3-1.6-4.1c-1.1-1.1-2.5-1.7-4.1-1.7H424.4z"/>
		</g>
		<g>
			<polygon class="st12" points="453.9,228.7 463.6,239.9 453.7,248.2 453.7,243.9 459.4,239 454.1,233 			"/>
		</g>
		<g>
			<polygon class="st12" points="436.9,229.2 427.3,240.4 437.1,248.7 437.1,244.4 431.4,239.5 437.7,232.8 			"/>
		</g>
		<g>
			<polygon class="st12" points="451.8,248.2 443.4,229.7 439.4,229.7 449,248.2 			"/>
		</g>
	</g>
	<g style="clip-path:url(#SVGID_00000130637747986749887250000007720000898031824290_);">
		
			<linearGradient id="SVGID_00000077295694409967200170000017039475917792209807_" gradientUnits="userSpaceOnUse" x1="441.8313" y1="309.8897" x2="441.8313" y2="263.0319" gradientTransform="matrix(-1 0 0 1 628 0)">
			<stop  offset="0" style="stop-color:#4A81DE"/>
			<stop  offset="1" style="stop-color:#98E0FD"/>
		</linearGradient>
		<path style="opacity:0.73;fill:url(#SVGID_00000077295694409967200170000017039475917792209807_);" d="M161.6,309.9h49
			c3.9,0,7.2-3.1,7.3-7.1l1.1-32.2c0.1-4.1-3.2-7.6-7.3-7.6h-51.1c-4.1,0-7.4,3.4-7.3,7.5l1,32.2
			C154.4,306.7,157.7,309.9,161.6,309.9z"/>
		<g>
			<path class="st108" d="M154.1,302.8l-1-32.2c-0.1-2,0.7-4,2.1-5.5c1.4-1.5,3.3-2.3,5.4-2.3h51.1c2.1,0,4,0.8,5.4,2.3
				c1.4,1.5,2.2,3.4,2.1,5.5l-1.1,32.2c-0.1,4.1-3.4,7.3-7.5,7.3h-49C157.5,310.1,154.2,306.9,154.1,302.8z M160.6,263.2
				c-1.9,0-3.8,0.8-5.1,2.2c-1.4,1.4-2.1,3.2-2,5.2l1,32.2c0.1,3.9,3.2,6.9,7.1,6.9h49c3.9,0,7-3,7.1-6.9l1.1-32.2
				c0.1-1.9-0.6-3.8-2-5.2c-1.4-1.4-3.2-2.2-5.1-2.2H160.6z"/>
		</g>
		
			<rect x="164.3" y="268.2" transform="matrix(-1 -1.224647e-16 1.224647e-16 -1 373.5144 563.096)" class="st95" width="44.9" height="26.7"/>
		<polygon class="st12" points="190.7,274.8 190.7,288.3 179.3,280.9 		"/>
		
			<rect x="164.3" y="299.8" transform="matrix(-1 -1.224647e-16 1.224647e-16 -1 373.5144 602.0139)" class="st95" width="44.9" height="2.4"/>
		<rect x="197.6" y="299.8" class="st12" width="11.6" height="2.4"/>
	</g>
	<g style="clip-path:url(#SVGID_00000130637747986749887250000007720000898031824290_);">
		<g>
			
				<linearGradient id="SVGID_00000001622703726441018740000014453783072061015179_" gradientUnits="userSpaceOnUse" x1="393.644" y1="248.0208" x2="389.6514" y2="213.752" gradientTransform="matrix(-0.9656 0.26 0.26 0.9656 562.5851 -58.149)">
				<stop  offset="0" style="stop-color:#34539B"/>
				<stop  offset="1" style="stop-color:#477DCE"/>
			</linearGradient>
			<path style="fill-rule:evenodd;clip-rule:evenodd;fill:url(#SVGID_00000001622703726441018740000014453783072061015179_);" d="
				M244.4,266.5l-2.3-6.7C241.3,260.4,243.1,262.8,244.4,266.5z M246.8,273.2l-2.3-6.7C245.7,270.2,246.2,273,246.8,273.2z
				 M244.4,266.5l-2.3-6.7C241.3,260.4,243.1,262.8,244.4,266.5z M246.8,273.2l-2.3-6.7C245.7,270.2,246.2,273,246.8,273.2z
				 M238.1,273.1c0.6,0.9,1.2,1.8,1.9,2.6l-1.1,3.1l4.7,3.6l0.5-3.5c1,0.4,2,0.7,2.9,0.7l0.4,1.6l0.7,2.4l4.2-1.6l-1.6-3.7
				c0.7-0.6,1.3-1.4,1.8-2.4l2.6,2.5l1.3-5.9l-2.8-1.7c0-1.3-0.1-2.7-0.3-4.1l2.6-0.4l-2.5-6.7l-2.3,1.3c-0.7-1.3-1.5-2.4-2.3-3.4
				l1.1-3.1l-4.7-3.6l-0.5,3.5c-1-0.4-1.9-0.7-2.9-0.7l-1-3.8l0,0l-4.3,1.4l1.6,3.7c-0.2,0.1-0.3,0.3-0.5,0.4c-0.5,0.6-1,1.2-1.3,2
				l-2.6-2.5l-1.3,5.9l2.8,1.7c0,1.1,0,2.2,0.2,3.3c0,0.2,0.1,0.5,0.1,0.7l-2.6,0.4l2.5,6.7l2.3-1.3
				C237.8,272.6,237.9,272.8,238.1,273.1z M242.1,259.8c2.3-0.8,5.3,1.5,6.6,5.2c1.3,3.7,0.4,7.4-1.9,8.2c-2.3,0.8-1-3-2.3-6.7
				C243.1,262.8,239.7,260.6,242.1,259.8z M244.4,266.5l-2.3-6.7C241.3,260.4,243.1,262.8,244.4,266.5z M246.8,273.2l-2.3-6.7
				C245.7,270.2,246.2,273,246.8,273.2z"/>
		</g>
		
			<linearGradient id="SVGID_00000057833717683459208120000015026960846618831271_" gradientUnits="userSpaceOnUse" x1="389.7737" y1="248.1506" x2="389.7737" y2="213.0362" gradientTransform="matrix(-0.9656 0.26 0.26 0.9656 562.5851 -58.149)">
			<stop  offset="0" style="stop-color:#34539B"/>
			<stop  offset="1" style="stop-color:#477DCE"/>
		</linearGradient>
		<path style="fill-rule:evenodd;clip-rule:evenodd;fill:url(#SVGID_00000057833717683459208120000015026960846618831271_);" d="
			M238.1,273.1l3.7,2.3l-2.9,3.4l4.7,3.6l3.8-1.2l2.2-0.7l-0.6,1.2l-1,1.9l6.1-2l4.2-1.6l-1.4-3.2l4.2-0.5l-2.2-8l-4.4-12.3l1.4-3.9
			l-4.7-3.6l-3.7,1.7l-0.8-2.9l-4.2,1.6l-1.8,0.6l-4.3,1.4l2.1,4.3l1.1-2.7l-6.1,2l-0.9,5.7l2.8,1.4l0.3,3.7l-0.4,0.2l-2.5,1.2
			l2.5,6.7L238.1,273.1z M246.8,273.2l-2.3-6.7l-2.3-6.7c2.3-0.8,5.3,1.5,6.6,5.2C250,268.7,249.1,272.4,246.8,273.2z"/>
		<g>
			
				<linearGradient id="SVGID_00000026146183674504863810000007866896762095972795_" gradientUnits="userSpaceOnUse" x1="351.0072" y1="274.9532" x2="348.4247" y2="252.7871" gradientTransform="matrix(-0.9438 0.3306 0.5202 1.4851 443.2763 -242.9682)">
				<stop  offset="0" style="stop-color:#528BBD"/>
				<stop  offset="1" style="stop-color:#6CBDE4"/>
			</linearGradient>
			<path style="fill-rule:evenodd;clip-rule:evenodd;fill:url(#SVGID_00000026146183674504863810000007866896762095972795_);" d="
				M243.7,270.3c0.7,1.3,1.5,2.4,2.3,3.4l-1.1,3.1l4.7,3.6l0.5-3.5c1,0.4,1.9,0.7,2.9,0.7l1.1,4l4.2-1.6l-1.6-3.7
				c0.7-0.6,1.3-1.4,1.8-2.4l2.6,2.5l1.3-5.9l-2.8-1.7c0-1.3-0.1-2.7-0.4-4.1l2.6-0.4l-2.5-6.7l-2.3,1.3c-0.7-1.3-1.5-2.4-2.3-3.4
				l1.1-3.1l-4.7-3.6l-0.5,3.5c-1-0.4-1.9-0.7-2.9-0.7l-1.1-4l-4.2,1.6l1.6,3.7c-0.7,0.6-1.3,1.4-1.8,2.4l-2.6-2.5l-1.3,5.9l2.8,1.7
				c0,1.3,0.1,2.7,0.4,4.1l-2.6,0.4l2.5,6.7L243.7,270.3z M246.2,266c-1.3-3.7-0.4-7.4,1.9-8.2c2.4-0.8,5.3,1.5,6.6,5.2
				c1.3,3.7,0.4,7.4-1.9,8.2C250.5,272,247.5,269.7,246.2,266z"/>
		</g>
		<polygon class="st113" points="232.5,260.6 238.5,258.7 241.3,260.4 235.2,262.4 		"/>
		<polygon class="st114" points="238.9,278.8 244.9,276.8 246,273.7 240,275.7 		"/>
		<polygon class="st113" points="244.2,252.9 240.9,253.8 239.8,252.8 237.6,253.5 236.5,251.1 242.6,249.1 		"/>
		<path class="st113" d="M253,277.5l-3.2,1.3l0.3-2C250.1,276.9,251.8,277.8,253,277.5z"/>
		<path class="st113" d="M252.5,259.4l-5.3,2.8c0,0-0.8-1-1.4-1.5C245.8,260.8,247.2,254.9,252.5,259.4z"/>
	</g>
	<polygon style="clip-path:url(#SVGID_00000130637747986749887250000007720000898031824290_);fill:#DA2297;" points="375.2,59.6 
		370,69.9 373.5,71.4 378.3,62 	"/>
	<polygon style="clip-path:url(#SVGID_00000130637747986749887250000007720000898031824290_);fill:#6C76FA;" points="491.1,299.8 
		486.4,305.1 484.5,302.9 489,298 	"/>
	<polygon style="clip-path:url(#SVGID_00000130637747986749887250000007720000898031824290_);fill:#4934DA;" points="248.9,122.5 
		253.7,125.4 255.6,121.8 250.4,118.7 	"/>
	<polygon style="clip-path:url(#SVGID_00000130637747986749887250000007720000898031824290_);fill:#4934DA;" points="225.2,306.9 
		232.1,311.8 234,308.1 227.4,304.2 	"/>
	<g style="clip-path:url(#SVGID_00000130637747986749887250000007720000898031824290_);">
		
			<linearGradient id="SVGID_00000006679753262118187420000002736197701031091642_" gradientUnits="userSpaceOnUse" x1="405.0004" y1="100.6027" x2="414.0964" y2="66.8218" gradientTransform="matrix(-1 0 0 1 628 0)">
			<stop  offset="0" style="stop-color:#528BBD"/>
			<stop  offset="1" style="stop-color:#6CBDE4"/>
		</linearGradient>
		
			<polygon style="fill-rule:evenodd;clip-rule:evenodd;fill:url(#SVGID_00000006679753262118187420000002736197701031091642_);" points="
			234.3,97.6 235.5,70.5 200.1,70.5 201.6,97.5 		"/>
		
			<linearGradient id="SVGID_00000066501763488245863950000003553849406581663379_" gradientUnits="userSpaceOnUse" x1="389.3654" y1="96.7057" x2="396.1485" y2="71.5146" gradientTransform="matrix(-1 0 0 1 628 0)">
			<stop  offset="0" style="stop-color:#34539B"/>
			<stop  offset="1" style="stop-color:#477DCE"/>
		</linearGradient>
		
			<polygon style="fill-rule:evenodd;clip-rule:evenodd;fill:url(#SVGID_00000066501763488245863950000003553849406581663379_);" points="
			235.5,70.5 236.6,72.1 235.5,97.6 234.3,97.6 		"/>
		<polygon class="st12" points="223.7,75.9 229.3,75.3 228.5,93.8 223.7,93.4 223.7,91.5 226.5,91.5 226.8,77.3 223.7,77.3 		"/>
		<polygon class="st12" points="212.4,75.9 206.8,75.3 207.6,93.8 212.4,93.4 212.4,91.5 209.6,91.5 209.3,77.3 212.4,77.3 		"/>
	</g>
	<g style="clip-path:url(#SVGID_00000130637747986749887250000007720000898031824290_);">
		
			<linearGradient id="SVGID_00000100382663761131934620000017646191356020972417_" gradientUnits="userSpaceOnUse" x1="92.6407" y1="158.7781" x2="98.8416" y2="135.7489" gradientTransform="matrix(1 0 0 1 393.3441 0)">
			<stop  offset="0" style="stop-color:#528BBD"/>
			<stop  offset="1" style="stop-color:#6CBDE4"/>
		</linearGradient>
		
			<polygon style="fill-rule:evenodd;clip-rule:evenodd;fill:url(#SVGID_00000100382663761131934620000017646191356020972417_);" points="
			478.3,156.7 477.5,138.3 501.6,138.3 500.6,156.6 		"/>
		
			<linearGradient id="SVGID_00000145040965237285165760000000065830006039241103_" gradientUnits="userSpaceOnUse" x1="81.9819" y1="156.1214" x2="86.6061" y2="138.9481" gradientTransform="matrix(1 0 0 1 393.3441 0)">
			<stop  offset="0" style="stop-color:#34539B"/>
			<stop  offset="1" style="stop-color:#477DCE"/>
		</linearGradient>
		
			<polygon style="fill-rule:evenodd;clip-rule:evenodd;fill:url(#SVGID_00000145040965237285165760000000065830006039241103_);" points="
			477.5,138.3 476.7,139.4 477.5,156.7 478.3,156.7 		"/>
		<path class="st12" d="M486.8,142c0,0-2.6-0.1-3.1,0.1c-0.5,0.2,0.1,4.5,0.1,4.5l-1.1,1l1,1c0,0-0.1,4.4,0.6,4.7
			c0.6,0.4,2.7,0,2.7,0v-1.1c0,0-1.7,0.1-2-0.1c-0.3-0.2-0.3-4-0.3-4l-0.5-0.5l0.5-0.6c0,0-0.1-2.7,0-3.5c0-0.5,2.1-0.5,2.1-0.5V142
			z"/>
		<path class="st12" d="M492.8,142c0,0,2.6-0.1,3.1,0.1c0.5,0.2-0.1,4.5-0.1,4.5l1.1,1l-1,1c0,0,0.1,4.4-0.6,4.7
			c-0.6,0.4-2.7,0-2.7,0v-1.1c0,0,1.7,0.1,2-0.1c0.3-0.2,0.3-4,0.3-4l0.5-0.5l-0.5-0.6c0,0,0.1-2.7,0-3.5c0-0.5-2.1-0.5-2.1-0.5V142
			z"/>
	</g>
	<g style="clip-path:url(#SVGID_00000130637747986749887250000007720000898031824290_);">
		<g>
			<path class="st122" d="M265.4,87.7l15.3-3.2l-5.9,15.5L265.4,87.7z M266.1,88l8.6,11.2l5.4-14.1L266.1,88z"/>
		</g>
		<g>
			
				<rect x="229.8" y="311.2" transform="matrix(0.8065 -0.5912 0.5912 0.8065 -142.1022 197.0326)" class="st122" width="0.4" height="8.8"/>
		</g>
		<g>
			<polygon class="st122" points="281.1,254 286.7,247 286.4,246.8 280.8,253.7 			"/>
		</g>
		<g>
			<polygon class="st122" points="453.2,302.7 464.3,294.6 464.1,294.3 453,302.4 			"/>
		</g>
		<g>
			
				<rect x="458.4" y="291.6" transform="matrix(0.7955 -0.606 0.606 0.7955 -87.0928 338.971)" class="st122" width="0.4" height="13.8"/>
		</g>
		<g>
			
				<rect x="470.6" y="182" transform="matrix(0.8852 -0.4651 0.4651 0.8852 -30.2917 241.6929)" class="st122" width="8.1" height="0.4"/>
		</g>
		<g>
			<polygon class="st122" points="194.3,87.2 194.6,86.9 186.3,77.4 186,77.7 			"/>
		</g>
		<g>
			
				<rect x="350.2" y="113.8" transform="matrix(0.4454 -0.8953 0.8953 0.4454 94.4958 380.4962)" class="st122" width="8.4" height="0.4"/>
		</g>
		<g>
			
				<rect x="410.2" y="233.9" transform="matrix(0.6416 -0.767 0.767 0.6416 -37.1489 400.8589)" class="st122" width="0.4" height="12.5"/>
		</g>
	</g>
	
		<path style="clip-path:url(#SVGID_00000130637747986749887250000007720000898031824290_);fill-rule:evenodd;clip-rule:evenodd;fill:#CACFFC;" d="
		M114.1,301.9c0,3.1-2.5,5.5-5.5,5.5c-3.1,0-5.5-2.5-5.5-5.5c0-3.1,2.5-5.5,5.5-5.5C111.6,296.4,114.1,298.8,114.1,301.9z"/>
</g>
<polyline class="st124" points="538,317 470.7,317 275.7,317 272,317 "/>
<g>
	
		<linearGradient id="SVGID_00000005950772144314126320000003059394460065560213_" gradientUnits="userSpaceOnUse" x1="-117.1498" y1="367.6244" x2="-103.3991" y2="316.5566" gradientTransform="matrix(1 0 0 1 393.3441 0)">
		<stop  offset="0" style="stop-color:#432B7D"/>
		<stop  offset="1" style="stop-color:#D21F39"/>
	</linearGradient>
	<path style="fill-rule:evenodd;clip-rule:evenodd;fill:url(#SVGID_00000005950772144314126320000003059394460065560213_);" d="
		M257.3,358.1l-1.3-30.7c-0.2-3.5,2.6-6.4,6.1-6.4h43.4c3.5,0,6.3,3,6.1,6.5l-1.7,30.6c-0.2,3.3-2.9,5.8-6.1,5.8l-40.4,0.1
		C260.1,364,257.4,361.4,257.3,358.1z"/>
	<path class="st12" d="M277.4,329.6c0,0-6.2-0.2-7.3,0.3c-1.1,0.5,0.3,10.6,0.3,10.6l-2.5,2.3l2.3,2.2c0,0-0.1,10.2,1.3,11
		c1.5,0.8,6.4,0,6.4,0v-2.5c0,0-4.1,0.3-4.7-0.3c-0.7-0.5-0.6-9.5-0.6-9.5l-1.1-1.2l1.1-1.3c0,0-0.2-6.4-0.1-8.1
		c0.1-1.2,4.8-1.2,4.8-1.2V329.6z"/>
	<path class="st12" d="M291.5,329.6c0,0,6.2-0.2,7.3,0.3s-0.3,10.6-0.3,10.6l2.5,2.3l-2.3,2.2c0,0,0.1,10.2-1.3,11s-6.4,0-6.4,0
		v-2.5c0,0,4.1,0.3,4.7-0.3c0.7-0.5,0.6-9.5,0.6-9.5l1.1-1.2l-1.1-1.3c0,0,0.2-6.4,0.1-8.1c-0.1-1.2-4.8-1.2-4.8-1.2V329.6z"/>
</g>
<linearGradient id="SVGID_00000178207118045339963920000009591022138315528362_" gradientUnits="userSpaceOnUse" x1="342.8291" y1="353.9485" x2="384.4081" y2="353.9485">
	<stop  offset="0" style="stop-color:#699DFB"/>
	<stop  offset="1" style="stop-color:#986DFA"/>
</linearGradient>
<path style="fill-rule:evenodd;clip-rule:evenodd;fill:url(#SVGID_00000178207118045339963920000009591022138315528362_);" d="
	M384.4,353.9c0,11.5-9.3,20.8-20.8,20.8c-11.5,0-20.8-9.3-20.8-20.8c0-11.5,9.3-20.8,20.8-20.8C375.1,333.2,384.4,342.5,384.4,353.9
	z"/>
</svg>
