<?xml version="1.0" encoding="utf-8"?>
<!-- Generator: Adobe Illustrator 26.0.2, SVG Export Plug-In . SVG Version: 6.00 Build 0)  -->
<svg version="1.1" id="Layer_1" xmlns="http://www.w3.org/2000/svg" xmlns:xlink="http://www.w3.org/1999/xlink" x="0px" y="0px"
	 viewBox="0 0 553 503" style="enable-background:new 0 0 553 503;" xml:space="preserve">
<style type="text/css">
	.st0{fill:url(#SVGID_1_);}
	
		.st1{clip-path:url(#SVGID_00000132806862448030855770000013816487444292288919_);fill:url(#SVGID_00000096760771395593163850000002298642049959370647_);}
	
		.st2{clip-path:url(#SVGID_00000132806862448030855770000013816487444292288919_);fill:url(#SVGID_00000049201038001150527880000011683200550523780012_);}
	.st3{fill:#E0E0E0;}
	.st4{fill:#FFFFFF;}
	.st5{fill:#F5F5F5;}
	.st6{fill:#EBEBEB;}
	.st7{fill:#D8D8D8;}
	.st8{fill:url(#SVGID_00000044868774779785877200000013383878005189322672_);}
	.st9{fill:url(#SVGID_00000067924608386595657040000007452158160510301825_);}
	.st10{fill:url(#SVGID_00000109024016333314857010000000078907903908145820_);}
	.st11{fill:url(#SVGID_00000181772922025423425470000000447651763596395152_);}
	.st12{fill:url(#SVGID_00000069368156928579312880000014514412106939101064_);}
	.st13{fill:url(#SVGID_00000015353727827229768760000006879511735226497980_);}
	.st14{fill:url(#SVGID_00000063622001956803593610000009329253049368040121_);}
	.st15{fill:url(#SVGID_00000127747426903735425190000006722520241127378111_);}
	.st16{fill:url(#SVGID_00000069394147654188206660000014548031271827847819_);}
	.st17{fill:url(#SVGID_00000136387924395785192370000009875962772615102882_);}
	.st18{fill:url(#SVGID_00000181779661576947443590000016087788259490725565_);}
	.st19{fill:url(#SVGID_00000146486834000232230130000008112687777257879970_);}
	.st20{fill:url(#SVGID_00000181787259888598893720000004383099816698222253_);}
	.st21{fill:url(#SVGID_00000106849858954834119390000016029079959468373412_);}
	.st22{fill:url(#SVGID_00000022527148995054134670000000906738981460953782_);}
	.st23{fill:url(#SVGID_00000046341690494943718990000010255050199642075054_);}
	.st24{fill:url(#SVGID_00000039813474189239001710000009140148974934046097_);}
	.st25{fill:url(#SVGID_00000142872947133385982160000013343588769083884951_);}
	.st26{fill:url(#SVGID_00000139284852654022363110000009039998363499136173_);}
	.st27{fill:url(#SVGID_00000063602986895503950260000004288426967545247122_);}
	.st28{fill:#FAFBFB;}
	.st29{fill:#455B64;}
	.st30{fill:#263238;}
	.st31{fill:#E7515B;}
	.st32{fill:#EE1D4A;}
	.st33{fill:url(#SVGID_00000145778175129296773720000015578852970269483161_);}
	.st34{fill:url(#SVGID_00000175298636315754104510000003663660315289365431_);}
	.st35{fill:#ED9169;}
	.st36{fill:url(#SVGID_00000168103432014722434610000007781402514457020314_);}
	.st37{fill:#FCB31E;}
	.st38{fill:url(#SVGID_00000169536518303193224810000003897574778687380909_);}
	.st39{fill:url(#SVGID_00000002349810740407005930000006156553537078332834_);}
	.st40{fill:#F9AE85;}
	
		.st41{opacity:0.3;clip-path:url(#SVGID_00000093880424223597233960000011587907440435362207_);fill:url(#SVGID_00000149378087953829893860000016580473061674409635_);}
</style>
<g>
	<g>
		
			<linearGradient id="SVGID_1_" gradientUnits="userSpaceOnUse" x1="274.7783" y1="468.6136" x2="274.7783" y2="329.5313" gradientTransform="matrix(0.4071 -0.9134 0.9134 0.4071 -100.6697 386.6814)">
			<stop  offset="0" style="stop-color:#432B7D"/>
			<stop  offset="1" style="stop-color:#D21F39"/>
		</linearGradient>
		<path class="st0" d="M526.3,142c41.7,41.6,14.5,78.9-16.7,87.7c-44.2,12.5-59.8-6.4-68.1,62c-6.1,50.5-55.3,84.8-104.6,54.4
			c-69-42.5-64.8,35.5-89.9,64.7c-51.7,60.4-92.7,20.6-165.7-40.5c-75-62.8-89-129.6-64.9-209.3c17.8-58.9,49-103.8,101.4-98.1
			c75.1,8.2,66.2,83.8,110.1,35.4c26.3-29,87.4-59.4,130.2,10C400.7,177.8,466.3,82.1,526.3,142z"/>
		<g>
			<defs>
				<path id="SVGID_00000037685963343788861460000007976739389827562386_" d="M526.3,142c41.7,41.6,14.5,78.9-16.7,87.7
					c-44.2,12.5-59.8-6.4-68.1,62c-6.1,50.5-55.3,84.8-104.6,54.4c-69-42.5-64.8,35.5-89.9,64.7c-51.7,60.4-92.7,20.6-165.7-40.5
					c-75-62.8-89-129.6-64.9-209.3c17.8-58.9,49-103.8,101.4-98.1c75.1,8.2,66.2,83.8,110.1,35.4c26.3-29,87.4-59.4,130.2,10
					C400.7,177.8,466.3,82.1,526.3,142z"/>
			</defs>
			<clipPath id="SVGID_00000047757375459379970380000003385073906637137061_">
				<use xlink:href="#SVGID_00000037685963343788861460000007976739389827562386_"  style="overflow:visible;"/>
			</clipPath>
			
				<linearGradient id="SVGID_00000104695857904564630490000001647595909719953577_" gradientUnits="userSpaceOnUse" x1="281.2847" y1="453.385" x2="281.2847" y2="232.2469" gradientTransform="matrix(0.4071 -0.9134 0.9134 0.4071 -100.6697 386.6814)">
				<stop  offset="0" style="stop-color:#432B7D"/>
				<stop  offset="1" style="stop-color:#D21F39"/>
			</linearGradient>
			
				<path style="clip-path:url(#SVGID_00000047757375459379970380000003385073906637137061_);fill:url(#SVGID_00000104695857904564630490000001647595909719953577_);" d="
				M486.1,61.8c-0.4,19.1-11.2,38.5-28.7,50.7c-11.2,7.8-21,12.7-29.6,17c-26.6,13.3-37.6,18.8-22.5,81.2c8.2,33.8-0.6,67.9-23,89.1
				c-19.7,18.7-47.4,25.2-77.9,18.4c-25.2-5.7-42.8-4.4-53.7,3.7c-15.6,11.7-15.9,36.7-16.1,60.9c-0.2,16.3-0.3,33.1-5.2,46.1
				c-10.8,28.9-25.3,47-44.4,55.2c-35.9,15.4-85.3-3.4-153.8-29.6c-5.3-2-10.6-4.1-16.1-6.1c-56.9-21.6-97.9-50.4-125.5-88.2
				c-25.7-35.2-40-78.7-43.5-133c-2.7-41.7,1.4-75.9,12.2-101.7c12.6-30,34.5-48.7,65-55.4c43.6-9.7,71.9,5.8,92.6,17
				c12.4,6.7,22.1,12.1,30.5,9.3C53.5,94,60,85.2,66.7,68.8C77,43.4,101.9,10.5,137.8,1.7c28.3-6.9,58.2,1.9,88.7,26.3
				c39.9,31.8,67.4,13.3,99.3-8.1c30-20.2,64-43,112.5-19.7c36.9,17.7,46.3,40.4,47.7,56.3C486.1,58.2,486.2,60,486.1,61.8z"/>
			
				<linearGradient id="SVGID_00000153687238495097562650000002376928674615969463_" gradientUnits="userSpaceOnUse" x1="290.4415" y1="383.4788" x2="290.4415" y2="195.4397" gradientTransform="matrix(0.4071 -0.9134 0.9134 0.4071 -100.6697 386.6814)">
				<stop  offset="0" style="stop-color:#432B7D"/>
				<stop  offset="1" style="stop-color:#D21F39"/>
			</linearGradient>
			
				<path style="clip-path:url(#SVGID_00000047757375459379970380000003385073906637137061_);fill:url(#SVGID_00000153687238495097562650000002376928674615969463_);" d="
				M453.6,60.5c-3,18.9-16.5,36.8-35.5,46.7c-12.1,6.3-22.5,9.9-31.7,13.1c-28.2,9.8-39.9,13.9-33.5,77.7
				c3.5,34.5-10,67.2-35.1,85.5c-22.1,16.1-50.5,19.1-79.8,8.4c-24.2-8.8-41.8-9.8-53.7-3c-17.1,9.6-20.8,34.4-24.4,58.4
				c-2.4,16.1-4.9,32.8-11.5,45c-14.7,27.3-31.6,43.4-51.7,49.1C59,452.2,12.6,427.2-51.7,392.8c-4.9-2.7-10-5.4-15.1-8.1
				c-53.4-28.5-90.1-62.2-112.3-103.1c-20.6-38.1-28.8-83-24.8-137.3c3-41.7,11.9-75.1,26.2-99.3C-161,16.8-136.8,1-105.6-1.8
				c44.5-4.1,70.5,14.7,89.4,28.5c11.3,8.2,20.3,14.7,28.9,13c7.6-1.5,15.2-9.4,24.1-24.8c13.8-23.9,43-53.4,79.8-57.6
				c29-3.3,57.4,9.2,84.3,37.1c35.1,36.6,65,21.7,99.6,4.4c32.5-16.2,69.3-34.6,114.3-5.4c34.1,22.2,40.3,45.8,39.5,61.8
				C454,57,453.9,58.7,453.6,60.5z"/>
		</g>
	</g>
	<g>
		<g>
			<g>
				<g>
					<rect x="199.7" y="137.3" class="st3" width="203.2" height="136.1"/>
				</g>
			</g>
			<g>
				<g>
					<rect x="199.7" y="137.3" class="st3" width="203.2" height="13.6"/>
				</g>
			</g>
			<g>
				<g>
					<path class="st4" d="M208.5,144.1c0,0.8-0.7,1.5-1.6,1.5c-0.9,0-1.6-0.7-1.6-1.5s0.7-1.5,1.6-1.5
						C207.7,142.6,208.5,143.3,208.5,144.1z"/>
				</g>
			</g>
			<g>
				<g>
					<path class="st4" d="M213.8,144.1c0,0.8-0.7,1.5-1.6,1.5c-0.9,0-1.6-0.7-1.6-1.5s0.7-1.5,1.6-1.5
						C213,142.6,213.8,143.3,213.8,144.1z"/>
				</g>
			</g>
			<g>
				<g>
					<path class="st4" d="M219.1,144.1c0,0.8-0.7,1.5-1.6,1.5c-0.9,0-1.6-0.7-1.6-1.5s0.7-1.5,1.6-1.5
						C218.3,142.6,219.1,143.3,219.1,144.1z"/>
				</g>
			</g>
		</g>
		<g>
			<g>
				<g>
					<rect x="184.3" y="151.3" class="st5" width="203.2" height="136.1"/>
				</g>
			</g>
			<g>
				<g>
					<rect x="184.3" y="151.3" class="st6" width="203.2" height="13.6"/>
				</g>
			</g>
			<g>
				<g>
					<path class="st4" d="M193.1,158.1c0,0.8-0.7,1.5-1.6,1.5c-0.9,0-1.6-0.7-1.6-1.5s0.7-1.5,1.6-1.5
						C192.3,156.5,193.1,157.2,193.1,158.1z"/>
				</g>
			</g>
			<g>
				<g>
					<path class="st4" d="M198.4,158.1c0,0.8-0.7,1.5-1.6,1.5c-0.9,0-1.6-0.7-1.6-1.5s0.7-1.5,1.6-1.5
						C197.6,156.5,198.4,157.2,198.4,158.1z"/>
				</g>
			</g>
			<g>
				<g>
					<path class="st4" d="M203.7,158.1c0,0.8-0.7,1.5-1.6,1.5c-0.9,0-1.6-0.7-1.6-1.5s0.7-1.5,1.6-1.5
						C202.9,156.5,203.7,157.2,203.7,158.1z"/>
				</g>
			</g>
		</g>
		<g>
			<g>
				<g>
					<rect x="126.4" y="181.3" class="st5" width="203.2" height="136.1"/>
				</g>
			</g>
			<g>
				<g>
					<rect x="126.4" y="181.3" class="st6" width="203.2" height="13.6"/>
				</g>
			</g>
			<g>
				<g>
					<path class="st4" d="M135.2,188.1c0,0.8-0.7,1.5-1.6,1.5c-0.9,0-1.6-0.7-1.6-1.5c0-0.8,0.7-1.5,1.6-1.5
						C134.4,186.6,135.2,187.3,135.2,188.1z"/>
				</g>
			</g>
			<g>
				<g>
					<path class="st4" d="M140.5,188.1c0,0.8-0.7,1.5-1.6,1.5c-0.9,0-1.6-0.7-1.6-1.5c0-0.8,0.7-1.5,1.6-1.5
						C139.7,186.6,140.5,187.3,140.5,188.1z"/>
				</g>
			</g>
			<g>
				<g>
					<path class="st4" d="M145.8,188.1c0,0.8-0.7,1.5-1.6,1.5c-0.9,0-1.6-0.7-1.6-1.5c0-0.8,0.7-1.5,1.6-1.5
						C145,186.6,145.8,187.3,145.8,188.1z"/>
				</g>
			</g>
		</g>
		<path class="st7" d="M147,452.9c0,1.7-17.6,3-39.4,3c-21.7,0-39.4-1.3-39.4-3c0-1.7,17.6-3,39.4-3
			C129.4,449.9,147,451.3,147,452.9z"/>
		<path class="st7" d="M465.3,452.9c0,1.7-17.6,3-39.4,3c-21.7,0-39.4-1.3-39.4-3c0-1.7,17.6-3,39.4-3
			C447.7,449.9,465.3,451.3,465.3,452.9z"/>
		<g>
			
				<linearGradient id="SVGID_00000009576580720942442600000008056793352877355957_" gradientUnits="userSpaceOnUse" x1="-418.6411" y1="430.1699" x2="-508.5889" y2="528.008" gradientTransform="matrix(-1 0 0 1 -20.4336 0)">
				<stop  offset="0" style="stop-color:#CA266E"/>
				<stop  offset="1" style="stop-color:#4C296F"/>
			</linearGradient>
			<path style="fill:url(#SVGID_00000009576580720942442600000008056793352877355957_);" d="M426.6,437.5c0,0,0.9,5.3,1.4,10.5
				c0.2,2-1.4,3.8-3.4,3.9c-7,0.3-21.8,0.9-27.2,0.6c-0.8,0-1.3-0.9-1-1.6c0.2-0.6,0.7-1.1,1.3-1.4l24.6-11.3L426.6,437.5z"/>
			
				<linearGradient id="SVGID_00000142162150285018210040000012873793903074406536_" gradientUnits="userSpaceOnUse" x1="-447.8367" y1="437.4365" x2="-439.8471" y2="437.4365" gradientTransform="matrix(-1 0 0 1 -20.4336 0)">
				<stop  offset="0" style="stop-color:#F6B777"/>
				<stop  offset="1" style="stop-color:#F47960"/>
			</linearGradient>
			<path style="fill:url(#SVGID_00000142162150285018210040000012873793903074406536_);" d="M427.4,434.4l-0.7,6.3
				c0,0-4.3,2-7.2-0.3l1.8-7L427.4,434.4z"/>
			
				<linearGradient id="SVGID_00000031179958282758518090000017923281300139029659_" gradientUnits="userSpaceOnUse" x1="-466.782" y1="376.3454" x2="-440.3644" y2="376.3454" gradientTransform="matrix(-1 0 0 1 -20.4336 0)">
				<stop  offset="0" style="stop-color:#CA266E"/>
				<stop  offset="1" style="stop-color:#4C296F"/>
			</linearGradient>
			<path style="fill:url(#SVGID_00000031179958282758518090000017923281300139029659_);" d="M426.8,315.8
				c0.3,1.6,1.7,82.2-6.9,118.3c-0.1,0.6,0.2,1.2,0.7,1.4c1.3,0.5,3.9,1.3,7,1.4c1,0,1.8-0.6,2.1-1.5c2.5-8.4,14.3-50.3,15.8-90.4
				c1.7-44.8,0-1.5,0-1.5l-1-27.7L426.8,315.8z"/>
			
				<linearGradient id="SVGID_00000181086118956137243540000003592745567535058571_" gradientUnits="userSpaceOnUse" x1="-438.8194" y1="411.6189" x2="-528.7671" y2="509.4568" gradientTransform="matrix(-1 0 0 1 -20.4336 0)">
				<stop  offset="0" style="stop-color:#CA266E"/>
				<stop  offset="1" style="stop-color:#4C296F"/>
			</linearGradient>
			<path style="fill:url(#SVGID_00000181086118956137243540000003592745567535058571_);" d="M454.9,440.2c0,0,1.5,2.7,2.9,9.7
				c0.3,1.3-0.6,2.5-1.9,2.6c-2.3,0.2-5.8,0.5-8.7,0.5c-1.3,0-2.3-1.1-2.2-2.4c0.3-2.6,1.3-6.8,4.3-10.1L454.9,440.2z"/>
			
				<linearGradient id="SVGID_00000164500145891443300540000006530319069945388220_" gradientUnits="userSpaceOnUse" x1="-476.6311" y1="437.0267" x2="-469.7328" y2="437.0267" gradientTransform="matrix(-1 0 0 1 -20.4336 0)">
				<stop  offset="0" style="stop-color:#F6B777"/>
				<stop  offset="1" style="stop-color:#F47960"/>
			</linearGradient>
			<path style="fill:url(#SVGID_00000164500145891443300540000006530319069945388220_);" d="M456.2,432.1l-1.7,9.5
				c0,0-1.7,1.3-5.1,0.4l0.8-10.3L456.2,432.1z"/>
			
				<linearGradient id="SVGID_00000112630904700857092370000005440147400270683808_" gradientUnits="userSpaceOnUse" x1="-484.0664" y1="375.481" x2="-446.562" y2="375.481" gradientTransform="matrix(-1 0 0 1 -20.4336 0)">
				<stop  offset="0" style="stop-color:#CA266E"/>
				<stop  offset="1" style="stop-color:#4C296F"/>
			</linearGradient>
			<path style="fill:url(#SVGID_00000112630904700857092370000005440147400270683808_);" d="M460.9,318.2c7,42.5-1.5,105-4.4,117.3
				c-0.2,0.7-0.8,1.3-1.5,1.4c-1.3,0.2-3.4,0.4-5.5-0.2c-0.7-0.2-1.2-0.9-1.3-1.6c-0.4-9.9,0.3-70.7-6.3-94.7
				c-0.3-1.2-1.1-2.3-2.1-3l-12.7-9.1l-1-14.6L460.9,318.2z"/>
			<g>
				
					<linearGradient id="SVGID_00000029028854878532410770000010361924087875786170_" gradientUnits="userSpaceOnUse" x1="-650.9626" y1="99.1484" x2="-856.5677" y2="-82.7333" gradientTransform="matrix(-1 0 0 1 -20.4336 0)">
					<stop  offset="0" style="stop-color:#F9EE4A"/>
					<stop  offset="1" style="stop-color:#D93D67"/>
				</linearGradient>
				<path style="fill:url(#SVGID_00000029028854878532410770000010361924087875786170_);" d="M416,237.7c21.1-0.3,44.4,5.5,44.4,5.5
					c6.3,36.7,1.1,79,1.1,79c-16.3,4.3-34.8-2.6-34.8-2.6c-2.7-15.3-15.4-58.5-15.4-58.5c-10.3-1.3-18.8-4.3-25.8-8.2
					c5.3-6.2,7.9-14.1,8.9-18.7C402,236.6,409.5,237.8,416,237.7z"/>
				
					<linearGradient id="SVGID_00000115500764316290503390000004174977040599470510_" gradientUnits="userSpaceOnUse" x1="-414.9596" y1="228.9978" x2="-374.1422" y2="228.9978" gradientTransform="matrix(-1 0 0 1 -20.4336 0)">
					<stop  offset="0" style="stop-color:#F6B777"/>
					<stop  offset="1" style="stop-color:#F47960"/>
				</linearGradient>
				<path style="fill:url(#SVGID_00000115500764316290503390000004174977040599470510_);" d="M353.7,206.6c2.1-2.5,4.7-1.3,4.7-1.3
					c3.1,13.1,19.4,23.8,36.1,29c-1.1,4.7-3.6,12.5-8.9,18.7C357.8,237.4,353.7,206.6,353.7,206.6z"/>
			</g>
			<g>
				
					<linearGradient id="SVGID_00000044880158253609772130000009296719479335879040_" gradientUnits="userSpaceOnUse" x1="7673.0132" y1="222.1559" x2="7700.4028" y2="284.4732" gradientTransform="matrix(1 0 0 1 -7310.2119 0)">
					<stop  offset="0" style="stop-color:#F6B777"/>
					<stop  offset="1" style="stop-color:#F47960"/>
				</linearGradient>
				<path style="fill:url(#SVGID_00000044880158253609772130000009296719479335879040_);" d="M354.2,207.3c-0.2,0.7,2.3,1.7,3.8-1.1
					c0.1-1.4,0.9-7.1,0.1-8.2c-4.3-5.9-12.6-13.2-12.6-13.2c-1.4,1.4-0.2,2.8-0.2,2.8l4,4.2c-0.8,1.5-1.9,2.8-2.4,4.7
					c-0.4,1.4-0.1,2.9,0.6,4.2c0.7,1.3,1.7,2.9,2.6,4.2C351.7,207.2,354.2,207.3,354.2,207.3z"/>
				
					<linearGradient id="SVGID_00000023240324758602975540000004718552642918656439_" gradientUnits="userSpaceOnUse" x1="-374.3381" y1="201.4019" x2="-362.9097" y2="183.8307" gradientTransform="matrix(-1 0 0 1 -20.4336 0)">
					<stop  offset="0" style="stop-color:#F6B777"/>
					<stop  offset="1" style="stop-color:#F47960"/>
				</linearGradient>
				<path style="fill:url(#SVGID_00000023240324758602975540000004718552642918656439_);" d="M351,194.4l3.7,3.1l1.2,3.1l-3.3,3.6
					c0,0-1.1-6.2-1.9-7.5C349.8,195.5,350.2,194.8,351,194.4z"/>
			</g>
			
				<linearGradient id="SVGID_00000054225536282158986620000013756897743991819414_" gradientUnits="userSpaceOnUse" x1="-660.3823" y1="109.7969" x2="-865.9876" y2="-72.0849" gradientTransform="matrix(-1 0 0 1 -20.4336 0)">
				<stop  offset="0" style="stop-color:#F9EE4A"/>
				<stop  offset="1" style="stop-color:#D93D67"/>
			</linearGradient>
			<path style="fill:url(#SVGID_00000054225536282158986620000013756897743991819414_);" d="M452.3,263.7l8.1-20.4
				c0,0,19.7,13.4,23,30.4c-3.7,0.3-10.5,1.2-17.1,4.6C464.8,270.2,452.3,263.7,452.3,263.7z"/>
			
				<linearGradient id="SVGID_00000079472241483536692860000014508168215927857840_" gradientUnits="userSpaceOnUse" x1="-504.2766" y1="286.8146" x2="-452.6218" y2="286.8146" gradientTransform="matrix(-1 0 0 1 -20.4336 0)">
				<stop  offset="0" style="stop-color:#F6B777"/>
				<stop  offset="1" style="stop-color:#F47960"/>
			</linearGradient>
			<path style="fill:url(#SVGID_00000079472241483536692860000014508168215927857840_);" d="M435.1,282.9c0,0,22.1,12.5,29.6,1.8
				c1.6-2.2,1.9-4.4,1.5-6.5c6.6-3.3,13.4-4.3,17.1-4.6c1,5.1,0.5,10.6-2.5,16.1c-13.1,23.9-48.7-1.3-48.7-1.3L435.1,282.9z"/>
			<g>
				
					<linearGradient id="SVGID_00000127032954769618704090000004985919920352206749_" gradientUnits="userSpaceOnUse" x1="-436.9944" y1="250.0897" x2="-408.5912" y2="368.4362" gradientTransform="matrix(-1 0 0 1 -20.4336 0)">
					<stop  offset="0" style="stop-color:#293882"/>
					<stop  offset="1" style="stop-color:#171143"/>
				</linearGradient>
				<path style="fill:url(#SVGID_00000127032954769618704090000004985919920352206749_);" d="M437.8,298.7l-12.1-42.2
					c-0.1-0.5-0.5-0.8-1-0.9c-2.2-0.3-8.5-1-15.9-1.6c-8.8-0.7-19.1-1.4-25.2-0.8c-0.9,0.1-1.4,1-1,1.8c3.5,7,17.8,35.7,25,45.1
					c0.2,0.3,0.6,0.5,1,0.5l28-0.3C437.4,300.3,438,299.5,437.8,298.7z"/>
				
					<linearGradient id="SVGID_00000018224337427053053290000000492691694246106244_" gradientUnits="userSpaceOnUse" x1="-419.2113" y1="231.435" x2="-425.2604" y2="257.9985" gradientTransform="matrix(-1 0 0 1 -20.4336 0)">
					<stop  offset="0" style="stop-color:#65CDF2"/>
					<stop  offset="1" style="stop-color:#4A5AA8"/>
				</linearGradient>
				<path style="fill:url(#SVGID_00000018224337427053053290000000492691694246106244_);" d="M407.6,250.4l-8.8-1.5
					c-0.5-0.1-0.8,0.4-0.7,0.8l0.9,2.6c0.1,0.2,0.3,0.4,0.5,0.4l8.4,1.1c0.4,0.1,0.8-0.3,0.7-0.8l-0.5-2.3
					C408,250.7,407.8,250.5,407.6,250.4z"/>
				
					<linearGradient id="SVGID_00000000944142703810626310000010698815580236276146_" gradientUnits="userSpaceOnUse" x1="-422.3772" y1="242.5775" x2="-425.2702" y2="259.9359" gradientTransform="matrix(-1 0 0 1 -20.4336 0)">
					<stop  offset="0" style="stop-color:#65CDF2"/>
					<stop  offset="1" style="stop-color:#4A5AA8"/>
				</linearGradient>
				<path style="fill:url(#SVGID_00000000944142703810626310000010698815580236276146_);" d="M414.1,257.8l-0.7-3.8
					c-0.1-0.4-0.4-0.7-0.8-0.7l-17.7-1.8c-0.6-0.1-1.1,0.5-0.9,1.1l1.1,4.7c0.1,0.4,0.4,0.6,0.8,0.7l17.3,0.9
					C413.8,258.9,414.2,258.4,414.1,257.8z"/>
				
					<linearGradient id="SVGID_00000071523507758790165270000008159197705455727769_" gradientUnits="userSpaceOnUse" x1="-456.4569" y1="281.3986" x2="-440.3643" y2="281.3986" gradientTransform="matrix(-1 0 0 1 -20.4336 0)">
					<stop  offset="0" style="stop-color:#F6B777"/>
					<stop  offset="1" style="stop-color:#F47960"/>
				</linearGradient>
				<path style="fill:url(#SVGID_00000071523507758790165270000008159197705455727769_);" d="M434.9,288.6c0,0,1.7-6.9,1-9.4
					c-0.7-2.5-2-5.6-6.4-4.9c-4.4,0.7-9.6,2.5-9.6,2.5s0.3,3.2,3.6,2.2l-2.1,1.6c0,0,0.3,2.6,3.1,1.2l-1.9,2.1c0,0,1.2,2.1,3.3,0.8
					C428,283.3,429,289.4,434.9,288.6z"/>
			</g>
			
				<linearGradient id="SVGID_00000065061939605000923650000016694441681112280459_" gradientUnits="userSpaceOnUse" x1="-464.6129" y1="231.5925" x2="-444.1902" y2="231.5925" gradientTransform="matrix(-1 0 0 1 -20.4336 0)">
				<stop  offset="0" style="stop-color:#F6B777"/>
				<stop  offset="1" style="stop-color:#F47960"/>
			</linearGradient>
			<path style="fill:url(#SVGID_00000065061939605000923650000016694441681112280459_);" d="M437.4,220.6l6.7,19.4
				c0.1,0.3,0,0.7-0.3,0.8c-1.8,1-8.4,3.9-16.4-1.1c-0.8-0.5-1.4-1.4-1.5-2.4l-2.2-16.8H437.4z"/>
			<g>
				
					<linearGradient id="SVGID_00000005243944644321572220000004730468537506575039_" gradientUnits="userSpaceOnUse" x1="-1311.8557" y1="-1740.886" x2="-1338.1061" y2="-1706.1589" gradientTransform="matrix(-0.8116 -0.5843 -0.5843 0.8116 -1655.4185 850.0378)">
					<stop  offset="0" style="stop-color:#F6B777"/>
					<stop  offset="1" style="stop-color:#F47960"/>
				</linearGradient>
				<path style="fill:url(#SVGID_00000005243944644321572220000004730468537506575039_);" d="M422.4,200.5
					c-0.2,0.3-6.5,22.3-6.5,22.3l12.6,3.3l9.1-20C437.6,206.2,425.8,195.8,422.4,200.5z"/>
				
					<linearGradient id="SVGID_00000169534542016012661650000013522643154838378113_" gradientUnits="userSpaceOnUse" x1="-1331.9038" y1="-1732.5463" x2="-1300.5474" y2="-1732.5463" gradientTransform="matrix(-0.8116 -0.5843 -0.5843 0.8116 -1655.4185 850.0378)">
					<stop  offset="0" style="stop-color:#293882"/>
					<stop  offset="1" style="stop-color:#171143"/>
				</linearGradient>
				<path style="fill:url(#SVGID_00000169534542016012661650000013522643154838378113_);" d="M432.6,207.7c0.3,0.5,0.4,1.1,0.2,1.6
					l-3.9,10.7c-0.1,0.2-0.1,0.3-0.2,0.5c-0.6,0.8-2.5,3.1-4.9,0.9c-2-1.9-3.8-3.5-5.5-4c-1-0.3-2,0.3-2.3,1.3
					c-0.6,2.1-1.7,6.3-2.1,10.1c-0.1,1,0.5,1.9,1.5,2c2.5,0.5,7.5,1.3,11.7,1.1c0.7,0,1.3-0.5,1.6-1.1c1.3-2.8,5-10.5,6.3-12.5
					c1.3-1.9,4.3-1.8,5.7-1.7c0.5,0,1-0.1,1.4-0.5c1.2-1.1,3.1-3.5,0.3-6.5c-0.7-0.7-0.6-1.9,0.1-2.6c1.3-1.3,2.6-3.4,0.4-6.1
					c-2.1-2.7-5-2.4-6.8-1.8c-0.8,0.3-1.8,0-2.2-0.7c-0.2-0.3-0.5-0.6-1.1-0.6c-1,0-1.9-0.8-1.9-1.8c0-1.8-0.7-3.9-3.7-4.9
					c-5.5-1.8-9,3.5-9.4,7.5c-0.4,4,5.7,5.6,9.3,5.3C429.8,203.8,431.7,206.3,432.6,207.7z"/>
				
					<linearGradient id="SVGID_00000047059694625260251040000016249526081390870962_" gradientUnits="userSpaceOnUse" x1="-1350.3024" y1="-1713.3845" x2="-1329.2473" y2="-1734.9865" gradientTransform="matrix(-0.8116 -0.5843 -0.5843 0.8116 -1655.4185 850.0378)">
					<stop  offset="0" style="stop-color:#F6B777"/>
					<stop  offset="1" style="stop-color:#F47960"/>
				</linearGradient>
				<path style="fill:url(#SVGID_00000047059694625260251040000016249526081390870962_);" d="M433.4,222.3c0,0,1-6.9,3.8-7.2
					c2.9-0.3,5.7,2.1,2.8,5.9C436.4,225.8,433.4,222.3,433.4,222.3z"/>
			</g>
		</g>
		<g>
			<g>
				<g>
					<g>
						<g>
							<g>
								<g>
									<rect x="157.9" y="163.9" class="st28" width="206.1" height="138"/>
								</g>
							</g>
						</g>
						<g>
							<g>
								<g>
									<rect x="157.9" y="163.9" class="st29" width="206.1" height="13.8"/>
								</g>
							</g>
						</g>
						<g>
							<g>
								<g>
									<path class="st4" d="M166.9,170.8c0,0.9-0.7,1.5-1.7,1.5c-0.9,0-1.7-0.7-1.7-1.5c0-0.9,0.7-1.5,1.7-1.5
										C166.1,169.3,166.9,170,166.9,170.8z"/>
								</g>
							</g>
						</g>
						<g>
							<g>
								<g>
									<path class="st4" d="M172.2,170.8c0,0.9-0.7,1.5-1.7,1.5c-0.9,0-1.7-0.7-1.7-1.5c0-0.9,0.7-1.5,1.7-1.5
										C171.5,169.3,172.2,170,172.2,170.8z"/>
								</g>
							</g>
						</g>
						<g>
							<g>
								<g>
									<path class="st4" d="M177.6,170.8c0,0.9-0.7,1.5-1.7,1.5c-0.9,0-1.7-0.7-1.7-1.5c0-0.9,0.7-1.5,1.7-1.5
										C176.9,169.3,177.6,170,177.6,170.8z"/>
								</g>
							</g>
						</g>
					</g>
					<g>
						<g>
							<g>
								<g>
									<path class="st30" d="M364,302c0-1.4-0.1-53.9-0.2-138l0.2,0.2c-56.8,0-128.4,0-206.1,0h0l0.2-0.2c0,49.2,0,95.9,0,138
										l-0.2-0.2C279.3,301.9,362.3,302,364,302c-1.8,0-84.7,0.1-206.1,0.2l-0.2,0l0-0.2c0-42.1,0-88.9,0-138l0-0.2h0.2h0
										c77.6,0,149.3,0,206.1,0h0.2l0,0.2C364.1,248,364,300.6,364,302z"/>
								</g>
							</g>
						</g>
					</g>
				</g>
				<g>
					<g>
						<polygon class="st30" points="217.4,233.3 215.1,233.3 215.1,232.9 217,232.9 217,231 217.4,231 						"/>
					</g>
					<g>
						<path class="st30" d="M210.9,233.3h-4.2v-0.4h4.2V233.3z M202.4,233.3h-4.2v-0.4h4.2V233.3z M193.9,233.3h-4.2v-0.4h4.2V233.3
							z M185.4,233.3h-4.2v-0.4h4.2V233.3z"/>
					</g>
					<g>
						<polygon class="st30" points="176.9,233.3 174.6,233.3 174.6,231 175,231 175,232.9 176.9,232.9 						"/>
					</g>
					<g>
						<path class="st30" d="M175,226.8h-0.4v-4.2h0.4V226.8z M175,218.3h-0.4V214h0.4V218.3z M175,209.8h-0.4v-4.2h0.4V209.8z
							 M175,201.3h-0.4V197h0.4V201.3z"/>
					</g>
					<g>
						<polygon class="st30" points="175,192.8 174.6,192.8 174.6,190.5 176.9,190.5 176.9,190.9 175,190.9 						"/>
					</g>
					<g>
						<path class="st30" d="M210.9,190.9h-4.2v-0.4h4.2V190.9z M202.4,190.9h-4.2v-0.4h4.2V190.9z M193.9,190.9h-4.2v-0.4h4.2V190.9
							z M185.4,190.9h-4.2v-0.4h4.2V190.9z"/>
					</g>
					<g>
						<polygon class="st30" points="217.4,192.8 217,192.8 217,190.9 215.1,190.9 215.1,190.5 217.4,190.5 						"/>
					</g>
					<g>
						<path class="st30" d="M217.4,226.8H217v-4.2h0.4V226.8z M217.4,218.3H217V214h0.4V218.3z M217.4,209.8H217v-4.2h0.4V209.8z
							 M217.4,201.3H217V197h0.4V201.3z"/>
					</g>
				</g>
				<g>
					<g>
						<rect x="172.4" y="241" class="st29" width="46.9" height="3.1"/>
					</g>
					<g>
						<rect x="233" y="197.5" class="st29" width="46.9" height="3.1"/>
					</g>
					<g>
						<g>
							<path class="st29" d="M349.5,209.1c0,0.1-26.1,0.2-58.3,0.2c-32.2,0-58.3-0.1-58.3-0.2c0-0.1,26.1-0.2,58.3-0.2
								C323.4,208.9,349.5,209,349.5,209.1z"/>
						</g>
					</g>
					<g>
						<g>
							<path class="st29" d="M349.5,216c0,0.1-26.1,0.2-58.3,0.2c-32.2,0-58.3-0.1-58.3-0.2s26.1-0.2,58.3-0.2
								C323.4,215.8,349.5,215.9,349.5,216z"/>
						</g>
					</g>
					<g>
						<g>
							<path class="st29" d="M349.5,222.8c0,0.1-26.1,0.2-58.3,0.2c-32.2,0-58.3-0.1-58.3-0.2c0-0.1,26.1-0.2,58.3-0.2
								C323.4,222.6,349.5,222.7,349.5,222.8z"/>
						</g>
					</g>
					<g>
						<g>
							<path class="st29" d="M349.5,229.7c0,0.1-26.1,0.2-58.3,0.2c-32.2,0-58.3-0.1-58.3-0.2c0-0.1,26.1-0.2,58.3-0.2
								C323.4,229.5,349.5,229.5,349.5,229.7z"/>
						</g>
					</g>
					<g>
						<g>
							<path class="st29" d="M349.5,236.5c0,0.1-26.1,0.2-58.3,0.2c-32.2,0-58.3-0.1-58.3-0.2s26.1-0.2,58.3-0.2
								C323.4,236.3,349.5,236.4,349.5,236.5z"/>
						</g>
					</g>
					<g>
						<g>
							<path class="st29" d="M278.5,243.4c0,0.1-10.2,0.2-22.7,0.2c-12.6,0-22.7-0.1-22.7-0.2s10.2-0.2,22.7-0.2
								C268.3,243.1,278.5,243.2,278.5,243.4z"/>
						</g>
					</g>
					<g>
						<g>
							<path class="st29" d="M348.7,256.6c0,0.1-17.2,0.2-38.3,0.2c-21.2,0-38.3-0.1-38.3-0.2c0-0.1,17.1-0.2,38.3-0.2
								C331.5,256.4,348.7,256.5,348.7,256.6z"/>
						</g>
					</g>
					<g>
						<g>
							<path class="st29" d="M348.7,263.9c0,0.1-17.2,0.2-38.3,0.2c-21.2,0-38.3-0.1-38.3-0.2c0-0.1,17.1-0.2,38.3-0.2
								C331.5,263.7,348.7,263.8,348.7,263.9z"/>
						</g>
					</g>
					<g>
						<g>
							<path class="st29" d="M348.7,271.2c0,0.1-17.2,0.2-38.3,0.2c-21.2,0-38.3-0.1-38.3-0.2c0-0.1,17.1-0.2,38.3-0.2
								C331.5,271,348.7,271.1,348.7,271.2z"/>
						</g>
					</g>
					<g>
						<g>
							<path class="st29" d="M348.7,278.4c0,0.1-17.2,0.2-38.3,0.2c-21.2,0-38.3-0.1-38.3-0.2c0-0.1,17.1-0.2,38.3-0.2
								C331.5,278.2,348.7,278.3,348.7,278.4z"/>
						</g>
					</g>
					<g>
						<g>
							<path class="st29" d="M219.4,255.9c0,0.1-10.2,0.2-22.8,0.2c-12.6,0-22.8-0.1-22.8-0.2c0-0.1,10.2-0.2,22.8-0.2
								C209.2,255.7,219.4,255.8,219.4,255.9z"/>
						</g>
					</g>
					<g>
						<g>
							<path class="st29" d="M219.4,261.7c0,0.1-10.2,0.2-22.8,0.2c-12.6,0-22.8-0.1-22.8-0.2c0-0.1,10.2-0.2,22.8-0.2
								C209.2,261.4,219.4,261.5,219.4,261.7z"/>
						</g>
					</g>
					<g>
						<g>
							<path class="st29" d="M219.4,267.4c0,0.1-10.2,0.2-22.8,0.2c-12.6,0-22.8-0.1-22.8-0.2c0-0.1,10.2-0.2,22.8-0.2
								C209.2,267.1,219.4,267.2,219.4,267.4z"/>
						</g>
					</g>
					<g>
						<g>
							<path class="st29" d="M219.4,273.1c0,0.1-10.2,0.2-22.8,0.2c-12.6,0-22.8-0.1-22.8-0.2c0-0.1,10.2-0.2,22.8-0.2
								C209.2,272.8,219.4,272.9,219.4,273.1z"/>
						</g>
					</g>
					<g>
						<g>
							<path class="st29" d="M219.4,278.8c0,0.1-10.2,0.2-22.8,0.2c-12.6,0-22.8-0.1-22.8-0.2c0-0.1,10.2-0.2,22.8-0.2
								C209.2,278.6,219.4,278.7,219.4,278.8z"/>
						</g>
					</g>
					<g>
						<g>
							<g>
								<g>
									<rect x="232.9" y="253.2" class="st29" width="33.2" height="32.2"/>
								</g>
							</g>
						</g>
						<g>
							<g>
								<g>
									<polygon class="st31" points="235.5,282.6 244.7,266 252.2,276.6 256.8,271 263.6,282.6 									"/>
								</g>
							</g>
						</g>
						<g>
							<g>
								<g>
									<path class="st31" d="M255.4,262.8c0,1.3-1.1,2.4-2.4,2.4s-2.4-1.1-2.4-2.4c0-1.3,1.1-2.4,2.4-2.4S255.4,261.5,255.4,262.8
										z"/>
								</g>
							</g>
						</g>
						<g>
							<g>
								<g>
									<g>
										<path class="st30" d="M263.6,282.7c0,0,0,0,0-0.1c0-0.1,0-0.2,0-0.4c0-0.3,0-0.8,0-1.4c0-1.3,0-3.1,0-5.5
											c0-4.7,0-11.4-0.1-19.4l0.1,0.1c-8.1,0-17.8,0-28.1,0c0,0,0.3-0.3,0.2-0.2v0v0v0v0.1v0.1v0.2v0.5v0.9c0,0.6,0,1.2,0,1.8
											c0,1.2,0,2.4,0,3.6c0,2.4,0,4.7,0,6.9c0,4.5,0,8.8,0,12.7l-0.1-0.1c8.4,0,15.4,0.1,20.3,0.1c2.5,0,4.4,0,5.7,0
											c0.7,0,1.2,0,1.5,0c0.2,0,0.3,0,0.4,0C263.6,282.7,263.6,282.7,263.6,282.7c0,0,0,0-0.1,0c-0.1,0-0.2,0-0.4,0
											c-0.4,0-0.9,0-1.5,0c-1.3,0-3.3,0-5.7,0c-4.9,0-12,0-20.4,0.1l-0.1,0v-0.1c0-3.9,0-8.2,0-12.7c0-2.3,0-4.6,0-6.9
											c0-1.2,0-2.4,0-3.6c0-0.6,0-1.2,0-1.8v-0.9l0-0.5v-0.2v-0.1v-0.1v0v0v0c-0.1,0.1,0.2-0.2,0.2-0.2c10.3,0,20,0,28.1,0
											l0.1,0l0,0.1c0,8.1-0.1,14.8-0.1,19.5c0,2.3,0,4.2,0,5.4c0,0.6,0,1.1,0,1.4c0,0.2,0,0.3,0,0.4
											C263.6,282.6,263.6,282.7,263.6,282.7z"/>
									</g>
								</g>
							</g>
						</g>
					</g>
				</g>
			</g>
			<g>
				<g>
					<g>
						<g>
							<rect x="160.8" y="185.8" class="st31" width="47" height="45.4"/>
						</g>
					</g>
				</g>
				<g>
					<g>
						<g>
							<polygon class="st28" points="164.4,227.3 177.4,203.9 188,218.9 194.5,210.9 204.1,227.3 							"/>
						</g>
					</g>
				</g>
				<g>
					<g>
						<g>
							<circle class="st28" cx="189.2" cy="199.4" r="3.4"/>
						</g>
					</g>
				</g>
				<g>
					<g>
						<g>
							<g>
								<path class="st28" d="M204.1,227.4c0,0,0-0.1,0-0.2c0-0.1,0-0.3,0-0.5c0-0.5,0-1.2,0-2c0-1.8,0-4.4,0-7.7
									c0-6.6-0.1-16.1-0.1-27.4l0.2,0.2c-11.5,0-25.1,0-39.7,0c-0.1,0,0.4-0.4,0.2-0.2v0v0v0v0.1v0.2v0.3v0.6v1.3
									c0,0.9,0,1.7,0,2.6c0,1.7,0,3.4,0,5.1c0,3.3,0,6.6,0,9.8c0,6.4,0,12.4,0,17.9l-0.2-0.2c11.8,0,21.7,0.1,28.7,0.1
									c3.5,0,6.2,0,8.1,0.1c0.9,0,1.6,0,2.1,0c0.2,0,0.4,0,0.6,0C204,227.4,204.1,227.4,204.1,227.4c0,0-0.1,0-0.2,0
									c-0.1,0-0.3,0-0.5,0c-0.5,0-1.2,0-2.1,0c-1.9,0-4.6,0-8.1,0.1c-7,0-16.9,0.1-28.8,0.1l-0.2,0v-0.2c0-5.5,0-11.6,0-17.9
									c0-3.2,0-6.5,0-9.8c0-1.7,0-3.4,0-5.1c0-0.9,0-1.7,0-2.6v-1.3l0-0.6v-0.3v-0.2v-0.1v0v0v0c-0.2,0.2,0.3-0.3,0.2-0.2
									c14.6,0,28.2,0,39.7,0l0.2,0l0,0.2c0,11.4-0.1,20.9-0.1,27.6c0,3.3,0,5.9-0.1,7.7c0,0.9,0,1.5,0,2c0,0.2,0,0.4,0,0.5
									C204.1,227.4,204.1,227.5,204.1,227.4z"/>
							</g>
						</g>
					</g>
				</g>
			</g>
		</g>
		<g>
			<g>
				<path class="st32" d="M85.5,442.3c0.5,1.9,0.3,2.5,0.5,3.7c0.2,1.5,1.7,2,2.5,3.3c0.9,1.4,2.4,3.5-3.3,3.7
					c-6,0.1-9.6-0.3-8.5-3.6c1-3.3,1.2-4.7,1.1-5.8c-0.1-1.1,0-2.2,0.7-2.8C79.2,440.2,84.6,439,85.5,442.3z"/>
				
					<linearGradient id="SVGID_00000126297365684697280540000008447603659321452672_" gradientUnits="userSpaceOnUse" x1="174.2368" y1="227.0922" x2="128.6451" y2="239.6531">
					<stop  offset="0" style="stop-color:#EE1D4A"/>
					<stop  offset="1" style="stop-color:#9D1F60"/>
				</linearGradient>
				<path style="fill:url(#SVGID_00000126297365684697280540000008447603659321452672_);" d="M166.3,217.6c0.3,3.4,0.1,5.6-3.9,12.5
					c-5.4,9.3-8.9,14.1-12.5,18c-3.3,3.5-10.6-5.4-7.3-11c2.8-4.8,18.1-17.7,19.8-20.6C163.5,214.5,166.1,214.8,166.3,217.6z"/>
				
					<linearGradient id="SVGID_00000093162200994080462200000016245264582655961511_" gradientUnits="userSpaceOnUse" x1="174.2588" y1="227.1708" x2="128.6662" y2="239.732">
					<stop  offset="0" style="stop-color:#EE1D4A"/>
					<stop  offset="1" style="stop-color:#9D1F60"/>
				</linearGradient>
				<path style="fill:url(#SVGID_00000093162200994080462200000016245264582655961511_);" d="M148,248.8c-2.6,0.5-8.5,0.8-22.6-2.4
					c-8.6-1.9-12.1-3.3-14.7-4.3c-4.5-1.7-5.2-6.6-3.5-8.5c2.7-3.1,8.5-5.3,10.9-4.6c13.7,4.2,24,8.2,27.5,8.7
					C150.7,238.3,151,248.2,148,248.8z"/>
				<path class="st32" d="M111.8,211.6c2.5,1.2,3.5,1.2,4.4-1.9c0.7-2.4,1.9-10.7-2-11.3c-3.8-0.6-6.8-0.7-6.3,4.5
					C108.3,208.1,108.8,210.3,111.8,211.6z"/>
				<path class="st35" d="M97.4,216.1c-0.1,0.4-0.9,8.4-1,14.5c-0.1,3,2.9,5.9,5.9,5.9c0,0,0.1,0,0.1,0c2.9,0,6.4-2.7,6.1-5.6
					c-0.5-5.3-0.1-10.8-0.1-10.9L97.4,216.1z"/>
				
					<linearGradient id="SVGID_00000151524515954592661290000008276640582912929410_" gradientUnits="userSpaceOnUse" x1="104.3238" y1="241.7335" x2="112.2328" y2="309.6577">
					<stop  offset="0" style="stop-color:#EE1D4A"/>
					<stop  offset="1" style="stop-color:#9D1F60"/>
				</linearGradient>
				<path style="fill:url(#SVGID_00000151524515954592661290000008276640582912929410_);" d="M82.5,249.3c5.5,18,7.9,39.8,6.9,52.4
					h41.2c0,0-0.2-38.6-3-59.7c-0.6-4.9-3.5-9.3-8.7-12.1c-3.1-1.6-8.7-2.4-11-2.4h-7.6c-2.6,0-5.5,0.5-8,1
					C81.3,230.5,79.4,238.9,82.5,249.3z"/>
				<path class="st37" d="M89.5,326.9c0,0-3.6-8.6-0.2-25.2h41.2c0,0,1.5,11.8,1.5,25.2H89.5z"/>
				<g>
					<g>
						<path class="st37" d="M97.7,380.8c3.3-13.4-10.4-15.8-14.7-6.1c-6.1,13.7-5.6,57.6-5.3,66.4c0,1.1,0.7,0.9,1.3,0.7
							c1.9-0.7,3.6-0.9,4.4-0.8c1.5,0.3,2.3,1.8,2.3,1.8C86.9,430.9,94.5,393.8,97.7,380.8z"/>
						<path class="st37" d="M110,328.7c1.4-16.7-5.2-29.6-15.5-24.1c-4.4,2.3-5.9,6.9-6.5,11.3c-0.6,4.4-3.8,49.7-4.9,57.9
							c-2.5,18.5,12.1,13.5,13.6,8.4C100.7,369.3,109.2,337.8,110,328.7z"/>
					</g>
				</g>
				<path class="st37" d="M134.4,380c0.5-12.5-11.6-12.2-14.7-2.1c-4.8,16,3.5,50.4,4,70c2.1-3.4,4.1-4.2,5.1-4.1
					c1.5,0.1,2.4,1.3,2.4,1.3C130.8,419.2,133.8,393.3,134.4,380z"/>
				<path class="st37" d="M120.1,381.3c1.6,5.1,15.6,11,14.1-7.6c-0.6-8.2-2.4-53.8-2.7-58.2c-0.3-4.4-1.1-10.8-3.3-11.6
					c-11-4-21.7,9.1-18.8,25.6C111.4,340.6,116.8,370.7,120.1,381.3z"/>
				
					<linearGradient id="SVGID_00000041974933193712049290000011005382111979205788_" gradientUnits="userSpaceOnUse" x1="75.327" y1="245.1093" x2="83.2359" y2="313.0336">
					<stop  offset="0" style="stop-color:#EE1D4A"/>
					<stop  offset="1" style="stop-color:#9D1F60"/>
				</linearGradient>
				<path style="fill:url(#SVGID_00000041974933193712049290000011005382111979205788_);" d="M89,292.3c-3.2-0.9-4.9-3.2-10.4-9
					c-7.9-8.3-9.2-10.7-12.2-17.5c-2-4.4,8.5-7.6,12.6-2.6c3.5,4.3,10.4,23.1,12.5,25.7C92.9,290.7,91.7,293.1,89,292.3z"/>
				
					<linearGradient id="SVGID_00000134245382076404200990000012822823753978538630_" gradientUnits="userSpaceOnUse" x1="80.3798" y1="244.5215" x2="88.2888" y2="312.446">
					<stop  offset="0" style="stop-color:#EE1D4A"/>
					<stop  offset="1" style="stop-color:#9D1F60"/>
				</linearGradient>
				<path style="fill:url(#SVGID_00000134245382076404200990000012822823753978538630_);" d="M66.1,264.3c0.4-2.6,2.3-8.3,10.1-20.4
					c4.8-7.4,7.3-10.2,9.1-12.3c3.2-3.7,8-2.6,9.2-0.3c1.9,3.6,2.1,9.8,0.5,11.8c-8.7,11.4-16.1,19.7-17.7,22.8
					C75.1,270.5,65.6,267.3,66.1,264.3z"/>
				<path class="st40" d="M93.4,210.3c0.7,6.8,0.9,8.3,3.9,11.1c3,2.8,7.2,4.1,10.5,4.1c3.5,0,6.1-3.7,6.9-6.6
					c0.8-3,1.8-10,0.8-17.5c-0.5-3.8-5.2-8.4-10-8.4C100.5,193.1,91.7,193.7,93.4,210.3z"/>
				<path class="st40" d="M87.8,288c1.6-1.7,4-4.4,5.3-6c1.2-1.5,4.8,1.1,4.9,2.4c0.1,2-1.9,7.4-4.4,7.4c-2.5,0-3.2,2.3-5.4,1.6
					C86,292.7,85.2,290.9,87.8,288z"/>
				<path class="st32" d="M131.6,445c0.5,0.9,2.7,2.9,5.8,4.3c3.1,1.3,9.7,2,6.1,3.2c-3.7,1.2-8,0.5-10.1,0.1
					c-2.2-0.3-4.3-0.4-6.8-0.4c-3.4,0-3.4-0.2-2.9-3.9C124.3,443.2,130.1,442.2,131.6,445z"/>
				<path class="st32" d="M93.4,209.3c1.8,1.8,2.8,2.2,4.6-0.3c1.4-1.9,5.2-9.1,1.9-10.8c-3.3-1.7-5.9-2.8-7.2,2
					C91.4,204.9,91.2,207.1,93.4,209.3z"/>
				<path class="st40" d="M95.4,210.4c1,2.4,0.7,4.7-0.5,5.2c-1.2,0.5-3-1-4-3.4c-1-2.4-0.7-4.7,0.5-5.2
					C92.6,206.5,94.4,208,95.4,210.4z"/>
				<path class="st32" d="M95.5,196.9c2.7,4,15.5,4.3,19.7,2.9c4.2-1.5,3.9-9.6-2.1-10.1c-3.4,0-0.9,0.8-3.7,1.9
					C108,192.1,92.6,192.6,95.5,196.9z"/>
				<path class="st40" d="M161.8,216.8c0.7-2.1,7.4-18,10.1-15.3c2.9,2.9,1.6,9.8,0.9,12.1c-1.3,4.1-5.2,6.6-7.8,6.4
					C163.1,219.9,161.1,218.8,161.8,216.8z"/>
				<path class="st40" d="M161.4,215.6c-0.1-1-0.7-7,0.5-7.2c1.7-0.3,2.3,3.6,2.6,6.2c0.2,1.4-0.4,3.4-1.6,3.4
					C161.8,218.1,161.6,217.2,161.4,215.6z"/>
			</g>
			<g>
				<defs>
					<path id="SVGID_00000058586451046082838650000003830666141816467900_" d="M171.9,201.5c-1.8-1.8-5.5,5-7.9,10.1
						c-0.4-1.8-1-3.4-2.1-3.2c-1.1,0.2-0.6,6.1-0.5,7.2c0.1,0.6,0.1,1.1,0.3,1.5c0,0.1,0,0.1,0,0.2c-3.4,4-16.3,15.2-19,19.6
						c-4.9-1.4-13.6-4.6-24.6-8c-0.4-0.1-1-0.1-1.6-0.1c-2.8-0.9-6.2-1.4-8.1-1.4c0-0.7,0-1.4,0-2c3.1-0.4,5.5-3.8,6.2-6.5
						c0.4-1.6,0.9-4.4,1.1-7.9c0.2-0.4,0.4-0.8,0.5-1.3c0.6-2,1.4-7.9-0.4-10.3c3.5-2,2.9-9.3-2.8-9.8c-3.4,0-0.9,0.8-3.7,1.9
						c-1.4,0.6-16.4,1.1-14,5.2c-1.1,0.2-2.1,1.1-2.7,3.4c-0.8,3.2-1.2,5.2-0.7,6.8c-0.2,0-0.4,0-0.5,0.1c-1.2,0.5-1.5,2.8-0.5,5.2
						c0.7,1.8,2,3.1,3.1,3.4c0.5,2.5,1.2,3.8,2.9,5.5c-0.2,2-0.3,4.3-0.4,6.6c-1.4,0.2-2.9,0.5-4.2,0.7c-1.3,0.2-2.4,0.6-3.5,1
						c-0.9,0.2-1.7,0.6-2.5,1.3c-1.8,1.2-3,2.6-3.8,4.4c-1.5,1.9-3.5,4.6-6.2,8.8c-7.8,12.1-9.7,17.8-10.1,20.4c0,0.2,0,0.4,0,0.6
						c0,0.3,0.1,0.7,0.2,1c3,6.8,4.4,9.2,12.2,17.5c3.7,3.9,5.7,6.2,7.6,7.6c-0.1,1.2,0.7,2.1,2,2.5c0.6,0.2,1,0.2,1.4,0
						c0.1,3,0,5.8-0.2,8.2c-1.2,5.9-1.5,10.7-1.4,14.6c-0.7,6-3.8,49.5-4.9,57.5c0,0.3-0.1,0.6-0.1,0.9c0,0,0,0,0,0
						c-6.1,13.7-5.6,57.6-5.3,66.4c0,0.5,0.1,0.7,0.3,0.8c-0.1,0.5-0.1,1.1-0.1,1.7c0.1,1.1-0.1,2.5-1.1,5.8c-1,3.3,2.5,3.7,8.5,3.6
						c5.6-0.1,4.2-2.3,3.3-3.7c-0.8-1.2-2.3-1.8-2.5-3.3c-0.2-1.1,0-1.7-0.4-3.2c0,0,0,0,0,0c1.3-11.9,8.9-49,12.1-62
						c0.3-1.2,0.4-2.4,0.5-3.4c4-13.5,10.1-36.6,11.6-46.5c2,11.1,6.5,36.2,9.7,47.9c-4.3,16.4,3.8,49.8,4.3,69.1c0,0,0,0,0,0
						c0,0.1-0.1,0.2-0.1,0.4c-0.5,3.7-0.4,3.9,2.9,3.9c2.6,0,4.7,0.1,6.8,0.4c2.2,0.3,6.4,1.1,10.1-0.1c3.7-1.2-2.9-1.8-6.1-3.2
						c-3.1-1.3-5.4-3.4-5.8-4.3c-0.1-0.3-0.3-0.5-0.5-0.7c-0.3-25.6,2.7-51.1,3.2-64.4c0-0.8,0-1.5,0-2.2c0.1-1.2,0.1-2.5-0.1-4
						c-0.5-6-1.5-31.6-2.2-46.8l0,0c0-13.4-1.5-25.2-1.5-25.2s-0.2-33-2.4-54.7c11.7,2.4,17.1,2.3,19.6,1.8c0.8,0.1,1.6-0.1,2.2-0.8
						c3.6-3.8,7.1-8.7,12.5-18c3-5.3,3.9-7.8,4-10.2c2.5-0.6,5.3-2.8,6.4-6.3C173.5,211.3,174.8,204.4,171.9,201.5z M79.1,263.4
						c1.3-1.8,3.2-4.1,5.4-6.9c2.3,9.3,3.9,19.2,4.6,27.9C86.2,277.9,81.7,266.7,79.1,263.4z"/>
				</defs>
				<clipPath id="SVGID_00000035505821978979006500000010896135128472862855_">
					<use xlink:href="#SVGID_00000058586451046082838650000003830666141816467900_"  style="overflow:visible;"/>
				</clipPath>
				
					<linearGradient id="SVGID_00000129914344094005752550000015298856102752589203_" gradientUnits="userSpaceOnUse" x1="317.1118" y1="25.6078" x2="547.6965" y2="167.2742" gradientTransform="matrix(-0.3987 -0.8712 0.5368 -0.4748 160.3165 731.9463)">
					<stop  offset="0" style="stop-color:#3953A4"/>
					<stop  offset="1" style="stop-color:#9D1F60"/>
				</linearGradient>
				
					<path style="opacity:0.3;clip-path:url(#SVGID_00000035505821978979006500000010896135128472862855_);fill:url(#SVGID_00000129914344094005752550000015298856102752589203_);" d="
					M39.8,175.7c21.5-3.6,52,10.8,58.2,33.2c6.3,22.9-10.9,33.9,3.2,65.7c11.2,25.1-1.7,52.7-4.7,74.4c-3.3,23.9,8.6,35.4,4.7,56.7
					c-9.1,49-8.5,63.5-42.2,73.8C24.4,490.4,17.3,442.1-5.2,404c-16.6-28.2-26-57.3-14.7-78c16.3-29.7,40.1,0.4,31.7-35.4
					c-5-21.4-4.2-58.5,26.8-52.9C69.7,243.3,8.8,180.9,39.8,175.7z"/>
			</g>
		</g>
	</g>
</g>
</svg>
