<?xml version="1.0" encoding="utf-8"?>
<!-- Generator: Adobe Illustrator 26.0.2, SVG Export Plug-In . SVG Version: 6.00 Build 0)  -->
<svg version="1.1" id="Layer_1" xmlns="http://www.w3.org/2000/svg" xmlns:xlink="http://www.w3.org/1999/xlink" x="0px" y="0px"
	 viewBox="0 0 553 503" style="enable-background:new 0 0 553 503;" xml:space="preserve">
<style type="text/css">
	.st0{fill:url(#SVGID_1_);}
	
		.st1{clip-path:url(#SVGID_00000015319031881438657480000017723046907687786372_);fill:url(#SVGID_00000041263206743357206440000007910291313258595503_);}
	
		.st2{clip-path:url(#SVGID_00000015319031881438657480000017723046907687786372_);fill:url(#SVGID_00000167366597928425662130000017193006801945019066_);}
	.st3{fill:url(#SVGID_00000071530286812317911920000018330528115515684015_);}
	.st4{fill:url(#SVGID_00000049912053516747030750000009905474800813320126_);}
	.st5{fill:url(#SVGID_00000059269821967926402850000001818187287614150843_);}
	.st6{fill:url(#SVGID_00000146479975907388944700000018434957842108291251_);}
	.st7{fill:url(#SVGID_00000156552443981400980420000000384332301715539855_);}
	.st8{fill:url(#SVGID_00000101097061588152753850000013666717386865947581_);}
	.st9{fill:url(#SVGID_00000005243278258213397320000015836607638319166631_);}
	.st10{fill:url(#SVGID_00000067918763108416703800000001206708569645407411_);}
	.st11{fill:url(#SVGID_00000076600252525158692230000014235832845104109204_);}
	.st12{fill:url(#SVGID_00000000216565067803004900000015195845142490156942_);}
	.st13{fill:url(#SVGID_00000172424791900659827190000012898759620224118674_);}
	.st14{fill:url(#SVGID_00000018922864398197178280000009715442017866504335_);}
	.st15{fill:url(#SVGID_00000014609958638722991030000014071816866104923523_);}
	.st16{fill:url(#SVGID_00000113342159495947609070000008497567667743298228_);}
	.st17{fill:url(#SVGID_00000057829272244391424880000010809510220621230492_);}
	.st18{fill:url(#SVGID_00000108295571795947951090000005936216527035957651_);}
	.st19{fill:url(#SVGID_00000163762932256875589170000010564099642327280290_);}
	.st20{fill:url(#SVGID_00000120544511220199240640000003308974658519251079_);}
	.st21{fill:url(#SVGID_00000031204989103169806350000015241814813566221204_);}
	.st22{fill:#6C74B7;}
	.st23{fill:url(#SVGID_00000066486363497228346920000002332118592209727129_);}
	.st24{fill:url(#SVGID_00000158741161142810476290000009819919560090933916_);}
	.st25{fill:url(#SVGID_00000094609960943904535960000009769791615757849481_);}
	.st26{fill:url(#SVGID_00000170997204119935408250000012225554940753906860_);}
	.st27{fill:url(#SVGID_00000075872700762717937650000015930902044402786187_);}
	.st28{fill:url(#SVGID_00000001655826964528099390000016511864112224857752_);}
	.st29{opacity:0.3;fill:#FEC664;}
	.st30{fill:url(#SVGID_00000007426505091298863790000006699771773827867577_);}
	.st31{fill:url(#SVGID_00000025419034700945754660000011240046223562667699_);}
	.st32{fill:url(#SVGID_00000023248599221504002830000015913495609323183275_);}
	.st33{fill:url(#SVGID_00000179612690353655554310000011320332104717366194_);}
	.st34{fill:#FFFFFF;}
	.st35{fill:#8380B8;}
	.st36{fill:#FFF2D2;}
	.st37{fill:#FFDC8A;}
	.st38{fill:#D8D8D8;}
	.st39{fill:url(#SVGID_00000157281781600463648720000008455727692886736539_);}
	.st40{fill:url(#SVGID_00000183213594996471251610000000553945272419341742_);}
	.st41{fill:#5251A3;}
	.st42{fill:#F9AE85;}
	.st43{fill:url(#SVGID_00000130644830154456648420000015762307461139169415_);}
	.st44{fill:url(#SVGID_00000167367742822048799430000009020397710839978381_);}
	.st45{fill:url(#SVGID_00000102514462273822747070000003793715605464906666_);}
	.st46{fill:#EE1D4A;}
	.st47{fill:url(#SVGID_00000042725381059886416640000009930895120190075011_);}
	.st48{fill:url(#SVGID_00000075857903550620357630000015722678349975053187_);}
	
		.st49{opacity:0.3;clip-path:url(#SVGID_00000023244662507756779350000013559114487515456680_);fill:url(#SVGID_00000160148987416550101890000017071634289587001269_);}
</style>
<g>
	<g>
		
			<linearGradient id="SVGID_1_" gradientUnits="userSpaceOnUse" x1="274.7783" y1="468.6136" x2="274.7783" y2="329.5313" gradientTransform="matrix(0.4071 -0.9134 0.9134 0.4071 -100.6697 386.6814)">
			<stop  offset="0" style="stop-color:#432B7D"/>
			<stop  offset="1" style="stop-color:#D21F39"/>
		</linearGradient>
		<path class="st0" d="M526.3,142c41.7,41.6,14.5,78.9-16.7,87.7c-44.2,12.5-59.8-6.4-68.1,62c-6.1,50.5-55.3,84.8-104.6,54.4
			c-69-42.5-64.8,35.5-89.9,64.7c-51.7,60.4-92.7,20.6-165.7-40.5c-75-62.8-89-129.6-64.9-209.3c17.8-58.9,49-103.8,101.4-98.1
			c75.1,8.2,66.2,83.8,110.1,35.4c26.3-29,87.4-59.4,130.2,10C400.7,177.8,466.3,82.1,526.3,142z"/>
		<g>
			<defs>
				<path id="SVGID_00000160162972191675574380000016081439666878135485_" d="M526.3,142c41.7,41.6,14.5,78.9-16.7,87.7
					c-44.2,12.5-59.8-6.4-68.1,62c-6.1,50.5-55.3,84.8-104.6,54.4c-69-42.5-64.8,35.5-89.9,64.7c-51.7,60.4-92.7,20.6-165.7-40.5
					c-75-62.8-89-129.6-64.9-209.3c17.8-58.9,49-103.8,101.4-98.1c75.1,8.2,66.2,83.8,110.1,35.4c26.3-29,87.4-59.4,130.2,10
					C400.7,177.8,466.3,82.1,526.3,142z"/>
			</defs>
			<clipPath id="SVGID_00000133497928927201825400000000543861548520004286_">
				<use xlink:href="#SVGID_00000160162972191675574380000016081439666878135485_"  style="overflow:visible;"/>
			</clipPath>
			
				<linearGradient id="SVGID_00000156558477918209346190000007081317429970879934_" gradientUnits="userSpaceOnUse" x1="281.2847" y1="453.385" x2="281.2847" y2="232.2469" gradientTransform="matrix(0.4071 -0.9134 0.9134 0.4071 -100.6697 386.6814)">
				<stop  offset="0" style="stop-color:#432B7D"/>
				<stop  offset="1" style="stop-color:#D21F39"/>
			</linearGradient>
			
				<path style="clip-path:url(#SVGID_00000133497928927201825400000000543861548520004286_);fill:url(#SVGID_00000156558477918209346190000007081317429970879934_);" d="
				M486.1,61.8c-0.4,19.1-11.2,38.5-28.7,50.7c-11.2,7.8-21,12.7-29.6,17c-26.6,13.3-37.6,18.8-22.5,81.2c8.2,33.8-0.6,67.9-23,89.1
				c-19.7,18.7-47.4,25.2-77.9,18.4c-25.2-5.7-42.8-4.4-53.7,3.7c-15.6,11.7-15.9,36.7-16.1,60.9c-0.2,16.3-0.3,33.1-5.2,46.1
				c-10.8,28.9-25.3,47-44.4,55.2c-35.9,15.4-85.3-3.4-153.8-29.6c-5.3-2-10.6-4.1-16.1-6.1c-56.9-21.6-97.9-50.4-125.5-88.2
				c-25.7-35.2-40-78.7-43.5-133c-2.7-41.7,1.4-75.9,12.2-101.7c12.6-30,34.5-48.7,65-55.4c43.6-9.7,71.9,5.8,92.6,17
				c12.4,6.7,22.1,12.1,30.5,9.3C53.5,94,60,85.2,66.7,68.8C77,43.4,101.9,10.5,137.8,1.7c28.3-6.9,58.2,1.9,88.7,26.3
				c39.9,31.8,67.4,13.3,99.3-8.1c30-20.2,64-43,112.5-19.7c36.9,17.7,46.3,40.4,47.7,56.3C486.1,58.2,486.2,60,486.1,61.8z"/>
			
				<linearGradient id="SVGID_00000043419618923613390580000003295497694795480708_" gradientUnits="userSpaceOnUse" x1="290.4415" y1="383.4788" x2="290.4415" y2="195.4397" gradientTransform="matrix(0.4071 -0.9134 0.9134 0.4071 -100.6697 386.6814)">
				<stop  offset="0" style="stop-color:#432B7D"/>
				<stop  offset="1" style="stop-color:#D21F39"/>
			</linearGradient>
			
				<path style="clip-path:url(#SVGID_00000133497928927201825400000000543861548520004286_);fill:url(#SVGID_00000043419618923613390580000003295497694795480708_);" d="
				M453.6,60.5c-3,18.9-16.5,36.8-35.5,46.7c-12.1,6.3-22.5,9.9-31.7,13.1c-28.2,9.8-39.9,13.9-33.5,77.7
				c3.5,34.5-10,67.2-35.1,85.5c-22.1,16.1-50.5,19.1-79.8,8.4c-24.2-8.8-41.8-9.8-53.7-3c-17.1,9.6-20.8,34.4-24.4,58.4
				c-2.4,16.1-4.9,32.8-11.5,45c-14.7,27.3-31.6,43.4-51.7,49.1C59,452.2,12.6,427.2-51.7,392.8c-4.9-2.7-10-5.4-15.1-8.1
				c-53.4-28.5-90.1-62.2-112.3-103.1c-20.6-38.1-28.8-83-24.8-137.3c3-41.7,11.9-75.1,26.2-99.3C-161,16.8-136.8,1-105.6-1.8
				c44.5-4.1,70.5,14.7,89.4,28.5c11.3,8.2,20.3,14.7,28.9,13c7.6-1.5,15.2-9.4,24.1-24.8c13.8-23.9,43-53.4,79.8-57.6
				c29-3.3,57.4,9.2,84.3,37.1c35.1,36.6,65,21.7,99.6,4.4c32.5-16.2,69.3-34.6,114.3-5.4c34.1,22.2,40.3,45.8,39.5,61.8
				C454,57,453.9,58.7,453.6,60.5z"/>
		</g>
	</g>
	<g>
		<g>
			<g>
				
					<linearGradient id="SVGID_00000016784577958333563100000006329109086475401902_" gradientUnits="userSpaceOnUse" x1="148.9094" y1="341.3999" x2="148.9094" y2="353.8874">
					<stop  offset="0" style="stop-color:#636FB4"/>
					<stop  offset="0.1203" style="stop-color:#6971B1"/>
					<stop  offset="0.2793" style="stop-color:#7877AD"/>
					<stop  offset="0.46" style="stop-color:#8F82A6"/>
					<stop  offset="0.6567" style="stop-color:#B0929A"/>
					<stop  offset="0.864" style="stop-color:#DAA987"/>
					<stop  offset="1" style="stop-color:#FCBD76"/>
				</linearGradient>
				<path style="fill:url(#SVGID_00000016784577958333563100000006329109086475401902_);" d="M110.1,343.9l5.2-4.1h33.7h33.7
					l5.2,4.1c0.9,0.7,1.4,1.7,1.4,2.8c0,2-1.6,3.6-3.6,3.6h-36.6h-36.6c-2,0-3.6-1.6-3.6-3.6C108.7,345.7,109.2,344.6,110.1,343.9z"
					/>
				
					<linearGradient id="SVGID_00000019654635693778210350000010993431626943763853_" gradientUnits="userSpaceOnUse" x1="148.9094" y1="236.2162" x2="148.9094" y2="253.0635">
					<stop  offset="0" style="stop-color:#636FB4"/>
					<stop  offset="0.1203" style="stop-color:#6971B1"/>
					<stop  offset="0.2793" style="stop-color:#7877AD"/>
					<stop  offset="0.46" style="stop-color:#8F82A6"/>
					<stop  offset="0.6567" style="stop-color:#B0929A"/>
					<stop  offset="0.864" style="stop-color:#DAA987"/>
					<stop  offset="1" style="stop-color:#FCBD76"/>
				</linearGradient>
				<path style="fill:url(#SVGID_00000019654635693778210350000010993431626943763853_);" d="M164.4,244.5h-31
					c-0.9,0-1.7-0.8-1.7-1.7l0,0c0-0.9,0.8-1.7,1.7-1.7h31c0.9,0,1.7,0.8,1.7,1.7l0,0C166.1,243.7,165.4,244.5,164.4,244.5z"/>
				
					<linearGradient id="SVGID_00000134251236886906743350000002797669919371237290_" gradientUnits="userSpaceOnUse" x1="156.5681" y1="157.2513" x2="140.4244" y2="213.3573">
					<stop  offset="0" style="stop-color:#636FB4"/>
					<stop  offset="0.1203" style="stop-color:#6971B1"/>
					<stop  offset="0.2793" style="stop-color:#7877AD"/>
					<stop  offset="0.46" style="stop-color:#8F82A6"/>
					<stop  offset="0.6567" style="stop-color:#B0929A"/>
					<stop  offset="0.864" style="stop-color:#DAA987"/>
					<stop  offset="1" style="stop-color:#FCBD76"/>
				</linearGradient>
				<path style="fill:url(#SVGID_00000134251236886906743350000002797669919371237290_);" d="M152.8,188h-7.7
					c-1.1-1-1.8-2.5-1.8-4.2c0-3.1,2.5-5.7,5.7-5.7c3.1,0,5.7,2.5,5.7,5.7C154.6,185.5,153.9,187,152.8,188z"/>
				
					<linearGradient id="SVGID_00000137122983004605945210000008008214060634840738_" gradientUnits="userSpaceOnUse" x1="148.9096" y1="247.8788" x2="148.9096" y2="257.9532">
					<stop  offset="0" style="stop-color:#636FB4"/>
					<stop  offset="0.1203" style="stop-color:#6971B1"/>
					<stop  offset="0.2793" style="stop-color:#7877AD"/>
					<stop  offset="0.46" style="stop-color:#8F82A6"/>
					<stop  offset="0.6567" style="stop-color:#B0929A"/>
					<stop  offset="0.864" style="stop-color:#DAA987"/>
					<stop  offset="1" style="stop-color:#FCBD76"/>
				</linearGradient>
				<path style="fill:url(#SVGID_00000137122983004605945210000008008214060634840738_);" d="M166.3,248.6h-34.8
					c-1.2,0-2.2,1-2.2,2.2c0,1.2,1,2.2,2.2,2.2h34.8c1.2,0,2.2-1,2.2-2.2C168.5,249.6,167.5,248.6,166.3,248.6z"/>
				
					<linearGradient id="SVGID_00000086674280196617311270000013832319258683448461_" gradientUnits="userSpaceOnUse" x1="157.4892" y1="216.7357" x2="139.2021" y2="280.291">
					<stop  offset="0" style="stop-color:#636FB4"/>
					<stop  offset="0.1203" style="stop-color:#6971B1"/>
					<stop  offset="0.2793" style="stop-color:#7877AD"/>
					<stop  offset="0.46" style="stop-color:#8F82A6"/>
					<stop  offset="0.6567" style="stop-color:#B0929A"/>
					<stop  offset="0.864" style="stop-color:#DAA987"/>
					<stop  offset="1" style="stop-color:#FCBD76"/>
				</linearGradient>
				
					<rect x="134" y="244.5" style="fill:url(#SVGID_00000086674280196617311270000013832319258683448461_);" width="29.8" height="4.1"/>
				
					<linearGradient id="SVGID_00000150070191334193642960000003606186834107395004_" gradientUnits="userSpaceOnUse" x1="148.9095" y1="247.8788" x2="148.9095" y2="264.5606">
					<stop  offset="0" style="stop-color:#636FB4"/>
					<stop  offset="0.1203" style="stop-color:#6971B1"/>
					<stop  offset="0.2793" style="stop-color:#7877AD"/>
					<stop  offset="0.46" style="stop-color:#8F82A6"/>
					<stop  offset="0.6567" style="stop-color:#B0929A"/>
					<stop  offset="0.864" style="stop-color:#DAA987"/>
					<stop  offset="1" style="stop-color:#FCBD76"/>
				</linearGradient>
				<path style="fill:url(#SVGID_00000150070191334193642960000003606186834107395004_);" d="M168.8,252.9H129
					c-2.3,0-4.2,1.9-4.2,4.2c0,2.3,1.9,4.2,4.2,4.2h39.8c2.3,0,4.2-1.9,4.2-4.2C173,254.8,171.1,252.9,168.8,252.9z"/>
				
					<linearGradient id="SVGID_00000053523528002125833430000018264741923064552109_" gradientUnits="userSpaceOnUse" x1="148.9096" y1="267.6865" x2="148.9096" y2="337.6611">
					<stop  offset="0" style="stop-color:#636FB4"/>
					<stop  offset="0.1203" style="stop-color:#6971B1"/>
					<stop  offset="0.2793" style="stop-color:#7877AD"/>
					<stop  offset="0.46" style="stop-color:#8F82A6"/>
					<stop  offset="0.6567" style="stop-color:#B0929A"/>
					<stop  offset="0.864" style="stop-color:#DAA987"/>
					<stop  offset="1" style="stop-color:#FCBD76"/>
				</linearGradient>
				<path style="fill:url(#SVGID_00000053523528002125833430000018264741923064552109_);" d="M160,279.5c0-13.7,2.1-18.3,2.1-18.3
					h-26.3c0,0,2.1,4.6,2.1,18.3c0,13.7-8.8,39.4-8.8,39.4s10.3,0,16,0h3.8c0.8,0,19.9,0,19.9,0S160,293.2,160,279.5z"/>
				
					<linearGradient id="SVGID_00000115473405766663660550000009277095269072104853_" gradientUnits="userSpaceOnUse" x1="148.9095" y1="309.0794" x2="148.9095" y2="358.5276">
					<stop  offset="0" style="stop-color:#636FB4"/>
					<stop  offset="0.1203" style="stop-color:#6971B1"/>
					<stop  offset="0.2793" style="stop-color:#7877AD"/>
					<stop  offset="0.46" style="stop-color:#8F82A6"/>
					<stop  offset="0.6567" style="stop-color:#B0929A"/>
					<stop  offset="0.864" style="stop-color:#DAA987"/>
					<stop  offset="1" style="stop-color:#FCBD76"/>
				</linearGradient>
				<path style="fill:url(#SVGID_00000115473405766663660550000009277095269072104853_);" d="M184.9,332.8
					c-2.9-1.6-8.3-4.8-10.3-7.3c-1.6-2.1-2.4-3.9-2.8-5.1c-0.3-0.8-1-1.4-1.9-1.4H128c-0.9,0-1.7,0.6-1.9,1.4
					c-0.4,1.2-1.2,3-2.8,5.1c-2,2.6-7.4,5.7-10.3,7.3c-1.2,0.7-2,1.9-2,3.3c0,2.1,1.7,3.8,3.8,3.8h68.3c2.1,0,3.8-1.7,3.8-3.8
					C186.8,334.7,186.1,333.5,184.9,332.8z"/>
				
					<linearGradient id="SVGID_00000030461040503095195000000004954157423816983437_" gradientUnits="userSpaceOnUse" x1="178.8125" y1="184.2661" x2="125.4978" y2="249.66">
					<stop  offset="0" style="stop-color:#636FB4"/>
					<stop  offset="0.1203" style="stop-color:#6971B1"/>
					<stop  offset="0.2793" style="stop-color:#7877AD"/>
					<stop  offset="0.46" style="stop-color:#8F82A6"/>
					<stop  offset="0.6567" style="stop-color:#B0929A"/>
					<stop  offset="0.864" style="stop-color:#DAA987"/>
					<stop  offset="1" style="stop-color:#FCBD76"/>
				</linearGradient>
				<path style="fill:url(#SVGID_00000030461040503095195000000004954157423816983437_);" d="M157.7,192.8l-6.6,23.6
					c-0.3,1-1.2,1.6-2.1,1.6c-0.2,0-0.4,0-0.6-0.1c-1.2-0.3-1.9-1.6-1.5-2.7l7.3-26c-0.8-0.8-1.3-1.2-1.3-1.2h-7.7
					c0,0-17.6,14.9-17.6,29.2c0,14.3,5.9,23.9,5.9,23.9h31c0,0,5.9-9.6,5.9-23.9C170.3,207.9,162.9,198.3,157.7,192.8z"/>
			</g>
			<g>
				
					<linearGradient id="SVGID_00000003072551991440994590000016167371459473812352_" gradientUnits="userSpaceOnUse" x1="228.5584" y1="364.0304" x2="228.5584" y2="342.7415">
					<stop  offset="0" style="stop-color:#F47827"/>
					<stop  offset="1" style="stop-color:#FEC15D"/>
				</linearGradient>
				<path style="fill:url(#SVGID_00000003072551991440994590000016167371459473812352_);" d="M173,341.2l7.4-5.9h48.2h48.2l7.4,5.9
					c1.2,1,2,2.5,2,4.1c0,2.9-2.3,5.2-5.2,5.2h-52.3h-52.3c-2.9,0-5.2-2.3-5.2-5.2C171,343.6,171.8,342.1,173,341.2z"/>
				
					<linearGradient id="SVGID_00000134230521340128553040000007231401199892797881_" gradientUnits="userSpaceOnUse" x1="228.5584" y1="179.2051" x2="228.5584" y2="174.5048">
					<stop  offset="0.2482" style="stop-color:#FFDC89"/>
					<stop  offset="0.9888" style="stop-color:#FFF2A9"/>
				</linearGradient>
				<path style="fill:url(#SVGID_00000134230521340128553040000007231401199892797881_);" d="M250.5,178.7h-44
					c-1.3,0-2.4-1.1-2.4-2.4l0,0c0-1.3,1.1-2.4,2.4-2.4h44c1.3,0,2.4,1.1,2.4,2.4l0,0C252.9,177.7,251.9,178.7,250.5,178.7z"/>
				
					<linearGradient id="SVGID_00000044867051465772423630000012392416006942922132_" gradientUnits="userSpaceOnUse" x1="228.5585" y1="191.1999" x2="228.5585" y2="185.1558">
					<stop  offset="0.2482" style="stop-color:#FFDC89"/>
					<stop  offset="0.9888" style="stop-color:#FFF2A9"/>
				</linearGradient>
				<path style="fill:url(#SVGID_00000044867051465772423630000012392416006942922132_);" d="M253.2,184.6h-49.3c-1.7,0-3,1.4-3,3
					c0,1.7,1.4,3,3,3h49.3c1.7,0,3-1.4,3-3C256.3,185.9,254.9,184.6,253.2,184.6z"/>
				
					<linearGradient id="SVGID_00000135662566894008942610000011265215229243997347_" gradientUnits="userSpaceOnUse" x1="228.5585" y1="201.3203" x2="228.5585" y2="180.302">
					<stop  offset="0" style="stop-color:#F47827"/>
					<stop  offset="1" style="stop-color:#FEC15D"/>
				</linearGradient>
				
					<rect x="207.5" y="178.7" style="fill:url(#SVGID_00000135662566894008942610000011265215229243997347_);" width="42.2" height="5.8"/>
				
					<linearGradient id="SVGID_00000106865786251667465480000011252055025078861977_" gradientUnits="userSpaceOnUse" x1="228.5585" y1="203.5693" x2="228.5585" y2="194.5246">
					<stop  offset="0.2482" style="stop-color:#FFDC89"/>
					<stop  offset="0.9888" style="stop-color:#FFF2A9"/>
				</linearGradient>
				<path style="fill:url(#SVGID_00000106865786251667465480000011252055025078861977_);" d="M200.3,190.7h56.5
					c3.3,0,5.9,2.7,5.9,5.9c0,3.3-2.7,5.9-5.9,5.9h-56.5c-3.3,0-5.9-2.7-5.9-5.9C194.4,193.3,197.1,190.7,200.3,190.7z"/>
				
					<linearGradient id="SVGID_00000138546318768849362920000001823655383249861042_" gradientUnits="userSpaceOnUse" x1="228.5585" y1="355.1649" x2="228.5585" y2="285.6022">
					<stop  offset="0" style="stop-color:#F47827"/>
					<stop  offset="1" style="stop-color:#FEC15D"/>
				</linearGradient>
				<path style="fill:url(#SVGID_00000138546318768849362920000001823655383249861042_);" d="M244.6,237.4c0-26.2,3-34.9,3-34.9
					h-38.1c0,0,3,8.8,3,34.9c0,26.2-12.7,67.9-12.7,67.9h57.4C257.3,305.3,244.6,263.6,244.6,237.4z"/>
				
					<linearGradient id="SVGID_00000061435699204189528980000009433235574754446259_" gradientUnits="userSpaceOnUse" x1="228.5585" y1="339.9163" x2="228.5585" y2="313.0356">
					<stop  offset="0.2482" style="stop-color:#FFDC89"/>
					<stop  offset="0.9888" style="stop-color:#FFF2A9"/>
				</linearGradient>
				<path style="fill:url(#SVGID_00000061435699204189528980000009433235574754446259_);" d="M280,325.2
					c-4.2-2.3-11.9-6.8-14.8-10.5c-2.3-3-3.4-5.6-4-7.3c-0.4-1.2-1.5-2-2.7-2h-59.9c-1.3,0-2.4,0.8-2.7,2c-0.5,1.7-1.7,4.4-4,7.3
					c-2.9,3.7-10.6,8.2-14.8,10.5c-1.7,0.9-2.8,2.7-2.8,4.7c0,3,2.4,5.4,5.4,5.4h97.8c3,0,5.4-2.4,5.4-5.4
					C282.8,328,281.8,326.2,280,325.2z"/>
				
					<linearGradient id="SVGID_00000129927744465681997510000010131797324719516828_" gradientUnits="userSpaceOnUse" x1="228.5585" y1="155.1006" x2="228.5585" y2="116.5953">
					<stop  offset="0" style="stop-color:#F47827"/>
					<stop  offset="1" style="stop-color:#FEC15D"/>
				</linearGradient>
				
					<ellipse style="fill:url(#SVGID_00000129927744465681997510000010131797324719516828_);" cx="228.6" cy="138.2" rx="18.9" ry="13.4"/>
				
					<linearGradient id="SVGID_00000006698684022669657280000014262131050149472954_" gradientUnits="userSpaceOnUse" x1="228.5585" y1="159.483" x2="228.5585" y2="140.597">
					<stop  offset="0.2482" style="stop-color:#FFDC89"/>
					<stop  offset="0.9888" style="stop-color:#FFF2A9"/>
				</linearGradient>
				<path style="fill:url(#SVGID_00000006698684022669657280000014262131050149472954_);" d="M260.5,133.9c-1.1,0-4.7,4-6.1,4
					c-1.4,0-2-3.8-3.2-4.1c-1.9-0.4-4.3,3.9-7.1,3.9c-2.8,0-4.5-4.2-6.5-4.2c-2.8,0-3.9,4.7-9,4.7c-5,0-6.2-4.7-9-4.7
					c-1.9,0-3.7,4.2-6.5,4.2c-2.8,0-5.2-4.4-7.1-3.9c-1.2,0.3-1.8,4.1-3.2,4.1c-1.4,0-5-4-6.1-4c-1.1,0-3.7,3.8,1.7,11.5
					c5.3,7.7,9.2,20.4,9.2,28.5h42.2c0-8.1,3.9-20.8,9.2-28.5C264.2,137.7,261.6,133.9,260.5,133.9z"/>
				
					<linearGradient id="SVGID_00000179632138053063874870000001733742248842627481_" gradientUnits="userSpaceOnUse" x1="228.5585" y1="155.1007" x2="228.5585" y2="116.5953">
					<stop  offset="0" style="stop-color:#F47827"/>
					<stop  offset="1" style="stop-color:#FEC15D"/>
				</linearGradient>
				<path style="fill:url(#SVGID_00000179632138053063874870000001733742248842627481_);" d="M236.8,117.2c0,4.5-3.7,8.2-8.2,8.2
					c-4.5,0-8.2-3.7-8.2-8.2c0-4.5,3.7-8.2,8.2-8.2C233.1,109,236.8,112.7,236.8,117.2z"/>
			</g>
			<polygon class="st22" points="100.5,350.4 100.5,381.5 100.5,412.5 100.5,443.6 317.6,443.6 317.6,412.5 317.6,381.5 
				317.6,350.4 			"/>
			
				<linearGradient id="SVGID_00000080188898585619995660000016684239691742075309_" gradientUnits="userSpaceOnUse" x1="159.9897" y1="436.1209" x2="309.4864" y2="334.871">
				<stop  offset="0" style="stop-color:#636FB4"/>
				<stop  offset="0.1203" style="stop-color:#6971B1"/>
				<stop  offset="0.2793" style="stop-color:#7877AD"/>
				<stop  offset="0.46" style="stop-color:#8F82A6"/>
				<stop  offset="0.6567" style="stop-color:#B0929A"/>
				<stop  offset="0.864" style="stop-color:#DAA987"/>
				<stop  offset="1" style="stop-color:#FCBD76"/>
			</linearGradient>
			
				<rect x="209.7" y="350.4" style="fill:url(#SVGID_00000080188898585619995660000016684239691742075309_);" width="107.9" height="31.1"/>
			
				<linearGradient id="SVGID_00000100379519678373221760000017699825654467678374_" gradientUnits="userSpaceOnUse" x1="224.879" y1="442.789" x2="338.3605" y2="365.3226">
				<stop  offset="0" style="stop-color:#636FB4"/>
				<stop  offset="0.1203" style="stop-color:#6971B1"/>
				<stop  offset="0.2793" style="stop-color:#7877AD"/>
				<stop  offset="0.46" style="stop-color:#8F82A6"/>
				<stop  offset="0.6567" style="stop-color:#B0929A"/>
				<stop  offset="0.864" style="stop-color:#DAA987"/>
				<stop  offset="1" style="stop-color:#FCBD76"/>
			</linearGradient>
			
				<rect x="238" y="381.5" style="fill:url(#SVGID_00000100379519678373221760000017699825654467678374_);" width="107.9" height="31.1"/>
			
				<linearGradient id="SVGID_00000098906629151436634500000003078661363281040574_" gradientUnits="userSpaceOnUse" x1="279.1543" y1="473.6146" x2="336.2351" y2="410.4181">
				<stop  offset="0" style="stop-color:#636FB4"/>
				<stop  offset="0.1203" style="stop-color:#6971B1"/>
				<stop  offset="0.2793" style="stop-color:#7877AD"/>
				<stop  offset="0.46" style="stop-color:#8F82A6"/>
				<stop  offset="0.6567" style="stop-color:#B0929A"/>
				<stop  offset="0.864" style="stop-color:#DAA987"/>
				<stop  offset="1" style="stop-color:#FCBD76"/>
			</linearGradient>
			
				<rect x="266.3" y="412.5" style="fill:url(#SVGID_00000098906629151436634500000003078661363281040574_);" width="107.9" height="31.1"/>
			
				<linearGradient id="SVGID_00000143592362656669438710000008652383310968130225_" gradientUnits="userSpaceOnUse" x1="337.0856" y1="131.5982" x2="387.4763" y2="131.5982">
				<stop  offset="0.2482" style="stop-color:#FFDC89"/>
				<stop  offset="0.9888" style="stop-color:#FFF2A9"/>
			</linearGradient>
			<path style="fill:url(#SVGID_00000143592362656669438710000008652383310968130225_);" d="M376.2,125.6c1.6-0.8,3.5-0.7,5.1,0
				c1.5,0.7,2.8,2.9,4.5,2.8c1.7-0.2,1.7-1.7,1.7-5v-16.9h-46.6c-2.1,0-3.8,1.7-3.8,3.8v46.6h17c3.2,0,4.8,0,4.9-1.7
				c0.2-1.7-2.1-3.1-2.8-4.5c-0.7-1.6-0.8-3.5,0-5.1c1.1-2.1,3.8-2.6,6-2.6s4.9,0.4,6,2.6c0.8,1.6,0.7,3.5,0,5.1
				c-0.7,1.5-2.9,2.8-2.8,4.5c0.2,1.7,1.7,1.7,4.9,1.7h17v-16.9c0-3.2,0-4.8-1.7-5c-1.7-0.2-3.1,2.1-4.5,2.8c-1.6,0.7-3.5,0.8-5.1,0
				c-2.1-1.1-2.6-3.8-2.6-6C373.6,129.4,374,126.7,376.2,125.6z"/>
			
				<linearGradient id="SVGID_00000025425508655906091010000009638823042292110240_" gradientUnits="userSpaceOnUse" x1="321.5727" y1="139.8098" x2="378.9067" y2="197.6256">
				<stop  offset="0" style="stop-color:#F47827"/>
				<stop  offset="1" style="stop-color:#FEC15D"/>
			</linearGradient>
			<path style="fill:url(#SVGID_00000025425508655906091010000009638823042292110240_);" d="M376.2,176c1.6-0.8,3.5-0.7,5.1,0
				c1.5,0.7,2.8,2.9,4.5,2.8c1.7-0.2,1.7-1.7,1.7-5v-16.9h-16.9c-3.2,0-4.8,0-5-1.7c-0.2-1.7,2.1-3.1,2.8-4.5c0.7-1.6,0.8-3.5,0-5.1
				c-1.1-2.1-3.8-2.6-6-2.6s-4.9,0.4-6,2.6c-0.8,1.6-0.7,3.5,0,5.1c0.7,1.5,2.9,2.8,2.8,4.5c-0.2,1.7-1.7,1.7-5,1.7h-16.9v46.6
				c0,2.1,1.7,3.8,3.8,3.8h46.6v-16.9c0-3.2,0-4.8-1.7-5c-1.7-0.2-3.1,2.1-4.5,2.8c-1.6,0.7-3.5,0.8-5.1,0c-2.1-1.1-2.6-3.8-2.6-6
				C373.6,179.8,374,177.1,376.2,176z"/>
			
				<linearGradient id="SVGID_00000168086107773583404030000014849423823605531008_" gradientUnits="userSpaceOnUse" x1="428.1281" y1="148.5774" x2="386.6931" y2="228.5566">
				<stop  offset="0" style="stop-color:#636FB4"/>
				<stop  offset="0.1203" style="stop-color:#6971B1"/>
				<stop  offset="0.2793" style="stop-color:#7877AD"/>
				<stop  offset="0.46" style="stop-color:#8F82A6"/>
				<stop  offset="0.6567" style="stop-color:#B0929A"/>
				<stop  offset="0.864" style="stop-color:#DAA987"/>
				<stop  offset="1" style="stop-color:#FCBD76"/>
			</linearGradient>
			<path style="fill:url(#SVGID_00000168086107773583404030000014849423823605531008_);" d="M437.9,156.8h-16.9c-3.2,0-4.8,0-5-1.7
				c-0.2-1.7,2.1-3.1,2.8-4.5c0.7-1.6,0.8-3.5,0-5.1c-1.1-2.1-3.8-2.6-6-2.6c-2.2,0-4.9,0.4-6,2.6c-0.8,1.6-0.7,3.5,0,5.1
				c0.7,1.5,2.9,2.8,2.8,4.5c-0.2,1.7-1.7,1.7-5,1.7h-16.9v16.9c0,3.2,0,4.8-1.7,5c-1.7,0.2-3.1-2.1-4.5-2.8c-1.6-0.7-3.5-0.8-5.1,0
				c-2.1,1.1-2.6,3.8-2.6,6c0,2.2,0.4,4.9,2.6,6c1.6,0.8,3.5,0.7,5.1,0c1.5-0.7,2.8-2.9,4.5-2.8c1.7,0.2,1.7,1.7,1.7,5v16.9H434
				c2.1,0,3.8-1.7,3.8-3.8V156.8z"/>
			<g>
				<path class="st29" d="M337.1,110.2v46.6V168h10c1.9,0,3.5-1.6,3.5-3.5v-58.1h-9.6C338.8,106.4,337.1,108.1,337.1,110.2z"/>
				
					<linearGradient id="SVGID_00000017507679545682138870000012835871255092036749_" gradientUnits="userSpaceOnUse" x1="229.6067" y1="38.9658" x2="357.8936" y2="161.3133">
					<stop  offset="0" style="stop-color:#636FB4"/>
					<stop  offset="0.1203" style="stop-color:#6971B1"/>
					<stop  offset="0.2793" style="stop-color:#7877AD"/>
					<stop  offset="0.46" style="stop-color:#8F82A6"/>
					<stop  offset="0.6567" style="stop-color:#B0929A"/>
					<stop  offset="0.864" style="stop-color:#DAA987"/>
					<stop  offset="1" style="stop-color:#FCBD76"/>
				</linearGradient>
				<path style="fill:url(#SVGID_00000017507679545682138870000012835871255092036749_);" d="M344.2,162.7h-64.1
					c-1.4,0-2.5-1.1-2.5-2.5V75.2c0-1.4,1.1-2.5,2.5-2.5h64.1c1.4,0,2.5,1.1,2.5,2.5v84.9C346.8,161.6,345.6,162.7,344.2,162.7z"/>
				
					<linearGradient id="SVGID_00000145762814550930197970000004147890449005353376_" gradientUnits="userSpaceOnUse" x1="343.168" y1="86.8657" x2="289.3056" y2="142.9913">
					<stop  offset="0.2482" style="stop-color:#FFDC89"/>
					<stop  offset="0.9888" style="stop-color:#FFF2A9"/>
				</linearGradient>
				<circle style="fill:url(#SVGID_00000145762814550930197970000004147890449005353376_);" cx="295.9" cy="136.2" r="5.6"/>
				
					<linearGradient id="SVGID_00000111884860189947590780000001712147959918357438_" gradientUnits="userSpaceOnUse" x1="349.417" y1="92.8623" x2="295.5543" y2="148.9883">
					<stop  offset="0.2482" style="stop-color:#FFDC89"/>
					<stop  offset="0.9888" style="stop-color:#FFF2A9"/>
				</linearGradient>
				<path style="fill:url(#SVGID_00000111884860189947590780000001712147959918357438_);" d="M336.6,112.1c0,3.1-2.5,5.6-5.6,5.6
					s-5.6-2.5-5.6-5.6s2.5-5.6,5.6-5.6S336.6,109,336.6,112.1z"/>
				
					<linearGradient id="SVGID_00000057844525527339681070000015550324493742869168_" gradientUnits="userSpaceOnUse" x1="319.125" y1="63.7915" x2="265.2621" y2="119.9176">
					<stop  offset="0.2482" style="stop-color:#FFDC89"/>
					<stop  offset="0.9888" style="stop-color:#FFF2A9"/>
				</linearGradient>
				<path style="fill:url(#SVGID_00000057844525527339681070000015550324493742869168_);" d="M301.5,88c0,3.1-2.5,5.6-5.6,5.6
					s-5.6-2.5-5.6-5.6c0-3.1,2.5-5.6,5.6-5.6S301.5,84.9,301.5,88z"/>
				<g>
					<g>
						<g>
							<path class="st34" d="M306.3,132.6c-0.2,0-0.5-0.1-0.5-0.4c-0.1-0.3,0-0.6,0.3-0.8c6.1-2.3,11.8-5.9,16.4-10.6
								c0.2-0.2,0.6-0.2,0.8,0c0.2,0.2,0.2,0.6,0,0.8c-4.7,4.8-10.5,8.5-16.8,10.9C306.5,132.6,306.4,132.6,306.3,132.6z"/>
						</g>
						<g>
							<path class="st34" d="M322.9,125.4c-0.3,0-0.6-0.3-0.6-0.6v-3h-3c-0.3,0-0.6-0.3-0.6-0.6s0.3-0.6,0.6-0.6h3.6
								c0.3,0,0.6,0.3,0.6,0.6v3.6C323.5,125.1,323.2,125.4,322.9,125.4z"/>
						</g>
					</g>
				</g>
				<g>
					<g>
						<g>
							<path class="st34" d="M322.3,105.2c-0.2,0-0.3-0.1-0.5-0.2c-4.1-5.1-9.3-9.4-15.1-12.3c-0.3-0.1-0.4-0.5-0.3-0.8
								c0.1-0.3,0.5-0.4,0.8-0.3c6,3,11.4,7.4,15.5,12.6c0.2,0.3,0.2,0.6-0.1,0.8C322.5,105.1,322.4,105.2,322.3,105.2z"/>
						</g>
						<g>
							<path class="st34" d="M308,96.1c-0.2,0-0.5-0.2-0.6-0.4l-1.1-3.4c-0.1-0.3,0.1-0.6,0.4-0.7l3.4-1.1c0.3-0.1,0.6,0.1,0.7,0.4
								c0.1,0.3-0.1,0.6-0.4,0.7l-2.8,0.9l0.9,2.8c0.1,0.3-0.1,0.6-0.4,0.7C308.2,96.1,308.1,96.1,308,96.1z"/>
						</g>
					</g>
				</g>
				<rect x="290.2" y="147" class="st35" width="43.9" height="2.2"/>
				<rect x="301.9" y="152.4" class="st35" width="20.5" height="2.2"/>
			</g>
			<g>
				<g>
					<path class="st36" d="M156.9,139.9c0,3.8-3.1,7-7,7c-3.8,0-7-3.1-7-7c0-3.8,3.1-7,7-7c0.9,0,1.9,0.2,2.7,0.5
						c0.1,0.1,0.2,0.1,0.4,0.2c0.2-0.3,0.4-0.6,0.7-0.9c0.3-0.5,0.7-0.9,1-1.4c-0.3-0.2-0.6-0.4-1-0.5c-1.2-0.5-2.5-0.8-3.8-0.8
						c-5.4,0-9.8,4.4-9.8,9.8c0,5.4,4.4,9.8,9.8,9.8c5.4,0,9.8-4.4,9.8-9.8c0-1.7-0.4-3.3-1.2-4.8c0,0,0,0,0,0
						c-0.7,0.6-1.5,1.2-2.3,1.7C156.7,137.8,156.9,138.9,156.9,139.9z"/>
					<path class="st36" d="M163.3,130.6l-2,2c0.1,0.2,0.3,0.4,0.4,0.6c1.2,2,1.8,4.3,1.8,6.7c0,7.4-6,13.5-13.5,13.5
						c-7.4,0-13.5-6-13.5-13.5c0-7.4,6-13.5,13.5-13.5c2.2,0,4.2,0.5,6.2,1.5c0.4,0.2,0.7,0.5,1.1,0.7l2.1-2.1
						c-0.6-0.4-1.2-0.8-1.9-1.1c-2.3-1.2-4.9-1.8-7.5-1.8c-9,0-16.3,7.3-16.3,16.3s7.3,16.3,16.3,16.3c9,0,16.3-7.3,16.3-16.3
						c0-2.8-0.7-5.6-2.1-8.1C163.9,131.4,163.6,131,163.3,130.6z"/>
					<path class="st36" d="M147,139.9c0,1.6,1.3,3,3,3c1.6,0,3-1.3,3-3c0-1.6-1.3-3-3-3C148.3,137,147,138.3,147,139.9z"/>
				</g>
				<path class="st36" d="M175.5,119.3h-4.9v-4.9l-5.7,5.7l0,2.9l-2,2l-5.7,5.7c-0.6,0.6-4.6,5.5-4,6s5.5-3.5,6-4l5.7-5.7l2-2l2.9,0
					L175.5,119.3z"/>
			</g>
			<path class="st36" d="M326.7,295.3c-0.7-0.7-1.5-1-2.4-0.9c-1.1,0.1-2.2,0.8-3.1,1.5c0-0.8,0.1-1.6,0.1-2.4h-20.7
				c0,0.9,0,1.7,0.1,2.4c-0.9-0.7-2-1.4-3.1-1.5c-0.9-0.1-1.7,0.2-2.4,0.9c-2.3,2.3-0.4,9.4,2.9,13.1c1.5,1.7,3.1,2.6,4.6,2.6
				c0.9,0,1.8-0.3,2.6-0.9c2,2,3.9,2.2,3.9,2.2s-0.9,0-0.9,1.2c0,1.2,0.5,3.5,0.5,3.5c-3.9,0-3.8,1.9-3.8,1.9h-0.7v8.6h-1.2
				l-0.1,1.2h15.3l0.1-1.2h-1.2V319h-0.7c0,0,0.1-1.9-3.8-1.9c0,0,0.5-2.3,0.5-3.5c0-1.2-0.9-1.2-0.9-1.2s1.9-0.2,3.9-2.2
				c0.8,0.6,1.7,0.9,2.6,0.9c1.6,0,3.2-0.9,4.6-2.6C327,304.7,329,297.7,326.7,295.3z M299,307.6c-2.7-3.1-4.6-9.6-2.9-11.3
				c0.4-0.4,0.8-0.6,1.3-0.5c1.2,0.1,2.5,1.3,3.3,2.2c0.5,5.7,2,9.1,3.7,11.2C302.3,310.5,300.3,309.1,299,307.6z M313.7,306
				l-2.8-1.5l-2.8,1.5l0.5-3.1l-2.2-2.2l3.1-0.4l1.4-2.8l1.4,2.8l3.1,0.4l-2.2,2.2L313.7,306z M322.8,307.6
				c-1.3,1.5-3.2,2.9-5.4,1.6c1.6-2.1,3.1-5.6,3.7-11.2c0.8-0.9,2.1-2.1,3.3-2.2c0.5,0,0.9,0.1,1.3,0.5
				C327.4,298,325.4,304.5,322.8,307.6z"/>
			<path class="st36" d="M342.9,239.9v-18c0-2.3-1.9-4.2-4.2-4.2H275c-2.3,0-4.2,1.9-4.2,4.2V250c0,2.3,1.9,4.2,4.2,4.2h63.7
				c2.3,0,4.2-1.9,4.2-4.2v-4.6h12.4L342.9,239.9z M279.7,223.5h26.7c0.8,0,1.4,0.6,1.4,1.4c0,0.8-0.6,1.4-1.4,1.4h-26.7
				c-0.8,0-1.4-0.6-1.4-1.4C278.3,224.2,278.9,223.5,279.7,223.5z M299.8,232.3c0,0.1,0,0.2,0,0.3c0,0.1,0,0.2-0.1,0.3
				c-0.1,0.2-0.2,0.3-0.3,0.4c-0.1,0.1-0.1,0.1-0.2,0.2c-0.1,0.1-0.2,0.1-0.2,0.1c-0.1,0-0.2,0.1-0.3,0.1c-0.1,0-0.2,0-0.3,0
				c-0.2,0-0.4,0-0.5-0.1c-0.2-0.1-0.3-0.2-0.5-0.3c-0.1-0.1-0.1-0.1-0.2-0.2c-0.1-0.1-0.1-0.2-0.1-0.2c0-0.1-0.1-0.2-0.1-0.3
				c0-0.1,0-0.2,0-0.3c0-0.2,0-0.4,0.1-0.5c0.1-0.2,0.2-0.3,0.3-0.5c0.1-0.1,0.3-0.2,0.5-0.3c0.3-0.1,0.5-0.1,0.8-0.1
				c0.1,0,0.2,0.1,0.3,0.1c0.1,0,0.2,0.1,0.2,0.1c0.1,0.1,0.2,0.1,0.2,0.2c0.1,0.1,0.2,0.3,0.3,0.5
				C299.8,231.9,299.8,232.1,299.8,232.3z M279.7,230.9h12.5c0.8,0,1.4,0.6,1.4,1.4c0,0.8-0.6,1.4-1.4,1.4h-12.5
				c-0.8,0-1.4-0.6-1.4-1.4C278.3,231.5,278.9,230.9,279.7,230.9z M299.9,248.3h-20.2c-0.8,0-1.4-0.6-1.4-1.4c0-0.8,0.6-1.4,1.4-1.4
				h20.2c0.8,0,1.4,0.6,1.4,1.4C301.3,247.7,300.7,248.3,299.9,248.3z M313.1,241h-33.4c-0.8,0-1.4-0.6-1.4-1.4
				c0-0.8,0.6-1.4,1.4-1.4h33.4c0.8,0,1.4,0.6,1.4,1.4C314.5,240.4,313.8,241,313.1,241z M334.1,241h-13.2c-0.8,0-1.4-0.6-1.4-1.4
				c0-0.8,0.6-1.4,1.4-1.4h13.2c0.8,0,1.4,0.6,1.4,1.4C335.5,240.4,334.8,241,334.1,241z M334.1,233.6h-29.7c-0.8,0-1.4-0.6-1.4-1.4
				c0-0.8,0.6-1.4,1.4-1.4h29.7c0.8,0,1.4,0.6,1.4,1.4C335.5,233,334.8,233.6,334.1,233.6z M334.1,226.3h-22.5
				c-0.8,0-1.4-0.6-1.4-1.4c0-0.8,0.6-1.4,1.4-1.4h22.5c0.8,0,1.4,0.6,1.4,1.4C335.5,225.7,334.8,226.3,334.1,226.3z"/>
			<path class="st36" d="M301.9,183c-4.5,0-8.1,3.6-8.1,8.1c0,4.5,3.6,8.1,8.1,8.1c4.5,0,8.1-3.6,8.1-8.1
				C310,186.6,306.4,183,301.9,183z M303.8,194.1c-0.4,0.4-0.9,0.7-1.5,0.8v0.5c0,0.3-0.2,0.5-0.5,0.5c-0.3,0-0.5-0.2-0.5-0.5v-0.5
				c-0.5-0.1-0.9-0.2-1.3-0.5c-0.4-0.3-0.7-0.6-0.8-0.9c-0.1-0.1-0.1-0.2-0.1-0.3c0-0.1,0-0.1,0-0.2c0-0.1,0.1-0.2,0.3-0.3
				c0.1-0.1,0.2-0.1,0.3-0.1c0.2,0,0.4,0.1,0.6,0.4c0.3,0.5,0.9,0.8,1.6,0.8c0.4,0,0.7-0.1,1-0.3c0.3-0.2,0.5-0.5,0.5-0.8
				c0-0.3-0.2-0.6-0.5-0.8c-0.2-0.1-0.4-0.2-0.8-0.3l-0.2,0c-0.8-0.2-1.4-0.4-1.8-0.7c-0.5-0.4-0.7-0.9-0.7-1.5
				c0-0.6,0.2-1.1,0.6-1.5c0.4-0.4,0.9-0.6,1.4-0.7v-0.5c0-0.1,0.1-0.3,0.2-0.4c0.1-0.1,0.2-0.1,0.4-0.1c0.1,0,0.3,0,0.4,0.1
				c0.1,0.1,0.1,0.2,0.1,0.4v0.5c0.8,0.1,1.4,0.5,1.8,1.1c0,0.1,0.1,0.2,0.1,0.2c0,0,0,0.1,0,0.1c0,0.1-0.1,0.2-0.2,0.3
				c-0.1,0.1-0.2,0.1-0.4,0.1c-0.1,0-0.3,0-0.4-0.1c-0.2-0.2-0.5-0.4-0.6-0.4c-0.2-0.1-0.5-0.1-0.8-0.1c-0.4,0-0.7,0.1-0.9,0.3
				c-0.3,0.2-0.4,0.4-0.4,0.7c0,0.3,0.2,0.6,0.5,0.7c0.3,0.1,0.6,0.2,1.2,0.4c0.6,0.2,1.2,0.4,1.6,0.7c0.5,0.4,0.7,0.9,0.7,1.5
				C304.4,193.1,304.2,193.7,303.8,194.1z"/>
			<g>
				<g>
					<path class="st37" d="M345.9,362.4c-2.1,0-3.8-1.7-3.8-3.8c0-2.1,1.7-3.8,3.8-3.8c2.1,0,3.8,1.7,3.8,3.8
						C349.7,360.7,348,362.4,345.9,362.4z M345.9,356.2c-1.3,0-2.4,1.1-2.4,2.4c0,1.3,1.1,2.4,2.4,2.4c1.3,0,2.4-1.1,2.4-2.4
						C348.3,357.3,347.3,356.2,345.9,356.2z"/>
				</g>
				<g>
					<path class="st37" d="M269.9,277.4c-2.1,0-3.8-1.7-3.8-3.8s1.7-3.8,3.8-3.8c2.1,0,3.8,1.7,3.8,3.8S272,277.4,269.9,277.4z
						 M269.9,271.2c-1.3,0-2.4,1.1-2.4,2.4s1.1,2.4,2.4,2.4c1.3,0,2.4-1.1,2.4-2.4S271.2,271.2,269.9,271.2z"/>
				</g>
				<g>
					<path class="st37" d="M423.9,354c-2.1,0-3.8-1.7-3.8-3.8c0-2.1,1.7-3.8,3.8-3.8c2.1,0,3.8,1.7,3.8,3.8
						C427.6,352.3,425.9,354,423.9,354z M423.9,347.8c-1.3,0-2.4,1.1-2.4,2.4c0,1.3,1.1,2.4,2.4,2.4c1.3,0,2.4-1.1,2.4-2.4
						C426.2,348.9,425.2,347.8,423.9,347.8z"/>
				</g>
				<g>
					<path class="st37" d="M189.1,280.4c-2.1,0-3.8-1.7-3.8-3.8c0-2.1,1.7-3.8,3.8-3.8c2.1,0,3.8,1.7,3.8,3.8
						C192.9,278.7,191.2,280.4,189.1,280.4z M189.1,274.3c-1.3,0-2.4,1.1-2.4,2.4c0,1.3,1.1,2.4,2.4,2.4c1.3,0,2.4-1.1,2.4-2.4
						C191.5,275.3,190.4,274.3,189.1,274.3z"/>
				</g>
				<g>
					<path class="st37" d="M200.9,97.4c-2.1,0-3.8-1.7-3.8-3.8c0-2.1,1.7-3.8,3.8-3.8c2.1,0,3.8,1.7,3.8,3.8
						C204.6,95.7,202.9,97.4,200.9,97.4z M200.9,91.3c-1.3,0-2.4,1.1-2.4,2.4c0,1.3,1.1,2.4,2.4,2.4c1.3,0,2.4-1.1,2.4-2.4
						C203.2,92.3,202.2,91.3,200.9,91.3z"/>
				</g>
				<g>
					<g>
						<path class="st37" d="M280,276.8c-0.4,0-0.7-0.3-0.7-0.7v-4.9c0-0.4,0.3-0.7,0.7-0.7c0.4,0,0.7,0.3,0.7,0.7v4.9
							C280.7,276.5,280.4,276.8,280,276.8z"/>
					</g>
					<g>
						<path class="st37" d="M282.5,274.4h-4.9c-0.4,0-0.7-0.3-0.7-0.7c0-0.4,0.3-0.7,0.7-0.7h4.9c0.4,0,0.7,0.3,0.7,0.7
							C283.2,274.1,282.9,274.4,282.5,274.4z"/>
					</g>
				</g>
				<g>
					<g>
						<path class="st37" d="M117.3,295.7c-0.4,0-0.7-0.3-0.7-0.7v-4.9c0-0.4,0.3-0.7,0.7-0.7c0.4,0,0.7,0.3,0.7,0.7v4.9
							C118,295.4,117.7,295.7,117.3,295.7z"/>
					</g>
					<g>
						<path class="st37" d="M119.8,293.3h-4.9c-0.4,0-0.7-0.3-0.7-0.7c0-0.4,0.3-0.7,0.7-0.7h4.9c0.4,0,0.7,0.3,0.7,0.7
							C120.5,292.9,120.2,293.3,119.8,293.3z"/>
					</g>
				</g>
				<g>
					<g>
						<path class="st37" d="M423.9,343c-0.4,0-0.7-0.3-0.7-0.7v-4.9c0-0.4,0.3-0.7,0.7-0.7c0.4,0,0.7,0.3,0.7,0.7v4.9
							C424.6,342.7,424.2,343,423.9,343z"/>
					</g>
					<g>
						<path class="st37" d="M426.3,340.5h-4.9c-0.4,0-0.7-0.3-0.7-0.7c0-0.4,0.3-0.7,0.7-0.7h4.9c0.4,0,0.7,0.3,0.7,0.7
							C427,340.2,426.7,340.5,426.3,340.5z"/>
					</g>
				</g>
				<g>
					<g>
						<path class="st37" d="M403.3,126.2c-0.4,0-0.7-0.3-0.7-0.7v-4.9c0-0.4,0.3-0.7,0.7-0.7c0.4,0,0.7,0.3,0.7,0.7v4.9
							C404,125.9,403.7,126.2,403.3,126.2z"/>
					</g>
					<g>
						<path class="st37" d="M405.8,123.7h-4.9c-0.4,0-0.7-0.3-0.7-0.7c0-0.4,0.3-0.7,0.7-0.7h4.9c0.4,0,0.7,0.3,0.7,0.7
							C406.5,123.4,406.2,123.7,405.8,123.7z"/>
					</g>
				</g>
			</g>
		</g>
		<g>
			<path class="st38" d="M452.7,441.4c0,1.5-15.7,2.7-35.1,2.7c-19.4,0-35.1-1.2-35.1-2.7c0-1.5,15.7-2.7,35.1-2.7
				C437,438.8,452.7,440,452.7,441.4z"/>
			<g>
				<g>
					
						<linearGradient id="SVGID_00000018231690358129463370000012114456413602685106_" gradientUnits="userSpaceOnUse" x1="423.434" y1="287.4983" x2="449.0434" y2="314.4415">
						<stop  offset="0" style="stop-color:#EE1D4A"/>
						<stop  offset="1" style="stop-color:#FCB31E"/>
					</linearGradient>
					<path style="fill:url(#SVGID_00000018231690358129463370000012114456413602685106_);" d="M414.6,299.6
						c2.8,0.9,5.1,0.1,11.7-1.4c9.6-2.1,11.7-3.2,17.1-6.6c3.5-2.2-2.4-9.5-7.8-7.9c-4.5,1.4-18.5,11.5-21.3,12.3
						C412.7,296.6,412.4,298.9,414.6,299.6z"/>
					
						<linearGradient id="SVGID_00000124130984042701797410000013415588062209046445_" gradientUnits="userSpaceOnUse" x1="438.9777" y1="272.7245" x2="464.5877" y2="299.6684">
						<stop  offset="0" style="stop-color:#EE1D4A"/>
						<stop  offset="1" style="stop-color:#FCB31E"/>
					</linearGradient>
					<path style="fill:url(#SVGID_00000124130984042701797410000013415588062209046445_);" d="M444.5,290.1c0.7-2.2,1.4-7.2,0-19.6
						c-0.9-7.5-1.8-10.7-2.3-12.9c-1-4-5.2-5.1-7-3.8c-2.9,2.1-5.3,6.8-4.9,8.9c2.3,12.1,4.9,21.3,4.9,24.3
						C435.3,291.5,443.8,292.7,444.5,290.1z"/>
					<path class="st41" d="M438.7,433c-0.4,1.6-0.3,2.2-0.4,3.2c-0.2,1.3-1.4,1.8-2.2,2.8c-0.8,1.2-2,2.9,2.8,3
						c5.2,0.1,8.2-0.1,7.3-2.9c-0.9-2.8-1-4.1-1-5c0.1-0.9,0-1.9-0.6-2.4C444.1,431.2,439.5,430.2,438.7,433z"/>
					<path class="st42" d="M376.5,274.3c-1.7-0.9-15.2-7-15.3-3.8c-0.1,3.6,4.7,7.2,6.5,8.2c3.2,1.9,7.2,1.1,8.7-0.5
						C377.5,277,378.1,275.1,376.5,274.3z"/>
					<path class="st42" d="M376.1,273.3c-0.5-0.7-3.7-4.8-4.5-4.3c-1.2,0.8,0.7,3.6,1.9,5.4c0.7,1,2.3,1.9,3,1.2
						C377.3,275.1,376.9,274.4,376.1,273.3z"/>
					<path class="st41" d="M399,435.3c-0.4,0.8-2.3,2.5-5,3.7c-2.7,1.2-8.4,1.7-5.2,2.7c3.2,1,6.8,0.4,8.7,0.1
						c1.9-0.3,3.7-0.3,5.9-0.3c2.9,0,2.9-0.2,2.5-3.3C405.3,433.8,400.3,432.9,399,435.3z"/>
					<path class="st42" d="M431.9,234.3c-0.6,5.9-0.8,7.2-3.3,9.6c-2.6,2.4-6.6,2.8-9.3,2.8c-3,0-5-3.6-5.7-6.1
						c-0.7-2.6-1.4-7.4-0.6-13.8c0.4-3.3,4.4-7.2,8.6-7.2C425.8,219.5,433.4,219.9,431.9,234.3z"/>
					
						<linearGradient id="SVGID_00000147917849217278234770000010763627898153249977_" gradientUnits="userSpaceOnUse" x1="414.7722" y1="239.3967" x2="414.7722" y2="298.6331" gradientTransform="matrix(0.5824 0.8129 -0.8129 0.5824 385.3716 -227.1122)">
						<stop  offset="0" style="stop-color:#EE1D4A"/>
						<stop  offset="1" style="stop-color:#FCB31E"/>
					</linearGradient>
					<path style="fill:url(#SVGID_00000147917849217278234770000010763627898153249977_);" d="M373.3,278.1c1.8,2.3,3.3,3.6,9.9,5.5
						c8.8,2.6,13.9,3.5,18.4,3.8c4.1,0.3,3.5-9.6-1.9-11.2c-4.6-1.3-21.8-0.4-24.5-1.2C373.3,274.4,371.9,276.2,373.3,278.1z"/>
					
						<linearGradient id="SVGID_00000108288473999981361190000000876910716316812733_" gradientUnits="userSpaceOnUse" x1="406.6024" y1="236.0858" x2="406.6024" y2="295.3261">
						<stop  offset="0" style="stop-color:#EE1D4A"/>
						<stop  offset="1" style="stop-color:#FCB31E"/>
					</linearGradient>
					<path style="fill:url(#SVGID_00000108288473999981361190000000876910716316812733_);" d="M402,284.8c1.7-1.5,5.1-5.3,10.5-16.5
						c3.3-6.8,4.3-9.9,5-12.2c1.3-4-1.7-7.1-3.9-6.9c-3.5,0.2-8.2,2.8-9,4.9c-4.6,11.5-7.4,20.6-9,23.1
						C393.5,281,400,286.6,402,284.8z"/>
					<path class="st42" d="M428.9,244.6c0.2,2,0.3,4.4,0.4,6.5c0.1,2.8-2.1,5.4-4.9,5.7c-0.1,0-0.2,0-0.3,0c-2.5,0-5.5-2.3-5.3-4.8
						c0.1-1.6,0.2-3.3,0.2-4.8c0-2.8,1.8-5.3,4.4-6.2l0,0C426,240.1,428.7,241.9,428.9,244.6z"/>
					
						<linearGradient id="SVGID_00000120532085287646170540000011282533704130569097_" gradientUnits="userSpaceOnUse" x1="420.9663" y1="236.0865" x2="420.9663" y2="295.3257">
						<stop  offset="0" style="stop-color:#EE1D4A"/>
						<stop  offset="1" style="stop-color:#FCB31E"/>
					</linearGradient>
					<path style="fill:url(#SVGID_00000120532085287646170540000011282533704130569097_);" d="M440.7,269.7
						c-4.7,15.5-6.3,31.6-5.3,42.4h-35.4c0,0,0.2-33.2,2.6-51.4c0.6-4.2,3-8,7.5-10.4c2.7-1.4,7.5-2.1,9.4-2.1h6.5
						c2.2,0,4.8,0.2,6.9,0.9C442.5,252,443.4,260.7,440.7,269.7z"/>
					<path class="st46" d="M435.2,333.8c0,0,3.1-7.4,0.1-21.7h-35.4c0,0-1.3,10.2-1.3,21.7H435.2z"/>
					<g>
						<g>
							<path class="st46" d="M428.2,380.2c-2.8-11.5,8.9-13.6,12.7-5.2c5.3,11.8,4.8,49.5,4.6,57.1c0,1,0.1,2.2-0.4,2.5
								c-0.9,0.6-2.9,0.6-3.7,0.6c-1.3,0-2.6,0-2.7-1.7C437.7,422.5,431,391.3,428.2,380.2z"/>
							<path class="st46" d="M417.6,335.3c-1.2-14.3,4.4-25.5,13.3-20.7c3.7,2,5.1,6,5.6,9.7c0.5,3.8,3.3,42.7,4.2,49.8
								c2.2,15.9-10.4,11.6-11.7,7.2C425.6,370.2,418.3,343.1,417.6,335.3z"/>
						</g>
					</g>
					<path class="st46" d="M405.8,437.9c0.4-16.9,7.6-46.5,3.5-60.2c-2.6-8.8-13.1-9-12.6,1.8c0.5,11.5,4,33.8,2.8,56
						C399.3,437.6,405.8,439.8,405.8,437.9z"/>
					<path class="st46" d="M408.9,380.6c-1.4,4.4-13.4,9.5-12.1-6.5c0.6-7.1,2-46.2,2.3-50c0.3-3.8,0.9-9.3,2.8-10
						c9.5-3.4,18.6,7.8,16.2,22C416.4,345.5,411.8,371.5,408.9,380.6z"/>
					<path class="st42" d="M414.6,233c0.8,2,0.6,4-0.4,4.5c-1.1,0.4-2.6-0.9-3.4-2.9c-0.8-2-0.6-4,0.4-4.5
						C412.2,229.7,413.7,231,414.6,233z"/>
					<path class="st42" d="M429.8,233c-0.8,2-0.6,4,0.4,4.5c1.1,0.4,2.6-0.9,3.4-2.9c0.8-2,0.6-4-0.4-4.5
						C432.2,229.7,430.7,231,429.8,233z"/>
					
						<linearGradient id="SVGID_00000140721363417774711850000006971100940777158285_" gradientUnits="userSpaceOnUse" x1="404.8437" y1="210.2634" x2="454.7305" y2="248.6789">
						<stop  offset="0" style="stop-color:#3953A4"/>
						<stop  offset="1" style="stop-color:#9D1F60"/>
					</linearGradient>
					<path style="fill:url(#SVGID_00000140721363417774711850000006971100940777158285_);" d="M430.1,222.7
						c-2.3,3.4-13.3,3.7-16.9,2.5c-3.6-1.3-3.4-8.2,1.8-8.7c2.9,0,0.8,0.7,3.2,1.6C419.3,218.6,432.6,219.1,430.1,222.7z"/>
				</g>
				
					<linearGradient id="SVGID_00000127755394719396021890000008665161063679762049_" gradientUnits="userSpaceOnUse" x1="401.9423" y1="214.0332" x2="451.8271" y2="252.4472">
					<stop  offset="0" style="stop-color:#3953A4"/>
					<stop  offset="1" style="stop-color:#9D1F60"/>
				</linearGradient>
				<path style="fill:url(#SVGID_00000127755394719396021890000008665161063679762049_);" d="M417.7,222.1c-3.4,2.1-4.2,3.9-4.1,8.1
					c0.1,4.2,1.9,11.4,9.6,13c7.7,1.6,9.6-6.1,10-11.4c0.5-5.3,0.2-9.3-3.7-10.2C423.7,220.2,419.8,220.9,417.7,222.1z"/>
			</g>
			<g>
				<defs>
					<path id="SVGID_00000098902002572968670380000000537310524917759420_" d="M446.2,439.1c-0.8-2.7-1-3.9-1-4.8
						c0.2-0.5,0.1-1.4,0.2-2.3c0.3-7.5,0.7-45.3-4.6-57.1c0,0,0,0,0,0c0-0.3-0.1-0.5-0.1-0.8c-0.9-6.9-3.6-44.3-4.2-49.5
						c0.1-3.3-0.2-7.5-1.2-12.6c-0.4-4.6-0.3-10.2,0.2-16.3c2.9-1,4.9-2.2,8-4.1c0.6-0.4,0.9-0.8,1-1.4c0,0,0,0,0-0.1
						c0.7-2.2,1.4-7.2,0-19.6c-0.9-7.5-1.8-10.7-2.3-12.9c-0.3-1.3-1-2.3-1.9-3c-1.4-2.5-3.8-4.4-7.5-5.6c-1.1-0.3-2.4-0.6-3.7-0.7
						c-0.1-1.3-0.2-2.6-0.3-3.8c0-0.3-0.1-0.6-0.2-0.9c1.4-1.3,2-2.3,2.4-4c0.5-0.9,0.9-2,1.2-3c0.5-0.5,0.9-1.2,1.3-2
						c0.8-1.9,0.6-3.8-0.3-4.4c0.2-4.1-0.3-7.1-3-8.3c0.1-2.9-11.2-3.3-12.3-3.8c-2.4-1-0.2-1.6-3.2-1.6c-5.2,0.5-5.4,7.4-1.8,8.7
						c0.1,0,0.1,0,0.2,0.1c-0.2,0.5-0.3,1-0.4,1.4c-0.2,1.4-0.3,2.6-0.3,3.8c-0.5-0.4-1.1-0.5-1.6-0.3c-1.1,0.4-1.3,2.4-0.4,4.5
						c0.6,1.4,1.4,2.4,2.3,2.8c0.2,1.2,0.4,2.3,0.6,3.1c0.7,2.4,2.6,5.9,5.5,6.1c0,0.2-0.1,0.4-0.1,0.6c0,0.3,0,0.7,0,1
						c-1.8,0.1-5.2,0.5-7.7,1.5c-3,0.9-5.9,2.8-6.6,4.4c-0.3,0.7-0.5,1.3-0.8,1.9c-0.6,1-1,2.1-1.2,3.2c-3.4,9-5.6,15.8-7,18
						c-0.2,0.4-0.4,0.8-0.4,1.2c-3.6,3.2-11.3,15-14.2,18.3c-0.1,0-0.1,0-0.2,0.1c-0.4-0.1-0.8-0.1-1.3-0.1c-0.9,0-6,0.3-6,1.2
						c0,0.9,1.4,1.3,3,1.4c-4.1,2.7-9.5,6.6-7.7,7.9c2.8,2.1,8.6,0.2,10.4-0.6c2.8-1.3,4.4-4,4.6-6.2c2.1-0.4,4.1-1.4,8.3-4.6
						c3.5-2.7,6.2-5,8.4-7c-0.5,12.6-0.6,23.2-0.6,23.2s-1.3,10.2-1.3,21.7l0,0c-0.6,13.1-1.5,35.2-1.9,40.3
						c-0.1,1.3-0.1,2.4-0.1,3.4c-0.1,0.6-0.1,1.2,0,1.9c0.5,11.4,3.9,33.3,2.8,55.3c-0.2,0.2-0.3,0.4-0.5,0.6
						c-0.4,0.8-2.3,2.5-5,3.7c-2.7,1.2-8.4,1.7-5.2,2.7c3.2,1,6.8,0.4,8.7,0.1c1.9-0.3,3.7-0.3,5.9-0.3c2.9,0,2.9-0.2,2.5-3.3
						c0-0.1,0-0.2-0.1-0.3c0,0,0,0,0,0c0.4-16.6,7.3-45.4,3.7-59.4c2.8-10.1,6.7-31.6,8.3-41.2c1.3,8.5,6.5,28.3,10,40
						c0,0.9,0.1,1.9,0.4,2.9c2.8,11.2,9.5,42.3,10.4,53.3c0,0,0,0,0,0c-0.3,1.2-0.2,1.8-0.3,2.7c-0.2,1.3-1.4,1.8-2.2,2.8
						c-0.8,1.2-2,2.9,2.8,3C444.1,442.1,447.1,441.9,446.2,439.1z"/>
				</defs>
				<clipPath id="SVGID_00000155854300175633982370000002046427196626363029_">
					<use xlink:href="#SVGID_00000098902002572968670380000000537310524917759420_"  style="overflow:visible;"/>
				</clipPath>
				
					<linearGradient id="SVGID_00000125586881150971220650000009587532499583388558_" gradientUnits="userSpaceOnUse" x1="23.0477" y1="559.1664" x2="229.1411" y2="685.7858" gradientTransform="matrix(-0.3987 -0.8712 0.5368 -0.4748 160.3165 731.9463)">
					<stop  offset="0" style="stop-color:#3953A4"/>
					<stop  offset="1" style="stop-color:#9D1F60"/>
				</linearGradient>
				
					<path style="opacity:0.3;clip-path:url(#SVGID_00000155854300175633982370000002046427196626363029_);fill:url(#SVGID_00000125586881150971220650000009587532499583388558_);" d="
					M434.2,209.3c16-9.8,45.5,5.1,50.8,24.4c5.4,19.7-9.4,29.2,2.8,56.5c9.6,21.6-1.4,45.3-4,64c-2.9,20.5,7.4,30.5,4,48.8
					c-7.8,42.2,30.6,67.2,1.6,76.2c-29.8,9.2-29.3-9.6-61.6-9.7c-28.1-0.1-29.6-71.6-26.7-99c3.1-29,19.7-33.9,12.6-64.7
					c-4.3-18.4-7.8-29,10.5-48.9C433.5,246.6,403.6,228,434.2,209.3z"/>
			</g>
		</g>
	</g>
</g>
</svg>
