<?xml version="1.0" encoding="utf-8"?>
<!-- Generator: Adobe Illustrator 26.0.2, SVG Export Plug-In . SVG Version: 6.00 Build 0)  -->
<svg version="1.1" id="Layer_1" xmlns="http://www.w3.org/2000/svg" xmlns:xlink="http://www.w3.org/1999/xlink" x="0px" y="0px"
	 viewBox="0 0 553 503" style="enable-background:new 0 0 553 503;" xml:space="preserve">
<style type="text/css">
	.st0{fill:url(#SVGID_1_);}
	.st1{fill:url(#SVGID_00000010274369888430229810000015349046719916521382_);}
	.st2{fill:url(#SVGID_00000090273636404786249550000001440022116329340822_);}
	.st3{fill:url(#SVGID_00000028293785766023311750000004363319666314770329_);}
	.st4{opacity:0.65;fill:#FFFFFF;}
	.st5{fill:url(#SVGID_00000049937410152044542030000007014310977205262233_);}
	.st6{fill:#FFFFFF;}
	.st7{opacity:0.53;}
	.st8{fill:url(#SVGID_00000084522129971333523280000006332874477911215762_);}
	.st9{fill:url(#SVGID_00000137103488179838986040000005397540159751183528_);}
	.st10{fill:url(#SVGID_00000145041257716033972440000009681731909931119523_);}
	.st11{fill:url(#SVGID_00000124880062148492585550000014644163959788840081_);}
	.st12{fill:url(#SVGID_00000047750481613958946750000017727170407539551396_);}
	.st13{fill:url(#SVGID_00000067928050876068110050000010392065767994652800_);}
	.st14{fill:url(#SVGID_00000038389690460209982560000005603897206632988342_);}
	
		.st15{clip-path:url(#SVGID_00000068677304474988506220000015921008542242285720_);fill:url(#SVGID_00000000928269164508165010000010021764138212993408_);}
	
		.st16{clip-path:url(#SVGID_00000091706723779120928330000018075927205244614034_);fill:url(#SVGID_00000026160754632013461920000013212353551166765976_);}
	
		.st17{clip-path:url(#SVGID_00000024688347925887619270000006114479190289447306_);fill:url(#SVGID_00000080195781938495121780000009565402097585011900_);}
	.st18{opacity:0.44;fill:#FFFFFF;}
	.st19{fill:url(#SVGID_00000057835592429088894060000016890328228257716363_);}
	.st20{fill:url(#SVGID_00000168799853456796922360000008522379441271207832_);}
	.st21{fill:url(#SVGID_00000005960822643347319300000012539058120438670001_);}
	.st22{fill:url(#SVGID_00000177468241266319294070000014666061368498472597_);}
	.st23{fill:url(#SVGID_00000115475774463482977520000003677456290746043050_);}
	.st24{fill:url(#SVGID_00000176755456837895834590000010330628452402211972_);}
	.st25{opacity:0.48;}
	.st26{opacity:0.91;fill:#FFFFFF;}
	.st27{fill:url(#SVGID_00000104701020625385484710000003204692727824331665_);}
	.st28{opacity:0.5;fill:#FFFFFF;}
	.st29{fill:url(#SVGID_00000165915948167628335900000001132590047438254238_);}
	.st30{fill:url(#SVGID_00000021815861503808902360000000068401167898838697_);}
	.st31{fill:url(#SVGID_00000096751355443420869320000016285398272772426400_);}
	.st32{fill:url(#SVGID_00000078006001795820350100000007176567620366513799_);}
	.st33{fill:url(#SVGID_00000157272165044380886990000003292605049515514783_);}
	.st34{fill:url(#SVGID_00000087393339190987693730000013670700072061944960_);}
	.st35{fill:url(#SVGID_00000176740484234001220940000009809639347429186744_);}
	.st36{fill:url(#SVGID_00000080178019491772458220000011168198834223649178_);}
	.st37{fill:url(#SVGID_00000011023925289816554750000003697794892924089509_);}
	.st38{fill:url(#SVGID_00000060716882530841583830000015037065451872386699_);}
	.st39{fill:url(#SVGID_00000091731116746952407100000014498955963390730658_);}
	.st40{fill:url(#SVGID_00000060738030917386184600000002558210288707475134_);}
	.st41{fill:url(#SVGID_00000126281177518533459980000000361212610691851178_);}
	.st42{fill:url(#SVGID_00000176021956003195973650000003053348934624208299_);}
	.st43{fill:url(#SVGID_00000183934236389903061070000018066913418020783017_);}
	.st44{fill:url(#SVGID_00000047055158892815929290000011311351300172080280_);}
	.st45{fill:url(#SVGID_00000056410494208612503470000007112111994751484095_);}
	.st46{fill:url(#SVGID_00000108270986797684258720000013251879008071074184_);}
	.st47{fill:url(#SVGID_00000021840189556939667110000013483734251461425024_);}
	.st48{fill:url(#SVGID_00000167370332208323126110000012340732111050562189_);}
	.st49{fill:url(#SVGID_00000067216927187685967320000015684891097528497307_);}
	.st50{fill:url(#SVGID_00000011737307952402466650000005647012797135632538_);}
</style>
<g>
	<linearGradient id="SVGID_1_" gradientUnits="userSpaceOnUse" x1="30.2578" y1="33.5862" x2="332.058" y2="335.3864">
		<stop  offset="0" style="stop-color:#432B7D"/>
		<stop  offset="1" style="stop-color:#D21F39"/>
	</linearGradient>
	<path class="st0" d="M6.9,349.6c3-16.1,14.4-31,30.2-39c10.1-5.1,18.6-7.9,26.2-10.4c23.3-7.7,32.9-10.9,29.4-65.6
		c-1.9-29.6,10-57.3,30.9-72.2c18.5-13.2,41.7-15,65.3-5.2c19.5,8.1,33.8,9.4,43.7,4c14.2-7.8,17.9-28.9,21.5-49.3
		c2.4-13.7,4.9-27.9,10.6-38.2c12.7-23,26.9-36.3,43.4-40.7c31-8.3,68.2,14.2,119.7,45.4c4,2.4,8,4.8,12.1,7.3
		c42.8,25.8,71.8,55.6,88.8,91.1c15.8,33.2,21.2,71.8,16.5,118.1c-3.6,35.6-11.7,63.9-24,84.3c-14.4,23.7-34.6,36.5-60,38.2
		c-36.4,2.4-57.1-14.4-72.1-26.7c-9-7.3-16.1-13.1-23.2-11.9c-6.2,1.1-12.7,7.7-20.3,20.6c-11.9,20.1-36.5,44.6-66.6,47.2
		c-23.8,2.1-46.5-9.3-67.7-33.9c-27.6-32.2-52.4-20.2-81.1-6.3c-26.9,13-57.5,27.8-93.3,1.7C9.6,388.2,5.2,367.8,6.3,354.2
		C6.4,352.7,6.6,351.1,6.9,349.6z"/>
	<g>
		<g>
			
				<linearGradient id="SVGID_00000170975966630231167710000004250261487004357273_" gradientUnits="userSpaceOnUse" x1="285.4909" y1="469.6666" x2="281.1841" y2="384.3921">
				<stop  offset="0" style="stop-color:#293882"/>
				<stop  offset="1" style="stop-color:#171042"/>
			</linearGradient>
			<polygon style="fill:url(#SVGID_00000170975966630231167710000004250261487004357273_);" points="239.9,373.3 230.8,436.4 
				336.8,436.4 323,373.3 			"/>
			
				<linearGradient id="SVGID_00000056409908971888474610000013561524792607707567_" gradientUnits="userSpaceOnUse" x1="61.757" y1="271.6128" x2="485.1271" y2="271.6128">
				<stop  offset="0" style="stop-color:#293882"/>
				<stop  offset="1" style="stop-color:#171042"/>
			</linearGradient>
			<path style="fill:url(#SVGID_00000056409908971888474610000013561524792607707567_);" d="M61.8,171.3v187.8
				c0,15.4,12.3,28.1,27.8,28.5c68.6,1.8,308.5,6.1,373.8,5.1c11.2-0.2,20.3-9.1,20.6-20.4c1.3-43.6,3.3-148.5-4.3-197.2
				c-1.6-10.3-10.3-17.9-20.6-18.3c-57.5-1.8-311.8-7.7-377-6.2C70.7,150.9,61.8,160.1,61.8,171.3z"/>
			
				<linearGradient id="SVGID_00000163760575308813877440000002811456173655744937_" gradientUnits="userSpaceOnUse" x1="276.2487" y1="190.8297" x2="252.9962" y2="568.1504">
				<stop  offset="0" style="stop-color:#432B7D"/>
				<stop  offset="1" style="stop-color:#D21F39"/>
			</linearGradient>
			<path style="fill:url(#SVGID_00000163760575308813877440000002811456173655744937_);" d="M73.5,170.4v178.4
				c0,9,7.2,16.4,16.3,16.5l364.1,4.5c8.9,0.1,16.3-7.1,16.3-16l0.6-176.8c0-6.4-5.1-11.6-11.5-11.8l-372.7-7.5
				C79.4,157.5,73.5,163.3,73.5,170.4z"/>
			<path class="st4" d="M472.9,377.1C472.9,377.1,472.9,377.1,472.9,377.1l-399.4-6.8c-0.3,0-0.5-0.2-0.5-0.5c0-0.3,0.2-0.5,0.5-0.5
				l399.4,6.8c0.3,0,0.5,0.2,0.5,0.5C473.4,376.9,473.2,377.1,472.9,377.1z"/>
			<path class="st4" d="M277.2,385.4c-2.6,0-4.7-2.1-4.7-4.7s2.1-4.7,4.7-4.7c2.6,0,4.7,2.1,4.7,4.7S279.7,385.4,277.2,385.4z
				 M277.2,377.1c-2,0-3.7,1.6-3.7,3.7s1.6,3.7,3.7,3.7s3.7-1.6,3.7-3.7S279.2,377.1,277.2,377.1z"/>
			
				<linearGradient id="SVGID_00000021826655543125705760000006398021270465567161_" gradientUnits="userSpaceOnUse" x1="286.2627" y1="437.0411" x2="235.6241" y2="548.2258">
				<stop  offset="0" style="stop-color:#293882"/>
				<stop  offset="1" style="stop-color:#171042"/>
			</linearGradient>
			<path style="fill:url(#SVGID_00000021826655543125705760000006398021270465567161_);" d="M359.7,453.2H204.5
				c-4.2,0-7.4-3-6.6-6.2l2-7.9c0.6-2.4,3.2-4.1,6.3-4.2l149.6-4.7c3.2-0.1,6.1,1.6,6.8,4.1l3.6,12.5
				C367.2,450.1,364,453.2,359.7,453.2z"/>
			<path class="st6" d="M288,437c-0.3,0-0.5-0.2-0.5-0.5c0-0.3,0.2-0.5,0.5-0.5l6.4-0.1c0.3,0,0.5,0.2,0.5,0.5
				c0,0.3-0.2,0.5-0.5,0.5L288,437C288,437,288,437,288,437z"/>
			<path class="st6" d="M203.6,448.9C203.6,448.9,203.6,448.9,203.6,448.9c-0.4-0.1-0.5-0.3-0.5-0.6l0.9-5.7
				c0.5-3.1,3.1-5.3,6.2-5.4l68-1c0,0,0,0,0,0c0.3,0,0.5,0.2,0.5,0.5c0,0.3-0.2,0.5-0.5,0.5l-68,1c-2.6,0-4.8,1.9-5.2,4.5l-0.9,5.7
				C204.1,448.7,203.9,448.9,203.6,448.9z"/>
		</g>
		<g>
			<g class="st7">
				<rect x="275.7" y="182.9" class="st6" width="9.6" height="168.9"/>
				<rect x="291.7" y="182.9" class="st6" width="9.6" height="168.9"/>
				<rect x="307.7" y="182.9" class="st6" width="9.6" height="168.9"/>
				<rect x="323.7" y="182.9" class="st6" width="9.6" height="168.9"/>
				<rect x="339.7" y="182.9" class="st6" width="9.6" height="168.9"/>
				<rect x="355.7" y="182.9" class="st6" width="9.6" height="168.9"/>
				<rect x="371.7" y="182.9" class="st6" width="9.6" height="168.9"/>
			</g>
			
				<linearGradient id="SVGID_00000130605021213098742000000013762516576624266151_" gradientUnits="userSpaceOnUse" x1="280.4149" y1="304.4588" x2="281.5022" y2="416.4452">
				<stop  offset="0" style="stop-color:#CB266E"/>
				<stop  offset="1" style="stop-color:#4C286E"/>
			</linearGradient>
			
				<rect x="275.7" y="263.4" style="fill:url(#SVGID_00000130605021213098742000000013762516576624266151_);" width="9.6" height="88.4"/>
			
				<linearGradient id="SVGID_00000081628116054086215160000005208777499213734313_" gradientUnits="userSpaceOnUse" x1="296.2647" y1="304.1792" x2="297.3514" y2="416.1062">
				<stop  offset="0" style="stop-color:#CB266E"/>
				<stop  offset="1" style="stop-color:#4C286E"/>
			</linearGradient>
			
				<rect x="291.7" y="293.8" style="fill:url(#SVGID_00000081628116054086215160000005208777499213734313_);" width="9.6" height="58"/>
			
				<linearGradient id="SVGID_00000071541112484599651010000007201858144166808508_" gradientUnits="userSpaceOnUse" x1="312.6258" y1="303.8271" x2="313.7135" y2="415.8524">
				<stop  offset="0" style="stop-color:#CB266E"/>
				<stop  offset="1" style="stop-color:#4C286E"/>
			</linearGradient>
			
				<rect x="307.7" y="218.7" style="fill:url(#SVGID_00000071541112484599651010000007201858144166808508_);" width="9.6" height="133.1"/>
			
				<linearGradient id="SVGID_00000057857928407995221980000002326121075209606044_" gradientUnits="userSpaceOnUse" x1="328.133" y1="303.6287" x2="329.2184" y2="415.4139">
				<stop  offset="0" style="stop-color:#CB266E"/>
				<stop  offset="1" style="stop-color:#4C286E"/>
			</linearGradient>
			
				<rect x="323.7" y="319.8" style="fill:url(#SVGID_00000057857928407995221980000002326121075209606044_);" width="9.6" height="32"/>
			
				<linearGradient id="SVGID_00000181796127928314024900000010078662918074613936_" gradientUnits="userSpaceOnUse" x1="344.5335" y1="303.2197" x2="345.6211" y2="415.2332">
				<stop  offset="0" style="stop-color:#CB266E"/>
				<stop  offset="1" style="stop-color:#4C286E"/>
			</linearGradient>
			
				<rect x="339.7" y="236.5" style="fill:url(#SVGID_00000181796127928314024900000010078662918074613936_);" width="9.6" height="115.3"/>
			
				<linearGradient id="SVGID_00000058585047332094035520000006363137768242804876_" gradientUnits="userSpaceOnUse" x1="360.4337" y1="302.922" x2="361.5211" y2="414.9171">
				<stop  offset="0" style="stop-color:#CB266E"/>
				<stop  offset="1" style="stop-color:#4C286E"/>
			</linearGradient>
			
				<rect x="355.7" y="256.5" style="fill:url(#SVGID_00000058585047332094035520000006363137768242804876_);" width="9.6" height="95.3"/>
			
				<linearGradient id="SVGID_00000144308856510275119950000010582527641244618641_" gradientUnits="userSpaceOnUse" x1="376.3255" y1="302.6302" x2="377.4127" y2="414.5944">
				<stop  offset="0" style="stop-color:#CB266E"/>
				<stop  offset="1" style="stop-color:#4C286E"/>
			</linearGradient>
			
				<rect x="371.7" y="278.2" style="fill:url(#SVGID_00000144308856510275119950000010582527641244618641_);" width="9.6" height="73.6"/>
		</g>
		<g>
			<g>
				<g>
					<defs>
						<path id="SVGID_00000176742864759514800330000012579375665694728623_" d="M117.7,175.2c-12.8,0-23.3,10.4-23.3,23.3
							c0,12.8,10.4,23.3,23.3,23.3c12.8,0,23.3-10.4,23.3-23.3C141,185.6,130.6,175.2,117.7,175.2z M117.7,211.7
							c-7.3,0-13.3-5.9-13.3-13.3c0-7.3,5.9-13.3,13.3-13.3c7.3,0,13.3,5.9,13.3,13.3C131,205.8,125,211.7,117.7,211.7z"/>
					</defs>
					
						<use xlink:href="#SVGID_00000176742864759514800330000012579375665694728623_"  style="overflow:visible;opacity:0.57;fill:#FFFFFF;"/>
					<clipPath id="SVGID_00000127042605661682294350000000995842652744581050_">
						<use xlink:href="#SVGID_00000176742864759514800330000012579375665694728623_"  style="overflow:visible;opacity:0.57;"/>
					</clipPath>
					
						<linearGradient id="SVGID_00000050636921140251661380000009845413196811168151_" gradientUnits="userSpaceOnUse" x1="189.3439" y1="106.3456" x2="109.0876" y2="223.5828">
						<stop  offset="0" style="stop-color:#8D50A0"/>
						<stop  offset="1" style="stop-color:#EF4A7B"/>
					</linearGradient>
					
						<rect x="85.2" y="193.3" style="clip-path:url(#SVGID_00000127042605661682294350000000995842652744581050_);fill:url(#SVGID_00000050636921140251661380000009845413196811168151_);" width="69.1" height="29.2"/>
				</g>
			</g>
			<g>
				<g>
					<defs>
						<path id="SVGID_00000026131450442489308390000017994258305954431138_" d="M174.4,175.2c-12.8,0-23.3,10.4-23.3,23.3
							c0,12.8,10.4,23.3,23.3,23.3c12.8,0,23.3-10.4,23.3-23.3C197.7,185.6,187.3,175.2,174.4,175.2z M174.4,211.7
							c-7.3,0-13.3-5.9-13.3-13.3c0-7.3,5.9-13.3,13.3-13.3c7.3,0,13.3,5.9,13.3,13.3C187.7,205.8,181.8,211.7,174.4,211.7z"/>
					</defs>
					
						<use xlink:href="#SVGID_00000026131450442489308390000017994258305954431138_"  style="overflow:visible;opacity:0.57;fill:#FFFFFF;"/>
					<clipPath id="SVGID_00000042002387248913867550000004442454342734090649_">
						<use xlink:href="#SVGID_00000026131450442489308390000017994258305954431138_"  style="overflow:visible;opacity:0.57;"/>
					</clipPath>
					
						<linearGradient id="SVGID_00000066486153534060186150000015389687347775431305_" gradientUnits="userSpaceOnUse" x1="251.9129" y1="80.5878" x2="172.4433" y2="208.8407">
						<stop  offset="0" style="stop-color:#8D50A0"/>
						<stop  offset="1" style="stop-color:#EF4A7B"/>
					</linearGradient>
					
						<rect x="141.9" y="182" style="clip-path:url(#SVGID_00000042002387248913867550000004442454342734090649_);fill:url(#SVGID_00000066486153534060186150000015389687347775431305_);" width="69.1" height="40.5"/>
				</g>
			</g>
			<g>
				<g>
					<defs>
						<path id="SVGID_00000140733407367077117880000010795938605587056032_" d="M231.1,175.2c-12.8,0-23.3,10.4-23.3,23.3
							c0,12.8,10.4,23.3,23.3,23.3c12.8,0,23.3-10.4,23.3-23.3C254.4,185.6,244,175.2,231.1,175.2z M231.1,211.7
							c-7.3,0-13.3-5.9-13.3-13.3c0-7.3,5.9-13.3,13.3-13.3c7.3,0,13.3,5.9,13.3,13.3C244.4,205.8,238.5,211.7,231.1,211.7z"/>
					</defs>
					
						<use xlink:href="#SVGID_00000140733407367077117880000010795938605587056032_"  style="overflow:visible;opacity:0.57;fill:#FFFFFF;"/>
					<clipPath id="SVGID_00000069389462102913954430000017445906496500117378_">
						<use xlink:href="#SVGID_00000140733407367077117880000010795938605587056032_"  style="overflow:visible;opacity:0.57;"/>
					</clipPath>
					
						<linearGradient id="SVGID_00000080200380112730414120000017483057908349942668_" gradientUnits="userSpaceOnUse" x1="267.2232" y1="96.2015" x2="243.6185" y2="178.8182">
						<stop  offset="0" style="stop-color:#8D50A0"/>
						<stop  offset="1" style="stop-color:#EF4A7B"/>
					</linearGradient>
					
						<rect x="198.7" y="207.9" style="clip-path:url(#SVGID_00000069389462102913954430000017445906496500117378_);fill:url(#SVGID_00000080200380112730414120000017483057908349942668_);" width="69.1" height="14.6"/>
				</g>
			</g>
		</g>
		<g>
			<path class="st18" d="M249,352.7l-149.2-1.1c-2.9,0-5.3-2.4-5.3-5.4v-76.7c0-3,2.4-5.4,5.4-5.4H249c3,0,5.4,2.4,5.4,5.4v77.8
				C254.4,350.3,252,352.7,249,352.7z"/>
			<path class="st18" d="M225.9,298.8l-19.2-20.3l-27.5,29.9l-19.4-20.9l-18.2,20.6l-14-17l-27.5,28.6v20.7c0,2.7,2.2,5,4.9,5
				l138.8,1c2.8,0,5-2.2,5-5v-56.4L225.9,298.8z"/>
			<rect x="226" y="298.3" class="st6" width="0.5" height="48.3"/>
			<rect x="206.4" y="278.5" class="st6" width="0.5" height="67.7"/>
			<rect x="178.9" y="308.1" class="st6" width="0.5" height="37.9"/>
			<rect x="160" y="288.3" class="st6" width="0.5" height="57.8"/>
			<rect x="141.3" y="307.5" class="st6" width="0.5" height="38.6"/>
			<rect x="127.6" y="289.7" class="st6" width="0.5" height="56"/>
			
				<linearGradient id="SVGID_00000176037138667650032720000014305897723163256762_" gradientUnits="userSpaceOnUse" x1="131.3968" y1="279.0448" x2="113.7051" y2="332.5312">
				<stop  offset="0" style="stop-color:#F9EE4A"/>
				<stop  offset="1" style="stop-color:#DA3D66"/>
			</linearGradient>
			<circle style="fill:url(#SVGID_00000176037138667650032720000014305897723163256762_);" cx="127.9" cy="289.7" r="4.2"/>
			
				<linearGradient id="SVGID_00000023260703825350502380000012255435103798256059_" gradientUnits="userSpaceOnUse" x1="143.86" y1="300.4697" x2="132.2054" y2="335.7046">
				<stop  offset="0" style="stop-color:#F9EE4A"/>
				<stop  offset="1" style="stop-color:#DA3D66"/>
			</linearGradient>
			<path style="fill:url(#SVGID_00000023260703825350502380000012255435103798256059_);" d="M144.3,307.5c0,1.5-1.2,2.8-2.8,2.8
				c-1.5,0-2.8-1.2-2.8-2.8s1.2-2.8,2.8-2.8C143.1,304.7,144.3,306,144.3,307.5z"/>
			
				<linearGradient id="SVGID_00000079471999266657511720000017414985990093144511_" gradientUnits="userSpaceOnUse" x1="162.5834" y1="281.244" x2="150.9288" y2="316.4789">
				<stop  offset="0" style="stop-color:#F9EE4A"/>
				<stop  offset="1" style="stop-color:#DA3D66"/>
			</linearGradient>
			<path style="fill:url(#SVGID_00000079471999266657511720000017414985990093144511_);" d="M163,288.3c0,1.5-1.2,2.8-2.8,2.8
				c-1.5,0-2.8-1.2-2.8-2.8c0-1.5,1.2-2.8,2.8-2.8C161.8,285.5,163,286.7,163,288.3z"/>
			
				<linearGradient id="SVGID_00000177463581359312587150000006327246554362358937_" gradientUnits="userSpaceOnUse" x1="181.4816" y1="301.0845" x2="169.8271" y2="336.3193">
				<stop  offset="0" style="stop-color:#F9EE4A"/>
				<stop  offset="1" style="stop-color:#DA3D66"/>
			</linearGradient>
			<path style="fill:url(#SVGID_00000177463581359312587150000006327246554362358937_);" d="M181.9,308.1c0,1.5-1.2,2.8-2.8,2.8
				c-1.5,0-2.8-1.2-2.8-2.8s1.2-2.8,2.8-2.8C180.7,305.3,181.9,306.6,181.9,308.1z"/>
			
				<linearGradient id="SVGID_00000047031972471178262930000015519170736143786928_" gradientUnits="userSpaceOnUse" x1="208.9952" y1="271.5245" x2="197.3407" y2="306.7591">
				<stop  offset="0" style="stop-color:#F9EE4A"/>
				<stop  offset="1" style="stop-color:#DA3D66"/>
			</linearGradient>
			<path style="fill:url(#SVGID_00000047031972471178262930000015519170736143786928_);" d="M209.4,278.5c0,1.5-1.2,2.8-2.8,2.8
				c-1.5,0-2.8-1.2-2.8-2.8c0-1.5,1.2-2.8,2.8-2.8C208.2,275.8,209.4,277,209.4,278.5z"/>
			
				<linearGradient id="SVGID_00000029035764598219224570000007829057738028996527_" gradientUnits="userSpaceOnUse" x1="228.5534" y1="291.2477" x2="216.8989" y2="326.4824">
				<stop  offset="0" style="stop-color:#CB266E"/>
				<stop  offset="1" style="stop-color:#4C286E"/>
			</linearGradient>
			<path style="fill:url(#SVGID_00000029035764598219224570000007829057738028996527_);" d="M229,298.3c0,1.5-1.2,2.8-2.8,2.8
				c-1.5,0-2.8-1.2-2.8-2.8c0-1.5,1.2-2.8,2.8-2.8C227.8,295.5,229,296.7,229,298.3z"/>
		</g>
		<g class="st25">
			<path class="st6" d="M137.6,251.5H96.7c-1.7,0-3.1,1-3.1,2.2c0,1.2,1.4,2.2,3.1,2.2h40.9c1.7,0,3.1-1,3.1-2.2
				C140.7,252.4,139.3,251.5,137.6,251.5z"/>
			<path class="st6" d="M137.6,241.9H96.7c-1.7,0-3.1,1-3.1,2.2s1.4,2.2,3.1,2.2h40.9c1.7,0,3.1-1,3.1-2.2S139.3,241.9,137.6,241.9z
				"/>
			<path class="st6" d="M137.6,232.3H96.7c-1.7,0-3.1,1-3.1,2.2c0,1.2,1.4,2.2,3.1,2.2h40.9c1.7,0,3.1-1,3.1-2.2
				C140.7,233.3,139.3,232.3,137.6,232.3z"/>
		</g>
		<g class="st25">
			<path class="st6" d="M194.4,251.5h-40.9c-1.7,0-3.1,1-3.1,2.2c0,1.2,1.4,2.2,3.1,2.2h40.9c1.7,0,3.1-1,3.1-2.2
				C197.5,252.4,196.2,251.5,194.4,251.5z"/>
			<path class="st6" d="M194.4,241.9h-40.9c-1.7,0-3.1,1-3.1,2.2s1.4,2.2,3.1,2.2h40.9c1.7,0,3.1-1,3.1-2.2S196.2,241.9,194.4,241.9
				z"/>
			<path class="st6" d="M194.4,232.3h-40.9c-1.7,0-3.1,1-3.1,2.2c0,1.2,1.4,2.2,3.1,2.2h40.9c1.7,0,3.1-1,3.1-2.2
				C197.5,233.3,196.2,232.3,194.4,232.3z"/>
		</g>
		<g class="st25">
			<path class="st6" d="M251.3,251.5h-40.9c-1.7,0-3.1,1-3.1,2.2c0,1.2,1.4,2.2,3.1,2.2h40.9c1.7,0,3.1-1,3.1-2.2
				C254.4,252.4,253,251.5,251.3,251.5z"/>
			<path class="st6" d="M251.3,241.9h-40.9c-1.7,0-3.1,1-3.1,2.2s1.4,2.2,3.1,2.2h40.9c1.7,0,3.1-1,3.1-2.2S253,241.9,251.3,241.9z"
				/>
			<path class="st6" d="M251.3,232.3h-40.9c-1.7,0-3.1,1-3.1,2.2c0,1.2,1.4,2.2,3.1,2.2h40.9c1.7,0,3.1-1,3.1-2.2
				C254.4,233.3,253,232.3,251.3,232.3z"/>
		</g>
		<g>
			<g>
				
					<ellipse transform="matrix(6.213769e-02 -0.9981 0.9981 6.213769e-02 138.0773 667.8088)" class="st26" cx="424.4" cy="260.4" rx="18.9" ry="18.9"/>
				
					<linearGradient id="SVGID_00000015356166918718800550000014818302790723583400_" gradientUnits="userSpaceOnUse" x1="450.1543" y1="236.5908" x2="384.1633" y2="299.2181">
					<stop  offset="0" style="stop-color:#F9EE4A"/>
					<stop  offset="1" style="stop-color:#DA3D66"/>
				</linearGradient>
				<path style="fill:url(#SVGID_00000015356166918718800550000014818302790723583400_);" d="M435.6,256.4c0.6,1.4,0.9,3,0.9,4.6
					c0,6.7-5.4,12.2-12.2,12.2c-6.7,0-12.2-5.4-12.2-12.2c0-6.7,5.4-12.2,12.2-12.2c0.2,0,0.4,0,0.6,0v-3.1c-0.2,0-0.4,0-0.6,0
					c-8.4,0-15.2,6.8-15.2,15.2c0,8.4,6.8,15.2,15.2,15.2c8.4,0,15.2-6.8,15.2-15.2c0-2.1-0.4-4-1.2-5.8L435.6,256.4z"/>
				<path class="st28" d="M439.9,287.4h-30.8c-1.9,0-3.5,1.6-3.5,3.5c0,1.9,1.6,3.5,3.5,3.5h30.8c1.9,0,3.5-1.6,3.5-3.5
					C443.4,288.9,441.9,287.4,439.9,287.4z"/>
			</g>
			<g>
				
					<ellipse transform="matrix(0.2298 -0.9732 0.9732 0.2298 132.5539 566.6865)" class="st26" cx="424.3" cy="199.6" rx="18.9" ry="18.9"/>
				
					<linearGradient id="SVGID_00000003074816951663080680000013028795210232056454_" gradientUnits="userSpaceOnUse" x1="445.7829" y1="179.5639" x2="387.2022" y2="235.1586">
					<stop  offset="0" style="stop-color:#F9EE4A"/>
					<stop  offset="1" style="stop-color:#DA3D66"/>
				</linearGradient>
				<path style="fill:url(#SVGID_00000003074816951663080680000013028795210232056454_);" d="M430.7,210.5c-1.9,1.2-4.1,1.9-6.5,1.9
					c-6.7,0-12.2-5.4-12.2-12.2c0-6.7,5.4-12.2,12.2-12.2c0.2,0,0.4,0,0.6,0V185c-0.2,0-0.4,0-0.6,0c-8.4,0-15.2,6.8-15.2,15.2
					c0,8.4,6.8,15.2,15.2,15.2c2.9,0,5.7-0.8,8-2.3L430.7,210.5z"/>
				<path class="st28" d="M440,226.5h-30.8c-1.9,0-3.5,1.6-3.5,3.5c0,1.9,1.6,3.5,3.5,3.5H440c1.9,0,3.5-1.6,3.5-3.5
					C443.5,228.1,442,226.5,440,226.5z"/>
			</g>
			<g>
				
					<ellipse transform="matrix(6.213769e-02 -0.9981 0.9981 6.213769e-02 77.114 725.2218)" class="st26" cx="424.4" cy="321.6" rx="18.9" ry="18.9"/>
				
					<linearGradient id="SVGID_00000083080525980788830270000011688562836236590988_" gradientUnits="userSpaceOnUse" x1="446.3396" y1="301.0407" x2="387.7589" y2="356.6354">
					<stop  offset="0" style="stop-color:#F9EE4A"/>
					<stop  offset="1" style="stop-color:#DA3D66"/>
				</linearGradient>
				<path style="fill:url(#SVGID_00000083080525980788830270000011688562836236590988_);" d="M434.8,328.4
					c-2.2,3.2-5.9,5.3-10.1,5.3c-6.7,0-12.2-5.4-12.2-12.2c0-6.7,5.4-12.2,12.2-12.2c0.2,0,0.4,0,0.6,0v-3.1c-0.2,0-0.4,0-0.6,0
					c-8.4,0-15.2,6.8-15.2,15.2c0,8.4,6.8,15.2,15.2,15.2c5.2,0,9.8-2.6,12.5-6.6L434.8,328.4z"/>
				<path class="st28" d="M409,354.9h30.8c1.9,0,3.5-1.6,3.5-3.5c0-1.9-1.6-3.5-3.5-3.5H409c-1.9,0-3.5,1.6-3.5,3.5
					C405.5,353.3,407.1,354.9,409,354.9z"/>
			</g>
		</g>
	</g>
	<g>
		
			<linearGradient id="SVGID_00000083078848669117315910000008815845471054183564_" gradientUnits="userSpaceOnUse" x1="-426.4752" y1="451.6764" x2="-505.3524" y2="537.4727" gradientTransform="matrix(-1 0 0 1 -20.4336 0)">
			<stop  offset="0" style="stop-color:#CB266E"/>
			<stop  offset="1" style="stop-color:#4C286E"/>
		</linearGradient>
		<path style="fill:url(#SVGID_00000083078848669117315910000008815845471054183564_);" d="M431,458.1c0,0,0.8,4.6,1.2,9.2
			c0.2,1.8-1.2,3.3-3,3.4c-6.1,0.3-19.1,0.7-23.8,0.5c-0.7,0-1.2-0.8-0.9-1.4c0.2-0.5,0.6-1,1.2-1.2l21.5-9.9L431,458.1z"/>
		
			<linearGradient id="SVGID_00000160890604560833084350000003629484231344475523_" gradientUnits="userSpaceOnUse" x1="-452.0775" y1="458.0486" x2="-445.0713" y2="458.0486" gradientTransform="matrix(-1 0 0 1 -20.4336 0)">
			<stop  offset="0" style="stop-color:#F7B777"/>
			<stop  offset="1" style="stop-color:#F47960"/>
		</linearGradient>
		<path style="fill:url(#SVGID_00000160890604560833084350000003629484231344475523_);" d="M431.6,455.4l-0.7,5.5
			c0,0-3.8,1.8-6.4-0.2l1.6-6.2L431.6,455.4z"/>
		
			<linearGradient id="SVGID_00000077284090907190572100000015885073208947638404_" gradientUnits="userSpaceOnUse" x1="-468.691" y1="404.4765" x2="-445.5248" y2="404.4765" gradientTransform="matrix(-1 0 0 1 -20.4336 0)">
			<stop  offset="0" style="stop-color:#CB266E"/>
			<stop  offset="1" style="stop-color:#4C286E"/>
		</linearGradient>
		<path style="fill:url(#SVGID_00000077284090907190572100000015885073208947638404_);" d="M431.2,351.4c0.3,1.4,1.5,72.1-6,103.7
			c-0.1,0.5,0.1,1,0.6,1.2c1.2,0.5,3.4,1.2,6.1,1.2c0.8,0,1.6-0.5,1.8-1.3c2.2-7.3,12.5-44.1,13.9-79.3c1.5-39.3,0-1.3,0-1.3
			l-0.9-24.3L431.2,351.4z"/>
		
			<linearGradient id="SVGID_00000047017702862801894450000008345660301118672296_" gradientUnits="userSpaceOnUse" x1="-444.17" y1="435.4087" x2="-523.0471" y2="521.2048" gradientTransform="matrix(-1 0 0 1 -20.4336 0)">
			<stop  offset="0" style="stop-color:#CB266E"/>
			<stop  offset="1" style="stop-color:#4C286E"/>
		</linearGradient>
		<path style="fill:url(#SVGID_00000047017702862801894450000008345660301118672296_);" d="M455.8,460.5c0,0,1.3,2.3,2.6,8.5
			c0.2,1.1-0.6,2.2-1.7,2.3c-2,0.2-5.1,0.5-7.6,0.4c-1.1,0-2-1-1.9-2.1c0.3-2.3,1.1-6,3.8-8.9L455.8,460.5z"/>
		
			<linearGradient id="SVGID_00000068646382620648183300000002651399101036763325_" gradientUnits="userSpaceOnUse" x1="-477.3279" y1="457.6893" x2="-471.2787" y2="457.6893" gradientTransform="matrix(-1 0 0 1 -20.4336 0)">
			<stop  offset="0" style="stop-color:#F7B777"/>
			<stop  offset="1" style="stop-color:#F47960"/>
		</linearGradient>
		<path style="fill:url(#SVGID_00000068646382620648183300000002651399101036763325_);" d="M456.9,453.4l-1.5,8.4
			c0,0-1.5,1.1-4.5,0.3l0.7-9L456.9,453.4z"/>
		
			<linearGradient id="SVGID_00000100354089570198924820000000844095934896712580_" gradientUnits="userSpaceOnUse" x1="-483.8481" y1="403.7185" x2="-450.9597" y2="403.7185" gradientTransform="matrix(-1 0 0 1 -20.4336 0)">
			<stop  offset="0" style="stop-color:#CB266E"/>
			<stop  offset="1" style="stop-color:#4C286E"/>
		</linearGradient>
		<path style="fill:url(#SVGID_00000100354089570198924820000000844095934896712580_);" d="M461,353.5c6.2,37.3-1.3,92.1-3.9,102.9
			c-0.2,0.7-0.7,1.2-1.4,1.3c-1.1,0.2-3,0.3-4.8-0.2c-0.6-0.2-1.1-0.8-1.1-1.4c-0.3-8.7,0.3-62-5.5-83c-0.3-1.1-0.9-2-1.8-2.6
			l-11.2-7.9l-0.9-12.8L461,353.5z"/>
		<g>
			
				<linearGradient id="SVGID_00000170976159484852636340000000598671420530733711_" gradientUnits="userSpaceOnUse" x1="-630.2029" y1="161.3965" x2="-810.5026" y2="1.9005" gradientTransform="matrix(-1 0 0 1 -20.4336 0)">
				<stop  offset="0" style="stop-color:#F9EE4A"/>
				<stop  offset="1" style="stop-color:#DA3D66"/>
			</linearGradient>
			<path style="fill:url(#SVGID_00000170976159484852636340000000598671420530733711_);" d="M421.7,282.9
				c18.5-0.3,38.9,4.9,38.9,4.9c5.5,32.2,1,69.3,1,69.3c-14.3,3.8-30.5-2.3-30.5-2.3c-2.4-13.5-13.5-51.3-13.5-51.3
				c-9-1.1-16.5-3.7-22.6-7.2c4.7-5.4,6.9-12.3,7.8-16.4C409.4,281.9,416,283,421.7,282.9z"/>
			
				<linearGradient id="SVGID_00000027598801101384586420000003472951712541413302_" gradientUnits="userSpaceOnUse" x1="-423.2468" y1="275.2643" x2="-387.4532" y2="275.2643" gradientTransform="matrix(-1 0 0 1 -20.4336 0)">
				<stop  offset="0" style="stop-color:#F7B777"/>
				<stop  offset="1" style="stop-color:#F47960"/>
			</linearGradient>
			<path style="fill:url(#SVGID_00000027598801101384586420000003472951712541413302_);" d="M367,255.6c1.8-2.2,4.1-1.2,4.1-1.2
				c2.7,11.5,17,20.8,31.7,25.4c-1,4.1-3.2,11-7.8,16.4C370.6,282.6,367,255.6,367,255.6z"/>
		</g>
		<g>
			
				<linearGradient id="SVGID_00000020358799496663500440000006472613784015763381_" gradientUnits="userSpaceOnUse" x1="7685.2051" y1="269.2644" x2="7709.2236" y2="323.9118" gradientTransform="matrix(1 0 0 1 -7310.2119 0)">
				<stop  offset="0" style="stop-color:#F7B777"/>
				<stop  offset="1" style="stop-color:#F47960"/>
			</linearGradient>
			<path style="fill:url(#SVGID_00000020358799496663500440000006472613784015763381_);" d="M367.5,256.2c-0.2,0.6,2,1.5,3.3-0.9
				c0-1.2,0.8-6.3,0.1-7.2c-3.8-5.1-11.1-11.6-11.1-11.6c-1.2,1.2-0.2,2.4-0.2,2.4l3.5,3.7c-0.7,1.3-1.6,2.5-2.1,4.1
				c-0.3,1.2-0.1,2.5,0.5,3.7c0.6,1.1,1.5,2.6,2.3,3.7C365.3,256.2,367.5,256.2,367.5,256.2z"/>
			
				<linearGradient id="SVGID_00000056388163400253857130000005470785595368323719_" gradientUnits="userSpaceOnUse" x1="-387.625" y1="251.0648" x2="-377.6031" y2="235.6562" gradientTransform="matrix(-1 0 0 1 -20.4336 0)">
				<stop  offset="0" style="stop-color:#F7B777"/>
				<stop  offset="1" style="stop-color:#F47960"/>
			</linearGradient>
			<path style="fill:url(#SVGID_00000056388163400253857130000005470785595368323719_);" d="M364.6,244.9l3.2,2.7l1,2.7l-2.9,3.2
				c0,0-1-5.4-1.7-6.6C363.6,245.9,364,245.3,364.6,244.9z"/>
		</g>
		
			<linearGradient id="SVGID_00000140003215419851914200000003928846996940355726_" gradientUnits="userSpaceOnUse" x1="-638.4633" y1="170.7344" x2="-818.7631" y2="11.2383" gradientTransform="matrix(-1 0 0 1 -20.4336 0)">
			<stop  offset="0" style="stop-color:#F9EE4A"/>
			<stop  offset="1" style="stop-color:#DA3D66"/>
		</linearGradient>
		<path style="fill:url(#SVGID_00000140003215419851914200000003928846996940355726_);" d="M453.5,305.7l7.1-17.9
			c0,0,17.3,11.7,20.1,26.6c-3.3,0.2-9.2,1.1-15,4C464.4,311.4,453.5,305.7,453.5,305.7z"/>
		
			<linearGradient id="SVGID_00000058585087559352086550000006795855580900628640_" gradientUnits="userSpaceOnUse" x1="-501.5708" y1="325.965" x2="-456.2736" y2="325.965" gradientTransform="matrix(-1 0 0 1 -20.4336 0)">
			<stop  offset="0" style="stop-color:#F7B777"/>
			<stop  offset="1" style="stop-color:#F47960"/>
		</linearGradient>
		<path style="fill:url(#SVGID_00000058585087559352086550000006795855580900628640_);" d="M438.4,322.5c0,0,19.4,11,26,1.6
			c1.4-1.9,1.7-3.9,1.3-5.7c5.8-2.9,11.8-3.8,15-4c0.9,4.5,0.4,9.3-2.2,14.1c-11.5,21-42.7-1.2-42.7-1.2L438.4,322.5z"/>
		<g>
			
				<linearGradient id="SVGID_00000178188759518354950240000017336850466932156833_" gradientUnits="userSpaceOnUse" x1="-442.5696" y1="293.7602" x2="-417.6623" y2="397.5408" gradientTransform="matrix(-1 0 0 1 -20.4336 0)">
				<stop  offset="0" style="stop-color:#293882"/>
				<stop  offset="1" style="stop-color:#171042"/>
			</linearGradient>
			<path style="fill:url(#SVGID_00000178188759518354950240000017336850466932156833_);" d="M440.7,336.4l-10.6-37
				c-0.1-0.4-0.5-0.7-0.9-0.8c-1.9-0.2-7.5-0.9-13.9-1.4c-7.7-0.7-16.7-1.2-22.1-0.7c-0.8,0.1-1.2,0.9-0.9,1.6
				c3.1,6.2,15.6,31.3,21.9,39.5c0.2,0.3,0.5,0.4,0.9,0.4l24.6-0.2C440.4,337.8,440.9,337.1,440.7,336.4z"/>
			
				<linearGradient id="SVGID_00000127007103651118704840000002207350945082669956_" gradientUnits="userSpaceOnUse" x1="-426.9753" y1="277.4015" x2="-432.2798" y2="300.6956" gradientTransform="matrix(-1 0 0 1 -20.4336 0)">
				<stop  offset="0" style="stop-color:#66CDF3"/>
				<stop  offset="1" style="stop-color:#4A5AA8"/>
			</linearGradient>
			<path style="fill:url(#SVGID_00000127007103651118704840000002207350945082669956_);" d="M414.2,294.1l-7.7-1.3
				c-0.4-0.1-0.7,0.3-0.6,0.7l0.8,2.3c0.1,0.2,0.2,0.3,0.5,0.4l7.4,1c0.4,0.1,0.7-0.3,0.6-0.7l-0.5-2
				C414.6,294.3,414.5,294.1,414.2,294.1z"/>
			
				<linearGradient id="SVGID_00000078021243962360838720000007337732843730886550_" gradientUnits="userSpaceOnUse" x1="-429.7514" y1="287.1726" x2="-432.2884" y2="302.3945" gradientTransform="matrix(-1 0 0 1 -20.4336 0)">
				<stop  offset="0" style="stop-color:#66CDF3"/>
				<stop  offset="1" style="stop-color:#4A5AA8"/>
			</linearGradient>
			<path style="fill:url(#SVGID_00000078021243962360838720000007337732843730886550_);" d="M420,300.6l-0.6-3.3
				c-0.1-0.3-0.3-0.6-0.7-0.6l-15.5-1.6c-0.5-0.1-0.9,0.4-0.8,0.9l1,4.1c0.1,0.3,0.4,0.6,0.7,0.6l15.2,0.8
				C419.7,301.5,420.1,301,420,300.6z"/>
			
				<linearGradient id="SVGID_00000147934158596282805070000002620829553025429901_" gradientUnits="userSpaceOnUse" x1="-459.6367" y1="321.2156" x2="-445.5248" y2="321.2156" gradientTransform="matrix(-1 0 0 1 -20.4336 0)">
				<stop  offset="0" style="stop-color:#F7B777"/>
				<stop  offset="1" style="stop-color:#F47960"/>
			</linearGradient>
			<path style="fill:url(#SVGID_00000147934158596282805070000002620829553025429901_);" d="M438.2,327.5c0,0,1.5-6.1,0.9-8.2
				c-0.6-2.2-1.7-4.9-5.6-4.3c-3.8,0.6-8.4,2.2-8.4,2.2s0.2,2.8,3.2,1.9l-1.8,1.4c0,0,0.3,2.2,2.7,1l-1.7,1.9c0,0,1.1,1.8,2.9,0.7
				C432.2,322.9,433,328.2,438.2,327.5z"/>
		</g>
		
			<linearGradient id="SVGID_00000033359688616448806720000002175725717804326038_" gradientUnits="userSpaceOnUse" x1="-466.7889" y1="277.5396" x2="-448.8798" y2="277.5396" gradientTransform="matrix(-1 0 0 1 -20.4336 0)">
			<stop  offset="0" style="stop-color:#F7B777"/>
			<stop  offset="1" style="stop-color:#F47960"/>
		</linearGradient>
		<path style="fill:url(#SVGID_00000033359688616448806720000002175725717804326038_);" d="M440.4,267.9l5.9,17
			c0.1,0.3,0,0.6-0.3,0.7c-1.6,0.9-7.4,3.5-14.4-1c-0.7-0.5-1.2-1.2-1.3-2.1l-1.9-14.7H440.4z"/>
		<g>
			
				<linearGradient id="SVGID_00000154410102166615740690000002721183461898123436_" gradientUnits="userSpaceOnUse" x1="-1344.2424" y1="-1703.3522" x2="-1367.2618" y2="-1672.8992" gradientTransform="matrix(-0.8116 -0.5843 -0.5843 0.8116 -1655.4185 850.0378)">
				<stop  offset="0" style="stop-color:#F7B777"/>
				<stop  offset="1" style="stop-color:#F47960"/>
			</linearGradient>
			<path style="fill:url(#SVGID_00000154410102166615740690000002721183461898123436_);" d="M427.2,250.3
				c-0.2,0.2-5.7,19.5-5.7,19.5l11.1,2.9l8-17.5C440.6,255.2,430.2,246.2,427.2,250.3z"/>
			
				<linearGradient id="SVGID_00000022538139940749489510000007959375551726971283_" gradientUnits="userSpaceOnUse" x1="-1361.8229" y1="-1696.0388" x2="-1334.3258" y2="-1696.0388" gradientTransform="matrix(-0.8116 -0.5843 -0.5843 0.8116 -1655.4185 850.0378)">
				<stop  offset="0" style="stop-color:#293882"/>
				<stop  offset="1" style="stop-color:#171042"/>
			</linearGradient>
			<path style="fill:url(#SVGID_00000022538139940749489510000007959375551726971283_);" d="M436.2,256.5c0.3,0.4,0.3,1,0.2,1.4
				l-3.4,9.4c-0.1,0.1-0.1,0.3-0.2,0.4c-0.5,0.7-2.2,2.7-4.3,0.8c-1.7-1.6-3.3-3.1-4.8-3.5c-0.9-0.3-1.8,0.3-2,1.1
				c-0.5,1.8-1.5,5.5-1.9,8.9c-0.1,0.8,0.5,1.6,1.3,1.8c2.2,0.4,6.6,1.1,10.3,0.9c0.6,0,1.1-0.4,1.4-0.9c1.1-2.4,4.4-9.2,5.6-11
				c1.1-1.6,3.8-1.6,5-1.5c0.5,0,0.9-0.1,1.3-0.4c1-0.9,2.7-3.1,0.3-5.7c-0.6-0.6-0.6-1.7,0.1-2.3c1.1-1.1,2.2-3,0.4-5.3
				c-1.9-2.4-4.4-2.1-6-1.6c-0.7,0.2-1.5,0-2-0.6c-0.2-0.3-0.5-0.5-1-0.5c-0.9,0-1.6-0.7-1.6-1.6c0-1.5-0.6-3.4-3.2-4.3
				c-4.8-1.6-7.9,3.1-8.2,6.6c-0.3,3.5,5,4.9,8.2,4.7C433.7,253.1,435.4,255.4,436.2,256.5z"/>
			
				<linearGradient id="SVGID_00000017500812207033676690000015017794441361327250_" gradientUnits="userSpaceOnUse" x1="-1377.957" y1="-1679.2355" x2="-1359.4934" y2="-1698.1787" gradientTransform="matrix(-0.8116 -0.5843 -0.5843 0.8116 -1655.4185 850.0378)">
				<stop  offset="0" style="stop-color:#F7B777"/>
				<stop  offset="1" style="stop-color:#F47960"/>
			</linearGradient>
			<path style="fill:url(#SVGID_00000017500812207033676690000015017794441361327250_);" d="M436.9,269.3c0,0,0.8-6.1,3.4-6.3
				c2.5-0.3,5,1.8,2.4,5.2C439.6,272.4,436.9,269.3,436.9,269.3z"/>
		</g>
	</g>
</g>
</svg>
