<?xml version="1.0" encoding="utf-8"?>
<!-- Generator: Adobe Illustrator 26.0.2, SVG Export Plug-In . SVG Version: 6.00 Build 0)  -->
<svg version="1.1" id="Layer_1" xmlns="http://www.w3.org/2000/svg" xmlns:xlink="http://www.w3.org/1999/xlink" x="0px" y="0px"
	 viewBox="0 0 553 503" style="enable-background:new 0 0 553 503;" xml:space="preserve">
<style type="text/css">
	.st0{fill:url(#SVGID_1_);}
	
		.st1{clip-path:url(#SVGID_00000044869434765479639940000006084960993774067887_);fill:url(#SVGID_00000103981075705729860890000004727436442572196031_);}
	
		.st2{clip-path:url(#SVGID_00000044869434765479639940000006084960993774067887_);fill:url(#SVGID_00000170974120710593973670000017964445061714644889_);}
	.st3{fill:#D8D8D8;}
	.st4{fill:#EE1D4A;}
	.st5{fill:url(#SVGID_00000048497114911086303460000015481760726355525528_);}
	.st6{fill:url(#SVGID_00000001625095808132920930000009146564418599130253_);}
	.st7{fill:#ED9169;}
	.st8{fill:url(#SVGID_00000047052175296274738340000001570693292858155660_);}
	.st9{fill:#FCB31E;}
	.st10{fill:url(#SVGID_00000081621394060403852070000011586802501570697871_);}
	.st11{fill:url(#SVGID_00000036934439185059258790000005671846269683233698_);}
	.st12{fill:#F9AE85;}
	
		.st13{opacity:0.3;clip-path:url(#SVGID_00000140728792617240327460000006459214433055537595_);fill:url(#SVGID_00000101805579276269778560000001986042447920881549_);}
	.st14{opacity:0.8;}
	.st15{fill:url(#SVGID_00000170978379152194047030000011365571362868791462_);}
	.st16{opacity:0.5;fill:#86C7ED;}
	.st17{fill:none;stroke:#BECCE9;stroke-width:0.9249;stroke-miterlimit:10;}
	.st18{fill:#F6F2F9;}
	.st19{opacity:0.4;fill:#EE396A;}
	.st20{fill:#FFC553;}
	.st21{fill:#EEF4FB;}
	.st22{fill:#F1BAD1;}
	.st23{fill:#AAA3D0;}
	.st24{opacity:0.6;}
	.st25{fill:#86C7ED;}
	.st26{opacity:0.5;fill:#EE396A;}
	.st27{fill:none;stroke:#FFC553;stroke-width:1.0095;stroke-miterlimit:10;}
	.st28{fill:#EE396A;}
	.st29{fill:url(#SVGID_00000101800563126726255500000013548944962217889411_);}
	.st30{fill:url(#SVGID_00000111183564120453349070000006790344100211278236_);}
	.st31{fill:#5251A3;}
	.st32{fill:url(#SVGID_00000114769446825570190700000006686417768005201818_);}
	.st33{fill:url(#SVGID_00000040533698800722585290000016929159401682168242_);}
	.st34{fill:url(#SVGID_00000158710551958933061140000012207661325226714017_);}
	.st35{fill:url(#SVGID_00000122697149473545290880000011471990113501308071_);}
	.st36{fill:url(#SVGID_00000140015922035847195740000004529067750281933196_);}
	
		.st37{opacity:0.3;clip-path:url(#SVGID_00000110436645613984917340000011307270764084198321_);fill:url(#SVGID_00000058589396994406994510000018067932114189294271_);}
	.st38{opacity:0.5;}
	.st39{fill:#8050A0;}
</style>
<g>
	<g>
		<linearGradient id="SVGID_1_" gradientUnits="userSpaceOnUse" x1="293.3056" y1="379.6934" x2="293.3056" y2="266.7101">
			<stop  offset="0" style="stop-color:#432B7D"/>
			<stop  offset="1" style="stop-color:#D21F39"/>
		</linearGradient>
		<path class="st0" d="M463.5,382.5c-18.6,45.2-56.5,38-73.6,18c-24.3-28.4-14.7-46.5-70.6-29c-41.2,12.9-84.1-11.5-76.8-58.6
			c10.2-65.8-48.9-35.7-79.9-44.1c-64-17.3-46.6-61.4-23.2-136.6c24-77.2,71.2-110.6,141.1-120.4c51.6-7.2,96.7,0.4,109.5,41
			c18.4,58.4-43.2,78,8.8,93.7c31.1,9.4,74.9,44.1,35.2,99.7C394.4,301.9,490.3,317.3,463.5,382.5z"/>
		<g>
			<defs>
				<path id="SVGID_00000088128726667675611660000003184250988815113634_" d="M463.5,382.5c-18.6,45.2-56.5,38-73.6,18
					c-24.3-28.4-14.7-46.5-70.6-29c-41.2,12.9-84.1-11.5-76.8-58.6c10.2-65.8-48.9-35.7-79.9-44.1c-64-17.3-46.6-61.4-23.2-136.6
					c24-77.2,71.2-110.6,141.1-120.4c51.6-7.2,96.7,0.4,109.5,41c18.4,58.4-43.2,78,8.8,93.7c31.1,9.4,74.9,44.1,35.2,99.7
					C394.4,301.9,490.3,317.3,463.5,382.5z"/>
			</defs>
			<clipPath id="SVGID_00000183927880666676657410000001858459792862707382_">
				<use xlink:href="#SVGID_00000088128726667675611660000003184250988815113634_"  style="overflow:visible;"/>
			</clipPath>
			
				<linearGradient id="SVGID_00000068665309928257767790000007845439453114554248_" gradientUnits="userSpaceOnUse" x1="300.8037" y1="368.8429" x2="300.8037" y2="188.7501">
				<stop  offset="0" style="stop-color:#432B7D"/>
				<stop  offset="1" style="stop-color:#D21F39"/>
			</linearGradient>
			
				<path style="clip-path:url(#SVGID_00000183927880666676657410000001858459792862707382_);fill:url(#SVGID_00000068665309928257767790000007845439453114554248_);" d="
				M512.6,324.9c-14.9,6.3-33.6,5-48.8-3.7c-9.7-5.6-16.7-11.1-23-16c-19.1-15.1-27-21.3-70.4,11.5c-23.5,17.7-52.9,23-76.8,13.8
				c-21-8.1-35.2-26.3-40-51.3c-3.9-20.6-10.7-33.2-20.6-38.4c-14.2-7.5-33.7,1-52.6,9.2c-12.7,5.5-25.8,11.2-37.5,12.1
				c-26,2-44.8-2.5-57.5-13.8C61.6,227.1,60,184,57.7,124.3c-0.2-4.6-0.4-9.3-0.6-14c-2-49.5,6.8-89.9,27-123.4
				C103-44.4,132.1-70,173-91.4c31.5-16.5,59.4-25.3,83-26.1c27.5-1,49.2,8.7,64.5,28.9c21.9,28.9,19.2,55.2,17.3,74.4
				c-1.2,11.5-2.1,20.6,2.9,25.7c4.3,4.6,13.3,6.3,28.2,5.6c23.2-1.1,56.9,5.9,75.5,29.4c14.7,18.6,17.7,43.7,8.9,74.7
				c-11.6,40.5,11.9,54.5,39.1,70.7c25.5,15.2,54.5,32.4,52.4,76.4c-1.6,33.4-16.1,48.2-28,54.7C515.3,323.7,514,324.3,512.6,324.9z
				"/>
			
				<linearGradient id="SVGID_00000106114889745430748490000014334636455999014294_" gradientUnits="userSpaceOnUse" x1="308.6889" y1="308.7925" x2="308.6889" y2="156.4057">
				<stop  offset="0" style="stop-color:#432B7D"/>
				<stop  offset="1" style="stop-color:#D21F39"/>
			</linearGradient>
			
				<path style="clip-path:url(#SVGID_00000183927880666676657410000001858459792862707382_);fill:url(#SVGID_00000106114889745430748490000014334636455999014294_);" d="
				M502.8,300.4c-15.6,4.3-34,0.6-47.9-10.1c-8.9-6.8-15.1-13.2-20.6-18.9c-16.9-17.5-23.9-24.7-71.3,2.1
				c-25.6,14.5-55.5,15.9-77.9,3.6c-19.8-10.8-31.4-30.7-32.9-56.1c-1.2-20.9-6.2-34.3-15.4-40.8c-13.1-9.3-33.6-3.5-53.3,2.2
				c-13.3,3.8-27.1,7.7-38.7,7.1c-26-1.4-44.1-8.4-55.2-21.2c-20.8-24.1-16.8-67.1-11.2-126.6c0.4-4.6,0.9-9.2,1.3-14
				c4.5-49.4,18.6-88.2,43-118.7c22.8-28.5,55-50,98.4-65.8c33.4-12.2,62.2-17.2,85.7-15c27.4,2.6,47.6,15.1,60.1,37.1
				c17.9,31.5,11.8,57.2,7.4,76c-2.7,11.2-4.8,20.1-0.5,25.9c3.7,5.1,12.3,8,27.2,9.3c23.1,1.9,55.6,13.3,71,39.1
				c12.2,20.3,11.8,45.6-1,75.2c-16.8,38.6,4.6,55.6,29.4,75.2c23.3,18.4,49.7,39.3,41.9,82.6c-6,32.9-22.3,45.7-35,50.6
				C505.8,299.5,504.3,300,502.8,300.4z"/>
		</g>
	</g>
	<g>
		<path class="st3" d="M164.1,489.6c0,1.8-19.5,3.3-43.5,3.3c-24,0-43.5-1.5-43.5-3.3c0-1.8,19.5-3.3,43.5-3.3
			C144.7,486.3,164.1,487.8,164.1,489.6z"/>
		<g>
			<path class="st4" d="M94,479.1c0.5,2,0.3,2.7,0.5,4c0.3,1.6,1.8,2.2,2.7,3.5c1,1.5,2.5,3.8-3.5,3.9c-6.4,0.1-10.2-0.3-9.1-3.8
				c1.1-3.5,1.3-5,1.2-6.2c-0.1-1.1,0-2.3,0.7-3C87.3,476.9,93.1,475.6,94,479.1z"/>
			
				<linearGradient id="SVGID_00000174561781120376056690000009117847752631515815_" gradientUnits="userSpaceOnUse" x1="188.6414" y1="249.7526" x2="140.0403" y2="263.1427">
				<stop  offset="0" style="stop-color:#EE1D4A"/>
				<stop  offset="1" style="stop-color:#9D1F60"/>
			</linearGradient>
			<path style="fill:url(#SVGID_00000174561781120376056690000009117847752631515815_);" d="M180.2,239.6c0.3,3.6,0.1,6-4.2,13.3
				c-5.7,9.9-9.5,15.1-13.3,19.2c-3.5,3.8-11.3-5.7-7.8-11.7c3-5.1,19.3-18.9,21.1-22C177.2,236.3,180,236.7,180.2,239.6z"/>
			
				<linearGradient id="SVGID_00000137830085622944023450000001294200680328102812_" gradientUnits="userSpaceOnUse" x1="188.6648" y1="249.8365" x2="140.0627" y2="263.2268">
				<stop  offset="0" style="stop-color:#EE1D4A"/>
				<stop  offset="1" style="stop-color:#9D1F60"/>
			</linearGradient>
			<path style="fill:url(#SVGID_00000137830085622944023450000001294200680328102812_);" d="M160.6,272.9c-2.8,0.5-9.1,0.8-24.1-2.5
				c-9.2-2-12.9-3.6-15.6-4.6c-4.8-1.8-5.6-7.1-3.7-9.1c2.9-3.3,9.1-5.7,11.6-4.9c14.6,4.5,25.6,8.8,29.3,9.2
				C163.6,261.7,163.9,272.3,160.6,272.9z"/>
			<path class="st4" d="M122,233.3c2.6,1.2,3.8,1.2,4.7-2c0.7-2.5,2-11.4-2.1-12c-4.1-0.6-7.2-0.7-6.8,4.8
				C118.4,229.5,118.9,231.8,122,233.3z"/>
			<path class="st7" d="M106.7,238c-0.1,0.4-0.9,8.9-1.1,15.4c-0.1,3.2,3.1,6.2,6.3,6.3c0,0,0.1,0,0.1,0c3.1,0,6.8-2.8,6.6-6
				c-0.5-5.7-0.1-11.5-0.1-11.6L106.7,238z"/>
			
				<linearGradient id="SVGID_00000168087547476977991080000015302342557754417336_" gradientUnits="userSpaceOnUse" x1="114.1136" y1="265.3604" x2="122.5446" y2="337.7681">
				<stop  offset="0" style="stop-color:#EE1D4A"/>
				<stop  offset="1" style="stop-color:#9D1F60"/>
			</linearGradient>
			<path style="fill:url(#SVGID_00000168087547476977991080000015302342557754417336_);" d="M90.9,273.5c5.8,19.2,8.4,42.4,7.3,55.8
				h43.9c0,0-0.3-41.1-3.2-63.7c-0.7-5.2-3.7-10-9.3-12.9c-3.3-1.8-9.3-2.6-11.7-2.6h-8.1c-2.7,0-5.9,0.6-8.6,1.1
				C89.6,253.4,87.5,262.4,90.9,273.5z"/>
			<path class="st9" d="M98.4,356.2c0,0-3.8-9.2-0.2-26.9h43.9c0,0,1.6,12.6,1.6,26.9H98.4z"/>
			<g>
				<g>
					<path class="st9" d="M107,413.7c3.5-14.3-11.1-16.8-15.7-6.5c-6.5,14.6-6,61.4-5.7,70.7c0,1.2,0.7,1,1.4,0.7
						c2.1-0.7,3.8-1,4.6-0.8c1.6,0.3,2.4,1.9,2.4,1.9C95.6,467,103.6,427.5,107,413.7z"/>
					<path class="st9" d="M120.2,358.1c1.5-17.8-5.5-31.6-16.5-25.7c-4.6,2.5-6.3,7.4-7,12.1c-0.6,4.6-4,53-5.2,61.7
						c-2.7,19.7,12.9,14.4,14.5,8.9C110.3,401.3,119.3,367.8,120.2,358.1z"/>
				</g>
			</g>
			<path class="st9" d="M146.1,412.7c0.6-13.3-12.4-13-15.7-2.2c-5.1,17.1,3.7,53.7,4.3,74.6c2.3-3.6,4.4-4.5,5.4-4.4
				c1.6,0.1,2.5,1.4,2.5,1.4C142.3,454.6,145.5,427,146.1,412.7z"/>
			<path class="st9" d="M131,414.2c1.7,5.4,16.6,11.7,15-8.1c-0.7-8.8-2.5-57.3-2.9-62c-0.4-4.7-1.2-11.5-3.5-12.4
				c-11.7-4.3-23.1,9.7-20,27.2C121.7,370.7,127.4,402.9,131,414.2z"/>
			
				<linearGradient id="SVGID_00000168082276803181401610000012191286848378010525_" gradientUnits="userSpaceOnUse" x1="83.2027" y1="268.9591" x2="91.6337" y2="341.3669">
				<stop  offset="0" style="stop-color:#EE1D4A"/>
				<stop  offset="1" style="stop-color:#9D1F60"/>
			</linearGradient>
			<path style="fill:url(#SVGID_00000168082276803181401610000012191286848378010525_);" d="M97.8,319.3c-3.5-1-5.3-3.5-11.1-9.6
				c-8.4-8.8-9.8-11.4-13.1-18.7c-2.1-4.7,9-8.1,13.5-2.7c3.7,4.5,11,24.6,13.3,27.4C102,317.5,100.6,320.1,97.8,319.3z"/>
			
				<linearGradient id="SVGID_00000075156065164609724710000000151678534606378635_" gradientUnits="userSpaceOnUse" x1="88.5891" y1="268.3325" x2="97.0201" y2="340.7404">
				<stop  offset="0" style="stop-color:#EE1D4A"/>
				<stop  offset="1" style="stop-color:#9D1F60"/>
			</linearGradient>
			<path style="fill:url(#SVGID_00000075156065164609724710000000151678534606378635_);" d="M73.4,289.4c0.4-2.8,2.4-8.8,10.8-21.7
				c5.1-7.9,7.8-10.9,9.7-13.1c3.4-3.9,8.6-2.8,9.8-0.4c2,3.9,2.2,10.5,0.6,12.6c-9.3,12.2-17.1,21-18.8,24.3
				C82.9,296,72.9,292.7,73.4,289.4z"/>
			<path class="st12" d="M102.4,231.9c0.7,7.3,0.9,8.9,4.1,11.9c3.2,3,7.7,4.3,11.2,4.3c3.7,0,6.5-3.9,7.3-7
				c0.9-3.2,1.9-10.7,0.8-18.6c-0.5-4-5.5-8.9-10.6-8.9S100.6,214.1,102.4,231.9z"/>
			<path class="st12" d="M96.5,314.7c1.7-1.8,4.3-4.7,5.6-6.4c1.3-1.6,5.1,1.2,5.2,2.6c0.1,2.1-2,7.8-4.7,7.8
				c-2.7,0-3.5,2.5-5.8,1.7C94.6,319.7,93.8,317.7,96.5,314.7z"/>
			<path class="st4" d="M143.2,482c0.5,0.9,2.9,3.1,6.2,4.5c3.3,1.4,10.4,2.1,6.5,3.4c-3.9,1.3-8.5,0.5-10.8,0.1
				c-2.3-0.4-4.6-0.4-7.3-0.4c-3.6,0-3.6-0.2-3.1-4.1C135.4,480.1,141.6,479,143.2,482z"/>
			<path class="st4" d="M102.4,230.7c2,2,3,2.3,4.9-0.3c1.5-2,5.5-9.7,2-11.5c-3.5-1.9-6.3-3-7.7,2.1
				C100.3,226.1,100.1,228.4,102.4,230.7z"/>
			<path class="st12" d="M104.6,232c1,2.5,0.8,5-0.5,5.5c-1.3,0.5-3.2-1.1-4.2-3.6c-1-2.5-0.8-5,0.5-5.5
				C101.7,227.8,103.6,229.4,104.6,232z"/>
			<path class="st4" d="M104.7,217.5c2.8,4.2,16.5,4.6,21,3.1c4.5-1.6,4.2-10.2-2.2-10.8c-3.6,0-1,0.9-3.9,2
				C118,212.5,101.6,213,104.7,217.5z"/>
			<path class="st12" d="M175.4,238.8c0.8-2.2,7.9-19.2,10.8-16.3c3.1,3.1,1.8,10.5,1,12.9c-1.4,4.4-5.6,7-8.4,6.9
				C176.8,242.1,174.6,240.9,175.4,238.8z"/>
			<path class="st12" d="M175,237.5c-0.1-1.1-0.7-7.4,0.5-7.6c1.8-0.3,2.4,3.8,2.8,6.6c0.2,1.5-0.5,3.6-1.7,3.7
				C175.4,240.2,175.2,239.2,175,237.5z"/>
		</g>
		<g>
			<defs>
				<path id="SVGID_00000077311021221850588240000006565187410814310530_" d="M186.1,222.5c-1.9-1.9-5.8,5.3-8.4,10.8
					c-0.4-1.9-1.1-3.6-2.3-3.4c-1.2,0.2-0.6,6.6-0.5,7.6c0.1,0.7,0.2,1.2,0.3,1.6c0,0.1,0,0.1,0,0.2c-3.6,4.3-17.4,16.2-20.3,20.9
					c-5.2-1.5-14.5-5-26.2-8.5c-0.5-0.1-1.1-0.1-1.7-0.1c-3-1-6.6-1.5-8.6-1.5c0-0.8,0-1.5,0-2.2c3.4-0.5,5.8-4,6.6-6.9
					c0.5-1.7,1-4.7,1.2-8.4c0.2-0.4,0.4-0.8,0.5-1.4c0.6-2.1,1.5-8.5-0.4-11c3.7-2.2,3.1-9.9-2.9-10.4c-3.6,0-1,0.9-3.9,2
					c-1.5,0.6-17.5,1.2-14.9,5.5c-1.2,0.2-2.2,1.2-2.9,3.6c-0.9,3.4-1.3,5.5-0.8,7.3c-0.2,0-0.4,0-0.6,0.1c-1.3,0.5-1.6,3-0.5,5.5
					c0.8,2,2.1,3.3,3.3,3.6c0.5,2.7,1.2,4.1,3.1,5.9c-0.2,2.1-0.4,4.6-0.5,7c-1.5,0.2-3.1,0.5-4.5,0.7c-1.4,0.3-2.6,0.6-3.7,1.1
					c-0.9,0.2-1.8,0.7-2.7,1.4c-1.9,1.2-3.2,2.8-4.1,4.7c-1.6,2.1-3.7,4.9-6.6,9.4c-8.4,12.9-10.3,18.9-10.8,21.7c0,0.2,0,0.4,0,0.6
					c0,0.3,0.1,0.7,0.2,1.1c3.2,7.2,4.6,9.8,13.1,18.7c4,4.2,6.1,6.6,8.1,8.1c-0.1,1.3,0.7,2.2,2.1,2.7c0.6,0.2,1.1,0.2,1.5,0
					c0.1,3.2,0,6.2-0.2,8.8c-1.3,6.3-1.6,11.5-1.5,15.6c-0.7,6.4-4,52.8-5.2,61.3c0,0.3-0.1,0.7-0.1,1c0,0,0,0,0,0
					c-6.5,14.6-6,61.4-5.7,70.7c0,0.5,0.1,0.7,0.3,0.9c-0.1,0.6-0.1,1.2-0.1,1.8c0.1,1.1-0.1,2.7-1.2,6.2c-1.1,3.5,2.7,3.9,9.1,3.8
					c6-0.1,4.5-2.4,3.5-3.9c-0.9-1.3-2.4-1.9-2.7-3.5c-0.2-1.2-0.1-1.8-0.4-3.4c0,0,0,0,0,0c1.4-12.7,9.4-52.2,12.8-66.1
					c0.3-1.3,0.5-2.5,0.5-3.6c4.2-14.4,10.7-39,12.3-49.5c2.1,11.8,6.9,38.5,10.3,51c-4.5,17.5,4,53.1,4.6,73.7c0,0,0,0,0,0
					c0,0.1-0.1,0.2-0.1,0.4c-0.5,3.9-0.5,4.1,3.1,4.1c2.7,0,5,0.1,7.3,0.4c2.3,0.4,6.9,1.1,10.8-0.1c3.9-1.3-3.1-1.9-6.5-3.4
					c-3.3-1.4-5.7-3.6-6.2-4.5c-0.1-0.3-0.3-0.5-0.5-0.7c-0.3-27.3,2.8-54.5,3.4-68.6c0-0.9,0-1.6-0.1-2.4c0.1-1.3,0.1-2.7-0.1-4.2
					c-0.5-6.4-1.6-33.7-2.3-49.9l0,0c0-14.3-1.6-26.9-1.6-26.9s-0.2-35.2-2.6-58.3c12.5,2.6,18.2,2.4,20.9,1.9
					c0.9,0.1,1.7-0.1,2.3-0.8c3.8-4.1,7.6-9.3,13.3-19.2c3.2-5.6,4.1-8.3,4.2-10.9c2.6-0.6,5.7-3,6.8-6.7
					C187.9,232.9,189.2,225.6,186.1,222.5z M87.2,288.5c1.4-1.9,3.4-4.3,5.8-7.3c2.5,9.9,4.1,20.4,4.9,29.8
					C94.8,304,90,292,87.2,288.5z"/>
			</defs>
			<clipPath id="SVGID_00000067951460466766339270000012259953457649163446_">
				<use xlink:href="#SVGID_00000077311021221850588240000006565187410814310530_"  style="overflow:visible;"/>
			</clipPath>
			
				<linearGradient id="SVGID_00000044864180416550412870000011002237055723182208_" gradientUnits="userSpaceOnUse" x1="282.5525" y1="11.2053" x2="528.3575" y2="162.2228" gradientTransform="matrix(-0.3987 -0.8712 0.5368 -0.4748 160.3165 731.9463)">
				<stop  offset="0" style="stop-color:#3953A4"/>
				<stop  offset="1" style="stop-color:#9D1F60"/>
			</linearGradient>
			
				<path style="opacity:0.3;clip-path:url(#SVGID_00000067951460466766339270000012259953457649163446_);fill:url(#SVGID_00000044864180416550412870000011002237055723182208_);" d="
				M45.3,195c22.9-3.8,55.5,11.5,62.1,35.4c6.7,24.5-11.7,36.2,3.4,70c11.9,26.8-1.8,56.2-5,79.4c-3.5,25.5,9.2,37.8,5,60.5
				c-9.7,52.2-9.1,67.6-45,78.7C28.9,530.4,21.3,479-2.6,438.3c-17.7-30-27.7-61.1-15.6-83.1c17.4-31.6,42.7,0.5,33.8-37.7
				c-5.3-22.8-4.5-62.3,28.6-56.4C77.2,267,12.3,200.5,45.3,195z"/>
		</g>
	</g>
	<g class="st14">
		
			<linearGradient id="SVGID_00000058579304949679125320000012434547068696333731_" gradientUnits="userSpaceOnUse" x1="105.523" y1="409.2034" x2="427.1458" y2="145.0617">
			<stop  offset="0" style="stop-color:#432B7D"/>
			<stop  offset="1" style="stop-color:#D21F39"/>
		</linearGradient>
		<polygon style="fill:url(#SVGID_00000058579304949679125320000012434547068696333731_);" points="188.6,122.6 188.6,356.5 
			461.2,335.5 461.2,152.4 		"/>
		<polygon class="st16" points="198.3,350.5 466.6,331 466.6,167.1 198.3,141.6 		"/>
		<polygon class="st16" points="323,328.7 440.4,321.5 440.4,172.2 323,162 		"/>
		<path class="st17" d="M341,200.5l102,5.5c1.2,0.1,2.2-1.2,2.2-2.8V183c0-1.6-1-3-2.2-3.1l-102-8.1c-1.5-0.1-2.7,1.2-2.7,3v22.4
			C338.2,198.9,339.5,200.4,341,200.5z"/>
		<path class="st17" d="M341,238.4l102,2c1.2,0,2.2-1.3,2.2-2.9v-20.2c0-1.6-1-3-2.2-3l-102-4.6c-1.5-0.1-2.7,1.3-2.7,3.1v22.4
			C338.2,236.9,339.5,238.4,341,238.4z"/>
		<path class="st18" d="M337.4,242.6l102.7,1.6c1.2,0,2.3-1.3,2.3-2.9V221c0-1.6-1-3-2.3-3l-102.7-4.3c-1.5-0.1-2.8,1.3-2.8,3.1
			v22.5C334.6,241.1,335.8,242.6,337.4,242.6z"/>
		<path class="st17" d="M341,276.4l102-1.5c1.2,0,2.2-1.3,2.2-2.9v-20.2c0-1.6-1-2.9-2.2-2.9l-102-1.1c-1.5,0-2.7,1.4-2.7,3.2v22.4
			C338.2,275,339.5,276.4,341,276.4z"/>
		<polygon class="st19" points="147.9,310.6 291.6,305 291.6,120.6 147.9,103.2 		"/>
		<path class="st17" d="M341,314.3l102-5c1.2-0.1,2.2-1.4,2.2-3V286c0-1.6-1-2.9-2.2-2.9l-102,2.4c-1.5,0-2.7,1.5-2.7,3.3v22.4
			C338.2,313,339.5,314.4,341,314.3z"/>
		<g>
			<path class="st20" d="M228.4,235.2c-17.2,6.9-38.1,2.6-52.9-13c-7.2-7.7-11.9-17-14-26.6l25-4.2c2.5,11.9,12.5,21,24.2,21.6
				c3.2,0.1,6.2-0.4,8.9-1.4L228.4,235.2z"/>
			<path class="st21" d="M246.1,218.2c-0.4,0.4-0.7,0.7-1.1,1.1l-15.8-18.8c4.6-4.4,7.4-10.7,7.4-18c0-13.8-10.5-26-23.8-27.1
				c-9.6-0.8-18.1,4.4-22.2,12.6l-22.8-13.3c2.4-4.8,5.7-9.3,9.8-13.1c19.7-18.3,50.3-15,68.5,6.4
				C263.7,168.8,263.7,199.7,246.1,218.2z"/>
			<path class="st22" d="M188,179.4c0,1.9,0.2,3.8,0.6,5.6l-25,4.2c-2.5-11.8-1.1-24,4.2-34.4l22.8,13.3
				C188.9,171.4,188,175.3,188,179.4z"/>
			<path class="st23" d="M245,219.3c-4.3,4.2-9.2,7.4-14.5,9.5l-8.7-23.6c2.8-1,5.3-2.7,7.4-4.7L245,219.3z"/>
		</g>
		<g class="st24">
			<polygon class="st25" points="396.3,223.9 437.4,225.3 437.4,222.3 396.3,220.8 			"/>
			<polygon class="st25" points="396.3,229.4 437.4,230.6 437.4,227.6 396.3,226.3 			"/>
			<polygon class="st25" points="419.6,235.5 437.4,235.9 437.4,232.9 419.6,232.5 			"/>
		</g>
		<polygon class="st26" points="366.9,283.2 379.2,283.5 379.2,268.8 366.9,268.3 		"/>
		<polygon class="st26" points="345.4,249.6 358.1,249.9 358.1,235 345.4,234.6 		"/>
		<polygon class="st22" points="221.8,244.9 221.8,337.9 224,337.7 224,244.9 		"/>
		<polygon class="st21" points="310.5,303.2 310.5,332.2 312.4,332.1 312.4,303.1 		"/>
		<polygon class="st23" points="267.8,271.8 267.8,334.9 269.9,334.8 269.9,271.8 		"/>
		<path class="st27" d="M172.6,317c25.6-1.2,25.6-59.6,50.3-59.5c23.7,0,23.7,56.2,46.4,55.2c21.9-1,21.9-55,43.1-55"/>
		<polygon class="st28" points="255.4,242.5 255.4,237.7 246.5,237.5 246.5,242.4 		"/>
		<polygon class="st28" points="270.8,242.7 270.8,238 262.1,237.8 262.1,242.6 		"/>
		<polygon class="st28" points="285.7,242.9 285.7,238.3 277.3,238.1 277.3,242.8 		"/>
		<polygon class="st16" points="393.3,260.2 435,260.2 435,256.2 393.3,256.1 		"/>
		<polygon class="st16" points="407.3,267.6 435,267.4 435,263.4 407.3,263.5 		"/>
		<polygon class="st16" points="396.8,267.7 404,267.6 404,263.5 396.8,263.5 		"/>
		<polygon class="st16" points="393.3,188.9 435,191.7 435,187.6 393.3,184.7 		"/>
		<polygon class="st16" points="410.6,197.3 435,198.8 435,194.8 410.6,193.2 		"/>
		<polygon class="st16" points="380,195.5 407.3,197.1 407.3,193 380,191.2 		"/>
		<polygon class="st16" points="418.8,295.5 435,294.9 435,290.9 418.8,291.4 		"/>
		<polygon class="st16" points="398.8,296.2 415.7,295.6 415.7,291.5 398.8,292 		"/>
		<polygon class="st16" points="407.3,303.2 435,302.1 435,298.1 407.3,299.1 		"/>
		<polygon class="st16" points="375,304.6 404,303.4 404,299.2 375,300.3 		"/>
		<g>
			<path class="st21" d="M279.9,156c-2.7-1.5-6-1.1-8.3,1.2c-1.1,1.1-1.8,2.5-2.1,4l3.8,1.2c0.4-1.9,1.9-3.2,3.8-3
				c0.5,0,1,0.2,1.4,0.4L279.9,156z"/>
			<path class="st20" d="M282.5,158.1c-0.1-0.1-0.1-0.1-0.2-0.2l-2.6,2.9c0.7,0.8,1.2,2,1.2,3.2c0,2.3-1.7,4.1-3.8,3.9
				c-1.5-0.1-2.8-1.2-3.5-2.7l-3.4,1.6c0.4,0.8,0.9,1.6,1.5,2.4c3,3.6,7.8,3.9,10.8,0.8C285.5,166.9,285.5,161.6,282.5,158.1z"/>
			<path class="st20" d="M273.3,163.3c0-0.3,0-0.6,0.1-0.9l-3.8-1.2c-0.4,1.8-0.2,3.8,0.6,5.7l3.4-1.6
				C273.4,164.6,273.3,163.9,273.3,163.3z"/>
			<path class="st22" d="M282.3,157.8c-0.7-0.8-1.5-1.4-2.4-1.9l-1.4,3.8c0.4,0.2,0.9,0.6,1.2,0.9L282.3,157.8z"/>
		</g>
		<g>
			<path class="st22" d="M270.1,218.1c1.2,3.1,3.9,5.3,7.1,5.4c1.5,0,2.9-0.4,4.1-1.2l-2-3.6c-1.5,1-3.5,0.7-4.8-0.7
				c-0.4-0.4-0.6-0.9-0.8-1.4L270.1,218.1z"/>
			<path class="st23" d="M269.4,214.7c0,0.1,0,0.2,0,0.3l3.8,0c0-1.1,0.3-2.3,1.1-3.1c1.5-1.6,3.9-1.5,5.4,0.2
				c1.1,1.2,1.4,2.9,0.9,4.4l3.6,1.5c0.3-0.8,0.4-1.7,0.4-2.7c0-4.7-3.4-8.6-7.6-8.8C272.9,206.3,269.4,210,269.4,214.7z"/>
			<path class="st21" d="M279.8,218.1c-0.2,0.2-0.4,0.4-0.6,0.6l2,3.6c1.4-1,2.5-2.5,3.1-4.3l-3.6-1.5
				C280.6,217.1,280.3,217.6,279.8,218.1z"/>
			<path class="st20" d="M269.4,214.9c0,1.1,0.2,2.1,0.6,3.1l3.5-1.6c-0.2-0.5-0.3-1-0.3-1.6L269.4,214.9z"/>
		</g>
		<g>
			<path class="st23" d="M280.1,197.2c2.7-1.1,4.6-4,4.6-7.5c0-1.7-0.4-3.3-1.2-4.6l-3.2,2.1c0.9,1.7,0.8,3.9-0.5,5.3
				c-0.4,0.4-0.8,0.7-1.2,0.8L280.1,197.2z"/>
			<path class="st22" d="M277.1,197.8c0.1,0,0.2,0,0.3,0l-0.1-4.2c-1,0-2.1-0.5-2.8-1.4c-1.5-1.8-1.5-4.5,0-6
				c1.1-1.1,2.6-1.4,3.9-0.8l1.2-3.9c-0.8-0.3-1.6-0.6-2.5-0.6c-4.2-0.3-7.7,3.3-7.7,8C269.4,193.5,272.9,197.5,277.1,197.8z"/>
			<path class="st20" d="M279.8,186.4c0.2,0.2,0.4,0.5,0.5,0.7l3.2-2.1c-0.9-1.7-2.3-3-3.9-3.7l-1.2,3.9
				C278.9,185.6,279.4,185.9,279.8,186.4z"/>
			<path class="st21" d="M277.4,197.8c1,0,1.9-0.2,2.8-0.5l-1.5-4c-0.4,0.2-0.9,0.3-1.4,0.3L277.4,197.8z"/>
		</g>
	</g>
	<g>
		<path class="st3" d="M483.5,489.6c0,1.8-19.5,3.3-43.5,3.3c-24,0-43.5-1.5-43.5-3.3c0-1.8,19.5-3.3,43.5-3.3
			C464.1,486.3,483.5,487.8,483.5,489.6z"/>
		<g>
			<g>
				
					<linearGradient id="SVGID_00000099651088270609564580000001203161747667813763_" gradientUnits="userSpaceOnUse" x1="447.2827" y1="298.8187" x2="479.0225" y2="332.2116">
					<stop  offset="0" style="stop-color:#EE1D4A"/>
					<stop  offset="1" style="stop-color:#FCB31E"/>
				</linearGradient>
				<path style="fill:url(#SVGID_00000099651088270609564580000001203161747667813763_);" d="M436.4,313.8c3.4,1.1,6.3,0.1,14.6-1.7
					c11.9-2.6,14.6-4,21.2-8.2c4.4-2.7-3-11.8-9.6-9.8c-5.6,1.7-22.9,14.3-26.4,15.3C433.9,310.1,433.6,312.9,436.4,313.8z"/>
				
					<linearGradient id="SVGID_00000181069620223025304690000007701691955526710400_" gradientUnits="userSpaceOnUse" x1="466.5473" y1="280.5084" x2="498.2879" y2="313.9022">
					<stop  offset="0" style="stop-color:#EE1D4A"/>
					<stop  offset="1" style="stop-color:#FCB31E"/>
				</linearGradient>
				<path style="fill:url(#SVGID_00000181069620223025304690000007701691955526710400_);" d="M473.5,302.1c0.8-2.7,1.8-9,0-24.2
					c-1.1-9.3-2.2-13.2-2.9-16c-1.3-5-6.5-6.3-8.7-4.7c-3.5,2.6-6.6,8.4-6.1,11.1c2.9,15,6,26.4,6.1,30.1
					C462,303.8,472.5,305.3,473.5,302.1z"/>
				<path class="st31" d="M466.2,479.1c-0.5,2-0.3,2.7-0.5,4c-0.3,1.6-1.8,2.2-2.7,3.5c-1,1.5-2.5,3.6,3.5,3.7
					c6.4,0.1,10.2-0.1,9.1-3.6c-1.1-3.5-1.3-5-1.2-6.2c0.1-1.1,0-2.3-0.7-3C472.9,476.9,467.1,475.6,466.2,479.1z"/>
				<path class="st12" d="M389.2,282.4c-2.1-1.1-18.8-8.7-19-4.7c-0.2,4.4,5.8,8.9,8,10.1c4,2.3,8.9,1.4,10.8-0.7
					C390.4,285.8,391.1,283.4,389.2,282.4z"/>
				<path class="st12" d="M388.6,281.2c-0.7-0.9-4.5-5.9-5.5-5.3c-1.5,1,0.8,4.5,2.4,6.7c0.8,1.2,2.8,2.3,3.7,1.5
					C390.1,283.4,389.6,282.6,388.6,281.2z"/>
				<path class="st31" d="M417,482c-0.5,0.9-2.9,3.1-6.2,4.5c-3.3,1.4-10.4,2.1-6.5,3.4c3.9,1.3,8.5,0.5,10.8,0.1
					c2.3-0.4,4.6-0.4,7.3-0.4c3.6,0,3.6-0.2,3.1-4.1C424.9,480.1,418.6,479,417,482z"/>
				<path class="st12" d="M457.8,232.9c-0.7,7.3-0.9,8.9-4.1,11.9c-3.2,3-8.1,3.4-11.6,3.4c-3.7,0-6.2-4.5-7-7.6
					c-0.9-3.2-1.8-9.2-0.7-17.1c0.5-4,5.5-8.9,10.6-8.9C450.2,214.5,459.6,215.1,457.8,232.9z"/>
				
					<linearGradient id="SVGID_00000066485324510884597480000013260321563072588946_" gradientUnits="userSpaceOnUse" x1="431.7065" y1="219.5718" x2="431.7065" y2="292.9882" gradientTransform="matrix(0.5824 0.8129 -0.8129 0.5824 385.3716 -227.1122)">
					<stop  offset="0" style="stop-color:#EE1D4A"/>
					<stop  offset="1" style="stop-color:#FCB31E"/>
				</linearGradient>
				<path style="fill:url(#SVGID_00000066485324510884597480000013260321563072588946_);" d="M385.2,287.1c2.3,2.8,4.1,4.4,12.2,6.8
					c11,3.2,17.3,4.4,22.9,4.7c5.1,0.3,4.3-12-2.4-13.9c-5.6-1.6-27-0.4-30.4-1.5C385.2,282.6,383.4,284.8,385.2,287.1z"/>
				
					<linearGradient id="SVGID_00000061460140134785707990000012715653582525300619_" gradientUnits="userSpaceOnUse" x1="426.422" y1="235.0991" x2="426.422" y2="308.5204">
					<stop  offset="0" style="stop-color:#EE1D4A"/>
					<stop  offset="1" style="stop-color:#FCB31E"/>
				</linearGradient>
				<path style="fill:url(#SVGID_00000061460140134785707990000012715653582525300619_);" d="M420.8,295.5
					c2.1-1.8,6.3-6.6,13.1-20.4c4.1-8.4,5.3-12.3,6.2-15.1c1.6-4.9-2.1-8.8-4.8-8.6c-4.4,0.2-10.1,3.5-11.1,6
					c-5.6,14.2-9.1,25.5-11.1,28.7C410.2,290.8,418.2,297.7,420.8,295.5z"/>
				<path class="st12" d="M454.1,245.7c0.2,2.5,0.4,5.4,0.5,8.1c0.1,3.5-2.6,6.7-6.1,7c-0.2,0-0.3,0-0.4,0c-3.1,0-6.8-2.8-6.6-6
					c0.2-2,0.2-4.1,0.3-5.9c0-3.5,2.2-6.5,5.4-7.7l0,0C450.5,240.1,453.8,242.3,454.1,245.7z"/>
				
					<linearGradient id="SVGID_00000098928165370511407510000002912285938331968129_" gradientUnits="userSpaceOnUse" x1="444.2244" y1="235.1" x2="444.2244" y2="308.5199">
					<stop  offset="0" style="stop-color:#EE1D4A"/>
					<stop  offset="1" style="stop-color:#FCB31E"/>
				</linearGradient>
				<path style="fill:url(#SVGID_00000098928165370511407510000002912285938331968129_);" d="M468.7,276.7
					c-5.8,19.2-7.7,39.2-6.6,52.6h-43.9c0,0,0.3-41.1,3.2-63.7c0.7-5.2,3.7-10,9.3-12.9c3.3-1.8,9.3-2.6,11.7-2.6h8.1
					c2.7,0,5.9,0.3,8.6,1.1C471,254.9,472,265.6,468.7,276.7z"/>
				<path class="st4" d="M461.9,356.2c0,0,3.8-9.2,0.2-26.9h-43.9c0,0-1.6,12.6-1.6,26.9H461.9z"/>
				<g>
					<g>
						<path class="st4" d="M453.2,413.7c-3.5-14.3,11.1-16.8,15.7-6.5c6.5,14.6,6,61.4,5.7,70.7c0,1.2,0.2,2.7-0.5,3.2
							c-1.2,0.8-3.6,0.8-4.6,0.7c-1.6-0.1-3.2,0-3.4-2.1C464.9,466.1,456.6,427.5,453.2,413.7z"/>
						<path class="st4" d="M440.1,358.1c-1.5-17.8,5.5-31.6,16.5-25.7c4.6,2.5,6.3,7.4,7,12.1c0.6,4.6,4,53,5.2,61.7
							c2.7,19.7-12.9,14.4-14.5,8.9C450,401.3,440.9,367.8,440.1,358.1z"/>
					</g>
				</g>
				<path class="st4" d="M425.5,485.2c0.6-20.9,9.4-57.6,4.3-74.6c-3.3-10.8-16.2-11.1-15.7,2.2c0.6,14.3,4.9,41.9,3.4,69.4
					C417.4,484.8,425.4,487.6,425.5,485.2z"/>
				<path class="st4" d="M429.3,414.2c-1.7,5.4-16.6,11.7-15-8.1c0.7-8.8,2.5-57.3,2.9-62c0.4-4.7,1.2-11.5,3.5-12.4
					c11.7-4.3,23.1,9.7,20,27.2C438.6,370.7,432.8,402.9,429.3,414.2z"/>
				<path class="st12" d="M436.3,231.3c1,2.5,0.8,5-0.5,5.5c-1.3,0.5-3.2-1.1-4.2-3.6c-1-2.5-0.8-5,0.5-5.5
					C433.4,227.2,435.3,228.8,436.3,231.3z"/>
				<path class="st12" d="M455.2,231.3c-1,2.5-0.8,5,0.5,5.5c1.3,0.5,3.2-1.1,4.2-3.6c1-2.5,0.8-5-0.5-5.5
					C458.1,227.2,456.2,228.8,455.2,231.3z"/>
				
					<linearGradient id="SVGID_00000156554041865961064990000007941703387678873783_" gradientUnits="userSpaceOnUse" x1="424.2424" y1="203.0954" x2="486.071" y2="250.7068">
					<stop  offset="0" style="stop-color:#3953A4"/>
					<stop  offset="1" style="stop-color:#9D1F60"/>
				</linearGradient>
				<path style="fill:url(#SVGID_00000156554041865961064990000007941703387678873783_);" d="M455.6,218.5c-2.8,4.2-16.5,4.6-21,3.1
					c-4.5-1.6-4.2-10.2,2.2-10.8c3.6,0,1,0.9,3.9,2C442.2,213.5,458.6,214,455.6,218.5z"/>
			</g>
			
				<linearGradient id="SVGID_00000091730209459098078960000013282829023951765407_" gradientUnits="userSpaceOnUse" x1="420.6463" y1="207.7676" x2="482.4726" y2="255.3771">
				<stop  offset="0" style="stop-color:#3953A4"/>
				<stop  offset="1" style="stop-color:#9D1F60"/>
			</linearGradient>
			<path style="fill:url(#SVGID_00000091730209459098078960000013282829023951765407_);" d="M440.2,217.8c-4.2,2.5-5.2,4.8-5.1,10
				c0.1,5.2,2.3,14.1,11.9,16.1c9.6,2,11.9-7.5,12.4-14.1c0.6-6.6,0.2-11.5-4.6-12.6C447.6,215.4,442.7,216.3,440.2,217.8z"/>
		</g>
		<g>
			<defs>
				<path id="SVGID_00000067219069789743365590000003822445030627402121_" d="M475.6,486.7c-1-3.3-1.3-4.9-1.2-6
					c0.3-0.6,0.2-1.8,0.2-2.8c0.3-9.3,0.9-56.1-5.7-70.7c0,0,0,0,0,0c0-0.3-0.1-0.6-0.1-1c-1.2-8.5-4.5-54.9-5.2-61.3
					c0.1-4.1-0.3-9.3-1.5-15.6c-0.5-5.7-0.4-12.7,0.3-20.3c3.6-1.3,6.1-2.8,9.9-5.1c0.7-0.4,1.1-1,1.2-1.7c0,0,0-0.1,0-0.1
					c0.8-2.7,1.8-9,0-24.2c-1.1-9.3-2.2-13.2-2.9-16c-0.4-1.6-1.3-2.9-2.3-3.7c-1.8-3.1-4.7-5.5-9.3-6.9c-1.4-0.4-3-0.7-4.6-0.9
					c-0.1-1.6-0.2-3.2-0.3-4.7c0-0.4-0.1-0.8-0.2-1.1c1.7-1.6,2.5-2.9,3-5c0.6-1.2,1.1-2.4,1.5-3.8c0.6-0.6,1.1-1.5,1.6-2.5
					c1-2.4,0.8-4.8-0.4-5.4c0.3-5.1-0.3-8.8-3.7-10.3c0.1-3.6-13.8-4.1-15.2-4.7c-2.9-1.2-0.3-2-3.9-2c-6.4,0.6-6.7,9.2-2.2,10.8
					c0.1,0,0.2,0,0.3,0.1c-0.2,0.6-0.4,1.2-0.5,1.8c-0.2,1.7-0.3,3.3-0.4,4.7c-0.7-0.5-1.4-0.7-1.9-0.4c-1.3,0.5-1.6,3-0.5,5.5
					c0.7,1.7,1.8,3,2.8,3.4c0.2,1.5,0.5,2.8,0.8,3.8c0.8,3,3.2,7.3,6.8,7.5c0,0.3-0.1,0.5-0.1,0.8c0,0.4,0,0.8,0,1.2
					c-2.2,0.1-6.4,0.7-9.5,1.8c-3.7,1.1-7.3,3.5-8.1,5.5c-0.3,0.8-0.6,1.6-0.9,2.4c-0.7,1.3-1.2,2.6-1.5,4
					c-4.2,11.1-6.9,19.6-8.6,22.3c-0.3,0.5-0.4,1-0.5,1.4c-4.4,3.9-14,18.6-17.7,22.7c-0.1,0-0.1,0-0.2,0.1c-0.4-0.1-1-0.1-1.7-0.1
					c-1.1,0-7.5,0.3-7.5,1.5c0,1.2,1.7,1.6,3.7,1.8c-5.1,3.3-11.7,8.2-9.6,9.8c3.5,2.7,10.6,0.3,12.9-0.8c3.5-1.6,5.4-5,5.7-7.7
					c2.5-0.5,5.1-1.7,10.2-5.7c4.4-3.4,7.7-6.2,10.4-8.7c-0.6,15.6-0.7,28.8-0.7,28.8s-1.6,12.6-1.6,26.9l0,0
					c-0.7,16.3-1.8,43.6-2.3,49.9c-0.1,1.6-0.1,3-0.1,4.2c-0.1,0.7-0.1,1.5-0.1,2.4c0.6,14.1,4.8,41.3,3.5,68.6
					c-0.2,0.2-0.4,0.4-0.6,0.7c-0.5,0.9-2.9,3.1-6.2,4.5c-3.3,1.4-10.4,2.1-6.5,3.4c3.9,1.3,8.5,0.5,10.8,0.1
					c2.3-0.4,4.6-0.4,7.3-0.4c3.6,0,3.6-0.2,3.1-4.1c0-0.1,0-0.2-0.1-0.3c0,0,0,0,0,0c0.5-20.5,9.1-56.2,4.6-73.7
					c3.4-12.5,8.2-39.2,10.3-51c1.6,10.5,8.1,35.1,12.3,49.5c0,1.1,0.2,2.3,0.5,3.6c3.4,13.9,11.7,52.5,12.9,66.1c0,0,0,0,0,0
					c-0.3,1.5-0.2,2.2-0.4,3.4c-0.3,1.6-1.8,2.2-2.7,3.5c-1,1.5-2.5,3.6,3.5,3.7C472.9,490.4,476.6,490.2,475.6,486.7z"/>
			</defs>
			<clipPath id="SVGID_00000036938734901067477440000001670860397237120397_">
				<use xlink:href="#SVGID_00000067219069789743365590000003822445030627402121_"  style="overflow:visible;"/>
			</clipPath>
			
				<linearGradient id="SVGID_00000094608285493585588710000008684892355645596560_" gradientUnits="userSpaceOnUse" x1="-39.3325" y1="569.6832" x2="216.0954" y2="726.6128" gradientTransform="matrix(-0.3987 -0.8712 0.5368 -0.4748 160.3165 731.9463)">
				<stop  offset="0" style="stop-color:#3953A4"/>
				<stop  offset="1" style="stop-color:#9D1F60"/>
			</linearGradient>
			
				<path style="opacity:0.3;clip-path:url(#SVGID_00000036938734901067477440000001670860397237120397_);fill:url(#SVGID_00000094608285493585588710000008684892355645596560_);" d="
				M460.6,201.9c19.8-12.1,56.4,6.3,63,30.2c6.7,24.5-11.7,36.2,3.4,70c11.9,26.8-1.8,56.2-5,79.4c-3.5,25.5,9.2,37.8,5,60.5
				c-9.7,52.2,37.9,83.3,2,94.4c-36.9,11.4-36.3-11.9-76.4-12.1c-34.8-0.1-36.7-88.8-33.1-122.7c3.8-35.9,24.5-42,15.6-80.2
				c-5.3-22.9-9.7-35.9,13-60.6C459.8,248.1,422.7,225.1,460.6,201.9z"/>
		</g>
	</g>
	<g class="st38">
		<path class="st4" d="M440.7,159.6c-1.3,0-2.5-0.4-3.7-1.2c-0.6-0.4-1.1-0.8-1.6-1.4c-0.5-0.6-0.9-1.2-1.2-1.9
			c-1.4-2.8-1.4-6.4,0-9.1c0.3-0.6,0.7-1.3,1.2-1.8c0.5-0.5,1-1,1.6-1.3c1.2-0.7,2.4-1,3.7-0.9c1.2,0.1,2.5,0.6,3.5,1.5
			c0.5,0.4,1,0.9,1.4,1.5c0.4,0.6,0.8,1.2,1.1,1.8c1.2,2.7,1.2,5.9,0,8.5c-0.3,0.6-0.6,1.2-1.1,1.7c-0.4,0.5-0.9,1-1.4,1.4
			C443.1,159.2,441.9,159.6,440.7,159.6 M443.6,132.8l-5.9-0.8l-0.2,2.9c-1.3,0.2-2.7,0.7-3.9,1.5l-2-2.2l-4.7,4.9l1.8,2.5
			c-0.8,1.5-1.4,3.1-1.8,4.7l-2.8,0.1v7.9l2.8,0.3c0.4,1.7,1,3.3,1.8,4.9l-1.8,2.4l4.7,5.2l2-2.1c1.3,0.8,2.6,1.4,3.9,1.7l0.2,2.9
			l5.9-0.4l0.2-2.8c1.2-0.4,2.4-1.1,3.5-2l1.6,1.7l3.7-4.9l-1.4-2c0.6-1.3,1.1-2.8,1.3-4.2l2-0.2V148l-2-0.3
			c-0.3-1.5-0.7-2.9-1.3-4.3l1.4-1.9l-3.7-5.2l-1.6,1.6c-1.1-1-2.3-1.7-3.5-2.2L443.6,132.8"/>
		<path class="st39" d="M412.6,139.3c-0.4,0-0.8-0.2-1.1-0.4c-0.2-0.1-0.3-0.3-0.5-0.4c-0.1-0.2-0.3-0.3-0.4-0.5
			c-0.4-0.8-0.4-1.7,0-2.4c0.1-0.2,0.2-0.3,0.4-0.5c0.1-0.1,0.3-0.2,0.5-0.3c0.4-0.2,0.7-0.2,1.1-0.2c0.4,0,0.8,0.2,1.1,0.4
			c0.2,0.1,0.3,0.3,0.5,0.4c0.1,0.2,0.3,0.3,0.4,0.5c0.4,0.8,0.4,1.7,0,2.4c-0.1,0.2-0.2,0.3-0.4,0.5c-0.1,0.1-0.3,0.2-0.5,0.3
			C413.4,139.3,413,139.3,412.6,139.3 M414.4,127l-3.8-0.6l-0.1,1.6c-0.8,0.1-1.7,0.3-2.4,0.7l-1.2-1.2l-2.8,2.5l1.1,1.4
			c-0.5,0.8-0.8,1.6-1.1,2.5l-1.7-0.1v4.1l1.7,0.3c0.2,0.9,0.6,1.8,1.1,2.7l-1.1,1.2l2.8,3.1l1.2-1c0.8,0.5,1.6,0.9,2.4,1.2l0.1,1.6
			l3.8,0.2l0.1-1.6c0.8-0.2,1.6-0.5,2.3-0.9l1.1,1.1l2.5-2.5l-0.9-1.2c0.4-0.7,0.7-1.5,0.9-2.3l1.4,0V136l-1.4-0.3
			c-0.2-0.9-0.5-1.7-0.9-2.5l0.9-1l-2.5-3l-1.1,0.9c-0.7-0.6-1.5-1-2.3-1.3L414.4,127"/>
	</g>
</g>
</svg>
