<svg id="Layer_1" data-name="Layer 1" xmlns="http://www.w3.org/2000/svg" xmlns:xlink="http://www.w3.org/1999/xlink" viewBox="0 0 154.85 159.75"><defs><style>.cls-1{fill:none;}.cls-2{clip-path:url(#clip-path);}.cls-3{fill:#078543;}.cls-4{fill:#ac2327;}.cls-5{fill:#04af4b;}.cls-6{fill:#e32e2c;}.cls-7{fill:#51646b;}.cls-8{fill:#f1efef;}.cls-9{fill:#cccccb;}.cls-10{fill:#fff;}.cls-11{fill:#f3f1f1;}</style><clipPath id="clip-path" transform="translate(-17.27 -16.43)"><rect class="cls-1" x="17.28" y="16.43" width="154.85" height="159.73"/></clipPath></defs><g class="cls-2"><g id="Group_218" data-name="Group 218"><path id="Path_352" data-name="Path 352" class="cls-3" d="M159.55,84.41a5.73,5.73,0,0,1,11.26,0v64.1a5.73,5.73,0,0,1-11.26,0Z" transform="translate(-17.27 -16.43)"/><path id="Path_353" data-name="Path 353" class="cls-3" d="M90.85,137A54.14,54.14,0,0,1,77,148a34.82,34.82,0,0,1-17.57,4.63,42.1,42.1,0,0,1-29.71-11.88,40.82,40.82,0,0,1-9.09-13.28,41.83,41.83,0,0,1-3.31-16.77,42.74,42.74,0,0,1,3.23-16.52A41.48,41.48,0,0,1,42.87,71.56a42.69,42.69,0,0,1,16.87-3.31,38.72,38.72,0,0,1,16,3.41A44.07,44.07,0,0,1,98.26,94.28a39.91,39.91,0,0,1,3.42,16.43v36.87a5.42,5.42,0,1,1-10.83,0Zm0-26.22A31.38,31.38,0,0,0,59.37,79.25,30.12,30.12,0,0,0,47.23,81.7,31.23,31.23,0,0,0,30.56,98.46a31,31,0,0,0-2.45,12.25,30,30,0,0,0,2.45,12.14,31.58,31.58,0,0,0,16.69,16.69A31.12,31.12,0,0,0,88,123.22a34.77,34.77,0,0,0,2.89-12.49" transform="translate(-17.27 -16.43)"/><path id="Path_354" data-name="Path 354" class="cls-4" d="M85,110.44A25.52,25.52,0,1,0,59.48,136h0A25.5,25.5,0,0,0,85,110.45h0" transform="translate(-17.27 -16.43)"/><path id="Path_355" data-name="Path 355" class="cls-5" d="M89.1,80.84a44.48,44.48,0,0,0-13.36-9.18,38.72,38.72,0,0,0-16-3.41,42.62,42.62,0,0,0-16.87,3.31,41.84,41.84,0,0,0-13.44,9.1A43,43,0,0,0,25.75,85a71.07,71.07,0,0,0,6.74,9.69,31.25,31.25,0,0,1,14.76-13,30.18,30.18,0,0,1,12.14-2.45,31.36,31.36,0,0,1,31.47,31.46,35.06,35.06,0,0,1-1.47,8.67c3.89.09,8,0,12.3-.32v-8.35a40.06,40.06,0,0,0-3.41-16.43A43.82,43.82,0,0,0,89.1,80.84" transform="translate(-17.27 -16.43)"/><path id="Path_356" data-name="Path 356" class="cls-5" d="M165.11,74.32a6.95,6.95,0,1,0-5-2,6.78,6.78,0,0,0,5,2" transform="translate(-17.27 -16.43)"/><path id="Path_357" data-name="Path 357" class="cls-6" d="M59.47,84.92A25.49,25.49,0,0,0,36.58,99.13c10.23,10.23,25.18,18.26,46.92,19.94a25.55,25.55,0,0,0-24-34.15h0" transform="translate(-17.27 -16.43)"/><path id="Path_358" data-name="Path 358" class="cls-5" d="M170.81,104.53V84.41a5.73,5.73,0,0,0-11.26,0v25.47a87.87,87.87,0,0,0,11.26-5.35" transform="translate(-17.27 -16.43)"/><path id="Path_359" data-name="Path 359" class="cls-7" d="M39.46,166.23H37.17v-2.12h2.29Zm0,9.72H37.17v-8.68h2.29Z" transform="translate(-17.27 -16.43)"/><path id="Path_360" data-name="Path 360" class="cls-7" d="M49.49,175.94H47.21v-5.26c0-.64,0-1.71-1.48-1.71a1.78,1.78,0,0,0-1.81,1.74,2.26,2.26,0,0,0,0,.26v5H41.64v-8.68h2.2v1.27h0a2.73,2.73,0,0,1,2.61-1.49,2.77,2.77,0,0,1,3,2.51,1.28,1.28,0,0,1,0,.39Z" transform="translate(-17.27 -16.43)"/><path id="Path_361" data-name="Path 361" class="cls-7" d="M59.47,175.94H57.18v-5.26c0-.64,0-1.71-1.49-1.71a1.78,1.78,0,0,0-1.81,1.74,2.26,2.26,0,0,0,0,.26v5H51.6v-8.68h2.2v1.27h0a3,3,0,0,1,5.62,1,1.27,1.27,0,0,1,0,.39Z" transform="translate(-17.27 -16.43)"/><path id="Path_362" data-name="Path 362" class="cls-7" d="M65.52,176.18a4.57,4.57,0,1,1,4.42-4.42,4.58,4.58,0,0,1-4.42,4.42m0-7.23c-1.76,0-2.08,1.54-2.08,2.65s.32,2.64,2.08,2.64,2.1-1.54,2.1-2.64-.33-2.65-2.1-2.65" transform="translate(-17.27 -16.43)"/><path id="Path_363" data-name="Path 363" class="cls-7" d="M75.89,175.94H73.48l-3.1-8.69h2.54l1.8,6.4h0l1.86-6.4H79Z" transform="translate(-17.27 -16.43)"/><path id="Path_364" data-name="Path 364" class="cls-7" d="M87,174.24c0,1,.23,1.25.52,1.34v.34H85.05a4.5,4.5,0,0,1-.22-1A3.52,3.52,0,0,1,82,176.14a2.44,2.44,0,0,1-2.64-2.24,1.22,1.22,0,0,1,0-.27,2.66,2.66,0,0,1,2.51-2.79h0l2.07-.3c.35,0,.8-.21.8-.69,0-1-.92-1-1.51-1a1.22,1.22,0,0,0-1.39,1,.5.5,0,0,0,0,.17H79.65c.26-2.66,2.12-3,3.88-3,1.22,0,3.46.39,3.46,2.52Zm-2.22-2.53a3.57,3.57,0,0,1-1.56.46c-.85.15-1.53.37-1.53,1.32a1,1,0,0,0,.94,1h.11a1.89,1.89,0,0,0,2.05-1.71v-1.12Z" transform="translate(-17.27 -16.43)"/><path id="Path_365" data-name="Path 365" class="cls-7" d="M91.6,167.25H93v1.64H91.6v4.71c0,.51,0,.7,1,.7.14,0,.3,0,.48,0V176L92,176h-.3c-2,0-2.32-.73-2.32-1.86V168.9H88.16v-1.63h1.17v-2.35h2.29Z" transform="translate(-17.27 -16.43)"/><path id="Path_366" data-name="Path 366" class="cls-7" d="M101.93,173.39a3.72,3.72,0,0,1-3.79,2.77c-2.45,0-4.34-1.17-4.34-4.76A4,4,0,0,1,97.46,167a4.18,4.18,0,0,1,.5,0c1.71,0,4.08.8,4.08,4.78v.4h-6c.06.65.19,2.11,2,2.11a1.42,1.42,0,0,0,1.45-.94h2.34Zm-2.24-2.66A1.76,1.76,0,0,0,98,168.9h-.08c-1.08,0-1.65.69-1.78,1.83Z" transform="translate(-17.27 -16.43)"/><path id="Path_367" data-name="Path 367" class="cls-7" d="M110.74,175.94h-2.29v-7.05H107.2v-1.64h1.25v-.7c0-1.79,1-2.48,2.55-2.48.67,0,1,0,1.17,0v1.84h-.64c-.79,0-.8.24-.8,1v.33h1.47v1.64h-1.47v7.05Z" transform="translate(-17.27 -16.43)"/><path id="Path_368" data-name="Path 368" class="cls-7" d="M117.13,176.18a4.57,4.57,0,1,1,4.44-4.7v.13a4.21,4.21,0,0,1-3.84,4.55c-.21,0-.4,0-.6,0m0-7.23c-1.76,0-2.08,1.54-2.08,2.65s.32,2.64,2.08,2.64,2.09-1.54,2.09-2.64-.34-2.65-2.09-2.65" transform="translate(-17.27 -16.43)"/><path id="Path_369" data-name="Path 369" class="cls-7" d="M123.14,167.25h2.21v1.51h0a2.54,2.54,0,0,1,2.37-1.73l.45,0v2.32a4.72,4.72,0,0,0-.65,0,1.85,1.85,0,0,0-2.1,1.56,1.46,1.46,0,0,0,0,.51V176h-2.31Z" transform="translate(-17.27 -16.43)"/><path id="Path_370" data-name="Path 370" class="cls-7" d="M141.08,174.24c0,1,.22,1.25.5,1.34v.34h-2.45a3.32,3.32,0,0,1-.21-1,3.55,3.55,0,0,1-2.82,1.25,2.45,2.45,0,0,1-2.63-2.25,2.62,2.62,0,0,1,0-.28,2.68,2.68,0,0,1,2.52-2.78h0l2-.31c.37-.05.8-.21.8-.69,0-1-.91-1-1.49-1a1.25,1.25,0,0,0-1.4,1.05s0,.11,0,.16h-2.21c.27-2.66,2.11-3,3.87-3,1.22,0,3.46.38,3.46,2.51Zm-2.24-2.53a3.08,3.08,0,0,1-1.56.46c-.84.15-1.55.37-1.55,1.32a1,1,0,0,0,1,1h.11a1.87,1.87,0,0,0,2-1.71Z" transform="translate(-17.27 -16.43)"/><rect id="Rectangle_159" data-name="Rectangle 159" class="cls-7" x="125.92" y="147.8" width="2.29" height="11.71"/><rect id="Rectangle_160" data-name="Rectangle 160" class="cls-7" x="130.45" y="147.8" width="2.27" height="11.71"/><path id="Path_371" data-name="Path 371" class="cls-3" d="M149.44,115.36c.43-.85.82-1.72,1.17-2.6-3,.91-8.44,2.53-14,3.94-1.28,1.39-2.88,3-4.83,4.81L108.34,143.8l0,0a6.58,6.58,0,0,0-2.23,4V148a4.33,4.33,0,0,0,.83,2.68,6.09,6.09,0,0,0,1.61,1.42,5.13,5.13,0,0,0,1.81.66l.06,0c.4.06.8.09,1.2.11h35.64a4.85,4.85,0,0,0,3.35-1.3,4.51,4.51,0,0,0,1.43-3.36,4.75,4.75,0,0,0-4.75-4.76H121.84l19.4-18a37.6,37.6,0,0,0,8.2-10" transform="translate(-17.27 -16.43)"/><path id="Path_372" data-name="Path 372" class="cls-5" d="M150.4,96a22.38,22.38,0,0,0-11.48-12,20.36,20.36,0,0,0-8.51-1.83,22.61,22.61,0,0,0-9.11,1.76,24.61,24.61,0,0,0-6.81,4.35A19.59,19.59,0,0,0,110.1,94a13.55,13.55,0,0,0-1.58,5.85,4.57,4.57,0,0,0,4.42,4.68h.22a3.86,3.86,0,0,0,3.25-1.48,8.65,8.65,0,0,0,1.35-2.74v-.06a11.62,11.62,0,0,1,4.37-6.65,12.56,12.56,0,0,1,7.74-2.4,13.29,13.29,0,0,1,5.24,1,11.54,11.54,0,0,1,4,2.77,13.14,13.14,0,0,1,2.66,4.16,13.88,13.88,0,0,1,1,5.18c0,.3,0,.59,0,.89v.23c0,.22,0,.43-.06.66l0,.22c0,.22-.06.43-.1.66l0,.17a8.08,8.08,0,0,1-.16.8,9.81,9.81,0,0,1-.73,2c-.15.31-.31.63-.5,1-.1.16-.19.32-.29.5a29.58,29.58,0,0,1-3.33,4.32c-.27.32-.58.64-.9,1,5.51-1.41,11-3,14-3.94A22.94,22.94,0,0,0,151.8,108c.09-.62.16-1.26.21-1.9,0-.36,0-.69,0-1v-.28A22.08,22.08,0,0,0,150.4,96" transform="translate(-17.27 -16.43)"/><path id="Path_373" data-name="Path 373" class="cls-8" d="M57.4,55.82s.05-1.46,2.32-.32c.6.3,1.43.73,2.39,1.2a18.67,18.67,0,0,0,6.94,1.95,12.75,12.75,0,0,0,4.08-.37c6-1.52,7.21-3.83,13.68-3.92a17.9,17.9,0,0,1,8.12,2.37s-.75-2.6-7.21-3.64A38.65,38.65,0,0,0,79,52.63h-.46A20.6,20.6,0,0,1,75,52.52c-3.68-.5-8.68-2.26-9.88-4.26-1.06-1.83-1-4.17.59-4.94a1.91,1.91,0,0,1,.51-.17,4.37,4.37,0,0,1,3.83,1.52A13.77,13.77,0,0,0,80.4,48.8a15.55,15.55,0,0,0,4.91-1,14.28,14.28,0,0,1-12-6.22h0c-.22-.32-.5-.72-.69-1.07a20.55,20.55,0,0,1-1.36-2.69s-1.31-3-2.68-6.29h0c-.5-1.17-1-2.42-1.39-3.61,0,0-.1-.27-.31-.75L52.56,22.4a.75.75,0,0,1-.08.24l0,0a1.3,1.3,0,0,1-.32.38,1.06,1.06,0,0,1-.45.19h0a1.14,1.14,0,0,1-.45,0,1.11,1.11,0,0,1-.88-1.3.76.76,0,0,1,.09-.28h0a1.3,1.3,0,0,1,.4-.44l-.19-.12.18.11h0l0,0a1.2,1.2,0,0,1,.81-.16,1.11,1.11,0,0,1,.88,1.31h0L66.84,27.1c-1.46-3.26-8.12-15.54-25.79-8.56l.21.07,0,0h.06a9.72,9.72,0,0,1,1.46.51,5.59,5.59,0,0,1,3.56,5.05,54,54,0,0,1,.06,6.85,40.82,40.82,0,0,1-1,7,20.24,20.24,0,0,0-.06,8.83,19.56,19.56,0,0,0,9.61,13h0l1.59.86a36.07,36.07,0,0,0,8.79,3.05c.83.19,1.71.37,2.61.51,0,0-1.25-.38-2.88-1.06-3.3-1.37-8.2-4-7.71-7.33M55.19,34.1l-.65.84-.68.87Z" transform="translate(-17.27 -16.43)"/><path id="Path_374" data-name="Path 374" class="cls-9" d="M85.66,58.49a12.19,12.19,0,0,0-3.38.87,30.59,30.59,0,0,1-7.58,1.93,16.26,16.26,0,0,1-6.17-.41,24.22,24.22,0,0,0,3.9,2A18.52,18.52,0,0,0,83.5,64.08S94.12,61,99.18,64.8a15.82,15.82,0,0,0-13.52-6.31" transform="translate(-17.27 -16.43)"/><path id="Path_375" data-name="Path 375" class="cls-10" d="M68.58,128.43l-3.12-6.12,3.11-1.59L61.26,116l-.45,8.68,3.11-1.59L67,129.21Z" transform="translate(-17.27 -16.43)"/><path id="Path_376" data-name="Path 376" class="cls-11" d="M49.7,113.39v2H43.19v-5.08a2.53,2.53,0,0,1,.08-.68,1.25,1.25,0,0,1,.28-.52,6.06,6.06,0,0,1,.67-.67l2.45-2.15c.16-.14.3-.28.45-.43a1.54,1.54,0,0,0,.22-.3.65.65,0,0,0,.08-.28c0-.09,0-.22,0-.36v-3.06c0-.64-.35-1-1-1h-.16c-.69,0-1,.32-1,1v1.69H42.79v-1.84A2.54,2.54,0,0,1,45,98.84a2.89,2.89,0,0,1,.72,0H47a2.56,2.56,0,0,1,2.9,2.12,3.47,3.47,0,0,1,0,.72v3.95a2.18,2.18,0,0,1-.14.8,2.48,2.48,0,0,1-.72.85l-2.68,2.36a2.89,2.89,0,0,0-.57.59,1.19,1.19,0,0,0-.1.32c0,.11,0,.24,0,.43v2.39Z" transform="translate(-17.27 -16.43)"/><path id="Path_377" data-name="Path 377" class="cls-11" d="M55.18,115.37a2.55,2.55,0,0,1-2.9-2.11,2.89,2.89,0,0,1,0-.72V101.68a2.54,2.54,0,0,1,2.18-2.86,2.18,2.18,0,0,1,.72,0h1.68A2.52,2.52,0,0,1,59.72,101a2.12,2.12,0,0,1,0,.71v10.86a2.52,2.52,0,0,1-2.17,2.83,2.48,2.48,0,0,1-.72,0H55.18Zm.49-14.51a.86.86,0,0,0-1,.72,1,1,0,0,0,0,.24v10.59c0,.64.37,1,1.09,1h.61a.85.85,0,0,0,1-.72.49.49,0,0,0,0-.24V101.82c0-.64-.37-1-1.09-1Z" transform="translate(-17.27 -16.43)"/><path id="Path_378" data-name="Path 378" class="cls-11" d="M69.77,111.51h-1.4v3.86H66v-3.86H61.78l-.52-1.86L66,98.87h2.41v10.78h1.38v1.86Zm-3.49-8.25h-.13l-2.29,6.39H66.1Z" transform="translate(-17.27 -16.43)"/><path id="Path_379" data-name="Path 379" class="cls-11" d="M71.08,102.53,70.52,101a4.59,4.59,0,0,0,2.61-2.14h.24l1.59.78v15.75H72.57v-13.3Z" transform="translate(-17.27 -16.43)"/><path id="Path_380" data-name="Path 380" class="cls-9" d="M57.4,55.82s.07-1.45,2.28-.36,7.54,4.33,13.37,2.82,7.47-3.84,13.67-3.92a18.18,18.18,0,0,1,8.2,2.37s-.6-2.58-7.29-3.67A38.44,38.44,0,0,0,79,52.61c.82,0,1.69-.06,2.68-.06l-2.11.78C73.18,55.58,65.65,56.1,60.45,51c-6.2-6-4.78-16-5.88-23.79a8.61,8.61,0,0,0-2.13-4.69,1.11,1.11,0,0,1-1.22.63,1.11,1.11,0,0,1-.39-2,18.09,18.09,0,0,0-9.48-2.57L41,18.51a6.15,6.15,0,0,1,5.27,5.59A48.83,48.83,0,0,1,45.37,38c-1.58,6.48-.81,22.31,22.59,26.2,0,0-11.31-3.36-10.56-8.34" transform="translate(-17.27 -16.43)"/></g></g></svg>